<svg viewBox="0 0 147 95" fill="none" xmlns="http://www.w3.org/2000/svg">
<path d="M167.855 52.5868C159.023 47.4876 148.817 43.5672 140.651 37.8182L121.315 26.7223C114.416 21.8683 106.015 17.5891 98.8395 12.8698C90.4592 7.35295 80.7813 2.92439 72.3706 -2.18595L40.8461 -21.3421C31.0711 -27.2853 11.725 -38.4943 0.454765 -41.0325L0.615604 -42.0082C12.0707 -39.4254 31.9574 -27.8873 41.3589 -22.1767L72.8834 -3.02055C81.3034 2.09515 90.9906 6.52907 99.3895 12.0566C106.576 16.7882 114.989 21.0685 121.895 25.9322L141.231 37.028C150.344 43.4425 161.569 48.0755 171.51 53.5156C192.174 64.8239 228.789 87.5458 250.955 93.6042L250.74 94.5657C228.512 88.4879 191.829 65.7439 171.044 54.377C169.975 53.7939 168.912 53.1911 167.857 52.5825L167.855 52.5868Z" fill="#2F2F2F"/>
<path d="M29.9552 -25.7869C29.8831 -25.8229 29.8137 -25.8742 29.7588 -25.9399C29.5501 -26.1791 29.5765 -26.5143 29.8111 -26.6955L32.6569 -28.8685C32.8891 -29.0454 33.2455 -28.9979 33.4542 -28.7587C33.6628 -28.5195 33.6364 -28.1843 33.4018 -28.0031L30.556 -25.8301C30.3884 -25.7007 30.1483 -25.6924 29.9552 -25.7869Z" fill="#2F2F2F"/>
<path d="M30.7018 -25.3106C30.6297 -25.3466 30.5603 -25.398 30.5054 -25.4636C30.2967 -25.7028 30.3231 -26.038 30.5578 -26.2192L33.4035 -28.3922C33.6381 -28.5734 33.9921 -28.5216 34.2008 -28.2824C34.4094 -28.0433 34.383 -27.708 34.1484 -27.5269L31.3026 -25.3538C31.135 -25.2244 30.8949 -25.2161 30.7018 -25.3106Z" fill="#2F2F2F"/>
<path d="M31.4949 -24.8075C31.4228 -24.8435 31.3534 -24.8949 31.2984 -24.9605C31.0898 -25.1997 31.1162 -25.535 31.3508 -25.7161L34.1966 -27.8891C34.4312 -28.0703 34.7852 -28.0185 34.9938 -27.7794C35.2024 -27.5402 35.176 -27.2049 34.9414 -27.0238L32.0956 -24.8507C31.9281 -24.7214 31.688 -24.713 31.4949 -24.8075Z" fill="#2F2F2F"/>
<path d="M31.8943 -29.4671L26.7388 -25.3204L28.4017 -25.4231L32.6417 -28.8207C32.6417 -28.8207 32.8214 -29.0675 32.5868 -29.3047C32.3547 -29.5461 32.0851 -29.5831 31.8989 -29.4644L31.8943 -29.4671Z" fill="#2F2F2F"/>
<path d="M32.7805 -24.2461L37.936 -28.3929L36.2731 -28.2901L32.0331 -24.8925C32.0331 -24.8925 31.8534 -24.6457 32.088 -24.4085C32.3225 -24.1714 32.5898 -24.1302 32.7759 -24.2488L32.7805 -24.2461Z" fill="#2F2F2F"/>
<path d="M35.0684 -27.544L35.0185 -20.8623L34.0762 -22.2544L34.1109 -27.7407C34.1109 -27.7407 34.1928 -28.0327 34.5189 -27.997C34.845 -27.9613 35.0405 -27.7637 35.0684 -27.544Z" fill="#2F2F2F"/>
<path d="M29.536 -26.2833L29.586 -32.965L30.5283 -31.573L30.4936 -26.0866C30.4936 -26.0866 30.4117 -25.7947 30.0856 -25.8303C29.7548 -25.8687 29.564 -26.0636 29.536 -26.2833Z" fill="#2F2F2F"/>
<path d="M50.4895 -14.265C50.4198 -14.3052 50.3575 -14.3581 50.305 -14.428C50.1155 -14.6788 50.1653 -15.0118 50.4136 -15.1738L53.4309 -17.1291C53.6792 -17.291 54.0327 -17.2169 54.2222 -16.9662C54.4118 -16.7154 54.3619 -16.3824 54.1136 -16.2204L51.0963 -14.2651C50.9173 -14.148 50.6799 -14.1551 50.4895 -14.265Z" fill="#2F2F2F"/>
<path d="M51.2021 -13.7405C51.1324 -13.7807 51.0701 -13.8337 51.0176 -13.9035C50.8281 -14.1543 50.8779 -14.4873 51.1262 -14.6493L54.1435 -16.6046C54.3917 -16.7665 54.7452 -16.6925 54.9348 -16.4417C55.1243 -16.1909 55.0745 -15.8579 54.8262 -15.696L51.8089 -13.7407C51.6299 -13.6236 51.3925 -13.6306 51.2021 -13.7405Z" fill="#2F2F2F"/>
<path d="M51.9587 -13.185C51.889 -13.2252 51.8267 -13.2781 51.7742 -13.348C51.5846 -13.5988 51.6345 -13.9318 51.8828 -14.0938L54.9 -16.0491C55.1483 -16.211 55.5018 -16.1369 55.6914 -15.8862C55.8809 -15.6354 55.831 -15.3024 55.5828 -15.1404L52.5655 -13.1851C52.3864 -13.068 52.149 -13.0751 51.9587 -13.185Z" fill="#2F2F2F"/>
<path d="M52.7164 -17.779L47.2265 -14.0288L48.9008 -14.012L53.411 -17.084C53.411 -17.084 53.6068 -17.3158 53.3938 -17.5688C53.1808 -17.8218 52.9116 -17.8811 52.7164 -17.779Z" fill="#2F2F2F"/>
<path d="M53.2024 -12.5404L58.6924 -16.2905L57.018 -16.3074L52.5078 -13.2354C52.5078 -13.2354 52.3121 -13.0036 52.5251 -12.7505C52.7381 -12.4975 53.0073 -12.4382 53.2024 -12.5404Z" fill="#2F2F2F"/>
<path d="M55.7518 -15.6477L55.1904 -9.02386L54.3552 -10.4728L54.8075 -15.9103C54.8075 -15.9103 54.9104 -16.1957 55.2407 -16.1351C55.5709 -16.0744 55.7498 -15.8694 55.7565 -15.645L55.7518 -15.6477Z" fill="#2F2F2F"/>
<path d="M50.1085 -14.7846L50.6699 -21.4085L51.505 -19.9596L51.0528 -14.5221C51.0528 -14.5221 50.9499 -14.2366 50.6196 -14.2973C50.2893 -14.3579 50.1105 -14.5629 50.1038 -14.7873L50.1085 -14.7846Z" fill="#2F2F2F"/>
<path d="M73.3427 -0.239647C73.2754 -0.284101 73.2156 -0.34128 73.1702 -0.412733C72.9997 -0.675104 73.0706 -1.00164 73.3325 -1.14438L76.5071 -2.87883C76.7691 -3.02156 77.1149 -2.92362 77.2879 -2.66549C77.4583 -2.40312 77.3874 -2.07658 77.1255 -1.93385L73.9509 -0.199394C73.7604 -0.0945722 73.5211 -0.119689 73.3427 -0.239647Z" fill="#2F2F2F"/>
<path d="M74.0166 0.330346C73.9494 0.285892 73.8895 0.228716 73.8441 0.157263C73.6736 -0.105108 73.7445 -0.431648 74.0065 -0.574382L77.181 -2.30883C77.443 -2.45156 77.7913 -2.35787 77.9618 -2.09549C78.1323 -1.83312 78.0614 -1.50659 77.7994 -1.36385L74.6248 0.370599C74.4343 0.475421 74.195 0.450304 74.0166 0.330346Z" fill="#2F2F2F"/>
<path d="M74.7298 0.928707C74.6626 0.884253 74.6028 0.827082 74.5573 0.755628C74.3869 0.493258 74.4578 0.166713 74.7197 0.023979L77.8943 -1.71047C78.1562 -1.85321 78.5046 -1.7595 78.6751 -1.49713C78.8455 -1.23476 78.7746 -0.908219 78.5127 -0.765485L75.3381 0.968962C75.1476 1.07378 74.9082 1.04867 74.7298 0.928707Z" fill="#2F2F2F"/>
<path d="M75.8384 -3.57584L70.0495 -0.230105L71.7259 -0.0989193L76.4826 -2.83643C76.4826 -2.83643 76.6991 -3.05062 76.5006 -3.31792C76.302 -3.58521 76.0402 -3.65721 75.836 -3.5716L75.8384 -3.57584Z" fill="#2F2F2F"/>
<path d="M75.9317 1.65655L81.7206 -1.68918L80.0442 -1.82036L75.2875 0.917147C75.2875 0.917147 75.071 1.13134 75.2696 1.39863C75.4682 1.66593 75.73 1.73793 75.9342 1.65231L75.9317 1.65655Z" fill="#2F2F2F"/>
<path d="M78.7189 -1.25134L77.6609 5.27808L76.9302 3.78771L77.7947 -1.57011C77.7947 -1.57011 77.9186 -1.84908 78.2413 -1.76454C78.5639 -1.68001 78.7308 -1.46496 78.7211 -1.24442L78.7189 -1.25134Z" fill="#2F2F2F"/>
<path d="M72.9927 -0.780913L74.0506 -7.31034L74.7813 -5.81997L73.9169 -0.462142C73.9169 -0.462142 73.793 -0.183176 73.4703 -0.267713C73.1476 -0.352249 72.9808 -0.567299 72.9905 -0.787839L72.9927 -0.780913Z" fill="#2F2F2F"/>
<path d="M96.7481 13.5166C96.6784 13.4764 96.6186 13.4192 96.5685 13.345C96.3885 13.0885 96.4501 12.7566 96.7052 12.6042L99.807 10.7599C100.062 10.6076 100.415 10.6928 100.595 10.9494C100.775 11.2059 100.714 11.5378 100.459 11.6902L97.3568 13.5345C97.1685 13.6462 96.9314 13.628 96.7481 13.5166Z" fill="#2F2F2F"/>
<path d="M97.4413 14.0638C97.3717 14.0236 97.3118 13.9664 97.2617 13.8923C97.0817 13.6357 97.1433 13.3038 97.3984 13.1515L100.5 11.3071C100.755 11.1548 101.109 11.24 101.289 11.4966C101.469 11.7532 101.407 12.0851 101.152 12.2374L98.0501 14.0817C97.8617 14.1935 97.6246 14.1753 97.4413 14.0638Z" fill="#2F2F2F"/>
<path d="M98.1739 14.6394C98.1042 14.5992 98.0444 14.542 97.9943 14.4679C97.8143 14.2113 97.8759 13.8794 98.131 13.7271L101.233 11.8827C101.488 11.7304 101.841 11.8156 102.021 12.0722C102.201 12.3287 102.14 12.6607 101.884 12.813L98.7827 14.6573C98.5943 14.7691 98.3572 14.7509 98.1739 14.6394Z" fill="#2F2F2F"/>
<path d="M99.1094 10.0915L93.4642 13.6389L95.1419 13.7142L99.78 10.8066C99.78 10.8066 99.9897 10.5828 99.7816 10.3213C99.5781 10.0625 99.3114 9.99894 99.1094 10.0915Z" fill="#2F2F2F"/>
<path d="M99.3978 15.3291L105.043 11.7817L103.365 11.7063L98.7272 14.614C98.7272 14.614 98.5175 14.8378 98.7256 15.0993C98.9291 15.3581 99.1958 15.4216 99.3978 15.3291Z" fill="#2F2F2F"/>
<path d="M102.07 12.3207L101.255 18.9002L100.47 17.4292L101.131 12.0273C101.131 12.0273 101.243 11.7472 101.573 11.8191C101.896 11.8924 102.07 12.1059 102.07 12.3207Z" fill="#2F2F2F"/>
<path d="M96.3815 12.9827L97.196 6.40316L97.9812 7.87412L97.3204 13.276C97.3204 13.276 97.2082 13.5561 96.8782 13.4843C96.5552 13.4109 96.3813 13.1974 96.3815 12.9827Z" fill="#2F2F2F"/>
<path d="M122.305 28.3795C122.241 28.3308 122.181 28.2736 122.138 28.1979C121.977 27.9298 122.064 27.607 122.328 27.4712L125.571 25.844C125.84 25.7108 126.185 25.8199 126.349 26.0839C126.51 26.352 126.422 26.6748 126.158 26.8106L122.916 28.4378C122.723 28.5357 122.486 28.5064 122.305 28.3795Z" fill="#2F2F2F"/>
<path d="M122.962 28.968C122.898 28.9193 122.838 28.8622 122.795 28.7865C122.634 28.5183 122.721 28.1955 122.985 28.0597L126.228 26.4325C126.497 26.2993 126.842 26.4084 127.006 26.6724C127.167 26.9405 127.079 27.2633 126.815 27.3991L123.573 29.0264C123.38 29.1243 123.143 29.0949 122.962 28.968Z" fill="#2F2F2F"/>
<path d="M123.659 29.5849C123.594 29.5362 123.534 29.479 123.491 29.4033C123.33 29.1352 123.418 28.8124 123.682 28.6766L126.924 27.0494C127.193 26.9162 127.539 27.0253 127.702 27.2892C127.863 27.5574 127.776 27.8802 127.512 28.016L124.269 29.6432C124.076 29.7411 123.839 29.7118 123.659 29.5849Z" fill="#2F2F2F"/>
<path d="M124.921 25.1353L119.007 28.2902L120.685 28.4729L125.544 25.8906C125.544 25.8906 125.77 25.6818 125.581 25.4087C125.392 25.1356 125.13 25.0524 124.921 25.1353Z" fill="#2F2F2F"/>
<path d="M124.839 30.3509L130.753 27.1961L129.075 27.0133L124.216 29.5957C124.216 29.5957 123.99 29.8045 124.179 30.0776C124.368 30.3507 124.63 30.4338 124.839 30.3509Z" fill="#2F2F2F"/>
<path d="M127.732 27.5382L126.445 34.0143L125.764 32.5019L126.811 27.1817C126.811 27.1817 126.944 26.9081 127.266 27.0038C127.589 27.0995 127.749 27.3161 127.727 27.5355L127.732 27.5382Z" fill="#2F2F2F"/>
<path d="M121.979 27.8293L123.266 21.3531L123.947 22.8656L122.9 28.1858C122.9 28.1858 122.767 28.4594 122.445 28.3637C122.122 28.268 121.962 28.0514 121.984 27.832L121.979 27.8293Z" fill="#2F2F2F"/>
<path d="M146.716 42.9872C146.648 42.9427 146.591 42.8813 146.545 42.8098C146.375 42.5475 146.453 42.2194 146.72 42.0793L149.912 40.3779C150.174 40.2352 150.525 40.3358 150.693 40.6024C150.863 40.8648 150.785 41.1929 150.519 41.3329L147.326 43.0343C147.135 43.1392 146.899 43.1098 146.716 42.9872Z" fill="#2F2F2F"/>
<path d="M147.387 43.5614C147.32 43.5169 147.262 43.4555 147.217 43.3841C147.046 43.1217 147.124 42.7936 147.391 42.6536L150.584 40.9522C150.846 40.8094 151.196 40.91 151.364 41.1766C151.535 41.439 151.457 41.7671 151.19 41.9072L147.997 43.6086C147.807 43.7134 147.57 43.684 147.387 43.5614Z" fill="#2F2F2F"/>
<path d="M148.095 44.1682C148.028 44.1238 147.971 44.0624 147.925 43.9909C147.755 43.7286 147.833 43.4005 148.099 43.2604L151.292 41.559C151.554 41.4163 151.905 41.5169 152.073 41.7835C152.243 42.0459 152.165 42.374 151.898 42.514L148.706 44.2154C148.515 44.3202 148.278 44.2909 148.095 44.1682Z" fill="#2F2F2F"/>
<path d="M149.244 39.6809L143.418 42.9717L145.094 43.1141L149.876 40.4192C149.876 40.4192 150.093 40.205 149.901 39.9361C149.71 39.6673 149.443 39.5926 149.239 39.6782L149.244 39.6809Z" fill="#2F2F2F"/>
<path d="M149.29 44.9088L155.115 41.618L153.439 41.4757L148.657 44.1705C148.657 44.1705 148.441 44.3847 148.632 44.6536C148.824 44.9224 149.09 44.9971 149.295 44.9115L149.29 44.9088Z" fill="#2F2F2F"/>
<path d="M152.107 42.0239L150.984 48.5381L150.265 47.0377L151.181 41.6871C151.181 41.6871 151.31 41.4108 151.63 41.4996C151.952 41.5841 152.117 41.8034 152.102 42.0212L152.107 42.0239Z" fill="#2F2F2F"/>
<path d="M146.373 42.4443L147.496 35.9301L148.215 37.4305L147.299 42.7812C147.299 42.7812 147.17 43.0575 146.85 42.9687C146.527 42.8842 146.363 42.6649 146.377 42.447L146.373 42.4443Z" fill="#2F2F2F"/>
<path d="M176.024 58.6997C175.949 58.6791 175.873 58.6405 175.803 58.5891C175.551 58.3928 175.5 58.0523 175.684 57.8305L177.929 55.09C178.115 54.864 178.468 54.8418 178.716 55.0355C178.968 55.2318 179.019 55.5723 178.835 55.7941L176.59 58.5346C176.457 58.7008 176.232 58.7576 176.024 58.6997Z" fill="#2F2F2F"/>
<path d="M176.85 59.018C176.775 58.9974 176.698 58.9588 176.629 58.9074C176.377 58.711 176.326 58.3706 176.51 58.1488L178.754 55.4083C178.94 55.1823 179.294 55.1601 179.541 55.3537C179.793 55.5501 179.844 55.8905 179.66 56.1123L177.416 58.8529C177.283 59.0191 177.058 59.0759 176.85 59.018Z" fill="#2F2F2F"/>
<path d="M177.719 59.3561C177.645 59.3356 177.568 59.2969 177.498 59.2455C177.247 59.0492 177.195 58.7088 177.379 58.487L179.624 55.7464C179.81 55.5204 180.163 55.4983 180.411 55.6919C180.663 55.8882 180.714 56.2287 180.53 56.4505L178.285 59.191C178.152 59.3573 177.927 59.4141 177.719 59.3561Z" fill="#2F2F2F"/>
<path d="M177.066 54.6429L173.045 59.8175L174.617 59.3794L177.925 55.1389C177.925 55.1389 178.042 54.8615 177.764 54.6671C177.491 54.4755 177.22 54.4943 177.068 54.6498L177.066 54.6429Z" fill="#2F2F2F"/>
<path d="M179.077 59.6537L183.098 54.4791L181.527 54.9172L178.218 59.1577C178.218 59.1577 178.101 59.4351 178.379 59.6295C178.652 59.8211 178.923 59.8023 179.075 59.6468L179.077 59.6537Z" fill="#2F2F2F"/>
<path d="M180.54 55.9078L181.989 62.5562L180.772 61.3616L179.576 55.9051C179.576 55.9051 179.587 55.5953 179.913 55.5682C180.238 55.5412 180.467 55.6906 180.54 55.9078Z" fill="#2F2F2F"/>
<path d="M175.511 58.2905L174.062 51.6422L175.28 52.8368L176.476 58.2932C176.476 58.2932 176.464 58.603 176.139 58.6301C175.814 58.6572 175.584 58.5077 175.511 58.2905Z" fill="#2F2F2F"/>
<path d="M207.25 76.7383C207.171 76.7262 207.094 76.6987 207.019 76.6559C206.748 76.4934 206.652 76.1554 206.801 75.908L208.652 72.8949C208.806 72.6501 209.148 72.5822 209.42 72.7446C209.691 72.907 209.787 73.245 209.638 73.4925L207.787 76.5056C207.677 76.6852 207.461 76.7697 207.25 76.7383Z" fill="#2F2F2F"/>
<path d="M208.101 76.9584C208.022 76.9463 207.945 76.9188 207.87 76.8759C207.599 76.7135 207.503 76.3755 207.652 76.128L209.503 73.115C209.652 72.8675 209.999 72.8023 210.271 72.9647C210.542 73.1271 210.638 73.4651 210.489 73.7126L208.638 76.7256C208.528 76.9053 208.312 76.9898 208.101 76.9584Z" fill="#2F2F2F"/>
<path d="M208.999 77.1941C208.92 77.182 208.843 77.1545 208.768 77.1116C208.497 76.9492 208.401 76.6112 208.55 76.3637L210.401 73.3507C210.55 73.1032 210.897 73.038 211.169 73.2004C211.44 73.3628 211.536 73.7008 211.387 73.9483L209.536 76.9613C209.426 77.141 209.21 77.2255 208.999 77.1941Z" fill="#2F2F2F"/>
<path d="M207.742 72.5507L204.46 78.2143L205.949 77.5871L208.648 72.9438C208.648 72.9438 208.726 72.6492 208.428 72.4888C208.131 72.3283 207.871 72.3818 207.742 72.5507Z" fill="#2F2F2F"/>
<path d="M210.374 77.3323L213.657 71.6687L212.168 72.2959L209.468 76.9392C209.468 76.9392 209.391 77.2338 209.689 77.3942C209.986 77.5547 210.246 77.5012 210.374 77.3323Z" fill="#2F2F2F"/>
<path d="M211.322 73.4074L213.605 79.8983L212.255 78.8476L210.371 73.5201C210.371 73.5201 210.341 73.2085 210.657 73.1426C210.974 73.0766 211.218 73.2006 211.317 73.4047L211.322 73.4074Z" fill="#2F2F2F"/>
<path d="M206.689 76.3916L204.406 69.9007L205.756 70.9514L207.639 76.2789C207.639 76.2789 207.665 76.5879 207.353 76.6565C207.041 76.7251 206.792 76.5984 206.694 76.3943L206.689 76.3916Z" fill="#2F2F2F"/>
</svg>
