<svg width="350" height="14" viewBox="0 0 350 14" fill="none" xmlns="http://www.w3.org/2000/svg">
<path d="M235.928 7.89534C223.405 7.89534 210.144 10.0104 197.931 8.90082L170.555 8.97361C160.238 8.03987 148.677 8.65224 138.149 8.0338C125.85 7.30621 112.839 8.54916 100.757 8.27632L55.4711 7.25163C41.4271 6.93028 13.9716 6.88784 0.42797 11.1442L0 9.99827C13.7675 5.6752 41.9999 5.73583 55.504 6.03899L100.79 7.06367C112.885 7.33652 125.909 6.09357 138.234 6.82115C148.782 7.44566 160.356 6.82723 170.687 7.76703L198.062 7.69424C211.691 8.93113 226.473 6.94948 240.385 6.62813C269.303 5.96117 322.192 7.65784 349.483 0.43049L349.845 1.59463C322.475 8.84017 269.5 7.16169 240.418 7.84077C238.923 7.87715 237.422 7.88928 235.928 7.88928V7.89534Z" fill="#2F2F2F"/>
<path d="M41.1604 9.22825C41.0616 9.23432 40.9562 9.22219 40.8575 9.18581C40.4888 9.05848 40.311 8.68256 40.4493 8.34302L42.1414 4.25035C42.2797 3.91688 42.6879 3.74711 43.0566 3.87443C43.4253 4.00176 43.6031 4.37768 43.4648 4.71722L41.7727 8.80989C41.6739 9.05242 41.4237 9.21006 41.1604 9.22825Z" fill="#2F2F2F"/>
<path d="M42.2467 9.27676C42.148 9.28282 42.0426 9.2707 41.9439 9.23432C41.5752 9.10699 41.3974 8.73107 41.5357 8.39153L43.2278 4.29886C43.3661 3.95932 43.7743 3.79561 44.143 3.92294C44.5117 4.05027 44.6895 4.42619 44.5512 4.76573L42.8591 8.8584C42.7603 9.10093 42.5101 9.25857 42.2467 9.27676Z" fill="#2F2F2F"/>
<path d="M43.399 9.32527C43.3002 9.33133 43.1949 9.3192 43.0961 9.28282C42.7274 9.1555 42.5496 8.77957 42.6879 8.44003L44.38 4.34736C44.5183 4.00782 44.9265 3.84412 45.2952 3.97145C45.6639 4.09877 45.8417 4.47469 45.7034 4.81423L44.0113 8.9069C43.9125 9.14943 43.6623 9.30708 43.399 9.32527Z" fill="#2F2F2F"/>
<path d="M40.9628 4.08058L38.0263 11.7202L39.7316 10.5804L42.1546 4.31098C42.1546 4.31098 42.1941 3.93507 41.799 3.82593C41.404 3.71073 41.0945 3.83805 40.9694 4.08058H40.9628Z" fill="#2F2F2F"/>
<path d="M45.1109 9.13124L48.0474 1.49159L46.3421 2.63147L43.9191 8.90084C43.9191 8.90084 43.8796 9.27676 44.2747 9.3859C44.6697 9.49504 44.9792 9.37377 45.1043 9.13124H45.1109Z" fill="#2F2F2F"/>
<path d="M45.5191 4.17759L49.5683 11.3746L47.7116 10.4652L44.38 4.55958C44.38 4.55958 44.2878 4.19578 44.6566 4.03208C45.0253 3.86837 45.3545 3.95932 45.5191 4.17759Z" fill="#2F2F2F"/>
<path d="M40.4098 8.95541L36.3605 1.75837L38.2172 2.66785L41.5488 8.57343C41.5488 8.57343 41.641 8.93722 41.2723 9.10093C40.897 9.26463 40.5744 9.17368 40.4098 8.95541Z" fill="#2F2F2F"/>
<path d="M70.0714 8.87051C69.9727 8.87051 69.8739 8.85232 69.7751 8.80988C69.4196 8.6583 69.2682 8.27025 69.4328 7.94284L71.4409 3.97749C71.6055 3.65008 72.0269 3.51063 72.3825 3.66221C72.738 3.81379 72.8894 4.20183 72.7248 4.52925L70.7167 8.49459C70.5982 8.73106 70.3414 8.87051 70.0714 8.87051Z" fill="#2F2F2F"/>
<path d="M71.1512 8.99177C71.0525 8.99177 70.9537 8.97358 70.8549 8.93114C70.4994 8.77956 70.348 8.39151 70.5126 8.0641L72.5207 4.09876C72.6853 3.77134 73.1067 3.63189 73.4623 3.78347C73.8178 3.93505 73.9692 4.3231 73.8046 4.65051L71.7965 8.61585C71.678 8.85232 71.4212 8.99177 71.1512 8.99177Z" fill="#2F2F2F"/>
<path d="M72.2969 9.1191C72.1981 9.1191 72.0993 9.10091 72.0006 9.05847C71.645 8.90689 71.4936 8.51884 71.6582 8.19143L73.6664 4.22609C73.831 3.89867 74.2524 3.75922 74.6079 3.9108C74.9635 4.06238 75.1149 4.45043 74.9503 4.77784L72.9421 8.74318C72.8236 8.97965 72.5668 9.1191 72.2969 9.1191Z" fill="#2F2F2F"/>
<path d="M70.2821 3.72284L66.7464 11.1442L68.5373 10.1256L71.4475 4.03813C71.4475 4.03813 71.5134 3.66827 71.1315 3.52882C70.7496 3.38936 70.427 3.49244 70.2821 3.72284Z" fill="#2F2F2F"/>
<path d="M74.0153 9.04028L77.551 1.6189L75.7601 2.63752L72.8499 8.72499C72.8499 8.72499 72.7841 9.09485 73.166 9.2343C73.5479 9.37376 73.8705 9.27068 74.0153 9.04028Z" fill="#2F2F2F"/>
<path d="M74.8186 4.12907L78.2885 11.5808L76.5107 10.544L73.6532 4.43223C73.6532 4.43223 73.5874 4.06238 73.9758 3.92293C74.3643 3.78347 74.6803 3.89261 74.8252 4.12907H74.8186Z" fill="#2F2F2F"/>
<path d="M69.3472 8.54916L65.8773 1.09747L67.655 2.13428L70.5126 8.246C70.5126 8.246 70.5784 8.61585 70.1899 8.75531C69.8015 8.89476 69.4854 8.78562 69.3406 8.54916H69.3472Z" fill="#2F2F2F"/>
<path d="M102.986 9.76182C102.887 9.75576 102.788 9.7315 102.696 9.683C102.353 9.50716 102.228 9.11305 102.419 8.79777L104.73 4.97188C104.921 4.65659 105.349 4.54745 105.692 4.71722C106.034 4.89306 106.159 5.28717 105.968 5.60245L103.657 9.42834C103.519 9.65875 103.249 9.78001 102.986 9.76182Z" fill="#2F2F2F"/>
<path d="M104.052 9.95584C103.953 9.94978 103.855 9.92552 103.762 9.87702C103.42 9.70119 103.295 9.30708 103.486 8.99179L105.797 5.1659C105.988 4.85061 106.416 4.73541 106.758 4.91125C107.101 5.08708 107.226 5.48119 107.035 5.79648L104.724 9.62237C104.585 9.85277 104.316 9.97403 104.052 9.95584Z" fill="#2F2F2F"/>
<path d="M105.178 10.1559C105.079 10.1499 104.981 10.1256 104.888 10.0771C104.546 9.90127 104.421 9.50716 104.612 9.19188L106.923 5.36599C107.114 5.0507 107.542 4.9355 107.884 5.11133C108.227 5.28717 108.352 5.68128 108.161 5.99656L105.85 9.82245C105.711 10.0529 105.441 10.1741 105.178 10.1559Z" fill="#2F2F2F"/>
<path d="M103.591 4.6384L99.4894 11.8112L101.353 10.9138L104.73 5.03251C104.73 5.03251 104.829 4.66872 104.454 4.50501C104.079 4.3413 103.756 4.42619 103.591 4.64446V4.6384Z" fill="#2F2F2F"/>
<path d="M106.903 10.1923L111.005 3.01952L109.142 3.91688L105.764 9.7982C105.764 9.7982 105.665 10.162 106.041 10.3257C106.416 10.4894 106.739 10.4045 106.903 10.1862V10.1923Z" fill="#2F2F2F"/>
<path d="M108.082 5.3478L110.966 13.0056L109.273 11.8597L106.903 5.5782C106.903 5.5782 106.864 5.20228 107.259 5.09314C107.654 4.98401 107.963 5.11133 108.088 5.35386L108.082 5.3478Z" fill="#2F2F2F"/>
<path d="M102.281 9.39803L99.3972 1.74019L101.089 2.88613L103.46 9.16762C103.46 9.16762 103.499 9.54354 103.104 9.65268C102.709 9.76182 102.4 9.63449 102.274 9.39196L102.281 9.39803Z" fill="#2F2F2F"/>
<path d="M136.322 10.0225C136.223 10.0225 136.124 9.99828 136.025 9.94978C135.676 9.78607 135.538 9.39196 135.716 9.07061L137.882 5.17196C138.06 4.85061 138.488 4.72328 138.837 4.88699C139.186 5.0507 139.324 5.44481 139.146 5.76616L136.98 9.6648C136.848 9.90127 136.585 10.0286 136.322 10.0225Z" fill="#2F2F2F"/>
<path d="M137.395 10.1802C137.296 10.1802 137.197 10.1559 137.099 10.1074C136.75 9.94371 136.611 9.5496 136.789 9.22825L138.955 5.3296C139.133 5.00825 139.561 4.88093 139.91 5.04463C140.259 5.20834 140.397 5.60245 140.219 5.9238L138.053 9.82245C137.922 10.0589 137.658 10.1862 137.395 10.1802Z" fill="#2F2F2F"/>
<path d="M138.527 10.3439C138.429 10.3439 138.33 10.3196 138.231 10.2711C137.882 10.1074 137.744 9.71331 137.922 9.39196L140.088 5.49331C140.266 5.17196 140.694 5.04463 141.042 5.20834C141.391 5.37205 141.53 5.76616 141.352 6.08751L139.186 9.98615C139.054 10.2226 138.791 10.3499 138.527 10.3439Z" fill="#2F2F2F"/>
<path d="M136.73 4.88699L132.905 12.1871L134.735 11.2291L137.882 5.23866C137.882 5.23866 137.968 4.8688 137.586 4.71722C137.211 4.56564 136.888 4.66265 136.73 4.88699Z" fill="#2F2F2F"/>
<path d="M140.252 10.3257L144.078 3.02558L142.247 3.98357L139.1 9.97403C139.1 9.97403 139.015 10.3439 139.396 10.4955C139.772 10.647 140.094 10.55 140.252 10.3257Z" fill="#2F2F2F"/>
<path d="M141.247 5.44481L144.42 13.0056L142.682 11.9143L140.068 5.71159C140.068 5.71159 140.015 5.34173 140.41 5.2144C140.799 5.09314 141.115 5.2144 141.247 5.44481Z" fill="#2F2F2F"/>
<path d="M135.604 9.67693L132.431 2.1161L134.169 3.20748L136.783 9.41015C136.783 9.41015 136.835 9.78001 136.44 9.90733C136.052 10.0286 135.736 9.90733 135.604 9.67693Z" fill="#2F2F2F"/>
<path d="M172.626 10.1377C172.527 10.1256 172.428 10.1014 172.336 10.0468C172 9.85884 171.895 9.45866 172.093 9.14944L174.542 5.39631C174.746 5.08708 175.18 4.99007 175.516 5.17197C175.852 5.35993 175.957 5.7601 175.76 6.06932L173.311 9.82246C173.166 10.0468 172.896 10.162 172.626 10.1377Z" fill="#2F2F2F"/>
<path d="M173.686 10.3621C173.587 10.35 173.488 10.3257 173.396 10.2711C173.06 10.0832 172.955 9.683 173.153 9.37378L175.602 5.62065C175.806 5.31142 176.241 5.21441 176.576 5.39631C176.912 5.58427 177.017 5.98444 176.82 6.29366L174.371 10.0468C174.226 10.2711 173.956 10.3863 173.686 10.3621Z" fill="#2F2F2F"/>
<path d="M174.805 10.5925C174.706 10.5804 174.608 10.5561 174.515 10.5015C174.18 10.3136 174.074 9.91341 174.272 9.60418L176.721 5.85105C176.925 5.54183 177.36 5.44481 177.696 5.62671C178.031 5.81467 178.137 6.21484 177.939 6.52407L175.49 10.2772C175.345 10.5015 175.075 10.6167 174.805 10.5925Z" fill="#2F2F2F"/>
<path d="M173.416 5.03858L169.064 12.084L170.96 11.2413L174.542 5.463C174.542 5.463 174.654 5.09921 174.285 4.92338C173.916 4.74754 173.587 4.8203 173.416 5.03858Z" fill="#2F2F2F"/>
<path d="M176.53 10.6834L180.882 3.63797L178.986 4.48076L175.404 10.259C175.404 10.259 175.292 10.6228 175.661 10.7986C176.03 10.9745 176.359 10.9017 176.53 10.6834Z" fill="#2F2F2F"/>
<path d="M177.88 5.8753L180.487 13.618L178.835 12.4175L176.682 6.06326C176.682 6.06326 176.655 5.68734 177.057 5.59033C177.459 5.49332 177.761 5.62671 177.873 5.8753H177.88Z" fill="#2F2F2F"/>
<path d="M171.941 9.7497L169.334 2.00697L170.986 3.20748L173.139 9.56174C173.139 9.56174 173.166 9.93766 172.764 10.0347C172.362 10.1317 172.06 9.99829 171.948 9.7497H171.941Z" fill="#2F2F2F"/>
<path d="M207.553 10.6895C207.455 10.6834 207.356 10.6531 207.264 10.6046C206.921 10.4288 206.803 10.0286 207 9.7133L209.351 5.91166C209.542 5.59638 209.976 5.48724 210.319 5.66913C210.661 5.84497 210.78 6.24514 210.582 6.56043L208.231 10.3621C208.093 10.5925 207.823 10.7077 207.553 10.6895Z" fill="#2F2F2F"/>
<path d="M208.62 10.8896C208.521 10.8835 208.422 10.8532 208.33 10.8047C207.988 10.6288 207.869 10.2287 208.067 9.91339L210.417 6.11175C210.608 5.79646 211.043 5.68732 211.385 5.86922C211.728 6.04505 211.846 6.44523 211.649 6.76051L209.298 10.5622C209.16 10.7926 208.89 10.9078 208.62 10.8896Z" fill="#2F2F2F"/>
<path d="M209.746 11.1018C209.647 11.0957 209.548 11.0654 209.456 11.0169C209.114 10.8411 208.995 10.4409 209.193 10.1256L211.543 6.32396C211.734 6.00867 212.169 5.89954 212.511 6.08143C212.854 6.25727 212.972 6.65744 212.775 6.97273L210.424 10.7744C210.286 11.0048 210.016 11.12 209.746 11.1018Z" fill="#2F2F2F"/>
<path d="M208.212 5.57819L204.037 12.7146L205.907 11.8294L209.338 5.97836C209.338 5.97836 209.436 5.61456 209.068 5.44479C208.699 5.27502 208.37 5.35991 208.205 5.57819H208.212Z" fill="#2F2F2F"/>
<path d="M211.471 11.1563L215.645 4.01994L213.775 4.90517L210.345 10.7562C210.345 10.7562 210.246 11.12 210.615 11.2897C210.984 11.4595 211.313 11.3746 211.477 11.1563H211.471Z" fill="#2F2F2F"/>
<path d="M212.695 6.3179L215.5 14L213.815 12.8359L211.504 6.53011C211.504 6.53011 211.471 6.15419 211.866 6.05112C212.261 5.94198 212.57 6.07537 212.689 6.3179H212.695Z" fill="#2F2F2F"/>
<path d="M206.855 10.3196L204.051 2.63752L205.736 3.80166L208.047 10.1074C208.047 10.1074 208.08 10.4833 207.685 10.5864C207.29 10.6955 206.98 10.5622 206.862 10.3196H206.855Z" fill="#2F2F2F"/>
<path d="M248.368 9.39296C248.276 9.41721 248.171 9.42327 248.066 9.41115C247.677 9.35658 247.414 9.0231 247.473 8.67143L248.178 4.34229C248.237 3.98456 248.599 3.74203 248.981 3.7966C249.369 3.85117 249.633 4.18465 249.573 4.53632L248.869 8.86546C248.829 9.12618 248.625 9.32626 248.368 9.39296Z" fill="#2F2F2F"/>
<path d="M249.442 9.22319C249.349 9.24744 249.244 9.2535 249.139 9.24138C248.75 9.18681 248.487 8.85333 248.546 8.50166L249.251 4.17252C249.31 3.81479 249.672 3.57226 250.054 3.62683C250.442 3.6814 250.706 4.01488 250.647 4.36655L249.942 8.69569C249.903 8.9564 249.698 9.15649 249.442 9.22319Z" fill="#2F2F2F"/>
<path d="M250.574 9.04735C250.482 9.07161 250.377 9.07767 250.271 9.06554C249.883 9.01098 249.619 8.67749 249.679 8.32583L250.383 3.99669C250.442 3.63896 250.805 3.39643 251.186 3.451C251.575 3.50557 251.838 3.83905 251.779 4.19071L251.075 8.51985C251.035 8.78057 250.831 8.98066 250.574 9.04735Z" fill="#2F2F2F"/>
<path d="M246.986 4.39686L245.886 12.4367L247.289 10.9936L248.204 4.39686C248.204 4.39686 248.158 4.027 247.743 3.99063C247.335 3.95425 247.058 4.14221 246.992 4.40292L246.986 4.39686Z" fill="#2F2F2F"/>
<path d="M252.2 8.52591L253.3 0.486084L251.898 1.92913L250.982 8.52591C250.982 8.52591 251.028 8.89577 251.443 8.93215C251.851 8.96853 252.128 8.78057 252.194 8.51985L252.2 8.52591Z" fill="#2F2F2F"/>
<path d="M251.456 3.60258L257.079 9.83557L255.052 9.30807L250.429 4.19678C250.429 4.19678 250.252 3.85723 250.581 3.62683C250.91 3.39643 251.246 3.41462 251.456 3.60258Z" fill="#2F2F2F"/>
<path d="M247.572 9.27169L241.949 3.0387L243.977 3.5662L248.599 8.6775C248.599 8.6775 248.777 9.01704 248.447 9.24744C248.118 9.47784 247.782 9.45965 247.572 9.27169Z" fill="#2F2F2F"/>
<path d="M292.651 9.40405C292.558 9.44043 292.46 9.45862 292.354 9.45862C291.966 9.45256 291.656 9.1494 291.663 8.79167L291.781 4.41402C291.795 4.0563 292.117 3.77132 292.506 3.77739C292.894 3.78345 293.204 4.08661 293.197 4.44434L293.079 8.82199C293.072 9.0827 292.894 9.30704 292.651 9.40405Z" fill="#2F2F2F"/>
<path d="M293.691 9.11302C293.599 9.1494 293.5 9.16759 293.395 9.16759C293.006 9.16153 292.697 8.85837 292.703 8.50064L292.822 4.12299C292.828 3.76526 293.158 3.48029 293.546 3.48635C293.934 3.49242 294.244 3.79558 294.237 4.15331L294.119 8.53095C294.112 8.79167 293.934 9.01601 293.691 9.11302Z" fill="#2F2F2F"/>
<path d="M294.79 8.80986C294.698 8.84624 294.599 8.86443 294.494 8.86443C294.106 8.85836 293.796 8.5552 293.803 8.19747L293.921 3.81983C293.928 3.4621 294.257 3.17713 294.646 3.18319C295.034 3.18925 295.343 3.49242 295.337 3.85015L295.218 8.22779C295.212 8.48851 295.034 8.71285 294.79 8.80986Z" fill="#2F2F2F"/>
<path d="M290.603 4.60805L290.59 12.7146L291.788 11.1199L291.808 4.46859C291.808 4.46859 291.709 4.1048 291.294 4.11693C290.879 4.12905 290.636 4.34733 290.603 4.60805Z" fill="#2F2F2F"/>
<path d="M296.338 8.10652L296.351 0L295.153 1.59463L295.133 8.24598C295.133 8.24598 295.232 8.60977 295.646 8.59765C296.061 8.58552 296.305 8.36724 296.338 8.10652Z" fill="#2F2F2F"/>
<path d="M294.935 3.31052L301.348 8.85837L299.268 8.56733L293.994 4.01991C293.994 4.01991 293.77 3.70463 294.066 3.43785C294.362 3.17106 294.698 3.15288 294.929 3.31052H294.935Z" fill="#2F2F2F"/>
<path d="M291.841 9.3798L285.428 3.83195L287.508 4.12299L292.782 8.6704C292.782 8.6704 293 8.98569 292.71 9.25247C292.42 9.51925 292.078 9.53745 291.847 9.3798H291.841Z" fill="#2F2F2F"/>
</svg>
