<svg width="60" height="95" viewBox="0 0 60 95" fill="none" xmlns="http://www.w3.org/2000/svg">
<g clip-path="url(#clip0)">
<path d="M50.6609 92.0919C49.8149 92.0919 50.1197 92.0919 49.1317 92.0919V72.0034C49.1317 71.1568 49.8149 70.4717 50.6609 70.4717C51.5061 70.4717 52.19 71.1568 52.19 72.0034V92.0919C51.1841 92.0919 51.5061 92.0919 50.6609 92.0919Z" fill="#CCD1D9" fill-opacity="0.24"/>
<path d="M59.8336 45.9529V62.8038C59.8336 67.889 55.7217 71.9944 50.6586 71.9944C45.5977 71.9944 41.4836 67.889 41.4836 62.8038V45.9529H59.8336Z" fill="#FDF4C8"/>
<path d="M56.7722 45.9529V62.8038C56.7722 67.3654 53.4616 71.1275 49.1279 71.8567C49.6267 71.9405 50.1359 71.9944 50.6586 71.9944C55.7217 71.9944 59.8336 67.889 59.8336 62.8038V45.9529H56.7722Z" fill="#ECDA9B"/>
<path d="M41.4836 33.6987H59.8336V45.9529H41.4836V33.6987Z" fill="#E6E9ED" fill-opacity="0.24"/>
<path d="M56.7722 33.6987H59.8335V45.9529H56.7722V33.6987Z" fill="#CCD1D9" fill-opacity="0.24"/>
<path d="M20.84 1.53176V10.7223L20.0754 12.2541H10.9004L10.1359 10.7223V1.53176C10.1359 0.689593 10.8094 0 11.665 0H19.3108C20.1523 0 20.84 0.689593 20.84 1.53176Z" fill="#B231C7"/>
<path d="M19.3108 0H14.7189C15.5604 0 16.248 0.689593 16.248 1.53176V10.7223L15.4835 12.2541H20.0754L20.84 10.7223V1.53176C20.84 0.689593 20.1523 0 19.3108 0Z" fill="#9E35A0"/>
<path d="M23.3943 33.6987C24.0364 35.1849 24.7398 36.7166 25.4275 38.309H5.54834C6.23676 36.7166 6.94012 35.1849 7.58225 33.6987H23.3943Z" fill="#FFEDAC"/>
<path d="M23.3943 33.6988H7.58228C9.4325 29.4865 10.9004 25.8104 10.9004 22.9765V12.2542H20.0754V22.9765C20.0754 25.8104 21.5441 29.4865 23.3943 33.6988Z" fill="#FFEDAC"/>
<path d="M26.1921 65.8657V87.3104H4.78381V65.8657H10.9005C10.9005 68.4087 12.9501 70.461 15.488 70.461C18.0117 70.461 20.0754 68.4087 20.0754 65.8657H26.1921Z" fill="#B943AD"/>
<path d="M26.1919 65.8659H20.0753C20.0753 63.3229 18.0115 61.2706 15.4878 61.2706C12.9499 61.2706 10.9003 63.3229 10.9003 65.8659H4.78366V87.3105H26.1919V65.8659ZM30.7794 58.222V91.9058V91.9365C30.7645 93.6231 29.3884 94.9694 27.7211 94.9694H3.25449V95C1.55733 95 0.196167 93.6231 0.196167 91.9365V58.222C0.196167 51.3291 2.8722 44.4518 5.54824 38.3091H25.4274C28.1034 44.4518 30.7794 51.3291 30.7794 58.222Z" fill="url(#paint0_linear)"/>
<path d="M25.4274 38.3091C24.7398 36.7167 24.0364 35.185 23.3943 33.6988C21.5441 29.4865 20.0754 25.8104 20.0754 22.9765V12.2542H15.4834V22.9765C15.4834 25.8104 16.9513 29.4865 18.8016 33.6988C19.4444 35.185 20.1478 36.7167 20.8355 38.3091C23.5115 44.4519 26.1875 51.3291 26.1875 58.222V65.8659H26.192V87.3106H26.1875V91.9059V91.9365C26.1726 93.6231 24.7965 94.9694 23.1292 94.9694H27.7212C29.3885 94.9694 30.7646 93.6216 30.7795 91.9365C30.7795 91.9208 30.7795 91.9208 30.7795 91.9059V58.222C30.7795 51.3291 28.1035 44.4519 25.4274 38.3091V38.3091Z" fill="#A0D468"/>
<path d="M3.25465 95.0001V94.9695H2.95813C3.05747 94.9785 3.15382 95.0001 3.25465 95.0001Z" fill="#A0D468"/>
<path d="M25.4274 38.3091H20.8354C23.5115 44.4518 26.1875 51.3291 26.1875 58.222V65.8659H26.192V87.3106H26.1875V91.9059V91.9365C26.1726 93.6231 24.7965 94.9694 23.1292 94.9694H27.7212C29.3885 94.9694 30.7646 93.6216 30.7795 91.9365C30.7795 91.9208 30.7795 91.9208 30.7795 91.9059V58.222C30.7795 51.3291 28.1035 44.4518 25.4274 38.3091V38.3091Z" fill="url(#paint1_linear)"/>
<path d="M23.3942 33.6987H18.8015C19.4444 35.1849 20.1477 36.7166 20.8354 38.309H25.4274C24.7397 36.7166 24.0364 35.1849 23.3942 33.6987Z" fill="#DDCC91"/>
<path d="M20.0754 22.9765V12.2542H15.4834V22.9765C15.4834 25.8104 16.9513 29.4865 18.8016 33.6988H23.3943C21.5441 29.4865 20.0754 25.8104 20.0754 22.9765Z" fill="#DDCC91"/>
<path d="M20.0709 78.1214H10.8989C10.0537 78.1214 9.36975 77.437 9.36975 76.5896C9.36975 75.743 10.0537 75.0579 10.8989 75.0579H20.0709C20.9169 75.0579 21.6001 75.743 21.6001 76.5896C21.6001 77.437 20.9169 78.1214 20.0709 78.1214Z" fill="#C2D5F1"/>
<path d="M17.0125 82.7183H13.9571C13.1119 82.7183 12.428 82.034 12.428 81.1865C12.428 80.3399 13.1119 79.6548 13.9571 79.6548H17.0125C17.8585 79.6548 18.5417 80.3399 18.5417 81.1865C18.5417 82.034 17.8585 82.7183 17.0125 82.7183Z" fill="#C2D5F1"/>
<path d="M58.3067 94.9708H43.0113C42.1661 94.9708 41.4822 94.2865 41.4822 93.4391C41.4822 92.5924 42.1661 92.0918 43.0113 92.0918H58.3067C59.1519 92.0918 59.8359 92.5924 59.8359 93.4391C59.8359 94.2865 59.1519 94.9708 58.3067 94.9708Z" fill="#E6E9ED" fill-opacity="0.24"/>
<path d="M53.7662 67.4109C52.9203 67.4109 52.2296 66.7266 52.2296 65.8792C52.2296 65.0325 52.9053 64.3474 53.7491 64.3474H53.7662C54.6107 64.3474 55.2954 65.0325 55.2954 65.8792C55.2954 66.7266 54.6107 67.4109 53.7662 67.4109V67.4109Z" fill="#ECDA9B"/>
<path d="M50.7079 62.8172C49.8619 62.8172 49.1713 62.1328 49.1713 61.2854C49.1713 60.4388 49.847 59.7537 50.6907 59.7537H50.7079C51.5524 59.7537 52.237 60.4388 52.237 61.2854C52.237 62.1328 51.5524 62.8172 50.7079 62.8172V62.8172Z" fill="#ECDA9B"/>
<path d="M55.2924 59.7559C54.4464 59.7559 53.7557 59.0708 53.7557 58.2241C53.7557 57.3767 54.4315 56.6924 55.2752 56.6924H55.2924C56.1361 56.6924 56.8215 57.3767 56.8215 58.2241C56.8215 59.0708 56.1361 59.7559 55.2924 59.7559Z" fill="#ECDA9B"/>
<path d="M15.4879 60.5046C18.4335 60.5046 20.84 62.8988 20.84 65.8658C20.84 68.8329 18.4335 71.227 15.4879 71.227C12.5267 71.227 10.1359 68.8329 10.1359 65.8658C10.1359 62.8988 12.5267 60.5046 15.4879 60.5046Z" fill="#D5E2F5"/>
</g>
<defs>
<linearGradient id="paint0_linear" x1="15.4878" y1="38.3091" x2="15.4878" y2="95" gradientUnits="userSpaceOnUse">
<stop stop-color="#FFE7AA"/>
<stop offset="1" stop-color="#FF6F31"/>
</linearGradient>
<linearGradient id="paint1_linear" x1="25.8075" y1="38.3091" x2="25.8075" y2="94.9694" gradientUnits="userSpaceOnUse">
<stop stop-color="#D9C992"/>
<stop offset="1" stop-color="#AD4D24"/>
</linearGradient>
<clipPath id="clip0">
<rect width="60" height="95" fill="white"/>
</clipPath>
</defs>
</svg>
