<svg width="63" height="95" viewBox="0 0 63 95" fill="none" xmlns="http://www.w3.org/2000/svg">
<path d="M19.1066 26.8295V22.9839H9.81147V26.8295C4.38934 28.7299 0.516388 33.8324 0.516388 39.8387V91.9355C0.516388 93.6211 1.89537 95 3.61475 95H25.3033C27.0075 95 28.4016 93.6211 28.4016 91.9355V39.8387C28.4016 33.8324 24.5136 28.7299 19.1066 26.8295Z" fill="#656D78"/>
<path d="M50.0902 91.9354C49.2331 91.9354 49.5738 91.9354 48.541 91.9354V75.0926C48.541 74.2456 49.2331 73.5603 50.0902 73.5603C50.9472 73.5603 51.6393 74.2456 51.6393 75.0926V91.9354C51.123 91.9369 50.9472 91.9354 50.0902 91.9354Z" fill="#CCD1D9" fill-opacity="0.24"/>
<path d="M9.81146 0H19.1065V7.64633H9.81146V0Z" fill="#9E1423"/>
<path d="M9.81146 7.64624H19.1065V22.9838H9.81146V7.64624Z" fill="#B32231"/>
<path d="M59.3701 42.9182L62.4685 62.8226H37.6967L40.7951 42.9182H59.3701Z" fill="#E6E9ED" fill-opacity="0.24"/>
<path d="M59.3701 42.9182H56.268L59.3663 62.8226H62.4685L59.3701 42.9182Z" fill="#CCD1D9" fill-opacity="0.24"/>
<path d="M62.4685 62.8225H62.4836C62.4836 69.595 56.9374 75.0806 50.0902 75.0806C43.2429 75.0806 37.7118 69.6107 37.6967 62.8375V62.8225H62.4685Z" fill="#ED5565"/>
<path d="M62.4685 62.8225H59.3822C59.3822 69.0742 54.6507 74.2194 48.5395 74.9751C49.0478 75.0379 49.5637 75.0806 50.0902 75.0806C56.9374 75.0806 62.4836 69.595 62.4836 62.8225H62.4685Z" fill="#B32231"/>
<path d="M5.16394 79.6745V50.5676H23.7541V79.6745H5.16394Z" fill="#ED5565"/>
<path d="M19.1065 26.8295V22.9839H14.4545V28.364C19.8607 30.2636 23.7496 35.3661 23.7496 41.3725V47.5H23.7541V82.742H23.7496V91.9355C23.7496 93.6211 22.3554 95 20.6512 95H25.3033C27.0075 95 28.4016 93.6211 28.4016 91.9355V39.8387C28.4016 33.8324 24.5136 28.7299 19.1065 26.8295Z" fill="#434A54"/>
<path d="M14.4545 7.64624H19.1065V22.9838H14.4545V7.64624Z" fill="#D3374E"/>
<path d="M14.4545 0H19.1065V7.64633H14.4545V0Z" fill="#B32231"/>
<path d="M14.459 58.9769C14.459 60.248 13.4212 61.2752 12.1352 61.2752C10.8493 61.2752 9.81146 60.248 9.81146 58.9769C9.81146 57.7199 10.8493 56.6785 12.1352 56.6785C13.4212 56.6785 14.459 57.7199 14.459 58.9769Z" fill="#B32231"/>
<path d="M14.4591 60.6528C15.745 60.6528 16.7828 61.695 16.7828 62.9512C16.7828 64.2231 15.745 65.2496 14.4591 65.2496C13.1731 65.2496 12.1353 64.2231 12.1353 62.9512C12.1353 61.695 13.1731 60.6528 14.4591 60.6528Z" fill="#B32231"/>
<path d="M14.459 58.9769C14.459 57.7199 15.4969 56.6785 16.7828 56.6785C18.0688 56.6785 19.1066 57.7199 19.1066 58.9769C19.1066 60.248 18.0688 61.2752 16.7828 61.2752C15.4969 61.2752 14.459 60.248 14.459 58.9769Z" fill="#B32231"/>
<path d="M19.1035 70.4764H9.80544C8.94839 70.4764 8.25626 69.7911 8.25626 68.9441C8.25626 68.0964 8.94839 67.4119 9.80544 67.4119H19.1035C19.9598 67.4119 20.6527 68.0964 20.6527 68.9441C20.6527 69.7911 19.9598 70.4764 19.1035 70.4764Z" fill="#B32231"/>
<path d="M16.0022 75.0748H12.9068C12.0498 75.0748 11.3576 74.3894 11.3576 73.5425C11.3576 72.6948 12.0498 72.0103 12.9068 72.0103H16.0022C16.8584 72.0103 17.5513 72.6948 17.5513 73.5425C17.5513 74.3894 16.8584 75.0748 16.0022 75.0748Z" fill="#B32231"/>
<path d="M59.3747 94.9986H40.7905C39.9335 94.9986 39.2414 94.3133 39.2414 93.4663C39.2414 92.6187 39.9335 91.9341 40.7905 91.9341H59.3747C60.2309 91.9341 60.9238 92.6187 60.9238 93.4663C60.9238 94.3133 60.2309 94.9986 59.3747 94.9986Z" fill="#E6E9ED" fill-opacity="0.24"/>
</svg>
