<svg width="106" height="75" viewBox="0 0 106 75" fill="none" xmlns="http://www.w3.org/2000/svg">
<g clip-path="url(#clip0)">
<path d="M13.2141 2.56654C13.2141 1.14908 14.3632 0 15.7807 0H23.5744C24.9919 0 26.1409 1.14908 26.1409 2.56654V2.56654H13.2141V2.56654Z" fill="#AEB5BB"/>
<path d="M2.58537 32.7947C1.15751 32.7947 -5.04866e-08 31.6372 -1.12765e-07 30.2093L-4.46954e-07 22.5473C-5.09232e-07 21.1195 1.15751 19.962 2.58537 19.962V19.962L2.58537 32.7947V32.7947Z" fill="#AEB5BB"/>
<path d="M19.5339 0H23.5744C24.9919 0 26.141 1.14908 26.141 2.56654V2.56654H19.5339V0Z" fill="#B8C1C9"/>
<path d="M0 26.521L-1.73314e-07 22.5474C-2.35592e-07 21.1196 1.15751 19.9621 2.58537 19.9621V19.9621L2.58537 26.521L0 26.521Z" fill="#B8C1C9"/>
<path d="M95.3868 74.8301H12.6241C7.0345 74.8301 2.50293 70.3318 2.50293 64.7827V12.5194C2.50293 6.9705 7.03422 2.47192 12.6241 2.47192H95.3868C100.976 2.47192 105.508 6.97021 105.508 12.5194V64.7832C105.508 70.3321 100.977 74.8301 95.3868 74.8301Z" fill="#292C38"/>
<path d="M95.3864 2.47192H53.8398V74.8301H95.3864C100.976 74.8301 105.508 70.3318 105.508 64.7827V12.5188C105.508 6.97021 100.976 2.47192 95.3864 2.47192Z" fill="#21242D"/>
<path d="M92.3002 62.5014H51.8142C47.1591 62.5014 43.3856 58.7554 43.3856 54.1342V15.7883C43.3856 11.1671 47.1591 7.42114 51.8142 7.42114H92.3002C96.9553 7.42114 100.729 11.1671 100.729 15.7883V54.1342C100.729 58.7554 96.955 62.5014 92.3002 62.5014Z" fill="#3C4451"/>
<path d="M92.3003 7.42114H71.8331V62.5014H92.3003C96.9554 62.5014 100.729 58.7554 100.729 54.1342V15.7883C100.729 11.1671 96.9551 7.42114 92.3003 7.42114Z" fill="#2B313D"/>
<path d="M72.0558 59.4691C85.6914 59.4691 96.7452 48.4958 96.7452 34.9596C96.7452 21.4233 85.6914 10.45 72.0558 10.45C58.4203 10.45 47.3665 21.4233 47.3665 34.9596C47.3665 48.4958 58.4203 59.4691 72.0558 59.4691Z" fill="#282D3A"/>
<path d="M72.0575 10.4521C71.9822 10.4521 71.9078 10.457 71.8331 10.4576V59.4651C71.9084 59.4656 71.9822 59.4711 72.0575 59.4711C85.6933 59.4711 96.7468 48.498 96.7468 34.9615C96.7468 21.425 85.693 10.4521 72.0575 10.4521Z" fill="#21242D"/>
<path d="M72.0561 48.1366C79.387 48.1366 85.3299 42.237 85.3299 34.9594C85.3299 27.6819 79.387 21.7822 72.0561 21.7822C64.7251 21.7822 58.7822 27.6819 58.7822 34.9594C58.7822 42.237 64.7251 48.1366 72.0561 48.1366Z" fill="#353B4E"/>
<path d="M72.0575 21.7839C71.9822 21.7839 71.9078 21.7885 71.8331 21.7899V48.1329C71.9078 48.1343 71.9822 48.1389 72.0575 48.1389C79.3887 48.1389 85.3313 42.2395 85.3313 34.9617C85.3316 27.6836 79.3884 21.7839 72.0575 21.7839Z" fill="#282D3A"/>
<path d="M29.5814 60.9204C33.76 60.9204 37.1474 57.5576 37.1474 53.4095C37.1474 49.2614 33.76 45.8987 29.5814 45.8987C25.4029 45.8987 22.0155 49.2614 22.0155 53.4095C22.0155 57.5576 25.4029 60.9204 29.5814 60.9204Z" fill="#FF2835"/>
<path d="M29.5815 45.8979C29.5234 45.8979 29.4677 45.9054 29.4097 45.9068V60.9111C29.4671 60.9125 29.5234 60.9199 29.5815 60.9199C33.76 60.9199 37.1474 57.5572 37.1474 53.4091C37.1474 49.261 33.76 45.8979 29.5815 45.8979Z" fill="#94172D"/>
<path d="M66.9704 32.8982C68.5832 32.8982 69.8907 31.6003 69.8907 29.9991C69.8907 28.398 68.5832 27.1001 66.9704 27.1001C65.3575 27.1001 64.05 28.398 64.05 29.9991C64.05 31.6003 65.3575 32.8982 66.9704 32.8982Z" fill="#E0E0E0"/>
<path d="M69.8897 29.9974C69.8897 28.4218 68.6229 27.1431 67.0461 27.1023V32.8924C68.6229 32.8522 69.8897 31.5729 69.8897 29.9974Z" fill="white"/>
<path d="M60.5965 27.4951C62.9423 27.4951 64.8439 25.6073 64.8439 23.2786C64.8439 20.9498 62.9423 19.062 60.5965 19.062C58.2507 19.062 56.349 20.9498 56.349 23.2786C56.349 25.6073 58.2507 27.4951 60.5965 27.4951Z" fill="#E0E0E0"/>
<path d="M60.5981 19.0603C60.5455 19.0603 60.495 19.0663 60.443 19.0683V27.486C60.495 27.488 60.5455 27.494 60.5981 27.494C62.9439 27.494 64.8456 25.6061 64.8456 23.2774C64.8456 20.9487 62.9439 19.0603 60.5981 19.0603Z" fill="white"/>
</g>
<defs>
<clipPath id="clip0">
<rect width="106" height="75" fill="white"/>
</clipPath>
</defs>
</svg>
