<svg width="85" height="85" viewBox="0 0 85 85" fill="none" xmlns="http://www.w3.org/2000/svg">
<path d="M64.242 15.5682L67.8853 2.77543C68.1294 1.91807 67.618 1.02834 66.7543 0.80783L63.7846 0.0496781C62.9209 -0.170828 62.0455 0.364932 61.8488 1.23428L56.311 25.7191L53.5762 38.0739H56.6107L64.242 15.5682Z" fill="#FEDBA6"/>
<path d="M60.8421 29.6469L78.5837 4.24306C79.0941 3.51232 78.9007 2.50436 78.1562 2.01418L75.596 0.328939C74.8514 -0.161075 73.8493 0.059774 73.3798 0.817583L57.694 26.1381L50.2124 39.4681L53.576 40.7263L60.8421 29.6469Z" fill="#FEE8C7"/>
<path d="M72.253 41.3676L71.9352 39.8503C71.4988 37.7665 69.938 36.0995 67.8873 35.5272L67.8203 35.5085C67.2773 35.3571 66.8399 34.9541 66.6446 34.4254C65.8172 32.1867 63.6833 30.7002 61.2966 30.7002L60.5977 29.0799C59.6963 26.9902 57.6384 25.6368 55.3626 25.6368H55.2247C54.2196 25.6368 53.3208 25.0113 52.9718 24.0688C52.1304 21.7969 49.9449 20.3047 47.5225 20.3484C46.9272 20.3592 46.3517 20.1344 45.9211 19.7231L44.4098 18.2792C42.2062 16.1742 38.7367 16.1742 36.5332 18.2792L35.0219 19.7231C34.5913 20.1344 34.0158 20.359 33.4204 20.3484C30.9981 20.3047 28.8126 21.7969 27.9711 24.0688C27.6221 25.0113 26.7233 25.6368 25.7183 25.6368H25.5804C23.3045 25.6368 21.2466 26.9903 20.3453 29.0799L19.6464 30.7002C17.2597 30.7002 15.1257 32.1867 14.2984 34.4254C14.1029 34.9541 13.6656 35.3571 13.1227 35.5085L13.0557 35.5272C11.0052 36.0995 9.44415 37.7665 9.00777 39.8503L8.68994 41.3676V49.8675H72.2532V41.3676H72.253Z" fill="#FAF7F7"/>
<path d="M16.647 44.9354L16.9649 43.418C17.4013 41.3343 18.9621 39.6672 21.0128 39.0949L21.0798 39.0763C21.6227 38.9248 22.0602 38.5218 22.2555 37.9931C23.0828 35.7544 25.2168 34.268 27.6035 34.268L28.3024 32.6477C29.2037 30.5579 31.2616 29.2045 33.5375 29.2045H33.6754C34.6804 29.2045 35.5792 28.579 35.9282 27.6365C36.7697 25.3646 38.9552 23.8725 41.3775 23.9162C41.9729 23.9269 42.5484 23.7022 42.979 23.2908L44.4903 21.847C45.3478 21.0278 46.4017 20.5303 47.4933 20.3486C46.9099 20.3505 46.3433 20.1266 45.9208 19.7229L44.4094 18.2791C42.2057 16.1741 38.7364 16.1741 36.5327 18.2791L35.0214 19.7229C34.5908 20.1343 34.0153 20.3589 33.4199 20.3483C30.9976 20.3046 28.8121 21.7968 27.9707 24.0686C27.6217 25.0111 26.7228 25.6367 25.7178 25.6367H25.5799C23.304 25.6367 21.2462 26.9902 20.3448 29.0798L19.6459 30.7001C17.2592 30.7001 15.1253 32.1866 14.2979 34.4252C14.1024 34.954 13.6652 35.357 13.1222 35.5084L13.0552 35.5271C11.0047 36.0993 9.44366 37.7664 9.00728 39.8502L8.68945 41.3675V49.8674H16.6469V44.9354H16.647Z" fill="#EDF6F8"/>
<path d="M57.7248 81.9696C57.7248 83.6431 56.3682 84.9998 54.6946 84.9998H26.2482C24.5746 84.9998 23.218 83.6431 23.218 81.9696V66.6772H57.725V81.9696H57.7248Z" fill="#C8EFFE"/>
<path d="M74.8117 43.0698V50.5417C74.8117 65.948 62.3231 78.4365 46.9168 78.4365H34.0257C18.6194 78.4365 6.13086 65.948 6.13086 50.5417V43.0698C6.13086 42.1292 6.89329 41.3668 7.8322 41.3668H73.1103C74.0492 41.3668 74.8117 42.1292 74.8117 43.0698Z" fill="#C8EFFE"/>
<path d="M53.4492 47.2973H14.8984V49.8673H53.4492C54.1589 49.8673 54.7342 49.292 54.7342 48.5823C54.7342 47.8727 54.1589 47.2973 53.4492 47.2973Z" fill="#99E6FC"/>
<path d="M57.4085 76.0228H44.5173C29.111 76.0228 16.6225 63.5343 16.6225 48.128V41.3668H7.8322C6.89329 41.3668 6.13086 42.1292 6.13086 43.0698V50.5417C6.13086 65.948 18.6194 78.4365 34.0257 78.4365H46.9168C50.9792 78.4365 54.8381 77.5675 58.3193 76.0063C58.0167 76.0161 57.7134 76.0228 57.4085 76.0228Z" fill="#99E6FC"/>
<path d="M43.4819 37.1669C43.2374 37.1669 42.9902 37.0972 42.7714 36.9517L42.394 36.7007C41.2911 35.9671 39.8613 36.0377 38.8361 36.8763C38.2868 37.3257 37.4772 37.2447 37.0278 36.6956C36.5784 36.1463 36.6594 35.3367 37.2085 34.8873C39.1129 33.3292 41.7689 33.1981 43.8174 34.5609L44.1949 34.8119C44.7858 35.205 44.946 36.0027 44.5529 36.5936C44.3054 36.9654 43.8976 37.1669 43.4819 37.1669Z" fill="#EDF6F8"/>
<path d="M49.6766 30.6619C49.4321 30.6619 49.1849 30.5922 48.9661 30.4467L48.7242 30.2858C48.1874 29.9284 47.4914 29.963 46.9925 30.3713C46.4432 30.8207 45.6339 30.7397 45.1843 30.1904C44.7349 29.6411 44.8159 28.8315 45.3652 28.3821C46.7432 27.2544 48.6654 27.1595 50.1478 28.146L50.3896 28.3067C50.9805 28.6998 51.1409 29.4975 50.7478 30.0883C50.5002 30.4606 50.0923 30.6619 49.6766 30.6619Z" fill="#EDF6F8"/>
<path d="M58.3589 36.8517C58.1144 36.8517 57.8674 36.7819 57.6486 36.6365L57.4068 36.4757C56.8699 36.1183 56.1741 36.1528 55.6752 36.5611C55.126 37.0105 54.3163 36.9294 53.8669 36.3803C53.4175 35.8312 53.4985 35.0215 54.0477 34.5721C55.4257 33.4443 57.3477 33.3496 58.8304 34.336L59.072 34.4967C59.663 34.8897 59.8235 35.6873 59.4305 36.2782C59.1827 36.6503 58.7746 36.8517 58.3589 36.8517Z" fill="#EDF6F8"/>
<path d="M31.4373 30.6619C31.0217 30.6619 30.6137 30.4606 30.3663 30.0884C29.9733 29.4975 30.1337 28.7 30.7246 28.3069L30.9665 28.146C32.4489 27.1597 34.3709 27.2548 35.749 28.3823C36.2982 28.8317 36.3793 29.6413 35.9299 30.1906C35.4805 30.74 34.6709 30.8207 34.1216 30.3715C33.6225 29.9632 32.9266 29.9289 32.39 30.2858L32.148 30.4467C31.9289 30.5923 31.6817 30.6619 31.4373 30.6619Z" fill="#AEE2FF"/>
<path d="M22.7548 36.8517C22.339 36.8517 21.9312 36.6502 21.6837 36.278C21.2906 35.6871 21.4512 34.8896 22.0421 34.4965L22.2838 34.3358C23.7662 33.3498 25.6883 33.4444 27.0663 34.5721C27.6156 35.0215 27.6965 35.8312 27.247 36.3803C26.7975 36.9296 25.9881 37.0105 25.4388 36.5611C24.94 36.1528 24.2441 36.1185 23.7073 36.4756L23.4652 36.6365C23.2466 36.7821 22.9993 36.8517 22.7548 36.8517Z" fill="#AEE2FF"/>
<path d="M74.8117 47.2973H59.0577C58.348 47.2973 57.7727 47.8727 57.7727 48.5823C57.7727 49.292 58.348 49.8673 59.0577 49.8673H74.8117V47.2973Z" fill="#99E6FC"/>
<path d="M16.6225 48.1279V47.2973H6.13086V49.8673H16.678C16.6427 49.2918 16.6225 48.7124 16.6225 48.1279Z" fill="#62DBFB"/>
</svg>
