<svg width="101" height="101" viewBox="0 0 101 101" fill="none" xmlns="http://www.w3.org/2000/svg">
<path d="M50.4999 94.9035C75.0233 94.9035 94.9035 75.0234 94.9035 50.5C94.9035 25.9766 75.0233 6.0965 50.4999 6.0965C25.9766 6.0965 6.09644 25.9766 6.09644 50.5C6.09644 75.0234 25.9766 94.9035 50.4999 94.9035Z" fill="#EFEFEF"/>
<path d="M50.5002 86.8762C70.5902 86.8762 86.8764 70.59 86.8764 50.5C86.8764 30.41 70.5902 14.1238 50.5002 14.1238C30.4102 14.1238 14.124 30.41 14.124 50.5C14.124 70.59 30.4102 86.8762 50.5002 86.8762Z" fill="#E82A40"/>
<path d="M50.5 14.1238C49.4732 14.1238 48.4569 14.1686 47.4517 14.2521C66.115 15.8008 80.7797 31.4369 80.7797 50.5002C80.7797 69.5634 66.115 85.1994 47.4517 86.7484C48.4569 86.8318 49.473 86.8766 50.5 86.8766C70.5901 86.8766 86.8762 70.5903 86.8762 50.5004C86.8762 30.4105 70.5901 14.1238 50.5 14.1238Z" fill="#D6243A"/>
<path d="M37.4382 39.1846C40.3895 39.1846 42.7821 36.7921 42.7821 33.8407C42.7821 30.8894 40.3895 28.4968 37.4382 28.4968C34.4868 28.4968 32.0942 30.8894 32.0942 33.8407C32.0942 36.7921 34.4868 39.1846 37.4382 39.1846Z" fill="#C71C32"/>
<path d="M25.9841 56.47C28.9354 56.47 31.328 54.0775 31.328 51.1261C31.328 48.1748 28.9354 45.7822 25.9841 45.7822C23.0327 45.7822 20.6401 48.1748 20.6401 51.1261C20.6401 54.0775 23.0327 56.47 25.9841 56.47Z" fill="#C71C32"/>
<path d="M41.4994 76.8346C44.4508 76.8346 46.8434 74.442 46.8434 71.4907C46.8434 68.5393 44.4508 66.1467 41.4994 66.1467C38.5481 66.1467 36.1555 68.5393 36.1555 71.4907C36.1555 74.442 38.5481 76.8346 41.4994 76.8346Z" fill="#C71C32"/>
<path d="M61.7826 72.5032C64.734 72.5032 67.1266 70.1107 67.1266 67.1593C67.1266 64.2079 64.734 61.8154 61.7826 61.8154C58.8313 61.8154 56.4387 64.2079 56.4387 67.1593C56.4387 70.1107 58.8313 72.5032 61.7826 72.5032Z" fill="#C71C32"/>
<path d="M35.6064 46.5547C36.6414 46.5547 37.4805 45.7157 37.4805 44.6807C37.4805 43.6457 36.6414 42.8066 35.6064 42.8066C34.5715 42.8066 33.7324 43.6457 33.7324 44.6807C33.7324 45.7157 34.5715 46.5547 35.6064 46.5547Z" fill="#C71C32"/>
<path d="M20.6143 60.7578C21.6493 60.7578 22.4883 59.9188 22.4883 58.8838C22.4883 57.8488 21.6493 57.0098 20.6143 57.0098C19.5793 57.0098 18.7402 57.8488 18.7402 58.8838C18.7402 59.9188 19.5793 60.7578 20.6143 60.7578Z" fill="#C71C32"/>
<path d="M59.0811 31.957C61.7502 31.957 63.9141 29.7932 63.9141 27.124C63.9141 24.4548 61.7502 22.291 59.0811 22.291C56.4119 22.291 54.248 24.4548 54.248 27.124C54.248 29.7932 56.4119 31.957 59.0811 31.957Z" fill="#C71C32"/>
<path d="M52.6699 59.0811C59 60.0976 64.0127 54.5656 64.0127 48.5191C64.0127 42.4725 55.0389 42.1636 54.5 47C53.3301 57.5 43 41.5 36 51.5C45.5 45.5 44 57.6888 52.6699 59.0811Z" fill="#EFEFEF"/>
<path d="M58.5 43.5C56 44 55 45.5 55 45.5C58 42 63.2784 45.7165 63 48.5C62 58.5 54.248 59.377 52.7686 59.0811C55 59.5 57.7925 58.7184 59 58C61.4868 56.5205 64.1113 52.6806 64.1113 48.9219C64.1113 45.1632 61.5 43 58.5 43.5Z" fill="#DCDCDC"/>
<path d="M49.4014 21.9905C49.3637 21.97 49.3529 21.9215 49.3782 21.8857C49.6258 21.5353 49.7584 21.0997 49.7241 20.6402C49.6497 19.6445 48.8192 18.9022 47.8449 18.9359C47.801 18.9374 47.7674 18.8999 47.773 18.8556C47.7914 18.7114 47.7936 18.5628 47.7776 18.4119C47.6768 17.4591 46.8588 16.7366 45.9115 16.7663C44.8355 16.7999 44.011 17.7418 44.0909 18.8118C44.1062 19.0161 44.1537 19.2097 44.2274 19.3882C44.2446 19.4297 44.2175 19.4759 44.1736 19.4849C43.2577 19.6728 42.5983 20.5308 42.6702 21.4929C42.7075 21.992 42.935 22.4274 43.2752 22.7334C43.3033 22.7588 43.3065 22.8013 43.2825 22.8315C42.9924 23.1957 42.8326 23.6667 42.8699 24.1658C42.9393 25.0961 43.669 25.805 44.559 25.8668C44.594 25.8693 44.6223 25.8965 44.6238 25.9321C44.6245 25.9496 44.6255 25.9672 44.6269 25.9848C44.704 27.0167 45.5929 27.7769 46.6125 27.6829C47.632 27.5889 48.396 26.6763 48.319 25.6445C48.3178 25.6295 48.3165 25.6146 48.3149 25.5997C48.3104 25.5564 48.3452 25.5177 48.3882 25.5199C48.4728 25.5241 48.5587 25.5226 48.6456 25.5146C49.6652 25.4205 50.4291 24.508 50.3521 23.4762C50.3032 22.8224 49.9286 22.2781 49.4014 21.9905Z" fill="#6BD169"/>
<path d="M39.3337 70.839C39.306 70.7938 39.3243 70.7353 39.3733 70.7125C39.8539 70.4893 40.2637 70.1043 40.5093 69.5911C41.0417 68.479 40.6085 67.1734 39.5444 66.6106C39.4965 66.5852 39.4835 66.5245 39.5167 66.4805C39.6251 66.3374 39.7187 66.1795 39.7944 66.0081C40.2721 64.9256 39.8401 63.6491 38.8073 63.0985C37.6342 62.4732 36.1722 62.9751 35.6001 64.1702C35.4908 64.3985 35.4227 64.6349 35.3919 64.8715C35.3848 64.9265 35.3274 64.9593 35.2748 64.9419C34.1784 64.5802 32.9448 65.0938 32.4304 66.1684C32.1635 66.726 32.1396 67.3321 32.3158 67.8689C32.3304 67.9134 32.3077 67.9609 32.2634 67.9785C31.7288 68.1902 31.2681 68.5964 31.0013 69.154C30.5039 70.193 30.8495 71.4007 31.7648 72.014C31.8008 72.0381 31.8143 72.0847 31.7941 72.1237C31.7841 72.1429 31.7743 72.1624 31.7649 72.1821C31.2133 73.3346 31.6981 74.6953 32.8478 75.2213C33.9975 75.7473 35.3767 75.2395 35.9284 74.0871C35.9364 74.0704 35.9441 74.0536 35.9516 74.0366C35.9735 73.9875 36.0345 73.9675 36.0792 73.9962C36.1672 74.0526 36.2601 74.1039 36.3581 74.1487C37.5079 74.6747 38.8871 74.1669 39.4387 73.0145C39.7883 72.2843 39.7216 71.471 39.3337 70.839Z" fill="#6BD169"/>
<path d="M35.9116 53.5923C35.8823 53.5996 35.8537 53.5797 35.8497 53.5492C35.811 53.2505 35.6723 52.9624 35.4361 52.7415C34.9242 52.2626 34.1422 52.2741 33.655 52.7548C33.6331 52.7765 33.5979 52.7731 33.5797 52.7476C33.5207 52.6643 33.4511 52.5866 33.3711 52.5162C32.8659 52.072 32.0999 52.0879 31.6247 52.5537C31.085 53.0828 31.107 53.9613 31.6571 54.4759C31.7622 54.5742 31.8788 54.6516 32.0018 54.7088C32.0303 54.722 32.0383 54.7588 32.0199 54.7843C31.6363 55.3169 31.7037 56.0736 32.1984 56.5363C32.455 56.7764 32.7795 56.8931 33.1008 56.8893C33.1274 56.8891 33.1492 56.9095 33.1512 56.9365C33.1745 57.2626 33.316 57.5818 33.5726 57.8219C34.0509 58.2693 34.7649 58.2885 35.254 57.8972C35.2732 57.8818 35.3007 57.8824 35.3184 57.9001C35.3272 57.9088 35.336 57.9174 35.3451 57.9259C35.8756 58.4221 36.6963 58.392 37.1782 57.8586C37.6601 57.3252 37.6207 56.4906 37.0902 55.9943C37.0825 55.9871 37.0747 55.98 37.0668 55.9731C37.0439 55.9528 37.0435 55.9163 37.0667 55.897C37.1123 55.859 37.156 55.8173 37.1971 55.7718C37.679 55.2384 37.6396 54.4038 37.1091 53.9075C36.773 53.5931 36.3206 53.4901 35.9116 53.5923Z" fill="#6BD169"/>
<path d="M49.4475 22.0124C49.4109 21.9924 49.4011 21.9443 49.4261 21.9084C49.6715 21.5571 49.8058 21.1222 49.7774 20.6655C49.7161 19.6758 48.9142 18.9466 47.9634 18.991C47.9205 18.993 47.8882 18.9561 47.8941 18.912C47.9176 18.7398 47.9184 18.5617 47.8933 18.3812C47.7687 17.4863 47.0133 16.8303 46.1331 16.8532C45.6933 16.8647 45.2934 17.0341 44.98 17.3047C45.4544 17.5839 45.7915 18.0879 45.847 18.6873L45.8484 18.7029C45.8733 18.9762 46.0699 19.1873 46.3296 19.2397C47.085 19.392 47.6688 20.0436 47.7208 20.8823C47.7323 21.0677 47.717 21.2497 47.6783 21.4238C47.5762 21.8833 47.6764 22.3507 47.9474 22.7147C48.1498 22.9864 48.2785 23.3228 48.3016 23.6963C48.3652 24.7219 47.6097 25.6384 46.6141 25.7433C46.5292 25.7523 46.2086 25.9362 46.202 26.1721C46.1897 26.6138 46.0613 27.0981 45.6142 27.4828C45.9189 27.6612 46.2808 27.7468 46.6632 27.7065C47.6588 27.6016 48.4143 26.6851 48.3507 25.6595C48.3498 25.6447 48.3486 25.6298 48.3473 25.6151C48.3434 25.572 48.3778 25.5332 48.4198 25.5348C48.5022 25.538 48.5859 25.5355 48.6708 25.5266C49.6665 25.4216 50.422 24.5052 50.3584 23.4796C50.3179 22.8299 49.9585 22.2926 49.4475 22.0124Z" fill="#52B551"/>
<path d="M39.3696 70.8907C39.3427 70.8467 39.3617 70.7891 39.4105 70.7661C39.8893 70.5407 40.3005 70.1574 40.5509 69.6509C41.0935 68.5531 40.6829 67.2792 39.6373 66.7424C39.5902 66.7182 39.5781 66.6588 39.6117 66.6152C39.7426 66.4453 39.8529 66.2549 39.937 66.0462C40.3537 65.0111 39.9479 63.8443 38.9911 63.3278C38.513 63.0697 37.9805 63.0053 37.4785 63.1025C37.815 63.6931 37.8662 64.4401 37.5573 65.1162L37.5492 65.1338C37.4079 65.4418 37.4886 65.7887 37.7346 66.0044C38.4501 66.632 38.6747 67.6887 38.2149 68.6189C38.1133 68.8246 37.985 69.01 37.8366 69.1727C37.4447 69.6022 37.2648 70.1643 37.3313 70.7207C37.381 71.1361 37.312 71.5755 37.1072 71.9898C36.545 73.1273 35.1724 73.6445 34.0416 73.1448C33.9452 73.1022 33.4887 73.1022 33.3367 73.3508C33.052 73.8162 32.6168 74.256 31.9015 74.3933C32.1182 74.7716 32.4531 75.0857 32.8874 75.2776C34.0183 75.7772 35.3908 75.2601 35.953 74.1226C35.9612 74.1061 35.9691 74.0895 35.9767 74.0729C35.999 74.0243 36.0598 74.0039 36.1037 74.0314C36.1899 74.0855 36.2812 74.1344 36.3776 74.177C37.5085 74.6766 38.881 74.1595 39.4432 73.0219C39.7993 72.3012 39.7447 71.5049 39.3696 70.8907Z" fill="#52B551"/>
<path d="M35.9456 53.5817C35.9172 53.5888 35.8892 53.5686 35.8851 53.5382C35.8448 53.2401 35.7073 52.9516 35.4755 52.7292C34.9731 52.2472 34.2122 52.2519 33.7423 52.727C33.7211 52.7484 33.6868 52.7448 33.6689 52.7191C33.5992 52.6191 33.5148 52.5267 33.416 52.4454C32.9261 52.0424 32.224 52.0629 31.7803 52.4933C31.5586 52.7084 31.4327 52.986 31.3995 53.2749C31.7772 53.1935 32.191 53.2934 32.5048 53.5766L32.5129 53.584C32.6557 53.7133 32.8577 53.7289 33.0167 53.6324C33.4793 53.3518 34.0907 53.4108 34.5164 53.8192C34.6105 53.9095 34.6891 54.0107 34.7519 54.1191C34.9178 54.405 35.1917 54.5987 35.5048 54.6578C35.7386 54.7019 35.965 54.8145 36.1546 54.9964C36.6751 55.4958 36.7208 56.3285 36.2564 56.8561C36.2169 56.9011 36.1388 57.1486 36.2475 57.2736C36.4512 57.5075 36.6152 57.8187 36.5672 58.23C36.8095 58.1773 37.0371 58.0494 37.2154 57.8468C37.6797 57.3191 37.6341 56.4865 37.1135 55.987C37.106 55.9798 37.0983 55.9727 37.0906 55.9657C37.0681 55.9453 37.0674 55.9088 37.0899 55.8897C37.134 55.8522 37.1761 55.8111 37.2156 55.7661C37.68 55.2384 37.6344 54.4058 37.1138 53.9064C36.7839 53.59 36.3428 53.4834 35.9456 53.5817Z" fill="#52B551"/>
</svg>
