<svg width="73" height="95" viewBox="0 0 73 95" fill="none" xmlns="http://www.w3.org/2000/svg">
<g clip-path="url(#clip0)">
<path d="M37.9131 42.9641C34.6361 42.4142 32.2879 40.09 32.2879 37.3964V11.3463C32.2879 10.8678 32.5359 10.4797 33.1308 10.4797C33.6923 10.4797 33.6923 10.0918 33.6923 9.61318V7.91675L19.4201 7.91675V9.61318C19.4201 10.0917 19.4765 10.4797 20.0714 10.4797C20.6661 10.4797 20.497 10.8676 20.497 11.3463V37.3964C20.497 40.09 18.1487 42.4143 14.8718 42.9641C10.7143 43.6618 7.76767 46.647 7.86386 50.0634L9.04732 92.0266C9.09403 93.6797 10.7727 95.0001 12.8276 95.0001H39.9571C42.012 95.0001 43.6906 93.6797 43.7373 92.0266L44.9208 50.0634C45.0174 46.647 42.0705 43.6618 37.9131 42.9641Z" fill="#DFEDE7" fill-opacity="0.24"/>
<path d="M32.5692 7.91667H20.2153V0.987123C20.2153 0.441897 20.5462 0 20.9543 0H31.8302C32.2384 0 32.5692 0.441897 32.5692 0.987123V7.91667Z" fill="#331313"/>
<path d="M24.7076 7.91667H20.2153V0.987123C20.2153 0.441897 20.3356 0 20.4841 0H24.4389C24.5873 0 24.7076 0.441897 24.7076 0.987123V7.91667Z" fill="#4B0A0A"/>
<path d="M14.8718 42.905C10.7144 43.6034 1.68469 44.6726 0.561591 57.6786C-0.561509 70.6845 5.20438 92.0232 5.20438 92.0232C5.25109 93.6781 6.92973 95 8.98463 95H44.9231C46.978 95 47.7308 93.8691 48.2923 92.0232C48.2923 92.0232 54.0797 72.452 53.3462 57.6786C52.6127 42.9051 42.0704 43.6036 37.913 42.9051C35.1011 42.4327 32.9745 40.652 32.4271 38.4524H20.3575C19.8102 40.6518 17.6837 42.4326 14.8718 42.905Z" fill="#D34C00"/>
<path d="M37.7896 42.905C37.6271 42.878 37.4674 42.8458 37.3096 42.8107C37.2841 42.805 37.2585 42.7997 37.2331 42.7939C37.0828 42.7591 36.9348 42.7202 36.7892 42.6781C36.7618 42.6703 36.7347 42.6621 36.7075 42.6539C36.5602 42.6097 36.4147 42.5626 36.2725 42.5113C36.2581 42.5061 36.244 42.5004 36.2297 42.4951C36.088 42.443 35.949 42.3877 35.8128 42.3288C35.8015 42.324 35.7901 42.3194 35.779 42.3146C35.6401 42.254 35.5049 42.1891 35.3722 42.1216C35.3525 42.1115 35.3326 42.1015 35.313 42.0914C35.1819 42.0233 35.0538 41.952 34.929 41.8775C34.9151 41.8692 34.9016 41.8607 34.8879 41.8524C34.626 41.6937 34.3789 41.5213 34.148 41.3366C34.1411 41.3311 34.1339 41.3256 34.127 41.3201C34.0125 41.2279 33.9025 41.1324 33.7963 41.0342C33.7884 41.0269 33.7807 41.0198 33.773 41.0125C33.4435 40.7048 33.1554 40.3698 32.9144 40.0127C32.9131 40.0108 32.9105 40.0071 32.9105 40.0071C32.5852 39.5242 32.3463 39.0014 32.2072 38.4524H23.5846C23.7289 40.7589 24.4473 42.8959 27.3194 43.37C31.55 44.0685 34.353 46.5923 34.2549 50.0125L32.8811 95H39.8696C40.131 95 40.3865 94.9793 40.6333 94.9399C42.3618 94.6643 47.1692 95.5655 47.7307 92.7381C47.7307 92.7381 53.3461 73.1181 53.3461 58.2441C53.3461 43.37 42.0203 43.6034 37.7896 42.905Z" fill="#9E2F00"/>
<path d="M23.0231 7.91676L23.1199 36.7331C23.1199 37.3029 23.1291 37.8752 23.1536 38.4412H32.1999C32.1032 37.887 32.0511 37.3163 32.0511 36.7331L31.9543 11.3096C31.9543 10.5799 31.9077 9.98809 32.5426 9.98809C32.6159 9.98809 33.1308 9.39655 33.1308 8.66658V7.91675L23.0231 7.91676Z" fill="#D7E0DC" fill-opacity="0.24"/>
<mask id="mask0" mask-type="alpha" maskUnits="userSpaceOnUse" x="0" y="22" width="54" height="73">
<path d="M14.8718 42.9049C10.7144 43.6033 1.68469 44.6725 0.561591 57.6785C-0.561509 70.6844 5.20438 92.023 5.20438 92.023C5.25109 93.678 6.92973 94.9999 8.98463 94.9999H44.9231C46.978 94.9999 47.7308 93.8689 48.2923 92.023C48.2923 92.023 54.0797 72.4519 53.3462 57.6785C52.6127 42.905 42.0704 43.6034 37.913 42.905C35.1011 42.4326 32.9745 40.6519 32.4271 38.4523H20.3575C19.8102 40.6517 17.6837 42.4325 14.8718 42.9049Z" fill="#FF8500"/>
</mask>
<g mask="url(#mask0)">
<path d="M0.3156 55.4165H53.5838C53.9698 58.2439 54.7418 66.726 50.6888 83.6903H2.63161C1.47362 76.9046 -0.842352 65.0296 0.3156 55.4165Z" fill="#4B0A0A"/>
<path d="M33.6924 55.4165H53.7323C53.9414 58.2439 54.3595 66.726 52.1642 83.6903H33.6924C33.6924 74.6427 33.6924 65.5951 33.6924 55.4165Z" fill="#2B0404"/>
<rect x="2.24622" y="81.4285" width="49.4154" height="1.13096" fill="#C59414"/>
<rect y="56.5476" width="53.9077" height="1.13095" fill="#C59414"/>
</g>
<path d="M11 54C10.4477 54 10 54.4477 10 55C10 55.5523 10.4477 56 11 56H35C35.5523 56 36 55.5523 36 55C36 54.4477 35.5523 54 35 54H11Z" fill="#794900"/>
<path d="M13 65C12.4477 65 12 65.4477 12 66C12 66.5523 12.4477 67 13 67H32C32.5523 67 33 66.5523 33 66C33 65.4477 32.5523 65 32 65H13Z" fill="#794900"/>
<path d="M18 69H19V70H18V69Z" fill="#794900"/>
<path d="M21 69H20V70H21V69Z" fill="#794900"/>
<path d="M22 69H23V70H22V69Z" fill="#794900"/>
<path d="M25 69H24V70H25V69Z" fill="#794900"/>
<path d="M26 69H27V70H26V69Z" fill="#794900"/>
<path d="M19 60C18.4477 60 18 60.4477 18 61C18 61.5523 18.4477 62 19 62C19.5523 62 20 61.5523 20 61C20 60.4477 19.5523 60 19 60Z" fill="#794900"/>
<path d="M26 61C26 60.4477 26.4477 60 27 60C27.5523 60 28 60.4477 28 61C28 61.5523 27.5523 62 27 62C26.4477 62 26 61.5523 26 61Z" fill="#794900"/>
<path d="M23 59C21.8954 59 21 59.8954 21 61C21 62.1046 21.8954 63 23 63C24.1046 63 25 62.1046 25 61C25 59.8954 24.1046 59 23 59Z" fill="#794900"/>
<rect x="20.2153" y="5.65479" width="12.3538" height="1.13095" fill="#C59414"/>
<path d="M60.1649 89.9107C59.6092 89.1228 59.1253 88.2687 58.7209 87.3624V76.3393C58.7209 75.8893 58.5688 75.4578 58.298 75.1397C58.0272 74.8216 57.6599 74.6428 57.277 74.6428C56.894 74.6428 56.5267 74.8216 56.2559 75.1397C55.9851 75.4578 55.833 75.8893 55.833 76.3393V87.3624C55.4286 88.2687 54.9447 89.1228 54.389 89.9107C52.5352 92.5087 47.1852 94.3008 44.3616 95H70.7539C67.9303 94.3008 62.0188 92.5087 60.1649 89.9107Z" fill="#D7E0DC" fill-opacity="0.24"/>
<path d="M73 68.5358C73 73.2858 65.9603 78.0358 57.2769 78.0358C48.5935 78.0358 41.5538 73.2858 41.5538 68.5358C41.5538 64.348 45.9981 50.3143 47.05 47.0511C47.1826 46.6399 47.5634 46.3691 47.9955 46.3691H66.5583C66.9904 46.3691 67.3712 46.6399 67.5038 47.0511C68.5558 50.3143 73 64.348 73 68.5358Z" fill="#DFEDE7" fill-opacity="0.24"/>
<path d="M66.0053 76.3093C70.2228 74.5029 73.0001 71.5193 73.0001 68.5358C73.0001 64.5956 69.0659 51.9396 67.7245 47.7388C67.4616 46.9155 66.6983 46.3691 65.8341 46.3691H64.7907C63.3579 46.3691 62.3946 47.8437 62.9274 49.1737C68.0759 62.027 68.3423 68.5805 64.6076 73.005C63.2292 74.6379 64.041 77.1507 66.0053 76.3093Z" fill="#D7E0DC" fill-opacity="0.24"/>
<path d="M73 68.988C73 73.5118 65.9603 78.0357 57.2769 78.0357C48.5935 78.0357 41.5538 73.5118 41.5538 68.988H73Z" fill="#D14D03"/>
<path d="M57.277 78.0357C62.3482 75.6519 65.598 73.1349 66.7102 68.988H72.9789C72.5513 73.5826 65.6846 78.0357 57.277 78.0357Z" fill="#7A0F00"/>
</g>
<defs>
<clipPath id="clip0">
<rect width="73" height="95" fill="white"/>
</clipPath>
</defs>
</svg>
