<svg width="81" height="81" viewBox="0 0 81 81" fill="none" xmlns="http://www.w3.org/2000/svg">
<g clip-path="url(#clip0)">
<path d="M77.5614 6.71263C88.037 17.176 17.719 88.4574 6.71952 77.471C-1.01872 69.7419 8.56672 47.6365 28.1292 28.0971C47.6917 8.55771 69.8231 -1.01648 77.5614 6.71263Z" fill="#CF7A15"/>
<path d="M79.8483 2.90746C73.5821 -3.35142 58.6247 0.839581 42.6136 12.1725C42.3234 12.3778 42.3804 12.825 42.7126 12.952C48.175 15.0394 53.6709 17.6672 52.9097 19.5706C51.9504 21.969 42.1025 19.7658 35.4035 17.9546C35.2626 17.9165 35.1138 17.9494 35.002 18.0428C32.0349 20.5227 29.0727 23.2255 26.1629 26.1319C26.1613 26.1336 26.1595 26.1354 26.1578 26.137C25.9266 26.3681 26.0159 26.7615 26.3239 26.8709C32.4798 29.055 40.1085 32.2616 39.2203 34.4823C38.2005 37.0317 27.1373 34.3819 20.4888 32.5302C20.3235 32.4841 20.147 32.5373 20.0337 32.6663C17.4988 35.5536 15.1722 38.4569 13.0726 41.3332C12.8971 41.5735 13.0038 41.9143 13.2838 42.0152C19.3124 44.1897 26.388 47.2509 25.5307 49.3942C24.6141 51.6859 15.5825 49.7764 8.93635 48.022C8.74583 47.9716 8.5452 48.0528 8.4422 48.2206C-0.0102094 61.9914 -2.60891 74.2409 2.91102 79.7541C14.8569 91.686 91.2253 14.2712 79.8483 2.90746Z" fill="#F0A346"/>
<path d="M79.8481 2.90743C77.2491 0.311505 73.1541 -0.485136 68.1099 0.278257C70.2055 0.687008 71.9715 1.55161 73.3291 2.90743C83.2761 12.8426 26.151 73.2664 3.64868 80.326C17.6794 88.8157 91.013 14.0589 79.8481 2.90743Z" fill="#EB8F21"/>
<path d="M10.6185 56.4835C12.1916 56.4835 12.1942 54.0388 10.6185 54.0388C9.04545 54.0388 9.04285 56.4835 10.6185 56.4835Z" fill="#FFF4DB"/>
<path d="M8.41857 62.8393C9.99165 62.8393 9.99425 60.3946 8.41857 60.3946C6.8455 60.3946 6.8429 62.8393 8.41857 62.8393Z" fill="#A1550A"/>
<path d="M16.9745 57.2167C18.5476 57.2167 18.5502 54.772 16.9745 54.772C15.4014 54.772 15.3988 57.2167 16.9745 57.2167Z" fill="#A1550A"/>
<path d="M20.8859 41.5715C22.4589 41.5715 22.4615 39.1268 20.8859 39.1268C19.3128 39.1268 19.3102 41.5715 20.8859 41.5715Z" fill="#FFF4DB"/>
<path d="M27.486 40.1049C29.059 40.1049 29.0616 37.6602 27.486 37.6602C25.9129 37.6602 25.9103 40.1049 27.486 40.1049Z" fill="#A1550A"/>
<path d="M29.1973 45.4828C30.7703 45.4828 30.7729 43.0381 29.1973 43.0381C27.6244 43.0381 27.6217 45.4828 29.1973 45.4828Z" fill="#FFF4DB"/>
<path d="M34.5753 26.6598C36.1484 26.6598 36.151 24.2151 34.5753 24.2151C33.0022 24.2151 32.9996 26.6598 34.5753 26.6598Z" fill="#A1550A"/>
<path d="M40.931 25.4374C42.5041 25.4374 42.5067 22.9928 40.931 22.9928C39.358 22.9928 39.3553 25.4374 40.931 25.4374Z" fill="#FFF4DB"/>
<path d="M42.0721 30.2452C43.6452 30.2452 43.6478 27.8005 42.0721 27.8005C40.4991 27.8005 40.4965 30.2452 42.0721 30.2452Z" fill="#A1550A"/>
<path d="M51.6874 13.2146C53.2604 13.2146 53.263 10.77 51.6874 10.77C50.1143 10.77 50.1117 13.2146 51.6874 13.2146Z" fill="#FFF4DB"/>
<path d="M58.5317 10.2813C60.1048 10.2813 60.1074 7.83658 58.5317 7.83658C56.9588 7.83658 56.9562 10.2813 58.5317 10.2813Z" fill="#A1550A"/>
<path d="M57.3097 16.1481C58.8828 16.1481 58.8854 13.7034 57.3097 13.7034C55.7366 13.7034 55.734 16.1481 57.3097 16.1481Z" fill="#FFF4DB"/>
</g>
<defs>
<clipPath id="clip0">
<rect width="81" height="81" fill="white"/>
</clipPath>
</defs>
</svg>
