<svg width="84" height="81" viewBox="0 0 84 81" fill="none" xmlns="http://www.w3.org/2000/svg">
<path d="M84 29.3189V39.1627L77.3556 44.0846H6.66094L0 39.1627V29.3189H84Z" fill="#FFF5F5"/>
<path d="M84 29.3189V39.1627L77.3556 44.0846H42V29.3189H84Z" fill="#EFE2DD"/>
<path d="M84 39.1627V46.5455C84 61.951 74.3367 75.3549 60.9002 80.8674H23.0998C9.66328 75.3549 0 61.951 0 46.5455V39.1627H84Z" fill="#FFDA67"/>
<path d="M84 39.1627V46.5455C84 61.951 74.3367 75.3549 60.9002 80.8674H42V39.1627H84Z" fill="#FDBF00"/>
<path d="M42 56.3893L25.3148 48.3174L23.1984 52.7472C19.6056 60.13 22.657 68.94 29.9906 72.4836C33.9281 74.4032 38.2594 74.4032 42 72.8775C45.2975 71.5485 48.0537 69.0386 49.7273 65.6425L51.893 61.2127L42 56.3893Z" fill="#8C4A37"/>
<path d="M69.0703 53.9283H64.1484V58.8502H69.0703V53.9283Z" fill="#FF9100"/>
<path d="M59.2266 63.7721H54.3047V68.6939H59.2266V63.7721Z" fill="#FF9100"/>
<path d="M14.9297 49.0064H10.0078V53.9283H14.9297V49.0064Z" fill="#FDBF00"/>
<path d="M28.4529 24.159C26.117 22.6017 24.7231 19.9966 24.7231 17.1896C24.7231 14.3827 26.117 11.7775 28.4529 10.2203C29.4311 9.56893 29.991 8.52122 29.991 7.34588C29.991 6.17054 29.4311 5.12283 28.4529 4.47151L31.1831 0.376343C33.519 1.93362 34.9129 4.53877 34.9129 7.34572C34.9129 10.1527 33.519 12.7578 31.1831 14.3151C30.205 14.9664 29.645 16.0141 29.645 17.1895C29.645 18.3648 30.205 19.4125 31.1831 20.0638L28.4529 24.159Z" fill="#FFE8AC"/>
<path d="M47.2171 7.36719C47.2171 10.1727 45.8391 12.7814 43.4765 14.3072C42.5905 14.8486 42.0985 15.7838 41.9999 16.7681C41.9507 16.9156 41.9507 17.0635 41.9507 17.2109C41.9507 17.3588 41.9507 17.5063 41.9999 17.6541C42.0985 18.6383 42.6398 19.5244 43.4765 20.0658L41.9999 22.2806L40.7694 24.151C38.4071 22.6252 37.0288 20.0164 37.0288 17.2109C37.0288 14.4055 38.4071 11.797 40.7694 10.222C41.3601 9.82813 41.7538 9.33611 41.9999 8.74548C42.1966 8.30235 42.2952 7.85955 42.2952 7.36719C42.2952 6.87517 42.1966 6.38282 41.9999 5.94002C41.7538 5.34939 41.3601 4.85704 40.7694 4.46345L41.9999 2.59314L43.4765 0.378296C45.8391 1.9533 47.2171 4.56173 47.2171 7.36719Z" fill="#FFE8AC"/>
<path d="M53.0623 24.159C50.7264 22.6017 49.3325 19.9966 49.3325 17.1896C49.3325 14.3827 50.7264 11.7775 53.0623 10.2203C54.0405 9.56893 54.6004 8.52122 54.6004 7.34588C54.6004 6.17054 54.0405 5.12283 53.0623 4.47151L55.7925 0.376343C58.1284 1.93362 59.5223 4.53877 59.5223 7.34572C59.5223 10.1527 58.1284 12.7578 55.7925 14.3151C54.8143 14.9664 54.2544 16.0141 54.2544 17.1895C54.2544 18.3648 54.8143 19.4125 55.7925 20.0638L53.0623 24.159Z" fill="#FFE8AD"/>
<path d="M83.2788 14.4811C82.6347 12.6162 81.3009 11.1165 79.5274 10.2562C75.8649 8.48021 71.4429 10.0158 69.662 13.6736L45.3164 63.5125L51.8909 61.2345L74.0889 15.8222C74.6825 14.6037 76.158 14.0966 77.379 14.6831C78.5998 15.2767 79.1094 16.7499 78.5181 17.9707L77.9701 19.1003L82.3968 21.2489L82.9448 20.1193C83.8076 18.3456 83.9254 16.3437 83.2788 14.4811Z" fill="#663325"/>
<path d="M43.4766 20.0657L42 22.2805V17.6539C42.0986 18.6381 42.6398 19.5244 43.4766 20.0657Z" fill="#FFE8AD"/>
<path d="M47.2172 7.36719C47.2172 10.1727 45.8392 12.7814 43.4766 14.3072C42.5906 14.8486 42.0986 15.7838 42 16.7681V8.74548C42.1967 8.30235 42.2953 7.85955 42.2953 7.36719C42.2953 6.87517 42.1967 6.38282 42 5.94001V2.59314L43.4766 0.378296C45.8392 1.9533 47.2172 4.56173 47.2172 7.36719Z" fill="#FFE8AD"/>
<path d="M42 72.8774V56.3893L51.893 61.2125L49.7273 65.6424C48.0537 69.0385 45.2975 71.5483 42 72.8774Z" fill="#663325"/>
</svg>
