<svg width="94" height="41" viewBox="0 0 94 41" fill="none" xmlns="http://www.w3.org/2000/svg">
<path fill-rule="evenodd" clip-rule="evenodd" d="M89.4146 15.2286H5.73169L6.87803 32.8C6.87803 36.0348 25.0979 38.6571 47.5732 38.6571C70.0484 38.6571 88.2683 36.0348 88.2683 32.8L89.4146 15.2286Z" fill="url(#paint0_linear)"/>
<ellipse cx="47.5731" cy="8.19998" rx="44.1341" ry="5.85714" fill="url(#paint1_linear)"/>
<ellipse cx="47" cy="10.5429" rx="41.2683" ry="5.85714" fill="url(#paint2_linear)"/>
<path d="M86.5489 9.37146C86.5579 11.6358 67.9088 12.7991 47.0164 12.8857C26.1241 12.9723 7.46025 11.6358 7.45126 9.37144C7.44228 7.10709 26.0915 4.77235 46.9839 4.68577C67.8763 4.5992 86.5399 7.10711 86.5489 9.37146Z" fill="url(#paint3_linear)"/>
<mask id="mask0" mask-type="alpha" maskUnits="userSpaceOnUse" x="5" y="15" width="85" height="24">
<path fill-rule="evenodd" clip-rule="evenodd" d="M89.4146 15.2286H5.73169L6.87803 32.8C6.87803 36.0348 25.0979 38.6571 47.5732 38.6571C70.0484 38.6571 88.2683 36.0348 88.2683 32.8L89.4146 15.2286Z" fill="url(#paint4_linear)"/>
</mask>
<g mask="url(#mask0)">
<path d="M49.5 20V46M90.5 20V46M7.5 20V46M28.5 20V46M69.5 20V46M-13.5 20L-13.5 46M52.5 20V46M93.5 20V46M10.5 20V46M31.5 20V46M72.5 20V46M-10.5 20L-10.5 46M55.5 20V46M96.5 20V46M13.5 20V46M34.5 20V46M75.5 20V46M-7.5 20L-7.5 46M58.5 20V46M99.5 20V46M16.5 20V46M37.5 20V46M78.5 20V46M-4.5 20L-4.5 46M61.5 20V46M102.5 20V46M19.5 20V46M40.5 20V46M81.5 20V46M-1.5 20L-1.5 46M64.5 20V46M105.5 20V46M22.5 20V46M43.5 20V46M84.5 20V46M1.5 20L1.5 46M67.5 20V46M108.5 20V46M25.5 20V46M46.5 20V46M87.5 20V46M4.5 20V46" stroke="#E2EEFF" stroke-opacity="0.61"/>
</g>
<path fill-rule="evenodd" clip-rule="evenodd" d="M89.0001 10C89.0001 13.3532 70.4199 16.0714 47.5001 16.0714C24.5803 16.0714 6.00008 13.3532 6.00008 10V20.9286H6.00292C5.95154 21.2666 5.94986 21.6234 6.00008 22C6.00008 25.3531 24.5803 27 47.5001 27C70.4199 27 89 24.3532 89 21C89 20.9761 88.9998 20.9523 88.9995 20.9286H89.0001V10Z" fill="#A5C8E9" fill-opacity="0.11"/>
<path fill-rule="evenodd" clip-rule="evenodd" d="M91.7073 8.20001C91.7073 11.4348 71.9477 14.0572 47.5731 14.0572C23.1985 14.0572 3.43896 11.4348 3.43896 8.20001V18.7429C3.43896 21.9777 23.1985 24.6 47.5731 24.6C71.9477 24.6 91.7073 21.9777 91.7073 18.7429V8.20001Z" fill="url(#paint5_linear)"/>
<defs>
<linearGradient id="paint0_linear" x1="6" y1="28.5" x2="89" y2="28.5" gradientUnits="userSpaceOnUse">
<stop stop-color="#EFF5FF"/>
<stop offset="0.5" stop-color="white"/>
<stop offset="1" stop-color="#EFF5FF"/>
</linearGradient>
<linearGradient id="paint1_linear" x1="47.5731" y1="2.34283" x2="48.1716" y2="26.9422" gradientUnits="userSpaceOnUse">
<stop stop-color="white"/>
<stop offset="1" stop-color="white" stop-opacity="0"/>
</linearGradient>
<linearGradient id="paint2_linear" x1="46.4268" y1="2.34287" x2="47.0253" y2="16.3989" gradientUnits="userSpaceOnUse">
<stop stop-color="#FF7B01"/>
<stop offset="0.0677083" stop-color="#A34E00"/>
<stop offset="0.8125" stop-color="#FFE8AD"/>
</linearGradient>
<linearGradient id="paint3_linear" x1="46.4421" y1="0.587969" x2="45.5713" y2="11.1092" gradientUnits="userSpaceOnUse">
<stop stop-color="white"/>
<stop offset="0.808843" stop-color="white" stop-opacity="0"/>
</linearGradient>
<linearGradient id="paint4_linear" x1="47.5732" y1="15.2286" x2="47.5732" y2="38.6571" gradientUnits="userSpaceOnUse">
<stop stop-color="#EFF5FF"/>
<stop offset="0.526042" stop-color="white"/>
<stop offset="1" stop-color="#EFF5FF"/>
</linearGradient>
<linearGradient id="paint5_linear" x1="3" y1="15" x2="92" y2="15" gradientUnits="userSpaceOnUse">
<stop stop-color="#E0F0FF"/>
<stop offset="0.494792" stop-color="white"/>
<stop offset="1" stop-color="#E0F0FF"/>
</linearGradient>
</defs>
</svg>
