<svg width="73" height="73" viewBox="0 0 73 73" fill="none" xmlns="http://www.w3.org/2000/svg">
<g clip-path="url(#clip0)">
<path d="M71.57 25.8639C72.6324 24.8101 73.5777 22.2538 72.5717 20.904C72.0646 20.236 71.9956 19.297 72.0786 18.4919C72.1369 17.8936 72.1612 17.5963 72.2006 17.0058C72.2173 15.342 71.9283 13.492 70.3665 12.5493L70.3664 12.5491C68.9898 11.7549 68.0729 10.198 67.75 8.67426C67.4062 7.01673 66.1132 5.72348 64.4557 5.37967C62.9434 5.08481 61.3903 4.18347 60.6107 2.81694C60.5986 2.79518 60.5926 2.7843 60.5804 2.76269C59.6915 1.20364 57.8651 0.910207 56.2362 0.921086C55.5739 0.963741 55.2401 0.990794 54.5679 1.05721C53.7917 1.13851 52.8782 1.07281 52.2409 0.570972C50.8632 -0.480371 48.3698 0.525311 47.2652 1.55862C44.4093 4.41449 41.5534 7.27037 38.6976 10.1262C38.1606 10.6632 38.4482 11.0933 39.3234 11.1501C51.5138 12.1765 60.9521 21.6144 61.9786 33.8053C62.0354 34.6806 62.4655 34.9681 63.0024 34.4311C65.8584 31.5755 68.7143 28.7196 71.57 25.8639V25.8639Z" fill="url(#paint0_linear)"/>
<path d="M24.0425 41.5499C19.5766 50.2058 18.6446 60.1907 21.8526 69.0725C23.0132 72.2856 27.2024 72.9622 29.8075 70.3571L41.3286 58.836L24.0425 41.5499Z" fill="url(#paint1_linear)"/>
<path d="M70.2817 23.1942C69.7746 22.5262 69.7056 21.5872 69.7885 20.7821C69.8467 20.1838 69.8711 19.8865 69.9104 19.296C69.9272 17.6322 69.6383 15.7822 68.0764 14.8395C66.6999 14.0452 65.7829 12.4883 65.46 10.9646C65.1162 9.30707 63.8232 8.01382 62.1657 7.67001C60.6535 7.37515 59.1003 6.47381 58.3208 5.10728C58.3086 5.08552 58.3026 5.07464 58.2904 5.05303C57.4015 3.49398 55.5751 3.20055 53.9462 3.21143C53.2839 3.25408 52.9501 3.28113 52.2778 3.34755C51.5016 3.42885 50.5881 3.36315 49.9508 2.86131C48.5731 1.80997 46.0797 2.81551 44.9752 3.84896C42.8827 5.94148 40.7903 8.03386 38.6978 10.1264C38.1609 10.6633 38.4485 11.0934 39.3236 11.1502C51.514 12.1767 60.9523 21.6146 61.9788 33.8054C62.0356 34.6807 62.4657 34.9683 63.0026 34.4312C65.095 32.3389 67.1875 30.2465 69.2799 28.154C70.3424 27.1002 71.2876 24.5439 70.2817 23.1942V23.1942Z" fill="url(#paint2_linear)"/>
<path d="M72.0998 18.2715L67.2609 13.4326L58.2012 22.4923C58.4507 22.8857 58.6888 23.2872 58.9164 23.6958L66.3272 31.1067C68.0748 29.3592 69.8225 27.6115 71.57 25.8639C72.6324 24.8101 73.5777 22.2539 72.5717 20.9041C72.0646 20.236 71.9956 19.2971 72.0785 18.4919C72.0863 18.4136 72.0934 18.3408 72.0998 18.2715V18.2715Z" fill="url(#paint3_linear)"/>
<g clip-path="url(#clip1)">
<path fill-rule="evenodd" clip-rule="evenodd" d="M62.3135 23.4041L59.9468 23.5291C59.6102 23.5469 59.2996 23.8351 59.2569 24.1696C59.2142 24.5041 59.4549 24.7631 59.7914 24.7454L62.1582 24.6203C62.4948 24.6025 62.8053 24.3143 62.848 23.9798C62.8908 23.6454 62.6501 23.3863 62.3135 23.4041Z" fill="#660E08"/>
<path fill-rule="evenodd" clip-rule="evenodd" d="M60.3351 20.4884L66.1652 20.1804C66.5019 20.1626 66.7425 20.4217 66.6998 20.7562C66.6571 21.0907 66.3466 21.3789 66.0099 21.3967L60.1798 21.7047C59.8431 21.7225 59.6025 21.4634 59.6452 21.1289C59.6879 20.7944 59.9984 20.5062 60.3351 20.4884V20.4884ZM59.257 24.1696C59.2142 24.5041 59.4549 24.7631 59.7915 24.7454L62.1582 24.6203C62.4948 24.6025 62.8054 24.3143 62.8481 23.9798C62.8908 23.6454 62.6501 23.3863 62.3135 23.4041L59.9468 23.5291C59.6102 23.5469 59.2996 23.8351 59.257 24.1696ZM57.1724 26.5131C58.8425 28.312 62.8827 27.2762 66.1965 24.1997C69.5102 21.1232 70.8427 17.1709 69.1726 15.372C67.5025 13.5732 63.4623 14.6089 60.1486 17.6854C56.8348 20.7619 55.5023 24.7142 57.1724 26.5131ZM64.0314 18.4811L66.3982 18.356C66.7348 18.3382 67.0453 18.05 67.088 17.7156C67.1307 17.3811 66.8901 17.122 66.5535 17.1398L64.1867 17.2648C63.8501 17.2826 63.5396 17.5708 63.4969 17.9053C63.4542 18.2398 63.6949 18.4988 64.0314 18.4811Z" fill="url(#paint4_linear)"/>
<path fill-rule="evenodd" clip-rule="evenodd" d="M64.0314 18.4811L66.3982 18.356C66.7348 18.3382 67.0453 18.05 67.088 17.7155C67.1308 17.3811 66.8901 17.122 66.5535 17.1398L64.1867 17.2648C63.8502 17.2826 63.5396 17.5708 63.4969 17.9053C63.4542 18.2397 63.6949 18.4988 64.0314 18.4811Z" fill="#660E08"/>
<path fill-rule="evenodd" clip-rule="evenodd" d="M66.1651 20.1804L60.335 20.4885C59.9983 20.5062 59.6878 20.7944 59.6451 21.1289C59.6024 21.4634 59.843 21.7225 60.1797 21.7047L66.0098 21.3967C66.3464 21.3789 66.6569 21.0907 66.6996 20.7562C66.7423 20.4218 66.5018 20.1626 66.1651 20.1804Z" fill="#660E08"/>
<path fill-rule="evenodd" clip-rule="evenodd" d="M69.1726 15.3721C70.8427 17.1709 69.5102 21.1232 66.1964 24.1997C62.8827 27.2762 58.8424 28.312 57.1724 26.5131L58.6844 28.1417C60.3545 29.9406 64.3947 28.9049 67.7085 25.8284C71.0222 22.7519 72.3547 18.7996 70.6846 17.0007L69.1726 15.3721Z" fill="#660E08"/>
<path d="M65.2516 14.4063C61.7338 15.2397 57.5921 19.0848 56.5003 22.5312C55.9026 24.3037 56.0547 25.7983 56.9286 26.7395L58.4406 28.3682C59.3144 29.3094 60.7936 29.572 62.6056 29.1074C66.1235 28.2741 70.2652 24.4289 71.357 20.9826C71.9547 19.21 71.8025 17.7154 70.9287 16.7742L69.4166 15.1456C68.5428 14.2044 67.0636 13.9418 65.2516 14.4063ZM57.083 22.6255C57.6258 21.0158 58.7816 19.3336 60.3376 17.889C61.8937 16.4443 63.6569 15.4164 65.3025 14.9945C68.5579 14.1198 70.3765 16.0775 69.2621 19.2596C68.7194 20.8694 67.5636 22.5515 66.0076 23.9961C64.4515 25.4408 62.6883 26.4687 61.0427 26.8905C57.7873 27.7653 55.9687 25.8076 57.083 22.6255V22.6255ZM70.4408 17.2271C72.2785 19.4285 69.9592 23.3865 67.5196 25.6248C65.1084 27.8914 60.9851 29.9112 58.9284 27.9153L58.6714 27.6384C59.3742 27.7609 60.1928 27.7097 61.0936 27.4787C64.6114 26.6455 68.7532 22.8002 69.845 19.3539C70.1421 18.4727 70.2539 17.6602 70.1839 16.9503L70.4409 17.2271L70.4408 17.2271Z" fill="url(#paint5_linear)"/>
<path d="M61.6785 21.9275C61.8476 21.9186 62.002 21.7752 62.0235 21.6073C62.0449 21.4394 61.9253 21.3105 61.7562 21.3194L60.2187 21.4006C60.05 21.4095 59.93 21.2804 59.9514 21.1127C59.9728 20.9451 60.1276 20.8014 60.2964 20.7925L66.1265 20.4844C66.5312 20.4802 66.4559 21.0538 66.0488 21.0926L64.5111 21.1738C64.3421 21.1828 64.1877 21.3261 64.1662 21.4941C64.1447 21.662 64.2644 21.7909 64.4335 21.782L65.9711 21.7007C66.2158 21.6878 66.4583 21.5806 66.6542 21.3988C66.85 21.217 66.975 20.983 67.006 20.74C67.0702 20.237 66.7105 19.8496 66.2041 19.8763L60.3741 20.1844C59.8677 20.2112 59.4035 20.6421 59.3392 21.1451C59.275 21.6481 59.6347 22.0355 60.1411 22.0088L61.6785 21.9275Z" fill="url(#paint6_linear)"/>
<path d="M62.1194 24.9244C62.364 24.9115 62.6065 24.8042 62.8024 24.6224L62.8025 24.6224C62.9983 24.4406 63.1232 24.2066 63.1543 23.9636C63.2185 23.4607 62.8588 23.0732 62.3524 23.0999L59.9856 23.225C59.4793 23.2517 59.0151 23.6827 58.9508 24.1857C58.9508 24.1857 58.9508 24.1857 58.9508 24.1857C58.8866 24.6887 59.2463 25.0762 59.7527 25.0494L62.1194 24.9244ZM59.563 24.1534C59.5845 23.9858 59.7392 23.8421 59.908 23.8331L62.2748 23.7081C62.4435 23.6992 62.5635 23.8283 62.542 23.996C62.5318 24.0765 62.49 24.1544 62.4245 24.2152C62.3589 24.2761 62.2782 24.3119 62.1971 24.3162L59.8304 24.4412C59.6615 24.4502 59.5416 24.3211 59.563 24.1534V24.1534Z" fill="url(#paint7_linear)"/>
<path d="M66.3594 18.6601C66.6039 18.6472 66.8465 18.5399 67.0424 18.3581C67.2382 18.1763 67.3632 17.9424 67.3942 17.6994C67.4584 17.1964 67.0987 16.8089 66.5924 16.8357L64.2256 16.9607C63.7192 16.9875 63.255 17.4185 63.1908 17.9214L63.1908 17.9215C63.1266 18.4244 63.4863 18.8119 63.9927 18.7852L66.3594 18.6601ZM63.803 17.8891C63.8245 17.7214 63.9793 17.5778 64.148 17.5689L66.5147 17.4438C66.5958 17.4395 66.6684 17.4673 66.7192 17.522C66.77 17.5767 66.7923 17.6512 66.782 17.7317C66.7717 17.8122 66.7299 17.8901 66.6644 17.9509L66.6644 17.9509C66.5988 18.0118 66.5182 18.0476 66.4371 18.0519L64.0704 18.177C63.9015 18.1859 63.7816 18.0568 63.803 17.8891V17.8891Z" fill="url(#paint8_linear)"/>
<path d="M58.3461 23.0073C58.6597 22.6961 58.3013 22.3106 57.9681 22.6002L57.9679 22.6003C57.6543 22.9116 58.0128 23.2969 58.3461 23.0073Z" fill="url(#paint9_linear)"/>
<path d="M64.6424 23.1126L64.6422 23.1128C64.5076 23.2378 64.4831 23.4303 64.5874 23.5427C64.851 23.8007 65.3132 23.3716 65.0753 23.0897C64.971 22.9773 64.7771 22.9875 64.6424 23.1126V23.1126Z" fill="url(#paint10_linear)"/>
<path d="M61.9899 18.7146C62.3035 18.4034 61.9451 18.0179 61.6119 18.3075L61.6117 18.3076C61.2981 18.6189 61.6566 19.0042 61.9899 18.7146Z" fill="url(#paint11_linear)"/>
<path d="M67.6171 18.759L67.6169 18.7592C67.4822 18.8843 67.4577 19.0767 67.562 19.1891C67.8256 19.4472 68.2878 19.018 68.05 18.7362C67.9456 18.6237 67.7517 18.634 67.6171 18.759V18.759Z" fill="url(#paint12_linear)"/>
<path d="M63.0839 21.852C63.2534 21.8282 63.3971 21.6741 63.4032 21.507C63.4093 21.3406 63.2761 21.2252 63.1058 21.2493L63.1056 21.2494C62.9354 21.2735 62.7924 21.4279 62.7864 21.5943C62.7804 21.7608 62.9136 21.8761 63.0839 21.852V21.852Z" fill="url(#paint13_linear)"/>
</g>
<g clip-path="url(#clip2)">
<path fill-rule="evenodd" clip-rule="evenodd" d="M58.283 15.7906L55.9162 15.9156C55.5797 15.9334 55.2691 16.2216 55.2264 16.5561C55.1837 16.8906 55.4243 17.1496 55.7609 17.1319L58.1277 17.0068C58.4642 16.989 58.7748 16.7008 58.8175 16.3663C58.8602 16.0319 58.6196 15.7728 58.283 15.7906Z" fill="#660E08"/>
<path fill-rule="evenodd" clip-rule="evenodd" d="M56.3046 12.8749L62.1347 12.5669C62.4714 12.5491 62.712 12.8082 62.6692 13.1427C62.6265 13.4772 62.316 13.7654 61.9794 13.7832L56.1493 14.0912C55.8126 14.109 55.572 13.8499 55.6147 13.5154C55.6574 13.1809 55.9679 12.8927 56.3046 12.8749V12.8749ZM55.2264 16.5561C55.1837 16.8906 55.4244 17.1497 55.761 17.1319L58.1277 17.0068C58.4643 16.989 58.7749 16.7008 58.8176 16.3664C58.8603 16.0319 58.6196 15.7728 58.283 15.7906L55.9163 15.9156C55.5797 15.9334 55.2691 16.2216 55.2264 16.5561ZM53.1419 18.8996C54.812 20.6985 58.8522 19.6627 62.1659 16.5862C65.4797 13.5097 66.8122 9.55741 65.1421 7.75854C63.472 5.95966 59.4318 6.99539 56.118 10.0719C52.8043 13.1484 51.4718 17.1007 53.1419 18.8996ZM60.0009 10.8676L62.3676 10.7425C62.7042 10.7248 63.0148 10.4365 63.0575 10.1021C63.1002 9.7676 62.8595 9.5085 62.523 9.52628L60.1562 9.6513C59.8196 9.66908 59.509 9.95729 59.4663 10.2918C59.4237 10.6263 59.6644 10.8853 60.0009 10.8676Z" fill="url(#paint14_linear)"/>
<path fill-rule="evenodd" clip-rule="evenodd" d="M60.0009 10.8676L62.3677 10.7425C62.7042 10.7247 63.0148 10.4365 63.0575 10.102C63.1002 9.76758 62.8595 9.50848 62.523 9.52627L60.1562 9.65129C59.8196 9.66907 59.509 9.95727 59.4664 10.2918C59.4237 10.6262 59.6644 10.8853 60.0009 10.8676Z" fill="#660E08"/>
<path fill-rule="evenodd" clip-rule="evenodd" d="M62.1346 12.5669L56.3045 12.875C55.9678 12.8927 55.6573 13.1809 55.6146 13.5154C55.5719 13.8499 55.8125 14.109 56.1492 14.0912L61.9792 13.7832C62.3159 13.7654 62.6264 13.4772 62.6691 13.1427C62.7118 12.8083 62.4712 12.5491 62.1346 12.5669Z" fill="#660E08"/>
<path fill-rule="evenodd" clip-rule="evenodd" d="M65.1421 7.75856C66.8122 9.55744 65.4797 13.5097 62.1659 16.5862C58.8521 19.6627 54.8119 20.6985 53.1418 18.8996L54.6539 20.5282C56.324 22.3271 60.3642 21.2914 63.6779 18.2149C66.9917 15.1384 68.3242 11.1861 66.6541 9.3872L65.1421 7.75856Z" fill="#660E08"/>
<path d="M61.2211 6.79284C57.7032 7.62619 53.5616 11.4713 52.4697 14.9177C51.8721 16.6902 52.0242 18.1848 52.8981 19.126L54.4101 20.7547C55.2839 21.6959 56.7631 21.9585 58.5751 21.4939C62.0929 20.6607 66.2347 16.8154 67.3265 13.3691C67.9241 11.5965 67.772 10.1019 66.8982 9.16071L65.3861 7.53207C64.5123 6.59086 63.0331 6.32832 61.2211 6.79284ZM53.0525 15.012C53.5952 13.4023 54.7511 11.7201 56.3071 10.2755C57.8632 8.83083 59.6264 7.80289 61.272 7.38105C64.5274 6.5063 66.346 8.46403 65.2316 11.6461C64.6889 13.2559 63.5331 14.938 61.977 16.3826C60.421 17.8273 58.6578 18.8552 57.0122 19.277C53.7568 20.1518 51.9382 18.1941 53.0525 15.012V15.012ZM66.4103 9.61362C68.248 11.815 65.9287 15.773 63.4891 18.0113C61.0779 20.2779 56.9545 22.2977 54.8979 20.3018L54.6409 20.0249C55.3437 20.1474 56.1622 20.0962 57.0631 19.8652C60.5809 19.032 64.7227 15.1867 65.8145 11.7404C66.1116 10.8592 66.2234 10.0467 66.1533 9.33676L66.4103 9.6136L66.4103 9.61362Z" fill="url(#paint15_linear)"/>
<path d="M57.648 14.314C57.8171 14.3051 57.9715 14.1617 57.993 13.9938C58.0144 13.8259 57.8947 13.697 57.7257 13.7059L56.1882 13.7871C56.0194 13.796 55.8995 13.6669 55.9209 13.4993C55.9423 13.3316 56.0971 13.1879 56.2659 13.179L62.096 12.871C62.5007 12.8667 62.4254 13.4403 62.0183 13.4791L60.4806 13.5603C60.3116 13.5693 60.1572 13.7126 60.1357 13.8806C60.1142 14.0485 60.2339 14.1774 60.403 14.1685L61.9406 14.0872C62.1853 14.0744 62.4278 13.9671 62.6236 13.7853C62.8195 13.6035 62.9444 13.3695 62.9754 13.1265C63.0397 12.6235 62.68 12.2361 62.1736 12.2628L56.3435 12.5709C55.8372 12.5977 55.373 13.0286 55.3087 13.5316C55.2445 14.0346 55.6042 14.422 56.1105 14.3953L57.648 14.314Z" fill="url(#paint16_linear)"/>
<path d="M58.0889 17.3109C58.3334 17.298 58.576 17.1907 58.7719 17.0089L58.7719 17.0089C58.9678 16.8271 59.0927 16.5931 59.1237 16.3501C59.188 15.8472 58.8283 15.4597 58.3219 15.4865L55.9551 15.6115C55.4488 15.6382 54.9846 16.0692 54.9203 16.5722C54.9203 16.5722 54.9203 16.5722 54.9203 16.5722C54.8561 17.0752 55.2158 17.4627 55.7221 17.4359L58.0889 17.3109ZM55.5325 16.5399C55.554 16.3723 55.7087 16.2286 55.8775 16.2196L58.2442 16.0946C58.413 16.0857 58.5329 16.2148 58.5115 16.3825C58.5013 16.463 58.4595 16.5409 58.3939 16.6017C58.3284 16.6626 58.2477 16.6984 58.1666 16.7027L55.7998 16.8278C55.631 16.8367 55.5111 16.7076 55.5325 16.5399V16.5399Z" fill="url(#paint17_linear)"/>
<path d="M62.3289 11.0466C62.5734 11.0337 62.816 10.9264 63.0118 10.7447C63.2077 10.5628 63.3326 10.3289 63.3637 10.0859C63.4279 9.58289 63.0682 9.19545 62.5618 9.22219L60.1951 9.34723C59.6887 9.37398 59.2245 9.80499 59.1603 10.3079L59.1603 10.308C59.0961 10.8109 59.4558 11.1984 59.9621 11.1717L62.3289 11.0466ZM59.7725 10.2756C59.794 10.1079 59.9487 9.96427 60.1175 9.95536L62.4842 9.83034C62.5652 9.82605 62.6378 9.85382 62.6887 9.9085C62.7395 9.96322 62.7618 10.0377 62.7515 10.1182C62.7412 10.1987 62.6994 10.2766 62.6339 10.3374L62.6339 10.3374C62.5683 10.3983 62.4876 10.4341 62.4066 10.4384L60.0398 10.5635C59.871 10.5724 59.7511 10.4433 59.7725 10.2756V10.2756Z" fill="url(#paint18_linear)"/>
<path d="M54.3155 15.3938C54.6292 15.0826 54.2708 14.6971 53.9375 14.9867L53.9374 14.9868C53.6238 15.2981 53.9823 15.6834 54.3155 15.3938Z" fill="url(#paint19_linear)"/>
<path d="M60.6119 15.4991L60.6117 15.4993C60.477 15.6243 60.4526 15.8168 60.5569 15.9292C60.8205 16.1872 61.2827 15.7581 61.0448 15.4762C60.9405 15.3638 60.7466 15.374 60.6119 15.4991V15.4991Z" fill="url(#paint20_linear)"/>
<path d="M57.9593 11.1011C58.273 10.7899 57.9146 10.4044 57.5813 10.694L57.5811 10.6942C57.2676 11.0054 57.6261 11.3907 57.9593 11.1011Z" fill="url(#paint21_linear)"/>
<path d="M63.5865 11.1455L63.5863 11.1457C63.4517 11.2708 63.4272 11.4632 63.5315 11.5756C63.7951 11.8337 64.2573 11.4045 64.0194 11.1227C63.9151 11.0103 63.7212 11.0205 63.5865 11.1455V11.1455Z" fill="url(#paint22_linear)"/>
<path d="M59.0534 14.2385C59.2229 14.2147 59.3666 14.0606 59.3727 13.8935C59.3788 13.7271 59.2456 13.6117 59.0753 13.6358L59.0751 13.6359C58.9048 13.66 58.7619 13.8144 58.7559 13.9808C58.7498 14.1473 58.8831 14.2626 59.0534 14.2385V14.2385Z" fill="url(#paint23_linear)"/>
</g>
<g clip-path="url(#clip3)">
<path fill-rule="evenodd" clip-rule="evenodd" d="M46.6387 12.2078L44.272 12.3328C43.9354 12.3506 43.6248 12.6388 43.5821 12.9733C43.5394 13.3078 43.7801 13.5669 44.1166 13.5491L46.4834 13.424C46.82 13.4062 47.1305 13.118 47.1732 12.7836C47.216 12.4491 46.9753 12.19 46.6387 12.2078Z" fill="#660E08"/>
<path fill-rule="evenodd" clip-rule="evenodd" d="M44.6603 9.29215L50.4904 8.98413C50.8271 8.96634 51.0677 9.22545 51.025 9.55991C50.9823 9.89438 50.6718 10.1826 50.3351 10.2004L44.505 10.5084C44.1683 10.5262 43.9277 10.2671 43.9704 9.93262C44.0131 9.59814 44.3236 9.30994 44.6603 9.29215V9.29215ZM43.5821 12.9733C43.5394 13.3078 43.7801 13.5669 44.1167 13.5491L46.4834 13.424C46.82 13.4062 47.1306 13.118 47.1733 12.7836C47.216 12.4491 46.9753 12.19 46.6387 12.2078L44.272 12.3328C43.9354 12.3506 43.6248 12.6388 43.5821 12.9733ZM41.4976 15.3168C43.1677 17.1157 47.2079 16.0799 50.5217 13.0034C53.8354 9.92691 55.1679 5.97462 53.4978 4.17575C51.8277 2.37686 47.7875 3.4126 44.4738 6.48911C41.16 9.56562 39.8275 13.5179 41.4976 15.3168ZM48.3566 7.28478L50.7234 7.15974C51.0599 7.14196 51.3705 6.85374 51.4132 6.51927C51.4559 6.1848 51.2153 5.9257 50.8787 5.94349L48.5119 6.06851C48.1753 6.08629 47.8647 6.37449 47.8221 6.70898C47.7794 7.04347 48.0201 7.30254 48.3566 7.28478Z" fill="url(#paint24_linear)"/>
<path fill-rule="evenodd" clip-rule="evenodd" d="M48.3566 7.28477L50.7234 7.15973C51.06 7.14195 51.3705 6.85372 51.4132 6.51925C51.4559 6.18479 51.2153 5.92569 50.8787 5.94347L48.5119 6.06849C48.1753 6.08628 47.8648 6.37448 47.8221 6.70897C47.7794 7.04345 48.0201 7.30253 48.3566 7.28477Z" fill="#660E08"/>
<path fill-rule="evenodd" clip-rule="evenodd" d="M50.4903 8.98415L44.6602 9.29217C44.3235 9.30996 44.013 9.59815 43.9703 9.93264C43.9276 10.2672 44.1682 10.5262 44.5049 10.5084L50.335 10.2004C50.6716 10.1826 50.9821 9.8944 51.0248 9.55993C51.0675 9.22546 50.827 8.96634 50.4903 8.98415Z" fill="#660E08"/>
<path fill-rule="evenodd" clip-rule="evenodd" d="M53.4978 4.17576C55.1679 5.97465 53.8354 9.92693 50.5216 13.0034C47.2079 16.08 43.1676 17.1157 41.4976 15.3168L43.0096 16.9454C44.6797 18.7443 48.7199 17.7086 52.0337 14.6321C55.3474 11.5556 56.6799 7.60327 55.0098 5.8044L53.4978 4.17576Z" fill="#660E08"/>
<path d="M49.5768 3.21005C46.059 4.04339 41.9173 7.88854 40.8254 11.3349C40.2278 13.1075 40.3799 14.602 41.2538 15.5432L42.7658 17.1719C43.6396 18.1131 45.1188 18.3757 46.9308 17.9111C50.4487 17.0779 54.5904 13.2326 55.6822 9.78629C56.2799 8.01373 56.1277 6.51915 55.2539 5.57792L53.7418 3.94928C52.868 3.00806 51.3888 2.74552 49.5768 3.21005ZM41.4082 11.4292C41.9509 9.81948 43.1068 8.13732 44.6628 6.69268C46.2189 5.24803 47.9821 4.22009 49.6277 3.79825C52.8831 2.92351 54.7017 4.88123 53.5873 8.06332C53.0446 9.67309 51.8888 11.3552 50.3328 12.7998C48.7767 14.2445 47.0135 15.2724 45.3679 15.6943C42.1125 16.569 40.2939 14.6113 41.4082 11.4292V11.4292ZM54.766 6.03083C56.6037 8.23224 54.2844 12.1902 51.8448 14.4285C49.4336 16.6951 45.3103 18.7149 43.2536 16.719L42.9966 16.4421C43.6994 16.5646 44.518 16.5134 45.4188 16.2825C48.9366 15.4492 53.0784 11.6039 54.1702 8.15763C54.4673 7.27642 54.5791 6.46393 54.509 5.75397L54.7661 6.0308L54.766 6.03083Z" fill="url(#paint25_linear)"/>
<path d="M46.0037 10.7313C46.1728 10.7223 46.3272 10.5789 46.3487 10.411C46.3701 10.2431 46.2504 10.1142 46.0814 10.1231L44.5439 10.2043C44.3751 10.2132 44.2552 10.0841 44.2766 9.91646C44.298 9.74879 44.4528 9.60512 44.6216 9.59618L50.4517 9.28816C50.8564 9.28395 50.7811 9.85748 50.374 9.89629L48.8363 9.97753C48.6673 9.9865 48.5129 10.1298 48.4914 10.2978C48.4699 10.4657 48.5896 10.5946 48.7587 10.5857L50.2963 10.5044C50.541 10.4916 50.7835 10.3843 50.9794 10.2025C51.1752 10.0207 51.3002 9.78673 51.3312 9.54371C51.3954 9.04074 51.0357 8.6533 50.5293 8.68003L44.6992 8.98807C44.1929 9.01486 43.7287 9.44583 43.6644 9.94882C43.6002 10.4518 43.9599 10.8392 44.4663 10.8125L46.0037 10.7313Z" fill="url(#paint26_linear)"/>
<path d="M46.4446 13.7281C46.6892 13.7152 46.9317 13.6079 47.1276 13.4261L47.1277 13.4261C47.3235 13.2443 47.4484 13.0103 47.4795 12.7674C47.5437 12.2644 47.184 11.8769 46.6776 11.9037L44.3108 12.0287C43.8045 12.0554 43.3403 12.4864 43.276 12.9894C43.276 12.9894 43.276 12.9894 43.276 12.9894C43.2118 13.4924 43.5715 13.8799 44.0779 13.8531L46.4446 13.7281ZM43.8882 12.9571C43.9097 12.7895 44.0644 12.6458 44.2332 12.6368L46.6 12.5118C46.7687 12.5029 46.8886 12.632 46.8672 12.7997C46.857 12.8802 46.8152 12.9581 46.7497 13.0189C46.6841 13.0798 46.6034 13.1157 46.5223 13.1199L44.1556 13.245C43.9867 13.2539 43.8668 13.1248 43.8882 12.9571V12.9571Z" fill="url(#paint27_linear)"/>
<path d="M50.6846 7.46378C50.9291 7.4509 51.1717 7.34365 51.3676 7.16186C51.5634 6.98005 51.6884 6.74607 51.7194 6.50309C51.7836 6.0001 51.4239 5.61266 50.9175 5.63939L48.5508 5.76444C48.0444 5.79119 47.5802 6.2222 47.516 6.72515L47.516 6.72517C47.4518 7.22811 47.8115 7.61557 48.3179 7.58886L50.6846 7.46378ZM48.1282 6.69278C48.1497 6.52513 48.3045 6.38147 48.4732 6.37256L50.8399 6.24754C50.921 6.24326 50.9936 6.27103 51.0444 6.32571C51.0952 6.38043 51.1175 6.45489 51.1072 6.53541C51.0969 6.61593 51.0551 6.6938 50.9896 6.75463L50.9896 6.75465C50.924 6.81547 50.8433 6.85134 50.7623 6.8556L48.3956 6.98069C48.2267 6.98963 48.1068 6.86046 48.1282 6.69278V6.69278Z" fill="url(#paint28_linear)"/>
<path d="M42.6713 11.811C42.9849 11.4998 42.6265 11.1143 42.2933 11.4039L42.2931 11.404C41.9795 11.7153 42.338 12.1006 42.6713 11.811Z" fill="url(#paint29_linear)"/>
<path d="M48.9676 11.9163L48.9674 11.9165C48.8328 12.0415 48.8083 12.234 48.9126 12.3464C49.1762 12.6044 49.6384 12.1753 49.4005 11.8934C49.2962 11.781 49.1023 11.7912 48.9676 11.9163V11.9163Z" fill="url(#paint30_linear)"/>
<path d="M46.315 7.51832C46.6287 7.20711 46.2703 6.82162 45.9371 7.11118L45.9369 7.11136C45.6233 7.42261 45.9818 7.80792 46.315 7.51832Z" fill="url(#paint31_linear)"/>
<path d="M51.9422 7.56274L51.9421 7.56292C51.8074 7.68797 51.7829 7.88044 51.8872 7.99285C52.1508 8.25087 52.613 7.82176 52.3752 7.53987C52.2708 7.42746 52.0769 7.4377 51.9422 7.56274V7.56274Z" fill="url(#paint32_linear)"/>
<path d="M47.4091 10.6557C47.5786 10.6319 47.7223 10.4778 47.7284 10.3107C47.7345 10.1443 47.6013 10.0289 47.431 10.053L47.4308 10.0531C47.2606 10.0772 47.1176 10.2316 47.1116 10.398C47.1055 10.5645 47.2388 10.6798 47.4091 10.6557V10.6557Z" fill="url(#paint33_linear)"/>
</g>
<path d="M64.5797 10.4842C64.3577 10.3234 64.0963 10.2259 63.8228 10.2018C63.5492 10.1777 63.2735 10.228 63.0243 10.3474C63.0037 10.0718 62.9097 9.80764 62.752 9.58271C62.5943 9.35777 62.3788 9.18038 62.1282 9.06918C61.8775 8.95798 61.6011 8.91708 61.3279 8.9508C61.0546 8.98452 60.7947 9.09161 60.5755 9.26079C60.4984 8.99609 60.3516 8.75792 60.1505 8.57134C59.9494 8.38475 59.7015 8.25665 59.4328 8.20052C59.1642 8.14438 58.8847 8.16227 58.6238 8.25232C58.3629 8.34238 58.1302 8.50125 57.9503 8.71224C57.82 8.46999 57.6269 8.26823 57.3912 8.12816C57.1555 7.98809 56.886 7.91491 56.611 7.9163C56.336 7.9177 56.0657 7.99363 55.8286 8.1361C55.5915 8.27857 55.3962 8.48231 55.2634 8.72589C55.0856 8.51675 54.8546 8.36026 54.5946 8.27288C54.3346 8.1855 54.0553 8.17046 53.7861 8.22935C53.5168 8.28824 53.2676 8.41887 53.0646 8.60751C52.8616 8.79615 52.7124 9.03581 52.6326 9.3013C52.415 9.13435 52.1562 9.02993 51.8833 8.99901C51.6104 8.9681 51.3335 9.01183 51.0817 9.12562C50.8299 9.2394 50.6126 9.41903 50.4526 9.64561C50.2926 9.87218 50.1958 10.1373 50.1725 10.4131C49.9247 10.2958 49.6495 10.248 49.3756 10.275C49.1017 10.3019 48.8393 10.4026 48.6161 10.5663C48.3929 10.73 48.217 10.9507 48.107 11.2053C47.997 11.4599 47.957 11.7389 47.9911 12.013C47.7239 11.9501 47.4442 11.9611 47.1813 12.0446C46.9183 12.1282 46.6819 12.2813 46.4969 12.4877C46.3119 12.6942 46.1851 12.9465 46.1299 13.218C46.0746 13.4895 46.093 13.7702 46.1831 14.0305C45.9083 14.0251 45.6363 14.0943 45.3958 14.2309C45.1553 14.3674 44.9552 14.5663 44.8165 14.8065C44.6778 15.0467 44.6056 15.3195 44.6076 15.596C44.6096 15.8726 44.6857 16.1427 44.8278 16.378C44.5573 16.4302 44.305 16.5546 44.0975 16.7382C43.8899 16.9217 43.7349 17.1577 43.6486 17.4211C43.5623 17.6846 43.5479 17.9659 43.607 18.2354C43.6662 18.5049 43.7965 18.7526 43.9845 18.9525C43.7301 19.06 43.5085 19.2342 43.343 19.4568C43.1776 19.6793 43.0743 19.942 43.0442 20.2172C43.014 20.4924 43.058 20.7699 43.1716 21.0205C43.2852 21.2712 43.4642 21.4857 43.6897 21.6416C43.4625 21.7997 43.2813 22.0161 43.1651 22.268C43.0489 22.5198 43.002 22.7978 43.0293 23.0728C43.0567 23.3477 43.1572 23.6094 43.3205 23.8303C43.4837 24.0512 43.7035 24.2231 43.9569 24.328C43.7669 24.5299 43.6339 24.779 43.5721 25.0491C43.5102 25.3192 43.5217 25.6004 43.6053 25.863C43.6889 26.1256 43.8416 26.3599 44.0473 26.5414C44.253 26.7228 44.504 26.8447 44.774 26.8941C44.6295 27.1308 44.5507 27.4018 44.5458 27.6784C44.541 27.955 44.6104 28.227 44.7467 28.4659C44.883 28.7047 45.0811 28.9015 45.3203 29.0356C45.5594 29.1697 45.8307 29.2361 46.1056 29.2278C46.0129 29.4891 45.9916 29.7701 46.044 30.041C46.0965 30.312 46.2207 30.563 46.4037 30.7676C46.5866 30.9722 46.8215 31.1229 47.0836 31.2038C47.3458 31.2846 47.6255 31.2927 47.8932 31.2271C47.8563 31.5016 47.8936 31.7802 48.001 32.0337C48.1084 32.2871 48.2821 32.5061 48.5037 32.6675C48.7253 32.829 48.9866 32.9269 49.2603 32.951C49.5339 32.9751 49.8097 32.9245 50.0587 32.8045C50.0793 33.0801 50.1733 33.3442 50.3311 33.5692C50.4888 33.7941 50.7042 33.9715 50.9549 34.0827C51.2055 34.1939 51.4819 34.2348 51.7552 34.2011C52.0284 34.1674 52.2883 34.0604 52.5076 33.8912C52.5847 34.1559 52.7315 34.394 52.9326 34.5806C53.1337 34.7672 53.3816 34.8953 53.6503 34.9514C53.9189 35.0075 54.1984 34.9896 54.4593 34.8996C54.7202 34.8095 54.9528 34.6507 55.1328 34.4397C55.2631 34.6819 55.4563 34.8837 55.6919 35.0237C55.9276 35.1638 56.1972 35.237 56.4721 35.2356C56.7471 35.2341 57.0174 35.1582 57.2545 35.0158C57.4917 34.8733 57.6869 34.6695 57.8197 34.426C57.9975 34.6351 58.2285 34.7916 58.4885 34.879C58.7485 34.9664 59.0278 34.9815 59.297 34.9226C59.5663 34.8637 59.8155 34.7331 60.0185 34.5444C60.2215 34.3558 60.3707 34.1161 60.4505 33.8506C60.6681 34.0176 60.9269 34.122 61.1998 34.1529C61.4727 34.1838 61.7496 34.14 62.0014 34.0263C62.2531 33.9125 62.4704 33.7328 62.6304 33.5063C62.7904 33.2797 62.8872 33.0146 62.9106 32.7387C63.1583 32.8562 63.4336 32.904 63.7075 32.8771C63.9814 32.8501 64.2438 32.7495 64.4671 32.5858C64.6903 32.4221 64.8662 32.2014 64.9763 31.9468C65.0863 31.6922 65.1263 31.4132 65.0923 31.1391C65.3594 31.2019 65.6391 31.191 65.902 31.1074C66.165 31.0239 66.4014 30.8708 66.5864 30.6643C66.7715 30.4578 66.8982 30.2056 66.9535 29.9341C67.0087 29.6626 66.9903 29.3819 66.9002 29.1215C67.175 29.1269 67.447 29.0577 67.6875 28.9212C67.928 28.7846 68.1281 28.5858 68.2668 28.3455C68.4055 28.1053 68.4777 27.8326 68.4757 27.556C68.4737 27.2795 68.3976 27.0093 68.2555 26.774C68.526 26.7219 68.7783 26.5974 68.9859 26.4139C69.1934 26.2303 69.3484 25.9944 69.4347 25.7309C69.521 25.4674 69.5354 25.1861 69.4762 24.9166C69.4171 24.6471 69.2867 24.3994 69.0988 24.1995C69.3532 24.092 69.5748 23.9178 69.7403 23.6953C69.9057 23.4727 70.009 23.21 70.0392 22.9349C70.0693 22.6597 70.0253 22.3821 69.9117 22.1315C69.7981 21.8808 69.6191 21.6663 69.3935 21.5104C69.6207 21.3523 69.8019 21.1359 69.9181 20.8841C70.0344 20.6322 70.0813 20.3542 70.0539 20.0793C70.0266 19.8044 69.926 19.5427 69.7628 19.3218C69.5996 19.1009 69.3798 18.929 69.1264 18.824C69.3164 18.6222 69.4494 18.3731 69.5112 18.103C69.5731 17.8328 69.5616 17.5517 69.478 17.2891C69.3944 17.0265 69.2417 16.7921 69.036 16.6106C68.8304 16.4292 68.5793 16.3073 68.3093 16.2579C68.4539 16.0211 68.5327 15.7502 68.5375 15.4736C68.5423 15.197 68.4729 14.925 68.3366 14.6861C68.2004 14.4473 68.0022 14.2505 67.7631 14.1164C67.5239 13.9823 67.2526 13.9159 66.9777 13.9242C67.0704 13.6629 67.0917 13.3819 67.0392 13.111C66.9868 12.84 66.8625 12.589 66.6796 12.3844C66.4966 12.1798 66.2617 12.0292 65.9996 11.9483C65.7375 11.8675 65.4578 11.8594 65.19 11.925C65.2263 11.6506 65.1888 11.3721 65.0814 11.1187C64.9741 10.8653 64.8008 10.6462 64.5797 10.4842Z" fill="#F5FCFC"/>
<path d="M50.314 23.553C55.4988 23.553 59.7019 19.3498 59.7019 14.165C59.7019 8.9802 55.4988 4.77707 50.314 4.77707C45.1292 4.77707 40.926 8.9802 40.926 14.165C40.926 19.3498 45.1292 23.553 50.314 23.553Z" fill="url(#paint34_linear)"/>
<path d="M50.314 23.553C55.4988 23.553 59.7019 19.3498 59.7019 14.165C59.7019 8.9802 55.4988 4.77707 50.314 4.77707C45.1292 4.77707 40.926 8.9802 40.926 14.165C40.926 19.3498 45.1292 23.553 50.314 23.553Z" fill="url(#paint35_linear)"/>
<path d="M50.4896 4.7817C48.0287 4.7359 45.5535 5.6494 43.6757 7.52722C40.0095 11.1934 40.0095 17.1376 43.6757 20.8039C47.342 24.4701 53.286 24.4701 56.9524 20.8039C58.8302 18.9261 59.7435 16.4508 59.6979 13.99L50.4896 4.7817Z" fill="url(#paint36_linear)"/>
<path d="M43.2701 7.96146C40.0168 11.6487 40.1507 17.2784 43.6756 20.8033C47.2005 24.3282 52.8303 24.4622 56.5175 21.2088L43.2701 7.96146Z" fill="url(#paint37_linear)"/>
<path d="M15.6702 58.1966C20.855 58.1966 25.0581 53.9935 25.0581 48.8087C25.0581 43.6238 20.855 39.4207 15.6702 39.4207C10.4854 39.4207 6.28223 43.6238 6.28223 48.8087C6.28223 53.9935 10.4854 58.1966 15.6702 58.1966Z" fill="url(#paint38_linear)"/>
<path d="M8.62632 42.6051C5.37296 46.2923 5.50693 51.922 9.03183 55.4469C12.5569 58.972 18.1865 59.1058 21.8737 55.8524L8.62632 42.6051Z" fill="url(#paint39_linear)"/>
<path d="M60.3387 29.1549C64.6493 29.1549 68.1437 25.6605 68.1437 21.3499C68.1437 17.0393 64.6493 13.5449 60.3387 13.5449C56.0281 13.5449 52.5337 17.0393 52.5337 21.3499C52.5337 25.6605 56.0281 29.1549 60.3387 29.1549Z" fill="url(#paint40_linear)"/>
<path d="M60.3387 29.1549C64.6493 29.1549 68.1437 25.6605 68.1437 21.3499C68.1437 17.0393 64.6493 13.5449 60.3387 13.5449C56.0281 13.5449 52.5337 17.0393 52.5337 21.3499C52.5337 25.6605 56.0281 29.1549 60.3387 29.1549Z" fill="url(#paint41_linear)"/>
<path d="M54.4825 16.1924C51.7777 19.2578 51.889 23.9383 54.8196 26.8689C57.7501 29.7994 62.4306 29.9108 65.4961 27.206L54.4825 16.1924Z" fill="url(#paint42_linear)"/>
<path d="M24.0732 65.4203C29.2581 65.4203 33.4612 61.2172 33.4612 56.0324C33.4612 50.8475 29.2581 46.6444 24.0732 46.6444C18.8884 46.6444 14.6853 50.8475 14.6853 56.0324C14.6853 61.2172 18.8884 65.4203 24.0732 65.4203Z" fill="url(#paint43_linear)"/>
<path d="M17.0294 49.8288C13.776 53.516 13.91 59.1457 17.4349 62.6706C20.9599 66.1957 26.5895 66.3295 30.2767 63.0761L17.0294 49.8288Z" fill="url(#paint44_linear)"/>
<path d="M21.8525 69.0725C23.0131 72.2858 27.2023 72.9622 29.8074 70.3573L69.4826 30.682C72.0877 28.0769 71.4111 23.8879 68.1979 22.7272C55.7587 18.2343 41.155 21.8598 31.0701 31.9447C20.9851 42.0295 17.3596 56.6333 21.8525 69.0725V69.0725Z" fill="url(#paint45_linear)"/>
<path d="M52.1624 21.1972C44.4755 22.3277 36.9933 26.0214 31.07 31.9447C20.9851 42.0296 17.3596 56.6333 21.8525 69.0725C23.0131 72.2856 27.2023 72.9622 29.8074 70.3571L65.5649 34.5996L52.1624 21.1972Z" fill="url(#paint46_linear)"/>
<path d="M4.26103 51.481C1.04774 50.3205 0.371272 46.1313 2.97623 43.5262L42.6514 3.85096C45.2565 1.24586 49.4456 1.92247 50.6063 5.13562C55.0992 17.5748 51.4737 32.1785 41.3888 42.2634C31.3038 52.3484 16.7002 55.974 4.26103 51.481V51.481Z" fill="url(#paint47_linear)"/>
<path d="M14.4974 32.0051L2.9763 43.5262C0.3712 46.1313 1.04781 50.3203 4.26095 51.481C13.1428 54.689 23.1276 53.7571 31.7835 49.2912L14.4974 32.0051Z" fill="url(#paint48_linear)"/>
<path d="M28.6297 21.1867L38.2429 59.1057C38.66 60.7512 38.1802 62.4947 36.9799 63.6951L29.2178 71.4571C27.3281 73.3468 24.2643 73.3468 22.3746 71.4571L1.41727 50.4997C-0.472425 48.61 -0.472425 45.5461 1.41727 43.6564L24.9105 20.1632C26.1275 18.9462 28.2067 19.5183 28.6297 21.1867V21.1867Z" fill="url(#paint49_linear)"/>
<path d="M51.6877 44.2447L13.7687 34.6315C12.1232 34.2144 10.3797 34.6942 9.17932 35.8945L1.41727 43.6564C-0.472425 45.5461 -0.472425 48.61 1.41727 50.4997L22.3747 71.4571C24.2644 73.3468 27.3283 73.3468 29.218 71.4571L52.7112 47.9639C53.9282 46.7469 53.3561 44.6677 51.6877 44.2447V44.2447Z" fill="url(#paint50_linear)"/>
<path d="M9.24287 35.8348C9.22198 35.855 9.19993 35.8738 9.17932 35.8944L1.41727 43.6564C-0.472425 45.5461 -0.472425 48.61 1.41727 50.4997L22.3747 71.4571C24.2644 73.3468 27.3283 73.3468 29.218 71.4571L37.0416 63.6335L9.24287 35.8348Z" fill="url(#paint51_linear)"/>
<path d="M52.7113 47.964C53.9284 46.7469 53.3562 44.6677 51.6878 44.2447L42.4143 41.8937L17.6128 66.6951L22.3748 71.4571C24.2645 73.3468 27.3284 73.3468 29.2181 71.4571L52.7113 47.964Z" fill="url(#paint52_linear)"/>
</g>
<defs>
<linearGradient id="paint0_linear" x1="62.6629" y1="4.67472" x2="59.3707" y2="10.5433" gradientUnits="userSpaceOnUse">
<stop stop-color="#22B27F"/>
<stop offset="1" stop-color="#017B4E"/>
</linearGradient>
<linearGradient id="paint1_linear" x1="30.242" y1="52.607" x2="19.2353" y2="63.6137" gradientUnits="userSpaceOnUse">
<stop stop-color="#FE9738" stop-opacity="0"/>
<stop offset="1" stop-color="#FE7701"/>
</linearGradient>
<linearGradient id="paint2_linear" x1="53.8902" y1="13.148" x2="51.5285" y2="2.55586" gradientUnits="userSpaceOnUse">
<stop stop-color="#017B4E" stop-opacity="0"/>
<stop offset="0.2808" stop-color="#017549" stop-opacity="0.281"/>
<stop offset="1" stop-color="#026841"/>
</linearGradient>
<linearGradient id="paint3_linear" x1="71.5968" y1="27.0723" x2="64.236" y2="19.7114" gradientUnits="userSpaceOnUse">
<stop stop-color="#017B4E" stop-opacity="0"/>
<stop offset="0.2808" stop-color="#017549" stop-opacity="0.281"/>
<stop offset="1" stop-color="#026841"/>
</linearGradient>
<linearGradient id="paint4_linear" x1="60.1486" y1="17.6854" x2="66.1965" y2="24.1997" gradientUnits="userSpaceOnUse">
<stop stop-color="#AE3227"/>
<stop offset="1" stop-color="#5C1100"/>
</linearGradient>
<linearGradient id="paint5_linear" x1="59.9662" y1="17.4889" x2="67.8911" y2="26.0249" gradientUnits="userSpaceOnUse">
<stop stop-color="#790E0E"/>
<stop offset="1" stop-color="#4F0F0F"/>
</linearGradient>
<linearGradient id="paint6_linear" x1="61.3333" y1="18.9614" x2="65.0118" y2="22.9236" gradientUnits="userSpaceOnUse">
<stop stop-color="#790E0E"/>
<stop offset="1" stop-color="#4F0F0F"/>
</linearGradient>
<linearGradient id="paint7_linear" x1="59.9692" y1="22.9078" x2="62.1357" y2="25.2414" gradientUnits="userSpaceOnUse">
<stop stop-color="#790E0E"/>
<stop offset="1" stop-color="#4F0F0F"/>
</linearGradient>
<linearGradient id="paint8_linear" x1="64.2091" y1="16.6435" x2="66.3757" y2="18.9771" gradientUnits="userSpaceOnUse">
<stop stop-color="#790E0E"/>
<stop offset="1" stop-color="#4F0F0F"/>
</linearGradient>
<linearGradient id="paint9_linear" x1="57.968" y1="22.6002" x2="58.346" y2="23.0073" gradientUnits="userSpaceOnUse">
<stop stop-color="#790E0E"/>
<stop offset="1" stop-color="#4F0F0F"/>
</linearGradient>
<linearGradient id="paint10_linear" x1="64.6424" y1="23.1126" x2="65.0194" y2="23.5187" gradientUnits="userSpaceOnUse">
<stop stop-color="#790E0E"/>
<stop offset="1" stop-color="#4F0F0F"/>
</linearGradient>
<linearGradient id="paint11_linear" x1="61.6118" y1="18.3075" x2="61.9898" y2="18.7147" gradientUnits="userSpaceOnUse">
<stop stop-color="#790E0E"/>
<stop offset="1" stop-color="#4F0F0F"/>
</linearGradient>
<linearGradient id="paint12_linear" x1="67.617" y1="18.7591" x2="67.994" y2="19.1651" gradientUnits="userSpaceOnUse">
<stop stop-color="#790E0E"/>
<stop offset="1" stop-color="#4F0F0F"/>
</linearGradient>
<linearGradient id="paint13_linear" x1="62.9058" y1="21.3471" x2="63.2838" y2="21.7543" gradientUnits="userSpaceOnUse">
<stop stop-color="#790E0E"/>
<stop offset="1" stop-color="#4F0F0F"/>
</linearGradient>
<linearGradient id="paint14_linear" x1="56.118" y1="10.0719" x2="62.1659" y2="16.5862" gradientUnits="userSpaceOnUse">
<stop stop-color="#AE3227"/>
<stop offset="1" stop-color="#5C1100"/>
</linearGradient>
<linearGradient id="paint15_linear" x1="55.9357" y1="9.87536" x2="63.8606" y2="18.4114" gradientUnits="userSpaceOnUse">
<stop stop-color="#790E0E"/>
<stop offset="1" stop-color="#4F0F0F"/>
</linearGradient>
<linearGradient id="paint16_linear" x1="57.3027" y1="11.3479" x2="60.9812" y2="15.3101" gradientUnits="userSpaceOnUse">
<stop stop-color="#790E0E"/>
<stop offset="1" stop-color="#4F0F0F"/>
</linearGradient>
<linearGradient id="paint17_linear" x1="55.9387" y1="15.2943" x2="58.1052" y2="17.6279" gradientUnits="userSpaceOnUse">
<stop stop-color="#790E0E"/>
<stop offset="1" stop-color="#4F0F0F"/>
</linearGradient>
<linearGradient id="paint18_linear" x1="60.1786" y1="9.03" x2="62.3452" y2="11.3636" gradientUnits="userSpaceOnUse">
<stop stop-color="#790E0E"/>
<stop offset="1" stop-color="#4F0F0F"/>
</linearGradient>
<linearGradient id="paint19_linear" x1="53.9375" y1="14.9867" x2="54.3155" y2="15.3939" gradientUnits="userSpaceOnUse">
<stop stop-color="#790E0E"/>
<stop offset="1" stop-color="#4F0F0F"/>
</linearGradient>
<linearGradient id="paint20_linear" x1="60.6119" y1="15.4991" x2="60.9889" y2="15.9052" gradientUnits="userSpaceOnUse">
<stop stop-color="#790E0E"/>
<stop offset="1" stop-color="#4F0F0F"/>
</linearGradient>
<linearGradient id="paint21_linear" x1="57.5813" y1="10.694" x2="57.9593" y2="11.1012" gradientUnits="userSpaceOnUse">
<stop stop-color="#790E0E"/>
<stop offset="1" stop-color="#4F0F0F"/>
</linearGradient>
<linearGradient id="paint22_linear" x1="63.5865" y1="11.1456" x2="63.9635" y2="11.5517" gradientUnits="userSpaceOnUse">
<stop stop-color="#790E0E"/>
<stop offset="1" stop-color="#4F0F0F"/>
</linearGradient>
<linearGradient id="paint23_linear" x1="58.8753" y1="13.7336" x2="59.2533" y2="14.1408" gradientUnits="userSpaceOnUse">
<stop stop-color="#790E0E"/>
<stop offset="1" stop-color="#4F0F0F"/>
</linearGradient>
<linearGradient id="paint24_linear" x1="44.4738" y1="6.48911" x2="50.5216" y2="13.0034" gradientUnits="userSpaceOnUse">
<stop stop-color="#AE3227"/>
<stop offset="1" stop-color="#5C1100"/>
</linearGradient>
<linearGradient id="paint25_linear" x1="44.2914" y1="6.29257" x2="52.2163" y2="14.8286" gradientUnits="userSpaceOnUse">
<stop stop-color="#790E0E"/>
<stop offset="1" stop-color="#4F0F0F"/>
</linearGradient>
<linearGradient id="paint26_linear" x1="45.6584" y1="7.76508" x2="49.337" y2="11.7273" gradientUnits="userSpaceOnUse">
<stop stop-color="#790E0E"/>
<stop offset="1" stop-color="#4F0F0F"/>
</linearGradient>
<linearGradient id="paint27_linear" x1="44.2944" y1="11.7115" x2="46.4609" y2="14.0451" gradientUnits="userSpaceOnUse">
<stop stop-color="#790E0E"/>
<stop offset="1" stop-color="#4F0F0F"/>
</linearGradient>
<linearGradient id="paint28_linear" x1="48.5343" y1="5.4472" x2="50.7009" y2="7.78081" gradientUnits="userSpaceOnUse">
<stop stop-color="#790E0E"/>
<stop offset="1" stop-color="#4F0F0F"/>
</linearGradient>
<linearGradient id="paint29_linear" x1="42.2932" y1="11.4039" x2="42.6712" y2="11.8111" gradientUnits="userSpaceOnUse">
<stop stop-color="#790E0E"/>
<stop offset="1" stop-color="#4F0F0F"/>
</linearGradient>
<linearGradient id="paint30_linear" x1="48.9676" y1="11.9163" x2="49.3446" y2="12.3224" gradientUnits="userSpaceOnUse">
<stop stop-color="#790E0E"/>
<stop offset="1" stop-color="#4F0F0F"/>
</linearGradient>
<linearGradient id="paint31_linear" x1="45.937" y1="7.11122" x2="46.315" y2="7.51837" gradientUnits="userSpaceOnUse">
<stop stop-color="#790E0E"/>
<stop offset="1" stop-color="#4F0F0F"/>
</linearGradient>
<linearGradient id="paint32_linear" x1="51.9422" y1="7.56279" x2="52.3192" y2="7.96886" gradientUnits="userSpaceOnUse">
<stop stop-color="#790E0E"/>
<stop offset="1" stop-color="#4F0F0F"/>
</linearGradient>
<linearGradient id="paint33_linear" x1="47.231" y1="10.1508" x2="47.609" y2="10.558" gradientUnits="userSpaceOnUse">
<stop stop-color="#790E0E"/>
<stop offset="1" stop-color="#4F0F0F"/>
</linearGradient>
<linearGradient id="paint34_linear" x1="50.3245" y1="4.43151" x2="50.3245" y2="19.4991" gradientUnits="userSpaceOnUse">
<stop stop-color="#FE646F"/>
<stop offset="1" stop-color="#FB2B3A"/>
</linearGradient>
<linearGradient id="paint35_linear" x1="48.6446" y1="10.121" x2="50.6748" y2="14.962" gradientUnits="userSpaceOnUse">
<stop stop-color="#C0272D" stop-opacity="0"/>
<stop offset="1" stop-color="#C0272D"/>
</linearGradient>
<linearGradient id="paint36_linear" x1="54.7068" y1="20.4169" x2="41.5014" y2="7.2116" gradientUnits="userSpaceOnUse">
<stop stop-color="#C0272D" stop-opacity="0"/>
<stop offset="1" stop-color="#C0272D"/>
</linearGradient>
<linearGradient id="paint37_linear" x1="48.9576" y1="15.4948" x2="43.9566" y2="20.4958" gradientUnits="userSpaceOnUse">
<stop stop-color="#C0272D" stop-opacity="0"/>
<stop offset="1" stop-color="#C0272D"/>
</linearGradient>
<linearGradient id="paint38_linear" x1="15.6859" y1="39.07" x2="15.6859" y2="54.1376" gradientUnits="userSpaceOnUse">
<stop stop-color="#FE646F"/>
<stop offset="1" stop-color="#FB2B3A"/>
</linearGradient>
<linearGradient id="paint39_linear" x1="22.321" y1="42.1313" x2="11.142" y2="53.3103" gradientUnits="userSpaceOnUse">
<stop stop-color="#C0272D" stop-opacity="0"/>
<stop offset="1" stop-color="#C0272D"/>
</linearGradient>
<linearGradient id="paint40_linear" x1="60.3462" y1="13.7996" x2="60.3462" y2="20.596" gradientUnits="userSpaceOnUse">
<stop stop-color="#FE646F"/>
<stop offset="1" stop-color="#FB2B3A"/>
</linearGradient>
<linearGradient id="paint41_linear" x1="60.3466" y1="18.9641" x2="60.3466" y2="23.929" gradientUnits="userSpaceOnUse">
<stop stop-color="#C0272D" stop-opacity="0"/>
<stop offset="1" stop-color="#C0272D"/>
</linearGradient>
<linearGradient id="paint42_linear" x1="59.2097" y1="22.4547" x2="55.052" y2="26.6125" gradientUnits="userSpaceOnUse">
<stop stop-color="#C0272D" stop-opacity="0"/>
<stop offset="1" stop-color="#C0272D"/>
</linearGradient>
<linearGradient id="paint43_linear" x1="24.0878" y1="46.2925" x2="24.0878" y2="61.36" gradientUnits="userSpaceOnUse">
<stop stop-color="#FE646F"/>
<stop offset="1" stop-color="#FB2B3A"/>
</linearGradient>
<linearGradient id="paint44_linear" x1="22.7208" y1="57.3557" x2="17.7198" y2="62.3567" gradientUnits="userSpaceOnUse">
<stop stop-color="#C0272D" stop-opacity="0"/>
<stop offset="1" stop-color="#C0272D"/>
</linearGradient>
<linearGradient id="paint45_linear" x1="32.4126" y1="33.2873" x2="47.2396" y2="48.1143" gradientUnits="userSpaceOnUse">
<stop stop-color="#FFE177"/>
<stop offset="0.207" stop-color="#FFD970"/>
<stop offset="0.5288" stop-color="#FFC35E"/>
<stop offset="0.9233" stop-color="#FE9F3F"/>
<stop offset="1" stop-color="#FE9738"/>
</linearGradient>
<linearGradient id="paint46_linear" x1="51.8852" y1="53.2909" x2="37.4761" y2="46.0385" gradientUnits="userSpaceOnUse">
<stop stop-color="#FE9738" stop-opacity="0"/>
<stop offset="0.6162" stop-color="#FE8113" stop-opacity="0.616"/>
<stop offset="1" stop-color="#FE7701"/>
</linearGradient>
<linearGradient id="paint47_linear" x1="23.538" y1="24.4128" x2="37.9747" y2="38.8495" gradientUnits="userSpaceOnUse">
<stop stop-color="#FFE177"/>
<stop offset="0.207" stop-color="#FFD970"/>
<stop offset="0.5288" stop-color="#FFC35E"/>
<stop offset="0.9233" stop-color="#FE9F3F"/>
<stop offset="1" stop-color="#FE9738"/>
</linearGradient>
<linearGradient id="paint48_linear" x1="20.9933" y1="42.7689" x2="8.40096" y2="55.3612" gradientUnits="userSpaceOnUse">
<stop stop-color="#FE9738" stop-opacity="0"/>
<stop offset="1" stop-color="#FE7701"/>
</linearGradient>
<linearGradient id="paint49_linear" x1="26.9901" y1="29.3279" x2="23.6586" y2="39.7386" gradientUnits="userSpaceOnUse">
<stop stop-color="#EDF5FF"/>
<stop offset="1" stop-color="#C7E9FF"/>
</linearGradient>
<linearGradient id="paint50_linear" x1="16.3697" y1="36.9662" x2="34.137" y2="54.7334" gradientUnits="userSpaceOnUse">
<stop stop-color="#EDF5FF"/>
<stop offset="1" stop-color="#C7E9FF"/>
</linearGradient>
<linearGradient id="paint51_linear" x1="19.6186" y1="53.2559" x2="9.80082" y2="63.0736" gradientUnits="userSpaceOnUse">
<stop stop-color="#7BACDF" stop-opacity="0"/>
<stop offset="1" stop-color="#7BACDF"/>
</linearGradient>
<linearGradient id="paint52_linear" x1="34.0744" y1="54.6707" x2="41.8051" y2="62.4016" gradientUnits="userSpaceOnUse">
<stop stop-color="#7BACDF" stop-opacity="0"/>
<stop offset="1" stop-color="#7BACDF"/>
</linearGradient>
<clipPath id="clip0">
<rect width="73" height="73" fill="white"/>
</clipPath>
<clipPath id="clip1">
<rect width="17.0403" height="14.2223" fill="white" transform="translate(52.8464 22.3424) rotate(-42.8737)"/>
</clipPath>
<clipPath id="clip2">
<rect width="17.0403" height="14.2223" fill="white" transform="translate(48.8159 14.7289) rotate(-42.8737)"/>
</clipPath>
<clipPath id="clip3">
<rect width="17.0403" height="14.2223" fill="white" transform="translate(37.1716 11.1461) rotate(-42.8737)"/>
</clipPath>
</defs>
</svg>
