<svg width="82" height="82" viewBox="0 0 82 82" fill="none" xmlns="http://www.w3.org/2000/svg">
<g clip-path="url(#clip0)">
<path d="M27.3669 12.9549L33.878 18.0218L30.4057 22.4838L23.8947 17.4168L27.3669 12.9549Z" fill="#95A5A5"/>
<path d="M74.3062 81.9999H7.69391C6.47529 82.0014 5.39279 81.222 5.00771 80.0658L2.82764 73.5172L41 70.6896L79.1725 73.5172L76.9896 80.0658C76.6048 81.221 75.5238 82.0002 74.3062 81.9999Z" fill="#2FA8CC"/>
<path d="M57.9795 36.7586H73.5171C75.0768 36.7632 76.34 38.0265 76.3447 39.5862V67.862H5.65503V39.5862C5.65969 38.0265 6.92292 36.7632 8.48262 36.7586H57.9795Z" fill="#FFDC4D"/>
<path d="M59.0823 39.4024L58.2199 40.5193C56.8402 42.2969 54.8108 43.4535 52.5782 43.7345C50.3457 44.0156 48.0929 43.3981 46.3157 42.0179L43.8275 40.081V38.1724C43.8275 37.3916 43.1945 36.7586 42.4137 36.7586H39.5578L28.4595 28.1204C27.8647 27.6641 27.4774 26.9884 27.3844 26.2445C27.2915 25.5006 27.5005 24.7504 27.9647 24.1617L33.1675 17.4604L57.9795 36.7586L58.8278 37.4231C59.1257 37.6507 59.3202 37.9879 59.368 38.3597C59.4158 38.7315 59.3129 39.1069 59.0823 39.4024Z" fill="#BDC3C7"/>
<path d="M11.1072 0.304593L28.0926 13.5227L23.7523 19.1001C23.2729 19.7162 22.3848 19.8269 21.7687 19.3475L8.12973 8.73363C6.28154 7.29536 5.94923 4.63116 7.38749 2.78297L9.12363 0.552006C9.60305 -0.0640579 10.4911 -0.174829 11.1072 0.304593Z" fill="#35495E"/>
<path d="M14.1379 43.8276H11.3103C10.5295 43.8276 9.89648 43.1946 9.89648 42.4138C9.89648 41.633 10.5295 41 11.3103 41H14.1379C14.9187 41 15.5517 41.633 15.5517 42.4138C15.5517 43.1946 14.9187 43.8276 14.1379 43.8276Z" fill="#FFFADB"/>
<path d="M36.7587 43.8276H19.7932C19.0124 43.8276 18.3794 43.1946 18.3794 42.4138C18.3794 41.633 19.0124 41 19.7932 41H36.7587C37.5395 41 38.1725 41.633 38.1725 42.4138C38.1725 43.1946 37.5395 43.8276 36.7587 43.8276Z" fill="#FFFADB"/>
<path d="M5.65503 63.6207H76.3447V69.2759H5.65503V63.6207Z" fill="#E4BA17"/>
<path d="M0 67.862H82V70.6896C82 72.2513 80.734 73.5172 79.1724 73.5172H2.82759C1.26595 73.5172 0 72.2513 0 70.6896V67.862Z" fill="#67B9CC"/>
</g>
<defs>
<clipPath id="clip0">
<rect width="82" height="82" fill="white"/>
</clipPath>
</defs>
</svg>
