<svg width="62" height="87" viewBox="0 0 62 87" fill="none" xmlns="http://www.w3.org/2000/svg">
<g clip-path="url(#clip0)">
<path d="M47.4844 49.3125V43.5C47.4844 41.895 46.1833 40.5938 44.5781 40.5938H9.70312C8.09797 40.5938 6.79688 41.895 6.79688 43.5V49.3125C3.58674 49.3125 0.984375 51.9149 0.984375 55.125V81.2812C0.984375 84.4914 3.58674 87.0938 6.79688 87.0938H47.4844C50.6945 87.0938 53.2969 84.4914 53.2969 81.2812V55.125C53.2969 51.9149 50.6945 49.3125 47.4844 49.3125Z" fill="#9BD2F0"/>
<path d="M47.4844 49.3125V43.5H28.5938C27.7913 43.5 27.1406 44.1506 27.1406 44.9531V49.3125H47.4844Z" fill="#50C3EB"/>
<path d="M27.1406 81.2812H0.984375C0.984375 84.4914 3.58674 87.0938 6.79688 87.0938H47.4844C50.6945 87.0938 53.2969 84.4914 53.2969 81.2812V55.125H28.5938C27.7913 55.125 27.1406 55.7756 27.1406 56.5781V81.2812Z" fill="#50C3EB"/>
<path d="M0.984375 63.8438V81.2812C0.984375 84.4914 3.58674 87.0938 6.79688 87.0938H47.4844C50.6945 87.0938 53.2969 84.4914 53.2969 81.2812V63.8438H0.984375Z" fill="#FAA037"/>
<path d="M27.1406 63.8438V81.2812H0.984375C0.984375 84.4914 3.58674 87.0938 6.79688 87.0938H47.4844C50.6945 87.0938 53.2969 84.4914 53.2969 81.2812V63.8438H27.1406Z" fill="#F57828"/>
<path d="M62.0156 5.71875H42.5187C41.3974 3.15308 38.8385 1.35938 35.8594 1.35938V15.8906C38.8385 15.8906 41.3974 14.0969 42.5187 11.5312H62.0156V5.71875Z" fill="#96AAB9"/>
<path d="M34.4062 17.3438H19.875C15.0597 17.3438 11.1562 13.4403 11.1562 8.625C11.1562 3.80971 15.0597 -0.09375 19.875 -0.09375H34.4062C35.2087 -0.09375 35.8594 0.556887 35.8594 1.35938V15.8906C35.8594 16.6931 35.2087 17.3438 34.4062 17.3438Z" fill="#F57828"/>
<path d="M34.4062 -0.09375H19.875C15.0675 -0.09375 11.1562 3.81752 11.1562 8.625C11.1562 9.42749 11.8069 10.0781 12.6094 10.0781C13.4119 10.0781 14.0625 9.42749 14.0625 8.625C14.0625 5.41995 16.67 2.8125 19.875 2.8125H35.8594V1.35938C35.8594 0.556887 35.2087 -0.09375 34.4062 -0.09375Z" fill="#FFBE55"/>
<path d="M30.0469 40.5938V21.7031C30.0469 19.2955 31.9986 17.3438 34.4062 17.3438H27.1406V40.5938H30.0469Z" fill="#F57828"/>
<path d="M24.2344 21.7031V40.5938H27.1406V17.3438H19.875C22.2826 17.3438 24.2344 19.2955 24.2344 21.7031Z" fill="#FFBE55"/>
<path d="M27.1406 40.5938H24.2344V63.8438H27.1406H30.0469V40.5938H27.1406Z" fill="#FAA037"/>
<path d="M27.1406 49.3125H30.0469V43.5H28.5938C27.7913 43.5 27.1406 44.1506 27.1406 44.9531V49.3125Z" fill="#F57828"/>
<path d="M27.1406 63.8438H30.0469V55.125H28.5938C27.7913 55.125 27.1406 55.7756 27.1406 56.5781V63.8438Z" fill="#F57828"/>
<path d="M11.1562 43.5C10.3538 43.5 9.70312 44.1506 9.70312 44.9531V49.3125H12.6094V44.9531C12.6094 44.1506 11.9587 43.5 11.1562 43.5Z" fill="#D7E6E6"/>
<path d="M5.34375 53.6719C4.54126 53.6719 3.89062 54.3225 3.89062 55.125V63.8438H6.79688V55.125C6.79688 54.3225 6.14624 53.6719 5.34375 53.6719Z" fill="#D7E6E6"/>
<path d="M3.89062 63.8438H6.79688V81.2812H3.89062V63.8438Z" fill="#FFBE55"/>
</g>
<defs>
<clipPath id="clip0">
<rect width="62" height="87" fill="white"/>
</clipPath>
</defs>
</svg>
