<svg width="86" height="55" viewBox="0 0 86 55" fill="none" xmlns="http://www.w3.org/2000/svg">
<path d="M71.2188 33.875H14.7812C11.8127 33.875 9.40625 36.3039 9.40625 39.3C9.40625 42.2961 11.8127 44.725 14.7812 44.725H71.2188C74.1873 44.725 76.5938 42.2961 76.5938 39.3C76.5938 36.3039 74.1873 33.875 71.2188 33.875Z" fill="#FFCC81"/>
<path d="M41.6562 33.875V35.2312C41.6563 36.3103 42.081 37.3452 42.837 38.1083C43.593 38.8713 44.6183 39.3 45.6875 39.3C46.7567 39.3 47.782 38.8713 48.538 38.1083C49.294 37.3452 49.7188 36.3103 49.7188 35.2312V33.875H41.6562Z" fill="#FFBD5C"/>
<path d="M71.2188 23.025H14.7812C11.8127 23.025 9.40625 25.4539 9.40625 28.45C9.40625 31.4461 11.8127 33.875 14.7812 33.875H71.2188C74.1873 33.875 76.5938 31.4461 76.5938 28.45C76.5938 25.4539 74.1873 23.025 71.2188 23.025Z" fill="#FFCC81"/>
<path d="M41.6562 23.025H49.7188V33.875H41.6562V23.025Z" fill="#FFBD5C"/>
<path d="M60.4688 23.025V24.3813C60.4688 25.4604 60.8935 26.4953 61.6495 27.2583C62.4055 28.0213 63.4308 28.45 64.5 28.45C65.5692 28.45 66.5945 28.0213 67.3505 27.2583C68.1065 26.4953 68.5312 25.4604 68.5312 24.3813V23.025H60.4688Z" fill="#FFBD5C"/>
<path d="M71.2188 12.175H14.7812C11.8127 12.175 9.40625 14.6039 9.40625 17.6C9.40625 20.5961 11.8127 23.025 14.7812 23.025H71.2188C74.1873 23.025 76.5938 20.5961 76.5938 17.6C76.5938 14.6039 74.1873 12.175 71.2188 12.175Z" fill="#FFCC81"/>
<path d="M41.6562 17.6V23.025H49.7188V17.6C49.7188 16.1612 50.285 14.7813 51.2931 13.7639C52.3011 12.7466 53.6682 12.175 55.0938 12.175H36.2812C37.7068 12.175 39.0739 12.7466 40.0819 13.7639C41.09 14.7813 41.6562 16.1612 41.6562 17.6Z" fill="#FFBD5C"/>
<path d="M22.8438 17.6V21.6688C22.8481 22.1318 22.9317 22.5907 23.091 23.025H30.659C30.8183 22.5907 30.9019 22.1318 30.9062 21.6688V17.6C30.9062 16.1612 31.4725 14.7813 32.4806 13.7639C33.4886 12.7466 34.8557 12.175 36.2812 12.175H17.4688C18.8943 12.175 20.2614 12.7466 21.2694 13.7639C22.2775 14.7813 22.8438 16.1612 22.8438 17.6V17.6Z" fill="#FFBD5C"/>
<path d="M71.2188 12.175H55.0938C56.5193 12.175 57.8864 12.7466 58.8944 13.7639C59.9025 14.7813 60.4688 16.1612 60.4688 17.6V23.025H68.5312V17.6C68.5333 16.4 68.9304 15.2348 69.6602 14.2874C70.3899 13.34 71.4108 12.6642 72.5625 12.3662C72.1245 12.2451 71.6729 12.1809 71.2188 12.175V12.175Z" fill="#FFBD5C"/>
<path d="M12.0939 20.3125C12.0939 18.8737 12.6602 17.4938 13.6682 16.4764C14.6762 15.4591 16.0434 14.8875 17.4689 14.8875H73.9064C74.6672 14.8894 75.4186 15.0559 76.1102 15.3757C75.6871 14.4233 75.0004 13.6145 74.1327 13.0467C73.2649 12.4789 72.2531 12.1762 71.2189 12.175H14.7814C13.5523 12.1735 12.3598 12.5978 11.4033 13.377C10.4469 14.1562 9.78429 15.2431 9.52631 16.456C9.26833 17.669 9.43059 18.9346 9.98597 20.0413C10.5413 21.1481 11.4562 22.0289 12.5777 22.5367C12.2608 21.8387 12.0959 21.0803 12.0939 20.3125V20.3125Z" fill="#FFD79D"/>
<path d="M22.098 14.8875H31.652C32.1197 14.0649 32.7938 13.3812 33.6064 12.905C34.4191 12.4289 35.3416 12.1771 36.2812 12.175H17.4688C18.4084 12.1771 19.3309 12.4289 20.1436 12.905C20.9562 13.3812 21.6303 14.0649 22.098 14.8875Z" fill="#FFCC81"/>
<path d="M40.9105 14.8875H50.4645C50.9322 14.0649 51.6063 13.3812 52.4189 12.905C53.2316 12.4289 54.1541 12.1771 55.0938 12.175H36.2812C37.2209 12.1771 38.1434 12.4289 38.9561 12.905C39.7687 13.3812 40.4428 14.0649 40.9105 14.8875Z" fill="#FFCC81"/>
<path d="M59.723 14.8875H69.2636C69.6223 14.269 70.0982 13.7279 70.6643 13.2953C71.2304 12.8627 71.8754 12.547 72.5625 12.3662C72.1245 12.2451 71.6729 12.1809 71.2188 12.175H55.0938C56.0334 12.1771 56.9559 12.4289 57.7686 12.905C58.5812 13.3812 59.2553 14.0649 59.723 14.8875V14.8875Z" fill="#FFCC81"/>
<path d="M12.0939 31.1625C12.0939 29.7237 12.6602 28.3438 13.6682 27.3264C14.6762 26.3091 16.0434 25.7375 17.4689 25.7375H73.9064C74.6672 25.7394 75.4186 25.9059 76.1102 26.2258C75.6871 25.2733 75.0004 24.4645 74.1327 23.8967C73.2649 23.3289 72.2531 23.0262 71.2189 23.025H14.7814C13.5523 23.0235 12.3598 23.4478 11.4033 24.227C10.4469 25.0062 9.78429 26.0931 9.52631 27.306C9.26833 28.519 9.43059 29.7846 9.98597 30.8913C10.5413 31.9981 11.4562 32.8789 12.5777 33.3867C12.2608 32.6887 12.0959 31.9303 12.0939 31.1625Z" fill="#FFD79D"/>
<path d="M60.716 25.7375H68.284C68.4433 25.3032 68.5269 24.8443 68.5312 24.3813V23.025H60.4688V24.3813C60.4731 24.8443 60.5567 25.3032 60.716 25.7375V25.7375Z" fill="#FFCC81"/>
<path d="M26.8753 25.7375C27.7066 25.736 28.5169 25.4743 29.1946 24.9885C29.8723 24.5027 30.3841 23.8167 30.6593 23.025H23.0913C23.3665 23.8167 23.8783 24.5027 24.556 24.9885C25.2337 25.4743 26.0441 25.736 26.8753 25.7375V25.7375Z" fill="#FFCC81"/>
<path d="M41.6562 23.025H49.7188V25.7375H41.6562V23.025Z" fill="#FFCC81"/>
<path d="M12.0939 42.0125C12.0939 40.5737 12.6602 39.1938 13.6682 38.1764C14.6762 37.1591 16.0434 36.5875 17.4689 36.5875H73.9064C74.6672 36.5894 75.4186 36.7559 76.1102 37.0758C75.6871 36.1233 75.0004 35.3145 74.1327 34.7467C73.2649 34.1789 72.2531 33.8762 71.2189 33.875H14.7814C13.5523 33.8735 12.3598 34.2978 11.4033 35.077C10.4469 35.8562 9.78429 36.9431 9.52631 38.156C9.26833 39.369 9.43059 40.6346 9.98597 41.7413C10.5413 42.8481 11.4562 43.7289 12.5777 44.2367C12.2608 43.5387 12.0959 42.7803 12.0939 42.0125Z" fill="#FFD79D"/>
<path d="M41.9035 36.5875H49.4715C49.6308 36.1532 49.7144 35.6943 49.7188 35.2312V33.875H41.6562V35.2312C41.6606 35.6943 41.7442 36.1532 41.9035 36.5875V36.5875Z" fill="#FFCC81"/>
<path d="M9.40625 6.75C9.40625 8.1888 9.97254 9.56866 10.9806 10.586C11.9886 11.6034 13.3557 12.175 14.7812 12.175C16.2068 12.175 17.5739 12.7466 18.5819 13.7639C19.59 14.7813 20.1562 16.1612 20.1562 17.6V21.6687C20.1562 22.7478 20.581 23.7827 21.337 24.5458C22.093 25.3088 23.1183 25.7375 24.1875 25.7375C25.2567 25.7375 26.282 25.3088 27.038 24.5458C27.794 23.7827 28.2187 22.7478 28.2188 21.6687V17.6C28.2188 16.1612 28.785 14.7813 29.7931 13.7639C30.8011 12.7466 32.1682 12.175 33.5938 12.175C35.0193 12.175 36.3864 12.7466 37.3944 13.7639C38.4025 14.7813 38.9688 16.1612 38.9688 17.6V35.2312C38.9688 36.3103 39.3935 37.3452 40.1495 38.1083C40.9055 38.8713 41.9308 39.3 43 39.3C44.0692 39.3 45.0945 38.8713 45.8505 38.1083C46.6065 37.3452 47.0312 36.3103 47.0312 35.2312V17.6C47.0312 16.1612 47.5975 14.7813 48.6056 13.7639C49.6136 12.7466 50.9807 12.175 52.4062 12.175C53.8318 12.175 55.1989 12.7466 56.2069 13.7639C57.215 14.7813 57.7812 16.1612 57.7812 17.6V24.3812C57.7812 25.4603 58.206 26.4952 58.962 27.2583C59.718 28.0213 60.7433 28.45 61.8125 28.45C62.8817 28.45 63.907 28.0213 64.663 27.2583C65.419 26.4952 65.8438 25.4603 65.8438 24.3812V17.6C65.8438 16.1612 66.41 14.7813 67.4181 13.7639C68.4261 12.7466 69.7932 12.175 71.2188 12.175C72.6443 12.175 74.0114 11.6034 75.0194 10.586C76.0275 9.56866 76.5938 8.1888 76.5938 6.75C76.5938 5.3112 76.0275 3.93133 75.0194 2.91394C74.0114 1.89656 72.6443 1.325 71.2188 1.325H14.7812C13.3557 1.325 11.9886 1.89656 10.9806 2.91394C9.97254 3.93133 9.40625 5.3112 9.40625 6.75V6.75Z" fill="#FFAA2D"/>
<path d="M77.9375 44.725H8.0625C8.84515 47.0947 10.3467 49.1558 12.3545 50.6163C14.3622 52.0767 16.7744 52.8626 19.2492 52.8625H66.7508C69.2256 52.8626 71.6378 52.0767 73.6456 50.6163C75.6533 49.1558 77.1549 47.0947 77.9375 44.725Z" fill="#D4E6FF"/>
<path d="M75.5831 48.7938C76.2989 47.9769 76.8994 47.0641 77.3676 46.0813H8.63208C9.10021 47.0641 9.70072 47.9769 10.4166 48.7938H75.5831Z" fill="#CDDEF6"/>
<path d="M80.625 46.0812H5.375C5.01862 46.0812 4.67683 45.9384 4.42483 45.684C4.17282 45.4297 4.03125 45.0847 4.03125 44.725C4.03125 44.3653 4.17282 44.0203 4.42483 43.766C4.67683 43.5116 5.01862 43.3687 5.375 43.3687H80.625C80.9814 43.3687 81.3232 43.5116 81.5752 43.766C81.8272 44.0203 81.9688 44.3653 81.9688 44.725C81.9688 45.0847 81.8272 45.4297 81.5752 45.684C81.3232 45.9384 80.9814 46.0812 80.625 46.0812Z" fill="#E2EEFF"/>
<path d="M12.0939 9.46248C12.0939 8.02368 12.6602 6.64381 13.6682 5.62643C14.6762 4.60904 16.0434 4.03748 17.4689 4.03748H73.9064C74.6672 4.03942 75.4186 4.20591 76.1102 4.52573C75.6871 3.5733 75.0004 2.76452 74.1327 2.19669C73.2649 1.62886 72.2531 1.32615 71.2189 1.32499H14.7814C13.5523 1.3235 12.3598 1.74781 11.4033 2.52699C10.4469 3.30618 9.78429 4.39306 9.52631 5.60603C9.26833 6.819 9.43059 8.08458 9.98597 9.19132C10.5413 10.2981 11.4562 11.1789 12.5777 11.6867C12.2608 10.9887 12.0959 10.2303 12.0939 9.46248Z" fill="#FFBD5C"/>
</svg>
