<svg width="52" height="92" viewBox="0 0 52 92" fill="none" xmlns="http://www.w3.org/2000/svg">
<g clip-path="url(#clip0)">
<path d="M26.1136 91.4839L25.8518 92H35.2053C35.6491 92 36.0299 91.683 36.1102 91.2466L38.2546 79.5974L37.688 79.9097L26.1136 91.4839Z" fill="#D88A55"/>
<path d="M31.0992 62.9533L32.3237 61.4747H26.0147L24.9759 62.2592L13.0837 74.1515L12.1633 75.3259L13.1442 80.6542L14.6317 79.4206L31.0992 62.9533Z" fill="#D88A55"/>
<path d="M36.1353 61.4747L35.1864 62.1695L14.2589 83.0968L13.7366 83.8733L14.7175 89.2017L15.6508 88.5225L40.4779 63.6954L41.3973 62.5217L41.5901 61.4747H36.1353Z" fill="#D88A55"/>
<path d="M21.7441 62.1877L22.203 61.4747H9.61377L11.5707 72.1068L12.4787 71.4529L21.7441 62.1877Z" fill="#D88A55"/>
<path d="M16.4101 91.0667L15.7646 91.9662C15.8401 91.9862 15.9177 92 15.9988 92H22.0399L22.7168 91.5772L38.6434 75.6506L39.1141 74.9257L40.5374 67.1932L39.5028 67.9738L16.4101 91.0667Z" fill="#D88A55"/>
<path d="M22.8297 91.2466L17.3825 61.6544H9.64673L15.094 91.2466C15.1743 91.683 15.5549 92 15.9989 92H23.7346C23.2908 92 22.91 91.683 22.8297 91.2466V91.2466Z" fill="#C57A44"/>
<path d="M22.2031 61.4747L11.5708 72.1068L12.1634 75.3259L26.0148 61.4747H22.2031Z" fill="#EA9B58"/>
<path d="M32.3238 61.4747L13.1443 80.6542L13.7367 83.8733L36.1355 61.4747H32.3238Z" fill="#F6A96C"/>
<path d="M41.3973 62.5217L14.7173 89.2016L15.0937 91.2464C15.1595 91.6033 15.427 91.8769 15.7645 91.9661L40.5373 67.1932L41.3973 62.5217Z" fill="#EA9B58"/>
<path d="M25.8517 92L38.2543 79.5974L39.1141 74.9259L22.04 92H25.8517Z" fill="#F6A96C"/>
<path d="M43.8343 54.6572H8.16566C7.58778 54.6572 7.02788 54.5797 6.49438 54.4369V60.7344C6.49438 61.2425 6.90623 61.6544 7.41438 61.6544H44.5853C45.0934 61.6544 45.5053 61.2425 45.5053 60.7344V54.4369C44.9721 54.5797 44.4122 54.6572 43.8343 54.6572V54.6572Z" fill="#F6A96C"/>
<path d="M14.1196 54.6572H37.881V61.6544H14.1196V54.6572Z" fill="#EA9B58"/>
<path d="M22.0991 54.6572H29.9013V61.6544H22.0991V54.6572Z" fill="#F6A96C"/>
<path d="M16.4063 18.1179H35.5935C35.6722 18.1179 35.7502 18.1211 35.8283 18.1238C35.8345 17.9806 35.8395 17.8369 35.8395 17.6922C35.8395 14.8925 34.6683 12.3679 32.7913 10.576C34.0566 5.1538 28.6858 -2.6105 28.0538 0.864836C27.6297 3.197 25.3777 5.64991 23.5406 7.31328C22.6964 8.07767 21.7665 8.73497 20.8002 9.33746C17.9011 11.1455 16.0122 14.4203 16.1704 18.1238C16.2491 18.1211 16.3274 18.1179 16.4063 18.1179Z" fill="#FFE5C2"/>
<path d="M16.4065 17.9382H22.0742C22.5624 15.1317 24.2394 12.7334 26.5678 11.2813C27.534 10.6786 28.464 10.0214 29.308 9.25714C30.3876 8.27964 31.6102 7.02937 32.5212 5.69124C31.3834 1.6454 28.5061 -1.62132 28.054 0.865195C27.6299 3.19736 25.3779 5.65027 23.5408 7.31364C22.6966 8.07785 21.7667 8.73533 20.8005 9.33782C17.9484 11.1165 16.074 14.315 16.1648 17.9447C16.2453 17.9414 16.3254 17.9382 16.4065 17.9382Z" fill="#FED2A4"/>
<path d="M12.4777 29.9255H39.5219C41.1643 28.7133 42.2352 26.7661 42.2352 24.58C42.2352 20.9269 39.2465 17.9382 35.5934 17.9382H16.4062C12.7533 17.9382 9.7644 20.9269 9.7644 24.58C9.76458 26.7659 10.8353 28.7133 12.4777 29.9255V29.9255Z" fill="#FFF3DE"/>
<path d="M12.2457 29.7458H19.966C18.4557 28.5258 17.4847 26.6611 17.4847 24.58C17.4847 20.9269 20.4734 17.9382 24.1265 17.9382H16.4062C12.7531 17.9382 9.7644 20.9269 9.7644 24.58C9.76458 26.6611 10.7354 28.5256 12.2457 29.7458Z" fill="#FFE5C2"/>
<path d="M7.81752 41.7427C7.93288 41.7366 8.04877 41.733 8.16557 41.733H43.8343C43.9511 41.733 44.067 41.7364 44.1823 41.7427C45.8324 40.5312 46.9091 38.5794 46.9091 36.3874C46.9091 32.7344 43.9203 29.7456 40.2673 29.7456H11.7324C8.07932 29.7456 5.09058 32.7344 5.09058 36.3874C5.09076 38.5794 6.16763 40.5312 7.81752 41.7427Z" fill="#FFE5C2"/>
<path d="M7.60465 41.579C7.78991 41.5633 7.9766 41.5533 8.16581 41.5533H17.2063C15.696 40.3332 14.7249 38.4686 14.7249 36.3874C14.7249 32.7346 17.7137 29.7456 21.3667 29.7456H11.7326C8.07974 29.7456 5.09082 32.7344 5.09082 36.3874C5.09082 38.4835 6.07587 40.3594 7.60465 41.579Z" fill="#FED2A4"/>
<path d="M43.8344 54.8369H8.16571C4.51267 54.8369 1.52393 51.8481 1.52393 48.1951C1.52393 44.542 4.51267 41.5533 8.16571 41.5533H43.8344C47.4875 41.5533 50.4762 44.542 50.4762 48.1951C50.4762 51.8481 47.4875 54.8369 43.8344 54.8369Z" fill="#FFF3DE"/>
<path d="M11.1914 48.1951C11.1914 44.542 14.1801 41.5533 17.8331 41.5533H8.16595C4.51291 41.5533 1.52417 44.542 1.52417 48.1951C1.52417 51.8479 4.51291 54.8369 8.16595 54.8369H17.8331C14.1801 54.8369 11.1914 51.8481 11.1914 48.1951V48.1951Z" fill="#FFE5C2"/>
</g>
<defs>
<clipPath id="clip0">
<rect width="52" height="92" fill="white"/>
</clipPath>
</defs>
</svg>
