<svg width="56" height="91" viewBox="0 0 56 91" fill="none" xmlns="http://www.w3.org/2000/svg">
<g clip-path="url(#clip0)">
<path d="M51.044 34.7432L49.1278 48.0801C47.0522 48.4945 43.1222 50.0226 38.0897 55.4695C31.2178 62.9057 24.6515 71.9732 10.0772 70.3888L4.95654 34.7413C5.55467 35.1988 6.20717 35.6376 6.90842 36.0538C11.9334 39.037 19.5178 40.9363 28.0022 40.9363C37.6697 40.9363 46.1672 38.4688 51.044 34.7432V34.7432Z" fill="#FFA0C1"/>
<path d="M49.1275 48.0801L44.2113 82.2988C44.2113 86.7088 36.9532 90.2845 28 90.2845C19.0469 90.2845 11.7888 86.7088 11.7888 82.2988L10.0769 70.3888C24.6513 71.9732 31.2175 62.9057 38.0894 55.4695C43.1219 50.0226 47.0519 48.4945 49.1275 48.0801V48.0801Z" fill="#FF78AD"/>
<path d="M45.5202 49.4619L40.8365 82.0569V82.2988C40.8365 83.6357 36.3384 86.9095 28.0002 86.9095C19.6621 86.9095 15.164 83.6357 15.164 82.2988V82.0569L10.4802 49.4619C15.2296 51.6913 21.3384 53.1144 28.0021 53.1144C34.6659 53.1144 40.7709 51.6913 45.5202 49.4619V49.4619Z" fill="#FFBD80"/>
<path d="M47.3087 37.0157L45.5199 49.462C40.7705 51.6913 34.6655 53.1145 28.0018 53.1145C21.338 53.1145 15.2293 51.6913 10.4799 49.462L8.69116 37.0138C13.643 39.4382 20.468 40.9363 28.0018 40.9363C35.5355 40.9363 42.3568 39.4382 47.3087 37.0157V37.0157Z" fill="#CB8F62"/>
<path d="M20.1095 82.7134C21.5697 82.7134 22.7535 81.5297 22.7535 80.0695C22.7535 78.6092 21.5697 77.4255 20.1095 77.4255C18.6493 77.4255 17.4656 78.6092 17.4656 80.0695C17.4656 81.5297 18.6493 82.7134 20.1095 82.7134Z" fill="#9A4C2C"/>
<path d="M36.0358 81.9857C37.496 81.9857 38.6797 80.802 38.6797 79.3418C38.6797 77.8816 37.496 76.6978 36.0358 76.6978C34.5756 76.6978 33.3918 77.8816 33.3918 79.3418C33.3918 80.802 34.5756 81.9857 36.0358 81.9857Z" fill="#71260D"/>
<path d="M37.654 70.3954C39.1142 70.3954 40.2979 69.2117 40.2979 67.7515C40.2979 66.2912 39.1142 65.1075 37.654 65.1075C36.1937 65.1075 35.01 66.2912 35.01 67.7515C35.01 69.2117 36.1937 70.3954 37.654 70.3954Z" fill="#9A4C2C"/>
<path d="M22.7533 71.2352C24.2135 71.2352 25.3973 70.0515 25.3973 68.5913C25.3973 67.1311 24.2135 65.9473 22.7533 65.9473C21.2931 65.9473 20.1094 67.1311 20.1094 68.5913C20.1094 70.0515 21.2931 71.2352 22.7533 71.2352Z" fill="#71260D"/>
<path d="M18.8664 62.7471C20.3266 62.7471 21.5103 61.5633 21.5103 60.1031C21.5103 58.6429 20.3266 57.4592 18.8664 57.4592C17.4061 57.4592 16.2224 58.6429 16.2224 60.1031C16.2224 61.5633 17.4061 62.7471 18.8664 62.7471Z" fill="#9A4C2C"/>
<path d="M28.0018 40.9363C20.468 40.9363 13.6449 39.4382 8.69116 37.0157L9.13554 40.1001C14.423 42.3388 21.0399 43.5613 28.0018 43.5613C34.9599 43.5613 41.5768 42.3388 46.8643 40.1001L47.3087 37.0157C42.3549 39.4382 35.5337 40.9363 28.0018 40.9363Z" fill="#B45631"/>
<path d="M9.13592 40.1001C8.56404 39.8582 8.00904 39.6051 7.46904 39.3388C6.76217 38.9901 6.09092 38.6263 5.45904 38.2476L4.95654 34.7432C6.03279 35.5663 7.28717 36.3276 8.69154 37.0157L9.13592 40.1001Z" fill="#FF6097"/>
<path d="M35.4739 52.5032L31.8045 76.2257C31.6264 77.4032 30.612 78.2488 29.4552 78.2488C29.337 78.2488 29.217 78.2395 29.0952 78.2207C27.7958 78.0238 26.9014 76.8107 27.1002 75.5113L30.5745 53.0432C32.2564 52.9495 33.8952 52.7676 35.4739 52.5032V52.5032Z" fill="#CB8F62"/>
<path d="M32.0632 43.4207C33.7357 43.3044 35.3745 43.1151 36.9663 42.8582L35.4738 52.5032C33.8951 52.7676 32.2563 52.9495 30.5745 53.0432L32.0632 43.4207Z" fill="#9A4C2C"/>
<path d="M15.8782 35.3151C13.0245 35.9582 10.0245 36.217 6.90824 36.0538C2.97074 33.7176 0.604492 30.7157 0.604492 27.4401V23.2101C0.604492 28.5201 6.82762 33.1138 15.8782 35.3151V35.3151Z" fill="#FFAECB"/>
<path d="M55.3959 23.2101V27.4401C55.3959 34.8932 43.1316 40.9363 28.0022 40.9363C19.5178 40.9363 11.9334 39.0369 6.90845 36.0538C10.0247 36.2169 13.0247 35.9582 15.8784 35.3151C19.5328 36.2057 23.6503 36.7063 28.0022 36.7063C43.1316 36.7063 55.3959 30.6632 55.3959 23.2101V23.2101Z" fill="#FF8EB9"/>
<path d="M52.8009 17.4688C46.9865 17.5813 38.4309 18.7663 33.7697 24.2394C28.9753 29.8701 22.8628 33.7419 15.8784 35.3151C19.5328 36.2057 23.6503 36.7063 28.0022 36.7063C43.1315 36.7063 55.3959 30.6632 55.3959 23.2101C55.3959 21.1569 54.4659 19.2107 52.8009 17.4688V17.4688Z" fill="#FFAECB"/>
<path d="M52.8007 17.4688C46.9864 17.5813 38.4307 18.7663 33.7695 24.2395C28.9751 29.8701 22.8626 33.742 15.8782 35.3151C6.82762 33.1138 0.604492 28.5201 0.604492 23.2101C0.604492 15.7551 12.8689 9.71383 28.002 9.71383C38.9651 9.71383 48.4226 12.8863 52.8007 17.4688V17.4688Z" fill="#FFD5E1"/>
<path d="M46.8777 17.9657C42.1115 18.7082 37.004 20.4426 33.7696 24.2394C30.6702 27.8807 27.0177 30.7851 22.9358 32.8101C19.4877 32.4388 16.3827 31.7001 13.7708 30.7363C8.50021 28.7863 5.24146 25.9063 5.24146 23.2101C5.24146 18.5507 14.9746 13.3401 28.0002 13.3401C36.0646 13.3401 42.8671 15.337 46.8777 17.9657V17.9657Z" fill="#FFE3ED"/>
<path d="M50.7587 23.2101C50.7587 27.8694 41.0255 33.0801 27.9999 33.0801C26.2468 33.0801 24.5537 32.9844 22.9355 32.8101C27.0174 30.7851 30.6699 27.8807 33.7693 24.2394C37.0037 20.4426 42.1112 18.7082 46.8774 17.9657C48.0137 18.7082 48.9268 19.5032 49.5812 20.3188C50.348 21.2732 50.7587 22.2538 50.7587 23.2101V23.2101Z" fill="#FFD5E1"/>
<path d="M38.0891 23.6469C40.6088 23.6469 42.6514 22.542 42.6514 21.1791C42.6514 19.8161 40.6088 18.7112 38.0891 18.7112C35.5694 18.7112 33.5269 19.8161 33.5269 21.1791C33.5269 22.542 35.5694 23.6469 38.0891 23.6469Z" fill="#FF6097"/>
<path d="M43.4239 1.4132C43.4239 1.41883 43.422 1.42445 43.422 1.43008C43.4202 1.45258 43.4164 1.47695 43.4108 1.49945L40.7745 19.1826L40.1483 23.3807C39.5295 23.5513 38.8302 23.6469 38.0895 23.6469C37.0189 23.6469 36.0364 23.4482 35.2583 23.1144L35.8677 19.0251L38.5508 1.04383V1.04195L38.6014 0.706325C38.6033 0.687575 38.607 0.6707 38.6108 0.65195C38.877 0.00882518 39.9383 -0.384925 41.1458 -0.246175C42.4808 -0.0961746 43.4933 0.64445 43.4239 1.4132V1.4132Z" fill="#87D2ED"/>
<path d="M51.0439 34.7432L50.5414 38.2476C49.9095 38.6263 49.2401 38.9901 48.5333 39.3388C47.9933 39.6051 47.4364 39.8582 46.8645 40.1001L47.3089 37.0157C48.7133 36.3276 49.9676 35.5663 51.0439 34.7432V34.7432Z" fill="#FF6097"/>
<path d="M43.4241 1.4132C43.4241 1.41883 43.4223 1.42445 43.4223 1.43008C43.4204 1.45258 43.4166 1.47695 43.411 1.49945C43.2648 2.23258 42.1323 2.7032 40.8291 2.55508C39.5804 2.41445 38.611 1.7582 38.551 1.04383V1.04195C38.5454 0.987575 38.5473 0.9332 38.5529 0.878825C38.5623 0.800075 38.581 0.725075 38.611 0.65195C38.8773 0.00882522 39.9385 -0.384925 41.146 -0.246175C42.481 -0.0961746 43.4935 0.64445 43.4241 1.4132Z" fill="#2273D1"/>
<path d="M28.0018 40.9363C20.468 40.9363 13.6449 39.4382 8.69116 37.0157L9.13554 40.1001C14.423 42.3388 21.0399 43.5613 28.0018 43.5613C34.9599 43.5613 41.5768 42.3388 46.8643 40.1001L47.3087 37.0157C42.3549 39.4382 35.5337 40.9363 28.0018 40.9363Z" fill="#B45631"/>
<path d="M37.3882 40.1226L36.9664 42.8582C35.3745 43.1151 33.7357 43.3044 32.0632 43.4207L32.4739 40.7563C34.1707 40.6194 35.8132 40.4057 37.3882 40.1226Z" fill="#803B0D"/>
<path d="M40.439 21.4795L40.1633 23.3769C39.5408 23.5494 38.8358 23.6469 38.0896 23.6469C37.0096 23.6469 36.0177 23.4445 35.2358 23.1051L35.5077 21.352C35.9521 21.6313 36.8352 21.9595 38.0896 21.9595C39.1546 21.9595 39.9515 21.7232 40.439 21.4795V21.4795Z" fill="#30A6DC"/>
<path d="M19.344 30.4164C19.2828 30.4164 19.2208 30.4104 19.1587 30.3979C18.3733 30.2404 17.6073 30.0519 16.8823 29.8376C16.3858 29.691 16.1021 29.1696 16.2489 28.6729C16.3955 28.1764 16.916 27.8925 17.4137 28.0395C18.0853 28.2379 18.7965 28.4128 19.5272 28.5594C20.0349 28.6613 20.3638 29.1553 20.262 29.6629C20.1727 30.1086 19.7816 30.4164 19.344 30.4164V30.4164Z" fill="#FFAECB"/>
<path d="M12.1706 24.1406C12.1455 24.1142 12.5004 24.6429 12.5932 24.7573C12.7815 24.9863 12.9928 25.2107 13.2154 25.4295C13.4387 25.6481 13.6774 25.8583 13.9247 26.0629C14.1724 26.2673 14.4322 26.4617 14.6977 26.6528L14.7208 26.6695C15.1431 26.9734 15.2391 27.5621 14.9351 27.9846C14.6752 28.3457 14.2067 28.4678 13.8124 28.3058C13.4721 28.1659 13.1319 28.0187 12.7961 27.8541C12.4605 27.6893 12.1271 27.5123 11.7988 27.3158C11.4709 27.1183 10.5101 26.4212 10.3522 26.2823C10.2733 26.2146 9.91705 25.8662 9.84149 25.7696C9.39186 25.1265 9.54861 24.2406 10.1917 23.7909C10.8349 23.3406 11.7208 23.4975 12.1706 24.1406Z" fill="#FFAECB"/>
</g>
<defs>
<clipPath id="clip0">
<rect width="56" height="91" fill="white"/>
</clipPath>
</defs>
</svg>
