<svg width="92" height="94" viewBox="0 0 92 94" fill="none" xmlns="http://www.w3.org/2000/svg">
<g clip-path="url(#clip0)">
<path d="M47.208 56.2733V92.8821C47.208 93.4995 46.7181 94 46.1138 94H43.8234C43.2191 94 42.7292 93.4995 42.7292 92.8821V56.2733H47.208Z" fill="white"/>
<path d="M47.2082 56.2733H42.7295V61.2872H47.2082V56.2733Z" fill="#708C8A"/>
<path d="M46.1144 94H43.8229C43.2186 94 42.7288 93.4995 42.7288 92.8821V88.1103H47.2087V92.8821C47.2087 93.4995 46.7187 94 46.1144 94Z" fill="#EEEEEE"/>
<path d="M71.3649 36.061C71.3649 37.3454 71.2626 38.6069 71.0617 39.8324C71.0283 40.0377 70.9929 40.2409 70.9519 40.4423C70.0873 44.9831 67.9061 49.0415 64.8267 52.1857C60.7879 56.3142 55.2075 58.866 49.0431 58.866H40.7534C39.2733 58.866 37.8265 58.7196 36.4282 58.4365C29.747 57.097 24.135 52.7121 21.0352 46.7539C19.3727 43.5658 18.4319 39.9255 18.4319 36.061C18.4319 35.8958 18.4337 35.7304 18.4375 35.5651C18.4375 35.4529 18.4412 35.3428 18.4448 35.2308C18.6549 29.2649 21.1076 23.8786 24.9698 19.9363C29.0087 15.8078 34.5891 13.256 40.7534 13.256H49.0431C61.3719 13.256 71.3649 23.4663 71.3649 36.061Z" fill="#F13D2F"/>
<path d="M71.365 36.061C71.365 37.3454 71.2627 38.6069 71.0619 39.8324C71.0284 40.0376 70.993 40.2409 70.9521 40.4423H66.0615V45.6613C66.0615 49.1762 63.2629 52.0337 59.8229 52.0337C56.3848 52.0337 53.5861 49.1762 53.5861 45.6613V45.1313C53.0153 49.0319 49.7128 52.0337 45.7372 52.0337C41.3618 52.0337 37.8007 48.3972 37.8007 43.9247V40.4421H36.9082V55.6606C36.9082 56.6353 36.739 57.57 36.4285 58.4363C29.7473 57.0968 24.1353 52.7119 21.0355 46.7537V35.5706H18.6571C18.5845 35.5706 18.5102 35.5688 18.4377 35.5649C18.4377 35.4528 18.4415 35.3426 18.4451 35.2306C18.6552 29.2647 21.1079 23.8784 24.9701 19.9361C29.009 15.8076 34.5893 13.2559 40.7537 13.2559H49.0434C61.372 13.256 71.365 23.4663 71.365 36.061Z" fill="#D80304"/>
<path d="M72.9157 33.9813C72.9157 34.8251 72.8735 35.6584 72.7908 36.4794C72.7053 37.3293 71.9991 37.973 71.163 37.973H66.0178C64.7068 37.973 63.6441 39.0587 63.6441 40.3982V45.6611C63.6441 47.8169 61.9337 49.5645 59.8238 49.5645C57.7139 49.5645 56.0035 47.8169 56.0035 45.6611V36.4065C56.0035 35.067 54.9408 33.9813 53.6298 33.9813C52.3188 33.9813 51.2561 35.067 51.2561 36.4065V43.9256C51.2561 47.0399 48.7852 49.5647 45.737 49.5647C42.6889 49.5647 40.2179 47.0401 40.2179 43.9256V40.3984C40.2179 39.0589 39.1552 37.9731 37.8442 37.9731H36.8642C35.5532 37.9731 34.4905 39.0589 34.4905 40.3984V55.6611C34.4905 58.7755 32.0196 61.3002 28.9714 61.3002C25.9234 61.3002 23.4523 58.7756 23.4523 55.6611V35.5267C23.4523 34.1872 22.3896 33.1015 21.0786 33.1015H18.657C17.6757 33.1015 16.9213 32.2254 17.032 31.2292C17.6503 25.6631 20.1227 20.6694 23.8018 16.9121C28.0767 12.5422 33.9845 9.84064 40.5095 9.84064H49.2864C62.3369 9.84064 72.9157 20.6494 72.9157 33.9813Z" fill="#FF8F33"/>
<path d="M70.7996 23.9811C66.4649 16.9437 58.551 12.2338 49.5064 12.2338H40.2905C33.4401 12.2338 27.2368 14.9356 22.748 19.3053C21.3125 20.7017 20.0518 22.2672 19.0029 23.9715C20.1819 21.3287 21.8163 18.9405 23.8024 16.9114C28.0773 12.5415 33.9851 9.8399 40.5101 9.8399H49.287C58.8465 9.8399 67.0788 15.6385 70.7996 23.9811Z" fill="#FFCE84"/>
<path d="M44.2576 16.5663C44.2249 16.5663 44.1921 16.5652 44.1591 16.5626C43.4057 16.5079 42.8384 15.8394 42.8919 15.0696C42.9169 14.7112 43.5613 6.22497 48.6277 0.463418C49.1327 -0.110497 49.9971 -0.158048 50.5592 0.357851C51.1211 0.873751 51.1674 1.75721 50.6625 2.3313C46.2165 7.3873 45.6259 15.1897 45.6205 15.2679C45.5691 16.0039 44.9686 16.5663 44.2576 16.5663Z" fill="#FA9942"/>
<path d="M45.0327 16.832C42.1532 16.832 40.0194 16.2932 39.8863 16.2589C39.1541 16.0696 38.7106 15.3095 38.8959 14.5614C39.0811 13.8136 39.8247 13.3605 40.556 13.5492C40.6279 13.5674 44.9242 14.6319 49.2493 13.5472C49.983 13.363 50.7234 13.8217 50.9035 14.5711C51.0837 15.3205 50.635 16.0775 49.9014 16.2614C48.1952 16.6892 46.515 16.832 45.0327 16.832Z" fill="#F27E03"/>
<path d="M59.9716 25.5879C59.2162 25.5879 58.604 24.9622 58.604 24.1905V24.1223C58.604 23.3504 59.2162 22.7249 59.9716 22.7249C60.727 22.7249 61.3394 23.3506 61.3394 24.1223V24.1905C61.3394 24.9622 60.7272 25.5879 59.9716 25.5879Z" fill="#FFECAA"/>
<path d="M56.3359 28.8898C55.5805 28.8898 54.9683 28.2641 54.9683 27.4925V27.4242C54.9683 26.6524 55.5805 26.0269 56.3359 26.0269C57.0913 26.0269 57.7037 26.6525 57.7037 27.4242V27.4925C57.7035 28.2641 57.0913 28.8898 56.3359 28.8898Z" fill="#FFECAA"/>
<path d="M31.4133 34.8794C30.6578 34.8794 30.0457 34.2537 30.0457 33.4821V33.4138C30.0457 32.6419 30.658 32.0164 31.4133 32.0164C32.1687 32.0164 32.7809 32.6421 32.7809 33.4138V33.4821C32.781 34.2537 32.1687 34.8794 31.4133 34.8794Z" fill="#FFECAA"/>
</g>
<defs>
<clipPath id="clip0">
<rect width="92" height="94" fill="white"/>
</clipPath>
</defs>
</svg>
