<svg width="106" height="65" viewBox="0 0 106 65" fill="none" xmlns="http://www.w3.org/2000/svg">
<path d="M52.5924 63.375C81.188 63.375 104.369 52.4619 104.369 39C104.369 25.5381 81.188 14.625 52.5924 14.625C23.9967 14.625 0.81543 25.5381 0.81543 39C0.81543 52.4619 23.9967 63.375 52.5924 63.375Z" fill="white"/>
<path d="M52.5 56C75.9721 56 95 48.3888 95 39C95 29.6112 75.9721 22 52.5 22C29.0279 22 10 29.6112 10 39C10 48.3888 29.0279 56 52.5 56Z" fill="url(#paint0_linear)"/>
<path d="M84.4719 31.9675H21.5282C20.4464 31.9675 19.5693 32.8415 19.5693 33.9194V45.6309C19.5693 46.7088 20.4464 47.5828 21.5282 47.5828H84.4719C85.5537 47.5828 86.4307 46.7088 86.4307 45.6309V33.9194C86.4307 32.8413 85.5537 31.9675 84.4719 31.9675Z" fill="#C79261"/>
<path d="M84.4719 31.9675H53V47.5828H84.4719C85.5537 47.5828 86.4308 46.7088 86.4308 45.6309V33.9194C86.4308 32.8413 85.5537 31.9675 84.4719 31.9675Z" fill="#C79261"/>
<path d="M84.472 20.3125H21.5282C20.4464 20.3125 19.5693 21.4987 19.5693 22.962V40.625H86.4309V22.962C86.4309 21.4986 85.5538 20.3125 84.472 20.3125Z" fill="url(#paint1_linear)"/>
<path d="M85.1861 20.3904L37.0478 1.6097C36.5058 1.39812 35.8976 1.43793 35.3883 1.71771C30.4768 4.41484 26.6244 7.47594 23.9382 10.816C21.0392 14.4208 19.5693 18.2536 19.5693 22.208V24.1599H86.4307C86.4307 24.1599 86.2221 23.4922 86.3967 22.57C86.5714 21.6479 86.063 20.7325 85.1861 20.3904Z" fill="url(#paint2_linear)"/>
<defs>
<linearGradient id="paint0_linear" x1="52.5" y1="22" x2="54.6668" y2="63.4491" gradientUnits="userSpaceOnUse">
<stop stop-color="#CBE0EC"/>
<stop offset="1" stop-color="#CBE0EC" stop-opacity="0"/>
</linearGradient>
<linearGradient id="paint1_linear" x1="53.0001" y1="20.3125" x2="53.0001" y2="40.625" gradientUnits="userSpaceOnUse">
<stop stop-color="#ED7200"/>
<stop offset="1" stop-color="#FFEDD1"/>
</linearGradient>
<linearGradient id="paint2_linear" x1="24.4616" y1="7.71875" x2="84.7749" y2="22.8506" gradientUnits="userSpaceOnUse">
<stop stop-color="#FF9737"/>
<stop offset="1" stop-color="#FFF1BE"/>
</linearGradient>
</defs>
</svg>
