<svg width="90" height="84" viewBox="0 0 90 84" fill="none" xmlns="http://www.w3.org/2000/svg">
<path d="M62.2212 1.34128L52.8124 10.2741C52.2404 10.8173 51.4815 11.12 50.6928 11.12H31.0361C29.4359 11.12 28.1387 12.4173 28.1387 14.0174C28.1387 15.6175 29.4359 16.9148 31.0361 16.9148H53.1318C53.9826 16.9148 54.7955 16.5627 55.3776 15.942L63.5779 7.19603C63.9202 6.83093 64.3985 6.62386 64.8989 6.62386H88.9131C89.5132 6.62386 89.9996 6.13747 89.9996 5.53736V1.43251C89.9996 0.832395 89.5132 0.346008 88.9131 0.346008H64.7149C63.7869 0.346008 62.8943 0.702317 62.2212 1.34128V1.34128Z" fill="#C8EFFE"/>
<path d="M88.9136 0.346008H83.2672C83.8673 0.346008 84.3537 0.832395 84.3537 1.43251V3.84599C84.3537 4.24607 84.0294 4.57038 83.6293 4.57038H63.8727C63.3723 4.57038 62.894 4.77745 62.5517 5.14255L54.3513 13.8885C53.7693 14.5092 52.9565 14.8613 52.1056 14.8613H30.0099C29.3004 14.8613 28.6512 14.6054 28.1475 14.1821C28.2334 15.7051 29.492 16.9146 31.0366 16.9146H53.1323C53.9831 16.9146 54.7961 16.5625 55.3781 15.9418L63.5785 7.19585C63.9209 6.83075 64.399 6.62368 64.8995 6.62368H83.2672H88.9136C89.5138 6.62368 90.0001 6.1373 90.0001 5.53718V1.43251C90.0001 0.822727 89.4986 0.346008 88.9136 0.346008V0.346008Z" fill="#99E6FC"/>
<path d="M37.2531 37.4384H31.4583V8.70612C31.4583 7.10598 32.7555 5.80872 34.3557 5.80872C35.9558 5.80872 37.2531 7.10598 37.2531 8.70612V37.4384Z" fill="#FFCE85"/>
<path d="M40.1503 22.9467C38.5502 22.9467 37.2529 21.6494 37.2529 20.0493V8.70612C37.2529 7.10598 38.5502 5.80872 40.1503 5.80872C41.7505 5.80872 43.0477 7.10598 43.0477 8.70612V20.0493C43.0477 21.6494 41.7505 22.9467 40.1503 22.9467Z" fill="#FDB441"/>
<path d="M31.4581 37.4384H25.6633V8.70612C25.6633 7.10598 26.9606 5.80872 28.5607 5.80872C30.1609 5.80872 31.4581 7.10598 31.4581 8.70612V37.4384Z" fill="#FFC872"/>
<path d="M45.945 22.9467C44.3449 22.9467 43.0476 21.6494 43.0476 20.0493V8.70612C43.0476 7.10598 44.3449 5.80872 45.945 5.80872C47.5451 5.80872 48.8424 7.10598 48.8424 8.70612V20.0493C48.8422 21.6494 47.5451 22.9467 45.945 22.9467Z" fill="#FFCE85"/>
<path d="M34.3554 5.80872C33.7889 5.80872 33.2619 5.97377 32.8154 6.25485C33.63 6.76778 34.1728 7.67235 34.1728 8.70594V37.4384H37.2527V8.70612C37.2528 7.10598 35.9556 5.80872 34.3554 5.80872V5.80872Z" fill="#FDB441"/>
<path d="M40.1506 5.80872C39.5841 5.80872 39.0571 5.97377 38.6106 6.25485C39.4252 6.76778 39.968 7.67235 39.968 8.70594V20.0491C39.968 21.0827 39.425 21.9874 38.6106 22.5002C39.0571 22.7813 39.5839 22.9463 40.1506 22.9463C41.7508 22.9463 43.048 21.6491 43.048 20.0489V8.70577C43.048 7.10598 41.7508 5.80872 40.1506 5.80872V5.80872Z" fill="#FEA613"/>
<path d="M28.5608 5.80872C27.9942 5.80872 27.4672 5.97377 27.0208 6.25485C27.8353 6.76778 28.3781 7.67235 28.3781 8.70594V37.4384H31.458V8.70612C31.4582 7.10598 30.1611 5.80872 28.5608 5.80872V5.80872Z" fill="#FEA613"/>
<path d="M45.9453 5.80872C45.3788 5.80872 44.8518 5.97377 44.4053 6.25485C45.2198 6.76778 45.7627 7.67235 45.7627 8.70594V20.0491C45.7627 21.0827 45.2197 21.9874 44.4053 22.5002C44.8518 22.7813 45.3786 22.9463 45.9453 22.9463C47.5454 22.9463 48.8427 21.6491 48.8427 20.0489V8.70577C48.8425 7.10598 47.5454 5.80872 45.9453 5.80872V5.80872Z" fill="#FDB441"/>
<path d="M3.43359 70.4806L4.55227 79.5238C4.84406 81.8826 6.84814 83.654 9.22488 83.654H80.735C83.1117 83.654 85.1158 81.8826 85.4076 79.5238L86.5263 70.4806H3.43359Z" fill="#C8EFFE"/>
<path d="M81.3931 70.4806L80.2744 79.5238C79.9826 81.8826 77.9785 83.654 75.6018 83.654H80.735C83.1117 83.654 85.1158 81.8826 85.4076 79.5238L86.5263 70.4806H81.3931Z" fill="#99E6FC"/>
<path d="M70.744 61.3523H17.1814V60.0903C17.1814 45.9737 28.6253 34.5298 42.7419 34.5298H45.1835C59.3002 34.5298 70.744 45.9737 70.744 60.0903V61.3523Z" fill="#FDB441"/>
<path d="M58.0681 57.2782C57.44 57.2782 56.876 56.84 56.7408 56.2009C55.5536 50.5882 50.5259 46.5144 44.7859 46.5144H43.1392C37.3992 46.5144 32.3714 50.5882 31.1843 56.2009C31.0291 56.9349 30.3077 57.4037 29.5745 57.2485C28.8406 57.0933 28.3716 56.3726 28.5267 55.6387C29.9779 48.7778 36.1232 43.7981 43.1392 43.7981H44.7859C51.8017 43.7981 57.9472 48.7778 59.3984 55.6387C59.5535 56.3726 59.0845 57.0933 58.3506 57.2485C58.2558 57.2686 58.1613 57.2782 58.0681 57.2782V57.2782Z" fill="#FE9901"/>
<path d="M86.5263 72.7269H32.9636V71.465C32.9636 57.3484 44.4075 45.9045 58.5241 45.9045H60.9658C75.0824 45.9045 86.5263 57.3484 86.5263 71.465V72.7269Z" fill="#FFCE85"/>
<path d="M80.6579 68.6526C80.0298 68.6526 79.4657 68.2144 79.3306 67.5753C77.507 58.9532 69.7834 52.6952 60.9658 52.6952H58.5244C49.7069 52.6952 41.9832 58.9532 40.1597 67.5753C40.0043 68.3092 39.2832 68.7778 38.5499 68.6231C37.816 68.4679 37.347 67.7472 37.502 67.0133C38.5054 62.2692 41.137 57.95 44.9121 54.8517C48.7408 51.7094 53.5749 49.9789 58.5244 49.9789H60.9658C65.9153 49.9789 70.7495 51.7094 74.5781 54.8517C78.3532 57.95 80.9848 62.2692 81.9882 67.0133C82.1432 67.7472 81.6743 68.4679 80.9404 68.6231C80.8458 68.6431 80.7511 68.6526 80.6579 68.6526V68.6526Z" fill="#FEA613"/>
<path d="M45.8741 72.7269H3.43359V71.7271C3.43359 60.5417 12.5011 51.4742 23.6864 51.4742H25.6211C36.8064 51.4742 45.8739 60.5417 45.8739 71.7271V72.7269H45.8741Z" fill="#FECE85"/>
<path d="M39.7639 68.6528C39.1863 68.6528 38.6507 68.2814 38.4686 67.7013C36.6962 62.0572 31.5329 58.2649 25.6209 58.2649H23.6864C17.7744 58.2649 12.6113 62.057 10.8387 67.7013C10.6141 68.4169 9.8526 68.8151 9.13612 68.5901C8.42051 68.3654 8.02254 67.6031 8.24737 66.8875C9.25688 63.6724 11.3086 60.785 14.0246 58.7571C16.8357 56.6581 20.1768 55.5485 23.6864 55.5485H25.6211C29.1307 55.5485 32.4718 56.6581 35.2829 58.7571C37.9989 60.785 40.0506 63.6724 41.0601 66.8875C41.2849 67.6031 40.887 68.3654 40.1714 68.5901C40.0358 68.6326 39.8987 68.6528 39.7639 68.6528V68.6528Z" fill="#FDB441"/>
<path d="M32.2088 68.6528C31.6312 68.6528 31.0956 68.2814 30.9135 67.7013C30.1165 65.1637 27.7953 63.4587 25.1375 63.4587H24.1701C21.5123 63.4587 19.1911 65.1637 18.3942 67.7013C18.1695 68.4169 17.4078 68.8151 16.6915 68.5901C15.9759 68.3652 15.578 67.6031 15.8028 66.8874C16.957 63.2119 20.3197 60.7423 24.1703 60.7423H25.1376C28.9881 60.7423 32.3508 63.2119 33.5052 66.8874C33.73 67.6031 33.332 68.3652 32.6164 68.5901C32.4809 68.6326 32.3436 68.6528 32.2088 68.6528V68.6528Z" fill="#FDB441"/>
<path d="M73.3581 68.6527C72.73 68.6527 72.166 68.2144 72.0308 67.5753C70.8898 62.1804 66.0572 58.2649 60.54 58.2649H58.9505C53.4333 58.2649 48.6007 62.1806 47.4597 67.5753C47.3043 68.3092 46.5833 68.7778 45.8499 68.6231C45.116 68.4679 44.647 67.7472 44.8021 67.0133C46.2071 60.3702 52.1573 55.5485 58.9505 55.5485H60.54C67.3332 55.5485 73.2834 60.3702 74.6884 67.0133C74.8435 67.7472 74.3745 68.4679 73.6406 68.6231C73.5457 68.6432 73.4513 68.6527 73.3581 68.6527V68.6527Z" fill="#FEA613"/>
<path d="M65.4461 68.6527C64.818 68.6527 64.2539 68.2144 64.1187 67.5753C63.7174 65.6785 62.018 64.3016 60.0779 64.3016H59.4122C57.4721 64.3016 55.7726 65.6783 55.3713 67.5753C55.2161 68.3092 54.4952 68.7778 53.7615 68.6231C53.0276 68.4679 52.5587 67.7472 52.7137 67.0133C53.379 63.8681 56.1961 61.5854 59.4122 61.5854H60.0779C63.294 61.5854 66.1111 63.8681 66.7764 67.0133C66.9314 67.7472 66.4624 68.4679 65.7286 68.6231C65.6338 68.6432 65.5392 68.6527 65.4461 68.6527Z" fill="#FEA613"/>
<path d="M86.831 73.6298H3.16898C1.41873 73.6298 0 72.2109 0 70.4606C0 68.7104 1.41873 67.2916 3.16898 67.2916H86.831C88.5813 67.2916 90 68.7104 90 70.4606C90 72.2109 88.5811 73.6298 86.831 73.6298Z" fill="#99E6FC"/>
<path d="M75.4158 57.4942C73.9646 42.1954 61.081 30.2277 45.4024 30.2277H42.5224C32.1714 30.2277 23.042 35.4463 17.6133 43.3939L17.613 43.3902C16.0438 45.4354 15.01 48.2915 15.01 51.2941V51.3635C15.01 53.1055 16.4391 54.5015 18.1809 54.4472C18.3841 54.4476 18.5873 54.4479 18.7904 54.4483C20.4974 54.4216 21.9706 53.235 22.357 51.5669L22.939 49.0539C23.2267 47.8111 24.3338 46.9312 25.6096 46.9312H36.9396C37.9841 46.9312 38.8307 47.7779 38.8307 48.8222V58.1283C38.8307 60.1074 40.3696 61.7929 42.3475 61.8633C44.424 61.9371 46.1305 60.2756 46.1305 58.2158V51.6737C46.1305 49.272 48.0959 47.2486 50.4971 47.2942C52.8248 47.3383 54.6981 49.239 54.6981 51.5772C54.6981 51.6577 54.6981 55.4217 54.6981 55.3492C54.6981 57.3613 56.3293 58.9926 58.3415 58.9926H58.3677C60.3243 58.9926 61.9262 57.4364 61.9826 55.4805C62.0252 54.0042 63.3342 52.8884 64.7985 53.0796C65.9978 53.2364 66.9126 54.2315 66.9666 55.4411L67.0399 57.082C67.1265 59.0221 68.309 60.6635 69.9736 61.4198C70.9487 61.8626 72.0698 61.8541 73.0558 61.4359C74.6151 60.7745 75.5758 59.1803 75.4158 57.4942V57.4942Z" fill="#FFFBED"/>
<path d="M86.8309 67.2916H81.6978C83.448 67.2916 84.8668 68.7105 84.8668 70.4606C84.8668 72.2109 83.4478 73.6296 81.6978 73.6296H86.8309C88.5812 73.6296 89.9999 72.2109 89.9999 70.4606C89.9999 68.7105 88.581 67.2916 86.8309 67.2916Z" fill="#62DBFB"/>
<path d="M75.4162 57.4942C73.965 42.1955 61.0814 30.2278 45.4028 30.2278C42.2509 30.2278 41.9948 30.2158 40.8977 30.2742C55.8196 31.0815 67.8566 42.7376 69.2563 57.4944C69.3544 58.5282 69.0297 59.5263 68.4057 60.2971C68.849 60.7657 69.3799 61.15 69.974 61.4198C70.9491 61.8626 72.0702 61.8541 73.0562 61.436C74.6155 60.7743 75.5762 59.1803 75.4162 57.4942Z" fill="#FFF1DB"/>
<rect x="23.9678" y="34.0458" width="2.88463" height="5.84001" rx="1" transform="rotate(46.4355 23.9678 34.0458)" fill="#FF8298"/>
<rect x="31.0386" y="36.4319" width="5.06262" height="5.06262" rx="1" transform="rotate(-0.361119 31.0386 36.4319)" fill="#FF8298"/>
<rect x="58.3286" y="37.5995" width="5.52828" height="5.52828" rx="1" transform="rotate(30.8166 58.3286 37.5995)" fill="#FF8298"/>
<rect x="33.7434" y="30.5864" width="6.19991" height="2.91119" rx="1" transform="rotate(-15 33.7434 30.5864)" fill="#FF8298"/>
<rect x="45.2791" y="37" width="6.50775" height="6.50775" rx="1" transform="rotate(41.1114 45.2791 37)" fill="#FF8298"/>
<rect x="53.6511" y="29.4106" width="4.99786" height="3.53758" rx="1" transform="rotate(21.6217 53.6511 29.4106)" fill="#FF8298"/>
</svg>
