<svg width="68" height="68" viewBox="0 0 68 68" fill="none" xmlns="http://www.w3.org/2000/svg">
<path d="M67.7202 8.92453L57.1486 11.7135L33.9999 20.439L12.8434 28.4077L0.000732422 37.8504V66.006C0.000732422 67.4403 1.47496 68.3965 2.78967 67.8386C3.62626 67.4403 28.1827 56.4968 33.9999 53.9868C34.757 53.6679 35.1953 53.4688 35.2351 53.429C36.271 52.9907 36.7093 51.7157 36.1914 50.7197C35.8329 49.9627 35.9523 49.0064 36.5899 48.4086C37.6256 47.333 39.339 47.7713 39.8567 49.1258C40.2553 50.2017 41.4905 50.6797 42.5263 50.2416C43.6816 49.7236 66.3257 39.8826 66.8038 39.6831C67.521 39.3645 67.9992 38.6474 67.9992 37.8504V9.96047C67.9593 9.64159 67.8795 9.24328 67.7202 8.92453Z" fill="#FDBF00"/>
<path d="M67.9992 9.96046V37.8504C67.9992 38.6473 67.5211 39.3645 66.8039 39.6831C66.3258 39.8824 43.6817 49.7236 42.5263 50.2416C41.4904 50.6799 40.2552 50.2017 39.8568 49.1258C39.3391 47.7713 37.6255 47.333 36.59 48.4086C35.9524 49.0064 35.833 49.9625 36.1914 50.7197C36.7094 51.7158 36.2712 52.9908 35.2352 53.429C35.1953 53.4688 34.757 53.668 34 53.9868V20.4391L57.1487 11.7136L67.7203 8.92465C67.8795 9.24327 67.9594 9.64158 67.9992 9.96046Z" fill="#FFB800"/>
<path d="M67.721 8.9245L34.0007 23.3078L0.00146484 37.8504C0.00146484 37.3723 13.402 17.3312 14.1989 16.136C14.8363 15.2197 16.0714 15.0202 16.9477 15.618C18.1832 16.4549 20.0556 15.4588 20.0556 13.9447C20.0556 12.2314 18.6212 12.5103 18.3024 11.0361C18.2226 10.5184 18.3024 10.0004 18.6213 9.52229C18.9399 9.0439 24.3587 0.8763 24.3587 0.8763C24.7571 0.318618 25.3549 0 26.032 0C28.7811 0 31.4107 0.119399 34.0005 0.358462C41.9292 0.955988 48.9814 2.47006 54.4798 3.98399C61.7312 5.97619 66.406 8.00809 66.7246 8.08765C67.2428 8.32671 67.5217 8.60562 67.721 8.9245Z" fill="#FFD400"/>
<path d="M67.7203 8.92449L34 23.3077V0.358185C41.9287 0.955976 48.9809 2.47004 54.4792 3.98398C61.7307 5.97618 66.4055 8.00808 66.7241 8.08764C67.2422 8.3267 67.5211 8.60561 67.7203 8.92449Z" fill="#FDD500"/>
<path d="M45.9531 39.8425C47.0534 39.8425 47.9453 38.9506 47.9453 37.8504C47.9453 36.7501 47.0534 35.8582 45.9531 35.8582C44.8529 35.8582 43.9609 36.7501 43.9609 37.8504C43.9609 38.9506 44.8529 39.8425 45.9531 39.8425Z" fill="#FF8A00"/>
<path d="M30.0161 35.8584C31.1164 35.8584 32.0083 34.9664 32.0083 33.8662C32.0083 32.7659 31.1164 31.874 30.0161 31.874C28.9159 31.874 28.0239 32.7659 28.0239 33.8662C28.0239 34.9664 28.9159 35.8584 30.0161 35.8584Z" fill="#FF9F00"/>
<path d="M40.1314 3.90171C40.1314 4.2138 39.3957 4.45908 38.4592 4.45908C37.5227 4.45908 36.7871 4.2138 36.7871 3.90171C36.7871 3.58954 37.5227 3.34433 38.4592 3.34433C39.3959 3.34433 40.1314 3.58954 40.1314 3.90171Z" fill="#FF9F00"/>
<path d="M34.5574 6.13121C34.5574 7.06749 32.5958 7.80334 30.0984 7.80334C27.6011 7.80334 25.6394 7.06749 25.6394 6.13121C25.6394 5.1947 27.6011 4.45908 30.0984 4.45908C32.5961 4.45908 34.5574 5.1947 34.5574 6.13121Z" fill="#FF9F00"/>
<path d="M55.7379 10.0329C55.7379 11.2812 53.0406 12.2624 49.6067 12.2624C46.1729 12.2624 43.4756 11.2812 43.4756 10.0329C43.4756 8.78418 46.1729 7.80334 49.6067 7.80334C53.041 7.80334 55.7379 8.78418 55.7379 10.0329Z" fill="#FF9F00"/>
<path d="M36.7869 16.7214C36.7869 17.9698 34.5801 18.9509 31.7705 18.9509C28.961 18.9509 26.7542 17.9698 26.7542 16.7214C26.7542 15.4727 28.961 14.4919 31.7705 14.4919C34.5804 14.4919 36.7869 15.4727 36.7869 16.7214Z" fill="#FF9F00"/>
<path d="M18.951 23.9673C18.951 24.9035 17.7249 25.6394 16.1641 25.6394C14.6032 25.6394 13.3772 24.9035 13.3772 23.9673C13.3772 23.0308 14.6032 22.2951 16.1641 22.2951C17.7251 22.2951 18.951 23.0308 18.951 23.9673Z" fill="#FF9F00"/>
<path d="M10.0947 51.7955C11.195 51.7955 12.0869 50.9036 12.0869 49.8033C12.0869 48.7031 11.195 47.8111 10.0947 47.8111C8.99448 47.8111 8.10254 48.7031 8.10254 49.8033C8.10254 50.9036 8.99448 51.7955 10.0947 51.7955Z" fill="#FF9F00"/>
<path d="M22.0473 47.8111C18.7518 47.8111 16.0708 45.1303 16.0708 41.8347C16.0708 38.5391 18.7516 35.8582 22.0473 35.8582C25.3429 35.8582 28.0237 38.5392 28.0237 41.8347C28.0237 45.1302 25.3429 47.8111 22.0473 47.8111Z" fill="#FF9F00"/>
<path d="M53.9215 31.874C50.626 31.874 47.9451 29.1932 47.9451 25.8975C47.9451 22.6019 50.6259 19.9211 53.9215 19.9211C57.2172 19.9211 59.898 22.6019 59.898 25.8975C59.898 29.1932 57.217 31.874 53.9215 31.874Z" fill="#FF8A00"/>
</svg>
