<svg width="111" height="72" viewBox="0 0 111 72" fill="none" xmlns="http://www.w3.org/2000/svg">
<path d="M55.7769 71.75C84.3725 71.75 107.554 60.8369 107.554 47.375C107.554 33.9131 84.3725 23 55.7769 23C27.1813 23 4 33.9131 4 47.375C4 60.8369 27.1813 71.75 55.7769 71.75Z" fill="white"/>
<path d="M55.6846 64.375C79.1567 64.375 98.1846 56.7638 98.1846 47.375C98.1846 37.9862 79.1567 30.375 55.6846 30.375C32.2125 30.375 13.1846 37.9862 13.1846 47.375C13.1846 56.7638 32.2125 64.375 55.6846 64.375Z" fill="url(#paint0_linear)"/>
<path d="M90.8319 35.8676H21.168C19.9707 35.8676 19 36.8383 19 38.0355V51.0433C19 52.2406 19.9707 53.2113 21.168 53.2113H90.8319C92.0292 53.2113 92.9999 52.2406 92.9999 51.0433V38.0355C92.9999 36.8381 92.0292 35.8676 90.8319 35.8676Z" fill="#E2B57A"/>
<path d="M90.832 35.8676H56V53.2113H90.832C92.0293 53.2113 93 52.2407 93 51.0434V38.0356C93 36.8381 92.0293 35.8676 90.832 35.8676Z" fill="#D6A476"/>
<path d="M90.832 22.9224H21.168C19.9707 22.9224 19 24.24 19 25.8651V45.4834H93V25.8651C93 24.2398 92.0293 22.9224 90.832 22.9224Z" fill="#FFEDD1"/>
<path d="M91.6223 23.0089L38.3446 2.1493C37.7447 1.91429 37.0716 1.95852 36.5079 2.26926C31.072 5.26496 26.8083 8.6649 23.8353 12.3747C20.6268 16.3785 19 20.6355 19 25.0277V27.1957H92.9999C92.9999 27.1957 92.7689 26.4541 92.9622 25.4298C93.1555 24.4056 92.5929 23.3889 91.6223 23.0089Z" fill="#FFF7EF"/>
<path d="M93 25.8651C93 24.24 92.0293 22.9224 90.832 22.9224H56V45.4834H93V25.8651Z" fill="#FFE8C8"/>
<path d="M92.9623 25.4298C93.1557 24.4057 92.5929 23.3889 91.6225 23.0089L56 9.0618V27.1957H93C93 27.1957 92.769 26.4541 92.9623 25.4298Z" fill="#FFF5EB"/>
<defs>
<linearGradient id="paint0_linear" x1="55.6846" y1="30.375" x2="57.8513" y2="71.8241" gradientUnits="userSpaceOnUse">
<stop stop-color="#CBE0EC"/>
<stop offset="1" stop-color="#CBE0EC" stop-opacity="0"/>
</linearGradient>
</defs>
</svg>
