<svg width="73" height="95" viewBox="0 0 73 95" fill="none" xmlns="http://www.w3.org/2000/svg">
<path d="M21.1919 28.6022V7.69604e-05L11.0937 0V28.6021L5.94114 32.5045C2.04618 35.4543 -0.2223 40.7387 0.0172586 46.3039C1.77615 65.7939 3.57088 80.9954 0.852544 91.0427C0.852544 93.2287 2.31172 95 4.11268 95H27.5849C29.3857 95 30.8451 93.2287 30.8451 91.0427C27.0824 73.5321 29.4196 63.7016 31.856 46.131C32.0917 40.6581 29.9014 35.449 26.1119 32.4699L21.1919 28.6022Z" fill="url(#paint0_linear)"/>
<path d="M21.1918 28.6021V0H17.4788L17.4788 28.6021C36.4999 36.7742 19.4303 62.6939 26.6275 94.8712H27.585C29.3858 94.8712 30.8451 93.1 30.8451 90.914C26.8384 74.6746 29.7084 63.9985 31.8559 46.131C32.0916 40.658 29.9014 35.4489 26.1118 32.4699L21.1918 28.6021Z" fill="url(#paint1_linear)"/>
<path d="M21.5916 0H10.7958V16.3441H21.5916V0Z" fill="#434A54"/>
<path d="M21.5916 0H17.4789V16.3441H21.5916V0Z" fill="#2E3238"/>
<path d="M54.493 66.3979H51.4084V92.9571C52.6489 93.3719 53.3188 93.3759 54.493 92.9571V66.3979Z" fill="#CCD1D9" fill-opacity="0.24"/>
<path d="M54.3023 68.2226C53.5376 68.9239 52.3635 68.9239 51.5987 68.2226L32.9014 51.0752H73L54.3023 68.2226Z" fill="#E6E9ED" fill-opacity="0.24"/>
<path d="M66.3169 57.2043H39.5845L49.5712 66.3631C51.4831 68.1165 54.4183 68.1165 56.3302 66.3631L66.3169 57.2043Z" fill="url(#paint2_linear)"/>
<path d="M54.493 91.4248H51.4084C50.3054 91.4248 43.2458 91.9299 43.2458 93.023C43.2458 94.116 49.2771 94.4893 50.3803 94.4893H55.5211C56.6238 94.4893 63.1706 94.1159 63.1706 93.023C63.1706 91.93 55.5958 91.4248 54.493 91.4248Z" fill="#E6E9ED" fill-opacity="0.24"/>
<path fill-rule="evenodd" clip-rule="evenodd" d="M27.2465 48.5215H5.14084V60.7795H9.25351V67.2503C9.25351 67.8716 9.81419 68.3425 10.4262 68.2352L20.7642 66.4227C21.2426 66.3388 21.5915 65.9234 21.5915 65.4377V60.7795H27.2465V48.5215Z" fill="white"/>
<path d="M6.16901 58.7365V49.543H26.2183L6.16901 58.7365Z" fill="#1B3883"/>
<path d="M26.2183 49.543V58.7366H6.16903L26.2183 49.543Z" fill="#E93A3A"/>
<path d="M20 63.5L10.5 66L10 65L20 63.5Z" fill="#1F2C73"/>
<rect x="12" y="61" width="6" height="1" fill="#353535"/>
<rect x="11" y="59" width="8" height="1" fill="#353535"/>
<path d="M8.33159 55C7.91384 55 7.58747 54.8644 7.35248 54.5931C7.11749 54.3219 7 53.9387 7 53.4435C7 53.1061 7.05483 52.808 7.16449 52.5494C7.27676 52.2908 7.43473 52.0921 7.63838 51.9533C7.84204 51.8114 8.07702 51.7404 8.34334 51.7404C8.56005 51.7404 8.76893 51.7877 8.96998 51.8823L8.86423 52.4926C8.68669 52.3948 8.51436 52.3459 8.34726 52.3459C8.10966 52.3459 7.92167 52.4406 7.78329 52.6298C7.64491 52.8159 7.57572 53.0651 7.57572 53.3773C7.57572 53.6958 7.64883 53.9434 7.79504 54.12C7.94125 54.2967 8.1436 54.385 8.40209 54.385C8.5718 54.385 8.73629 54.3519 8.89556 54.2856L8.98172 54.8675C8.79112 54.9558 8.57441 55 8.33159 55Z" fill="white"/>
<path d="M9.37043 52.5754H9.79928V53.4908H10.6306V52.5754H11.0623V54.9385H10.6306V53.9308H9.79928V54.9385H9.37043V52.5754Z" fill="white"/>
<path d="M11.4965 52.5754H11.9225V54.9385H11.4965V52.5754Z" fill="white"/>
<path d="M12.3565 52.5754H12.8559L13.6666 54.2324V52.5754H14.0573V54.9385H13.5638L12.7472 53.2708V54.9385H12.3565V52.5754Z" fill="white"/>
<path d="M14.4824 54.2939L16.0392 51.7451H14.5265V51H16.9057V51.6742L15.3587 54.1934H16.9057V54.9385H14.4824V54.2939Z" fill="white"/>
<path d="M17.887 52.5754H18.3981L19.1236 54.9385H18.683L18.5244 54.3992H17.7548L17.605 54.9385H17.1703L17.887 52.5754ZM18.3981 53.9592L18.1338 53.0544L17.8782 53.9592H18.3981Z" fill="white"/>
<path d="M19.349 52.5754H19.8483L20.659 54.2324V52.5754H21.0497V54.9385H20.5562L19.7396 53.2708V54.9385H19.349V52.5754Z" fill="white"/>
<path d="M22.7076 55C22.4517 55 22.2258 54.9322 22.03 54.7966C21.8342 54.661 21.6815 54.4701 21.5718 54.2241C21.4648 53.9781 21.4112 53.6958 21.4112 53.3773C21.4112 53.0556 21.4648 52.7717 21.5718 52.5257C21.6789 52.2797 21.8303 52.0889 22.0261 51.9533C22.2219 51.8177 22.4491 51.7499 22.7076 51.7499C22.9634 51.7499 23.1893 51.8177 23.3851 51.9533C23.5809 52.0857 23.7324 52.2734 23.8394 52.5163C23.9465 52.7591 24 53.0398 24 53.3584C24 53.6832 23.9465 53.9702 23.8394 54.2194C23.7324 54.4654 23.5809 54.6578 23.3851 54.7966C23.1893 54.9322 22.9634 55 22.7076 55ZM22.7076 54.3992C22.9217 54.3992 23.0927 54.3061 23.2206 54.12C23.3512 53.934 23.4165 53.6864 23.4165 53.3773C23.4165 53.1754 23.3864 52.9972 23.3264 52.8427C23.2689 52.685 23.1854 52.5651 23.0757 52.4831C22.9687 52.398 22.846 52.3554 22.7076 52.3554C22.5692 52.3554 22.4452 52.398 22.3355 52.4831C22.2285 52.5651 22.1449 52.685 22.0849 52.8427C22.0274 52.9972 21.9987 53.1754 21.9987 53.3773C21.9987 53.5791 22.0274 53.7573 22.0849 53.9119C22.1449 54.0664 22.2285 54.1863 22.3355 54.2714C22.4426 54.3566 22.5666 54.3992 22.7076 54.3992Z" fill="white"/>
<path opacity="0.2" d="M69.6378 51.0752L54.493 64.8667L56.1741 66.3978L73 51.0752H69.6378Z" fill="white" fill-opacity="0.24"/>
<defs>
<linearGradient id="paint0_linear" x1="15.9366" y1="0" x2="15.9366" y2="95" gradientUnits="userSpaceOnUse">
<stop stop-color="#F1FFD2"/>
<stop offset="1" stop-color="#E3A8FF"/>
</linearGradient>
<linearGradient id="paint1_linear" x1="24.676" y1="0" x2="24.676" y2="94.8712" gradientUnits="userSpaceOnUse">
<stop stop-color="#D8E6C7"/>
<stop offset="1" stop-color="#BB77FF"/>
</linearGradient>
<linearGradient id="paint2_linear" x1="52.9507" y1="57.2043" x2="52.9507" y2="69.4624" gradientUnits="userSpaceOnUse">
<stop stop-color="#F2FFE3"/>
<stop offset="0.734375" stop-color="#E5B6FB"/>
</linearGradient>
</defs>
</svg>
