<svg height="512pt" viewBox="-90 0 512 512" width="512pt" xmlns="http://www.w3.org/2000/svg"><path d="m236.910156 130v243.460938h15v138.539062h-184.488281v-128h15v-254h-15v-130h184.488281v130zm0 0" fill="#0184ff"/><path d="m236.910156 130v243.460938h15v138.539062h-92.238281v-512h92.238281v130zm0 0" fill="#4b5be4"/><path d="m299.5 256c0 77.589844-62.449219 140.601562-139.828125 141.488281-.5625.011719-1.113281.011719-1.671875.011719-78.140625 0-141.5-63.351562-141.5-141.5s63.359375-141.5 141.5-141.5c.558594 0 1.109375 0 1.671875.011719 77.378906.886719 139.828125 63.898437 139.828125 141.488281zm0 0" fill="#84caff"/><path d="m299.5 256c0 77.589844-62.449219 140.601562-139.828125 141.488281v-282.976562c77.378906.886719 139.828125 63.898437 139.828125 141.488281zm0 0" fill="#97a1f1"/><path d="m296.761719 241h35.472656v30h-35.472656zm0 0" fill="#97a1f1"/><path d="m204.800781 241v30h-61.800781v-89h30v59zm0 0" fill="#0184ff"/><g fill="#e0e4f9"><path d="m67.421875 43.671875h184.488281v30h-184.488281zm0 0"/><path d="m67.421875 438.328125h184.488281v30h-184.488281zm0 0"/><path d="m159.671875 98.011719c-.5625-.011719-1.113281-.011719-1.671875-.011719-87.121094 0-158 70.878906-158 158s70.878906 158 158 158c.558594 0 1.109375 0 1.671875-.011719 86.347656-.898437 156.328125-71.429687 156.328125-157.988281s-69.980469-157.089844-156.328125-157.988281zm0 285.6875c-.5625.011719-1.113281.011719-1.671875.011719-70.421875 0-127.710938-57.289063-127.710938-127.710938s57.289063-127.710938 127.710938-127.710938c.558594 0 1.109375 0 1.671875.011719 69.648437.898438 126.039063 57.839844 126.039063 127.699219s-56.390626 126.800781-126.039063 127.699219zm0 0"/></g><path d="m159.671875 43.671875h92.238281v30h-92.238281zm0 0" fill="#c5c9f7"/><path d="m159.671875 438.328125h92.238281v30h-92.238281zm0 0" fill="#c5c9f7"/><path d="m204.800781 271h-45.128906v-89h13.328125v59h31.800781zm0 0" fill="#4b5be4"/><path d="m316 256c0 86.558594-69.980469 157.089844-156.328125 157.988281v-30.289062c69.648437-.898438 126.039063-57.839844 126.039063-127.699219s-56.390626-126.800781-126.039063-127.699219v-30.289062c86.347656.898437 156.328125 71.429687 156.328125 157.988281zm0 0" fill="#c5c9f7"/></svg>