<svg width="98" height="78" viewBox="0 0 98 78" fill="none" xmlns="http://www.w3.org/2000/svg">
<g clip-path="url(#clip0)">
<g clip-path="url(#clip1)">
<path d="M29.613 8.34328H22.8323C22.5905 8.34328 22.3945 7.86387 22.3945 7.27243V1.07085C22.3945 0.479411 22.5905 0 22.8323 0H29.613C29.8548 0 30.0508 0.479411 30.0508 1.07085V7.27243C30.0508 7.86387 29.8548 8.34328 29.613 8.34328Z" fill="#F8C091"/>
<path d="M32.3067 72.7611H19.8924C19.4496 72.7611 19.0908 72.2765 19.0908 71.6787V65.4096C19.0908 64.8118 19.4496 64.3271 19.8924 64.3271H32.3067C32.7494 64.3271 33.1082 64.8118 33.1082 65.4096V71.6787C33.1082 72.2765 32.7494 72.7611 32.3067 72.7611V72.7611Z" fill="#F8C091"/>
<path d="M30.1656 0H28.3281C28.5816 0 28.7875 0.479411 28.7875 1.07085V7.27243C28.7875 7.86387 28.5816 8.34328 28.3281 8.34328H30.1656C30.4193 8.34328 30.625 7.86387 30.625 7.27243V1.07085C30.625 0.479411 30.4193 0 30.1656 0V0Z" fill="#DC8839"/>
<path d="M33.1599 64.3271H29.7471C30.2179 64.3271 30.6003 64.8118 30.6003 65.4096V71.6787C30.6003 72.2765 30.2179 72.7611 29.7471 72.7611H33.1599C33.6311 72.7611 34.0131 72.2765 34.0131 71.6787V65.4096C34.0131 64.8118 33.6311 64.3271 33.1599 64.3271V64.3271Z" fill="#DC8839"/>
<path d="M34.8148 65.0456H18.2894C17.3469 65.0456 16.583 64.0763 16.583 62.8806V9.51655C16.583 8.32081 17.3469 7.35156 18.2894 7.35156H34.8148C35.7572 7.35156 36.5212 8.32081 36.5212 9.51655V62.8806C36.5212 64.0763 35.7572 65.0456 34.8148 65.0456Z" fill="#FF485C"/>
<path d="M22.4658 7.35156H30.6386V65.0456H22.4658V7.35156Z" fill="#FF5E81"/>
</g>
<g clip-path="url(#clip2)">
<path d="M50.8372 9.70144H43.7175C43.4636 9.70144 43.2578 9.22203 43.2578 8.63059V2.429C43.2578 1.83756 43.4636 1.35815 43.7175 1.35815H50.8372C51.0911 1.35815 51.2969 1.83756 51.2969 2.429V8.63059C51.2969 9.22203 51.0911 9.70144 50.8372 9.70144Z" fill="#F8C091"/>
<path d="M53.6902 74.1193H40.5597C40.0914 74.1193 39.7119 73.6347 39.7119 73.0368V66.7678C39.7119 66.1699 40.0914 65.6853 40.5597 65.6853H53.6902C54.1585 65.6853 54.538 66.1699 54.538 66.7678V73.0368C54.538 73.6347 54.1585 74.1193 53.6902 74.1193V74.1193Z" fill="#F8C091"/>
<path d="M51.3734 1.35815H49.3828C49.6574 1.35815 49.8805 1.83756 49.8805 2.429V8.63059C49.8805 9.22203 49.6574 9.70144 49.3828 9.70144H51.3734C51.6483 9.70144 51.8711 9.22203 51.8711 8.63059V2.429C51.8711 1.83756 51.6483 1.35815 51.3734 1.35815V1.35815Z" fill="#DC8839"/>
<path d="M54.5931 65.6853H50.9834C51.4814 65.6853 51.8858 66.1699 51.8858 66.7678V73.0368C51.8858 73.6347 51.4814 74.1193 50.9834 74.1193H54.5931C55.0915 74.1193 55.4955 73.6347 55.4955 73.0368V66.7678C55.4955 66.1699 55.0915 65.6853 54.5931 65.6853V65.6853Z" fill="#DC8839"/>
<path d="M56.3432 66.4037H38.8644C37.8676 66.4037 37.0596 65.4345 37.0596 64.2388V10.8747C37.0596 9.67896 37.8676 8.70972 38.8644 8.70972H56.3432C57.34 8.70972 58.148 9.67896 58.148 10.8747V64.2388C58.148 65.4345 57.34 66.4037 56.3432 66.4037Z" fill="#187309"/>
<path d="M43.2812 8.70972H51.9255V66.4037H43.2812V8.70972Z" fill="#5D9615"/>
</g>
<g clip-path="url(#clip3)">
<path d="M71.0852 9.40091L63.992 10.0216C63.739 10.0437 63.4933 9.58401 63.4431 8.99476L62.917 2.81615C62.8668 2.2269 63.0312 1.73133 63.2842 1.70919L70.3774 1.08853C70.6304 1.06639 70.8761 1.52609 70.9263 2.11534L71.4524 8.29395C71.5026 8.8832 71.3382 9.37877 71.0852 9.40091Z" fill="#F8C091"/>
<path d="M70.912 1.0418L68.9287 1.21533C69.2023 1.19139 69.4652 1.64958 69.5154 2.23883L70.0415 8.41744C70.0916 9.00669 69.9101 9.50377 69.6365 9.52771L71.6198 9.35417C71.8936 9.33021 72.0749 8.83316 72.0247 8.24391L71.4986 2.0653C71.4484 1.47605 71.1858 1.01784 70.912 1.0418V1.0418Z" fill="#DC8839"/>
<path d="M81.8536 71.9585L68.8352 73.6934C68.3708 73.7553 67.9323 73.3249 67.8554 72.7322L67.0493 66.5166C66.9725 65.9238 67.2864 65.3932 67.7507 65.3313L80.7692 63.5964C81.2335 63.5345 81.6721 63.9649 81.749 64.5577L82.555 70.7732C82.6319 71.366 82.318 71.8966 81.8536 71.9585V71.9585Z" fill="#F8C091"/>
<path d="M81.6639 63.4772L78.085 63.9541C78.5787 63.8883 79.042 64.3154 79.1189 64.9081L79.9249 71.1236C80.0018 71.7164 79.6631 72.2503 79.1694 72.3161L82.7483 71.8392C83.2425 71.7733 83.5807 71.2395 83.5038 70.6467L82.6978 64.4312C82.6209 63.8384 82.158 63.4113 81.6639 63.4772V63.4772Z" fill="#DC8839"/>
<path d="M83.4915 63.9581L66.1619 66.2676C65.1735 66.3993 64.2478 65.5451 64.094 64.3595L57.2325 11.4507C57.0787 10.2652 57.7552 9.19744 58.7435 9.06573L76.0732 6.75627C77.0615 6.62456 77.9873 7.47877 78.141 8.66431L85.0026 61.5731C85.1563 62.7587 84.4798 63.8264 83.4915 63.9581Z" fill="#3F60A0"/>
<path d="M63.123 8.48218L71.6936 7.34002L79.1119 64.5419L70.5414 65.684L63.123 8.48218Z" fill="#5277D5"/>
</g>
<path d="M83.4552 78.0001H14.4895C12.8826 78.0001 11.5801 76.6797 11.5801 75.0508V39.696H86.3648V75.0508C86.3648 76.6797 85.0621 78.0001 83.4552 78.0001V78.0001Z" fill="#F1D19A"/>
<path d="M48.9717 39.696V78.0001H83.4547C85.0615 78.0001 86.3642 76.6797 86.3642 75.0508V39.696H48.9717Z" fill="#EBB35E"/>
<path d="M76.9255 50.7542H21.0196C20.1414 50.7542 19.3103 50.3522 18.7579 49.66L12.2124 41.4605C10.6597 39.5154 12.1437 36.7466 14.7389 36.7466H83.2061C85.8014 36.7466 87.2852 39.5154 85.7325 41.4605L79.1871 49.66C78.6347 50.3522 77.8037 50.7542 76.9255 50.7542V50.7542Z" fill="#EBB35E"/>
<path d="M83.2062 36.7466H48.9727V50.754H76.9256C77.8038 50.754 78.6349 50.352 79.1873 49.6599L85.7326 41.4603C87.2853 39.5154 85.8013 36.7466 83.2062 36.7466V36.7466Z" fill="#E38F35"/>
<path d="M95.0631 54.4813C94.3185 54.4813 93.574 54.1934 93.0059 53.6175L81.3301 41.7817L85.4445 37.6108L97.1203 49.4467C98.2565 50.5984 98.2565 52.4658 97.1203 53.6175C96.5524 54.1934 95.8079 54.4813 95.0631 54.4813Z" fill="#E38F35"/>
<path d="M2.9377 54.4332C2.19312 54.4332 1.44855 54.1452 0.880461 53.5694C-0.255727 52.4176 -0.255727 50.5503 0.880461 49.3985L12.509 37.6106L16.6234 41.7815L4.99493 53.5694C4.42684 54.1452 3.68227 54.4332 2.9377 54.4332V54.4332Z" fill="#EBB35E"/>
</g>
<defs>
<clipPath id="clip0">
<rect width="98" height="78" fill="white"/>
</clipPath>
<clipPath id="clip1">
<rect width="19.9062" height="72.7612" fill="white" transform="translate(16.6523)"/>
</clipPath>
<clipPath id="clip2">
<rect width="21.0547" height="72.7612" fill="white" transform="translate(37.1328 1.35815)"/>
</clipPath>
<clipPath id="clip3">
<rect width="21.0596" height="72.7446" fill="white" transform="matrix(0.991237 -0.132098 0.12861 0.991695 56.082 2.00586)"/>
</clipPath>
</defs>
</svg>
