<svg viewBox="0 0 511 511.99949" xmlns="http://www.w3.org/2000/svg"><path d="m14.246094 414.40625c9.121094 9.117188 43.476562 34.988281 59.378906 35.203125 15.058594.210937 11.453125-24.601563 30.539062-31.386719-23.964843-37.535156 18.238282-128.511718 88.429688-202.945312 3.179688-3.605469 6.785156-7.210938 10.390625-10.816406 77.191406-77.191407 176.316406-125.84375 215.761719-100.820313 4.878906-13.359375 29.265625-5.089844 30.539062-16.964844 2.542969-22.054687-22.695312-61.289062-34.355468-72.949219-7.421876-7.421874-17.179688-11.664062-29.265626-13.148437-53.863281-7.210937-159.988281 53.953125-246.300781 140.265625-3.601562 3.605469-6.996093 6.996094-10.390625 10.8125-79.945312 83.34375-134.871094 181.953125-127.871094 233.484375 1.484376 12.089844 5.722657 21.84375 13.144532 29.265625zm0 0" fill="#ffd400"/><path d="m14.246094 414.40625c9.121094 9.117188 43.476562 34.988281 59.378906 35.203125 15.058594.210937 11.453125-24.601563 30.539062-31.386719-23.964843-37.535156 18.238282-128.511718 88.429688-202.945312l-63.621094-63.621094c-79.945312 83.34375-134.871094 181.953125-127.871094 233.484375 1.484376 12.089844 5.722657 21.84375 13.144532 29.265625zm0 0" fill="#ff9f00"/><path d="m14.246094 414.40625 84.828125 84.824219c39.441406 39.445312 160.109375-16.328125 262.746093-114.726563 3.605469-3.179687 7.210938-6.785156 10.816407-10.390625 105.394531-105.394531 168.046875-234.632812 127.117187-275.5625l-84.824218-84.824219c40.925781 40.925782-21.722657 170.164063-127.117188 275.5625-3.605469 3.601563-7.210938 7.210938-10.816406 10.390626-102.640625 98.398437-223.304688 154.171874-262.75 114.726562zm0 0" fill="#ffe470"/><path d="m14.246094 414.40625 84.828125 84.824219c39.441406 39.445312 160.109375-16.328125 262.746093-114.726563l-84.824218-84.824218c-102.640625 98.398437-223.304688 154.171874-262.75 114.726562zm0 0" fill="#fdbf00"/><g fill="#ff6c6c"><path d="m277.207031 384.71875c23.328125 23.324219 61.5 23.324219 84.828125 0 23.324219-23.328125 23.324219-61.5 0-84.828125-23.328125-23.324219-61.5-23.324219-84.828125 0-23.324219 23.328125-23.324219 61.5 0 84.828125zm0 0"/><path d="m425.535156 236.390625-21.207031 21.207031-21.203125-21.207031 21.203125-21.207031zm0 0"/><path d="m446.742188 172.773438-21.207032 21.203124-21.203125-21.203124 21.203125-21.207032zm0 0"/></g><path d="m236.921875 425.011719-21.207031 21.203125-21.207032-21.203125 21.207032-21.207031zm0 0" fill="#ff4949"/><path d="m173.300781 446.21875-21.207031 21.207031-21.207031-21.207031 21.207031-21.207031zm0 0" fill="#ff4949"/><path d="m277.207031 384.71875c23.328125 23.324219 61.5 23.324219 84.828125 0l-84.828125-84.828125c-23.324219 23.328125-23.324219 61.5 0 84.828125zm0 0" fill="#ff4949"/></svg>