<svg width="95" height="95" viewBox="0 0 95 95" fill="none" xmlns="http://www.w3.org/2000/svg">
<g clip-path="url(#clip0)">
<path d="M68.5486 69.6408C68.5486 87.7794 57.1543 95.0981 57.1543 95.0981H11.1113C11.1113 95.0981 -0.283081 87.7794 -0.283081 69.6408C-0.283081 51.5021 23.3774 33.4865 25.6151 29.1995C28.2876 24.0797 27.5995 9.76855 27.5995 9.76855H40.666C40.666 9.76855 39.978 24.0797 42.6505 29.1995C44.8881 33.4865 68.5486 51.5021 68.5486 69.6408V69.6408Z" fill="#DC801F"/>
<path d="M27.5996 9.76832L24.3329 3.20451C24.3329 3.20451 27.5996 -0.0773926 34.1328 -0.0773926C40.666 -0.0773926 43.9327 3.20451 43.9327 3.20451L40.666 9.76832H27.5996Z" fill="#E9AE48"/>
<path d="M19.433 95.0983C19.433 95.0983 23.6551 90.7395 29.7331 89.1252H38.5325C44.6105 90.7395 48.8326 95.0983 48.8326 95.0983H19.433Z" fill="#B5691A"/>
<path d="M34.1328 90.1752C41.3492 90.1752 47.1993 82.0937 47.1993 72.1247C47.1993 62.1557 41.3492 54.0742 34.1328 54.0742C26.9164 54.0742 21.0663 62.1557 21.0663 72.1247C21.0663 82.0937 26.9164 90.1752 34.1328 90.1752Z" fill="#F5CE89"/>
<path d="M27.5996 63.9199H40.6661V67.2018H27.5996V63.9199Z" fill="#E9AE48"/>
<path d="M32.4995 70.4839H35.7661V73.7658H32.4995V70.4839Z" fill="#E9AE48"/>
<path d="M13.2306 65.7414C11.6197 80.3131 16.2787 90.1527 19.5719 95.0981H15.703C15.1681 94.1894 14.623 93.1782 14.0901 92.0664C11.4727 86.6164 8.6369 77.5625 9.98438 65.3804C11.6544 50.2775 32.3587 26.1248 33.2386 25.1033L35.709 27.2529C35.6559 27.3145 30.3783 33.4516 24.9782 41.2913C17.9304 51.5226 13.8676 59.9776 13.2306 65.7414V65.7414Z" fill="#C96D0D"/>
<path d="M54.1756 92.0664C53.6427 93.1782 53.0976 94.1894 52.5627 95.0981H48.6999C49.6781 93.6285 50.5488 92.0895 51.305 90.4932C53.6978 85.4534 56.2866 77.0681 55.0351 65.7414C54.3981 59.9776 50.3353 51.5226 43.2875 41.2913C37.8874 33.4516 32.6098 27.3145 32.5567 27.2529L35.0271 25.1033C35.907 26.1248 56.6113 50.2775 58.2813 65.3804C59.0245 72.1042 58.9163 82.192 54.1756 92.0664V92.0664Z" fill="#C96D0D"/>
<path d="M42.6505 29.1995L34.1328 31.1009L25.6151 29.1995C26.5706 27.3678 27.0973 24.3628 27.377 21.2552C27.8834 15.6739 27.5996 9.76855 27.5996 9.76855H40.6661C40.6661 9.76855 40.3823 15.6739 40.8886 21.2552C41.1683 24.3628 41.695 27.3678 42.6505 29.1995V29.1995Z" fill="#F5CE89"/>
<path d="M27.3771 21.2552C27.8834 15.6739 27.5996 9.76855 27.5996 9.76855H40.6661C40.6661 9.76855 40.3823 15.6739 40.8886 21.2552H27.3771Z" fill="#E9AE48"/>
<path d="M22.6996 8.12769H45.566V11.4096H22.6996V8.12769Z" fill="#CE882A"/>
<path d="M77.2769 82.8333H80.2048V93.1637H77.2769V82.8333Z" fill="#B8CBD9" fill-opacity="0.24"/>
<path d="M71.6612 92.8948H85.5806C88.6554 92.8948 91.1484 93.8374 91.1484 95H66.0934C66.0934 93.8374 68.5864 92.8948 71.6612 92.8948Z" fill="#B8CBD9" fill-opacity="0.24"/>
<path d="M94.8443 68.0756C94.8443 77.0413 87.6347 84.3092 78.7409 84.3092C69.8471 84.3092 62.6374 77.0413 62.6374 68.0756C62.6374 63.3074 64.2958 58.6913 67.3238 55.0285L69.9571 51.842H87.5246L90.158 55.0285C93.1859 58.6913 94.8443 63.3074 94.8443 68.0756Z" fill="#B8CBD9" fill-opacity="0.24"/>
<path d="M84.6334 51.842H70.2692L67.6402 55.0485C64.6172 58.7342 62.9615 63.3793 62.9615 68.1774C62.9615 73.5722 65.5471 78.3413 69.5135 81.3157C78.7459 75.9245 84.8846 66.4059 84.8846 55.5546C84.8846 54.2965 84.7926 53.0595 84.6334 51.842V51.842Z" fill="#E8EFF4" fill-opacity="0.24"/>
<path d="M64.0055 71.842C65.812 78.522 71.6634 83.421 78.6209 83.421C85.5783 83.421 91.4298 78.522 93.2363 71.842H64.0055Z" fill="#E2711D"/>
<path d="M64.0055 71.842C64.9906 75.2619 67.1374 78.6841 70.2692 80.7894C74.1219 78.6105 77.1102 75.2155 79.6648 71.842H64.0055Z" fill="#FFA03D"/>
</g>
<defs>
<clipPath id="clip0">
<rect width="95" height="95" fill="white"/>
</clipPath>
</defs>
</svg>
