<svg width="47" height="89" viewBox="0 0 47 89" fill="none" xmlns="http://www.w3.org/2000/svg">
<g clip-path="url(#clip0)">
<path d="M4.50537 17.9431H37.301V85.3563C37.301 87.3687 35.6703 89.0003 33.657 89.0003H8.14933C6.13697 89.0003 4.50537 87.3687 4.50537 85.3563V17.9431Z" fill="#EBEBEB"/>
<path d="M4.50537 34.3409H37.301V81.7124H4.50537V34.3409Z" fill="#EC811E"/>
<path d="M4.50537 81.7123H37.301V85.3563C37.301 87.3687 35.6703 89.0003 33.657 89.0003H8.14933C6.13697 89.0003 4.50537 87.3687 4.50537 85.3563V81.7123Z" fill="#EBEBEB"/>
<path d="M31.8351 19.7651H28.1912V10.6552C28.1912 10.0271 28.515 9.44262 29.0479 9.10989L43.6237 0L45.5551 3.09772L31.8351 11.6658V19.7651Z" fill="#EBEBEB"/>
<path d="M28.1912 17.9431H31.8351V36.1629H28.1912V17.9431Z" fill="#DBDBDB"/>
<path d="M28.1912 34.3409H31.8351V72.6025H28.1912V34.3409Z" fill="#F3AF3E"/>
</g>
<defs>
<clipPath id="clip0">
<rect width="47" height="89" fill="white"/>
</clipPath>
</defs>
</svg>
