<svg width="73" height="73" viewBox="0 0 73 73" fill="none" xmlns="http://www.w3.org/2000/svg">
<g clip-path="url(#clip0)">
<path d="M32.2373 44.1667L22.5254 53.8801C21.6021 54.8033 20.4112 55.4288 19.0943 55.6564C16.6324 56.0772 14.6442 57.8965 14.0058 60.3098C13.6536 61.641 13.4189 62.9851 12.039 64.365L10.7637 65.6403C9.26787 67.1361 6.8431 67.1361 5.34873 65.6403L3.04563 63.3358L1.12185 61.412C-0.37395 59.9176 -0.37395 57.4929 1.12185 55.9971L22.5955 34.522L27.2275 39.1539L32.2373 44.1667Z" fill="#685E68"/>
<path d="M32.2374 44.1668L22.5254 53.8802C21.6021 54.8034 20.4112 55.4289 19.0944 55.6565C16.6324 56.0773 14.6442 57.8966 14.0058 60.3099C13.6537 61.6411 13.4189 62.9852 12.0391 64.3651L10.7637 65.6404C9.26789 67.1362 6.84312 67.1362 5.34876 65.6404L3.04565 63.3359L27.2275 39.1541L32.2374 44.1668Z" fill="#40383F"/>
<path d="M69.5007 18.6007L59.3493 8.44929C56.3992 5.50063 51.6184 5.50063 48.6697 8.44929L15.9683 41.1507L31.4587 56.6426L53.0565 39.7922L69.5007 18.6007ZM55.503 18.2944L55.0507 18.7467C54.2119 19.5855 52.8521 19.5855 52.0133 18.7467C51.1759 17.9079 51.1759 16.5495 52.0133 15.7107L52.4656 15.2584C53.3044 14.4196 54.6642 14.4196 55.503 15.2584C56.3418 16.0972 56.3418 17.4556 55.503 18.2944Z" fill="#D4DCEA"/>
<path d="M72.5782 23.7191L36.5774 59.7199C36.0134 60.2839 35.1002 60.2839 34.5362 59.7199L31.4587 56.6424L69.5007 18.6005L72.5782 21.6779C73.1406 22.2421 73.1406 23.1553 72.5782 23.7191Z" fill="white"/>
</g>
<defs>
<clipPath id="clip0">
<rect width="73" height="73" fill="white"/>
</clipPath>
</defs>
</svg>
