<svg width="71" height="70" viewBox="0 0 71 70" fill="none" xmlns="http://www.w3.org/2000/svg">
<g clip-path="url(#clip0)">
<path d="M7.51759 34.1387C7.51759 34.1387 10.3226 38.2015 16.2018 41.6406C16.2018 41.6406 11.9439 6.16178 39.687 0C32.5791 25.7197 48.7284 32.973 54.6151 19.3848C64.446 32.3254 56.9817 43.6153 56.9817 43.6153C61.0128 44.1879 64.3988 39.846 64.3988 39.846C64.4291 40.3808 64.446 40.9194 64.446 41.4617C64.4461 57.2229 51.4866 70 35.5 70C19.5135 70 6.55396 57.2229 6.55396 41.4616C6.55396 38.9298 6.8901 36.4757 7.51759 34.1387Z" fill="#FF6536"/>
<path d="M64.3989 39.846C64.3989 39.846 61.0129 44.1879 56.9818 43.6153C56.9818 43.6153 64.4461 32.3254 54.6152 19.3848C48.7285 32.973 32.5792 25.7197 39.6871 0C38.2012 0.330039 36.8078 0.744707 35.5 1.23293V70C51.4865 70 64.4461 57.2229 64.4461 41.4616C64.4461 40.9192 64.4292 40.3808 64.3989 39.846Z" fill="#FF421D"/>
<path d="M22.8054 57.4842C22.8054 64.3964 28.489 70 35.5 70C42.511 70 48.1946 64.3964 48.1946 57.4842C48.1946 53.7844 46.5664 50.4597 43.9778 48.1684C39.0697 54.7425 32.0754 44.7701 37.5263 37.4877C37.5263 37.4877 22.8054 39.3064 22.8054 57.4842Z" fill="#FBBF00"/>
<path d="M48.1946 57.4842C48.1946 53.7844 46.5664 50.4597 43.9778 48.1684C39.0697 54.7425 32.0754 44.7701 37.5263 37.4877C37.5263 37.4877 36.7264 37.5868 35.5 37.9684V70C42.511 70 48.1946 64.3964 48.1946 57.4842Z" fill="#FFA900"/>
</g>
<defs>
<clipPath id="clip0">
<rect width="71" height="70" fill="white"/>
</clipPath>
</defs>
</svg>
