<svg width="63" height="63" viewBox="0 0 63 63" fill="none" xmlns="http://www.w3.org/2000/svg">
<g clip-path="url(#clip0)">
<path d="M58.5007 4.49927L56.3245 4.93503L55.8901 7.10977C56.4626 7.68225 56.5283 8.92358 56.0658 10.4305C55.475 12.3555 54.0864 14.5093 52.256 16.3398C50.3357 18.26 45.2828 22.786 40.0617 26.8357C33.56 31.8786 30.5966 33.2364 29.4029 33.5969L23.8137 35.7055L31.6477 40.0588C40.3603 39.0503 54.1153 30.6438 58.5006 26.2585C64.4997 20.2595 64.4997 10.4983 58.5007 4.49927ZM32.9042 36.1091C33.0364 36.0402 33.158 35.9756 33.2641 35.9191C35.376 34.7939 38.0611 32.9981 41.2448 30.5815C46.8809 26.3033 52.7049 21.112 54.8665 18.9504C56.7102 17.1067 58.1619 15.0236 59.0582 12.9595C59.8431 16.6987 58.7876 20.7507 55.8902 23.6481C52.2988 27.2394 40.6846 34.4237 32.9042 36.1091Z" fill="#ECE6F2"/>
<path d="M39.352 7.10988C42.2494 4.21252 46.3013 3.1569 50.0405 3.94191C47.9766 4.83817 45.8935 6.28992 44.0498 8.13363C41.8882 10.2952 36.6969 16.1192 32.4186 21.7553C30.0021 24.939 28.2061 27.6241 27.0811 29.736C27.0246 29.8421 26.96 29.9636 26.8911 30.0959C28.5764 22.3154 35.7606 10.7012 39.352 7.10988ZM29.4031 33.5969C29.7637 32.4032 31.1214 29.44 36.1644 22.9382C40.2141 17.7172 44.74 12.6643 46.6603 10.7439C48.4907 8.91347 50.6445 7.52472 52.5696 6.9339C54.0763 6.47144 55.3178 6.53715 55.8903 7.10963L58.5008 4.49913C52.5018 -1.49987 42.7405 -1.49987 36.7415 4.49913C32.3561 8.88468 23.9497 22.6395 22.9412 31.3521L25.5541 37.4458L29.4031 33.5969Z" fill="#FFF5F5"/>
<path d="M29.0371 42.6693L31.6476 40.0586L27.2943 35.7053L21.2031 38.3159L29.0371 42.6693Z" fill="#198080"/>
<path d="M27.2944 35.7055L22.9411 31.3522L20.3306 33.9628L22.9435 40.0564L27.2944 35.7055Z" fill="#24B3B3"/>
<path d="M24.6839 38.3162L12.7782 46.7411L4.35327 58.6468L8.70657 63.0001L29.0372 42.6695L24.6839 38.3162Z" fill="#24B3B3"/>
<path d="M-0.00439453 54.2885L20.3232 33.9609L24.6758 38.3135L4.34827 58.6411L-0.00439453 54.2885Z" fill="#2EE6A8"/>
</g>
<defs>
<clipPath id="clip0">
<rect width="63" height="63" fill="white"/>
</clipPath>
</defs>
</svg>
