<svg width="80" height="80" viewBox="0 0 80 80" fill="none" xmlns="http://www.w3.org/2000/svg">
<g clip-path="url(#clip0)">
<path d="M32.0889 78.8525C31.9123 78.8525 31.736 78.851 31.5601 78.8481C9.84275 78.4821 -2.56999 53.904 9.79333 36.0831L27.2701 10.8913C28.3649 9.31328 30.1657 8.3717 32.0889 8.3717C34.0121 8.3717 35.813 9.31328 36.9076 10.8913L54.3845 36.0829C66.748 53.904 54.335 78.4821 32.6179 78.8478C32.4419 78.851 32.2655 78.8525 32.0889 78.8525Z" fill="#6ACCFF"/>
<path d="M36.9152 78.4462C35.5289 78.6853 34.0949 78.8232 32.6175 78.848C32.4417 78.851 32.2654 78.8525 32.0888 78.8525C31.8783 78.8525 31.6682 78.8503 31.4587 78.8462C9.78807 78.4093 -2.54443 53.8667 9.79302 36.0829L27.2699 10.8913C28.3647 9.31328 30.1656 8.3717 32.0888 8.3717C32.1081 8.3717 32.1272 8.37184 32.1465 8.37198C34.8952 8.39896 36.4755 11.5146 34.9117 13.7705L19.4461 36.0829C7.92376 52.6917 17.9219 75.1685 36.9152 78.4462Z" fill="#00B9FF"/>
<path d="M48.978 63.5306C48.978 66.0693 46.9159 68.1271 44.3718 68.1271C41.8277 68.1271 39.7656 66.0693 39.7656 63.5306C39.7656 60.9919 41.8277 58.934 44.3718 58.934C46.9159 58.9339 48.978 60.9919 48.978 63.5306ZM50.5134 49.7408C48.8175 49.7408 47.4425 51.1127 47.4425 52.8052C47.4425 54.4977 48.8173 55.8696 50.5134 55.8696C52.2093 55.8696 53.5843 54.4977 53.5843 52.8052C53.5843 51.1127 52.2093 49.7408 50.5134 49.7408Z" fill="#92EEFF"/>
<g clip-path="url(#clip1)">
<path d="M67.3295 32.8242C67.2502 32.8242 67.171 32.8236 67.092 32.8223C57.3414 32.6579 51.7684 21.6229 57.3192 13.6216L65.1659 2.31104C65.6575 1.60256 66.466 1.17981 67.3295 1.17981C68.193 1.17981 69.0015 1.60256 69.493 2.31104L77.3398 13.6216C82.8907 21.6229 77.3175 32.6579 67.567 32.8221C67.488 32.8236 67.4088 32.8242 67.3295 32.8242Z" fill="#6ACCFF"/>
<path d="M69.4964 32.6418C68.874 32.7492 68.2301 32.8111 67.5668 32.8222C67.4879 32.8236 67.4087 32.8242 67.3294 32.8242C67.2349 32.8242 67.1406 32.8233 67.0465 32.8214C57.3169 32.6252 51.7798 21.6061 57.3191 13.6216L65.1659 2.31104C65.6574 1.60256 66.4659 1.17981 67.3294 1.17981C67.3381 1.17981 67.3467 1.17987 67.3553 1.17993C68.5895 1.19205 69.299 2.59089 68.5969 3.60376L61.6531 13.6216C56.4798 21.0786 60.9688 31.1702 69.4964 32.6418Z" fill="#00B9FF"/>
<path d="M74.912 25.9451C74.912 27.0849 73.9862 28.0088 72.844 28.0088C71.7017 28.0088 70.7759 27.0849 70.7759 25.9451C70.7759 24.8053 71.7017 23.8813 72.844 23.8813C73.9862 23.8813 74.912 24.8053 74.912 25.9451ZM75.6014 19.7538C74.84 19.7538 74.2226 20.3697 74.2226 21.1296C74.2226 21.8895 74.8399 22.5055 75.6014 22.5055C76.3628 22.5055 76.9802 21.8895 76.9802 21.1296C76.9802 20.3697 76.3628 19.7538 75.6014 19.7538Z" fill="#92EEFF"/>
</g>
</g>
<defs>
<clipPath id="clip0">
<rect width="80" height="80" fill="white"/>
</clipPath>
<clipPath id="clip1">
<rect width="31.6444" height="31.6444" fill="white" transform="translate(51.5071 1.17981)"/>
</clipPath>
</defs>
</svg>
