<svg width="80" height="80" viewBox="0 0 80 80" fill="none" xmlns="http://www.w3.org/2000/svg">
<path d="M40 80C62.0914 80 80 62.0914 80 40C80 17.9086 62.0914 0 40 0C17.9086 0 0 17.9086 0 40C0 62.0914 17.9086 80 40 80Z" fill="#FFCE00"/>
<path d="M80 39.9999C80 38.9327 79.9581 37.8754 79.8761 36.8293L63.9556 20.909L60.7809 22.5859L46.414 8.21899L33.5859 14.5165L40.3164 21.247L21.0637 62.3823L38.6593 79.9779C39.1045 79.9926 39.5514 79.9999 40.0001 79.9999C62.0914 79.9999 80 62.0913 80 39.9999Z" fill="#FFA300"/>
<path d="M36.1058 11.1567H43.8942V21.236H36.1058V11.1567Z" fill="#555A66"/>
<path d="M39.9716 11.1567H43.8942V21.236H39.9716V11.1567Z" fill="#333940"/>
<path d="M16.0405 20.9092L21.547 15.4028L28.673 22.5288L23.1665 28.0352L16.0405 20.9092Z" fill="#555A66"/>
<path d="M56.8325 28.0435L51.3261 22.537L58.4521 15.411L63.9585 20.9175L56.8325 28.0435Z" fill="#333940"/>
<path d="M40.0001 70.3503C54.6311 70.3503 66.4919 58.4895 66.4919 43.8585C66.4919 29.2274 54.6311 17.3666 40.0001 17.3666C25.369 17.3666 13.5082 29.2274 13.5082 43.8585C13.5082 58.4895 25.369 70.3503 40.0001 70.3503Z" fill="#707789"/>
<path d="M40 17.3666C39.9905 17.3666 39.9811 17.3669 39.9716 17.3669V70.3499C39.9811 70.3499 39.9905 70.3502 40 70.3502C54.6311 70.3502 66.4919 58.4894 66.4919 43.8583C66.4919 29.2272 54.6311 17.3666 40 17.3666V17.3666Z" fill="#555A66"/>
<path d="M40 63.9936C51.1204 63.9936 60.1352 54.9788 60.1352 43.8584C60.1352 32.7381 51.1204 23.7233 40 23.7233C28.8797 23.7233 19.8649 32.7381 19.8649 43.8584C19.8649 54.9788 28.8797 63.9936 40 63.9936Z" fill="white"/>
<path d="M40 23.7233C39.9905 23.7233 39.9811 23.7236 39.9716 23.7236V63.9931C39.9811 63.9931 39.9905 63.9934 40 63.9934C51.1203 63.9934 60.1351 54.9786 60.1351 43.8583C60.1351 32.738 51.1203 23.7233 40 23.7233V23.7233Z" fill="#E9EDF5"/>
<path d="M33.5859 8.21899H46.4139V14.5165H33.5859V8.21899Z" fill="#707789"/>
<path d="M39.9716 8.21899H46.4141V14.5165H39.9716V8.21899Z" fill="#555A66"/>
<path d="M38.3347 42.2006L49.3816 31.1537L52.6957 34.4677L41.6488 45.5146L38.3347 42.2006Z" fill="#333940"/>
<path d="M40 47.9638C42.2673 47.9638 44.1054 46.1258 44.1054 43.8585C44.1054 41.5912 42.2673 39.7532 40 39.7532C37.7327 39.7532 35.8947 41.5912 35.8947 43.8585C35.8947 46.1258 37.7327 47.9638 40 47.9638Z" fill="#707789"/>
<path d="M40 39.7531C39.9905 39.7531 39.9811 39.7537 39.9716 39.7538V47.9631C39.9811 47.9631 39.9905 47.9638 40 47.9638C42.2673 47.9638 44.1053 46.1259 44.1053 43.8585C44.1053 41.5912 42.2673 39.7531 40 39.7531Z" fill="#555A66"/>
</svg>
