<svg width="109" height="54" viewBox="0 0 109 54" fill="none" xmlns="http://www.w3.org/2000/svg">
<path fill-rule="evenodd" clip-rule="evenodd" d="M17.6016 17.6493C17.6016 26.6221 35.2409 33.8959 57 33.8959C78.7591 33.8959 96.3984 26.622 96.3984 17.6493C96.3984 8.67643 78.7591 1.40259 57 1.40259C35.2409 1.40259 17.6016 8.67653 17.6016 17.6493Z" fill="url(#paint0_linear)"/>
<path fill-rule="evenodd" clip-rule="evenodd" d="M95.7969 16.8659C95.7969 25.8387 78.1576 33.1125 56.3984 33.1125C34.6393 33.1125 17 25.8386 17 16.8659V24.9895C17 33.9623 34.6393 41.2362 56.3984 41.2362C78.1576 41.2362 95.7969 33.9622 95.7969 24.9895V16.8659Z" fill="#442525"/>
<path d="M34.5 12.5789L26 8.78947L42 7.52632C45.3333 8.89474 51.8 11.8211 51 12.5789C50.2 13.3368 55.3333 18.1579 58 20.4737M34.5 12.5789L37 22.6842L34.5 29V30.5789L42 41M34.5 12.5789L19 20.4737M94 12.5789L78.5 24.8947V29V30.5789L68 33.1053L59.5 29L58 20.4737M58 20.4737L80 5M68 34.0526L51 41" stroke="#251A14" stroke-opacity="0.19"/>
<path d="M85.7319 4.93609C70.5975 -1.6454 43.402 -1.6454 28.2679 4.93629C20.3567 8.23078 16 12.6564 16 17.3978V25.602C16 30.3434 20.3567 34.7692 28.2679 38.0638C43.402 44.6455 70.5981 44.6454 85.7321 38.0638C93.6431 34.7692 98 30.3435 98 25.602V17.3978C97.9998 12.6564 93.6431 8.23078 85.7319 4.93609ZM30.0143 6.65532C37.1987 3.66335 46.7825 2.0155 56.9999 2.0155C67.2174 2.0155 76.8011 3.66325 83.9856 6.65532C98.3299 12.4655 98.3336 22.3301 83.9852 28.1402C76.801 31.1324 67.2172 32.7801 56.9999 32.7801C46.7826 32.7801 37.1989 31.1324 30.0143 28.1402C15.6699 22.3301 15.6662 12.4655 30.0143 6.65532V6.65532ZM94.7967 25.602C94.0698 36.1738 72.9319 41.0565 57.0001 40.9845C41.0756 41.0601 19.9213 36.1679 19.2031 25.602V24.2075C21.2805 26.3042 24.335 28.2216 28.2679 29.8595C43.402 36.4411 70.5981 36.441 85.7321 29.8595C89.665 28.2216 92.7193 26.3042 94.7969 24.2075V25.602H94.7967Z" fill="#251A14"/>
<circle cx="12" cy="41" r="5" fill="#251A14"/>
<circle cx="102.5" cy="22.5" r="3.5" fill="#251A14"/>
<circle cx="28.5" cy="44.5" r="3.5" fill="#251A14"/>
<circle cx="10.5" cy="25.5" r="3.5" fill="#251A14"/>
<circle cx="99.5" cy="37.5" r="3.5" fill="#251A14"/>
<defs>
<linearGradient id="paint0_linear" x1="57" y1="1.40259" x2="57" y2="33.8959" gradientUnits="userSpaceOnUse">
<stop stop-color="#663C39"/>
<stop offset="1" stop-color="#835A51"/>
</linearGradient>
</defs>
</svg>
