<svg width="80" height="80" viewBox="0 0 80 80" fill="none" xmlns="http://www.w3.org/2000/svg">
<g clip-path="url(#clip0)">
<path d="M54.7273 12.0105C49.2067 6.48988 40.6978 5.73243 34.3562 9.73939C33.9143 9.82545 33.4883 10.0409 33.1453 10.3839L33.058 10.4712C26.6359 5.66102 17.6173 6.01808 11.7812 11.8543C5.90957 17.7265 5.58303 26.8207 10.4866 33.2489C5.58303 39.6778 6.06521 48.9282 11.9374 54.8004C12.8535 55.7166 14.3367 55.7166 15.2528 54.8004L54.7273 15.3266C55.6435 14.4098 55.6435 12.9273 54.7273 12.0105Z" fill="#FAECD8"/>
<path d="M69.4397 46.8244C74.3432 40.3955 73.861 31.145 67.9895 25.2728C67.0727 24.3567 65.5896 24.3567 64.6734 25.2728L25.1996 64.7473C24.2834 65.6635 24.2834 67.1466 25.1996 68.0628C30.7202 73.5834 39.2291 74.3408 45.5706 70.3339C46.0125 70.2484 46.4386 70.033 46.7816 69.69L46.8689 69.6027C53.291 74.4122 62.3095 74.0552 68.1457 68.219C74.0173 62.3474 74.3438 53.2532 69.4397 46.8244Z" fill="#F4D7AF"/>
<path d="M77.9359 12.0105L67.9896 21.9574C67.0612 22.8858 65.6025 22.8858 64.6742 21.9574L58.0427 15.3266C57.1143 14.3976 57.1143 12.9389 58.0427 12.0105L67.9896 2.06424C70.7417 -0.687836 75.1844 -0.687836 77.9365 2.06424C80.6886 4.8157 80.688 9.25906 77.9359 12.0105Z" fill="#FF9B00"/>
<path d="M21.884 68.0627L12.0103 77.9364C9.25888 80.6879 4.81613 80.6879 2.06406 77.9364C-0.688019 75.1843 -0.688019 70.741 2.06406 67.9895L11.9371 58.1158C12.8654 57.1875 14.3242 57.1875 15.2525 58.1158L21.884 64.7473C22.8123 65.6757 22.8123 67.1344 21.884 68.0627Z" fill="#FF9B00"/>
<path d="M64.6736 21.9574L61.3582 18.642L77.9359 2.06419C80.688 4.81566 80.688 9.25841 77.9359 12.0105L67.9896 21.9574C67.0613 22.8857 65.6025 22.8857 64.6736 21.9574Z" fill="#FF8900"/>
<path d="M21.8842 68.0628L12.0105 77.9364C9.25903 80.6879 4.81628 80.6879 2.06421 77.9364L18.5681 61.4319L21.8842 64.7473C22.8125 65.6757 22.8125 67.1344 21.8842 68.0628Z" fill="#FF8900"/>
<path d="M67.9895 28.5889L66.3318 30.2466H59.7003L49.7534 20.2997V13.6688L51.4117 12.0105C54.1632 9.25903 58.606 9.25903 61.358 12.0105L67.9895 18.642C70.7416 21.394 70.7416 25.8368 67.9895 28.5889Z" fill="#FFB751"/>
<path d="M30.1728 66.405L28.5151 68.0627C25.7636 70.8148 21.3203 70.8148 18.5682 68.0627L11.9373 61.4318C9.18527 58.6798 9.18527 54.237 11.9373 51.4849L13.5951 49.8272H20.2265L30.1728 59.7741V66.405Z" fill="#FFB751"/>
<path d="M67.9894 28.5889L66.3317 30.2466H59.7002L54.7271 25.2728L64.674 15.3265L67.9894 18.642C70.7415 21.394 70.7415 25.8368 67.9894 28.5889Z" fill="#FF9B00"/>
<path d="M30.1727 59.7742V66.405L28.515 68.0628C25.7635 70.8148 21.3202 70.8148 18.5681 68.0628L15.2527 64.7473L25.1996 54.8004L30.1727 59.7742Z" fill="#FF9B00"/>
<path d="M13.595 49.8273L49.7528 13.6689L66.3306 30.2466L30.1727 66.4044L13.595 49.8273Z" fill="#FFB751"/>
<path d="M21.8835 58.1158L58.042 21.9574L66.3306 30.2466L30.1727 66.405L21.8835 58.1158Z" fill="#FF9B00"/>
</g>
<defs>
<clipPath id="clip0">
<rect width="80" height="80" fill="white"/>
</clipPath>
</defs>
</svg>
