<svg width="91" height="91" viewBox="0 0 91 91" fill="none" xmlns="http://www.w3.org/2000/svg">
<g clip-path="url(#clip0)">
<path d="M90.9999 45.5C90.9999 56.9535 86.7678 67.4187 79.7822 75.4172C79.7822 75.4172 76.1173 78.8415 74.1645 80.4445C66.3127 86.8905 56.4516 89.8994 45.4999 89.8994C20.3709 89.8994 1.03809 70.629 1.03809 45.5C1.03809 36.9707 2.76727 29.139 6.85055 22.3166C8.87214 18.9386 10.899 15.6954 13.6979 12.9595C21.9007 4.94165 33.1232 0 45.4999 0C70.6289 0 90.9999 20.371 90.9999 45.5V45.5Z" fill="#8E6452"/>
<path d="M45.4998 79.9888C64.5474 79.9888 79.9886 64.5476 79.9886 45.5C79.9886 26.4523 64.5474 11.0112 45.4998 11.0112C26.4522 11.0112 11.011 26.4523 11.011 45.5C11.011 64.5476 26.4522 79.9888 45.4998 79.9888Z" fill="#57321D"/>
<path d="M64.2333 33.3739C58.1557 39.5526 48.8618 39.8606 42.6833 33.783C39.9074 31.0524 38.0559 27.6127 37.8223 23.7281C37.8122 23.5615 37.7432 23.2096 37.7432 23.2096C37.7613 21.2323 38.5927 19.3165 40.1165 17.7675C41.4101 16.4525 43.1319 15.4823 44.678 14.8028C44.9785 14.6708 45.2151 14.4302 45.3421 14.1277C45.996 12.5706 46.9378 10.8328 48.2314 9.51764C49.883 7.83863 51.9789 6.96561 54.1329 7.05954C58.021 7.22891 61.691 8.82608 64.4671 11.5568C66.6687 13.7223 68.0963 16.3824 68.7469 19.1889C68.7469 19.1889 68.9177 20.6286 68.9827 21.3515C69.3826 25.7924 67.5976 29.9538 64.2333 33.3739V33.3739Z" fill="#FFFBEE"/>
<path d="M68.7354 19.1402C69.9308 24.2226 68.5739 29.7947 64.6499 33.7837C58.5728 39.9618 48.6013 40.044 42.4232 33.967C39.6467 31.2359 37.9893 27.5946 37.7565 23.7083C37.7474 23.5375 37.7408 23.3657 37.7432 23.1962C38.4243 26.0415 39.8922 28.6522 42.0081 30.7336C48.1862 36.8107 58.1578 36.7287 64.2348 30.5504C67.3383 27.3954 68.8366 23.2489 68.7354 19.1402Z" fill="#FBF6C7"/>
<path d="M53.8933 12.5472C51.1009 12.4254 49.5275 18.9088 49.5275 18.9088C49.5275 18.9088 44.773 20.146 43.5299 22.26C43.5299 22.26 43.4687 22.49 43.4276 22.5896C43.3188 22.8525 43.3347 23.0827 43.3519 23.3698C43.4984 25.805 44.6256 28.0051 46.5018 29.8506C50.5276 33.8104 56.5863 33.7729 60.5462 29.7473C62.6234 27.6354 63.6834 25.0508 63.5578 22.308C63.5398 21.9178 63.5382 21.1261 63.5382 21.1261C63.2035 19.0508 62.2281 17.0598 60.6147 15.4727C58.7386 13.6273 56.3307 12.6534 53.8933 12.5472V12.5472Z" fill="#FBF6C7"/>
<path d="M63.5384 21.1263C64.0392 24.2283 63.1067 27.5197 60.7339 29.9318C56.7741 33.9574 50.3008 34.0109 46.2752 30.051C44.3993 28.206 43.3853 25.8138 43.2383 23.3784C43.2156 22.9836 43.3245 22.6103 43.5302 22.2602C43.9833 23.9799 44.8895 25.606 46.2495 26.9439C50.2752 30.9037 56.7484 30.8503 60.7083 26.8247C62.2954 25.2112 63.2398 23.2054 63.5384 21.1263V21.1263Z" fill="#F6E3A3"/>
<path d="M31.0964 16.5312C32.1209 15.9423 33.09 15.5799 33.9324 15.3591C33.0396 13.8921 32.4998 12.1474 32.5137 9.56522C32.5188 8.62522 33.432 7.95522 34.3302 8.23255C36.7974 8.9944 38.2996 10.033 39.431 11.325C39.8945 10.5878 40.5311 9.77205 41.4004 8.97169C42.1642 8.26838 43.3985 8.61339 43.6962 9.60811C44.9528 13.8066 44.3869 18.4241 41.8016 20.3208C39.2163 22.2175 34.6419 21.3713 31.0143 18.9123C30.1549 18.3297 30.1963 17.0488 31.0964 16.5312V16.5312Z" fill="#89D47F"/>
<path d="M38.3702 63.5416C33.2627 70.6391 24.0433 72.3787 16.9459 67.2713C13.757 64.9766 11.3808 61.8324 10.5489 57.995C10.5132 57.8304 10.39 57.4902 10.39 57.4902C10.1033 55.5159 10.637 53.4774 11.9176 51.6981C13.0047 50.1875 14.572 48.9545 16.0089 48.0388C16.2882 47.8609 16.487 47.5846 16.567 47.2632C16.979 45.6099 17.6502 43.732 18.7373 42.2213C20.1254 40.2925 22.0805 39.0991 24.2427 38.8607C28.1456 38.4302 32.0513 39.457 35.2401 41.752C37.7691 43.572 39.6027 46.0041 40.6839 48.7022C40.6839 48.7022 41.076 50.1115 41.2524 50.8221C42.3359 55.1883 41.1976 59.6127 38.3702 63.5416V63.5416Z" fill="#FFFBEE"/>
<path d="M40.6652 48.6553C42.6406 53.5388 42.1465 59.3038 38.8488 63.886C33.7417 70.9829 23.8119 72.6019 16.715 67.4949C13.5256 65.1998 11.3115 61.8245 10.4805 57.9853C10.4449 57.8163 10.4118 57.6462 10.3882 57.4767C11.506 60.2089 13.372 62.5857 15.8026 64.3348C22.8995 69.442 32.8293 67.823 37.9365 60.7259C40.5445 57.1017 41.3994 52.7364 40.6652 48.6553V48.6553Z" fill="#FBF6C7"/>
<path d="M24.85 44.3692C22.0469 44.6783 21.4775 51.3853 21.4775 51.3853C21.4775 51.3853 16.9275 53.3518 16.014 55.6514C16.014 55.6514 15.9885 55.8901 15.9629 55.9958C15.895 56.2746 15.9462 56.5017 16.0078 56.7853C16.5292 59.1908 17.9922 61.2108 20.1474 62.7618C24.772 66.0896 30.8073 65.1183 34.1351 60.4939C35.8807 58.0681 36.5392 55.3275 35.9913 52.6119C35.9133 52.2256 35.7897 51.4364 35.7897 51.4364C35.1363 49.4187 33.8071 46.0207 31.9536 44.687C30.7305 43.8069 29.4294 44.7962 28.0426 44.5136C26.9858 44.2985 25.9081 44.2525 24.85 44.3692V44.3692Z" fill="#FBF6C7"/>
<path d="M35.7897 51.4366C36.7671 54.4524 36.3447 57.878 34.3505 60.649C31.0227 65.2734 24.5765 66.3244 19.9522 62.9965C17.7975 61.4459 16.4177 59.217 15.8957 56.8113C15.8122 56.4213 15.8633 56.032 16.0143 55.6513C16.7311 57.2961 17.8854 58.7778 19.4478 59.9022C24.0721 63.23 30.5185 62.179 33.8461 57.5547C35.1798 55.7013 35.8122 53.5558 35.7897 51.4366V51.4366Z" fill="#F6E3A3"/>
<path d="M31.7313 16.1925C31.5222 16.2968 31.3108 16.408 31.0963 16.5314C30.1963 17.0488 30.1549 18.3298 31.0143 18.9123C34.6419 21.3713 39.2163 22.2176 41.8016 20.3208C43.6797 18.943 44.4911 16.1292 44.3133 13.0834C41.8787 16.6774 35.6625 17.1138 31.7313 16.1925V16.1925Z" fill="#5EC783"/>
<path d="M38.3863 14.8097C38.3585 14.9908 38.2616 15.1613 38.1022 15.2781C37.7834 15.512 37.3353 15.4432 37.1015 15.1244L35.6056 13.0855C35.3717 12.7667 35.4405 12.3187 35.7593 12.0848C36.0781 11.8509 36.5261 11.9197 36.7599 12.2385L38.2559 14.2776C38.3728 14.4369 38.4141 14.6287 38.3863 14.8097V14.8097Z" fill="#5EC783"/>
<path d="M42.2789 12.7194L41.9711 14.723C41.9111 15.1137 41.5456 15.3818 41.1548 15.3218C40.7641 15.2618 40.4959 14.8963 40.556 14.5055L40.8638 12.502C40.9238 12.1112 41.2893 11.8431 41.68 11.9031C42.0708 11.9632 42.3389 12.3286 42.2789 12.7194Z" fill="#5EC783"/>
<path d="M23.7596 42.6603C15.9195 38.9667 12.5568 30.297 16.2505 22.4567C17.9101 18.9342 20.5443 16.0499 24.1334 14.5454C24.2874 14.4807 24.5967 14.2993 24.5967 14.2993C26.4689 13.6628 28.5518 13.8144 30.5174 14.7404C32.1861 15.5266 33.6709 16.831 34.8233 18.0656C35.0472 18.3055 35.3524 18.4494 35.68 18.4692C37.3658 18.5717 39.3171 18.8861 40.9858 19.6723C43.1165 20.676 44.6332 22.3655 45.2564 24.4296C46.3817 28.1551 46.0873 32.1468 44.4277 35.6694C43.1116 38.4632 41.073 40.6896 38.6392 42.2313C38.6392 42.2313 37.3369 42.8683 36.6762 43.1688C32.6171 45.0142 28.0995 44.7052 23.7596 42.6603Z" fill="#FFFBEE"/>
<path d="M38.6813 42.2046C34.2798 45.0128 28.5722 45.5738 23.5105 43.1889C15.6709 39.4955 12.2973 30.1117 15.9908 22.2721C17.6506 18.7489 20.5395 15.981 24.1303 14.4769C24.2884 14.4117 24.4483 14.3487 24.6092 14.2951C22.1489 15.8785 20.1702 18.1266 18.9052 20.8115C15.2117 28.6511 18.5851 38.0349 26.4248 41.7284C30.4283 43.6146 34.8369 43.6582 38.6813 42.2046V42.2046Z" fill="#FBF6C7"/>
<path d="M39.9979 26.0178C39.1897 23.3421 32.5507 24.0002 32.5507 24.0002C32.5507 24.0002 29.8116 19.9218 27.4053 19.4474C27.4053 19.4474 27.168 19.4658 27.0603 19.4599C26.7762 19.4441 26.5643 19.5351 26.299 19.6463C24.0491 20.5894 22.3452 22.3805 21.2235 24.7611C18.8169 29.8694 20.8549 35.5753 25.9632 37.982C28.6429 39.2444 31.4327 39.3905 33.9798 38.3654C34.3422 38.2196 35.0888 37.9563 35.0888 37.9563C36.9369 36.9546 38.4936 35.3759 39.4581 33.3285C40.5801 30.9477 40.7034 28.3532 39.9979 26.0178V26.0178Z" fill="#FBF6C7"/>
<path d="M35.0893 37.9563C32.3273 39.4543 28.9125 39.6621 25.8516 38.22C20.7433 35.8133 18.5533 29.7215 20.9599 24.6134C22.0812 22.2331 24.0038 20.4854 26.2539 19.5417C26.619 19.39 27.0073 19.3693 27.4056 19.4474C25.9324 20.4435 24.6972 21.8362 23.884 23.562C21.4774 28.6703 23.6674 34.7622 28.7757 37.1686C30.8229 38.1332 33.0282 38.3617 35.0893 37.9563V37.9563Z" fill="#F6E3A3"/>
<path d="M34.854 24.8689C34.3778 25.8533 33.1722 26.2754 32.1614 25.8117C31.1506 25.3479 30.7172 24.1738 31.1934 23.1894C31.6696 22.205 34.4891 21 34.4891 21C34.4891 21 35.3302 23.8845 34.854 24.8689V24.8689Z" fill="#FFFBEE"/>
<path d="M24.9436 55.815C26.1052 54.2379 27.3339 53.0416 28.4647 52.1445C26.1314 50.5143 24.1485 48.2272 22.447 44.3001C21.8276 42.8705 22.7663 41.2446 24.3141 41.0663C28.5658 40.5763 31.5379 41.1499 34.1164 42.3555C34.3279 40.9278 34.7495 39.2654 35.5346 37.4711C36.2243 35.8945 38.3273 35.5945 39.4425 36.9052C44.15 42.4371 46.3719 49.8206 43.7146 54.4232C41.0573 59.0257 33.5521 60.7935 26.4075 59.4825C24.7149 59.1718 23.9233 57.2007 24.9436 55.815V55.815Z" fill="#89D47F"/>
<path d="M25.681 54.8773C25.4334 55.1749 25.1869 55.4847 24.9437 55.815C23.9233 57.2005 24.715 59.1718 26.4075 59.4823C33.5521 60.7932 41.0573 59.0255 43.7146 54.423C45.645 51.0795 44.999 46.2688 42.6973 41.7662C41.401 48.8434 32.2605 53.6525 25.681 54.8773V54.8773Z" fill="#5EC783"/>
<path d="M34.8561 48.3396C34.9347 48.633 34.9014 48.9563 34.7375 49.24C34.4098 49.8075 33.6841 50.0019 33.1166 49.6743L29.4867 47.5786C28.9192 47.2509 28.7247 46.5252 29.0524 45.9577C29.3801 45.3902 30.1058 45.1957 30.6731 45.5234L34.3032 47.6192C34.5869 47.783 34.7775 48.0464 34.8561 48.3396V48.3396Z" fill="#5EC783"/>
<path d="M39.368 42.5711L40.2375 45.8164C40.4071 46.4493 40.0315 47.1 39.3985 47.2696C38.7656 47.4392 38.1149 47.0635 37.9453 46.4306L37.0758 43.1853C36.9062 42.5524 37.2818 41.9017 37.9148 41.7321C38.5477 41.5625 39.1984 41.9382 39.368 42.5711Z" fill="#5EC783"/>
<path d="M35.3615 54.262C35.5311 54.8949 35.1554 55.5456 34.5225 55.7152L31.2772 56.5847C30.6442 56.7543 29.9936 56.3787 29.824 55.7457C29.6544 55.1128 30.0301 54.4621 30.663 54.2925L33.9083 53.423C34.5412 53.2534 35.1919 53.629 35.3615 54.262Z" fill="#89D47F"/>
<path d="M53.2998 58.5666C45.149 62.1069 36.1945 58.8307 32.6543 50.6797C31.0637 47.0175 30.6243 43.0364 31.8941 39.2534C31.9487 39.091 32.0181 38.7299 32.0181 38.7299C32.7946 36.857 34.3209 35.3549 36.3645 34.4674C38.0993 33.7139 40.109 33.4527 41.8398 33.4005C42.1762 33.3904 42.4935 33.2525 42.7304 33.0136C43.95 31.7843 45.5128 30.4938 47.2476 29.7403C49.4628 28.7782 51.7905 28.7531 53.8024 29.6697C57.4338 31.3238 60.3099 34.2517 61.9005 37.914C63.162 40.8183 63.4976 43.8955 63.0384 46.8137C63.0384 46.8137 62.6479 48.2481 62.4322 48.9604C61.1071 53.3359 57.8119 56.6068 53.2998 58.5666V58.5666Z" fill="#FFFBEE"/>
<path d="M63.0464 46.763C62.2313 52.0542 58.8013 56.8305 53.5389 59.1163C45.3886 62.6563 35.8768 58.9052 32.3368 50.7549C30.7458 47.0922 30.5684 42.9937 31.8397 39.2095C31.8966 39.0436 31.9561 38.8777 32.0237 38.7175C31.5786 41.6842 31.9715 44.7301 33.184 47.5214C36.724 55.6717 46.2358 59.4228 54.3861 55.8828C58.5479 54.0749 61.5648 50.7081 63.0464 46.763Z" fill="#FCF2D0"/>
<path d="M51.4677 34.795C48.8596 33.6068 44.8739 39.1666 44.8739 39.1666C44.8739 39.1666 39.8785 38.517 37.8849 40.0497C37.8849 40.0497 37.7386 40.2449 37.6612 40.3238C37.4568 40.532 37.3836 40.7568 37.2896 41.0364C36.4937 43.4079 36.7204 45.9325 37.7955 48.4076C40.1022 53.7184 45.7155 56.4821 51.0262 54.1754C53.8121 52.9653 55.9739 50.4424 56.9079 47.7865C57.0408 47.4088 57.3431 46.6553 57.3431 46.6553C57.8219 44.5537 57.6592 42.2862 56.7347 40.1577C55.6595 37.6826 53.7442 35.832 51.4677 34.795V34.795Z" fill="#FCF2D0"/>
<path d="M57.3429 46.6553C56.6278 49.7968 55.1745 52.9803 51.9923 54.3625C46.6815 56.6692 39.8094 53.8216 37.5027 48.5111C36.428 46.0365 36.3824 43.3728 37.1781 41.0009C37.3081 40.6169 37.5551 40.3037 37.8849 40.0499C37.6553 41.8587 37.8924 43.7527 38.6716 45.5471C40.9783 50.8578 47.1531 53.2929 52.4639 50.9864C54.5923 50.0617 56.2605 48.5175 57.3429 46.6553V46.6553Z" fill="#F6E3A3"/>
<path d="M79.8983 57.8529C74.836 64.8876 65.6983 66.6118 58.6638 61.5495C55.5032 59.2751 53.148 56.1587 52.3237 52.3554C52.2883 52.1923 52.1662 51.855 52.1662 51.855C51.882 49.898 52.411 47.8779 53.6802 46.1141C54.7578 44.6169 56.3112 43.3949 57.7353 42.4873C58.012 42.311 58.2092 42.0371 58.2884 41.7187C58.6968 40.0799 59.362 38.2187 60.4395 36.7213C61.8151 34.8096 63.753 33.6268 65.896 33.3904C69.7643 32.9638 73.6354 33.9814 76.796 36.2561C79.3027 38.06 81.1199 40.4705 82.1916 43.1448C82.1916 43.1448 82.5803 44.5415 82.7552 45.246C83.8289 49.5736 82.7006 53.9588 79.8983 57.8529V57.8529Z" fill="#FFFBEE"/>
<path d="M82.1731 43.0985C84.131 47.9385 83.6412 53.6525 80.3729 58.1942C75.311 65.2283 65.4692 66.833 58.4351 61.7711C56.0951 60.0871 54.285 57.8167 53.1683 55.2073C52.7765 54.2917 53.1632 53.9401 53.8271 54.8888C54.8323 56.3252 56.0801 57.5948 57.531 58.639C64.5651 63.7009 74.4068 62.0962 79.4688 55.0621C82.0536 51.4701 82.9008 47.1435 82.1731 43.0985V43.0985Z" fill="#FBF6C7"/>
<path d="M47.8801 81.321C39.2135 81.321 32.4766 74.9113 32.4766 66.2447C32.4766 62.3507 33.6303 58.6188 36.2359 55.7283C36.3478 55.6043 36.5501 55.3082 36.5501 55.3082C37.9725 53.9344 39.9214 53.1839 42.0942 53.1839C43.9389 53.1839 45.838 53.731 47.4066 54.3568C47.7115 54.4784 48.0489 54.4784 48.3536 54.3568C49.9222 53.731 51.8215 53.1839 53.6662 53.1839C56.0214 53.1839 58.1135 54.0659 59.557 55.6673C62.1627 58.5579 63.5978 62.2943 63.5978 66.1883C63.5978 69.2764 62.7027 72.1595 61.158 74.5914C61.158 74.5914 60.2513 75.7228 59.7817 76.2761C56.8962 79.6755 52.6776 81.321 47.8801 81.321V81.321Z" fill="#FFFBEE"/>
<path d="M61.1845 74.5492C58.3996 78.9655 53.4755 81.9055 47.88 81.9055C39.214 81.9055 32.1628 74.8544 32.1628 66.1883C32.1628 62.2938 33.5965 58.5586 36.2038 55.6675C36.3192 55.5411 36.4369 55.4159 36.5596 55.2989C35.0087 57.7799 34.1769 60.6569 34.1769 63.6249C34.1769 72.291 41.2281 79.3421 49.8941 79.3421C54.3196 79.3421 58.3263 77.5025 61.1845 74.5492Z" fill="#FBF6C7"/>
<path d="M55.4768 59.3448C53.6054 57.2687 47.8801 60.6935 47.8801 60.6935C47.8801 60.6935 43.6638 58.1715 41.285 58.7679C41.285 58.7679 41.0783 58.8856 40.9783 58.9261C40.7147 59.033 40.5616 59.2057 40.3692 59.4191C38.7357 61.2313 37.9578 63.5777 37.9578 66.2094C37.9578 71.8563 42.2333 76.1492 47.8801 76.1492C50.8422 76.1492 53.4283 75.0924 55.2956 73.0794C55.5612 72.793 56.1244 72.2366 56.1244 72.2366C57.3693 70.5428 58.1047 68.4512 58.1047 66.1879C58.1047 63.5564 57.1102 61.1569 55.4768 59.3448V59.3448Z" fill="#FBF6C7"/>
<path d="M56.1246 72.237C54.2643 74.7692 51.2639 76.4125 47.8802 76.4125C42.2335 76.4125 37.656 71.8351 37.656 66.1883C37.656 63.5572 38.6502 61.1568 40.2835 59.3441C40.549 59.0511 40.8915 58.8669 41.2852 58.7681C40.377 60.2969 39.8532 62.0832 39.8532 63.9911C39.8532 69.6379 44.4306 74.2153 50.0774 74.2153C52.3405 74.2153 54.4328 73.482 56.1246 72.237V72.237Z" fill="#F6E3A3"/>
<path d="M66.4982 38.8504C63.72 39.1567 63.1555 45.8043 63.1555 45.8043C63.1555 45.8043 58.6458 47.7534 57.7404 50.0326C57.7404 50.0326 57.7151 50.2692 57.6897 50.3739C57.6223 50.6504 57.6732 50.8754 57.7342 51.1565C58.2509 53.5408 59.701 55.5428 61.837 57.0801C66.4206 60.3784 72.4024 59.4157 75.7007 54.8322C77.431 52.4277 78.0836 49.7115 77.5405 47.0201C77.4632 46.6372 77.3405 45.855 77.3405 45.855C76.6927 43.8552 75.4246 42.0367 73.5876 40.7147C71.4515 39.1774 68.9231 38.5829 66.4982 38.8504V38.8504Z" fill="#FBF6C7"/>
<path d="M77.3408 45.855C78.3095 48.8441 77.8908 52.2393 75.9144 54.9858C72.6161 59.5691 66.227 60.6108 61.6435 57.3126C59.5079 55.7757 58.1403 53.5666 57.6229 51.1823C57.5401 50.7956 57.5906 50.41 57.7404 50.0328C58.4508 51.6629 59.5948 53.1315 61.1435 54.2459C65.7268 57.5442 72.116 56.5024 75.4144 51.9191C76.7362 50.082 77.3631 47.9555 77.3408 45.855V45.855Z" fill="#F6E3A3"/>
</g>
<defs>
<clipPath id="clip0">
<rect width="91" height="91" fill="white"/>
</clipPath>
</defs>
</svg>
