<svg width="78" height="78" viewBox="0 0 78 78" fill="none" xmlns="http://www.w3.org/2000/svg">
<g clip-path="url(#clip0)">
<path d="M65.765 12.6978H16.8238L11.9297 17.535V65.9071L16.8238 70.7443H65.765L70.6591 65.9071V17.535L65.765 12.6978Z" fill="#006837"/>
<path d="M11.9291 40.5117H4.58789V42.9303H11.9291V40.5117Z" fill="#9D9E68"/>
<path d="M11.9291 34.4651H4.58789V36.8837H11.9291V34.4651Z" fill="#9D9E68"/>
<path d="M11.9291 28.4187H4.58789V30.8373H11.9291V28.4187Z" fill="#9D9E68"/>
<path d="M11.9291 22.3721H4.58789V24.7907H11.9291V22.3721Z" fill="#9D9E68"/>
<path d="M11.9291 58.6511H4.58789V61.0697H11.9291V58.6511Z" fill="#9D9E68"/>
<path d="M11.9291 52.6047H4.58789V55.0233H11.9291V52.6047Z" fill="#9D9E68"/>
<path d="M11.9291 46.5581H4.58789V48.9767H11.9291V46.5581Z" fill="#9D9E68"/>
<path d="M77.9994 40.5117H70.6582V42.9303H77.9994V40.5117Z" fill="#9D9E68"/>
<path d="M77.9994 34.4651H70.6582V36.8837H77.9994V34.4651Z" fill="#9D9E68"/>
<path d="M77.9994 28.4187H70.6582V30.8373H77.9994V28.4187Z" fill="#9D9E68"/>
<path d="M77.9994 22.3721H70.6582V24.7907H77.9994V22.3721Z" fill="#9D9E68"/>
<path d="M77.9994 58.6511H70.6582V61.0697H77.9994V58.6511Z" fill="#9D9E68"/>
<path d="M77.9994 52.6047H70.6582V55.0233H77.9994V52.6047Z" fill="#9D9E68"/>
<path d="M77.9994 46.5581H70.6582V48.9767H77.9994V46.5581Z" fill="#9D9E68"/>
<path d="M42.5174 5.44189H40.0703V12.6977H42.5174V5.44189Z" fill="#9D9E68"/>
<path d="M48.6346 5.44189H46.1875V12.6977H48.6346V5.44189Z" fill="#9D9E68"/>
<path d="M54.7527 5.44189H52.3057V12.6977H54.7527V5.44189Z" fill="#9D9E68"/>
<path d="M60.8699 5.44189H58.4229V12.6977H60.8699V5.44189Z" fill="#9D9E68"/>
<path d="M24.1648 5.44189H21.7178V12.6977H24.1648V5.44189Z" fill="#9D9E68"/>
<path d="M30.282 5.44189H27.835V12.6977H30.282V5.44189Z" fill="#9D9E68"/>
<path d="M36.3992 5.44189H33.9521V12.6977H36.3992V5.44189Z" fill="#9D9E68"/>
<path d="M42.5174 70.7441H40.0703V78H42.5174V70.7441Z" fill="#9D9E68"/>
<path d="M48.6346 70.7441H46.1875V78H48.6346V70.7441Z" fill="#9D9E68"/>
<path d="M54.7527 70.7441H52.3057V78H54.7527V70.7441Z" fill="#9D9E68"/>
<path d="M60.8699 70.7441H58.4229V78H60.8699V70.7441Z" fill="#9D9E68"/>
<path d="M24.1648 70.7441H21.7178V78H24.1648V70.7441Z" fill="#9D9E68"/>
<path d="M30.282 70.7441H27.835V78H30.282V70.7441Z" fill="#9D9E68"/>
<path d="M36.3992 70.7441H33.9521V78H36.3992V70.7441Z" fill="#9D9E68"/>
<path d="M63.3176 19.9534H19.2705V63.4883H63.3176V19.9534Z" fill="#009245"/>
<path d="M30.2828 26H25.3887V30.8372H30.2828V26Z" fill="#CFC356"/>
<path d="M51.0826 32.0464H46.1885V36.8836H51.0826V32.0464Z" fill="#CFC356"/>
<path d="M40.0709 41.7209H35.1768V46.5582H40.0709V41.7209Z" fill="#CFC356"/>
<path d="M36.4 52.6047H31.5059V57.4419H36.4V52.6047Z" fill="#CFC356"/>
<path d="M57.2008 44.1396H52.3066V48.9769H57.2008V44.1396Z" fill="#CFC356"/>
<path d="M49.8592 32.0463H47.4121V25.9998C47.4121 25.332 47.9599 24.7905 48.6356 24.7905H63.318V27.2091H49.8592V32.0463Z" fill="#95AD00"/>
<path d="M35.1764 45.3487H27.8352C27.1595 45.3487 26.6117 44.8073 26.6117 44.1394V38.0929H19.2705V35.6743H27.8352C28.5109 35.6743 29.0587 36.2158 29.0587 36.8836V42.9301H35.1764V45.3487Z" fill="#95AD00"/>
<path d="M38.8474 33.2556H36.4004V35.6742H38.8474V33.2556Z" fill="#95AD00"/>
<path d="M47.4119 45.1855H44.9648V47.6041H47.4119V45.1855Z" fill="#95AD00"/>
<path d="M26.6121 53.8137H24.165V56.2323H26.6121V53.8137Z" fill="#95AD00"/>
<path d="M58.4236 33.2556H55.9766V35.6742H58.4236V33.2556Z" fill="#95AD00"/>
<path d="M47.4122 63.4881H44.9651V56.2323H36.4004V53.8137H46.1886C46.8643 53.8137 47.4122 54.3552 47.4122 55.023V63.4881Z" fill="#95AD00"/>
<path d="M55.9764 54.5224V48.9766H53.5293V55.0231C53.5293 55.3438 53.6584 55.6513 53.8878 55.878L61.5875 63.4882H63.3175V61.7782L55.9764 54.5224Z" fill="#95AD00"/>
<path d="M43.2345 19.9534L35.8933 27.2092H30.2822V29.6278H36.3999C36.7244 29.6278 37.0355 29.5002 37.2649 29.2735L46.6947 19.9534H43.2345Z" fill="#95AD00"/>
<g clip-path="url(#clip1)">
<path fill-rule="evenodd" clip-rule="evenodd" d="M43.9542 0H1.01745C0.88433 0 0.752069 0.0264375 0.627093 0.0769687C0.37666 0.178125 0.177311 0.373125 0.0738027 0.618187C0.0220485 0.740343 -0.00488281 0.869812 -0.00488281 1.00003V45C-0.00488281 45.5528 0.452279 46 1.01745 46C1.58263 46 2.03979 45.5528 2.03979 45V39.5038C10.3589 33.1545 20.9162 30.7111 31.2242 32.7144C31.8352 32.8332 32.4693 32.6535 32.9119 32.2159V32.2159C33.3643 31.7687 33.5486 31.1195 33.4228 30.496C31.3926 20.4338 33.8884 10.1233 40.3655 1.99997H43.9542C44.5193 1.99997 44.9766 1.55278 44.9766 0.999937C44.9766 0.447093 44.5194 0 43.9542 0ZM3.48536 2.00006L11.8496 10.1816C11.8077 8.50415 12.1303 6.846 12.9077 5.3145C13.5634 4.02065 14.4729 2.90625 15.5653 2.00006H3.48536ZM5.42806 12.6298C6.99563 11.8674 8.69326 11.5506 10.3965 11.5884L2.03979 3.414V15.231C2.96619 14.1624 4.10545 13.2722 5.42806 12.6298ZM6.33672 14.4218C4.30068 15.4101 2.78668 17.1072 2.03979 19.2012V26.4358C6.83395 21.913 13.553 19.9224 20.1352 21.1148L12.8349 13.9738C10.63 13.2896 8.35274 13.4424 6.33672 14.4218ZM14.7387 6.20315C13.728 8.19375 13.5726 10.4416 14.2717 12.551L21.5835 19.7031C20.3647 13.266 22.3968 6.69196 27.0215 1.99997H19.6258C17.484 2.73056 15.7479 4.21256 14.7387 6.20315ZM2.03979 29.3896V37.0161C10.0839 31.3714 19.9161 29.0458 29.6595 30.4311L22.9571 23.8749L21.5075 23.4708C14.3643 21.4798 6.76571 23.8106 2.03979 29.3896ZM24.4017 22.4599L31.0986 29.0108C29.679 19.4822 32.0538 9.8684 37.8205 2.00006H30.0403C24.3381 6.62465 21.9532 14.0535 23.9895 21.0421L24.4017 22.4599Z" fill="#E6E7E8"/>
<path d="M11.8496 10.1816L3.48536 2.00006H15.5653C14.4729 2.90625 13.5634 4.02065 12.9077 5.3145C12.1303 6.846 11.8077 8.50415 11.8496 10.1816ZM10.3965 11.5884C8.69326 11.5506 6.99563 11.8674 5.42806 12.6298C4.10545 13.2722 2.96619 14.1624 2.03979 15.231V3.414L10.3965 11.5884ZM2.03979 19.2012C2.78668 17.1072 4.30068 15.4101 6.33672 14.4218C8.35274 13.4424 10.63 13.2896 12.8349 13.9738L20.1352 21.1148C13.553 19.9224 6.83395 21.913 2.03979 26.4358V19.2012ZM14.2717 12.551C13.5726 10.4416 13.728 8.19375 14.7387 6.20315C15.7479 4.21256 17.484 2.73056 19.6258 1.99997H27.0215C22.3968 6.69196 20.3647 13.266 21.5835 19.7031L14.2717 12.551ZM2.03979 37.0161V29.3896C6.76571 23.8106 14.3643 21.4798 21.5075 23.4708L22.9571 23.8749L29.6595 30.4311C19.9161 29.0458 10.0839 31.3714 2.03979 37.0161ZM31.0986 29.0108L24.4017 22.4599L23.9895 21.0421C21.9532 14.0535 24.3381 6.62465 30.0403 2.00006H37.8205C32.0538 9.8684 29.679 19.4822 31.0986 29.0108Z" fill="url(#paint0_linear)"/>
</g>
</g>
<defs>
<linearGradient id="paint0_linear" x1="-4.68782" y1="10.6073" x2="38.6783" y2="31.2801" gradientUnits="userSpaceOnUse">
<stop stop-color="white" stop-opacity="0.2"/>
<stop offset="1" stop-color="white" stop-opacity="0"/>
</linearGradient>
<clipPath id="clip0">
<rect width="78" height="78" fill="white"/>
</clipPath>
<clipPath id="clip1">
<rect width="46" height="46" fill="white"/>
</clipPath>
</defs>
</svg>
