<svg width="85" height="74" viewBox="0 0 85 74" fill="none" xmlns="http://www.w3.org/2000/svg">
<path d="M84.9999 45.6772C84.9999 60.9919 72.6408 73.4446 57.3951 73.4446C42.1494 73.4446 29.7153 60.9919 29.7153 45.6772C29.7153 30.3625 42.1494 0.555298 57.3951 0.555298C72.6408 0.555298 84.9999 30.3627 84.9999 45.6772Z" fill="#FCD0A3"/>
<path d="M73.6418 11.945C77.6763 21.0663 80.0804 30.9837 80.0804 38.0827C80.0804 51.1195 71.9737 62.2787 60.5478 66.7133C57.5117 67.8917 54.7071 64.6057 56.2982 61.7534C58.9526 56.9948 60.4675 51.5111 60.4675 45.6774C60.4675 36.8984 57.0527 24.8234 51.7679 14.9146C49.9703 11.5442 48.0424 8.57877 46.0145 6.04175C36.418 15.378 29.7156 34.4335 29.7156 45.6772C29.7156 60.9919 42.1498 73.4446 57.3954 73.4446C72.6411 73.4446 85.0001 60.9919 85.0001 45.6772C84.9999 36.4632 80.5263 22.0032 73.6418 11.945Z" fill="#FFB983"/>
<path d="M55.2845 45.6772C55.2845 60.9919 42.9255 73.4446 27.6798 73.4446C12.4341 73.4446 0 60.9919 0 45.6772C0 30.3625 12.4341 0.555298 27.6798 0.555298C42.9255 0.555298 55.2845 30.3627 55.2845 45.6772Z" fill="#F1FAFF"/>
<path d="M43.9261 11.9449C47.9606 21.0663 50.3647 30.9837 50.3647 38.0826C50.3647 55.0016 36.7109 68.7591 19.8681 68.7591C16.4907 68.7591 13.2388 68.2047 10.197 67.1838C14.9693 71.0953 21.0589 73.4447 27.6798 73.4447C42.9255 73.4447 55.2845 60.9921 55.2845 45.6774C55.2844 36.4632 50.8106 22.0032 43.9261 11.9449Z" fill="#C7EEFB"/>
<path d="M27.6797 62.1643C36.2671 62.1643 43.2286 55.1713 43.2286 46.5451C43.2286 37.9188 36.2671 30.9258 27.6797 30.9258C19.0923 30.9258 12.1309 37.9188 12.1309 46.5451C12.1309 55.1713 19.0923 62.1643 27.6797 62.1643Z" fill="#FFDD28"/>
<path d="M35.7631 33.2001C37.1993 35.5662 38.0268 38.3458 38.0268 41.3198C38.0268 49.946 31.0655 56.939 22.4782 56.939C19.5176 56.939 16.7504 56.1075 14.395 54.6648C17.1246 59.1617 22.0532 62.1642 27.6799 62.1642C36.2672 62.1642 43.2286 55.1713 43.2286 46.5449C43.2286 40.8927 40.2397 35.9421 35.7631 33.2001Z" fill="#FFCD1E"/>
</svg>
