<svg width="105" height="105" viewBox="0 0 105 105" fill="none" xmlns="http://www.w3.org/2000/svg">
<path fill-rule="evenodd" clip-rule="evenodd" d="M9.22852 11.3245H95.7715C99.1553 11.3245 101.924 14.6874 101.924 18.7976V88.0482C101.924 92.1584 99.1553 95.5213 95.7715 95.5213H9.22852C5.84473 95.5213 3.07617 92.1584 3.07617 88.0482V18.7976C3.07617 14.6874 5.84473 11.3245 9.22852 11.3245Z" fill="#00347B"/>
<path fill-rule="evenodd" clip-rule="evenodd" d="M95.7715 11.3245H52.5V95.5213H95.7715C99.1553 95.5213 101.924 92.1584 101.924 88.0482V18.7976C101.924 14.6874 99.1553 11.3245 95.7715 11.3245Z" fill="#001737"/>
<path fill-rule="evenodd" clip-rule="evenodd" d="M9.22852 11.3245H18.6391C18.6396 11.3885 18.6412 11.4523 18.6412 11.5165C18.6412 21.8521 11.7432 30.2309 3.23429 30.2309C3.18138 30.2309 3.12888 30.2291 3.07617 30.2284V18.7976L9.22852 11.3245Z" fill="#E2DFF4"/>
<path fill-rule="evenodd" clip-rule="evenodd" d="M95.7714 11.3245H86.3608C86.3602 11.3885 86.3588 11.4523 86.3588 11.5165C86.3588 21.8521 93.2568 30.2309 101.766 30.2309C101.819 30.2309 101.871 30.2291 101.924 30.2284V18.7976L95.7714 11.3245Z" fill="#BEBCDD"/>
<path fill-rule="evenodd" clip-rule="evenodd" d="M9.22852 95.521H18.6391C18.6396 95.457 18.6412 95.3933 18.6412 95.329C18.6412 84.9935 11.7432 76.6146 3.23429 76.6146C3.18138 76.6146 3.12888 76.6164 3.07617 76.6171V88.048L9.22852 95.521Z" fill="#E2DFF4"/>
<path fill-rule="evenodd" clip-rule="evenodd" d="M95.7714 95.521H86.3608C86.3602 95.457 86.3588 95.3933 86.3588 95.329C86.3588 84.9935 93.2568 76.6146 101.766 76.6146C101.819 76.6146 101.871 76.6164 101.924 76.6171V88.048L95.7714 95.521Z" fill="#BEBCDD"/>
<path d="M95.7715 99.2578H9.22852C4.13991 99.2578 0 94.2292 0 88.0482V18.7975C0 12.6165 4.13991 7.58789 9.22852 7.58789H95.7715C100.86 7.58789 105 12.6165 105 18.7975V88.0482C105 94.2292 100.86 99.2578 95.7715 99.2578ZM9.22852 15.061C7.53231 15.061 6.15234 16.7372 6.15234 18.7975V88.0482C6.15234 90.1085 7.53231 91.7847 9.22852 91.7847H95.7715C97.4677 91.7847 98.8477 90.1085 98.8477 88.0482V18.7975C98.8477 16.7372 97.4677 15.061 95.7715 15.061H9.22852Z" fill="#F9F9F9"/>
<path d="M95.7715 7.58789H52.5V15.061H95.7715C97.4677 15.061 98.8477 16.7372 98.8477 18.7975V88.0482C98.8477 90.1085 97.4677 91.7847 95.7715 91.7847H52.5V99.2578H95.7715C100.86 99.2578 105 94.2292 105 88.0482V18.7975C105 12.6165 100.86 7.58789 95.7715 7.58789Z" fill="#E2DFF4"/>
<g clip-path="url(#clip0)">
<path d="M45.6677 82.6465C45.4555 82.6465 45.2407 82.6041 45.0355 82.5155C44.3173 82.2058 43.9288 81.4218 44.1174 80.6627L49.5218 58.9088H34.9604C34.4333 58.9088 33.9401 58.6489 33.6421 58.2141C33.3441 57.7793 33.2797 57.2256 33.4698 56.734L44.1522 29.1174C44.3903 28.5016 44.9825 28.0957 45.6426 28.0957H60.3415C60.8816 28.0957 61.3851 28.3685 61.6803 28.8208C61.9752 29.2732 62.0218 29.844 61.8041 30.3382L55.4786 44.6961H67.9891C68.5736 44.6961 69.1114 45.0152 69.3916 45.5282C69.6718 46.0411 69.6496 46.6661 69.3337 47.1579L47.0132 81.9118C46.7113 82.3818 46.198 82.6465 45.6677 82.6465Z" fill="#FFE645"/>
<path d="M67.9888 44.696H55.4784L61.8039 30.3381C62.0216 29.8439 61.975 29.2731 61.68 28.8207C61.385 28.3685 60.8815 28.0957 60.3414 28.0957H52.5385V73.3084L69.3336 47.1578C69.6495 46.666 69.6717 46.041 69.3915 45.5281C69.1112 45.0151 68.5735 44.696 67.9888 44.696V44.696Z" fill="#FFCF2C"/>
</g>
<defs>
<clipPath id="clip0">
<rect width="54.5508" height="54.5508" fill="white" transform="translate(24.1992 28.0957)"/>
</clipPath>
</defs>
</svg>
