<svg width="72" height="95" viewBox="0 0 72 95" fill="none" xmlns="http://www.w3.org/2000/svg">
<g clip-path="url(#clip0)">
<path d="M65.9132 95H49.5527C48.4528 95 47.5351 94.1655 47.4387 93.0774L45.2625 68.5591C45.1928 67.7742 45.8157 67.0986 46.609 67.0986H68.8573C69.6507 67.0986 70.2735 67.774 70.2038 68.5591L68.0276 93.0774C67.9306 94.1655 67.0131 95 65.9132 95Z" fill="#DFEDE7" fill-opacity="0.24"/>
<path d="M68.8569 67.0986H59.6757L57.2611 94.3018C57.226 94.6969 56.8928 94.9999 56.4936 94.9999H65.9132C67.0131 94.9999 67.9308 94.1653 68.0274 93.0772L70.2036 68.5589C70.2731 67.774 69.6504 67.0986 68.8569 67.0986Z" fill="#D7E0DC" fill-opacity="0.24"/>
<path d="M46.2857 73.3823L47.0211 83.8112L47.3902 87.9699C47.4868 89.0579 48.4044 89.8925 49.5044 89.8925H65.865C66.9648 89.8925 67.8825 89.0579 67.9791 87.9699L68.3482 83.8112L69.4286 73.3823H46.2857Z" fill="#772424"/>
<path d="M59.21 73.5483L58.1143 86.8279C58.079 87.1272 58.0021 89.817 57.6001 89.817H65.7566C66.8642 89.817 67.7884 89.1846 67.8857 88.3602L69.4286 73.5483H59.21Z" fill="#681818"/>
<path d="M27.8067 13.78V0H17.1928V13.78C17.1928 18.0647 13.9773 21.6774 9.69572 22.2035C5.33062 22.7397 2.05249 26.423 2.05249 30.7911V91.1878C2.05249 93.2932 3.77114 95 5.89111 95H39.1082C41.2282 95 42.9469 93.2932 42.9469 91.1878V30.7911C42.9469 26.423 39.6687 22.7399 35.3036 22.2035C31.022 21.6774 27.8067 18.0647 27.8067 13.78Z" fill="#77D057" fill-opacity="0.24"/>
<path d="M35.3037 22.2035C31.0221 21.6774 27.8066 18.0647 27.8066 13.78V0H19.4586V13.78C19.4586 18.0647 20.3645 21.6774 24.6463 22.2035C29.0114 22.7397 32.2896 26.423 32.2896 30.7911V95H39.1083C41.2283 95 42.9469 93.2932 42.9469 91.1878V30.7911C42.9469 26.423 39.6688 22.7397 35.3037 22.2035Z" fill="#69B749" fill-opacity="0.24"/>
<path d="M28.2108 12.5986H16.7885C16.1961 12.5986 15.7157 12.1216 15.7157 11.5332V1.06541C15.7157 0.477041 16.1961 0 16.7885 0H28.2108C28.8032 0 29.2835 0.477041 29.2835 1.06541V11.5332C29.2835 12.1216 28.8032 12.5986 28.2108 12.5986Z" fill="#4A4256"/>
<path d="M9.69572 22.2033C5.33062 22.7396 2.05249 26.4229 2.05249 30.791V91.1876C2.05249 93.293 3.77114 94.9999 5.89111 94.9999H39.1082C41.2282 94.9999 42.9469 93.293 42.9469 91.1876V30.791C42.9469 26.4229 39.6687 22.7398 35.3036 22.2033C34.1518 22.0618 10.8477 22.0618 9.69572 22.2033Z" fill="#306318"/>
<path d="M15.7157 6.60126H29.2835V3.73438H15.7157V6.60126Z" fill="#E9EAEB"/>
<path d="M66.8385 90.0518H48.5308C47.9877 90.0518 47.4848 89.8696 47.0825 89.5618L47.3904 93.0298C47.487 94.1179 48.4045 94.9525 49.5044 94.9525H65.8649C66.9648 94.9525 67.8825 94.1179 67.9791 93.0298L68.287 89.5618C67.8846 89.8696 67.3816 90.0518 66.8385 90.0518Z" fill="#D7E0DC" fill-opacity="0.04"/>
<path d="M42.9468 30.7913C42.9468 26.5597 39.8705 22.9708 35.7096 22.2632C35.5754 22.2403 35.44 22.2205 35.3036 22.2038C34.7756 22.1388 29.5933 22.1038 24.0235 22.0984C24.2234 22.1405 24.4293 22.1772 24.646 22.2038C29.0112 22.74 32.2893 26.4233 32.2893 30.7914V95.0001H39.108C39.2405 95.0001 39.3715 94.9934 39.5006 94.9805C39.7586 94.9545 40.0091 94.9031 40.2496 94.8287C40.8506 94.6429 41.3883 94.3147 41.8223 93.8835C42.5169 93.1936 42.9466 92.2407 42.9466 91.1879V30.7913H42.9468Z" fill="#2C5114"/>
<path d="M37.1277 78.5015V35.4023C37.1277 33.8975 35.8995 32.6777 34.3843 32.6777H10.6152C9.09996 32.6777 7.87173 33.8975 7.87173 35.4023V78.5015C7.87173 79.2612 8.49182 79.8768 9.25652 79.8768H35.7429C36.5078 79.8768 37.1277 79.2612 37.1277 78.5015Z" fill="#E9EAEB"/>
<path d="M22.4992 53.2846C26.4136 53.2846 29.5868 50.1332 29.5868 46.2457C29.5868 42.3582 26.4136 39.2068 22.4992 39.2068C18.5848 39.2068 15.4116 42.3582 15.4116 46.2457C15.4116 50.1332 18.5848 53.2846 22.4992 53.2846Z" fill="#772424"/>
<path d="M28.3901 74.8634H16.6094C15.8122 74.8634 15.1659 74.2216 15.1659 73.4299C15.1659 72.6381 15.8122 71.9963 16.6094 71.9963H28.3901C29.1873 71.9963 29.8336 72.6381 29.8336 73.4299C29.8334 74.2216 29.1872 74.8634 28.3901 74.8634Z" fill="#306318"/>
<path d="M34.3844 32.6777H32.2895V79.8768H35.7429C36.5078 79.8768 37.1277 79.261 37.1277 78.5015V35.4023C37.1277 33.8975 35.8994 32.6777 34.3844 32.6777Z" fill="#D0D6D3"/>
<path d="M37.128 58.219H7.87224V65.6093H37.128V58.219Z" fill="#FC502A"/>
<path d="M37.1273 58.219H32.2891V65.6093H37.1273V58.219Z" fill="#EA3C1F"/>
</g>
<defs>
<clipPath id="clip0">
<rect width="72" height="95" fill="white"/>
</clipPath>
</defs>
</svg>
