<svg width="181" height="163" viewBox="0 0 181 163" fill="none" xmlns="http://www.w3.org/2000/svg">
<path d="M171.001 70.4995L165.089 28.8959C160.688 17.9275 151.17 9.66248 139.634 6.79428L112.997 0.172C109.691 -0.676614 107 5.06108 107 8.49948C107 17.2226 99.2748 21.1047 90.5033 21.1047C81.7317 21.1047 72 17.223 72 8.49992C72 5.03023 71.2582 -0.693839 68.0096 0.172L41.3733 6.79428C29.8364 9.66248 20.319 17.9275 15.9177 28.8959L8.75897 67.2304C7.6239 70.0097 9.09408 73.2276 12.0005 74.1873L32.1776 83.2591L37.4799 74.187L42.7823 86.7742L44.1906 157.5C44.1906 160.415 46.5622 162.773 49.493 162.773H91.9119H134.331C137.262 162.773 139.634 160.415 139.634 157.5L138.225 86.7745L143.528 74.1873L148.83 83.2595L167.76 77.4568C170.668 76.4957 172.135 73.2766 171.001 70.4995Z" fill="white"/>
<path d="M139.5 157.5L138.222 86.7752L143.524 74.188L148.826 83.2602L167 76.4998C169.909 75.5391 171.376 72.32 170.242 69.5429L165.086 28.8969C160.684 17.9285 151.167 9.6635 139.63 6.79529L112.994 0.172663C109.688 -0.675951 107.5 4.5616 107.5 8C107.5 16.7231 99.2715 21.1054 90.5 21.1054L91.7783 162.773H134.197C137.128 162.773 139.5 160.415 139.5 157.5Z" fill="#E8F5FF"/>
<path d="M42.7805 47.8219C42.7805 44.9091 40.4065 42.5488 37.4782 42.5488C34.5498 42.5488 32.1758 44.9091 32.1758 47.8219V83.2594L42.7805 86.7745V47.8219Z" fill="#E8F5FF"/>
<path d="M125.632 64.7998C124.027 63.5023 121.81 63.2857 119.947 64.1973L103.48 72.3849L95.247 56.0096C94.346 54.2227 92.4251 53.3291 90.5039 53.3291C88.5826 53.3291 86.6618 54.2227 85.7607 56.0096L77.5275 72.3849L61.0612 64.1973C59.1972 63.2857 56.9809 63.5174 55.3753 64.7998C53.7598 66.0871 53.0454 68.1932 53.5424 70.1913L64.1472 112.376C64.7375 114.724 66.8606 116.372 69.2944 116.372H90.5039H111.713C114.147 116.372 116.27 114.724 116.861 112.376L127.465 70.1913C127.962 68.1932 127.248 66.0871 125.632 64.7998V64.7998Z" fill="#FFDC29"/>
<path d="M116.86 112.376L127.465 70.1913C127.962 68.1932 127.248 66.0871 125.632 64.7998C124.027 63.5023 121.811 63.2857 119.947 64.1973L103.48 72.3849L95.2471 56.0096C94.346 54.2227 92.4251 53.3291 90.5039 53.3291V116.372H111.713C114.147 116.372 116.27 114.724 116.86 112.376Z" fill="#FFC824"/>
<path d="M143.525 42.5488C140.597 42.5488 138.223 44.9091 138.223 47.8219V86.7745L148.827 83.2594V47.8219C148.827 44.9094 146.453 42.5488 143.525 42.5488V42.5488Z" fill="#C4DAF4"/>
</svg>
