<svg width="78" height="62" viewBox="0 0 78 62" fill="none" xmlns="http://www.w3.org/2000/svg">
<path d="M35.787 2.75906C33.7959 4.10121 32.3471 6.18375 31.8901 8.89547C31.8474 9.1614 31.7501 9.41559 31.6043 9.64203C31.4585 9.86847 31.2673 10.0622 31.0429 10.2111C30.8184 10.36 30.5656 10.4607 30.3003 10.507C30.0349 10.5532 29.7629 10.544 29.5013 10.4798C28.1692 10.1395 26.7719 10.1475 25.4438 10.5032C24.1157 10.8589 22.9015 11.5503 21.9178 12.5109C20.9341 13.4714 20.2141 14.6689 19.8269 15.9882C19.4398 17.3075 19.3985 18.7042 19.7071 20.044C19.768 20.3099 19.7724 20.5856 19.72 20.8533C19.6676 21.121 19.5596 21.3747 19.4029 21.598C19.2462 21.8214 19.0444 22.0093 18.8105 22.1496C18.5766 22.29 18.3158 22.3797 18.0451 22.4129C14.9418 22.7953 10.2375 24.4421 10.8346 30.9335C10.888 31.5079 10.9489 32.0715 11.0464 32.6154C11.1351 33.0913 11.0429 33.5831 10.7878 33.9945C10.5328 34.406 10.1333 34.7073 9.6677 34.8396C8.20184 35.2433 6.83815 35.9529 5.66648 36.9219C4.49481 37.8908 3.54176 39.0971 2.87012 40.4611C2.88687 40.2128 4.8125 11.074 28.7716 4.12863C31.0628 3.45657 33.4113 2.99809 35.787 2.75906Z" fill="#FFF0D5"/>
<path d="M9.66838 34.8394C10.1338 34.707 10.533 34.4058 10.7879 33.9945C11.0429 33.5833 11.1352 33.0918 11.0467 32.6161C10.9493 32.0709 10.8877 31.5081 10.8348 30.9342C10.237 24.4428 14.9421 22.795 18.0444 22.4133C18.3151 22.3801 18.5758 22.2904 18.8097 22.1501C19.0436 22.0097 19.2454 21.8218 19.4021 21.5985C19.5587 21.3753 19.6668 21.1216 19.7192 20.8539C19.7716 20.5862 19.7673 20.3105 19.7065 20.0447C19.4452 18.9098 19.4344 17.7316 19.6747 16.5921C19.9151 15.4526 20.4008 14.3792 21.0981 13.4465C21.7955 12.5138 22.6876 11.7443 23.7126 11.1914C24.7375 10.6385 25.8706 10.3156 27.033 10.2451C27.1951 10.2356 27.356 10.2308 27.516 10.2309C28.1855 10.2304 28.8524 10.3139 29.5011 10.4794C29.6557 10.5191 29.8146 10.5392 29.9741 10.5393C30.4357 10.5348 30.8809 10.3675 31.2313 10.0669C31.5817 9.7663 31.8147 9.35171 31.8893 8.89614C32.346 6.1829 33.7972 4.10245 35.7881 2.75928C34.8098 2.85577 33.8087 2.99375 32.7839 3.18043C31.4395 4.71681 30.5566 6.60174 30.2369 8.61804C30.2279 8.6829 30.1969 8.7427 30.1491 8.7874C30.1013 8.8321 30.0395 8.85896 29.9742 8.86348C29.9546 8.8634 29.9351 8.86084 29.9161 8.85586C29.1318 8.65587 28.3255 8.55485 27.516 8.55514C27.3238 8.55514 27.1282 8.56089 26.9348 8.57226C25.5291 8.65705 24.1588 9.04716 22.9192 9.71543C21.6796 10.3837 20.6005 11.3141 19.7571 12.4418C18.9136 13.5695 18.3261 14.8675 18.0353 16.2454C17.7445 17.6234 17.7575 19.0481 18.0734 20.4205C18.0822 20.4571 18.0829 20.4953 18.0756 20.5323C18.0683 20.5693 18.0531 20.6043 18.031 20.6349C18.0093 20.6667 17.981 20.6935 17.948 20.7133C17.915 20.7332 17.8781 20.7457 17.8398 20.75C15.4604 21.0428 13.4286 21.8581 11.9642 23.1079C10.4699 24.3832 8.7715 26.8028 9.1661 31.0878C9.21593 31.629 9.28234 32.2688 9.39707 32.9109C9.41121 32.9747 9.40172 33.0415 9.37034 33.0989C9.33896 33.1563 9.28784 33.2004 9.22645 33.2229C6.96333 33.848 4.92276 35.0995 3.33976 36.8334C2.95675 39.0752 2.86963 40.4621 2.86963 40.4621H2.8719C3.54293 39.0977 4.49564 37.8911 5.66717 36.9219C6.83871 35.9527 8.20243 35.2429 9.66838 34.8394Z" fill="#FF8B00"/>
<path d="M20.0987 17.6052C21.4446 17.6052 22.5357 16.5141 22.5357 15.1682C22.5357 13.8222 21.4446 12.7311 20.0987 12.7311C18.7527 12.7311 17.6616 13.8222 17.6616 15.1682C17.6616 16.5141 18.7527 17.6052 20.0987 17.6052Z" fill="#FFFCF2"/>
<path d="M17.8974 29.1787C21.4623 29.1787 24.3522 26.2887 24.3522 22.7238C24.3522 19.159 21.4623 16.269 17.8974 16.269C14.3325 16.269 11.4426 19.159 11.4426 22.7238C11.4426 26.2887 14.3325 29.1787 17.8974 29.1787Z" fill="#FF4A45"/>
<path d="M74.0648 18.4825C73.7845 12.4116 69.1411 11.2751 66.5954 11.1136C66.1642 11.0871 65.7543 10.9172 65.4308 10.631C65.1073 10.3447 64.8887 9.95852 64.8099 9.53379C64.033 5.19504 60.5854 2.39039 56.3046 2.39039C54.4945 2.3875 52.7293 2.95404 51.259 4.0098C50.8876 4.27134 50.4366 4.39498 49.9837 4.35938C49.5309 4.32377 49.1047 4.13116 48.7788 3.8148C46.9079 2.00613 44.4067 0.996448 41.8045 0.999488C37.0072 0.999488 32.737 3.8605 31.89 8.89547C31.8473 9.16139 31.75 9.41559 31.6042 9.64203C31.4584 9.86846 31.2672 10.0622 31.0428 10.2111C30.8183 10.36 30.5655 10.4607 30.3002 10.507C30.0348 10.5532 29.7628 10.544 29.5012 10.4798C28.1691 10.1395 26.7718 10.1475 25.4437 10.5032C24.1156 10.8589 22.9014 11.5503 21.9177 12.5109C20.934 13.4714 20.214 14.6689 19.8268 15.9882C19.4397 17.3075 19.3984 18.7042 19.707 20.044C19.7679 20.3099 19.7723 20.5856 19.7199 20.8533C19.6675 21.121 19.5595 21.3747 19.4028 21.598C19.2461 21.8214 19.0443 22.0093 18.8104 22.1496C18.5765 22.29 18.3157 22.3797 18.045 22.4129C14.9417 22.7953 10.2374 24.4421 10.8345 30.9335C10.8879 31.5079 10.9488 32.0715 11.0463 32.6154C11.135 33.0913 11.0428 33.5831 10.7877 33.9945C10.5327 34.406 10.1332 34.7073 9.66759 34.8396C7.32963 35.4809 5.27765 36.8948 3.84582 38.8512C2.41399 40.8075 1.68666 43.1909 1.78228 45.6134C1.83719 47.0229 2.17245 48.4073 2.76848 49.6858L2.76795 49.6855L2.77118 49.6918C2.90108 49.9703 3.04263 50.2419 3.19582 50.5068C3.35602 50.8087 3.51469 51.0992 3.57841 51.1892C3.63663 51.2428 3.69109 51.3003 3.74142 51.3613C4.10095 51.7117 5.07138 52.5085 6.79439 52.9259C10.9991 53.9466 15.3104 51.6157 16.8674 47.5786C21.0644 36.6967 24.515 11.9591 44.0531 8.64413C58.0565 6.26756 67.9086 15.0136 72.1864 24.1603C73.4938 22.5655 74.1631 20.5424 74.0648 18.4825Z" fill="#6DCC82"/>
<path d="M62.5247 4.94519C61.4359 5.03648 60.3768 5.34642 59.4106 5.85647C58.4444 6.36652 57.591 7.06621 56.9015 7.91367C54.2375 7.02172 51.4463 6.56866 48.637 6.57222C47.0067 6.57595 45.3796 6.71609 43.7727 6.99117C39.8566 7.63841 36.161 9.24288 33.0142 11.662C32.5068 11.9789 29.8561 13.676 26.6066 16.6696C23.3373 19.6799 18.8127 24.6387 15.8237 31.1575C14.4434 34.1708 13.4227 36.7926 12.5224 39.1052C11.2259 42.437 10.2022 45.068 8.86157 46.7742C7.63064 48.3403 6.07673 49.1614 3.70931 49.4844C3.66513 49.4814 3.62095 49.4798 3.57677 49.4798C3.317 49.4803 3.06073 49.5397 2.82724 49.6535C2.80681 49.663 2.78697 49.6737 2.76782 49.6855C2.89936 49.9683 3.04395 50.2437 3.19871 50.5125C3.35788 50.8123 3.51496 51.0997 3.57829 51.1891L3.6179 51.1846C11.9481 50.2111 11.7957 43.968 17.3471 31.8567C22.9077 19.7256 33.9648 13.0453 33.9648 13.0453C35.3807 11.9452 36.9239 11.0194 38.561 10.2879C40.315 9.51064 42.1603 8.95833 44.053 8.6441C45.5671 8.38305 47.1006 8.25055 48.637 8.248C51.1191 8.24187 53.5875 8.61681 55.9558 9.35973L55.9556 9.36011C56.4979 9.52921 57.0296 9.7171 57.5506 9.92378C58.1082 8.91357 58.9266 8.07142 59.9204 7.48514C60.9143 6.89886 62.0472 6.58991 63.2011 6.5905C63.393 6.5905 63.5835 6.60117 63.7708 6.61792C63.4278 6.00991 63.0091 5.44785 62.5247 4.94519Z" fill="#49B464"/>
<path d="M69.656 20.3576C71.002 20.3576 72.0931 19.2665 72.0931 17.9206C72.0931 16.5747 71.002 15.4836 69.656 15.4836C68.3101 15.4836 67.219 16.5747 67.219 17.9206C67.219 19.2665 68.3101 20.3576 69.656 20.3576Z" fill="#FFFCF2"/>
<path d="M33.9481 13.056C24.9949 19.9998 21.4696 33.0419 18.6391 42.2664C18.0327 44.2468 17.4569 46.049 16.8673 47.5786C15.3332 51.5563 11.127 53.8765 6.98173 52.9685C6.91927 52.9548 6.85681 52.9411 6.79435 52.9258C4.61583 52.3972 3.64083 51.2622 3.58142 51.1922H3.57989L3.57837 51.1891C11.9481 50.2309 11.7867 43.9878 17.3472 31.8567C22.7783 20.0074 33.4515 13.3607 33.9481 13.056Z" fill="#C6AC9A"/>
<path d="M42.8296 10.0545C44.1756 10.0545 45.2667 8.96341 45.2667 7.61746C45.2667 6.27152 44.1756 5.18042 42.8296 5.18042C41.4837 5.18042 40.3926 6.27152 40.3926 7.61746C40.3926 8.96341 41.4837 10.0545 42.8296 10.0545Z" fill="#FFFCF2"/>
<path d="M63.2011 19.5003C66.766 19.5003 69.656 16.6103 69.656 13.0454C69.656 9.48055 66.766 6.59064 63.2011 6.59064C59.6363 6.59064 56.7463 9.48055 56.7463 13.0454C56.7463 16.6103 59.6363 19.5003 63.2011 19.5003Z" fill="#FF4A45"/>
<path d="M8.72806 45.3361C10.074 45.3361 11.1651 44.245 11.1651 42.8991C11.1651 41.5531 10.074 40.462 8.72806 40.462C7.38212 40.462 6.29102 41.5531 6.29102 42.8991C6.29102 44.245 7.38212 45.3361 8.72806 45.3361Z" fill="#FFFCF2"/>
<path d="M74.5477 34.7711C74.9362 28.4838 71.2312 19.5687 64.2051 13.8466C64.3513 13.9122 73.6732 18.1443 75.7801 26.2688C76.5906 29.3964 75.6857 32.457 74.5477 34.7711Z" fill="#C6AC9A"/>
<path d="M15.1828 51.4211C18.7477 51.4211 21.6376 48.5312 21.6376 44.9663C21.6376 41.4015 18.7477 38.5115 15.1828 38.5115C11.6179 38.5115 8.72803 41.4015 8.72803 44.9663C8.72803 48.5312 11.6179 51.4211 15.1828 51.4211Z" fill="#FF4A45"/>
<path d="M69.6558 13.0453C69.6557 14.3218 69.2771 15.5696 68.5678 16.6309C67.8586 17.6922 66.8506 18.5193 65.6712 19.0078C64.4919 19.4962 63.1942 19.624 61.9423 19.3749C60.6903 19.1259 59.5403 18.5112 58.6377 17.6086C57.7351 16.706 57.1204 15.556 56.8714 14.304C56.6223 13.0521 56.7501 11.7544 57.2385 10.5751C57.7269 9.39572 58.5541 8.3877 59.6154 7.67846C60.6767 6.96922 61.9245 6.5906 63.201 6.59049C64.0501 6.58514 64.8919 6.74845 65.6774 7.07094C66.463 7.39343 67.1767 7.86868 67.7771 8.46914C68.3776 9.06959 68.8528 9.78329 69.1753 10.5688C69.4978 11.3544 69.6611 12.1961 69.6558 13.0453Z" fill="#FF4A45"/>
<path d="M40.4023 7.80752C40.4463 8.38581 40.6957 8.92929 41.1055 9.33964C42.0721 9.04479 43.0568 8.81246 44.0533 8.6441C44.4065 8.58415 44.7566 8.53239 45.1044 8.48647C45.3149 7.94339 45.321 7.34235 45.1215 6.79514C44.6723 6.85068 44.2228 6.91629 43.7728 6.99196C42.6318 7.18555 41.5056 7.45806 40.4023 7.80752Z" fill="#FFF4D3"/>
<path d="M65.0354 12.3643C63.0736 10.7928 60.9001 9.50559 58.5791 8.54047C58.1757 8.9532 57.8298 9.4185 57.5508 9.92375V9.92527C61.7204 11.5691 65.1954 14.2914 67.8949 17.4754C68.2911 17.0569 68.6293 16.587 68.9004 16.0784C67.7266 14.7265 66.433 13.4833 65.0354 12.3643Z" fill="#C9452C"/>
<path d="M3.57812 51.1898C3.57812 51.1898 5.02844 56.6911 14.6209 59.1755C18.8351 60.2506 23.234 60.3875 27.5069 59.5764C41.8594 56.9051 64.6595 48.0036 72.3282 40.4463C79.8442 33.1383 68.0389 4.57393 44.0535 8.64357C24.515 11.9587 21.0646 36.6962 16.8673 47.5781C15.3101 51.6152 10.9986 53.9459 6.79364 52.9256C4.54526 52.38 3.57812 51.1898 3.57812 51.1898Z" fill="#FF9900"/>
<path d="M63.052 31.945C63.0634 23.3763 59.8326 15.1206 54.0083 8.83576C50.9805 8.15795 47.6545 8.0326 44.0534 8.64359C24.5149 11.9587 21.0645 36.6962 16.8672 47.5781C15.3101 51.6152 10.9985 53.9459 6.79357 52.9256C4.54526 52.3801 3.57812 51.1898 3.57812 51.1898C3.57812 51.1898 5.02844 56.6911 14.6209 59.1755C18.8351 60.2506 23.234 60.3875 27.5069 59.5764C36.4139 57.9186 48.5735 53.8611 58.3517 49.2148C61.4376 43.9833 63.0609 38.0188 63.052 31.945Z" fill="#FFB800"/>
<path d="M18.6396 42.2662C25.5658 44.2191 34.8827 41.1894 42.1049 33.9673C50.1381 25.9341 52.9833 15.3099 49.555 8.26606C47.7131 8.20392 45.8696 8.33042 44.0535 8.64357C27.2612 11.4927 22.3524 30.1653 18.6396 42.2662Z" fill="#F9D76E"/>
<path d="M34.8116 31.7962C35.3618 31.7962 35.8078 31.0493 35.8078 30.1279C35.8078 29.2065 35.3618 28.4596 34.8116 28.4596C34.2614 28.4596 33.8154 29.2065 33.8154 30.1279C33.8154 31.0493 34.2614 31.7962 34.8116 31.7962Z" fill="#FFF0D5"/>
<path d="M52.8802 22.0261C53.4304 22.0261 53.8764 21.2792 53.8764 20.3578C53.8764 19.4364 53.4304 18.6895 52.8802 18.6895C52.33 18.6895 51.884 19.4364 51.884 20.3578C51.884 21.2792 52.33 22.0261 52.8802 22.0261Z" fill="#FFF0D5"/>
<path d="M45.2669 18.9029C45.8171 18.9029 46.2631 18.156 46.2631 17.2346C46.2631 16.3132 45.8171 15.5663 45.2669 15.5663C44.7168 15.5663 44.2708 16.3132 44.2708 17.2346C44.2708 18.156 44.7168 18.9029 45.2669 18.9029Z" fill="#FFF0D5"/>
<path d="M61.9104 24.7292C62.541 24.7292 63.0522 23.9822 63.0522 23.0608C63.0522 22.1394 62.541 21.3925 61.9104 21.3925C61.2798 21.3925 60.7686 22.1394 60.7686 23.0608C60.7686 23.9822 61.2798 24.7292 61.9104 24.7292Z" fill="#FF9200"/>
<path d="M42.8298 26.7914C43.4604 26.7914 43.9716 26.0445 43.9716 25.1231C43.9716 24.2017 43.4604 23.4548 42.8298 23.4548C42.1992 23.4548 41.688 24.2017 41.688 25.1231C41.688 26.0445 42.1992 26.7914 42.8298 26.7914Z" fill="#FF9200"/>
<path d="M51.884 31.7962C52.5146 31.7962 53.0258 31.0493 53.0258 30.1279C53.0258 29.2065 52.5146 28.4596 51.884 28.4596C51.2534 28.4596 50.7422 29.2065 50.7422 30.1279C50.7422 31.0493 51.2534 31.7962 51.884 31.7962Z" fill="#FF9200"/>
<path d="M70.6508 21.2962C67.2231 16.5446 62.1912 12.4953 55.7927 10.9292C55.226 10.2071 54.6314 9.50939 54.0088 8.83603C61.5148 10.5164 67.185 15.5955 70.6508 21.2962Z" fill="#FF8E00"/>
<path d="M55.7929 10.9293C54.002 10.4913 52.1672 10.2582 50.3237 10.2346C50.1199 9.55932 49.8632 8.90119 49.5559 8.2663C51.0291 8.31809 52.4945 8.50318 53.9343 8.8193C53.9602 8.8254 53.9845 8.82997 54.0089 8.83606C54.6305 9.50942 55.2251 10.2072 55.7929 10.9293Z" fill="#F9D76E"/>
<path d="M20.4415 42.6518C19.6493 45.2584 18.9272 47.6289 18.1822 49.5606C16.6253 53.5977 12.3139 55.9285 8.10926 54.9078C5.93074 54.3792 4.95574 53.2442 4.89633 53.1742H4.8948L4.89328 53.1711C4.47535 52.8035 4.12343 52.3671 3.85277 51.8808C3.81316 51.797 3.77813 51.7208 3.74918 51.6523C3.74613 51.6492 3.74613 51.6462 3.74461 51.6431C3.74004 51.6309 3.73547 51.6203 3.7309 51.6081C3.67199 51.4727 3.62162 51.3338 3.58008 51.1922C3.6273 51.247 4.60078 52.3942 6.79453 52.9258C10.9992 53.9465 15.3105 51.6157 16.8675 47.5786C17.4571 46.049 18.0329 44.2453 18.6393 42.2664C19.2316 42.4313 19.8335 42.5601 20.4415 42.6518Z" fill="#FFCD7A"/>
<path d="M3.73071 51.6081C3.73511 51.6198 3.7395 51.6301 3.7439 51.6418L3.73071 51.611V51.6081Z" fill="#FFCD7A"/>
<path d="M44.0534 8.64408C27.2618 11.4931 22.3527 30.1652 18.6401 42.2662C19.2322 42.4313 19.8338 42.5599 20.4416 42.6513C24.112 30.5695 29.2988 13.3526 45.3697 10.6261C47.0056 10.3448 48.6638 10.2138 50.3236 10.2347C50.1199 9.55934 49.8631 8.90116 49.5555 8.26635C47.7134 8.20424 45.8698 8.33081 44.0534 8.64408Z" fill="#FFE8A0"/>
<path d="M24.0202 41.0452L24.1706 40.4625C24.2762 40.071 24.3912 39.6804 24.5176 39.2949C24.7682 38.5268 25.0585 37.7723 25.3872 37.0343C25.5461 36.6651 25.7253 36.3062 25.899 35.946C26.0851 35.5918 26.2629 35.2346 26.4631 34.89C26.8468 34.1918 27.2762 33.5235 27.7113 32.8641C27.8146 32.7078 27.9736 32.5969 28.1558 32.5538C28.3381 32.5106 28.53 32.5387 28.6923 32.6321C28.8546 32.7255 28.9752 32.8774 29.0295 33.0566C29.0837 33.2359 29.0676 33.4291 28.9843 33.5969L28.9751 33.6153C28.6406 34.288 28.3145 34.962 28.0376 35.6542C27.8904 35.9964 27.7667 36.3475 27.6348 36.6939C27.5157 37.0452 27.3912 37.3935 27.2877 37.7479C27.0722 38.4496 26.8932 39.162 26.7515 39.8823C26.6807 40.2404 26.621 40.5994 26.5692 40.9611C26.5692 40.9611 26.4306 42.014 26.4126 42.1292C26.3591 42.4688 26.1729 42.7733 25.8951 42.9758C25.6172 43.1783 25.2704 43.2623 24.9307 43.2093C24.5909 43.1563 24.2862 42.9707 24.0832 42.6931C23.8803 42.4156 23.7957 42.0689 23.8482 41.7291C23.8559 41.6796 24.0202 41.0452 24.0202 41.0452Z" fill="white"/>
<path d="M24.3048 47.6843C25.0646 47.6843 25.6806 47.0683 25.6806 46.3085C25.6806 45.5487 25.0646 44.9327 24.3048 44.9327C23.5449 44.9327 22.929 45.5487 22.929 46.3085C22.929 47.0683 23.5449 47.6843 24.3048 47.6843Z" fill="white"/>
</svg>
