<svg width="89" height="90" viewBox="0 0 89 90" fill="none" xmlns="http://www.w3.org/2000/svg">
<path d="M44.4912 89.4679C69.0629 89.4679 88.9823 69.559 88.9823 45C88.9823 20.4411 69.0629 0.532104 44.4912 0.532104C19.9194 0.532104 0 20.4411 0 45C0 69.559 19.9194 89.4679 44.4912 89.4679Z" fill="#4D4D4D"/>
<path d="M44.4911 86.0473C67.1728 86.0473 85.5599 67.6698 85.5599 45C85.5599 22.3302 67.1728 3.9527 44.4911 3.9527C21.8095 3.9527 3.42236 22.3302 3.42236 45C3.42236 67.6698 21.8095 86.0473 44.4911 86.0473Z" fill="#373737"/>
<path d="M81.9323 48.9337C82.01 48.176 81.8829 47.4114 81.5643 46.7195C81.2457 46.0276 80.7472 45.4338 80.1208 45C80.7484 44.5676 81.2478 43.9741 81.5664 43.282C81.885 42.5898 82.0111 41.8247 81.9314 41.067C81.8517 40.3093 81.5692 39.5871 81.1135 38.9763C80.6578 38.3655 80.0459 37.8888 79.342 37.5963C79.866 37.0429 80.2311 36.3586 80.3989 35.6153C80.5666 34.8721 80.5309 34.0974 80.2953 33.3728C80.0598 32.6481 79.6332 32.0003 79.0604 31.4975C78.4876 30.9947 77.7898 30.6555 77.0405 30.5156C77.438 29.8654 77.6528 29.1202 77.6623 28.3583C77.6718 27.5964 77.4756 26.846 77.0945 26.1861C76.7133 25.5262 76.1613 24.9812 75.4964 24.6084C74.8315 24.2357 74.0784 24.0489 73.3162 24.0678C73.5696 23.3492 73.6246 22.5757 73.4754 21.8285C73.3261 21.0814 72.9781 20.3883 72.468 19.8221C71.958 19.2559 71.3046 18.8376 70.5768 18.6111C69.849 18.3847 69.0735 18.3585 68.332 18.5353C68.4305 17.7798 68.3233 17.0117 68.0219 16.3119C67.7205 15.6121 67.236 15.0064 66.6193 14.5585C66.0025 14.1107 65.2765 13.8373 64.5174 13.767C63.7584 13.6968 62.9944 13.8323 62.3059 14.1593C62.2448 13.3999 61.9802 12.6711 61.5397 12.0493C61.0993 11.4276 60.4993 10.9359 59.803 10.6261C59.1066 10.3164 58.3396 10.1998 57.5826 10.2889C56.8257 10.3779 56.1067 10.6692 55.5013 11.1321C55.2838 10.4019 54.8733 9.74381 54.3132 9.22706C53.7531 8.71031 53.064 8.35398 52.3184 8.19558C51.5728 8.03718 50.7983 8.08255 50.0763 8.32692C49.3543 8.57129 48.7116 9.00563 48.2157 9.58424C47.851 8.9152 47.3126 8.35677 46.6572 7.9677C46.0018 7.57863 45.2536 7.37329 44.4913 7.37329C43.729 7.37329 42.9808 7.57863 42.3254 7.9677C41.6699 8.35677 41.1316 8.9152 40.7668 9.58424C40.271 9.00563 39.6282 8.57129 38.9062 8.32692C38.1843 8.08255 37.4097 8.03718 36.6641 8.19558C35.9185 8.35398 35.2294 8.71031 34.6693 9.22706C34.1092 9.74381 33.6988 10.4019 33.4813 11.1321C32.8759 10.6692 32.1569 10.3779 31.3999 10.2889C30.6429 10.1998 29.8759 10.3164 29.1796 10.6261C28.4832 10.9359 27.8833 11.4276 27.4428 12.0493C27.0024 12.6711 26.7377 13.3999 26.6767 14.1593C25.9882 13.8323 25.2242 13.6968 24.4651 13.767C23.7061 13.8373 22.98 14.1107 22.3633 14.5585C21.7466 15.0064 21.262 15.6121 20.9606 16.3119C20.6592 17.0117 20.5521 17.7798 20.6505 18.5353C19.909 18.3585 19.1336 18.3846 18.4057 18.6111C17.6779 18.8375 17.0246 19.2559 16.5145 19.8221C16.0044 20.3883 15.6565 21.0814 15.5072 21.8285C15.358 22.5757 15.413 23.3492 15.6665 24.0678C14.9044 24.0489 14.1512 24.2357 13.4863 24.6084C12.8215 24.9812 12.2694 25.5262 11.8883 26.1861C11.5071 26.846 11.311 27.5964 11.3205 28.3583C11.33 29.1202 11.5447 29.8654 11.9422 30.5156C11.1928 30.6555 10.495 30.9947 9.92222 31.4974C9.3494 32.0002 8.92276 32.648 8.68717 33.3726C8.45159 34.0973 8.41579 34.872 8.58352 35.6153C8.75125 36.3585 9.11633 37.0429 9.64033 37.5963C8.9365 37.8888 8.32457 38.3656 7.86892 38.9764C7.41328 39.5871 7.13075 40.3093 7.05107 41.067C6.97139 41.8247 7.0975 42.5899 7.41613 43.282C7.73477 43.9741 8.23414 44.5676 8.86173 45C8.23416 45.4325 7.7348 46.026 7.41617 46.7181C7.09755 47.4103 6.97145 48.1754 7.05113 48.9332C7.13081 49.6909 7.41332 50.4131 7.86896 51.0239C8.32459 51.6347 8.93651 52.1115 9.64033 52.4041C9.11638 52.9575 8.75136 53.6418 8.58365 54.3851C8.41594 55.1283 8.45174 55.903 8.6873 56.6276C8.92285 57.3523 9.34945 58 9.92221 58.5028C10.495 59.0056 11.1927 59.3448 11.9421 59.4848C11.5446 60.135 11.3299 60.8802 11.3204 61.6421C11.311 62.404 11.5071 63.1544 11.8883 63.8142C12.2694 64.4741 12.8215 65.0191 13.4864 65.3919C14.1513 65.7647 14.9044 65.9515 15.6665 65.9326C15.413 66.6511 15.358 67.4247 15.5072 68.1718C15.6565 68.919 16.0044 69.6121 16.5145 70.1783C17.0246 70.7445 17.6779 71.1629 18.4057 71.3893C19.1336 71.6157 19.909 71.6419 20.6505 71.4651C20.5521 72.2206 20.6593 72.9887 20.9607 73.6885C21.2621 74.3882 21.7467 74.9939 22.3634 75.4417C22.9801 75.8895 23.7062 76.1629 24.4652 76.2332C25.2242 76.3034 25.9882 76.1679 26.6767 75.8409C26.7376 76.6003 27.0021 77.3293 27.4425 77.9512C27.8829 78.5731 28.4829 79.0648 29.1792 79.3747C29.8756 79.6846 30.6427 79.8012 31.3997 79.7122C32.1568 79.6232 32.8758 79.3319 33.4813 78.869C33.6988 79.5992 34.1092 80.2573 34.6693 80.774C35.2294 81.2908 35.9185 81.6471 36.6641 81.8055C37.4097 81.9639 38.1843 81.9185 38.9062 81.6741C39.6282 81.4298 40.271 80.9954 40.7668 80.4168C41.1316 81.0859 41.6699 81.6443 42.3254 82.0334C42.9808 82.4224 43.729 82.6278 44.4913 82.6278C45.2536 82.6278 46.0018 82.4224 46.6572 82.0334C47.3126 81.6443 47.851 81.0859 48.2157 80.4168C48.7116 80.9954 49.3543 81.4298 50.0763 81.6741C50.7983 81.9185 51.5729 81.9638 52.3185 81.8054C53.0641 81.647 53.7532 81.2907 54.3133 80.7739C54.8734 80.2571 55.2838 79.599 55.5013 78.8688C56.1067 79.3318 56.8257 79.6231 57.5827 79.7122C58.3397 79.8012 59.1067 79.6847 59.8031 79.3749C60.4994 79.0651 61.0994 78.5735 61.5398 77.9517C61.9802 77.3299 62.2449 76.601 62.3059 75.8416C62.9944 76.1686 63.7583 76.3041 64.5174 76.2339C65.2764 76.1636 66.0025 75.8902 66.6192 75.4424C67.2359 74.9946 67.7204 74.3889 68.0218 73.6891C68.3233 72.9893 68.4304 72.2213 68.332 71.4658C69.0735 71.6426 69.849 71.6164 70.5768 71.3899C71.3046 71.1635 71.958 70.7452 72.468 70.179C72.9781 69.6128 73.3261 68.9197 73.4754 68.1725C73.6246 67.4254 73.5696 66.6518 73.3162 65.9333C74.0784 65.9522 74.8315 65.7654 75.4964 65.3926C76.1613 65.0198 76.7133 64.4748 77.0945 63.8149C77.4756 63.1551 77.6718 62.4047 77.6623 61.6428C77.6528 60.8809 77.438 60.1356 77.0405 59.4854C77.7898 59.3455 78.4876 59.0063 79.0604 58.5035C79.6332 58.0007 80.0598 57.353 80.2953 56.6283C80.5309 55.9037 80.5666 55.129 80.3989 54.3857C80.2311 53.6425 79.866 52.9582 79.342 52.4048C80.045 52.1107 80.6561 51.6335 81.1117 51.023C81.5673 50.4125 81.8507 49.691 81.9323 48.9337Z" fill="#F5FCFC"/>
<path d="M49.6248 22.766C50.5698 22.766 51.336 22.0003 51.336 21.0557C51.336 20.1112 50.5698 19.3454 49.6248 19.3454C48.6797 19.3454 47.9136 20.1112 47.9136 21.0557C47.9136 22.0003 48.6797 22.766 49.6248 22.766Z" fill="#DCEDED"/>
<path d="M37.6463 75.7855C38.5913 75.7855 39.3575 75.0197 39.3575 74.0752C39.3575 73.1306 38.5913 72.3649 37.6463 72.3649C36.7012 72.3649 35.9351 73.1306 35.9351 74.0752C35.9351 75.0197 36.7012 75.7855 37.6463 75.7855Z" fill="#DCEDED"/>
<path d="M42.193 28.0453C34.125 26.2698 25.7671 26.2698 17.6991 28.0453C17.3455 28.1273 17.0265 28.3177 16.7867 28.59C16.5468 28.8622 16.3982 29.2026 16.3616 29.5635C16.2461 31.9211 16.2567 34.2832 16.3932 36.6397C16.3932 44.5926 19.0114 54.5618 21.9416 63.2763C22.1004 63.7446 22.3593 64.1727 22.7004 64.5309C23.0414 64.889 23.4564 65.1687 23.9165 65.3504L24.8623 65.7284C28.126 67.0332 31.7669 67.0332 35.0306 65.7284L35.9762 65.3504C36.4363 65.1687 36.8513 64.8891 37.1924 64.5309C37.5334 64.1727 37.7923 63.7446 37.9511 63.2763C40.8805 54.562 43.4986 44.5923 43.4986 36.6397C43.635 34.2832 43.6454 31.9211 43.5298 29.5635C43.4931 29.2027 43.3446 28.8624 43.1049 28.5902C42.8652 28.3179 42.5464 28.1274 42.193 28.0453Z" fill="#F48967"/>
<path d="M22.0059 27.2919C20.5608 27.4952 19.121 27.7403 17.6937 28.0492C17.3415 28.1296 17.0235 28.3184 16.7846 28.5892C16.5456 28.8599 16.3977 29.1988 16.3618 29.558C16.2458 31.9175 16.2562 34.2814 16.3932 36.6397C16.3932 44.5926 19.0113 54.5616 21.9415 63.2762C22.1003 63.7445 22.3592 64.1726 22.7002 64.5308C23.0413 64.889 23.4563 65.1686 23.9164 65.3502L24.0032 65.3844C21.2215 52.8864 20.5465 40.012 22.0059 27.2919Z" fill="#FFBA88"/>
<path d="M35.8892 65.385L35.9757 65.3508C36.4359 65.1691 36.8509 64.8895 37.1919 64.5313C37.533 64.1731 37.7919 63.745 37.9506 63.2767C40.8806 54.5618 43.4987 44.5921 43.4987 36.6397C43.6354 34.2814 43.6456 31.9174 43.5293 29.558C43.4934 29.1988 43.3455 28.86 43.1066 28.5893C42.8676 28.3186 42.5496 28.1297 42.1975 28.0494C40.7707 27.7403 39.3311 27.4952 37.8853 27.2919C39.3451 40.0121 38.6704 52.8867 35.8892 65.385Z" fill="#F7B787"/>
<path d="M29.9476 60.9197C29.5701 60.92 29.2031 60.7956 28.9038 60.5658C28.6044 60.336 28.3895 60.0138 28.2924 59.6492C28.1953 59.2846 28.2216 58.8982 28.3671 58.5501C28.5126 58.202 28.7692 57.9117 29.0969 57.7245L35.0861 54.3039C35.2814 54.1896 35.4973 54.1152 35.7216 54.0849C35.9458 54.0546 36.1738 54.069 36.3924 54.1273C36.611 54.1857 36.8158 54.2867 36.9951 54.4247C37.1743 54.5627 37.3244 54.7349 37.4366 54.9312C37.5489 55.1275 37.6211 55.3442 37.649 55.5686C37.6769 55.793 37.6601 56.0207 37.5994 56.2385C37.5387 56.4564 37.4354 56.66 37.2954 56.8377C37.1554 57.0154 36.9816 57.1636 36.784 57.2737L30.7948 60.6943C30.5369 60.8419 30.2448 60.9196 29.9476 60.9197Z" fill="#F7B787"/>
<path d="M29.9443 60.9197C29.647 60.9196 29.355 60.8419 29.097 60.6943L23.1078 57.2737C22.9102 57.1636 22.7364 57.0154 22.5964 56.8377C22.4565 56.66 22.3532 56.4564 22.2925 56.2385C22.2318 56.0207 22.2149 55.793 22.2428 55.5686C22.2708 55.3442 22.3429 55.1275 22.4552 54.9312C22.5674 54.7349 22.7175 54.5627 22.8968 54.4247C23.076 54.2867 23.2809 54.1857 23.4995 54.1273C23.7181 54.069 23.9461 54.0546 24.1703 54.0849C24.3945 54.1152 24.6105 54.1896 24.8057 54.3039L30.7949 57.7245C31.1226 57.9117 31.3792 58.202 31.5247 58.5501C31.6702 58.8982 31.6965 59.2846 31.5994 59.6492C31.5024 60.0138 31.2874 60.336 30.9881 60.5658C30.6887 60.7956 30.3217 60.92 29.9443 60.9197Z" fill="#F7B787"/>
<path d="M29.9476 50.6579C29.5671 50.6583 29.1974 50.532 28.8968 50.299C28.5962 50.066 28.3819 49.7395 28.2877 49.3711C28.1935 49.0027 28.2248 48.6135 28.3766 48.2649C28.5285 47.9163 28.7922 47.6282 29.1262 47.4461L38.5378 42.3152C38.7354 42.2028 38.9534 42.131 39.1791 42.1038C39.4048 42.0766 39.6336 42.0946 39.8523 42.1568C40.0709 42.219 40.275 42.3241 40.4525 42.466C40.6301 42.6079 40.7776 42.7838 40.8864 42.9833C40.9952 43.1828 41.0631 43.402 41.0862 43.628C41.1093 43.854 41.0871 44.0824 41.0209 44.2998C40.9547 44.5171 40.8459 44.7191 40.7007 44.894C40.5555 45.0688 40.3769 45.213 40.1754 45.3181L30.7638 50.449C30.5137 50.5862 30.2329 50.6581 29.9476 50.6579Z" fill="#F7B787"/>
<path d="M29.9442 50.6579C29.6586 50.6582 29.3775 50.5864 29.1271 50.449L19.7156 45.3181C19.514 45.213 19.3354 45.0688 19.1903 44.894C19.0451 44.7191 18.9362 44.5171 18.87 44.2998C18.8038 44.0824 18.7817 43.854 18.8048 43.628C18.8279 43.402 18.8958 43.1828 19.0046 42.9833C19.1134 42.7838 19.2609 42.6079 19.4384 42.466C19.616 42.3241 19.82 42.219 20.0387 42.1568C20.2573 42.0946 20.4862 42.0766 20.7119 42.1038C20.9376 42.131 21.1556 42.2028 21.3532 42.3152L30.7648 47.4461C31.0987 47.6282 31.3625 47.9163 31.5143 48.2649C31.6662 48.6135 31.6975 49.0027 31.6033 49.3711C31.5091 49.7395 31.2947 50.066 30.9941 50.299C30.6935 50.532 30.3238 50.6583 29.9434 50.6579H29.9442Z" fill="#F7B787"/>
<path d="M29.9477 40.396C29.5733 40.3964 29.2092 40.274 28.9111 40.0478C28.613 39.8215 28.3973 39.5037 28.2972 39.1432C28.1971 38.7827 28.218 38.3993 28.3567 38.0518C28.4955 37.7043 28.7444 37.4119 29.0654 37.2193L37.6214 32.0884C37.8141 31.9709 38.0282 31.8927 38.2513 31.8582C38.4744 31.8238 38.7022 31.8338 38.9214 31.8877C39.1406 31.9416 39.347 32.0383 39.5286 32.1723C39.7103 32.3063 39.8636 32.4749 39.9798 32.6683C40.096 32.8618 40.1727 33.0763 40.2055 33.2996C40.2384 33.5228 40.2267 33.7503 40.1712 33.969C40.1157 34.1877 40.0174 34.3933 39.8821 34.5739C39.7467 34.7545 39.577 34.9065 39.3826 35.0212L30.8266 40.1521C30.5612 40.3118 30.2574 40.3961 29.9477 40.396Z" fill="#F7B787"/>
<path d="M29.9441 40.3961C29.6344 40.3961 29.3306 40.3118 29.0652 40.1522L20.5092 35.0213C20.1236 34.7861 19.8467 34.4082 19.7388 33.9698C19.6309 33.5314 19.7007 33.0681 19.9332 32.6811C20.1656 32.294 20.5418 32.0144 20.9796 31.9034C21.4175 31.7924 21.8814 31.8589 22.2704 32.0884L30.8264 37.2193C31.1474 37.4119 31.3963 37.7043 31.535 38.0518C31.6738 38.3993 31.6947 38.7827 31.5946 39.1432C31.4944 39.5037 31.2788 39.8215 30.9807 40.0478C30.6826 40.2741 30.3184 40.3964 29.9441 40.3961Z" fill="#F7B787"/>
<path d="M35.9351 21.0557C36.8801 21.0557 37.6463 20.29 37.6463 19.3454C37.6463 18.4009 36.8801 17.6351 35.9351 17.6351C34.99 17.6351 34.2239 18.4009 34.2239 19.3454C34.2239 20.29 34.99 21.0557 35.9351 21.0557Z" fill="#DCEDED"/>
<path d="M53.0471 72.3649C53.9922 72.3649 54.7583 71.5992 54.7583 70.6546C54.7583 69.71 53.9922 68.9443 53.0471 68.9443C52.1021 68.9443 51.3359 69.71 51.3359 70.6546C51.3359 71.5992 52.1021 72.3649 53.0471 72.3649Z" fill="#DCEDED"/>
<path d="M71.2833 61.9548C63.2153 63.7302 54.8574 63.7302 46.7894 61.9548C46.4358 61.8728 46.1168 61.6823 45.877 61.4101C45.6372 61.1378 45.4885 60.7974 45.4519 60.4365C45.3363 58.0789 45.3466 55.7168 45.4831 53.3603C45.4831 45.4074 48.1012 35.4382 51.0314 26.7237C51.1902 26.2554 51.4491 25.8273 51.7902 25.4691C52.1312 25.1109 52.5462 24.8313 53.0063 24.6496L53.9521 24.2716C57.2158 22.9668 60.8567 22.9668 64.1204 24.2716L65.066 24.6496C65.5261 24.8313 65.9411 25.1109 66.2822 25.4691C66.6232 25.8273 66.8821 26.2554 67.0409 26.7237C69.9708 35.438 72.5889 45.4077 72.5889 53.3603C72.7253 55.7168 72.7357 58.0789 72.6201 60.4365C72.5835 60.7973 72.4349 61.1376 72.1952 61.4098C71.9555 61.6821 71.6367 61.8726 71.2833 61.9548Z" fill="#F48967"/>
<path d="M51.0963 62.7082C49.6512 62.5048 48.2114 62.2597 46.7841 61.9508C46.4319 61.8705 46.1139 61.6816 45.875 61.4109C45.636 61.1401 45.4881 60.8012 45.4522 60.442C45.336 58.0826 45.3462 55.7186 45.4829 53.3603C45.4829 45.4074 48.101 35.4384 51.0313 26.7239C51.19 26.2555 51.4489 25.8274 51.79 25.4692C52.131 25.111 52.546 24.8314 53.0062 24.6498L53.0929 24.6156C50.3115 37.1136 49.6367 49.988 51.0963 62.7082Z" fill="#FFBA88"/>
<path d="M64.9795 24.6151L65.0661 24.6493C65.5262 24.8309 65.9412 25.1105 66.2823 25.4687C66.6233 25.8269 66.8822 26.255 67.041 26.7233C69.9709 35.4382 72.589 45.4079 72.589 53.3603C72.7257 55.7186 72.7359 58.0826 72.6197 60.442C72.5837 60.8012 72.4358 61.14 72.1969 61.4107C71.9579 61.6814 71.6399 61.8703 71.2878 61.9506C69.861 62.2597 68.4214 62.5048 66.9756 62.7081C68.4354 49.9879 67.7608 37.1133 64.9795 24.6151Z" fill="#F7B787"/>
<path d="M65.0237 35.9215C64.7264 35.9215 64.4344 35.8438 64.1765 35.6961L58.1873 32.2755C57.7984 32.0479 57.515 31.6761 57.3988 31.2409C57.2825 30.8057 57.3427 30.3422 57.5663 29.9511C57.7899 29.56 58.1588 29.2729 58.593 29.1521C59.0271 29.0312 59.4915 29.0864 59.8851 29.3057L65.8743 32.7263C66.202 32.9135 66.4586 33.2038 66.6041 33.5519C66.7496 33.9 66.7759 34.2864 66.6789 34.651C66.5818 35.0156 66.3668 35.3379 66.0675 35.5677C65.7681 35.7975 65.4011 35.9219 65.0237 35.9215Z" fill="#F7B787"/>
<path d="M53.0487 35.9215C52.6712 35.9219 52.3042 35.7975 52.0048 35.5677C51.7055 35.3379 51.4905 35.0156 51.3935 34.651C51.2964 34.2864 51.3227 33.9 51.4682 33.5519C51.6137 33.2038 51.8703 32.9135 52.198 32.7263L58.1872 29.3057C58.5809 29.0864 59.0452 29.0312 59.4794 29.1521C59.9135 29.2729 60.2824 29.56 60.506 29.9511C60.7296 30.3422 60.7898 30.8057 60.6736 31.2409C60.5573 31.6761 60.274 32.0479 59.8851 32.2755L53.8959 35.6961C53.6379 35.8438 53.3459 35.9215 53.0487 35.9215Z" fill="#F7B787"/>
<path d="M68.4462 47.8937C68.1606 47.894 67.8795 47.8222 67.6291 47.6848L58.2175 42.5539C58.016 42.4488 57.8374 42.3046 57.6922 42.1298C57.547 41.9549 57.4382 41.7529 57.372 41.5355C57.3058 41.3182 57.2836 41.0898 57.3067 40.8638C57.3298 40.6377 57.3977 40.4186 57.5065 40.2191C57.6153 40.0196 57.7628 39.8437 57.9404 39.7018C58.1179 39.5599 58.322 39.4548 58.5406 39.3926C58.7593 39.3304 58.9881 39.3124 59.2138 39.3396C59.4395 39.3667 59.6575 39.4386 59.8551 39.551L69.2667 44.6819C69.6006 44.8639 69.8643 45.1519 70.0162 45.5005C70.1681 45.849 70.1994 46.2382 70.1053 46.6065C70.0112 46.9748 69.7971 47.3013 69.4966 47.5344C69.1961 47.7675 68.8266 47.8939 68.4462 47.8937Z" fill="#F7B787"/>
<path d="M49.6265 47.8937C49.2461 47.8941 48.8764 47.7678 48.5758 47.5348C48.2752 47.3018 48.0608 46.9753 47.9666 46.6069C47.8724 46.2385 47.9037 45.8493 48.0556 45.5007C48.2074 45.152 48.4712 44.8639 48.8051 44.6819L58.2167 39.551C58.4143 39.4386 58.6323 39.3667 58.858 39.3396C59.0837 39.3124 59.3126 39.3304 59.5312 39.3926C59.7499 39.4548 59.9539 39.5599 60.1315 39.7018C60.309 39.8437 60.4565 40.0196 60.5653 40.2191C60.6741 40.4186 60.742 40.6377 60.7651 40.8638C60.7882 41.0898 60.766 41.3182 60.6999 41.5355C60.6337 41.7529 60.5248 41.9549 60.3796 42.1298C60.2345 42.3046 60.0559 42.4488 59.8543 42.5539L50.4428 47.6848C50.1926 47.822 49.9118 47.8939 49.6265 47.8937Z" fill="#F7B787"/>
<path d="M67.5908 58.1555C67.2811 58.1555 66.9772 58.0712 66.7119 57.9116L58.1559 52.7807C57.9615 52.666 57.7917 52.5139 57.6564 52.3333C57.521 52.1527 57.4228 51.9472 57.3672 51.7285C57.3117 51.5098 57.3001 51.2822 57.3329 51.059C57.3658 50.8358 57.4425 50.6212 57.5587 50.4278C57.6749 50.2343 57.8282 50.0657 58.0098 49.9317C58.1915 49.7978 58.3979 49.701 58.6171 49.6471C58.8363 49.5932 59.064 49.5832 59.2871 49.6176C59.5103 49.6521 59.7243 49.7303 59.9171 49.8478L68.4731 54.9788C68.794 55.1713 69.043 55.4637 69.1817 55.8112C69.3205 56.1587 69.3414 56.5421 69.2412 56.9026C69.1411 57.2632 68.9255 57.5809 68.6274 57.8072C68.3292 58.0335 67.9651 58.1558 67.5908 58.1555Z" fill="#F7B787"/>
<path d="M50.4819 58.1555C50.1075 58.1558 49.7434 58.0335 49.4453 57.8072C49.1472 57.5809 48.9315 57.2632 48.8314 56.9026C48.7313 56.5421 48.7522 56.1587 48.8909 55.8112C49.0297 55.4637 49.2786 55.1713 49.5996 54.9788L58.1556 49.8478C58.3483 49.7303 58.5624 49.6521 58.7855 49.6176C59.0086 49.5832 59.2363 49.5932 59.4555 49.6471C59.6748 49.701 59.8811 49.7978 60.0628 49.9317C60.2444 50.0657 60.3978 50.2343 60.514 50.4278C60.6301 50.6212 60.7069 50.8358 60.7397 51.059C60.7726 51.2822 60.7609 51.5098 60.7054 51.7285C60.6499 51.9472 60.5516 52.1527 60.4163 52.3333C60.2809 52.5139 60.1111 52.666 59.9167 52.7807L51.3607 57.9116C51.0954 58.0712 50.7916 58.1555 50.4819 58.1555Z" fill="#F7B787"/>
</svg>
