<svg width="82" height="68" viewBox="0 0 82 68" fill="none" xmlns="http://www.w3.org/2000/svg">
<g clip-path="url(#clip0)">
<path fill-rule="evenodd" clip-rule="evenodd" d="M29.9116 34.6248L21.1557 25.8687C19.9104 24.6235 17.8715 24.623 16.6258 25.8687C15.3799 27.1146 15.3806 29.1534 16.6258 30.3986L25.3817 39.1545C26.6269 40.3997 28.6659 40.4002 29.9116 39.1545C31.1573 37.9088 31.1568 35.8698 29.9116 34.6248Z" fill="#713E21"/>
<path fill-rule="evenodd" clip-rule="evenodd" d="M32.4805 14.5441L54.0494 36.113C55.2949 37.3585 55.2951 39.3971 54.0494 40.6428C52.8037 41.8885 50.765 41.8883 49.5195 40.6428L27.9506 19.0739C26.7051 17.8284 26.7048 15.7898 27.9506 14.5441C29.1963 13.2982 31.235 13.2985 32.4805 14.5441V14.5441ZM16.6258 25.8687C15.38 27.1146 15.3806 29.1534 16.6258 30.3986L25.3817 39.1545C26.6269 40.3997 28.6659 40.4002 29.9116 39.1545C31.1573 37.9088 31.1568 35.8698 29.9116 34.6246L21.1557 25.8686C19.9105 24.6235 17.8715 24.6229 16.6258 25.8687ZM1.60156 27.5934C1.60156 41.7458 19.2409 53.2184 41 53.2184C62.7591 53.2184 80.3984 41.7457 80.3984 27.5934C80.3984 13.4411 62.7591 1.96844 41 1.96844C19.2409 1.96844 1.60156 13.4412 1.60156 27.5934ZM52.0883 20.5623L60.8442 29.3182C62.0894 30.5634 64.1283 30.5639 65.374 29.3182C66.6197 28.0725 66.6192 26.0335 65.374 24.7883L56.6181 16.0322C55.3729 14.787 53.334 14.7864 52.0883 16.0322C50.8426 17.2781 50.8432 19.317 52.0883 20.5623Z" fill="url(#paint0_linear)"/>
<path fill-rule="evenodd" clip-rule="evenodd" d="M52.0881 20.5623L60.844 29.3182C62.0892 30.5634 64.1282 30.5638 65.3738 29.3182C66.6195 28.0725 66.6191 26.0335 65.3738 24.7883L56.6179 16.0322C55.3727 14.787 53.3338 14.7864 52.0881 16.0322C50.8424 17.2781 50.843 19.317 52.0881 20.5623Z" fill="#713E21"/>
<path fill-rule="evenodd" clip-rule="evenodd" d="M54.0494 36.113L32.4805 14.5441C31.235 13.2985 29.1963 13.2982 27.9506 14.5441C26.7048 15.7899 26.7051 17.8284 27.9506 19.0739L49.5195 40.6428C50.7651 41.8883 52.8037 41.8885 54.0494 40.6428C55.2951 39.3971 55.2951 37.3585 54.0494 36.113Z" fill="#713E21"/>
<path fill-rule="evenodd" clip-rule="evenodd" d="M80.3984 27.5934C80.3984 41.7458 62.7591 53.2184 41 53.2184C19.2409 53.2184 1.60156 41.7457 1.60156 27.5934V40.4064C1.60156 54.5588 19.2409 66.0314 41 66.0314C62.7591 66.0314 80.3984 54.5586 80.3984 40.4064V27.5934Z" fill="#713E21"/>
<path d="M69.732 8.13126C54.5976 -2.1474 27.4021 -2.1474 12.268 8.13158C4.35673 13.2768 0 20.1885 0 27.5934V40.4064C0 47.8113 4.35673 54.7233 12.268 59.8686C27.4021 70.1476 54.5982 70.1474 69.7322 59.8686C77.6433 54.7233 82.0002 47.8114 82.0002 40.4064V27.5934C82 20.1885 77.6433 13.2768 69.732 8.13126ZM14.0143 10.8163C21.1988 6.14356 30.7825 3.57001 41 3.57001C51.2175 3.57001 60.8012 6.1434 67.9857 10.8163C82.3301 19.8904 82.3338 35.2965 67.9854 44.3705C60.8011 49.0435 51.2173 51.6169 41 51.6169C30.7827 51.6169 21.1989 49.0435 14.0143 44.3705C-0.330083 35.2965 -0.333766 19.8904 14.0143 10.8163V10.8163ZM78.7969 40.4064C78.0699 56.9169 56.932 64.5425 41.0002 64.43C25.0757 64.5482 3.92127 56.9076 3.20312 40.4064V38.2285C5.28051 41.503 8.33501 44.4976 12.268 47.0555C27.4021 57.3345 54.5982 57.3343 69.7322 47.0555C73.6651 44.4976 76.7195 41.503 78.797 38.2285V40.4064H78.7969Z" fill="#522D0B"/>
<path d="M32.5061 25.8943C33.1317 26.5196 34.1454 26.5196 34.7712 25.8943C35.3966 25.2689 35.3966 24.2548 34.7712 23.6293L29.0831 17.9415C28.4588 17.317 28.4586 16.3008 29.0829 15.6764C29.7075 15.0521 30.7237 15.0521 31.3482 15.6764L52.917 37.2453C54.3581 38.8151 52.2148 40.9431 50.6521 39.5102L44.9634 33.8214C44.3378 33.1962 43.324 33.1962 42.6983 33.8214C42.0729 34.4469 42.0729 35.461 42.6983 36.0865L48.387 41.7751C49.2919 42.6803 50.4984 43.1786 51.7844 43.1786C53.0703 43.1786 54.2769 42.6803 55.182 41.7751C57.0552 39.9018 57.0552 36.8537 55.182 34.9803L33.6131 13.4116C31.7397 11.5386 28.6916 11.5386 26.818 13.4116C24.9448 15.2848 24.9448 18.333 26.818 20.2066L32.5061 25.8943Z" fill="#522D0B"/>
<path d="M24.2492 40.287C25.1538 41.1919 26.3604 41.6903 27.6463 41.6904H27.6468C28.9327 41.6904 30.1391 41.192 31.0442 40.2871C32.9175 38.4138 32.9175 35.3657 31.0442 33.4922L22.2881 24.7361C20.4151 22.8631 17.3667 22.8629 15.4933 24.7361C15.4931 24.7361 15.4931 24.7361 15.4931 24.7361C13.6198 26.6095 13.6198 29.6576 15.4931 31.5311L24.2492 40.287ZM17.7581 27.0012C18.3825 26.3771 19.3986 26.3768 20.0232 27.0012L28.7792 35.7573C29.4037 36.3816 29.4037 37.3978 28.7792 38.0222C28.4794 38.3222 28.0771 38.4873 27.6468 38.4873C27.2163 38.4871 26.8143 38.3222 26.5145 38.0222L17.7584 29.2661C17.1336 28.6417 17.1336 27.6257 17.7581 27.0012V27.0012Z" fill="#522D0B"/>
<path d="M59.7117 30.4505C60.6163 31.3554 61.8229 31.8538 63.1088 31.8539C64.3949 31.8541 65.6015 31.3555 66.5065 30.4507C68.3799 28.5773 68.3799 25.5292 66.5065 23.6557L57.7505 14.8996C55.8771 13.0263 52.829 13.0266 50.9557 14.8996V14.8998C49.0825 16.773 49.0825 19.8212 50.9557 21.6948L59.7117 30.4505ZM53.2208 17.1646C53.8454 16.5404 54.8616 16.5406 55.4857 17.1647L64.2416 25.9208C64.5414 26.2206 64.7065 26.6228 64.7067 27.0531C64.7067 27.4836 64.5416 27.8858 64.2416 28.1856C63.9418 28.4855 63.5395 28.6507 63.1093 28.6507H63.1091C62.6788 28.6505 62.2768 28.4855 61.977 28.1856L53.2209 19.4298C52.5963 18.8054 52.5963 17.7892 53.2208 17.1646V17.1646Z" fill="#522D0B"/>
<path d="M17.2183 17.384C19.3433 17.2992 19.3417 14.2648 17.2183 14.1808H17.2172C15.0921 14.2659 15.0948 17.3004 17.2183 17.384Z" fill="#522D0B"/>
<path d="M39.0785 42.5285H39.0772C38.1929 42.5285 37.4763 43.2457 37.4763 44.1301C37.561 46.2542 40.596 46.2542 40.6801 44.1301C40.6801 43.2457 39.9629 42.5285 39.0785 42.5285V42.5285Z" fill="#522D0B"/>
<path d="M44.1235 13.5402C46.2485 13.4555 46.2469 10.421 44.1235 10.3371H44.1223C41.9973 10.4221 42.0002 13.4566 44.1235 13.5402Z" fill="#522D0B"/>
<path d="M63.8227 35.8019H63.8214C62.937 35.8019 62.2205 36.5191 62.2205 37.4035C62.3052 39.5277 65.3401 39.5277 65.4242 37.4035C65.4242 36.5191 64.707 35.8019 63.8227 35.8019V35.8019Z" fill="#522D0B"/>
<path d="M37.7099 31.0889C38.3856 31.6528 39.3968 31.5658 39.9656 30.8837C40.5317 30.2043 40.4399 29.1944 39.7604 28.6281L39.7594 28.6273C39.0802 28.0614 38.0706 28.1532 37.5043 28.8327C36.9381 29.5123 37.0304 30.5224 37.7099 31.0889V31.0889Z" fill="#522D0B"/>
</g>
<defs>
<linearGradient id="paint0_linear" x1="41" y1="1.96844" x2="41" y2="53.2184" gradientUnits="userSpaceOnUse">
<stop stop-color="#DEAD63"/>
<stop offset="1" stop-color="#5C2100"/>
</linearGradient>
<clipPath id="clip0">
<rect width="82" height="68" fill="white"/>
</clipPath>
</defs>
</svg>
