<svg width="100" height="86" viewBox="0 0 100 86" fill="none" xmlns="http://www.w3.org/2000/svg">
<g clip-path="url(#clip0)">
<path d="M5.89255 85.467C2.64335 85.467 0 82.7895 0 79.4987C0 76.7501 1.87128 74.3927 4.41932 73.7245V23.4547C4.41932 22.821 4.92693 22.307 5.55271 22.307H60.6252C61.2509 22.307 61.7584 22.821 61.7584 23.4547V73.7245C64.3066 74.3927 66.1779 76.7499 66.1779 79.4987C66.1779 82.7897 63.5345 85.467 60.2853 85.467H5.89255Z" fill="#19A9C1"/>
<g opacity="0.1">
<path opacity="0.1" d="M4.34959 79.4987C4.34959 77.3441 5.50213 75.4339 7.22653 74.3854V74.3811C7.51579 74.2054 7.82028 74.0512 8.14157 73.9272C8.5195 73.7813 8.76891 73.4156 8.76891 73.0077V23.4547C8.76891 22.821 9.27653 22.307 9.9023 22.307H5.55271C4.92693 22.307 4.41932 22.821 4.41932 23.4547V73.7245C1.87128 74.3927 0 76.7499 0 79.4987C0 82.7897 2.64335 85.467 5.89255 85.467H10.2423C6.99314 85.467 4.34959 82.7895 4.34959 79.4987Z" fill="black"/>
</g>
<path d="M33.0878 74.2919C44.3309 74.2919 53.4452 65.0608 53.4452 53.6735C53.4452 42.2863 44.3309 33.0552 33.0878 33.0552C21.8448 33.0552 12.7305 42.2863 12.7305 53.6735C12.7305 65.0608 21.8448 74.2919 33.0878 74.2919Z" fill="#FEFBF7"/>
<path d="M31.002 62.6928V69.3322C31.002 70.1479 31.6578 70.8092 32.4668 70.8092C33.2758 70.8092 33.9316 70.1479 33.9316 69.3322V62.6928H31.002Z" fill="#FFCB00"/>
<g opacity="0.1">
<path opacity="0.1" d="M17.132 53.6741C17.132 43.0394 25.0808 34.2863 35.2889 33.1751C34.5661 33.0963 33.8321 33.0547 33.0885 33.0547C21.8454 33.0547 12.7312 42.2861 12.7312 53.6741C12.7312 65.0619 21.8454 74.2935 33.0885 74.2935C33.8321 74.2935 34.5659 74.2521 35.2889 74.1733C25.0808 73.0619 17.132 64.3086 17.132 53.6741Z" fill="black"/>
</g>
<path d="M60.7952 19.7977C59.7852 17.3708 58.2149 15.2101 56.2226 13.7577L41.5836 3.08736C36.9113 -0.318509 29.266 -0.318509 24.5938 3.08736L9.95477 13.7577C7.96239 15.2101 6.39228 17.3708 5.38232 19.7977H60.7952Z" fill="white"/>
<g opacity="0.1">
<path opacity="0.1" d="M16.5444 13.7577L31.1834 3.0874C32.6773 1.99839 34.4758 1.25932 36.3834 0.866642C32.3254 0.0316676 27.7719 0.770542 24.5938 3.0874L9.95477 13.7577C7.96239 15.2101 6.39228 17.3708 5.38232 19.7977H11.9717C12.9819 17.3708 14.552 15.2101 16.5444 13.7577Z" fill="black"/>
</g>
<path d="M27.7556 8.92548C27.3708 8.92548 26.9939 8.76794 26.7205 8.49224C26.447 8.21654 26.2908 7.83647 26.2908 7.44852C26.2908 7.0586 26.447 6.67853 26.7205 6.4048C26.9939 6.1291 27.3707 5.97156 27.7556 5.97156C28.1423 5.97156 28.5193 6.1291 28.7927 6.4048C29.0642 6.67853 29.2204 7.0586 29.2204 7.44852C29.2204 7.83647 29.0642 8.21851 28.7927 8.49224C28.5193 8.76794 28.1423 8.92548 27.7556 8.92548Z" fill="#FFDDA7"/>
<path d="M33.0876 13.0294C32.7029 13.0294 32.3259 12.8719 32.0525 12.5962C31.7791 12.3224 31.6228 11.9404 31.6228 11.5525C31.6228 11.1645 31.7791 10.7844 32.0525 10.5087C32.3259 10.233 32.7029 10.0755 33.0876 10.0755C33.4744 10.0755 33.8513 10.233 34.1248 10.5087C34.3962 10.7825 34.5544 11.1645 34.5544 11.5525C34.5544 11.9404 34.3962 12.3224 34.1248 12.5962C33.8513 12.8719 33.4744 13.0294 33.0876 13.0294Z" fill="#FFDDA7"/>
<path d="M38.4216 8.92548C38.0349 8.92548 37.658 8.76794 37.3845 8.49224C37.113 8.21851 36.9568 7.83647 36.9568 7.44852C36.9568 7.0586 37.113 6.67853 37.3845 6.40283C37.658 6.1291 38.0349 5.97156 38.4216 5.97156C38.8064 5.97156 39.1833 6.1291 39.4568 6.40283C39.7302 6.67853 39.8865 7.0586 39.8865 7.44852C39.8865 7.83647 39.7302 8.21851 39.4568 8.49224C39.1833 8.76794 38.8064 8.92548 38.4216 8.92548Z" fill="#FEFBF7"/>
<path d="M43.7537 13.0295C43.3689 13.0295 42.99 12.8719 42.7185 12.5982C42.4451 12.3225 42.2888 11.9405 42.2888 11.5525C42.2888 11.1646 42.4451 10.7845 42.7185 10.5088C42.99 10.2331 43.3689 10.0756 43.7537 10.0756C44.1384 10.0756 44.5173 10.2331 44.7888 10.5088C45.0622 10.7845 45.2185 11.1646 45.2185 11.5525C45.2185 11.9405 45.0622 12.3225 44.7888 12.5982C44.5173 12.8719 44.1384 13.0295 43.7537 13.0295Z" fill="#FFDDA7"/>
<path d="M22.4241 13.0295C22.0393 13.0295 21.6624 12.8719 21.3889 12.5962C21.1155 12.3225 20.9592 11.9424 20.9592 11.5525C20.9592 11.1646 21.1155 10.7825 21.3889 10.5088C21.6624 10.2331 22.0393 10.0756 22.4241 10.0756C22.8108 10.0756 23.1877 10.2331 23.4612 10.5088C23.7327 10.7825 23.8889 11.1646 23.8889 11.5525C23.8889 11.9424 23.7327 12.3225 23.4612 12.5962C23.1877 12.8719 22.8108 13.0295 22.4241 13.0295Z" fill="#FEFBF7"/>
<path d="M65.7399 23.1185C65.7399 23.6764 65.2871 24.1329 64.7338 24.1329H1.44404C0.890721 24.1329 0.437988 23.6764 0.437988 23.1185V16.4413C0.437988 15.8834 0.890721 15.4269 1.44404 15.4269H64.734C65.2873 15.4269 65.7401 15.8834 65.7401 16.4413V23.1185H65.7399Z" fill="#3EB7CB"/>
<g opacity="0.1">
<path opacity="0.1" d="M7.03171 23.1185V16.4413C7.03171 15.8834 7.48445 15.4269 8.03776 15.4269H1.44404C0.890721 15.4269 0.437988 15.8834 0.437988 16.4413V23.1185C0.437988 23.6764 0.890721 24.1329 1.44404 24.1329H8.03776C7.48445 24.1329 7.03171 23.6764 7.03171 23.1185Z" fill="black"/>
</g>
<path d="M56.1501 85.4669C55.4741 85.4669 54.8647 85.0545 54.6063 84.4224C54.3479 83.7898 54.4909 83.062 54.9686 82.5777L70.0231 67.3298C71.9403 65.3883 74.5031 64.319 77.2396 64.319C79.9762 64.319 82.5392 65.3883 84.4562 67.33L99.5107 82.5777C99.9884 83.062 100.132 83.7898 99.8728 84.4224C99.6142 85.0545 99.005 85.4669 98.329 85.4669H56.1501Z" fill="white"/>
<g opacity="0.1">
<path opacity="0.1" d="M60.1395 84.4224C59.8811 83.7898 60.0239 83.062 60.5018 82.5777L75.5562 67.3298C76.8078 66.0622 78.3355 65.1695 80.0062 64.7002C79.1177 64.4507 78.1896 64.319 77.2396 64.319C74.5031 64.319 71.9402 65.3883 70.0231 67.3298L54.9686 82.5777C54.4909 83.062 54.3479 83.7898 54.6063 84.4224C54.8649 85.0545 55.4743 85.4669 56.1501 85.4669H61.6833C61.0073 85.4669 60.3979 85.0545 60.1395 84.4224Z" fill="black"/>
</g>
<path d="M65.9399 75.2037C64.2727 73.515 62.044 72.5853 59.6642 72.5853C57.2845 72.5853 55.0556 73.515 53.3884 75.2035L43.2556 85.467H76.7129L65.9399 75.2037Z" fill="#FFDDA7"/>
<g opacity="0.1">
<path opacity="0.1" d="M62.4042 73.0178C61.5317 72.7346 60.6104 72.5853 59.6641 72.5853C57.2845 72.5853 55.0556 73.515 53.3884 75.2035L43.2556 85.467H48.7357L58.8684 75.2035C59.8727 74.1864 61.0817 73.4469 62.4042 73.0178Z" fill="black"/>
</g>
<path d="M77.5093 71.7929C77.1245 71.7929 76.7456 71.6353 76.4741 71.3616C76.2007 71.0859 76.0444 70.7058 76.0444 70.3159C76.0444 69.9279 76.2007 69.5479 76.4741 69.2722C76.7456 68.9965 77.1226 68.8389 77.5093 68.8389C77.896 68.8389 78.2729 68.9965 78.5444 69.2722C78.8179 69.5479 78.9741 69.9279 78.9741 70.3159C78.9741 70.7058 78.8179 71.0859 78.5444 71.3616C78.2729 71.6353 77.894 71.7929 77.5093 71.7929Z" fill="#FFDDA7"/>
<path d="M82.949 76.1548C82.5623 76.1548 82.1853 75.9973 81.9138 75.7216C81.6404 75.4478 81.4841 75.0658 81.4841 74.6778C81.4841 74.2899 81.6404 73.9078 81.9138 73.6341C82.1853 73.3584 82.5623 73.2009 82.949 73.2009C83.3337 73.2009 83.7126 73.3584 83.9841 73.6341C84.2576 73.9078 84.4138 74.2879 84.4138 74.6778C84.4138 75.0677 84.2576 75.4478 83.9841 75.7216C83.7126 75.9973 83.3337 76.1548 82.949 76.1548Z" fill="#FEFBF7"/>
<path d="M88.3882 79.5991C88.0015 79.5991 87.6245 79.4415 87.3511 79.1658C87.0796 78.8901 86.9233 78.51 86.9233 78.1221C86.9233 77.7322 87.0796 77.3521 87.3511 77.0764C87.6245 76.8027 88.0015 76.6451 88.3882 76.6451C88.7729 76.6451 89.1519 76.8027 89.4233 77.0764C89.6968 77.3521 89.853 77.7322 89.853 78.1221C89.853 78.51 89.6968 78.8901 89.4233 79.1658C89.1519 79.4415 88.7729 79.5991 88.3882 79.5991Z" fill="#FFDDA7"/>
<path d="M73.8828 76.1548C73.498 76.1548 73.1211 75.9973 72.8477 75.7216C72.5742 75.4478 72.418 75.0658 72.418 74.6778C72.418 74.2899 72.5742 73.9078 72.8477 73.6341C73.1211 73.3584 73.498 73.2009 73.8828 73.2009C74.2695 73.2009 74.6465 73.3584 74.9199 73.6341C75.1914 73.9078 75.3476 74.2897 75.3476 74.6778C75.3476 75.0658 75.1914 75.4478 74.9199 75.7216C74.6465 75.9973 74.2695 76.1548 73.8828 76.1548Z" fill="#FEFBF7"/>
<path d="M59.3787 79.1402C58.9939 79.1402 58.615 78.9807 58.3435 78.707C58.0701 78.4313 57.9138 78.0512 57.9138 77.6633C57.9138 77.2733 58.0701 76.8933 58.3435 76.6176C58.615 76.3438 58.9919 76.1843 59.3787 76.1843C59.7634 76.1843 60.1423 76.3438 60.4138 76.6176C60.6872 76.8933 60.8435 77.2733 60.8435 77.6633C60.8435 78.0512 60.6872 78.4313 60.4138 78.707C60.1404 78.9807 59.7634 79.1402 59.3787 79.1402Z" fill="white"/>
<path d="M65.0447 81.6649C64.6599 81.6649 64.281 81.5073 64.0095 81.2316C63.7361 80.9559 63.5798 80.576 63.5798 80.1879C63.5798 79.798 63.7361 79.4179 64.0095 79.1422C64.281 78.8685 64.6599 78.7109 65.0447 78.7109C65.4294 78.7109 65.8083 78.8685 66.0798 79.1422C66.3533 79.4179 66.5095 79.798 66.5095 80.1879C66.5095 80.5758 66.3533 80.9559 66.0798 81.2316C65.8083 81.5073 65.4294 81.6649 65.0447 81.6649Z" fill="#FEFBF7"/>
<path d="M54.1658 81.6649C53.781 81.6649 53.4021 81.5073 53.1306 81.2316C52.8572 80.9559 52.7009 80.576 52.7009 80.1879C52.7009 79.798 52.8572 79.4179 53.1306 79.1422C53.4021 78.8685 53.781 78.7109 54.1658 78.7109C54.5505 78.7109 54.9294 78.8685 55.2029 79.1422C55.4743 79.4179 55.6306 79.798 55.6306 80.1879C55.6306 80.5758 55.4743 80.9559 55.2029 81.2316C54.9294 81.5073 54.5505 81.6649 54.1658 81.6649Z" fill="#FEFBF7"/>
<path d="M17.8076 18.3031H0.437988V21.257H17.8078C18.6168 21.257 19.2727 20.5957 19.2727 19.7801C19.2725 18.9644 18.6166 18.3031 17.8076 18.3031Z" fill="#008DAF"/>
<path d="M65.74 18.3031H49.9993C49.1903 18.3031 48.5344 18.9644 48.5344 19.7801C48.5344 20.5957 49.1903 21.257 49.9993 21.257H65.74V18.3031Z" fill="#008DAF"/>
<path d="M61.7584 26.9437H58.2747C57.4657 26.9437 56.8098 27.6049 56.8098 28.4206C56.8098 29.2363 57.4657 29.8976 58.2747 29.8976H61.7584V26.9437Z" fill="#299FBC"/>
<path d="M61.7584 32.2H58.2747C57.4657 32.2 56.8098 32.8613 56.8098 33.677C56.8098 34.4926 57.4657 35.1539 58.2747 35.1539H61.7584V32.2Z" fill="#299FBC"/>
<path d="M61.7584 37.4565H58.2747C57.4657 37.4565 56.8098 38.1178 56.8098 38.9334C56.8098 39.7491 57.4657 40.4104 58.2747 40.4104H61.7584V37.4565Z" fill="#299FBC"/>
<path d="M61.7584 42.7128H58.2747C57.4657 42.7128 56.8098 43.3741 56.8098 44.1898C56.8098 45.0055 57.4657 45.6667 58.2747 45.6667H61.7584V42.7128Z" fill="#299FBC"/>
<path d="M32.467 49.6956C32.3635 49.6956 32.2601 49.6713 32.1656 49.6221C30.1937 48.5975 28.9688 46.5683 28.9688 44.3271C28.9688 42.0855 30.1937 40.0565 32.1656 39.0319C32.2599 38.9829 32.3633 38.9583 32.4668 38.9583C32.5703 38.9583 32.6738 38.9829 32.7683 39.0319C34.7398 40.0567 35.9648 42.0855 35.9648 44.3271C35.965 46.5683 34.74 48.5975 32.7683 49.6221C32.6738 49.6712 32.5703 49.6956 32.467 49.6956Z" fill="#FFCB00"/>
<path d="M33.009 52.5788C32.9359 52.6528 32.8459 52.7095 32.7445 52.7426C30.6347 53.4303 28.3523 52.873 26.7877 51.2877C25.2227 49.703 24.6725 47.3913 25.3514 45.2544C25.3838 45.152 25.4398 45.0607 25.5131 44.9866C25.5859 44.9128 25.6764 44.8561 25.7777 44.8232C27.8871 44.1353 30.1695 44.6928 31.7345 46.2777C33.2992 47.8626 33.8496 50.1745 33.1707 52.3112C33.1379 52.4134 33.0818 52.5047 33.009 52.5788Z" fill="#F6B142"/>
<path d="M31.9244 52.5788C31.8514 52.5049 31.7953 52.4136 31.7627 52.3112C31.0838 50.1745 31.6342 47.8626 33.199 46.2777C34.7639 44.6928 37.0463 44.1353 39.1556 44.8232C39.257 44.8561 39.347 44.9128 39.4201 44.9866C39.4931 45.0607 39.5492 45.152 39.582 45.2546C40.2605 47.3913 39.7105 49.703 38.1457 51.2879C36.5808 52.873 34.2982 53.4303 32.1887 52.7426C32.0875 52.7093 31.9973 52.653 31.9244 52.5788Z" fill="#F6B142"/>
<path d="M33.009 58.1038C32.9359 58.1778 32.8459 58.2345 32.7445 58.2676C30.6347 58.9551 28.3523 58.3978 26.7877 56.8127C25.2227 55.2278 24.6725 52.9161 25.3514 50.7794C25.3838 50.6768 25.4398 50.5854 25.5131 50.5114C25.5859 50.4375 25.6764 50.3806 25.7777 50.3477C27.8871 49.6601 30.1695 50.2174 31.7345 51.8023C33.2992 53.3873 33.8496 55.6993 33.1707 57.8359C33.1379 57.9385 33.0818 58.0299 33.009 58.1038Z" fill="#FFCB00"/>
<path d="M31.9244 58.1038C31.8514 58.0299 31.7953 57.9386 31.7627 57.8362C31.0838 55.6995 31.6342 53.3876 33.199 51.8025C34.7639 50.2176 37.0463 49.6603 39.1556 50.348C39.257 50.3809 39.347 50.4376 39.4201 50.5116C39.4931 50.5857 39.5492 50.6771 39.582 50.7797C40.2605 52.9163 39.7105 55.2281 38.1457 56.8131C36.5808 58.398 34.2982 58.9553 32.1887 58.2678C32.0875 58.2346 31.9973 58.1782 31.9244 58.1038Z" fill="#FFCB00"/>
<path d="M33.009 63.6489C32.9359 63.7229 32.8459 63.7796 32.7445 63.8123C30.6347 64.5 28.3523 63.9427 26.7877 62.3576C25.2227 60.7727 24.6725 58.4608 25.3514 56.3241C25.3838 56.2215 25.4398 56.1304 25.5131 56.0563C25.5859 55.9823 25.6764 55.9254 25.7777 55.8927C27.8871 55.205 30.1695 55.7623 31.7345 57.3472C33.2992 58.9322 33.8496 61.2442 33.1707 63.3809C33.1379 63.4837 33.0818 63.5748 33.009 63.6489Z" fill="#F6B142"/>
<path d="M31.9244 63.6489C31.8514 63.5748 31.7953 63.4837 31.7627 63.3811C31.0838 61.2442 31.6342 58.9325 33.199 57.3476C34.7639 55.7625 37.0463 55.2054 39.1556 55.8931C39.257 55.9258 39.347 55.9825 39.4201 56.0567C39.4931 56.1306 39.5492 56.2219 39.582 56.3245C40.2605 58.4612 39.7105 60.7729 38.1457 62.3582C36.5808 63.9431 34.2982 64.5002 32.1887 63.8125C32.0875 63.7796 31.9973 63.7231 31.9244 63.6489Z" fill="#F6B142"/>
</g>
<defs>
<clipPath id="clip0">
<rect width="100" height="86" fill="white"/>
</clipPath>
</defs>
</svg>
