<svg width="86" height="86" viewBox="0 0 86 86" fill="none" xmlns="http://www.w3.org/2000/svg">
<g clip-path="url(#clip0)" filter="url(#filter0_d)">
<path d="M13.9151 6.61023C13.4732 6.6103 13.0605 6.38954 12.8152 6.02192L10.1711 2.05582C9.76591 1.44835 9.92986 0.62739 10.5373 0.222162C11.1448 -0.183065 11.9658 -0.0191101 12.371 0.588366L13.9151 2.90854L15.4593 0.588366C15.7214 0.195398 16.1733 -0.0278717 16.6447 0.00266086C17.1161 0.0331934 17.5353 0.312889 17.7446 0.73639C17.9539 1.15989 17.9213 1.66286 17.6591 2.05582L15.0151 6.02192C14.7698 6.38954 14.3571 6.6103 13.9151 6.61023V6.61023Z" fill="#BDE2EB"/>
<path d="M39.0338 21.1526C38.5919 21.1527 38.1791 20.9319 37.9339 20.5643L35.2898 16.5982C34.8846 15.9907 35.0485 15.1697 35.656 14.7645C36.2635 14.3593 37.0844 14.5232 37.4897 15.1307L39.0338 17.4509L40.5779 15.1347C40.8401 14.7417 41.2919 14.5185 41.7633 14.549C42.2347 14.5795 42.654 14.8592 42.8632 15.2827C43.0725 15.7062 43.0399 16.2092 42.7778 16.6021L40.1337 20.5682C39.8875 20.9344 39.475 21.1535 39.0338 21.1526Z" fill="#BDE2EB"/>
<path d="M62.8302 6.61023C62.3882 6.6103 61.9755 6.38954 61.7302 6.02192L59.0862 2.05582C58.6809 1.44835 58.8449 0.62739 59.4524 0.222162C60.0599 -0.183065 60.8808 -0.0191101 61.286 0.588366L62.8302 2.90854L64.3743 0.588366C64.7795 -0.01911 65.6005 -0.183065 66.208 0.222162C66.8154 0.62739 66.9794 1.44835 66.5742 2.05582L63.9301 6.02192C63.6848 6.38954 63.2721 6.6103 62.8302 6.61023Z" fill="#BDE2EB"/>
<path d="M35.3981 40.018V40.0048C36.5249 36.2239 40.2592 33.8458 44.1618 34.4238C48.0645 35.0017 50.9493 38.36 50.932 42.3052C50.9358 42.8475 50.8782 43.3886 50.7601 43.918C51.235 43.7266 51.7421 43.6279 52.254 43.6272C54.162 43.6261 55.7978 44.9893 56.1408 46.8662C56.997 46.4796 57.9248 46.2769 58.8642 46.2713C62.5149 46.2713 65.4744 49.2307 65.4744 52.8814C65.461 53.1426 65.4346 53.4029 65.3951 53.6614C68.5694 50.8566 73.3875 51.0409 76.3383 54.08C79.2892 57.1192 79.3313 61.9406 76.434 65.0309C79.6403 65.8794 81.7175 68.9772 81.2851 72.2655C80.8527 75.5539 78.0452 78.0094 74.7286 78.0001H11.271C7.95437 78.0094 5.14692 75.5539 4.71451 72.2655C4.2821 68.9772 6.35929 65.8794 9.56556 65.0309C7.33832 62.7481 6.69495 59.3533 7.93248 56.4138C9.17001 53.4743 12.0477 51.5619 15.2371 51.5594C15.9156 51.5593 16.5912 51.6482 17.2466 51.8238H17.2598L35.3981 40.018Z" fill="#A06A43"/>
<path d="M17.4947 39.0283L30.3449 35.8951C32.474 35.3759 34.6208 36.6811 35.1399 38.8102L36.7065 45.2352C37.0526 46.6546 36.1825 48.0858 34.7631 48.4319L19.3429 52.1918C17.9235 52.5379 16.4923 51.6678 16.1462 50.2484L14.5796 43.8233C14.0605 41.6942 15.3656 39.5474 17.4947 39.0283V39.0283Z" fill="#E8F8FF"/>
<path d="M20.4591 68.0584L18.6214 60.5095C18.2792 59.0901 19.1474 57.6607 20.5648 57.3102L35.9798 53.5556C37.3992 53.2134 38.8286 54.0816 39.1791 55.499L40.8184 62.2414L29.7794 67.4238L20.4591 68.0584Z" fill="#E8F8FF"/>
<path d="M34.7632 48.4293L19.343 52.1892C17.9236 52.5352 17.0535 53.9664 17.3996 55.3858C17.7457 56.8052 19.1769 57.6753 20.5963 57.3292L36.0165 53.5694C37.4359 53.2233 38.3059 51.7921 37.9599 50.3727C37.6138 48.9533 36.1826 48.0832 34.7632 48.4293Z" fill="#E0F4F9"/>
<path d="M19.4691 30.3775L24.6092 29.1242C25.3189 28.9511 26.0345 29.3862 26.2075 30.0959L27.7741 36.521L20.064 38.4009L18.4974 31.9758C18.3244 31.2661 18.7594 30.5505 19.4691 30.3775Z" fill="#3570C9"/>
<path d="M16.5588 71.3819C16.0275 71.3798 15.5491 71.0597 15.3443 70.5694C15.1396 70.0791 15.2482 69.5139 15.6201 69.1345C15.7973 68.9587 19.9577 64.9423 30.4349 66.0198C31.6564 64.3672 35.1862 60.8136 42.9995 60.8136C43.7296 60.8136 44.3215 61.4055 44.3215 62.1356C44.3215 62.8658 43.7296 63.4577 42.9995 63.4577C34.7698 63.4577 32.3756 67.8389 32.2778 68.0266C32.02 68.5169 31.4875 68.7983 30.9372 68.7352C21.2599 67.5256 17.5199 70.9827 17.4829 71.0131C17.2342 71.251 16.9029 71.3832 16.5588 71.3819V71.3819Z" fill="#B07A55"/>
<path d="M41.6775 71.3899C42.4076 71.3899 42.9995 70.798 42.9995 70.0679C42.9995 69.3377 42.4076 68.7458 41.6775 68.7458C40.9474 68.7458 40.3555 69.3377 40.3555 70.0679C40.3555 70.798 40.9474 71.3899 41.6775 71.3899Z" fill="#C98956"/>
<path d="M25.8132 74.034C26.5434 74.034 27.1353 73.4421 27.1353 72.7119C27.1353 71.9818 26.5434 71.3899 25.8132 71.3899C25.0831 71.3899 24.4912 71.9818 24.4912 72.7119C24.4912 73.4421 25.0831 74.034 25.8132 74.034Z" fill="#C98956"/>
<path d="M42.9998 43.6272C43.7299 43.6272 44.3218 43.0353 44.3218 42.3052C44.3218 41.5751 43.7299 40.9832 42.9998 40.9832C42.2696 40.9832 41.6777 41.5751 41.6777 42.3052C41.6777 43.0353 42.2696 43.6272 42.9998 43.6272Z" fill="#C98956"/>
<path d="M46.9656 54.2035C47.6957 54.2035 48.2876 53.6116 48.2876 52.8815C48.2876 52.1513 47.6957 51.5594 46.9656 51.5594C46.2355 51.5594 45.6436 52.1513 45.6436 52.8815C45.6436 53.6116 46.2355 54.2035 46.9656 54.2035Z" fill="#C98956"/>
<path d="M62.8303 72.7119C63.5605 72.7119 64.1524 72.12 64.1524 71.3899C64.1524 70.6598 63.5605 70.0679 62.8303 70.0679C62.1002 70.0679 61.5083 70.6598 61.5083 71.3899C61.5083 72.12 62.1002 72.7119 62.8303 72.7119Z" fill="#C98956"/>
<path d="M68.1184 63.4577C68.8486 63.4577 69.4405 62.8658 69.4405 62.1356C69.4405 61.4055 68.8486 60.8136 68.1184 60.8136C67.3883 60.8136 66.7964 61.4055 66.7964 62.1356C66.7964 62.8658 67.3883 63.4577 68.1184 63.4577Z" fill="#C98956"/>
<path d="M70.7042 27.3662C73.6829 28.729 76.5373 30.3485 79.2353 32.2062C79.6327 32.4796 80.147 32.5164 80.5793 32.3023C81.0116 32.0882 81.2941 31.6568 81.3175 31.175C81.6348 25.2496 78.2662 19.1828 75.0722 17.7339C71.8781 16.2849 65.112 17.7458 60.8643 21.8758C60.509 22.2069 60.3624 22.7053 60.4818 23.176C60.6013 23.6467 60.9678 24.0149 61.438 24.1365C64.6145 24.9424 67.7149 26.0231 70.7042 27.3662V27.3662Z" fill="white"/>
<path d="M57 54.4178L69.5181 26.8052L71.9281 27.8977L59.41 55.5104L57 54.4178Z" fill="#B4B4B4"/>
<path d="M77.6053 39.0728C77.3077 39.0725 77.0189 38.9719 76.7856 38.7872C74.047 36.6812 71.094 34.8697 67.9756 33.3827C64.8026 32.0157 61.4942 30.9876 58.1053 30.3156C57.3868 30.1845 56.9107 29.4959 57.0417 28.7774C57.1728 28.059 57.8614 27.5828 58.5799 27.7138C62.1833 28.4192 65.6997 29.5128 69.0676 30.9753C72.3864 32.5454 75.5255 34.4701 78.4302 36.7156C78.8707 37.0655 79.0415 37.6558 78.856 38.1868C78.6704 38.7178 78.1691 39.0733 77.6066 39.0728H77.6053Z" fill="#ECF0F1"/>
<path d="M74.2169 43.343C73.9038 43.3432 73.6009 43.2316 73.3628 43.0283C71.0405 41.122 68.4982 39.5006 65.7902 38.199C63.0278 37.0188 60.1333 36.1754 57.1692 35.6871C56.6943 35.6266 56.2892 35.3141 56.1101 34.8701C55.9311 34.4261 56.006 33.92 56.3061 33.547C56.6062 33.1739 57.0845 32.9923 57.5566 33.0721C60.7649 33.5935 63.8969 34.5072 66.8822 35.7929C69.8179 37.1914 72.5707 38.9452 75.0788 41.0149C75.5025 41.3738 75.6567 41.9592 75.4649 42.4803C75.2731 43.0014 74.7761 43.3471 74.2208 43.3456L74.2169 43.343Z" fill="#ECF0F1"/>
<path d="M69.6266 47.0645C69.2669 47.0645 68.9227 46.9179 68.6734 46.6586C67.1934 45.1763 65.4819 43.9448 63.6061 43.0124C61.6698 42.2129 59.6153 41.7368 57.5247 41.6031C56.7946 41.5871 56.2157 40.9822 56.2318 40.252C56.2478 39.5219 56.8528 38.943 57.5829 38.9591H57.6437C60.0701 39.1074 62.4543 39.6624 64.6968 40.601C66.8802 41.6693 68.8686 43.0972 70.5785 44.8249C70.9448 45.2071 71.0479 45.771 70.8403 46.258C70.6328 46.7451 70.1547 47.0613 69.6253 47.0618L69.6266 47.0645Z" fill="#ECF0F1"/>
<path d="M71.6853 23.322C72.4154 23.322 73.0073 22.7302 73.0073 22C73.0073 21.2699 72.4154 20.678 71.6853 20.678C70.9552 20.678 70.3633 21.2699 70.3633 22C70.3633 22.7302 70.9552 23.322 71.6853 23.322Z" fill="#393F4A"/>
<path d="M61.5081 58.1696C61.1575 58.1695 60.8213 58.0302 60.5735 57.7823C58.7226 55.9314 54.898 55.5255 53.5759 55.5255C52.8458 55.5255 52.2539 54.9336 52.2539 54.2035C52.2539 53.4734 52.8458 52.8815 53.5759 52.8815C53.8152 52.8815 59.4458 52.9158 62.4428 55.9129C62.8208 56.291 62.9338 56.8595 62.7293 57.3535C62.5247 57.8474 62.0428 58.1695 61.5081 58.1696Z" fill="#B07A55"/>
<path d="M52.2539 67.4238C53.7142 67.4238 54.898 66.24 54.898 64.7797C54.898 63.3194 53.7142 62.1356 52.2539 62.1356C50.7937 62.1356 49.6099 63.3194 49.6099 64.7797C49.6099 66.24 50.7937 67.4238 52.2539 67.4238Z" fill="#C98956"/>
<path d="M15.2369 5.28821H12.5928C11.1325 5.28821 9.94873 6.472 9.94873 7.93227C9.94873 9.39255 11.1325 10.5763 12.5928 10.5763H15.2369C16.6971 10.5763 17.8809 9.39255 17.8809 7.93227C17.8809 6.472 16.6971 5.28821 15.2369 5.28821Z" fill="#464F5D"/>
<path d="M40.3555 19.8306H37.7114C36.2512 19.8306 35.0674 21.0144 35.0674 22.4746C35.0674 23.9349 36.2512 25.1187 37.7114 25.1187H40.3555C41.8158 25.1187 42.9996 23.9349 42.9996 22.4746C42.9996 21.0144 41.8158 19.8306 40.3555 19.8306Z" fill="#464F5D"/>
<path d="M64.1524 5.28821H61.5083C60.048 5.28821 58.8643 6.472 58.8643 7.93227C58.8643 9.39255 60.048 10.5763 61.5083 10.5763H64.1524C65.6127 10.5763 66.7965 9.39255 66.7965 7.93227C66.7965 6.472 65.6127 5.28821 64.1524 5.28821Z" fill="#464F5D"/>
</g>
<defs>
<filter id="filter0_d" x="0" y="0" width="86" height="86" filterUnits="userSpaceOnUse" color-interpolation-filters="sRGB">
<feFlood flood-opacity="0" result="BackgroundImageFix"/>
<feColorMatrix in="SourceAlpha" type="matrix" values="0 0 0 0 0 0 0 0 0 0 0 0 0 0 0 0 0 0 127 0"/>
<feOffset dy="4"/>
<feGaussianBlur stdDeviation="2"/>
<feColorMatrix type="matrix" values="0 0 0 0 0 0 0 0 0 0 0 0 0 0 0 0 0 0 0.25 0"/>
<feBlend mode="normal" in2="BackgroundImageFix" result="effect1_dropShadow"/>
<feBlend mode="normal" in="SourceGraphic" in2="effect1_dropShadow" result="shape"/>
</filter>
<clipPath id="clip0">
<rect width="78" height="78" fill="white" transform="translate(4)"/>
</clipPath>
</defs>
</svg>
