<svg width="71" height="83" viewBox="0 0 71 83" fill="none" xmlns="http://www.w3.org/2000/svg">
<path d="M15.3968 2.65286C8.26547 2.65286 2.46387 8.45447 2.46387 15.5857C2.46387 22.7169 8.26547 28.5187 15.3968 28.5187C15.7677 28.5187 16.1427 28.5027 16.5116 28.4712L17.3091 28.4031L28.3298 16.3848V15.5858C28.3297 8.45447 22.5281 2.65286 15.3968 2.65286V2.65286Z" fill="#FFE662"/>
<path d="M15.3968 30.9618C6.91827 30.9618 0.020752 24.0641 0.020752 15.5857C0.020752 7.1073 6.91827 0.209625 15.3968 0.209625C23.8754 0.209625 30.7729 7.1073 30.7729 15.5857H25.8906C25.8906 9.79939 21.183 5.0919 15.3968 5.0919C9.61068 5.0919 4.90287 9.79939 4.90287 15.5857C4.90287 21.372 9.61052 26.0795 15.3967 26.0795C15.6994 26.0795 16.0055 26.0665 16.3062 26.0408L16.722 30.9053C16.2836 30.9429 15.8379 30.9618 15.3968 30.9618Z" fill="#FFBF1B"/>
<path d="M13.7112 14.6013L19.5152 81.5431H52.7772L58.5812 14.6013H13.7112Z" fill="#CFF3FC"/>
<path d="M36.1465 14.6013V81.5431H52.7775L58.5815 14.6013H36.1465Z" fill="#99EEFF"/>
<path d="M47.1315 31.3071L42.2981 30.6166L46.892 0H70.9795V4.88228H51.1264L47.1315 31.3071Z" fill="#FF95CE"/>
<path d="M52.3183 29.0723C52.2768 29.0938 48.0027 31.2011 41.5003 30.0637L33.4952 29.0282L33.4532 29.0232C23.2533 27.9128 18.5324 29.6683 18.3365 29.7436L16.845 30.3166L21.0756 79.1113H51.2567L55.7507 27.2786L52.3183 29.0723Z" fill="#FFEAC1"/>
<path d="M52.3185 29.0723C52.277 29.0938 48.0029 31.2012 41.5005 30.0637L36.1465 29.3711V79.1111H51.2568L55.7508 27.2784L52.3185 29.0723Z" fill="#FFCD9E"/>
<path d="M53.5012 83H18.7915L12.7349 13.1446H59.5578L53.5012 83ZM23.2689 78.1177H49.024L54.2342 18.0268H18.0587L23.2689 78.1177Z" fill="#99EEFF"/>
<path d="M26.9626 27.6135L41.3209 21.5112L47.4232 35.8695L33.0649 41.9718L26.9626 27.6135Z" fill="#E6FBFF"/>
<path d="M25.7356 59.7446L33.9916 46.51L47.2262 54.766L38.9702 68.0006L25.7356 59.7446Z" fill="#E6FBFF"/>
<path d="M46.13 47.4456C47.4068 47.4456 48.6302 46.3229 48.5711 45.0045C48.5118 43.6819 47.4985 42.5634 46.13 42.5634C44.8531 42.5634 43.6297 43.6861 43.6888 45.0045C43.7481 46.3271 44.7615 47.4456 46.13 47.4456Z" fill="#FF996D"/>
<path d="M25.8499 44.8167C27.1268 44.8167 28.3501 43.6939 28.2911 42.3756C28.2318 41.0529 27.2184 39.9344 25.8499 39.9344C24.5731 39.9344 23.3497 41.0572 23.4088 42.3756C23.468 43.6982 24.4814 44.8167 25.8499 44.8167Z" fill="#FFCD9E"/>
<path d="M30.7948 74.5484C32.0716 74.5484 33.295 73.4257 33.2359 72.1073C33.1767 70.7847 32.1633 69.6662 30.7948 69.6662C29.5179 69.6662 28.2945 70.7889 28.3536 72.1073C28.4129 73.4299 29.4263 74.5484 30.7948 74.5484Z" fill="#FFCD9E"/>
<path d="M36.1465 13.1446V18.0268H54.2342L49.0241 78.1177H36.1465V83H53.5013L59.558 13.1446H36.1465Z" fill="#66E6FF"/>
<path d="M36.1465 40.6896L47.4411 35.893L41.3409 21.5279L36.1465 23.7337V40.6896Z" fill="#CFF3FC"/>
<path d="M36.1465 47.8304V66.2265L39.0081 68.0121L47.2704 54.7717L36.1465 47.8304Z" fill="#CFF3FC"/>
</svg>
