<svg width="35" height="98" viewBox="0 0 35 98" fill="none" xmlns="http://www.w3.org/2000/svg">
<path d="M16.5 1H18C21.9782 1 27.7936 3.54455 30.6066 7.20203C33.4196 10.8595 35 15.8201 35 20.9926V69.7495C35 70.6116 34.7366 71.4384 34.2678 72.048C33.7989 72.6575 33.163 73 32.5 73H2.5C1.83696 73 1.20107 72.6575 0.732234 72.048C0.263393 71.4384 0 70.6116 0 69.7495V20.9926C0 15.8201 1.58035 10.8595 4.3934 7.20203C7.20644 3.54455 12.5218 1 16.5 1Z" fill="#BCF027"/>
<path d="M11.3125 63.4219C10.492 63.4219 9.70508 63.0959 9.12489 62.5157C8.5447 61.9355 8.21875 61.1486 8.21875 60.3281V23.2031C8.21875 22.3826 8.5447 21.5957 9.12489 21.0155C9.70508 20.4353 10.492 20.1094 11.3125 20.1094C12.133 20.1094 12.9199 20.4353 13.5001 21.0155C14.0803 21.5957 14.4062 22.3826 14.4062 23.2031V60.3281C14.4062 61.1486 14.0803 61.9355 13.5001 62.5157C12.9199 63.0959 12.133 63.4219 11.3125 63.4219Z" fill="#88D806"/>
<path d="M23.6875 63.4219C22.867 63.4219 22.0801 63.0959 21.4999 62.5157C20.9197 61.9355 20.5938 61.1486 20.5938 60.3281V23.2031C20.5938 22.3826 20.9197 21.5957 21.4999 21.0155C22.0801 20.4353 22.867 20.1094 23.6875 20.1094C24.508 20.1094 25.2949 20.4353 25.8751 21.0155C26.4553 21.5957 26.7812 22.3826 26.7812 23.2031V60.3281C26.7812 61.1486 26.4553 61.9355 25.8751 62.5157C25.2949 63.0959 24.508 63.4219 23.6875 63.4219Z" fill="#88D806"/>
<path d="M4.63942 35.561C6.09713 35.561 7.27884 34.3793 7.27884 32.9216C7.27884 31.4638 6.09713 30.2821 4.63942 30.2821C3.18171 30.2821 2 31.4638 2 32.9216C2 34.3793 3.18171 35.561 4.63942 35.561Z" fill="#E7FFBF"/>
<path d="M30.5867 59.791C31.6053 59.791 32.431 58.9652 32.431 57.9467C32.431 56.9281 31.6053 56.1024 30.5867 56.1024C29.5682 56.1024 28.7424 56.9281 28.7424 57.9467C28.7424 58.9652 29.5682 59.791 30.5867 59.791Z" fill="#E7FFBF"/>
<path d="M7.53302 52.4137C8.5516 52.4137 9.37732 51.588 9.37732 50.5694C9.37732 49.5509 8.5516 48.7251 7.53302 48.7251C6.51444 48.7251 5.68872 49.5509 5.68872 50.5694C5.68872 51.588 6.51444 52.4137 7.53302 52.4137Z" fill="#E7FFBF"/>
<path d="M15.8323 17.372C16.8509 17.372 17.6766 16.5463 17.6766 15.5277C17.6766 14.5092 16.8509 13.6834 15.8323 13.6834C14.8138 13.6834 13.988 14.5092 13.988 15.5277C13.988 16.5463 14.8138 17.372 15.8323 17.372Z" fill="#E7FFBF"/>
<path d="M23.6394 11.2788C25.0971 11.2788 26.2788 10.0971 26.2788 8.63942C26.2788 7.18171 25.0971 6 23.6394 6C22.1817 6 21 7.18171 21 8.63942C21 10.0971 22.1817 11.2788 23.6394 11.2788Z" fill="#E7FFBF"/>
<path d="M31.6394 42.2788C33.0971 42.2788 34.2788 41.0971 34.2788 39.6394C34.2788 38.1817 33.0971 37 31.6394 37C30.1817 37 29 38.1817 29 39.6394C29 41.0971 30.1817 42.2788 31.6394 42.2788Z" fill="#E7FFBF"/>
<path d="M17.5 97.5C16.3065 97.5 15.1619 97.3364 14.318 96.1551C13.4741 94.9738 13 93.3716 13 91.701V73H22V91.701C22 93.3716 21.5259 94.9738 20.682 96.1551C19.8381 97.3364 18.6935 97.5 17.5 97.5Z" fill="#B37A60"/>
<path d="M17.5 91.7812C18.3543 91.7812 19.0469 91.0887 19.0469 90.2344C19.0469 89.3801 18.3543 88.6875 17.5 88.6875C16.6457 88.6875 15.9531 89.3801 15.9531 90.2344C15.9531 91.0887 16.6457 91.7812 17.5 91.7812Z" fill="#D49073"/>
<path d="M17.5 85.5938C18.3543 85.5938 19.0469 84.9012 19.0469 84.0469C19.0469 83.1926 18.3543 82.5 17.5 82.5C16.6457 82.5 15.9531 83.1926 15.9531 84.0469C15.9531 84.9012 16.6457 85.5938 17.5 85.5938Z" fill="#D49073"/>
</svg>
