<svg width="94" height="65" viewBox="0 0 94 65" fill="none" xmlns="http://www.w3.org/2000/svg">
<g clip-path="url(#clip0)">
<path d="M29.9294 29.2846C30.9199 30.2751 35.3442 30.3496 34.2097 31.1714C27.7298 35.8652 18.6194 35.2929 12.781 29.4545C6.94256 23.616 6.37024 14.5056 11.064 8.02567C11.8858 6.89124 13.5284 6.76111 14.5189 7.75161L15.0332 8.26587L29.9294 29.2846Z" fill="#FFAD4E"/>
<path d="M15.0334 8.26611C10.5239 14.7294 11.1492 23.6874 16.9163 29.4545C19.6241 32.1624 23.0361 33.7354 26.5627 34.1776C29.2673 33.8405 31.9052 32.841 34.21 31.1715C35.3444 30.3497 35.4745 28.707 34.484 27.7166L15.0334 8.26611Z" fill="#C96000"/>
<path d="M42.4018 27.7165C43.3923 28.707 43.2621 30.3497 42.1277 31.1715C35.6478 35.8652 26.5373 35.2929 20.6989 29.4545C15.2261 23.9817 14.3805 15.6337 18.1622 9.27231C18.4149 8.84732 18.688 9.18795 18.982 8.78226C19.8036 7.64783 21.4464 7.5177 22.4369 8.5082L42.4018 27.7165Z" fill="#FFAD4E"/>
<path d="M42.4016 27.7165L22.4367 7.75179C21.4462 6.76129 19.8036 6.89142 18.9818 8.02585C18.6879 8.43154 18.4148 8.84764 18.1621 9.27263C18.3372 9.37173 18.5037 9.49297 18.654 9.64333L38.6189 29.6082C39.6094 30.5987 39.4793 32.2413 38.3449 33.0631C38.1919 33.174 38.0362 33.2789 37.8804 33.3837C39.3719 32.8644 40.8049 32.1298 42.1276 31.1718C43.262 30.3496 43.3919 28.707 42.4016 27.7165Z" fill="#C96000"/>
<path d="M63.1008 7.50312C63.1008 11.7012 60.0438 14.758 55.8458 14.758C55.2502 14.758 54.6705 15.0356 54.1144 14.906C50.7507 14.1225 48.2446 11.1054 48.2446 7.50293C48.2446 3.90048 50.7507 0.883588 54.1142 0.0998138C54.6705 -0.0297436 55.25 0.247907 55.8458 0.247907C60.0438 0.248285 63.1008 3.30527 63.1008 7.50312Z" fill="#FFA724"/>
<path d="M55.8455 -0.0980225C55.2497 -0.0980225 54.6707 -0.0272864 54.1145 0.102271C57.4781 0.886046 59.9847 3.90067 59.9847 7.50312C59.9847 11.1054 57.4781 14.1202 54.1145 14.9038C54.6707 15.0333 55.2497 15.1041 55.8455 15.1041C60.0435 15.1041 63.4466 11.701 63.4466 7.50293C63.4466 3.30489 60.0435 -0.0980225 55.8455 -0.0980225Z" fill="#D57300"/>
<path d="M55.3264 13.8779C55.3264 18.0759 52.2694 21.1327 48.0714 21.1327C47.4758 21.1327 46.8961 21.4103 46.34 21.2808C42.9763 20.4972 40.4702 17.4801 40.4702 13.8777C40.4702 10.2752 42.9761 7.25834 46.3398 6.47457C46.8961 6.34501 47.4756 6.62266 48.0714 6.62266C52.2694 6.62285 55.3264 9.67984 55.3264 13.8779Z" fill="#FFAD4E"/>
<path d="M48.0715 6.27673C47.4758 6.27673 46.8968 6.34747 46.3406 6.47703C49.7041 7.2608 52.2107 10.2756 52.2107 13.8779C52.2107 17.4801 49.7041 20.495 46.3406 21.2785C46.8968 21.4081 47.4758 21.4788 48.0715 21.4788C52.2696 21.4788 55.6727 18.0757 55.6727 13.8777C55.6727 9.67984 52.2696 6.27673 48.0715 6.27673Z" fill="#C96000"/>
<path d="M70.5286 13.8779C70.5286 18.0759 67.4716 21.1327 63.2736 21.1327C62.678 21.1327 62.0983 21.4103 61.5422 21.2808C58.1785 20.4972 55.6726 17.4801 55.6726 13.8777C55.6726 10.2752 58.1786 7.25834 61.5422 6.47457C62.0985 6.34501 62.678 6.62266 63.2737 6.62266C67.4716 6.62285 70.5286 9.67984 70.5286 13.8779Z" fill="#FFAD4E"/>
<path d="M63.2737 6.27673C62.6779 6.27673 62.099 6.34747 61.5427 6.47703C64.9063 7.2608 67.4129 10.2756 67.4129 13.8779C67.4129 17.4801 64.9063 20.495 61.5427 21.2785C62.099 21.4081 62.6779 21.4788 63.2737 21.4788C67.4717 21.4788 70.8748 18.0757 70.8748 13.8777C70.8746 9.67984 67.4715 6.27673 63.2737 6.27673Z" fill="#C96000"/>
<path d="M85.7275 22.1191C85.7275 26.3171 82.6705 29.3739 78.4725 29.3739C77.8769 29.3739 77.2972 29.6516 76.7411 29.522C73.3774 28.7384 70.8713 25.7213 70.8713 22.1189C70.8713 18.5164 73.3774 15.4996 76.7409 14.7158C77.2972 14.5862 77.8767 14.8639 78.4725 14.8639C82.6705 14.8641 85.7275 17.921 85.7275 22.1191Z" fill="#FFA724"/>
<path d="M78.4722 14.5179C77.8764 14.5179 77.2975 14.5887 76.7412 14.7182C80.1048 15.502 82.6114 18.5166 82.6114 22.1191C82.6114 25.7214 80.1048 28.7362 76.7412 29.5197C77.2975 29.6493 77.8764 29.72 78.4722 29.72C82.6702 29.72 86.0733 26.3169 86.0733 22.1189C86.0733 17.9211 82.6702 14.5179 78.4722 14.5179Z" fill="#D57300"/>
<path d="M41.9664 32.3586L41.3335 31.942L34.748 25.3565C33.9043 24.5128 33.9043 23.1449 34.748 22.3012L41.3335 15.7156L41.9664 15.5149C42.8101 14.6711 44.1781 14.6711 45.0216 15.5149L50.0795 22.3012C50.9232 23.1449 50.9232 24.5128 50.0795 25.3565L45.0216 32.3588C44.1779 33.2024 42.8101 33.2024 41.9664 32.3586Z" fill="#FE9800"/>
<path d="M52.24 22.301L45.0216 15.0827C44.1779 14.239 42.8101 14.239 41.9663 15.0827L41.3335 15.7155L44.9492 19.3312C45.3186 19.7006 45.3186 20.2992 44.9492 20.6686L43.3168 22.301C42.473 23.1448 42.473 24.5128 43.3168 25.3565L44.9492 26.9889C45.3186 27.3583 45.3186 27.9569 44.9492 28.3263L41.3335 31.942L41.9663 32.5748C42.8101 33.4186 44.1779 33.4186 45.0216 32.5748L52.24 25.3565C53.0837 24.5126 53.0837 23.1448 52.24 22.301Z" fill="#D76904"/>
<path d="M66.6697 32.3586L66.0369 31.942L59.4514 25.3565C58.6077 24.5128 58.6077 23.1449 59.4514 22.3012L66.0369 15.7156L66.6697 15.5149C67.5135 14.6711 68.8815 14.6711 69.725 15.5149L74.7828 22.3012C75.6266 23.1449 75.6266 24.5128 74.7828 25.3565L69.725 32.3588C68.8813 33.2024 67.5135 33.2024 66.6697 32.3586Z" fill="#FE9800"/>
<path d="M76.9433 22.301L69.725 15.0827C68.8813 14.239 67.5134 14.239 66.6697 15.0827L66.0369 15.7155L72.6223 22.3012C73.4661 23.1449 73.4661 24.5128 72.6223 25.3565L66.0369 31.942L66.6697 32.5748C67.5134 33.4186 68.8813 33.4186 69.725 32.5748L76.9433 25.3565C77.787 24.5126 77.787 23.1448 76.9433 22.301Z" fill="#D76904"/>
<path d="M54.3179 32.3586L53.6851 31.942L47.0996 25.3565C46.2559 24.5128 46.2559 23.1449 47.0996 22.3012L53.6851 15.7156L54.3179 15.5149C55.1617 14.6711 56.5297 14.6711 57.3732 15.5149L62.4311 22.3012C63.2748 23.1449 63.2748 24.5128 62.4311 25.3565L57.3732 32.3588C56.5295 33.2024 55.1617 33.2024 54.3179 32.3586Z" fill="#FE9800"/>
<path d="M64.5915 22.301L57.3732 15.0827C56.5295 14.239 55.1616 14.239 54.3179 15.0827L53.6851 15.7155L60.2705 22.3012C61.1143 23.1449 61.1143 24.5128 60.2705 25.3565L53.6851 31.942L54.3179 32.5748C55.1616 33.4186 56.5295 33.4186 57.3732 32.5748L64.5915 25.3565C65.4352 24.5126 65.4352 23.1448 64.5915 22.301Z" fill="#D76904"/>
<path d="M27.647 58.9239L63.6127 55.1412V62.8511C63.6127 64.4179 62.3424 65.6881 60.7757 65.6881H30.484C28.9172 65.6881 27.647 64.4179 27.647 62.8511V58.9239Z" fill="#E1F4FF"/>
<path d="M59.8302 55.1412V62.8511C59.8302 64.4179 58.56 65.6881 56.9932 65.6881H62.6672C64.234 65.6881 65.5042 64.4179 65.5042 62.8511V58.9239L59.8302 55.1412Z" fill="#B3E5FE"/>
<path d="M63.9507 61.7765H27.8379C17.3495 61.7765 8.84717 54.9351 8.84717 46.4959V44.7275L10.7462 41.6359L8.84717 39.706V30.8118H82.9413V46.4959C82.9415 54.9351 74.4389 61.7765 63.9507 61.7765Z" fill="#FAF7F8"/>
<path d="M78.4325 30.8118V46.4959C78.4325 54.9352 70.0534 61.7765 59.7175 61.7765H65.332C75.6679 61.7765 84.0469 54.9352 84.0469 46.4959V44.7275L82.1754 43.1646L84.0469 39.706V30.8118H78.4325Z" fill="#DFDCEC"/>
<path d="M78.768 44.7683H8.75781V38.5529H78.768L83.1043 41.6606L78.768 44.7683Z" fill="#FE9800"/>
<path d="M78.7678 38.5529H84.4419V44.7683H78.7678V38.5529Z" fill="#D76904"/>
<path d="M88.2306 34.8853H3.87802C1.73626 34.8853 0 33.149 0 31.0073C0 28.8655 1.73626 27.1293 3.87802 27.1293H88.2306C90.3724 27.1293 92.1086 28.8655 92.1086 31.0073C92.1086 33.149 90.3724 34.8853 88.2306 34.8853Z" fill="#E1F4FF"/>
<path d="M90.1221 27.1293H84.448C86.5898 27.1293 88.326 28.8655 88.326 31.0073C88.326 33.149 86.5898 34.8853 84.448 34.8853H90.1221C92.2638 34.8853 94.0001 33.149 94.0001 31.0073C94.0001 28.8655 92.2638 27.1293 90.1221 27.1293Z" fill="#B3E5FE"/>
</g>
<defs>
<clipPath id="clip0">
<rect width="94" height="65" fill="white"/>
</clipPath>
</defs>
</svg>
