<svg width="67" height="60" viewBox="0 0 67 60" fill="none" xmlns="http://www.w3.org/2000/svg">
<g clip-path="url(#clip0)">
<path d="M42.5004 43.5429H44.6936C46.9313 43.5429 48.7711 45.2746 48.9456 47.4684C49.3541 47.3715 49.7792 47.3187 50.2168 47.3187C51.2158 47.3187 52.1526 47.5873 52.9612 48.0542C52.9664 48.0517 52.9715 48.0491 52.9768 48.0468C52.5852 46.8518 52.5396 45.5341 52.9149 44.2481C52.984 44.0113 53.2042 43.8462 53.4505 43.8462C53.5247 43.8462 53.5974 43.861 53.6668 43.8903L56.3061 45.0056C57.0939 43.6644 57.4778 42.0797 57.3237 40.4433C57.286 40.0428 56.9046 39.7652 56.5096 39.8415L42.9599 42.4571C42.5648 42.5334 42.3142 42.9328 42.4283 43.3187C42.4507 43.3942 42.476 43.4684 42.5004 43.5429Z" fill="#FEF0AE"/>
<path d="M64.4861 48.3204L53.7175 43.7697C53.3384 43.6095 52.9044 43.8164 52.7891 44.2114C52.421 45.4728 52.4516 46.7751 52.8175 47.9685C53.9214 48.5591 54.8139 49.5228 55.3124 50.739L55.3695 50.8781L55.4994 50.8024C56.2431 50.3689 57.0924 50.1396 57.9555 50.1396C59.5198 50.1396 60.9217 50.8731 61.8185 52.0296C63.0503 51.4709 64.1138 50.5335 64.8164 49.2943C65.0193 48.9361 64.8652 48.4807 64.4861 48.3204V48.3204Z" fill="#FEF0AE"/>
<path d="M55.3126 50.7388L55.3696 50.8779L55.4996 50.8023C55.9667 50.5299 56.4758 50.3384 57.0035 50.2335C55.7297 48.6896 55.1998 46.607 55.6597 44.5904L53.7175 43.7697C53.3384 43.6095 52.9044 43.8164 52.7891 44.2114C52.421 45.4728 52.4516 46.7751 52.8175 47.9685C53.9215 48.5591 54.8139 49.5228 55.3126 50.7388V50.7388Z" fill="#FEDF74"/>
<path d="M48.9605 47.8097V50.089C48.9605 52.0396 47.6425 53.7395 45.7554 54.2227L45.7878 54.4804H53.101L53.1163 54.3671C53.3215 52.843 54.2296 51.5565 55.4848 50.8162C54.675 48.6951 52.6225 47.1879 50.2168 47.1879C49.7751 47.1879 49.346 47.2403 48.9336 47.3363C48.9508 47.4917 48.9605 47.6497 48.9605 47.8097V47.8097Z" fill="#FAC600"/>
<path d="M62.942 54.4804C62.6706 51.9662 60.5421 50.0087 57.9557 50.0087C55.3694 50.0087 53.2409 51.9662 52.9695 54.4804H62.942Z" fill="#FEDF74"/>
<path d="M55.8001 54.4804C56.0201 52.4444 57.458 50.7741 59.3709 50.2124C58.9219 50.0806 58.4474 50.0087 57.9557 50.0087C55.3694 50.0087 53.2409 51.9662 52.9695 54.4804H55.8001Z" fill="#FED402"/>
<path d="M3.48471 52.0372C3.49164 52.7441 3.66699 53.4597 4.03 54.1233C4.09765 54.2471 4.1708 54.3659 4.24814 54.4804H12.2977V54.2227C10.4106 53.7396 9.09242 52.0396 9.09242 50.089V47.8097C9.09242 45.457 11.0065 43.5428 13.3594 43.5428H22.8508C22.7643 43.115 22.6139 42.6927 22.3934 42.2896C21.748 41.1098 20.6452 40.3402 19.4261 40.078C19.4103 39.3902 19.2353 38.696 18.8824 38.0508C17.7043 35.8972 15.0032 35.1062 12.8494 36.2844C11.8211 36.8468 11.1045 37.7568 10.7635 38.7882C9.40374 37.6838 7.45825 37.4452 5.8263 38.3379C3.69578 39.5034 2.90016 42.1589 4.02385 44.3009C3.94481 44.3384 3.86629 44.3775 3.78869 44.42C1.63501 45.5982 0.844095 48.2992 2.02222 50.453C2.38536 51.1165 2.89322 51.6502 3.48471 52.0372V52.0372Z" fill="#80D261"/>
<path d="M3.48473 52.0373C3.49167 52.7442 3.66702 53.4597 4.03002 54.1233C4.09768 54.2471 4.17083 54.3659 4.24817 54.4804H8.44862C8.41656 54.427 8.38476 54.3734 8.35466 54.3182C7.99166 53.6546 7.81618 52.939 7.80937 52.2321C7.21776 51.845 6.70989 51.3114 6.34689 50.6478C5.16876 48.494 5.95954 45.793 8.11336 44.6148C8.19096 44.5723 8.26961 44.5331 8.34851 44.4957C7.22482 42.3537 8.02045 39.6983 10.151 38.5327C10.1993 38.5063 10.2486 38.4842 10.2974 38.4597C8.98161 37.6469 7.28005 37.5425 5.82633 38.3377C3.69581 39.5032 2.90018 42.1587 4.02387 44.3006C3.94483 44.338 3.86632 44.3772 3.78872 44.4197C1.6349 45.5978 0.844121 48.2989 2.02225 50.4527C2.38538 51.1165 2.89325 51.6502 3.48473 52.0373V52.0373Z" fill="#68CA44"/>
<path d="M27.3152 43.4129H13.3597C10.9308 43.4129 8.96191 45.3818 8.96191 47.8107V50.09C8.96191 52.5189 10.9308 54.4878 13.3597 54.4878H27.3152V43.4129Z" fill="#883F2E"/>
<path d="M44.6935 43.4119H37.3606V49.9111C37.3606 50.3353 37.1953 50.734 36.8952 51.0338C36.5956 51.3332 36.1975 51.4981 35.7743 51.4981L35.7472 51.4979C34.8865 51.4836 34.1864 50.7717 34.1864 49.9111V48.7045C34.1864 47.6851 33.3573 46.8558 32.3381 46.8558L32.2993 46.8561C31.3011 46.8767 30.489 47.7317 30.489 48.7622V54.4867H44.6935C47.1224 54.4867 49.0913 52.5178 49.0913 50.0889V47.8096C49.0913 45.381 47.1224 43.4119 44.6935 43.4119V43.4119Z" fill="#883F2E"/>
<path d="M13.2722 51.0467C12.7826 51.0023 12.3975 50.59 12.3975 50.089V47.8097C12.3975 47.3088 12.7825 46.8965 13.2722 46.8521C13.7094 44.884 15.4643 43.4119 17.5641 43.4119H13.3595C10.9306 43.4119 8.96167 45.3808 8.96167 47.8097V50.089C8.96167 52.5179 10.9306 54.4868 13.3595 54.4868H17.5641C15.4643 54.4868 13.7094 53.0148 13.2722 51.0467V51.0467Z" fill="#A53100"/>
<path d="M32.3383 46.8558L32.2996 46.8562C31.3014 46.8768 30.4893 47.7318 30.4893 48.7623V51.0509H34.6757C34.3753 50.7612 34.1867 50.3566 34.1867 49.911V48.7045C34.1867 47.6852 33.3574 46.8558 32.3383 46.8558V46.8558Z" fill="#9E2F0B"/>
<path d="M44.6936 46.8477H37.3606V49.9111C37.3606 50.3354 37.1954 50.7341 36.8953 51.0339C36.8893 51.0399 36.8826 51.045 36.8765 51.0509H44.6936C45.2241 51.0509 45.6556 50.6193 45.6556 50.089V47.8097C45.6557 47.2793 45.2241 46.8477 44.6936 46.8477V46.8477Z" fill="#9E2F0B"/>
<path d="M27.315 46.8477H13.3595C12.829 46.8477 12.3975 47.2793 12.3975 47.8098V50.0891C12.3975 50.6195 12.829 51.051 13.3595 51.051H27.315V46.8477Z" fill="#9E2F0B"/>
<path d="M18.3887 46.8477L17.0144 51.051C17.0144 51.051 21.315 50.9538 21.4122 51.051L22.7865 46.8477H18.3887Z" fill="#FE646F"/>
<path d="M18.3887 46.8477L17.0144 51.051C17.0144 51.051 21.315 50.9538 21.4122 51.051L22.7865 46.8477H18.3887Z" fill="#E95C20"/>
<path d="M34.0039 25.4031L37.6427 21.7643C37.6019 21.759 37.5607 21.7553 37.5184 21.7553C34.0039 21.7553 31.1445 24.6146 31.1445 28.1291V38.6442C31.1445 39.1863 31.584 39.6256 32.126 39.6256C32.668 39.6256 33.1074 39.1863 33.1074 38.6442V28.1291C33.1074 27.222 33.3842 26.3792 33.8557 25.6776C33.8765 25.5752 33.9267 25.4804 34.0039 25.4031Z" fill="#FE9901"/>
<path d="M64.9174 2.31185C63.063 0.457573 60.0456 0.457573 58.1913 2.31185L57.3362 3.16702L58.7242 4.55504L59.5792 3.70001C60.6683 2.61073 62.4404 2.61073 63.5295 3.70001C64.6185 4.78902 64.6185 6.56098 63.5295 7.65013L60.1698 11.0099C60.3623 11.8125 60.4751 12.6271 60.5132 13.4426L64.9175 9.03828C65.8159 8.13993 66.3106 6.94558 66.3106 5.6752C66.3106 4.40481 65.8157 3.2102 64.9174 2.31185Z" fill="#C4E2FF"/>
<path d="M66.4383 21.5911C64.9878 21.3325 63.489 21.41 62.0676 21.8238C61.1592 22.0882 60.1826 21.9732 59.3709 21.4871L58.5373 20.9879C58.02 21.8159 57.406 22.5968 56.6927 23.31C56.1029 23.8997 55.4663 24.4254 54.792 24.8852L55.2342 25.6237C55.7203 26.4354 55.8353 27.412 55.5709 28.3204C55.1571 29.7418 55.0795 31.2405 55.3382 32.6911C55.4342 33.23 56.0931 33.442 56.4802 33.0549L66.8021 22.733C67.1892 22.346 66.9772 21.6872 66.4383 21.5911V21.5911Z" fill="#D8ECFE"/>
<path d="M58.4375 26.3409C58.757 25.243 58.6181 24.0628 58.0305 23.0819L57.5784 22.327C57.302 22.6664 57.0076 22.9953 56.6927 23.3101C56.1029 23.8999 55.4663 24.4256 54.792 24.8854L55.2342 25.6238C55.7203 26.4356 55.8353 27.4122 55.5709 28.3206C55.1571 29.742 55.0795 31.2407 55.3382 32.6913C55.4342 33.2302 56.0931 33.4421 56.4802 33.0551L58.1218 31.4133C57.8529 29.7257 57.9574 27.9904 58.4375 26.3409V26.3409Z" fill="#C4E2FF"/>
<path d="M56.3114 2.91062L33.9114 25.3105C33.584 25.6379 33.6766 26.1902 34.0928 26.3931L34.8003 26.7378C36.093 27.3674 37.6427 27.1078 38.6595 26.091L39.0576 25.693C39.5119 25.2386 40.2167 25.1424 40.7709 25.4674C45.8324 28.4347 52.4454 27.7476 56.7879 23.4052C61.1303 19.0627 61.8174 12.4497 58.8501 7.38823C58.5251 6.83391 58.6213 6.1291 59.0757 5.67489C59.339 5.4116 59.339 4.98487 59.0757 4.72171L57.2644 2.91049C57.0014 2.64733 56.5746 2.64733 56.3114 2.91062V2.91062Z" fill="#ACC7E4"/>
<path d="M58.731 19.6765C54.3885 24.0189 47.7756 24.7061 42.7141 21.7387C42.1597 21.4138 41.4549 21.51 41.0007 21.9643L40.6026 22.3624C39.5859 23.3792 38.0361 23.6388 36.7435 23.0091L36.3867 22.8353L33.9114 25.3107C33.584 25.6381 33.6766 26.1904 34.0928 26.3933L34.8003 26.7379C36.093 27.3676 37.6427 27.108 38.6595 26.0912L39.0576 25.6932C39.5119 25.2388 40.2167 25.1426 40.7709 25.4677C45.8324 28.4351 52.4454 27.7479 56.7879 23.4055C58.2961 21.8973 59.3623 20.1149 59.9887 18.219C59.61 18.7269 59.1924 19.2151 58.731 19.6765V19.6765Z" fill="#8FB0C5"/>
<path d="M25.0745 39.5583C25.6165 39.5583 26.0559 39.1189 26.0559 38.5769C26.0559 38.0349 25.6165 37.5955 25.0745 37.5955C24.5324 37.5955 24.093 38.0349 24.093 38.5769C24.093 39.1189 24.5324 39.5583 25.0745 39.5583Z" fill="#FE9901"/>
<path d="M36.9377 39.6931C37.4798 39.6931 37.9192 39.2537 37.9192 38.7117C37.9192 38.1696 37.4798 37.7302 36.9377 37.7302C36.3957 37.7302 35.9563 38.1696 35.9563 38.7117C35.9563 39.2537 36.3957 39.6931 36.9377 39.6931Z" fill="#FE9901"/>
<path d="M27.6357 35.1096C28.1778 35.1096 28.6172 34.6702 28.6172 34.1282C28.6172 33.5861 28.1778 33.1467 27.6357 33.1467C27.0937 33.1467 26.6543 33.5861 26.6543 34.1282C26.6543 34.6702 27.0937 35.1096 27.6357 35.1096Z" fill="#FE9901"/>
<path d="M15.3023 17.2484H10.1111C8.26888 17.2484 6.77002 15.7497 6.77002 13.9075C6.77002 12.0652 8.26888 10.5663 10.1111 10.5663H20.1539C20.6959 10.5663 21.1354 11.0056 21.1354 11.5478C21.1354 12.0899 20.6959 12.5292 20.1539 12.5292H10.1111C9.35122 12.5292 8.73291 13.1475 8.73291 13.9075C8.73291 14.6674 9.35122 15.2855 10.1111 15.2855H15.3023C15.8443 15.2855 16.2838 15.7248 16.2838 16.267C16.2838 16.8091 15.8445 17.2484 15.3023 17.2484Z" fill="#FDB441"/>
<path d="M22.5652 34.979C22.0232 34.979 21.5838 34.5397 21.5838 33.9976V31.6335C21.5838 30.5918 20.7362 29.7443 19.6944 29.7443H18.7286C16.6046 29.7443 14.8765 28.0161 14.8765 25.892C14.8765 23.7679 16.6046 22.0399 18.7286 22.0399H22.6177C23.9387 22.0399 25.0136 20.9652 25.0136 19.644C25.0136 18.3229 23.9389 17.2481 22.6177 17.2481H19.617C19.075 17.2481 18.6355 16.8088 18.6355 16.2667C18.6355 15.7245 19.075 15.2852 19.617 15.2852H22.6177C25.0211 15.2852 26.9765 17.2405 26.9765 19.644C26.9765 22.0475 25.0212 24.0028 22.6177 24.0028H18.7286C17.6869 24.0028 16.8394 24.8504 16.8394 25.892C16.8394 26.9338 17.6869 27.7814 18.7286 27.7814H19.6944C21.8186 27.7814 23.5467 29.5094 23.5467 31.6335V33.9976C23.5467 34.5396 23.1073 34.979 22.5652 34.979Z" fill="#FDB441"/>
<path d="M36.1171 42.0376H28.5584C27.7994 42.0376 27.1841 42.6529 27.1841 43.4119V54.4868H30.6198V48.7625C30.6198 47.8178 31.3574 47.0066 32.302 46.9872C33.2656 46.9673 34.0556 47.7429 34.0556 48.7048V49.9113C34.0556 50.8489 34.8076 51.6134 35.745 51.6289C36.7048 51.6449 37.4914 50.8713 37.4914 49.9113V43.4119C37.4914 42.6529 36.8761 42.0376 36.1171 42.0376V42.0376Z" fill="#FE9901"/>
<path d="M30.2438 42.0376H28.5584C27.7994 42.0376 27.1841 42.6529 27.1841 43.4119V54.4868H28.8694V43.4119C28.8696 42.6529 29.4849 42.0376 30.2438 42.0376Z" fill="#FB8801"/>
<path d="M66.3259 60.0788H0.674057C0.301762 60.0788 0 59.777 0 59.4047V55.0234C0 54.6511 0.301762 54.3494 0.674057 54.3494H66.3259C66.6982 54.3494 67 54.6511 67 55.0234V59.4047C67 59.777 66.6982 60.0788 66.3259 60.0788Z" fill="#EA9B58"/>
<path d="M6.40347 59.4047V55.0234C6.40347 54.6511 6.70523 54.3494 7.07753 54.3494H0.674057C0.301762 54.3494 0 54.6511 0 55.0234V59.4047C0 59.777 0.301762 60.0788 0.674057 60.0788H7.07753C6.70523 60.0788 6.40347 59.777 6.40347 59.4047Z" fill="#D88A55"/>
</g>
<defs>
<clipPath id="clip0">
<rect width="67" height="60" fill="white"/>
</clipPath>
</defs>
</svg>
