<svg width="83" height="83" viewBox="0 0 83 83" fill="none" xmlns="http://www.w3.org/2000/svg">
<g clip-path="url(#clip0)">
<path d="M10.5812 9.62786H15.1232L16.0052 2.70498C16.073 2.17277 15.6583 1.70184 15.1217 1.70184H10.5827C10.0461 1.70184 9.6314 2.17277 9.69916 2.70498L10.5812 9.62786Z" fill="#D68A5A"/>
<path d="M8.73962 9.9639C8.7521 9.92515 8.76458 9.88641 8.77723 9.84766C9.09691 8.86463 10.0185 8.20306 11.0521 8.20306H13.7533C14.5553 8.20306 15.3039 8.60445 15.7478 9.27234C18.4075 13.3247 21.0941 17.3671 24.0063 21.2441C27.3281 25.6668 31.2103 29.4731 35.6125 32.8131C39.1037 35.4618 42.8578 37.7501 46.3354 40.4123L46.3652 40.4349C46.6975 40.6891 46.9464 41.0589 47.0433 41.506C47.2508 42.4629 46.6306 43.4121 45.6871 43.6742C38.3251 45.7197 30.0815 44.0946 23.469 40.4811C18.7191 37.8855 14.5253 34.0532 11.6903 29.4261C8.20903 23.7445 6.76285 16.4642 8.73962 9.9639V9.9639Z" fill="#FDDD45"/>
<path d="M45.6875 43.6743C43.9847 44.1464 42.2357 44.4225 40.4707 44.524C40.85 44.1 41.0335 43.5176 40.9071 42.9317C40.8092 42.4846 40.5615 42.1142 40.2285 41.8595L40.1982 41.8364C36.7214 39.1753 32.9668 36.8867 29.4758 34.2381C25.0729 30.8985 21.1918 27.0923 17.8701 22.6698C16.415 20.7302 15.015 18.7513 13.6453 16.7494C12.2774 14.7474 10.9399 12.7223 9.61107 10.6972C9.39206 10.3659 9.09459 10.1005 8.7561 9.91539C8.76324 9.89399 8.77037 9.87081 8.7775 9.84763C9.09637 8.86443 10.0189 8.20367 11.0521 8.20367H13.7541C14.5556 8.20367 15.3037 8.60441 15.7472 9.2723C17.0777 11.2974 18.4136 13.3226 19.7833 15.3245C21.1511 17.3265 22.5493 19.3052 24.0064 21.2449C27.3282 25.6674 31.211 29.4736 35.6121 32.8132C39.1049 35.4617 42.8578 37.7504 46.3363 40.4114L46.3648 40.4346C46.698 40.6893 46.9473 41.0597 47.0434 41.5068C47.2512 42.4632 46.6297 43.4125 45.6875 43.6743V43.6743Z" fill="#F8C52D"/>
<path d="M54.0864 38.4502C60.6115 38.4502 65.9011 33.1606 65.9011 26.6355C65.9011 20.1104 60.6115 14.8208 54.0864 14.8208C47.5613 14.8208 42.2717 20.1104 42.2717 26.6355C42.2717 33.1606 47.5613 38.4502 54.0864 38.4502Z" fill="#FB8627"/>
<path d="M65.9005 26.6359C65.9005 33.1616 60.6122 38.4499 54.0865 38.4499C52.9522 38.4499 51.8546 38.2899 50.8154 37.9921C55.7492 36.5723 59.3565 32.0253 59.3565 26.6359C59.3565 21.2464 55.7492 16.6994 50.8154 15.2796C51.8544 14.9818 52.9522 14.8218 54.0865 14.8218C60.6123 14.8218 65.9005 20.11 65.9005 26.6359Z" fill="#FB7722"/>
<path d="M38.3258 24.9011C37.6509 24.9011 37.0942 24.3642 37.0745 23.6852C37.072 23.6018 37.0234 21.6209 37.7594 19.4572C37.9823 18.8024 38.6936 18.4521 39.3485 18.6748C40.0035 18.8977 40.3538 19.6092 40.1309 20.264C39.5481 21.9767 39.5778 23.5962 39.5782 23.612C39.5985 24.3034 39.0543 24.8804 38.3629 24.9005C38.3506 24.901 38.3381 24.9011 38.3258 24.9011Z" fill="#D68A5A"/>
<path d="M42.1405 23.1356C41.2429 23.1356 40.3738 23.257 39.5485 23.484C38.7503 23.7035 37.9028 23.7035 37.1046 23.484C36.2791 23.257 35.41 23.1356 34.5124 23.1356C29.1242 23.1356 25.2263 27.5037 25.2263 32.8918C25.2263 38.2953 29.1463 44.5636 34.558 44.5282H42.0951C47.5068 44.5636 51.4268 38.2953 51.4268 32.8918C51.4268 27.5037 47.5288 23.1356 42.1405 23.1356Z" fill="#FB4A59"/>
<path d="M51.4269 32.8927C51.4269 38.2948 47.5066 44.5644 42.0955 44.5287H36.5598C41.9477 44.5287 45.8466 38.2787 45.8466 32.8927C45.8466 28.4755 43.2266 24.7441 39.3152 23.5436C39.3935 23.5258 39.4719 23.5062 39.5485 23.4848C40.3731 23.2569 41.2423 23.1358 42.1399 23.1358C47.528 23.1358 51.4269 27.503 51.4269 32.8927Z" fill="#F82F40"/>
<path d="M72.9449 25.7589C72.6244 25.7589 72.3038 25.6365 72.0593 25.392C71.5701 24.9029 71.5701 24.1099 72.0593 23.6206L75.6956 19.9844C76.1847 19.4953 76.9777 19.4953 77.467 19.9844C77.9562 20.4735 77.9562 21.2665 77.467 21.7557L73.8307 25.392C73.5861 25.6366 73.2654 25.7589 72.9449 25.7589V25.7589Z" fill="#D68A5A"/>
<path d="M73.4075 34.951L73.4119 34.9466C76.4239 31.9346 76.4239 27.0513 73.4119 24.0393C70.3999 21.0273 65.5165 21.0273 62.5045 24.0393L62.5011 24.0427C60.6975 25.8463 58.29 26.8853 55.7454 27.0629C52.4699 27.2917 49.261 28.6908 46.7987 31.2614C41.7574 36.5246 41.7485 44.9306 46.7793 50.2039C52.1135 55.7952 60.9721 55.8741 66.4057 50.4406C68.8647 47.9815 70.194 44.8212 70.3947 41.6035C70.5515 39.0934 71.629 36.7295 73.4075 34.951V34.951Z" fill="#82B732"/>
<path d="M66.4059 50.4405C60.9727 55.8737 52.1139 55.7956 46.7788 50.2036C46.056 49.4455 45.4375 48.6231 44.9224 47.7553C50.1856 50.8826 57.0924 50.1822 61.62 45.6545C64.0783 43.1961 65.4083 40.0348 65.6087 36.817C65.7661 34.3069 66.843 31.943 68.6213 30.1647L68.625 30.1609C70.7787 28.0073 71.3932 24.8964 70.4663 22.1988C71.5419 22.5666 72.5531 23.1798 73.4121 24.0389C76.4248 27.0515 76.4235 31.9342 73.4108 34.9469L73.4071 34.9506C71.6288 36.7289 70.552 39.093 70.3945 41.6029C70.1944 44.8208 68.8645 47.9821 66.4059 50.4405V50.4405Z" fill="#79A72D"/>
<path d="M51.1965 81.2978H31.8037C17.258 81.2978 5.46631 69.5061 5.46631 54.9604V50.3061H77.534V54.9604C77.534 69.5061 65.7423 81.2978 51.1965 81.2978V81.2978Z" fill="#FB4A59"/>
<path d="M77.5339 50.3059V54.9602C77.5339 69.5061 65.7419 81.2981 51.196 81.2981H45.1838C59.7297 81.2981 71.5217 69.5061 71.5217 54.9602V50.3059H77.5339Z" fill="#F82F40"/>
<path d="M77.534 50.3059V54.9602C77.534 56.55 77.3937 58.1066 77.1232 59.6196C76.6973 59.698 76.2582 59.7399 75.8106 59.7399C74.5264 59.7399 73.2554 59.3874 72.1365 58.7212C71.9545 58.6125 71.7724 58.5023 71.5922 58.3922C70.1577 57.5188 69.209 56.941 66.9646 56.941C64.7184 56.941 63.7715 57.5188 62.337 58.3922C60.5618 59.4745 58.354 60.8189 54.2342 60.8189C50.1125 60.8189 47.9048 59.4745 46.1295 58.3922C44.695 57.5188 43.7481 56.941 41.5019 56.941C39.2557 56.941 38.3089 57.5188 36.8744 58.3922C35.0991 59.4745 32.8897 60.8189 28.7697 60.8189C24.6497 60.8189 22.4403 59.4745 20.665 58.3922C19.2305 57.5188 18.2836 56.941 16.0375 56.941C13.7913 56.941 12.8428 57.5188 11.4081 58.3922C11.2277 58.5025 11.0458 58.6127 10.8637 58.7229C9.74486 59.3876 8.47392 59.74 7.18969 59.74C6.74551 59.74 6.3062 59.7 5.87709 59.6197C5.60653 58.1068 5.46631 56.5502 5.46631 54.9604V50.3061H77.534V50.3059Z" fill="#F82F40"/>
<path d="M16.9653 29.7438C16.4996 29.7438 16.0523 29.4829 15.8364 29.0353C15.8002 28.9602 14.9474 27.1717 14.7361 24.8958C14.6723 24.207 15.1787 23.5968 15.8675 23.533C16.5558 23.4688 17.1665 23.9755 17.2304 24.6643C17.3975 26.4657 18.0855 27.9321 18.0925 27.9465C18.393 28.5695 18.1317 29.3183 17.5087 29.6189C17.3335 29.7036 17.148 29.7438 16.9653 29.7438V29.7438Z" fill="#D68A5A"/>
<path d="M20.2369 26.4661C19.4176 26.8324 18.6737 27.2978 18.0128 27.842C17.3736 28.3683 16.6 28.7142 15.7815 28.8395C14.9353 28.9692 14.0923 29.213 13.273 29.5794C8.35396 31.7785 6.57822 37.357 8.77739 42.2761C10.9827 47.2089 17.1195 51.3315 22.0457 49.0905C23.9387 48.2443 27.0337 46.8605 28.9266 46.0143C33.8815 43.8379 34.9018 36.5155 32.6965 31.5827C30.4971 26.6637 25.156 24.2669 20.2369 26.4661Z" fill="#BCEA73"/>
<path d="M32.6968 31.5833C34.9016 36.515 33.8815 43.8386 28.9271 46.0144L23.8735 48.2737C28.7922 46.0747 29.8007 38.7779 27.6025 33.8608C25.7997 29.8283 21.8849 27.491 17.8242 27.9914C17.8886 27.9431 17.952 27.8934 18.0132 27.8426C18.673 27.2979 19.4171 26.8327 20.2366 26.4663C25.1553 24.2673 30.4971 26.6629 32.6968 31.5833V31.5833Z" fill="#A3E440"/>
<path d="M79.6956 44.8742V52.5117C79.6956 55.5139 76.4251 57.3876 73.8454 55.8518C72.0624 54.7903 70.4895 53.6009 66.9642 53.6009C60.5987 53.6009 60.5987 57.4793 54.2331 57.4793C47.8673 57.4793 47.8673 53.6009 41.5015 53.6009C35.1355 53.6009 35.1355 57.4793 28.7695 57.4793C22.4031 57.4793 22.4031 53.6009 16.0369 53.6009C12.511 53.6009 10.9379 54.7906 9.1544 55.8522C6.57459 57.3879 3.3042 55.5142 3.3042 52.512V44.8742H79.6956Z" fill="#FDDBBF"/>
<path d="M79.6951 44.8749V52.5119C79.6951 55.5147 76.4251 57.3883 73.845 55.852C73.5427 55.6716 73.2455 55.4879 72.9448 55.3059C73.663 54.6179 74.1289 53.6442 74.1289 52.5119V44.8749H79.6951Z" fill="#FCCA9F"/>
<path d="M3.3042 44.8742H79.6956V50.4334H3.3042V44.8742Z" fill="#FCCA9F"/>
<path d="M79.7033 46.4266H3.29666C1.47601 46.4266 0 44.9508 0 43.13C0 41.3093 1.47601 39.8333 3.29666 39.8333H79.7032C81.524 39.8333 82.9998 41.3093 82.9998 43.13C83 44.9508 81.524 46.4266 79.7033 46.4266V46.4266Z" fill="#FFE9D9"/>
<path d="M83 43.1281C83 44.0384 82.6309 44.8633 82.0348 45.4612C81.4369 46.0574 80.6136 46.4264 79.7035 46.4264H74.2375C75.1475 46.4264 75.9727 46.0573 76.5688 45.4612C77.165 44.8633 77.534 44.0384 77.534 43.1281C77.534 41.3078 76.0576 39.8315 74.2373 39.8315H79.7033C81.5236 39.8316 83 41.3078 83 43.1281Z" fill="#FDDBBF"/>
</g>
<defs>
<clipPath id="clip0">
<rect width="83" height="83" fill="white"/>
</clipPath>
</defs>
</svg>
