<svg width="82" height="82" viewBox="0 0 82 82" fill="none" xmlns="http://www.w3.org/2000/svg">
<g clip-path="url(#clip0)">
<path d="M41 82C63.6437 82 82 63.6437 82 41C82 18.3563 63.6437 0 41 0C18.3563 0 0 18.3563 0 41C0 63.6437 18.3563 82 41 82Z" fill="#C95757"/>
<path d="M69.9913 12.0087C66.1712 8.18864 61.7841 5.28228 57.1017 3.28497C63.4758 18.2285 60.5694 36.1867 48.378 48.3781C36.1866 60.5695 18.2283 63.4759 3.28491 57.1018C5.28222 61.7843 8.18858 66.1713 12.0086 69.9913C28.0201 86.0028 53.98 86.0028 69.9914 69.9913C86.0029 53.9799 86.0029 28.0201 69.9913 12.0087Z" fill="#A53D3D"/>
<path d="M40.9999 80.5827C62.8607 80.5827 80.5825 62.8609 80.5825 41C80.5825 19.1392 62.8607 1.41742 40.9999 1.41742C19.139 1.41742 1.41724 19.1392 1.41724 41C1.41724 62.8609 19.139 80.5827 40.9999 80.5827Z" fill="#FFE4CC"/>
<path d="M68.9889 13.0103C65.6579 9.67937 61.8803 7.06803 57.8495 5.17258C63.2147 19.7186 60.0597 36.6958 48.3774 48.3781C36.6951 60.0604 19.7179 63.2154 5.17188 57.8502C7.06732 61.881 9.67867 65.6586 13.0098 68.9896C28.468 84.4478 53.5307 84.4478 68.989 68.9896C84.4473 53.5313 84.4471 28.4686 68.9889 13.0103Z" fill="#FFD8C7"/>
<path d="M41 71.0005C57.5688 71.0005 71.0005 57.5688 71.0005 41C71.0005 24.4312 57.5688 10.9995 41 10.9995C24.4312 10.9995 10.9995 24.4312 10.9995 41C10.9995 57.5688 24.4312 71.0005 41 71.0005Z" fill="#FFB21C"/>
<path d="M62.2132 19.7869C61.6144 19.188 60.9957 18.6217 60.3608 18.0841C60.7073 29.0067 56.7144 40.0409 48.3772 48.3781C40.0402 56.715 29.0069 60.7079 18.0847 60.3618C18.622 60.9963 19.1882 61.6147 19.7867 62.2132C31.5024 73.929 50.4975 73.929 62.2131 62.2132C73.9286 50.4975 73.929 31.5026 62.2132 19.7869Z" fill="#FFE8DE"/>
<path d="M75.9075 44.1961L68.1144 33.5183L67.4221 32.5697C67.2313 32.3083 67.1972 31.9641 67.3345 31.6711C68.307 29.5948 68.8656 27.286 68.9031 24.8506C69.045 15.6341 61.4281 7.88225 52.2105 7.86879C43.1927 7.85566 35.8377 14.9818 35.4805 23.9088C35.3827 24.1094 35.2971 24.3162 35.2276 24.5286C34.2648 24.2738 33.2148 24.3136 32.2181 24.7097L29.0511 25.9685C28.8883 26.0332 28.8089 26.2176 28.8736 26.3803L29.5722 28.138L29.8859 28.9273C30.0122 29.245 30.1689 29.5413 30.3506 29.8153C29.5037 30.1782 28.7407 30.6955 28.0968 31.332C26.7046 29.765 24.6503 28.8076 22.3919 28.8871L18.2522 29.0328C17.9876 29.0421 17.7809 29.2641 17.7901 29.5286L17.9713 34.6767C18.0506 36.9277 19.1433 38.9037 20.7952 40.1827C19.9426 41.4238 19.4655 42.9384 19.5226 44.5587L19.6686 48.7096L18.129 49.8333C18.0384 49.8994 17.953 49.9702 17.8702 50.0429C17.8513 50.0594 17.8318 50.0754 17.8132 50.0924C17.8132 50.0924 17.8132 50.0924 17.8131 50.0924C16.4163 51.3635 16.1724 53.5092 17.3111 55.0694L18.2767 56.3925L18.8629 57.1958L30.591 73.2652L31.5351 74.5588L32.4979 75.878C33.718 77.5497 36.0624 77.9159 37.7341 76.6958L41.8262 73.7092L43.8205 72.2537L54.7108 64.3055L56.3937 63.0771L69.7327 53.3418L70.9462 52.4561L75.0889 49.4325C76.7614 48.2122 77.1276 45.8679 75.9075 44.1961ZM37.7772 34.6969L37.7259 33.2422C37.8028 33.3006 37.8813 33.357 37.9613 33.4107C37.9636 33.4121 37.9658 33.4136 37.9681 33.415C37.9769 33.4209 37.986 33.4264 37.9948 33.4323C38.2668 33.8678 38.5581 34.2898 38.8677 34.6971L37.7594 35.506C37.7796 35.2397 37.7868 34.97 37.7772 34.6969Z" fill="#FFC1AD"/>
<path d="M67.4221 32.5696C67.2314 32.3082 67.1972 31.964 67.3345 31.6709C67.772 30.7366 68.125 29.7548 68.3853 28.7361C66.9328 25.491 64.8769 22.4504 62.2133 19.7869C61.6145 19.188 60.9958 18.6217 60.361 18.0841C60.7074 29.0067 56.7145 40.0409 48.3773 48.3781C40.823 55.9324 31.0548 59.9198 21.1616 60.3445L26.0163 66.9961C32.1746 70.5508 39.3248 71.7382 46.1462 70.5565L54.7116 64.3052L56.3946 63.0768L67.5916 54.9048C70.4785 49.3879 71.5298 43.1617 70.7487 37.1271L68.1146 33.5183L67.4221 32.5696Z" fill="#FFCFC2"/>
<path d="M48.7628 40.7966C57.9972 40.7966 65.4831 33.3107 65.4831 24.0763C65.4831 14.8419 57.9972 7.35599 48.7628 7.35599C39.5284 7.35599 32.0425 14.8419 32.0425 24.0763C32.0425 33.3107 39.5284 40.7966 48.7628 40.7966Z" fill="#FF8B02"/>
<path d="M48.7622 9.94971C40.9599 9.94971 34.635 16.2746 34.635 24.0769C34.635 31.8791 40.9599 38.2042 48.7622 38.2042C56.5646 38.2042 62.8895 31.8793 62.8895 24.0769C62.8895 16.2748 56.5644 9.94971 48.7622 9.94971ZM59.707 22.743H52.1177L57.6363 17.5309C58.7398 19.0243 59.4733 20.8064 59.707 22.743ZM47.4281 35.0217C45.2724 34.7616 43.308 33.882 41.7198 32.5628L47.4281 27.1718V35.0217ZM42.6838 14.8764C44.0762 13.9547 45.6898 13.342 47.4281 13.1322V20.451L42.6838 14.8764ZM50.0962 27.7027L54.8406 33.2774C53.4482 34.1993 51.8345 34.8119 50.0962 35.0217V27.7027ZM50.0962 13.1323C52.2519 13.3924 54.2164 14.2718 55.8043 15.5912L50.0962 20.9822V13.1323ZM40.6524 16.6063L45.8751 22.743H37.8175C38.1016 20.3887 39.1255 18.2631 40.6524 16.6063ZM37.8175 25.411H45.4068L39.8881 30.6232C38.7847 29.1295 38.0511 27.3475 37.8175 25.411ZM56.8721 31.5476L51.6494 25.4109H59.707C59.4229 27.7652 58.3992 29.8909 56.8721 31.5476Z" fill="#FFB654"/>
<path d="M41.3345 29.159C40.8692 27.9884 39.9962 27.1018 38.9438 26.5962C39.6102 25.3799 39.7494 23.887 39.1972 22.4976L38.185 19.951C38.1203 19.7882 37.936 19.7088 37.7732 19.7735L34.6062 21.0323C33.2213 21.5828 32.2336 22.7034 31.8044 24.0173C30.8415 23.7625 29.7915 23.8024 28.7949 24.1985L25.6278 25.4573C25.4651 25.522 25.3856 25.7063 25.4502 25.869L26.4624 28.4157C27.4456 30.8893 30.2478 32.0975 32.7214 31.1143L32.9064 31.0408C34.0089 33.2665 36.6531 34.3101 39.0021 33.3764L42.4639 32.0005L41.3345 29.159Z" fill="#49BC6E"/>
<path d="M59.0493 19.155C57.6113 17.1846 54.8481 16.7531 52.8777 18.1912L34.0142 31.9585C36.831 37.2184 42.3785 40.7968 48.7623 40.7968C56.8265 40.7968 63.5567 35.0875 65.1327 27.4907L59.0493 19.155Z" fill="#FF4D00"/>
<path d="M59.049 19.155C58.7724 18.776 58.4465 18.4546 58.0871 18.192C58.939 19.5397 59.5068 21.0844 59.707 22.743H52.1176L57.382 17.7711C56.14 17.1804 54.6564 17.1887 53.3955 17.8664L50.0963 20.9822V20.221L42.9852 25.411H45.4069L39.8883 30.6231C39.4147 29.9822 39.0098 29.2877 38.6828 28.551L36.135 30.4104C38.4574 35.0314 43.2379 38.2041 48.7622 38.2041C56.4544 38.2041 62.7059 32.0554 62.8811 24.4055L59.049 19.155ZM47.4283 35.0217C45.2726 34.7616 43.3079 33.8821 41.72 32.5628L47.4283 27.1718V35.0217ZM50.0963 35.0217V27.7027L54.8408 33.2774C53.4482 34.1993 51.8346 34.8119 50.0963 35.0217ZM56.872 31.5475L51.6493 25.4108H59.707C59.4228 27.7651 58.3991 29.8909 56.872 31.5475Z" fill="#FF8716"/>
<path d="M39.0024 33.3762L42.4642 32.0003L41.3348 29.159C41.0699 28.4926 40.6727 27.9187 40.1857 27.4543L33.7009 32.1871C35.0153 33.594 37.1051 34.1304 39.0024 33.3762Z" fill="#3DA55D"/>
<path d="M71.6669 48.921L34.3115 76.1843C32.6398 77.4044 30.2955 77.0382 29.0754 75.3665L13.8884 54.5579C12.6683 52.8862 13.0345 50.5418 14.7062 49.3218L52.0615 22.0584C53.7332 20.8383 56.0776 21.2044 57.2976 22.8761L72.4846 43.6847C73.7047 45.3566 73.3386 47.701 71.6669 48.921Z" fill="#FF965C"/>
<path d="M40.0087 71.014C39.5893 70.917 39.158 70.8095 38.7408 70.7056C35.4118 69.8758 31.6391 68.9352 27.6783 71.8257C27.367 72.0528 27.1919 72.397 27.1682 72.7537L28.1123 74.0472C28.2116 74.0721 28.3136 74.0855 28.4161 74.0855C28.6719 74.0855 28.9298 74.0074 29.1522 73.8451C32.1683 71.6438 34.9337 72.3331 38.1362 73.1313C38.2241 73.1532 38.3146 73.1755 38.4037 73.1976L40.736 71.4955C40.5651 71.2612 40.3134 71.0845 40.0087 71.014Z" fill="#FFCCB6"/>
<path d="M67.9156 50.6466C67.496 50.5496 67.0647 50.4421 66.6475 50.3382C63.3185 49.5084 59.5452 48.568 55.5849 51.4585C51.6244 54.349 51.3696 58.2292 51.1446 61.6529C51.1164 62.0818 51.0872 62.5254 51.0517 62.9545C51.0259 63.266 51.1175 63.5596 51.2884 63.7937L53.6207 62.0914C53.6268 62 53.6332 61.9071 53.6391 61.8168C53.8555 58.5235 54.0423 55.6792 57.0588 53.4777C60.0749 51.2767 62.8406 51.9657 66.0431 52.7638C66.131 52.7857 66.2215 52.8078 66.3104 52.8299L68.6427 51.1278C68.4718 50.8939 68.2201 50.7171 67.9156 50.6466Z" fill="#FFCCB6"/>
<path d="M70.335 40.7397C69.9882 40.6533 69.607 40.7153 69.2958 40.9426C66.2796 43.1439 63.5137 42.4548 60.3113 41.6566C56.9825 40.827 53.2092 39.8865 49.2486 42.777C45.288 45.6675 45.0332 49.5478 44.8084 52.9713C44.5919 56.2646 44.4051 59.1088 41.3887 61.3101C38.3731 63.5113 35.6074 62.8222 32.4046 62.0238C29.0758 61.194 25.303 60.2534 21.3421 63.1439C21.0308 63.3712 20.8556 63.7152 20.832 64.0719L21.7762 65.3655C21.8754 65.3903 21.9775 65.4037 22.08 65.4037C22.3357 65.4037 22.5936 65.3256 22.816 65.1633C25.8318 62.9623 28.5975 63.6515 31.8002 64.4497C35.129 65.2791 38.9017 66.2199 42.8626 63.3296C46.8231 60.4391 47.078 56.5588 47.3028 53.1353C47.5193 49.842 47.7061 46.9978 50.7225 44.7964C53.7389 42.5951 56.5046 43.2842 59.7069 44.0825C63.0359 44.9121 66.8092 45.8527 70.7697 42.962C71.0811 42.7347 71.2563 42.3907 71.2796 42.0341L70.335 40.7397Z" fill="#FFCCB6"/>
<path d="M63.9989 32.0581C63.652 31.9717 63.2709 32.0337 62.9597 32.261C59.9435 34.4623 57.1776 33.7732 53.9752 32.975C50.6464 32.1453 46.8731 31.2049 42.9125 34.0954C38.952 36.9859 38.6971 40.8662 38.4723 44.2897C38.2557 47.583 38.069 50.4272 35.0526 52.6285C32.0362 54.8299 29.2708 54.1404 26.0685 53.3422C22.7395 52.5124 18.9667 51.5718 15.006 54.4623C14.6947 54.6896 14.5195 55.0336 14.4961 55.3903L15.4401 56.6838C15.5395 56.7087 15.6414 56.7221 15.744 56.7221C15.9998 56.7221 16.2577 56.644 16.4801 56.4817C19.4957 54.2804 22.2619 54.9697 25.4641 55.7679C28.7932 56.5977 32.5664 57.5381 36.5267 54.6478C40.4872 51.7573 40.742 47.877 40.9669 44.4535C41.1834 41.1602 41.3701 38.316 44.3865 36.1147C47.4028 33.9133 50.1687 34.6025 53.371 35.4007C56.7 36.2305 60.4733 37.1709 64.4338 34.2802C64.7451 34.053 64.9203 33.7089 64.9437 33.3523L63.9989 32.0581ZM19.128 47.0866C20.7518 47.4914 22.481 47.9225 24.2864 47.9225C26.1821 47.9225 28.1617 47.447 30.1903 45.9665C34.1509 43.076 34.4058 39.1957 34.6306 35.7722C34.6506 35.4679 34.5597 35.1821 34.3928 34.9537L32.0638 36.6536C31.8469 39.505 31.4091 41.9823 28.7167 43.9473C26.0245 45.9122 23.5316 45.5738 20.75 44.9108L18.4209 46.6107C18.5874 46.839 18.832 47.0128 19.128 47.0866Z" fill="#FFCCB6"/>
<path d="M48.6568 24.5431L46.3276 26.243C46.4944 26.4715 46.7388 26.6455 47.0349 26.7191C48.6587 27.1238 50.3878 27.5548 52.1932 27.5548C54.089 27.5548 56.069 27.0793 58.0975 25.5988C58.4089 25.3716 58.5841 25.0276 58.6076 24.6709L57.6629 23.3765C57.316 23.2902 56.9348 23.3522 56.6238 23.5794C53.9315 25.5444 51.4389 25.206 48.6568 24.5431Z" fill="#FFCCB6"/>
<path d="M38.4067 33.5633L38.3538 32.0625L14.706 49.3216C14.5945 49.4029 14.4899 49.4899 14.3901 49.5807L14.5245 53.397C14.5368 53.7467 14.8302 54.0199 15.1797 54.0077L20.6498 53.8152C25.963 53.6281 30.1186 49.1694 29.9315 43.8564L29.9176 43.4592C34.8448 42.881 38.5843 38.6089 38.4067 33.5633Z" fill="#FF8955"/>
<path d="M35.6982 27.4878C35.6722 26.7501 35.0532 26.1733 34.3156 26.1992L30.3275 26.3397C28.789 26.3938 27.3633 26.8602 26.1492 27.6267L26.4629 28.4159C27.4461 30.8895 30.2484 32.0976 32.7218 31.1142L32.9067 31.0407C33.5202 32.2794 34.6115 33.1511 35.8635 33.5204C35.8835 33.2299 35.8899 32.9358 35.8795 32.6383L35.6982 27.4878Z" fill="#3DA55D"/>
<path d="M24.3534 52.9337C21.6716 52.3498 18.7507 52.0959 15.7085 53.9891L20.65 53.8152C21.9727 53.7686 23.2235 53.4571 24.3534 52.9337Z" fill="#FFBDAE"/>
<path d="M19.128 47.0867C20.7518 47.4914 22.481 47.9226 24.2865 47.9226C26.031 47.9226 27.8471 47.5177 29.7065 46.2994C29.8815 45.5154 29.9611 44.6967 29.9317 43.8565L29.9177 43.4593C31.1104 43.3194 32.2325 42.9614 33.2472 42.43C34.3342 40.2709 34.4889 37.9309 34.6306 35.7725C34.6507 35.4682 34.5597 35.1823 34.3928 34.9539L32.0638 36.6538C31.847 39.5052 31.4091 41.9825 28.7167 43.9475C26.0245 45.9124 23.5316 45.574 20.7501 44.911L18.4209 46.6109C18.5875 46.8391 18.832 47.0129 19.128 47.0867Z" fill="#FFBDAE"/>
<path d="M29.5376 28.7211C27.6348 28.7881 25.9289 29.5797 24.6739 30.8206C23.2817 29.2537 21.2275 28.2962 18.969 28.3757L14.8293 28.5214C14.5647 28.5307 14.358 28.7527 14.3672 29.0173L14.5484 34.1653C14.6277 36.4163 15.7206 38.3923 17.3723 39.6713C16.5197 40.9124 16.0426 42.427 16.0997 44.0473L16.2808 49.1954C16.2901 49.4599 16.5121 49.6667 16.7766 49.6574L20.9164 49.5117C24.9372 49.3701 28.0821 45.9959 27.9405 41.975L27.9299 41.6744C31.6587 41.237 34.4886 38.004 34.3543 34.1857L34.1563 28.5586L29.5376 28.7211Z" fill="#49BC6E"/>
<path d="M64.477 42.575C64.2099 41.9028 63.7086 41.3938 63.1043 41.1034C63.4869 40.4052 63.5668 39.5479 63.2499 38.7501L62.6687 37.2879C62.6315 37.1945 62.5257 37.1489 62.4323 37.186L60.6139 37.9088C59.8187 38.2248 59.2516 38.8683 59.0051 39.6228C58.4523 39.4764 57.8494 39.4993 57.277 39.7269L55.4586 40.4497C55.3652 40.4868 55.3196 40.5927 55.3566 40.6861L55.9378 42.1483C56.5024 43.5686 58.1113 44.2624 59.5317 43.6978L59.6379 43.6555C60.271 44.9336 61.7893 45.5327 63.1379 44.9965L65.1256 44.2065L64.477 42.575Z" fill="#49BC6E"/>
<path d="M40.4354 64.4499C40.1682 63.7778 39.6669 63.2688 39.0627 62.9784C39.4453 62.2801 39.5252 61.4228 39.2081 60.6251L38.6269 59.1629C38.5897 59.0695 38.4838 59.0238 38.3905 59.061L36.5721 59.7838C35.7769 60.0998 35.2098 60.7433 34.9633 61.4978C34.4104 61.3514 33.8076 61.3743 33.2352 61.6019L31.4168 62.3247C31.3234 62.3618 31.2778 62.4677 31.3149 62.5611L31.8961 64.0233C32.4607 65.4436 34.0696 66.1373 35.49 65.5728L35.5962 65.5305C36.2293 66.8086 37.7476 67.4077 39.0963 66.8715L41.084 66.0815L40.4354 64.4499Z" fill="#49BC6E"/>
<path d="M38.737 46.5078C39.3549 46.1317 39.7726 45.5521 39.9575 44.9076C40.7101 45.1677 41.5687 45.1029 42.3019 44.6564L43.6459 43.8381C43.7318 43.7858 43.759 43.6738 43.7068 43.588L42.6893 41.9164C42.2444 41.1856 41.5149 40.7343 40.7298 40.6179C40.7814 40.0482 40.6577 39.4578 40.3374 38.9317L39.32 37.2602C39.2677 37.1743 39.1556 37.1471 39.0698 37.1993L37.7258 38.0176C36.4203 38.8123 36.0062 40.5149 36.8009 41.8203L36.8603 41.9178C35.7065 42.7563 35.3705 44.3535 36.1252 45.5933L37.2373 47.4203L38.737 46.5078Z" fill="#49BC6E"/>
<path d="M52.2973 50.0887C53.034 50.0887 53.6313 49.4915 53.6313 48.7547C53.6313 48.018 53.034 47.4208 52.2973 47.4208C51.5606 47.4208 50.9634 48.018 50.9634 48.7547C50.9634 49.4915 51.5606 50.0887 52.2973 50.0887Z" fill="#E26060"/>
<path d="M41.0832 56.41C41.8199 56.41 42.4171 55.8128 42.4171 55.0761C42.4171 54.3394 41.8199 53.7422 41.0832 53.7422C40.3465 53.7422 39.7493 54.3394 39.7493 55.0761C39.7493 55.8128 40.3465 56.41 41.0832 56.41Z" fill="#E26060"/>
<path d="M30.625 51.7896C31.3617 51.7896 31.9589 51.1923 31.9589 50.4556C31.9589 49.7189 31.3617 49.1217 30.625 49.1217C29.8882 49.1217 29.291 49.7189 29.291 50.4556C29.291 51.1923 29.8882 51.7896 30.625 51.7896Z" fill="#E26060"/>
<path d="M47.8098 39.8403C48.5465 39.8403 49.1437 39.2431 49.1437 38.5063C49.1437 37.7696 48.5465 37.1724 47.8098 37.1724C47.0731 37.1724 46.4758 37.7696 46.4758 38.5063C46.4758 39.2431 47.0731 39.8403 47.8098 39.8403Z" fill="#E26060"/>
</g>
<defs>
<clipPath id="clip0">
<rect width="82" height="82" fill="white"/>
</clipPath>
</defs>
</svg>
