<svg width="102" height="87" viewBox="0 0 102 87" fill="none" xmlns="http://www.w3.org/2000/svg">
<path d="M49.5 82C76.8381 82 99 73.2696 99 62.5C99 51.7305 76.8381 43 49.5 43C22.1619 43 0 51.7305 0 62.5C0 73.2696 22.1619 82 49.5 82Z" fill="white"/>
<path d="M49.5 77C72.4198 77 91 70.732 91 63C91 55.268 72.4198 49 49.5 49C26.5802 49 8 55.268 8 63C8 70.732 26.5802 77 49.5 77Z" fill="url(#paint0_linear)"/>
<path d="M18.3446 37.3785H85.4411V64.9234C85.4411 65.3872 85.3497 65.8464 85.1723 66.2748C84.9948 66.7033 84.7347 67.0926 84.4068 67.4205C84.0788 67.7484 83.6895 68.0085 83.2611 68.186C82.8326 68.3635 82.3734 68.4548 81.9097 68.4548H18.3446C17.8809 68.4548 17.4217 68.3635 16.9932 68.186C16.5648 68.0085 16.1755 67.7484 15.8476 67.4205C15.5196 67.0926 15.2595 66.7033 15.082 66.2748C14.9046 65.8464 14.8132 65.3872 14.8132 64.9234V40.9099C14.8132 39.9734 15.1853 39.0751 15.8476 38.4129C16.5098 37.7506 17.408 37.3785 18.3446 37.3785V37.3785Z" fill="url(#paint1_linear)"/>
<path d="M85.4411 37.3786H18.3446C17.8808 37.3784 17.4216 37.4697 16.9931 37.6471C16.5645 37.8245 16.1752 38.0846 15.8472 38.4126C15.5193 38.7405 15.2592 39.1299 15.0818 39.5584C14.9043 39.9869 14.8131 40.4462 14.8132 40.91V40.0501C14.8135 39.2809 15.0647 38.5329 15.5286 37.9194C15.9926 37.306 16.6441 36.8607 17.3841 36.6511L79.7908 19.0153L79.9568 19.2643C83.5316 24.6293 85.4397 30.9317 85.4411 37.3786V37.3786Z" fill="url(#paint2_linear)"/>
<path d="M65.6654 35.853V40.8835C65.667 41.647 65.4414 42.3938 65.0174 43.0288C64.9063 43.1974 64.7817 43.3569 64.6449 43.5055C63.9895 44.2211 63.0886 44.6636 62.1217 44.745C61.5453 44.7941 61.0083 45.0581 60.6175 45.4846C60.2266 45.9111 60.0104 46.469 60.0117 47.0475L60.0152 49.6749C60.0157 50.0479 59.9422 50.4174 59.799 50.7618C59.6557 51.1063 59.4456 51.4189 59.1808 51.6817C58.9159 51.9444 58.6016 52.152 58.256 52.2925C57.9104 52.4329 57.5404 52.5034 57.1673 52.5C56.4134 52.4816 55.6969 52.1674 55.1726 51.6253C54.6483 51.0832 54.3582 50.3566 54.365 49.6025V47.33C54.3654 47.052 54.311 46.7767 54.2049 46.5197C54.0988 46.2628 53.9431 46.0293 53.7468 45.8325C53.5504 45.6357 53.3172 45.4796 53.0605 45.373C52.8038 45.2664 52.5285 45.2114 52.2506 45.2112C51.682 45.2253 51.1415 45.4614 50.7447 45.8689C50.3479 46.2764 50.1263 46.823 50.1273 47.3918V52.1468C50.1278 52.5199 50.0543 52.8893 49.9111 53.2338C49.7678 53.5783 49.5577 53.8909 49.2929 54.1536C49.028 54.4164 48.7137 54.624 48.3681 54.7644C48.0225 54.9049 47.6525 54.9754 47.2794 54.9719C46.5255 54.9535 45.809 54.6393 45.2847 54.0972C44.7604 53.5551 44.4703 52.8286 44.4771 52.0744V45.4372C44.4775 45.0661 44.4047 44.6985 44.2629 44.3555C44.1211 44.0125 43.9131 43.7009 43.6507 43.4384C43.2556 43.0429 42.7521 42.7734 42.2037 42.6643C41.6554 42.5551 41.087 42.611 40.5705 42.825C40.0541 43.039 39.6127 43.4015 39.3023 43.8665C38.9919 44.3315 38.8264 44.8781 38.8269 45.4372V46.2159C38.8264 47.1331 38.4618 48.0126 37.8132 48.6612C37.1646 49.3098 36.2851 49.6744 35.3679 49.6749C34.4121 49.675 33.4956 50.0547 32.8198 50.7305C32.1439 51.4063 31.7642 52.3229 31.7641 53.2786V53.2062C31.7646 53.5793 31.6911 53.9488 31.5478 54.2932C31.4046 54.6377 31.1945 54.9503 30.9296 55.2131C30.6648 55.4758 30.3505 55.6834 30.0049 55.8238C29.6593 55.9643 29.2892 56.0348 28.9162 56.0314C28.1622 56.0129 27.4458 55.6988 26.9215 55.1567C26.3972 54.6145 26.1071 53.888 26.1139 53.1339V46.8497C26.1144 46.4767 26.0409 46.1072 25.8977 45.7627C25.7545 45.4182 25.5444 45.1056 25.2795 44.8428C25.0147 44.5801 24.7003 44.3725 24.3547 44.232C24.0091 44.0916 23.639 44.0211 23.266 44.0246C22.512 44.043 21.7955 44.3572 21.2712 44.8993C20.7469 45.4414 20.4568 46.168 20.4636 46.9221V49.6749C20.4641 50.0479 20.3906 50.4174 20.2474 50.7618C20.1041 51.1063 19.894 51.4189 19.6292 51.6817C19.3643 51.9444 19.05 52.152 18.7044 52.2925C18.3588 52.4329 17.9888 52.5034 17.6157 52.5C16.8618 52.4816 16.1453 52.1674 15.621 51.6253C15.0967 51.0832 14.8066 50.3566 14.8134 49.6025V40.9135C14.8102 40.3114 14.8527 39.7099 14.9405 39.1142C15.1016 38.5282 15.4112 37.9936 15.8393 37.5621C16.2673 37.1306 16.7995 36.8168 17.3843 36.6511C20.1611 35.8664 23.0354 35.4808 25.9209 35.506L65.6654 35.853Z" fill="#CB1120"/>
<path d="M72.0149 21.2136L71.3157 28.9032V32.0779C71.3156 32.7795 71.1764 33.4741 70.906 34.1216C70.6357 34.769 70.2396 35.3563 69.7407 35.8497C69.2418 36.343 68.65 36.7324 67.9996 36.9954C67.3492 37.2585 66.6531 37.3899 65.9515 37.3821H16.0317C16.4236 37.0423 16.8853 36.7928 17.3843 36.6511L72.0149 21.2136Z" fill="#FBB540"/>
<path d="M72.015 21.2136L71.3157 28.9032V32.0779C71.3157 32.7795 71.1764 33.4741 70.9061 34.1216C70.6357 34.769 70.2397 35.3563 69.7408 35.8497C69.2419 36.343 68.6501 36.7324 67.9997 36.9954C67.3492 37.2585 66.6531 37.3899 65.9516 37.3821L65.6655 37.3785L18.3484 37.3821L72.015 21.2136Z" fill="#FBB540"/>
<path d="M14.8132 61.392H71.3155C73.1887 61.392 76.6755 61.3245 78 60C79.3245 58.6755 79.5 56.5 80 54.5C80.6063 52.0747 81 47.5 81 45C81 42.5 81.5 39 83.2611 38L85.4411 37.5V64.9234C85.4411 65.3872 85.3497 65.8464 85.1723 66.2748C84.9948 66.7033 84.7347 67.0926 84.4068 67.4205C84.0788 67.7484 83.6895 68.0085 83.2611 68.186C82.8326 68.3635 82.3734 68.4548 81.9097 68.4548H18.3446C17.8809 68.4548 17.4217 68.3635 16.9932 68.186C16.5648 68.0085 16.1755 67.7484 15.8476 67.4205C15.5196 67.0926 15.2595 66.7033 15.082 66.2748C14.9046 65.8464 14.8132 65.3872 14.8132 64.9234V61.392Z" fill="url(#paint3_linear)"/>
<path d="M72.0149 21.2136L71.3157 28.9032V32.0779C71.3156 32.7795 71.1764 33.4741 70.906 34.1216C70.6357 34.769 70.2396 35.3563 69.7407 35.8497C69.2418 36.343 68.65 36.7324 67.9996 36.9954C67.3492 37.2585 66.6531 37.3899 65.9515 37.3821H16.0317C16.4236 37.0423 16.8853 36.7928 17.3843 36.6511L72.0149 21.2136Z" fill="url(#paint4_linear)"/>
<g clip-path="url(#clip0)">
<path d="M58.2694 5.40953L58.25 5.45312L57.2812 7.39062H54.8594L55.77 4.66359C56.6328 4.79887 57.4735 5.04978 58.2694 5.40953V5.40953Z" fill="#85BE6D"/>
<path d="M53.4062 4.48438L51.9531 7.39063H49.5312L50.8875 4.67813C51.7206 4.54682 52.5629 4.48203 53.4062 4.48438V4.48438Z" fill="#85BE6D"/>
<path d="M45.1719 7.39062H49.5312L50.8972 10.1225C48.7687 9.77194 46.7834 8.82462 45.1719 7.39062V7.39062Z" fill="#015000"/>
<path d="M57.2812 7.39062H60.6719C59.9161 8.08173 59.0605 8.65489 58.1337 9.09078L57.2812 7.39062Z" fill="#015000"/>
<path d="M54.8594 7.39062L56.3077 9.80281C55.363 10.0852 54.3866 10.248 53.4014 10.2872L51.9531 7.39062H54.8594Z" fill="#015000"/>
<path d="M51.9531 7.39061L53.4014 10.2872C53.2416 10.292 53.0817 10.2969 52.9219 10.2969C52.2432 10.2979 51.5657 10.2396 50.8972 10.1225L49.5312 7.39061H51.9531Z" fill="#198117"/>
<path d="M57.2812 7.39061L58.1337 9.09077C57.5459 9.37844 56.9351 9.61661 56.3077 9.8028L54.8594 7.39061H57.2812Z" fill="#198117"/>
<path d="M58.2694 5.40953C60.1052 6.25719 60.6719 7.39062 60.6719 7.39062H57.2812L58.25 5.45312L58.2694 5.40953Z" fill="#198117"/>
<path d="M55.77 4.66358L54.8594 7.39061H51.9531L53.4062 4.48436C54.1977 4.48111 54.9881 4.54104 55.77 4.66358V4.66358Z" fill="#198117"/>
<path d="M50.8875 4.67812L49.5313 7.39062H45.1719C45.1719 7.39062 46.8866 5.33687 50.8875 4.67812V4.67812Z" fill="#198117"/>
<path d="M65.5156 24.3437C65.5156 28.7031 62.6094 32.5781 57.2813 32.5781C54.6027 32.5781 52.5296 31.5997 51.1394 30.0642C51.6843 28.878 51.9621 27.5866 51.9531 26.2812C51.9531 23.8303 51.0377 22.1495 49.7153 21.142C50.1852 20.1868 50.9202 19.387 51.8323 18.8382C52.7445 18.2893 53.7953 18.0146 54.8594 18.0469C55.6865 18.0854 56.503 18.2487 57.2813 18.5312C58.0595 18.2487 58.8761 18.0854 59.7031 18.0469C62.6094 18.0469 65.5156 19.9844 65.5156 24.3437Z" fill="#A80101"/>
<path d="M49.7153 21.142C51.0377 22.1495 51.9531 23.8303 51.9531 26.2813C51.9621 27.5866 51.6843 28.878 51.1394 30.0642C49.9381 32.6556 47.4097 34.5156 43.7187 34.5156C38.3906 34.5156 35.4844 30.6406 35.4844 26.2813C35.4844 21.9219 38.3906 19.9844 41.2969 19.9844C42.124 20.0229 42.9405 20.1862 43.7187 20.4688C44.497 20.1862 45.3135 20.0229 46.1406 19.9844C47.4268 19.9685 48.6826 20.3752 49.7153 21.142V21.142Z" fill="#E63434"/>
<path d="M44.2748 20.3036C44.5242 19.3624 45.1273 16.276 45.1694 8.29108C49.833 11.4085 56.4442 16.4358 56.7804 18.3835C56.961 18.4382 57.1282 18.491 57.2812 18.5322C57.4265 18.493 57.5825 18.4441 57.7515 18.3922C57.458 15.4492 48.0297 9.01909 45.3133 7.22255L46.5727 4.70089C46.6095 4.62714 46.6269 4.54519 46.6233 4.46282C46.6196 4.38045 46.595 4.30038 46.5517 4.2302C46.5084 4.16001 46.448 4.10203 46.376 4.06174C46.3041 4.02146 46.223 4.00021 46.1406 4H44.6875C44.559 4 44.4358 4.05103 44.345 4.14187C44.2541 4.23271 44.2031 4.35591 44.2031 4.48438V7.39062C44.2031 17.7175 43.277 20.2682 43.2687 20.289C43.2605 20.3099 43.2649 20.3186 43.2605 20.3326C43.4247 20.3811 43.5778 20.4295 43.7187 20.4688C43.8868 20.4232 44.0733 20.3641 44.2748 20.3036V20.3036Z" fill="#4B3C39"/>
<path d="M54.375 24.8281C53.476 21.6797 52.0917 20.2208 50.8991 19.5484C50.4086 20.0011 50.007 20.5416 49.7153 21.142C51.0377 22.1495 51.9531 23.8303 51.9531 26.2813C51.9621 27.5866 51.6843 28.878 51.1394 30.0642C52.5296 31.5997 54.6027 32.5781 57.2813 32.5781C62.6094 32.5781 65.5156 28.7031 65.5156 24.3438C65.5156 24.2469 65.5064 24.1563 65.5035 24.0614C65.2512 28.7816 56.2854 31.5125 54.375 24.8281Z" fill="#8A0101"/>
<path d="M46.1406 31.6094C42.7883 31.7513 38.875 30.1562 38.875 25.7969C38.875 22.3912 40.7219 20.771 42.0569 20.042C41.8053 20.004 41.5513 19.9847 41.2969 19.9844C38.3906 19.9844 35.4844 21.9219 35.4844 26.2812C35.4844 30.6406 38.3906 34.5156 43.7187 34.5156C47.4097 34.5156 49.9381 32.6556 51.1394 30.0642C51.6843 28.878 51.9621 27.5866 51.9531 26.2812C51.9531 26.2328 51.9468 26.1844 51.9463 26.1359C51.8761 29.1846 50.437 31.4277 46.1406 31.6094V31.6094Z" fill="#A80101"/>
<path d="M56.3125 31.6094C56.3125 31.3524 56.4146 31.106 56.5962 30.9244C56.7779 30.7427 57.0243 30.6406 57.2812 30.6406C57.5382 30.6406 57.7846 30.7427 57.9663 30.9244C58.1479 31.106 58.25 31.3524 58.25 31.6094H56.3125Z" fill="#69001F"/>
<path d="M42.75 33.5469C42.75 33.2899 42.8521 33.0435 43.0337 32.8619C43.2154 32.6802 43.4618 32.5781 43.7188 32.5781C43.9757 32.5781 44.2221 32.6802 44.4038 32.8619C44.5854 33.0435 44.6875 33.2899 44.6875 33.5469H42.75Z" fill="#951E1E"/>
<path d="M42.9921 33.5469H42.5077C42.5016 33.3862 42.5287 33.226 42.5874 33.0763C42.6461 32.9266 42.7351 32.7907 42.8487 32.677C42.9624 32.5633 43.0984 32.4743 43.2481 32.4156C43.3978 32.3569 43.558 32.3298 43.7186 32.3359C43.8793 32.3298 44.0395 32.3569 44.1892 32.4156C44.3389 32.4743 44.4748 32.5633 44.5885 32.677C44.7022 32.7907 44.7912 32.9266 44.8499 33.0763C44.9085 33.226 44.9357 33.3862 44.9296 33.5469H44.4452C44.4452 33.3542 44.3686 33.1694 44.2324 33.0331C44.0961 32.8969 43.9113 32.8203 43.7186 32.8203C43.5259 32.8203 43.3411 32.8969 43.2049 33.0331C43.0686 33.1694 42.9921 33.3542 42.9921 33.5469Z" fill="#8A0101"/>
<path d="M56.5547 31.6094H56.0703C56.0703 31.2882 56.1979 30.9802 56.425 30.7531C56.6521 30.526 56.9601 30.3984 57.2812 30.3984C57.6024 30.3984 57.9104 30.526 58.1375 30.7531C58.3646 30.9802 58.4922 31.2882 58.4922 31.6094H58.0078C58.0078 31.4167 57.9313 31.2319 57.795 31.0956C57.6588 30.9594 57.4739 30.8828 57.2812 30.8828C57.0886 30.8828 56.9037 30.9594 56.7675 31.0956C56.6312 31.2319 56.5547 31.4167 56.5547 31.6094Z" fill="#951E1E"/>
<path d="M58.6123 19.4157C58.509 19.4825 58.4225 19.5723 58.3596 19.6781C58.2967 19.7839 58.2592 19.9028 58.25 20.0256C58.2796 20.1934 58.3429 20.3536 58.4361 20.4963C58.5292 20.6391 58.6503 20.7615 58.792 20.8563L59.644 21.6182C60.2897 22.196 60.9363 22.7744 61.6266 23.3135C61.9186 23.5765 62.2734 23.76 62.6568 23.8463C62.8903 23.8836 63.1295 23.8541 63.347 23.7613C63.5644 23.6685 63.7511 23.5161 63.8857 23.3217C63.9833 23.1476 64.0404 22.9537 64.0528 22.7545C64.0914 22.353 64.0197 21.9486 63.8455 21.5848C63.5593 21.0744 63.1688 20.6302 62.6995 20.2808C62.4026 20.0258 62.0847 19.7964 61.7491 19.5949C61.3409 19.3589 60.9003 19.1841 60.4413 19.0762C60.1296 19.0027 59.806 18.995 59.4911 19.0534C59.1762 19.1119 58.8769 19.2353 58.6123 19.4157V19.4157Z" fill="#E63434"/>
<path d="M63.2158 24.3438C62.9787 24.3411 62.7443 24.3952 62.5324 24.5017C62.2291 24.6653 61.9665 24.8951 61.7641 25.174C61.5796 25.4147 61.4291 25.6797 61.3171 25.9616C61.2121 26.1852 61.1573 26.429 61.1563 26.676C61.1559 26.7665 61.1753 26.8559 61.2131 26.9381C61.2509 27.0202 61.3062 27.0931 61.3752 27.1517C61.5658 27.2555 61.7882 27.2845 61.9991 27.233C62.1501 27.2201 62.2995 27.1925 62.4452 27.1507C62.7294 27.0641 62.9931 26.9205 63.2202 26.7288C63.4365 26.5637 63.6276 26.3679 63.7874 26.1476C63.926 25.9338 64.0186 25.6934 64.0591 25.4418C64.0637 25.2193 64.0251 24.9981 63.9453 24.7903C63.8887 24.6887 63.8117 24.6 63.7191 24.5297C63.6264 24.4594 63.5202 24.4091 63.4071 24.382C63.3455 24.3602 63.2811 24.3473 63.2158 24.3438V24.3438Z" fill="#E63434"/>
<path d="M45.0498 21.3532C44.9465 21.42 44.86 21.5098 44.7971 21.6156C44.7342 21.7214 44.6967 21.8403 44.6875 21.963C44.7171 22.1309 44.7804 22.2911 44.8736 22.4338C44.9667 22.5766 45.0878 22.699 45.2295 22.7937L46.0815 23.5557C46.7272 24.1335 47.3738 24.7119 48.0641 25.251C48.3561 25.514 48.7109 25.6975 49.0943 25.7838C49.3278 25.8211 49.567 25.7916 49.7845 25.6988C50.0019 25.606 50.1887 25.4536 50.3232 25.2592C50.4208 25.0851 50.4779 24.8912 50.4903 24.692C50.5289 24.2905 50.4572 23.8861 50.283 23.5223C49.9968 23.0119 49.6063 22.5677 49.137 22.2183C48.8401 21.9633 48.5222 21.7339 48.1866 21.5324C47.7784 21.2964 47.3378 21.1216 46.8788 21.0137C46.5671 20.9402 46.2435 20.9325 45.9286 20.9909C45.6137 21.0494 45.3144 21.1728 45.0498 21.3532V21.3532Z" fill="#FF7777"/>
<path d="M49.6533 26.2813C49.4162 26.2786 49.1818 26.3327 48.9699 26.4392C48.6666 26.6028 48.404 26.8326 48.2016 27.1115C48.0171 27.3522 47.8666 27.6172 47.7546 27.8991C47.6496 28.1227 47.5948 28.3665 47.5938 28.6135C47.5934 28.704 47.6128 28.7934 47.6506 28.8756C47.6884 28.9577 47.7437 29.0306 47.8127 29.0892C48.0033 29.193 48.2257 29.222 48.4366 29.1705C48.5876 29.1576 48.737 29.13 48.8827 29.0882C49.1669 29.0016 49.4306 28.858 49.6577 28.6663C49.874 28.5012 50.0651 28.3054 50.2249 28.0851C50.3635 27.8713 50.4561 27.6309 50.4966 27.3793C50.5012 27.1568 50.4626 26.9356 50.3828 26.7278C50.3262 26.6262 50.2492 26.5375 50.1566 26.4672C50.0639 26.3969 49.9577 26.3466 49.8446 26.3195C49.783 26.2977 49.7186 26.2848 49.6533 26.2813V26.2813Z" fill="#FF7777"/>
<path d="M46.1406 4.48438L44.6875 7.39062V4.48438H46.1406Z" fill="#3B2F2D"/>
</g>
<defs>
<linearGradient id="paint0_linear" x1="49.5" y1="49" x2="51.0061" y2="83.1614" gradientUnits="userSpaceOnUse">
<stop stop-color="#CBE0EC"/>
<stop offset="1" stop-color="#CBE0EC" stop-opacity="0"/>
</linearGradient>
<linearGradient id="paint1_linear" x1="50.1272" y1="37.3785" x2="50.1272" y2="68.4548" gradientUnits="userSpaceOnUse">
<stop stop-color="#FFECBA"/>
<stop offset="1" stop-color="#FFF6E0"/>
</linearGradient>
<linearGradient id="paint2_linear" x1="30.5" y1="35.5" x2="127.5" y2="24.5" gradientUnits="userSpaceOnUse">
<stop stop-color="#FFF7D9"/>
<stop offset="1" stop-color="white"/>
</linearGradient>
<linearGradient id="paint3_linear" x1="50.1272" y1="37.5" x2="50" y2="75.5" gradientUnits="userSpaceOnUse">
<stop stop-color="#FBB656"/>
<stop offset="1" stop-color="#FFDE9D"/>
</linearGradient>
<linearGradient id="paint4_linear" x1="63" y1="28" x2="44.0233" y2="37.3824" gradientUnits="userSpaceOnUse">
<stop stop-color="#FF3444"/>
<stop offset="1" stop-color="#FF848D"/>
</linearGradient>
<clipPath id="clip0">
<rect width="31" height="31" fill="white" transform="translate(35 4)"/>
</clipPath>
</defs>
</svg>
