<svg width="81" height="84" viewBox="0 0 81 84" fill="none" xmlns="http://www.w3.org/2000/svg">
<path d="M61.4863 79.876C64.3099 79.876 66.5989 77.7229 66.5989 75.067V30.4727L68.3341 27.1422C70.4569 24.7236 71.7353 21.6246 71.7353 18.2433C71.7353 10.5162 65.0758 4.25232 56.8608 4.25232H19.8745C11.6595 4.25232 5 10.5162 5 18.2433C5 21.6248 6.27654 24.7249 8.39972 27.1434L9.97394 29.4795V75.067C9.97394 77.7229 12.263 79.876 15.0866 79.876H61.4863Z" fill="#E19574"/>
<path d="M61.1333 74.7352V26.8945L64.4165 23.5178C65.6189 22.0024 66.2697 20.1745 66.2697 18.2433C66.2697 13.3633 62.0487 9.39301 56.8605 9.39301H19.8743C14.6861 9.39301 10.4651 13.3633 10.4651 18.2433C10.4651 20.1696 11.115 22.0005 12.317 23.5169L15.4392 30.1114V74.7352H61.1333Z" fill="#FDDEB0"/>
<path d="M79.064 39.9362C80.7875 41.6551 80.7491 44.4805 78.9771 46.1487L76.8222 48.1772C76.4377 48.5376 76.2187 49.0451 76.2187 49.5764V65.9028C76.2187 66.7487 75.8811 67.5151 75.3327 68.0683C74.7844 68.6216 74.0288 68.965 73.1929 68.965C71.5229 68.965 70.1688 67.5946 70.1688 65.9028V56.8429C70.1688 55.9276 69.0906 55.4522 68.4286 56.0765L61.516 62.5816C60.7805 63.2736 59.6571 63.3058 58.8747 62.6662C57.6226 61.641 55.996 61.0657 54.2341 61.1808C50.8873 61.4007 48.1841 64.1686 48.0053 67.5574C47.92 69.1443 48.3764 70.6179 49.2039 71.809C49.7739 72.6329 49.6369 73.7597 48.9113 74.4432L39.3675 83.4236C38.8042 83.9548 37.9315 83.9548 37.3682 83.4236L1.0452 49.2414C0.470133 48.7 0.567093 47.7593 1.23411 47.3397C2.98104 46.24 4.14456 44.2809 4.14456 42.0459C4.14456 40.19 3.34213 38.5252 2.06996 37.3849C1.54839 36.9179 1.51328 36.1109 2.00811 35.6169L17.993 19.6949C18.3474 19.343 18.8991 19.3091 19.297 19.6086C20.9871 20.8859 23.1151 21.6033 25.4121 21.4916C30.0527 21.2632 34.1635 17.0979 34.3825 12.4013C34.4895 10.1359 33.8158 8.0363 32.6121 6.34783C32.3213 5.9401 32.363 5.38178 32.7158 5.02988L37.3381 0.426347C37.9098 -0.142116 38.8259 -0.142116 39.3976 0.426347L51.6379 12.6195C52.3082 13.2878 52.3283 14.3588 51.7114 15.0778C50.7402 16.213 50.1802 17.7171 50.2704 19.3565C50.4242 22.1887 52.9268 24.789 55.7202 25.014C57.4337 25.1528 59.0101 24.5539 60.1736 23.4998C60.8724 22.8654 61.9306 22.8705 62.5993 23.5371L79.064 39.9362Z" fill="#FFD643"/>
<path d="M14.0402 38.9742C14.0402 39.9675 13.2332 41.2873 12.3365 42.4474C11.0944 44.0542 11.2919 46.3612 12.7652 47.7536L44.9481 78.1726L39.3678 83.4234C38.8044 83.9547 37.9318 83.9547 37.3684 83.4234L1.04545 49.2414C0.470377 48.7 0.567337 47.7593 1.23435 47.3398C2.98129 46.2401 4.1448 44.2809 4.1448 42.0459C4.1448 40.19 3.34238 38.5252 2.07021 37.3849C1.54863 36.9179 1.51353 36.1109 2.00835 35.6169L17.9933 19.6949C18.3477 19.343 18.8993 19.3091 19.2972 19.6086C20.4187 20.4562 21.7337 21.0551 23.1624 21.3311L13.9832 30.6045C12.3569 32.2474 12.0401 34.804 13.2292 36.7941C13.6928 37.5701 14.0402 38.3574 14.0402 38.9742V38.9742Z" fill="#FEB017"/>
<path d="M28.9211 40.7417C31.994 40.7417 34.4851 38.2206 34.4851 35.1107C34.4851 32.0008 31.994 29.4797 28.9211 29.4797C25.8482 29.4797 23.3572 32.0008 23.3572 35.1107C23.3572 38.2206 25.8482 40.7417 28.9211 40.7417Z" fill="#FEB017"/>
<path d="M24.9412 59.6982C27.1393 59.6982 28.9212 57.8948 28.9212 55.6702C28.9212 53.4457 27.1393 51.6423 24.9412 51.6423C22.7431 51.6423 20.9612 53.4457 20.9612 55.6702C20.9612 57.8948 22.7431 59.6982 24.9412 59.6982Z" fill="#FFB800"/>
<path d="M41.868 58.0919C44.4778 58.0919 46.5935 55.9508 46.5935 53.3096C46.5935 50.6684 44.4778 48.5272 41.868 48.5272C39.2582 48.5272 37.1426 50.6684 37.1426 53.3096C37.1426 55.9508 39.2582 58.0919 41.868 58.0919Z" fill="#FEB017"/>
<path d="M57.7484 42.1314C59.8386 42.1314 61.5331 40.4164 61.5331 38.301C61.5331 36.1856 59.8386 34.4706 57.7484 34.4706C55.6581 34.4706 53.9636 36.1856 53.9636 38.301C53.9636 40.4164 55.6581 42.1314 57.7484 42.1314Z" fill="#FFB800"/>
<path d="M73.232 84H73.1553C71.5055 84 70.168 82.6463 70.168 80.9766V77.5381C70.168 75.8684 71.5055 74.5148 73.1553 74.5148H73.232C74.8819 74.5148 76.2194 75.8684 76.2194 77.5381V80.9766C76.2192 82.6463 74.8819 84 73.232 84Z" fill="#FFB800"/>
</svg>
