<svg width="88" height="79" viewBox="0 0 88 79" fill="none" xmlns="http://www.w3.org/2000/svg">
<g clip-path="url(#clip0)">
<path d="M79.461 58.224C79.461 52.4569 75.3676 47.6279 69.9337 46.4896V45.1966C69.9337 39.7554 65.6026 35.3093 60.2071 35.1181C60.1236 29.3093 55.3751 24.6089 49.5469 24.6089H42.0001L40.25 48.5L42.0001 64.25H79.461V58.224Z" fill="#DA6652"/>
<path d="M34.4531 24.6089C28.6247 24.6089 23.8764 29.3093 23.7929 35.1181C18.3976 35.3093 14.0665 39.7554 14.0665 45.1966V46.4896C8.63242 47.6279 4.53906 52.4569 4.53906 58.224V64.25H41.9999V24.6089H34.4531Z" fill="#FF8673"/>
<path d="M60.2112 63.211H55.2893V56.211C55.2893 50.9943 59.5334 46.75 64.7501 46.75V51.6719C62.2474 51.6719 60.2112 53.7081 60.2112 56.211V63.211Z" fill="#BE513E"/>
<path d="M37.461 52H32.5391C32.5391 49.4973 30.5029 47.4611 28 47.4611V42.5392C33.2169 42.5392 37.461 46.7833 37.461 52Z" fill="#DA6652"/>
<path d="M46.5391 45.711H51.4609C51.4609 43.2082 53.4971 41.1719 56.0001 41.1719V36.25C50.7832 36.25 46.5391 40.4941 46.5391 45.711V45.711Z" fill="#BE513E"/>
<path d="M14.3281 52H19.25V63.4844H14.3281V52Z" fill="#DA6652"/>
<path d="M42.0001 60.2356L40.25 69.5001L42.0001 79.3911H72.3683L74.7855 78.0946C80.4693 75.0465 84 69.1464 84 62.6966V60.2356H42.0001Z" fill="#E7E7E7"/>
<path d="M0 60.2356V62.6966C0 69.1464 3.53079 75.0464 9.21473 78.0947L11.6319 79.3911H42V60.2356H0Z" fill="#F0F0F0"/>
<path d="M31.8281 31.3281H36.75V36.25H31.8281V31.3281Z" fill="#DA6652"/>
<path d="M84.8744 6.13712C83.7344 5.22857 82.1253 4.48472 80.0919 3.92632C76.1813 2.8524 71.7712 2.73648 70.0567 2.73648C65.6142 2.73648 62 6.35074 62 10.7932V14.2068C62 18.6493 65.6142 22.2635 70.0567 22.2635C72.1052 22.2635 73.6436 21.6218 75.2724 20.9424C76.9567 20.2398 78.6984 19.5134 81.1479 19.5134C84.3748 19.5134 87 16.8881 87 13.6613V10.2477C87 8.64424 86.2848 7.26124 84.8744 6.13712ZM84.4632 14.4845C84.648 14.6809 84.9571 14.6901 85.1534 14.5053C85.4846 14.1935 85.7759 13.8461 86.0234 13.472V13.6613C86.0234 16.3497 83.8363 18.5368 81.1479 18.5368C78.5029 18.5368 76.6695 19.3016 74.8964 20.0411C73.3604 20.6818 71.9097 21.287 70.0567 21.287C66.3057 21.287 63.2271 18.3547 62.9916 14.6621C64.3627 17.1559 67.0155 18.8499 70.0567 18.8499C72.1052 18.8499 73.6436 18.2082 75.2724 17.5288C76.9567 16.8262 78.6984 16.0997 81.1479 16.0997C81.3299 16.0997 81.5137 16.0911 81.6944 16.0742C81.9629 16.0491 82.1602 15.811 82.135 15.5425C82.1099 15.2741 81.8715 15.0769 81.6033 15.102C81.4528 15.116 81.2996 15.1232 81.1479 15.1232C78.5029 15.1232 76.6695 15.8879 74.8964 16.6275C73.3604 17.2682 71.9097 17.8733 70.0567 17.8733C66.1527 17.8733 62.9766 14.6972 62.9766 10.7933C62.9766 6.88926 66.1527 3.71309 70.0567 3.71309C71.7316 3.71309 76.0372 3.82564 79.8333 4.86807C83.9408 5.99605 86.0234 7.80601 86.0234 10.2477C86.0234 11.5805 85.4623 12.8732 84.484 13.7942C84.2876 13.9791 84.2783 14.2881 84.4632 14.4845Z" fill="white"/>
<path d="M84.0617 14.7961C83.9468 14.5521 83.6559 14.4474 83.412 14.5623C83.4085 14.5639 83.4038 14.5662 83.4004 14.5679C83.1592 14.6885 83.0614 14.9818 83.182 15.223C83.2675 15.394 83.44 15.493 83.6192 15.493C83.6915 15.493 83.765 15.4768 83.8342 15.4428C84.0736 15.3259 84.1755 15.038 84.0617 14.7961Z" fill="white"/>
<path d="M73.5814 4.82726L73.5562 4.82521C73.287 4.80422 73.0521 5.00431 73.0306 5.27316C73.0092 5.54196 73.2097 5.77726 73.4785 5.79875L73.5035 5.8007C73.5167 5.80177 73.5298 5.80231 73.5429 5.80231C73.7949 5.80231 74.0086 5.60846 74.0292 5.35295C74.0506 5.0841 73.8502 4.8488 73.5814 4.82726Z" fill="white"/>
<path d="M84.7421 8.93227C84.2578 7.97504 83.1801 7.1478 81.539 6.47358C80.2111 5.92802 78.7589 5.58339 77.7745 5.39028C77.1845 5.2746 76.5663 5.17128 75.9369 5.08329C75.6699 5.0456 75.423 5.23212 75.3856 5.49926C75.3483 5.76635 75.5345 6.01308 75.8016 6.05043C76.4134 6.13598 77.014 6.23632 77.5866 6.34863C80.9406 7.00639 83.2311 8.10878 83.8707 9.37304C84.0051 9.63872 84.0704 9.9248 84.0704 10.2477C84.0704 11.859 82.7594 13.17 81.148 13.17C79.5187 13.17 77.9365 13.4363 76.311 13.9841C75.6109 14.2201 74.9312 14.5021 74.2738 14.775C73.839 14.9554 73.3894 15.142 72.9431 15.3111C71.8168 15.738 70.9536 15.9201 70.0568 15.9201C67.2297 15.9201 64.9297 13.6202 64.9297 10.7932C64.9297 7.96611 67.2297 5.66611 70.0568 5.66611C70.6083 5.66611 71.1682 5.67656 71.7208 5.69716C71.8146 5.70063 71.9085 5.70439 72.0025 5.70854C72.2717 5.72075 72.5 5.51166 72.5118 5.24223C72.5237 4.97285 72.3149 4.74477 72.0456 4.7329C71.9494 4.72866 71.8532 4.7248 71.7572 4.72123C71.1925 4.70019 70.6204 4.68954 70.0567 4.68954C66.6912 4.68954 63.9531 7.42758 63.9531 10.7932C63.9531 14.1586 66.6912 16.8967 70.0567 16.8967C71.079 16.8967 72.0457 16.6956 73.2891 16.2243C73.7496 16.0498 74.2063 15.8602 74.6481 15.6769C75.2903 15.4104 75.9544 15.1348 76.6229 14.9095C78.1462 14.3961 79.6264 14.1465 81.148 14.1465C83.2979 14.1466 85.047 12.3976 85.047 10.2477C85.047 9.76811 84.9472 9.33784 84.7421 8.93227Z" fill="white"/>
<path d="M70.5242 6.63184C69.1592 6.63184 68.0486 7.63892 68.0486 8.87681C68.0486 10.1147 69.1592 11.1218 70.5242 11.1218C71.8893 11.1218 72.9999 10.1147 72.9999 8.87681C72.9999 7.63892 71.8893 6.63184 70.5242 6.63184ZM70.5242 10.1452C69.6976 10.1452 69.0251 9.57617 69.0251 8.87676C69.0251 8.17739 69.6976 7.60835 70.5242 7.60835C71.3508 7.60835 72.0233 8.17734 72.0233 8.87676C72.0233 9.57617 71.3508 10.1452 70.5242 10.1452Z" fill="white"/>
</g>
<defs>
<clipPath id="clip0">
<rect width="88" height="79" fill="white"/>
</clipPath>
</defs>
</svg>
