<svg width="89" height="95" viewBox="0 0 89 95" fill="none" xmlns="http://www.w3.org/2000/svg">
<path d="M79.461 59.224C79.461 53.4569 75.3676 48.6279 69.9337 47.4896V46.1966C69.9337 40.7553 65.6026 36.3092 60.2071 36.1181C60.1236 30.3093 55.3751 25.6089 49.5469 25.6089H42.0001L40.25 49.5L42.0001 65.25H79.461V59.224Z" fill="#E3CD93"/>
<path d="M34.4531 25.6089C28.6247 25.6089 23.8764 30.3093 23.7929 36.1181C18.3976 36.3092 14.0665 40.7553 14.0665 46.1966V47.4896C8.63242 48.6279 4.53906 53.4569 4.53906 59.224V65.25H41.9999V25.6089H34.4531Z" fill="#FFE8BC"/>
<path d="M60.2112 64.211H55.2893V57.211C55.2893 51.9943 59.5334 47.75 64.7501 47.75V52.6719C62.2474 52.6719 60.2112 54.7081 60.2112 57.211V64.211Z" fill="#D1B97B"/>
<path d="M37.461 53H32.5391C32.5391 50.4972 30.5029 48.4611 28 48.4611V43.5392C33.2169 43.5392 37.461 47.7833 37.461 53Z" fill="#E3CD93"/>
<path d="M46.5391 46.711H51.4609C51.4609 44.2082 53.4971 42.1719 56.0001 42.1719V37.25C50.7832 37.25 46.5391 41.4941 46.5391 46.711V46.711Z" fill="#D1B97B"/>
<path d="M14.3281 53H19.25V64.4844H14.3281V53Z" fill="#E3CD93"/>
<path d="M42.0001 61.2356L40.25 70.5L42.0001 80.391H72.3683L74.7855 79.0946C80.4693 76.0465 84 70.1463 84 63.6965V61.2356H42.0001Z" fill="#E7E7E7"/>
<path d="M0 61.2356V63.6965C0 70.1463 3.53079 76.0463 9.21473 79.0946L11.6319 80.391H42V61.2356H0Z" fill="#F0F0F0"/>
<path d="M31.8281 32.3281H36.75V37.25H31.8281V32.3281Z" fill="#E3CD93"/>
<path d="M86.596 13.2849C84.375 9.30915 80.7238 6.87802 76.4443 6.4275C74.2988 3.71762 67.5665 3.03111 67.2759 3.00283C67.0866 2.9833 66.8961 3.06575 66.78 3.21986C66.6633 3.37288 66.6346 3.57575 66.7041 3.75533C67.3641 5.46865 68.0403 7.41744 68.2193 8.21473C66.9967 8.77415 65.9281 9.36904 65.2392 9.86477C63.7451 7.47437 60.695 7.44452 60.5556 7.44452C60.2485 7.44452 60 7.69301 60 8.00009C60 11.2189 61.122 12.8346 61.8723 13.5556C61.122 14.2766 60 15.8923 60 19.1111C60 19.4182 60.2485 19.6667 60.5556 19.6667C60.695 19.6667 63.7451 19.6368 65.2392 17.2464C66.1545 17.9051 67.737 18.7379 69.4662 19.4303C69.0841 20.0484 68.8889 21.0315 68.8889 22.4444C68.8889 22.7515 69.1373 23 69.4444 23C69.6096 23 73.3875 22.9672 75.269 20.7603C80.0538 20.6678 84.174 18.1618 86.596 13.8263C86.6898 13.6581 86.6898 13.4531 86.596 13.2849ZM68.068 4.21975C69.9347 4.48996 72.9993 5.15475 74.7312 6.34469C73.1343 6.40708 71.0968 7.01083 69.2498 7.76843C69.0039 6.79187 68.4582 5.2662 68.068 4.21975ZM70.013 21.8569C70.087 20.3115 70.4435 19.9166 70.5435 19.8357C71.6261 20.2157 72.7229 20.5177 73.7189 20.6693C72.5138 21.5172 70.8709 21.7812 70.013 21.8569ZM70.479 19.8153L70.4792 19.8138C70.4807 19.8143 70.4823 19.8148 70.4837 19.8153C70.4806 19.8149 70.4823 19.8158 70.479 19.8153ZM74.9999 19.6667C71.7534 19.6667 66.4453 17.0012 65.4622 15.9954C65.3569 15.8874 65.2132 15.8283 65.0651 15.8283C65.0314 15.8283 64.9973 15.8316 64.9636 15.8375C64.7818 15.8711 64.6283 15.9937 64.5551 16.1635C63.8053 17.9023 62.0421 18.3771 61.1257 18.5067C61.2993 15.0253 62.947 14.0949 63.0316 14.0498C63.2145 13.956 63.3273 13.7666 63.33 13.561C63.3327 13.3532 63.2161 13.1596 63.0322 13.0619C62.9578 13.0224 61.3004 12.0984 61.1257 8.60775C62.0415 8.74176 63.8112 9.22352 64.5551 10.9477C64.6283 11.1175 64.7818 11.2401 64.9636 11.2737C65.147 11.3079 65.3331 11.2482 65.4622 11.1159C66.4453 10.11 71.7534 7.44452 74.9999 7.44452C79.3863 7.44452 83.1856 9.66727 85.4708 13.5556C83.1856 17.4439 79.3863 19.6667 74.9999 19.6667Z" fill="white"/>
<path d="M76.6668 13.5556C76.6668 10.9992 77.6753 9.4334 77.6856 9.41767C77.8538 9.16158 77.7833 8.81763 77.5283 8.64836C77.2733 8.48018 76.9294 8.54909 76.7601 8.80299C76.7107 8.87679 75.5557 10.6432 75.5557 13.5556C75.5557 16.4679 76.7107 18.2343 76.7601 18.3081C76.867 18.4687 77.0433 18.5555 77.2228 18.5555C77.3286 18.5555 77.4355 18.5252 77.5304 18.4622C77.786 18.2918 77.8549 17.9474 77.6845 17.6918C77.6742 17.6767 76.6668 16.1353 76.6668 13.5556Z" fill="white"/>
<path d="M79.9998 13C80.6134 13 81.1108 12.5025 81.1108 11.8889C81.1108 11.2752 80.6134 10.7778 79.9998 10.7778C79.3861 10.7778 78.8887 11.2752 78.8887 11.8889C78.8887 12.5025 79.3861 13 79.9998 13Z" fill="white"/>
</svg>
