<svg width="77" height="74" viewBox="0 0 77 74" fill="none" xmlns="http://www.w3.org/2000/svg">
<g clip-path="url(#clip0)">
<path d="M60.5803 45.4715V18.6952C60.5803 16.7991 59.5688 15.0471 57.9268 14.099L34.7379 0.710944C33.0959 -0.237144 31.0728 -0.237144 29.4308 0.710944L6.2419 14.0991C4.59988 15.0472 3.58838 16.7991 3.58838 18.6953V45.4715C3.58838 47.3675 4.59988 49.1196 6.2419 50.0676L29.4308 63.4558C31.0728 64.4039 33.0959 64.4039 34.7379 63.4558L57.9266 50.0675C59.5688 49.1196 60.5803 47.3675 60.5803 45.4715Z" fill="#C3DDFF"/>
<path d="M57.926 50.0676C58.75 49.5918 59.4147 48.9133 59.8729 48.116L32.0835 32.0718V64.1667C32.9998 64.1667 33.916 63.9297 34.737 63.4557L57.926 50.0676Z" fill="#A4CCFF"/>
<path d="M29.4299 0.711597L6.24092 14.0997C4.5989 15.0478 3.5874 16.7998 3.5874 18.6958V45.472C3.5874 47.368 4.59903 49.1201 6.24092 50.0681L29.4298 63.4562C30.2509 63.9303 31.1672 64.1673 32.0834 64.1673V0.00062561C31.1672 0.00062561 30.2509 0.237616 29.4299 0.711597Z" fill="#A4CCFF"/>
<path d="M32.0834 32.0833L59.8684 16.0416C59.4104 15.2481 58.7469 14.5731 57.9259 14.0991L34.7369 0.710944C33.0949 -0.237144 31.0719 -0.237144 29.4297 0.710944L6.24089 14.0991C5.41988 14.5731 4.7564 15.2481 4.29834 16.0416L32.0834 32.0833Z" fill="#DBEAFF"/>
<path d="M29.4299 0.710972L6.24089 14.0991C5.41988 14.5731 4.7564 15.2481 4.29834 16.0417L32.0834 32.0833V0C31.1671 0 30.2509 0.236991 29.4299 0.710972Z" fill="#C3DDFF"/>
<path d="M6.24077 50.0676C5.41676 49.5918 4.75153 48.9138 4.29321 48.1166L32.0833 32.0718V64.1667C31.167 64.1667 30.2508 63.9297 29.4298 63.4557L6.24077 50.0676Z" fill="#8BB3EA"/>
<path d="M7.50474 16.6976C7.01146 16.4116 6.37781 16.5803 6.09081 17.0766C5.80482 17.5719 5.97464 18.2045 6.4698 18.4905L31.5662 32.9798L32.6012 31.1869L7.50474 16.6976Z" fill="#DBEAFF"/>
<path d="M32.0835 62.0967C32.6556 62.0967 33.1185 61.6337 33.1185 61.0617V32.6805L57.6974 18.4904C58.1927 18.2044 58.3624 17.5716 58.0764 17.0765C57.7904 16.5822 57.1567 16.4115 56.6625 16.6975L31.5661 31.1868C31.2457 31.3717 31.0486 31.7134 31.0486 32.0832V61.0617C31.0486 61.6337 31.5115 62.0967 32.0835 62.0967Z" fill="white"/>
</g>
<g clip-path="url(#clip1)">
<path d="M74.9138 62.6228V47.0438C74.9138 45.9407 74.3253 44.9213 73.3699 44.3697L59.8782 36.5803C58.9229 36.0287 57.7458 36.0287 56.7904 36.5803L43.2987 44.3698C42.3434 44.9214 41.7549 45.9407 41.7549 47.0439V62.6228C41.7549 63.7259 42.3434 64.7453 43.2987 65.2969L56.7904 73.0864C57.7458 73.638 58.9229 73.638 59.8782 73.0864L73.3699 65.2969C74.3253 64.7453 74.9138 63.7259 74.9138 62.6228Z" fill="#DFEDFF"/>
<path d="M73.3691 65.2969C73.8486 65.0201 74.2353 64.6253 74.5019 64.1614L58.3335 54.8266V73.5C58.8666 73.5 59.3997 73.3621 59.8774 73.0864L73.3691 65.2969Z" fill="#DDECFF"/>
<path d="M56.7895 36.581L43.2978 44.3705C42.3424 44.9221 41.7539 45.9414 41.7539 47.0445V62.6234C41.7539 63.7266 42.3425 64.7459 43.2978 65.2975L56.7895 73.0869C57.2672 73.3628 57.8003 73.5007 58.3334 73.5007V36.1673C57.8003 36.1673 57.2672 36.3052 56.7895 36.581Z" fill="#DDECFF"/>
<path d="M58.3333 54.8333L74.4992 45.5C74.2327 45.0383 73.8466 44.6455 73.369 44.3698L59.8772 36.5803C58.9218 36.0287 57.7448 36.0287 56.7894 36.5803L43.2977 44.3698C42.82 44.6455 42.434 45.0383 42.1675 45.5L58.3333 54.8333Z" fill="#E3EFFF"/>
<path d="M56.7895 36.5803L43.2977 44.3698C42.82 44.6456 42.434 45.0383 42.1675 45.5L58.3333 54.8333V36.1667C57.8002 36.1667 57.2671 36.3046 56.7895 36.5803Z" fill="#DFEDFF"/>
<path d="M43.2977 65.2969C42.8182 65.0201 42.4312 64.6256 42.1646 64.1618L58.3333 54.8266V73.5C57.8002 73.5 57.2671 73.3621 56.7895 73.0864L43.2977 65.2969Z" fill="#C4DDFF"/>
<path d="M44.0331 45.8816C43.7461 45.7152 43.3774 45.8134 43.2105 46.1021C43.0441 46.3903 43.1429 46.7584 43.431 46.9248L58.0325 55.3549L58.6347 54.3118L44.0331 45.8816Z" fill="#E3EFFF"/>
<path d="M58.3333 72.2956C58.6662 72.2956 58.9355 72.0263 58.9355 71.6935V55.1808L73.236 46.9247C73.5242 46.7583 73.6229 46.3902 73.4565 46.1021C73.2901 45.8145 72.9214 45.7152 72.6338 45.8816L58.0323 54.3117C57.8459 54.4193 57.7312 54.6181 57.7312 54.8333V71.6935C57.7312 72.0263 58.0006 72.2956 58.3333 72.2956Z" fill="white"/>
</g>
<defs>
<clipPath id="clip0">
<rect width="64.1667" height="64.1667" fill="white"/>
</clipPath>
<clipPath id="clip1">
<rect width="37.3333" height="37.3333" fill="white" transform="translate(39.6667 36.1667)"/>
</clipPath>
</defs>
</svg>
