<svg width="50" height="88" viewBox="0 0 50 88" fill="none" xmlns="http://www.w3.org/2000/svg">
<path d="M42.2834 38.9937L37.8831 51.9103L36.3436 56.4298L35.4566 59.0359L33.4957 64.7923L32.6086 67.3985L30.6018 73.2941L29.7148 75.8983L27.708 81.7903L26.8209 84.3965L25.9322 87.0059C25.4806 88.3314 23.6058 88.3312 23.1545 87.0057L21.5062 82.1643V82.1624L20.3296 78.7116L17.6428 70.8201V70.8182L16.4444 67.2977V67.2958L13.7815 59.4759L12.5883 55.9774L11.1515 51.755L6.80615 38.9942H42.2834V38.9937Z" fill="#FFC876"/>
<path d="M42.2827 38.9933L37.8832 51.9103C37.1887 51.998 36.4812 52.0437 35.763 52.0437C31.6651 52.0437 27.909 50.5541 25.0047 48.0903C24.9278 48.1561 24.8512 48.22 24.7743 48.284C21.8169 50.7059 18.0737 52.0418 14.2371 52.0418C13.1825 52.0418 12.1516 51.9432 11.1518 51.7548L6.80713 38.9931H42.2827V38.9933V38.9933Z" fill="#FF9737"/>
<path d="M36.3437 56.4298L35.4567 59.0359C35.4237 59.0249 35.3907 59.012 35.3596 58.9993L14.3278 49.9991C13.6314 49.7004 13.3071 48.8922 13.6058 48.1958C13.9045 47.4975 14.7126 47.1731 15.411 47.4719L36.3437 56.4298Z" fill="#FF9737"/>
<path d="M38.7926 15.5242C38.7926 16.314 38.7331 17.0908 38.6184 17.8509C37.8691 22.8352 34.7485 27.0448 30.4414 29.2929C28.2972 30.4137 25.8561 31.0463 23.2683 31.0463C21.9989 31.0463 20.7655 30.8935 19.5853 30.6069C13.7114 29.1782 9.14732 24.4082 8.01588 18.4261C7.83747 17.4858 7.74414 16.5156 7.74414 15.5242C7.74414 13.6307 8.0817 11.8177 8.70372 10.1408C10.8924 4.2202 16.5857 0 23.2683 0C29.951 0 35.6443 4.2202 37.833 10.1408C38.455 11.8177 38.7926 13.6307 38.7926 15.5242Z" fill="#8FE5D8"/>
<path d="M37.7798 17.8316C33.0161 17.8316 28.6517 19.5617 25.2785 22.4255C21.9053 19.5619 17.5409 17.8316 12.7793 17.8316C11.1362 17.8316 9.53981 18.0375 8.01562 18.426C9.14707 24.408 13.7112 29.1781 19.585 30.6067C20.7653 30.8932 21.9986 31.0462 23.2681 31.0462C25.8558 31.0462 28.297 30.4135 30.4411 29.2927C34.7483 27.0446 37.8688 22.8351 38.6182 17.8507C38.3403 17.838 38.0601 17.8316 37.7798 17.8316Z" fill="#63CEC1"/>
<path d="M37.8329 10.1408H30.212C29.1569 10.1408 28.3015 10.9962 28.3015 12.0513V12.6871C28.3015 13.8905 27.3259 14.8661 26.1225 14.8661C24.919 14.8661 23.9434 13.8905 23.9434 12.6871V9.41888C23.9434 8.2852 23.0244 7.36619 21.8907 7.36619C20.7571 7.36619 19.838 8.2852 19.838 9.41888V16.8127C19.838 17.8679 18.9826 18.7233 17.9275 18.7233C16.8724 18.7233 16.0169 17.8679 16.0169 16.8127V12.0513C16.0169 10.9962 15.1615 10.1408 14.1064 10.1408H8.70386C10.8923 4.2202 16.5857 0 23.2683 0C29.9509 0 35.6443 4.2202 37.8329 10.1408Z" fill="#FFA6B7"/>
<path d="M27.6018 35.3872C27.6018 39.56 25.6899 43.2869 22.6924 45.7361C20.3894 47.6224 17.4447 48.752 14.237 48.752C6.85451 48.752 0.870361 42.7678 0.870361 35.3872C0.870361 28.0047 6.85451 22.0205 14.237 22.0205C17.4447 22.0205 20.3894 23.152 22.6924 25.0364C25.69 27.4875 27.6018 31.2143 27.6018 35.3872Z" fill="#E7FBFF"/>
<path d="M27.6019 35.3872C27.6019 39.56 25.69 43.2869 22.6925 45.7361C20.4351 42.8938 19.0898 39.2968 19.0898 35.3872C19.0898 31.4757 20.437 27.8787 22.6925 25.0364C25.6901 27.4875 27.6019 31.2143 27.6019 35.3872Z" fill="#CBE5FF"/>
<path d="M35.7624 48.7539C43.1446 48.7539 49.1291 42.7694 49.1291 35.3872C49.1291 28.005 43.1446 22.0205 35.7624 22.0205C28.3802 22.0205 22.3958 28.005 22.3958 35.3872C22.3958 42.7694 28.3802 48.7539 35.7624 48.7539Z" fill="#ABB2FF"/>
<path d="M40.3882 32.299H40.1386C39.3795 32.299 38.7642 31.6837 38.7642 30.9245C38.7642 30.1653 39.3795 29.55 40.1386 29.55H40.3882C41.1474 29.55 41.7627 30.1653 41.7627 30.9245C41.7627 31.6837 41.1472 32.299 40.3882 32.299Z" fill="#E1E4FF"/>
<path d="M43.135 36.2158H42.8855C42.1263 36.2158 41.511 35.6005 41.511 34.8413C41.511 34.0822 42.1263 33.4668 42.8855 33.4668H43.135C43.8942 33.4668 44.5095 34.0822 44.5095 34.8413C44.5095 35.6005 43.8942 36.2158 43.135 36.2158Z" fill="#E1E4FF"/>
<path d="M10.3689 43.1406H10.1194C9.36018 43.1406 8.74487 42.5253 8.74487 41.7661C8.74487 41.007 9.36018 40.3917 10.1194 40.3917H10.3689C11.1281 40.3917 11.7434 41.007 11.7434 41.7661C11.7436 42.5253 11.1281 43.1406 10.3689 43.1406Z" fill="white"/>
<path d="M33.4959 64.7921L32.6088 67.3983C32.5777 67.3892 32.5483 67.3782 32.5191 67.3653L21.8639 62.8788C21.1639 62.5837 20.8358 61.7792 21.1309 61.0792C21.426 60.3791 22.2305 60.051 22.9306 60.3461L33.4959 64.7921Z" fill="#FF9737"/>
<path d="M18.3232 59.8972C18.1032 60.4231 17.5921 60.7383 17.0568 60.7383C16.8791 60.7383 16.6976 60.7034 16.5235 60.6302L13.7818 59.4756L12.5886 55.9771L17.59 58.0975C18.2902 58.3907 18.6183 59.1971 18.3232 59.8972Z" fill="#FF9737"/>
<path d="M30.6021 73.2939L29.7151 75.8982C29.684 75.8872 29.6527 75.8762 29.6235 75.8633L17.6433 70.8198V70.8179L16.4448 67.2974C17.0148 67.5502 17.4656 67.7518 17.638 67.8343L30.6021 73.2939Z" fill="#FF9737"/>
<path d="M27.7085 81.7902L26.8214 84.3963C26.7903 84.3872 26.7609 84.3762 26.7298 84.3633L21.5067 82.1642V82.1623L20.3301 78.7114L27.7085 81.7902Z" fill="#FF9737"/>
<path d="M28.9485 41.9798V48.4294C28.9485 50.288 30.4553 51.7948 32.314 51.7948C34.1726 51.7948 35.6794 50.288 35.6794 48.4294V48.3575C35.6794 47.4488 36.4161 46.7122 37.3248 46.7122C38.2335 46.7122 38.9701 47.4488 38.9701 48.3575V55.1007C38.9701 56.7472 40.3049 58.0822 41.9516 58.0822C43.5982 58.0822 44.9331 56.7474 44.9331 55.1007V37.6298L28.9485 41.9798Z" fill="#ABB2FF"/>
</svg>
