<svg width="87" height="48" viewBox="0 0 87 48" fill="none" xmlns="http://www.w3.org/2000/svg">
<g clip-path="url(#clip0)">
<path d="M74.2559 37.9091H40.1016L43.5 2.11365H74.2559V37.9091Z" fill="#D10050"/>
<path d="M12.7441 2.11365H43.5V37.9091H12.7441V2.11365Z" fill="#FF415B"/>
<path d="M81.3435 40.4659L40.1016 37.0568L43.5 48.1364H78.7946L81.3435 40.4659Z" fill="#CFCFE6"/>
<path d="M5.65649 40.4659L8.20532 48.1364H43.5V37.0568L5.65649 40.4659Z" fill="#ECE6F2"/>
<path d="M87 35.3523H43.5L41.8008 37.9091L43.5 40.4659H87V35.3523Z" fill="#ECE6F2"/>
<path d="M0 35.3523H43.5V40.4659H0V35.3523Z" fill="#FFF5F5"/>
<path d="M79.3535 -0.443176H43.5L41.8008 2.11364L43.5 4.67046H79.3535V-0.443176Z" fill="#FFDA44"/>
<path d="M45.9107 15.7466C46.9883 16.4675 48.4643 17.4546 51.1475 17.4546C53.8307 17.4546 55.3067 16.4675 56.3843 15.7466C57.2295 15.1814 57.6536 14.8977 58.7935 14.8977C59.9333 14.8977 60.3574 15.1815 61.2028 15.7466C62.2804 16.4675 63.7564 17.4546 66.4398 17.4546C69.123 17.4546 70.5991 16.4675 71.6766 15.7466C72.522 15.1814 72.9461 14.8977 74.0859 14.8977H79.3535V9.7841H74.0859C71.4027 9.7841 69.9266 10.7712 68.8491 11.4921C68.0038 12.0573 67.5796 12.3409 66.4398 12.3409C65.3 12.3409 64.8757 12.0571 64.0303 11.4919C62.9527 10.7712 61.4767 9.7841 58.7935 9.7841C56.1102 9.7841 54.6341 10.7712 53.5565 11.4921C52.7113 12.0573 52.2872 12.3409 51.1475 12.3409C50.0077 12.3409 49.5835 12.0571 48.7382 11.4921C47.6605 10.7712 46.1846 9.7841 43.5014 9.7841C43.5008 9.7841 43.5005 9.7841 43.5 9.7841L41.8008 12.5398L43.5 14.8977H43.5014C44.6412 14.8977 45.0653 15.1815 45.9107 15.7466V15.7466Z" fill="#FFDA44"/>
<path d="M43.5014 27.6818C44.6412 27.6818 45.0653 27.9656 45.9107 28.5307C46.9883 29.2515 48.4643 30.2386 51.1475 30.2386C53.8307 30.2386 55.3067 29.2515 56.3843 28.5307C57.2295 27.9655 57.6536 27.6818 58.7935 27.6818C59.9333 27.6818 60.3574 27.9656 61.2028 28.5307C62.2804 29.2515 63.7564 30.2386 66.4398 30.2386C69.123 30.2386 70.5991 29.2515 71.6766 28.5307C72.522 27.9655 72.9461 27.6818 74.0859 27.6818H79.3535V22.5682H74.0859C71.4027 22.5682 69.9266 23.5553 68.8491 24.2761C68.0038 24.8414 67.5796 25.125 66.4398 25.125C65.3 25.125 64.8757 24.8412 64.0303 24.276C62.9527 23.5553 61.4767 22.5682 58.7935 22.5682C56.1102 22.5682 54.6341 23.5553 53.5565 24.2761C52.7113 24.8414 52.2872 25.125 51.1475 25.125C50.0077 25.125 49.5835 24.8412 48.7382 24.2761C47.6605 23.5553 46.1846 22.5682 43.5014 22.5682C43.5008 22.5682 43.5005 22.5682 43.5 22.5682L41.8008 25.267L43.5 27.6818H43.5014Z" fill="#FFDA44"/>
<path d="M7.64648 -0.443176H43.5V4.67046H7.64648V-0.443176Z" fill="#FFF79F"/>
<path d="M38.2642 11.4919C37.4188 12.0571 36.9947 12.3409 35.8547 12.3409C34.7149 12.3409 34.2906 12.0571 33.4456 11.4921C32.3679 10.7712 30.8918 9.7841 28.2086 9.7841C25.5252 9.7841 24.049 10.7712 22.9712 11.4919C22.1259 12.0571 21.7014 12.3409 20.5614 12.3409C19.4212 12.3409 18.9969 12.0571 18.1514 11.4919C17.0736 10.7712 15.5975 9.7841 12.9141 9.7841H7.64648V14.8977H12.9141C14.0542 14.8977 14.4785 15.1815 15.3241 15.7468C16.4019 16.4676 17.878 17.4546 20.5614 17.4546C23.2448 17.4546 24.7209 16.4675 25.7987 15.7468C26.6441 15.1815 27.0686 14.8977 28.2087 14.8977C29.3486 14.8977 29.7729 15.1815 30.6181 15.7468C31.6957 16.4675 33.1718 17.4546 35.855 17.4546C38.5385 17.4546 40.0144 16.4675 41.092 15.7468C41.9371 15.1817 42.3612 14.8981 43.5002 14.8977V9.7841C40.8176 9.78444 39.3418 10.7714 38.2642 11.4919V11.4919Z" fill="#FFF79F"/>
<path d="M35.8549 25.125C34.715 25.125 34.2907 24.8412 33.4457 24.2761C32.3681 23.5553 30.892 22.5682 28.2087 22.5682C25.5253 22.5682 24.0492 23.5553 22.9714 24.276C22.126 24.8412 21.7016 25.125 20.5616 25.125C19.4214 25.125 18.9971 24.8412 18.1516 24.276C17.0736 23.5553 15.5975 22.5682 12.9141 22.5682H7.64648V27.6818H12.9141C14.0542 27.6818 14.4785 27.9656 15.3241 28.5309C16.4019 29.2517 17.878 30.2386 20.5614 30.2386C23.2448 30.2386 24.7209 29.2515 25.7987 28.5309C26.6441 27.9656 27.0686 27.6818 28.2087 27.6818C29.3486 27.6818 29.7729 27.9656 30.6181 28.5309C31.6957 29.2515 33.1718 30.2386 35.855 30.2386C38.5385 30.2386 40.0144 29.2515 41.092 28.5309C41.9371 27.9658 42.3612 27.6822 43.5002 27.6818V22.5682C40.8178 22.5685 39.342 23.5555 38.2644 24.276C37.419 24.8412 36.9947 25.125 35.8549 25.125V25.125Z" fill="#FFF79F"/>
</g>
<defs>
<clipPath id="clip0">
<rect width="87" height="48" fill="white"/>
</clipPath>
</defs>
</svg>
