<svg width="89" height="86" viewBox="0 0 89 86" fill="none" xmlns="http://www.w3.org/2000/svg">
<path d="M79.2166 12.2361C79.0068 10.9637 75.8836 12.2368 74.4879 12.2766C70.3545 12.3947 68.7212 15.06 67.584 18.7437C69.2267 19.22 70.8292 19.8237 72.3564 20.5978C73.1001 19.0236 74.6115 17.9636 76.3102 17.7762C77.4147 17.6545 78.3095 16.8201 78.575 15.7412L79.1726 13.3112C79.263 12.9441 79.2734 12.5805 79.2166 12.2361Z" fill="#FFDF74"/>
<path d="M76.4851 9.99236C71.4394 10.1363 66.8588 13.293 64.99 18.0969C65.9645 18.3046 66.9316 18.5478 67.8849 18.8341C70.0472 14.8667 74.1832 12.3293 78.6932 12.2005C78.8724 12.1955 79.0468 12.2083 79.2157 12.2363C79.0059 10.9639 77.8807 9.95238 76.4851 9.99236V9.99236Z" fill="#F7CE5C"/>
<path d="M53.2061 11.5074C51.3736 11.5149 49.5625 11.1372 47.8812 10.4083C45.0656 9.18769 42.3634 8.57338 39.853 8.36357C30.5038 7.58204 24.4669 14.1677 24.4669 14.1677L13.8031 22.4195C5.73989 27.7464 12.3932 34.189 12.3932 34.189L41.6528 47.0457L75.8128 34.189C76.1205 13.5264 59.8689 11.48 53.2061 11.5074V11.5074Z" fill="#FFF3D7"/>
<path d="M23.8134 12.4089L13.0387 20.9682C4.9755 26.2952 8.22434 34.1889 8.22434 34.1889L10.6227 40.0833L12.3931 34.1889C12.3931 34.1889 9.14424 26.2952 17.2074 20.9682L27.982 12.4089C27.982 12.4089 32.7574 8.96524 39.8758 8.36692C30.5152 7.57583 23.8134 12.4089 23.8134 12.4089V12.4089Z" fill="#F9DBAA"/>
<path d="M40.8634 24.0259C41.0506 25.1212 41.0754 25.1411 42.1683 25.3419C44.1666 25.7089 47.2211 28.9817 47.5836 31.101C47.9455 33.2179 44.7232 34.4323 42.959 35.4419H52.46C53.1848 33.4374 53.4183 31.2243 53.0333 28.9732C52.1514 23.8169 48.2862 19.9178 43.511 18.7441C42.9389 18.6035 42.4729 19.8364 41.8782 19.7765C40.113 19.5988 40.365 19.8107 40.664 21.5594L40.8634 24.0259Z" fill="#FFDF74"/>
<path d="M39.2622 24.0259C39.4496 25.1211 40.2822 26.0174 41.3752 26.2182C43.3736 26.5851 45.0246 28.1614 45.3868 30.2805C45.7487 32.3974 44.7179 34.4303 42.9585 35.4417H46.2514C48.0109 34.4303 49.0419 32.3974 48.6798 30.2805C48.3174 28.1614 46.6665 26.5851 44.6682 26.2182C43.5752 26.0174 42.7426 25.1211 42.5552 24.0259L42.1333 21.5592C41.9292 20.3661 42.5407 19.2678 43.5104 18.7463C42.9381 18.6057 42.3537 18.5018 41.7589 18.4418C39.9936 18.2642 38.5411 19.8104 38.8403 21.5592L39.2622 24.0259Z" fill="#F7CE5C"/>
<path d="M30.2528 30.4293C31.476 31.6658 32.0754 33.6697 31.6493 35.4417H36.9029C37.6335 31.0624 36.0122 26.5818 32.6417 23.6878C32.6062 23.6573 32.5702 23.628 32.5339 23.5998C31.1873 22.5558 30.9578 24.7695 30.2224 26.3326L29.157 28.5968C28.6838 29.6024 29.4712 29.6393 30.2528 30.4293V30.4293Z" fill="#FFDF74"/>
<path d="M28.8566 35.4417H32.1496C33.0455 33.5037 32.5918 31.2827 31.1704 29.846C30.3889 29.0559 30.2187 27.8445 30.6918 26.8389L31.7572 24.5746C31.9443 24.1769 32.2128 23.8515 32.5309 23.6036C31.1843 22.5607 29.1995 23.0119 28.4642 24.5746L27.3988 26.8389C26.9257 27.8443 27.0959 29.0559 27.8774 29.846C29.299 31.2825 29.7527 33.5035 28.8566 35.4417V35.4417Z" fill="#F7CE5C"/>
<path d="M69.4164 36.0542C74.845 38.2554 77.4615 36.4459 80.864 32.0153C81.9447 30.6082 81.3949 28.5593 79.7506 27.8925L77.4316 26.9522C76.4018 26.5347 75.2014 26.7706 74.4551 27.5942C73.0908 29.0997 70.8816 29.6734 68.8892 28.8654C66.8967 28.0576 65.7107 26.1073 65.7802 24.0768C65.8183 22.9662 65.1211 21.9608 64.0913 21.5432L62.5891 20.9341L61.2503 21.5598C59.606 20.8931 61.1109 25.6718 60.9065 27.4343C60.2629 32.9832 63.9879 33.8532 69.4164 36.0542V36.0542Z" fill="#FFDF74"/>
<path d="M77.8718 27.5942C77.9803 27.4744 78.0992 27.3687 78.225 27.274L77.4315 26.9522C76.4018 26.5347 75.2013 26.7706 74.4551 27.594C73.9073 28.1986 73.2219 28.6497 72.4705 28.9245C74.4191 29.6372 76.545 29.0585 77.8718 27.5942Z" fill="#FFDF74"/>
<path d="M69.3911 36.0542C63.9625 33.8531 60.8751 28.3352 61.5191 22.7861C61.6099 22.0044 62.0189 21.356 62.5894 20.9341L61.7728 20.603C60.1285 19.9364 58.307 21.0238 58.1026 22.7863C57.4587 28.3354 60.5461 33.8534 65.9745 36.0544C68.1057 36.9185 70.3333 37.162 72.4597 36.874C71.4291 36.7329 70.3993 36.4631 69.3911 36.0542V36.0542Z" fill="#F7CE5C"/>
<path d="M53.9525 14.8606C54.2301 14.8404 54.5002 14.9776 54.7721 14.9402C60.2226 14.1903 64.4767 10.0403 65.5186 4.82253C65.7837 3.49501 65.0323 2.25179 63.8751 1.79427C63.5156 1.65208 62.8653 2.01729 62.446 2.04771L60.8102 3.11954C59.7018 3.20019 59.7079 4.70763 59.4027 5.77615C58.978 7.26186 56.2899 6.39324 54.8437 6.9601C54.3882 7.13862 53.8984 7.25265 53.3849 7.28985C51.2406 7.44577 49.3147 6.22063 48.4797 4.36849C48.1942 3.73541 47.6693 3.26608 47.0452 3.02272C46.6708 2.8767 46.248 3.13501 45.8324 3.16525L43.909 4.20753C42.1394 4.33633 42.7117 4.93343 43.3074 6.60462C45.1825 11.8667 48.1101 15.2856 53.9525 14.8606Z" fill="#FFDF74"/>
<path d="M57.0214 7.28986C59.1657 7.13393 60.8939 5.64301 61.4522 3.68936C61.7577 2.62083 62.73 1.87859 63.8384 1.79793L63.8745 1.79532C63.5151 1.65313 63.117 1.58586 62.6975 1.61645L60.2017 1.79811C59.0934 1.87876 58.1208 2.62101 57.8156 3.68953C57.3911 5.17524 56.2888 6.39134 54.8428 6.95837C55.5148 7.22189 56.2534 7.34566 57.0214 7.28986V7.28986Z" fill="#F7CE5C"/>
<path d="M44.6582 6.60463C44.0627 4.93345 45.2159 3.15275 46.9854 3.02395L47.0376 3.02012C46.6651 2.87619 46.2576 2.8124 45.8448 2.84229L43.349 3.02395C41.5794 3.15258 40.4262 4.93327 41.0217 6.60463C42.8968 11.8668 48.1052 15.452 53.9478 15.0268C54.2452 15.0052 54.5385 14.971 54.8294 14.9296C50.1549 14.2555 46.2322 11.0214 44.6582 6.60463V6.60463Z" fill="#F7CE5C"/>
<path d="M65.4751 85.3909H26.7179C25.2344 85.3909 23.0647 84.1883 23.0647 82.7047L24.2895 76.7003L68.1611 79.0814V82.7045C68.1611 84.1881 66.9586 85.3909 65.4751 85.3909Z" fill="#D4D4E8"/>
<path d="M68.1612 79.0815V69.6639H19.4956V82.7545C19.4956 84.2105 20.6981 85.3908 22.1818 85.3908H27.2103C25.7268 85.3908 24.5241 84.2105 24.5241 82.7545V82.2819C24.5241 80.5142 25.957 79.0814 27.7246 79.0814H68.1612V79.0815Z" fill="#C6C6E0"/>
<path d="M71.1489 75.3191H18.3587C10.2609 75.3191 4.36938 68.7546 4.36938 60.6568L3.66016 40.0832C3.66016 38.6048 5.72749 34.1891 7.2059 34.1891H86.3233C87.8017 34.1891 89 35.3875 89 36.8659V57.468C89 67.3268 81.0078 75.3191 71.1489 75.3191Z" fill="#E9E9FF"/>
<path d="M5.28629 60.9294V36.816C5.28629 35.365 6.48466 34.1889 7.96307 34.1889H2.67678C1.19837 34.1891 0 35.3652 0 36.816V60.9292C0 68.8765 6.56444 75.3189 14.6622 75.3189H19.9485C11.8507 75.3191 5.28629 68.8767 5.28629 60.9294V60.9294Z" fill="#D4D4E8"/>
<path d="M19.6159 13.3295C14.9366 16.8537 13.1173 18.8347 15.1676 24.0311C15.5589 25.0228 15.2039 27.3442 16.1617 27.4383C16.7979 27.5009 17.4626 27.3375 18.0283 26.9116L20.0271 25.4061C20.9149 24.7375 21.3296 23.5866 21.0072 22.5233C20.4174 20.579 21.0616 18.3893 22.7788 17.0959C24.4961 15.8024 26.7786 15.788 28.4846 16.8918C29.4175 17.4955 30.6383 17.4145 31.5259 16.7459L33.5247 15.2404C34.4189 14.567 34.7504 13.474 34.5202 12.4873C34.3855 11.91 33.3022 11.8914 32.783 11.4922C28.3551 8.0867 24.2951 9.80534 19.6159 13.3295V13.3295Z" fill="#FFDF74"/>
<path d="M20.6543 13.4415C24.8071 10.314 30.2508 10.1135 34.519 12.4877C34.3843 11.9104 34.0587 11.3693 33.5397 10.97C29.1114 7.56453 22.7913 7.37506 18.1121 10.8992C13.4328 14.4234 11.8695 20.55 13.9198 25.7464C14.3111 26.7381 15.2044 27.3401 16.1621 27.4343C14.5927 22.4343 16.2292 16.7743 20.6543 13.4415V13.4415Z" fill="#F7CE5C"/>
</svg>
