<svg width="71" height="95" viewBox="0 0 71 95" fill="none" xmlns="http://www.w3.org/2000/svg">
<path d="M20.6113 28.6022V7.69604e-05L10.7898 0V28.6021L5.77837 32.5045C1.99012 35.4543 -0.21621 40.7387 0.0167858 46.3039C1.13535 63.5511 2.38625 72.8608 1.88984 91.0427C1.88984 93.2287 3.30903 95 5.06065 95H25.9312C27.6827 95 29.102 93.2287 29.102 91.0427C27.8935 73.2855 29.5959 63.6027 30.9832 46.131C31.2124 40.6581 29.0822 35.449 25.3965 32.4699L20.6113 28.6022Z" fill="#C1FA84"/>
<path d="M20.6113 28.6021V0H17L17 28.6021C35.5 36.7742 18 62.8226 25 94.9999H25.9313C27.6827 94.9999 29.1021 93.2286 29.1021 91.0427C27.8936 73.2854 29.5959 63.6026 30.9833 46.131C31.2125 40.658 29.0822 35.4489 25.3965 32.4699L20.6113 28.6021Z" fill="#57BC55"/>
<path d="M21 0H10.5V16.3441H21V0Z" fill="#434A54"/>
<path d="M21 0H17V16.3441H21V0Z" fill="#2E3238"/>
<path d="M53 66.3979H50V91.9356C51.0646 92.4144 51.6974 92.5129 53 91.9356V66.3979Z" fill="#CCD1D9" fill-opacity="0.24"/>
<path d="M15.5 63.3334C20.7467 63.3334 25 58.9886 25 53.6291C25 48.2696 20.7467 43.9248 15.5 43.9248C10.2533 43.9248 6 48.2696 6 53.6291C6 58.9886 10.2533 63.3334 15.5 63.3334Z" fill="#CECECE"/>
<path d="M15.5 62.3119C20.1944 62.3119 24 58.4245 24 53.6291C24 48.8337 20.1944 44.9463 15.5 44.9463C10.8056 44.9463 7 48.8337 7 53.6291C7 58.4245 10.8056 62.3119 15.5 62.3119Z" fill="white"/>
<path d="M15.5 59.2473C18.5376 59.2473 21 56.7319 21 53.629C21 50.5261 18.5376 48.0107 15.5 48.0107C12.4624 48.0107 10 50.5261 10 53.629C10 56.7319 12.4624 59.2473 15.5 59.2473Z" fill="#FC6E51"/>
<path d="M25.7401 70.503C18.096 71.6283 12.327 71.5236 5.14705 70.5034C4.52531 70.415 3.97268 70.922 4 71.5626L4.40569 81.0761C4.42899 81.6224 4.86938 82.0531 5.40474 82.0531L25.4909 82.0437C26.0263 82.0437 26.4667 81.613 26.49 81.0667L26.8952 71.5626C26.9227 70.9189 26.3644 70.4111 25.7401 70.503Z" fill="white"/>
<path d="M23 51.0754H8V55.1615H23V51.0754Z" fill="black"/>
<path d="M9.62625 52.0969L10.0677 53.5183L10.5079 52.0969H11.1355V54.1399H10.6573V53.6629L10.7035 52.6863L10.2253 54.1399H9.91017L9.43063 52.6849L9.47682 53.6629V54.1399H9V52.0969H9.62625Z" fill="white"/>
<path d="M12.8937 53.7583H12.2403L12.1262 54.1399H11.6168L12.3422 52.0969H12.7905L13.5213 54.1399H13.0092L12.8937 53.7583ZM12.3544 53.378H12.7796L12.5663 52.6694L12.3544 53.378Z" fill="white"/>
<path d="M14.7076 53.4187H14.4495V54.1399H13.9727V52.0969H14.7511C14.9857 52.0969 15.1691 52.1507 15.3013 52.2583C15.4335 52.3659 15.4996 52.5179 15.4996 52.7143C15.4996 52.8565 15.4715 52.9744 15.4154 53.0679C15.3602 53.1615 15.2732 53.2372 15.1546 53.2952L15.5675 54.1189V54.1399H15.0568L14.7076 53.4187ZM14.4495 53.0384H14.7511C14.8417 53.0384 14.9096 53.0141 14.9549 52.9655C15.0011 52.9159 15.0242 52.8472 15.0242 52.7592C15.0242 52.6713 15.0011 52.6025 14.9549 52.553C14.9087 52.5024 14.8408 52.4772 14.7511 52.4772H14.4495V53.0384Z" fill="white"/>
<path d="M17.5784 52.4772H16.9848V54.1399H16.508V52.4772H15.9252V52.0969H17.5784V52.4772Z" fill="white"/>
<path d="M18.5949 54.1399H18.1195V52.0969H18.5949V54.1399Z" fill="white"/>
<path d="M20.8843 54.1399H20.4102L19.7093 52.8687V54.1399H19.2324V52.0969H19.7093L20.4089 53.3682V52.0969H20.8843V54.1399Z" fill="white"/>
<path d="M22 54.1399H21.5245V52.0969H22V54.1399Z" fill="white"/>
<path d="M52.8719 68.1685C52.1014 68.895 50.8982 68.895 50.1277 68.1685L32 51.0752H71L52.8719 68.1685Z" fill="#E6E9ED" fill-opacity="0.24"/>
<path d="M64.5 57.2043H38.5L48.0698 66.228C49.996 68.0442 53.004 68.0442 54.9302 66.228L64.5 57.2043Z" fill="#F2FFE3"/>
<path d="M53 91.0427H50C48.9272 91.0427 42.061 91.9298 42.061 93.0229C42.061 94.116 47.927 94.4893 49 94.4893H54C55.0724 94.4893 61.4399 94.1158 61.4399 93.0229C61.4399 91.93 54.0726 91.0427 53 91.0427Z" fill="#E6E9ED" fill-opacity="0.24"/>
<path opacity="0.2" d="M67.7299 51.0752L53 64.8667L54.6351 66.3978L71 51.0752H67.7299Z" fill="white"/>
</svg>
