<svg width="104" height="59" viewBox="0 0 104 59" fill="none" xmlns="http://www.w3.org/2000/svg">
<g clip-path="url(#clip0)">
<path d="M96.1069 44.4212C96.1069 40.3075 93.5947 36.8047 90.1116 35.5494C90.5755 34.3947 90.8206 33.143 90.8206 31.8719C90.8206 26.7069 86.8595 22.5049 81.9905 22.5049H81.6144C81.2372 17.706 77.4349 13.9234 72.815 13.9234H51.5041C43.5309 13.9234 40.4781 6.05062 40.3572 5.72947L38.8249 1.52814L35.4739 4.4898C31.6507 7.86896 30.1644 11.5615 29.5909 14.0764C25.717 14.8287 22.7185 18.2715 22.3858 22.5051H22.0098C17.1407 22.5051 13.1796 26.7071 13.1796 31.8721C13.1796 33.1434 13.4246 34.3949 13.8886 35.5496C10.4056 36.8051 7.89331 40.3079 7.89331 44.4216V47.6908H96.1071V44.4212H96.1069Z" fill="#FDF6C8"/>
<path d="M90.1115 35.5492C90.5753 34.3945 90.8204 33.1428 90.8204 31.8716C90.8204 26.7066 86.8593 22.5047 81.9903 22.5047H81.6143C81.237 17.7058 77.4347 13.9232 72.8149 13.9232H52.6169V47.6905H96.1067V44.4214C96.1067 40.3074 93.5945 36.8047 90.1115 35.5492Z" fill="#FFEB95"/>
<path d="M2 45L3.15999 49.0446C3.70529 51.7977 6.26637 54.3285 10.378 56.1755C14.4324 57.9969 19.6682 59 25.1207 59H78.8793C84.3318 59 89.5676 57.9969 93.622 56.1755C97.7332 54.3286 100.294 51.7977 100.84 49.0448L102 45H2Z" fill="#FFF5F5"/>
<path d="M53 45V59H79.06C84.4699 59 89.6648 57.9969 93.6875 56.1755C97.7666 54.3286 100.307 51.7977 100.849 49.0448L102 45H53Z" fill="#EBEBF0"/>
<path d="M0 44.2246H104V50.3223H0V44.2246Z" fill="#EBEBF0"/>
<path d="M52.6169 44.2246H104V50.3223H52.6169V44.2246Z" fill="#D2D2D7"/>
<path d="M57.8828 13.9421C57.8828 15.5667 56.566 16.8835 54.9414 16.8835C53.3168 16.8835 52 15.5667 52 13.9421C52 12.3168 53.3168 11 54.9414 11C56.566 11 57.8828 12.3168 57.8828 13.9421Z" fill="#4BA53E"/>
<path d="M41.8828 16.9421C41.8828 18.5667 40.566 19.8835 38.9414 19.8835C37.3168 19.8835 36 18.5667 36 16.9421C36 15.3168 37.3168 14 38.9414 14C40.566 14 41.8828 15.3168 41.8828 16.9421Z" fill="#3CBB29"/>
<path d="M65.8828 27.9421C65.8828 29.5667 64.566 30.8835 62.9414 30.8835C61.3168 30.8835 60 29.5667 60 27.9421C60 26.3168 61.3168 25 62.9414 25C64.566 25 65.8828 26.3168 65.8828 27.9421Z" fill="#58C748"/>
</g>
<defs>
<clipPath id="clip0">
<rect width="104" height="59" fill="white"/>
</clipPath>
</defs>
</svg>
