<svg width="104" height="59" viewBox="0 0 104 59" fill="none" xmlns="http://www.w3.org/2000/svg">
<g clip-path="url(#clip0)">
<path d="M96.1069 44.4212C96.1069 40.3074 93.5946 36.8047 90.1116 35.5494C90.5755 34.3947 90.8206 33.143 90.8206 31.8718C90.8206 26.7069 86.8595 22.5049 81.9905 22.5049H81.6144C81.2372 17.706 77.4349 13.9234 72.815 13.9234H51.5041C43.5309 13.9234 40.4781 6.0506 40.3572 5.72945L38.8249 1.52812L35.4739 4.48978C31.6507 7.86894 30.1644 11.5615 29.5909 14.0764C25.717 14.8287 22.7185 18.2715 22.3858 22.5051H22.0098C17.1407 22.5051 13.1796 26.7071 13.1796 31.872C13.1796 33.1434 13.4246 34.3949 13.8886 35.5496C10.4056 36.8051 7.89331 40.3078 7.89331 44.4216V47.6908H96.1071V44.4212H96.1069Z" fill="#FDF6C8"/>
<path d="M90.1115 35.5492C90.5753 34.3945 90.8204 33.1428 90.8204 31.8716C90.8204 26.7066 86.8593 22.5047 81.9903 22.5047H81.6143C81.237 17.7058 77.4347 13.9232 72.8149 13.9232H52.6169V47.6906H96.1067V44.4214C96.1067 40.3074 93.5945 36.8047 90.1115 35.5492V35.5492Z" fill="#FFEB95"/>
<path d="M2 45L3.15999 49.0446C3.70529 51.7977 6.26637 54.3285 10.378 56.1755C14.4324 57.9969 19.6682 59 25.1207 59H78.8793C84.3318 59 89.5676 57.9969 93.622 56.1755C97.7332 54.3286 100.294 51.7977 100.84 49.0448L102 45H2Z" fill="#FFF5F5"/>
<path d="M53 45V59H79.06C84.4699 59 89.6648 57.9969 93.6875 56.1755C97.7666 54.3286 100.307 51.7977 100.849 49.0448L102 45H53Z" fill="#EBEBF0"/>
<path d="M52.6169 44.2246H104V50.3223H52.6169V44.2246Z" fill="#D2D2D7"/>
<path d="M0 44.2246H104V50.3223H0V44.2246Z" fill="#EBEBF0"/>
<path d="M28.8829 15.9421C28.8829 17.5667 27.566 18.8835 25.9414 18.8835C24.3169 18.8835 23 17.5667 23 15.9421C23 14.3168 24.3169 13 25.9414 13C27.566 13 28.8829 14.3168 28.8829 15.9421Z" fill="#4BA53E"/>
<g clip-path="url(#clip1)">
<path fill-rule="evenodd" clip-rule="evenodd" d="M71.7282 37.9293L65.5613 35.0391C64.6843 34.6281 63.5374 34.9584 63.0134 35.7734C62.4893 36.5885 62.7788 37.5918 63.6559 38.0028L69.8227 40.8929C70.6997 41.304 71.8466 40.9737 72.3706 40.1587C72.8946 39.3437 72.6052 38.3403 71.7282 37.9293Z" fill="#713E21"/>
<path fill-rule="evenodd" clip-rule="evenodd" d="M70.3251 27.6299L85.5162 34.7493C86.3934 35.1604 86.6827 36.1637 86.1587 36.9787C85.6347 37.7937 84.488 38.1241 83.6107 37.713L68.4196 30.5936C67.5424 30.1825 67.2531 29.1792 67.7772 28.3641C68.3011 27.5491 69.4479 27.2188 70.3251 27.6299V27.6299ZM63.0134 35.7734C62.4893 36.5885 62.7788 37.5918 63.6559 38.0028L69.8227 40.893C70.6997 41.304 71.8466 40.9737 72.3706 40.1587C72.8946 39.3437 72.6052 38.3403 71.7282 37.9293L65.5613 35.0391C64.6843 34.6281 63.5374 34.9583 63.0134 35.7734ZM54.8072 39.0575C56.8144 46.0229 68.3633 48.8102 80.6023 45.2832C92.8413 41.7563 101.136 33.2506 99.1286 26.2853C97.1214 19.32 85.5726 16.5327 73.3336 20.0597C61.0945 23.5866 52.8 32.0923 54.8072 39.0575ZM82.2076 27.4136L88.3744 30.3038C89.2514 30.7148 90.3983 30.3845 90.9223 29.5695C91.4463 28.7545 91.1569 27.7511 90.2799 27.3401L84.113 24.4499C83.236 24.0388 82.0891 24.369 81.5651 25.1841C81.0411 25.9992 81.3307 27.0026 82.2076 27.4136Z" fill="url(#paint0_linear)"/>
<path fill-rule="evenodd" clip-rule="evenodd" d="M82.2076 27.4136L88.3744 30.3037C89.2514 30.7148 90.3983 30.3845 90.9223 29.5695C91.4463 28.7545 91.1569 27.7511 90.2799 27.3401L84.113 24.4498C83.236 24.0388 82.0891 24.369 81.5651 25.1841C81.0411 25.9992 81.3307 27.0026 82.2076 27.4136Z" fill="#713E21"/>
<path fill-rule="evenodd" clip-rule="evenodd" d="M85.5162 34.7493L70.3251 27.6299C69.4479 27.2188 68.3011 27.5491 67.7772 28.3641C67.2531 29.1793 67.5424 30.1825 68.4196 30.5936L83.6107 37.713C84.4879 38.1241 85.6346 37.7937 86.1586 36.9787C86.6826 36.1637 86.3935 35.1604 85.5162 34.7493Z" fill="#713E21"/>
<path fill-rule="evenodd" clip-rule="evenodd" d="M99.1288 26.2854C101.136 33.2507 92.8415 41.7563 80.6024 45.2832C68.3634 48.8102 56.8146 46.0228 54.8074 39.0575L56.6246 45.3637C58.6318 52.329 70.1807 55.1163 82.4197 51.5894C94.6587 48.0624 102.953 39.5567 100.946 32.5915L99.1288 26.2854Z" fill="#713E21"/>
<path d="M90.3687 18.4356C80.3981 15.8299 65.1013 20.238 58.0466 27.7501C54.3264 31.5647 52.8561 35.6726 53.9064 39.3171L55.7236 45.6232C56.7738 49.2677 60.2047 51.9633 65.3844 53.2134C75.3548 55.8193 90.652 51.411 97.7067 43.899C101.427 40.0843 102.897 35.9763 101.847 32.3318L100.03 26.0257C98.9792 22.3813 95.5484 19.6857 90.3687 18.4356ZM59.4096 28.7884C62.788 25.3241 67.8136 22.504 73.5607 20.8479C79.3078 19.1917 85.0634 18.9048 89.7673 20.0402C99.1226 22.1811 101.31 29.7628 94.526 36.5545C91.1478 40.0189 86.1221 42.8389 80.3751 44.495C74.6281 46.1511 68.8725 46.438 64.1686 45.3026C54.8132 43.1618 52.6261 35.58 59.4096 28.7884V28.7884ZM100.045 32.8511C101.978 41.0948 91.1697 48.2741 82.1925 50.8012C73.2521 53.4405 60.2696 53.109 57.5253 45.1041L57.2164 44.0321C58.8493 45.307 60.9921 46.2858 63.5671 46.9072C73.5376 49.5131 88.8347 45.1048 95.8894 37.5928C97.7388 35.6964 99.0321 33.7275 99.7362 31.7791L100.045 32.851L100.045 32.8511Z" fill="#794515"/>
<path d="M71.9493 33.212C72.3898 33.4183 72.9601 33.254 73.2233 32.8448C73.4864 32.4356 73.3426 31.9365 72.9021 31.73L68.896 29.8527C68.4563 29.6465 68.312 29.1464 68.5746 28.7379C68.8374 28.3294 69.409 28.1647 69.8488 28.3707L85.0399 35.4901C86.0731 36.0292 85.1693 37.4239 84.0871 36.972L80.0805 35.0942C79.64 34.8879 79.0697 35.0522 78.8064 35.4614C78.5434 35.8706 78.6872 36.3697 79.1277 36.5762L83.1343 38.4538C83.7716 38.7527 84.5209 38.8023 85.2443 38.5939C85.9676 38.3854 86.5756 37.9446 86.9563 37.3524C87.7442 36.1268 87.3119 34.6266 85.9926 34.0083L70.8015 26.8889C69.4822 26.2707 67.7677 26.7648 66.9794 27.9904C66.1915 29.2159 66.6238 30.7162 67.9432 31.3346L71.9493 33.212Z" fill="#794515"/>
<path d="M69.3462 41.6339C69.9834 41.9326 70.7328 41.9823 71.4561 41.774L71.4563 41.7739C72.1796 41.5655 72.7875 41.1246 73.1683 40.5326C73.9563 39.3069 73.524 37.8067 72.2045 37.1883L66.0376 34.2981C64.7184 33.6799 63.0037 34.1739 62.2157 35.3995C62.2156 35.3995 62.2156 35.3995 62.2156 35.3995C61.4276 36.6252 61.8599 38.1253 63.1793 38.7438L69.3462 41.6339ZM63.8108 36.1472C64.0735 35.7388 64.645 35.574 65.0849 35.7801L71.2518 38.6702C71.6916 38.8763 71.8357 39.3764 71.5731 39.785C71.447 39.9812 71.2441 40.1277 71.002 40.1974C70.7599 40.2671 70.5104 40.2511 70.2992 40.152L64.1322 37.2619C63.6923 37.0558 63.5482 36.5557 63.8108 36.1472V36.1472Z" fill="#794515"/>
<path d="M87.8982 31.0446C88.5353 31.3433 89.2847 31.393 90.008 31.1847C90.7314 30.9763 91.3394 30.5353 91.7201 29.9433C92.5081 28.7176 92.0758 27.2175 90.7564 26.599L84.5895 23.7089C83.27 23.0905 81.5556 23.5847 80.7675 24.8102L80.7676 24.8103C79.9796 26.0359 80.4119 27.5361 81.7313 28.1546L87.8982 31.0446ZM82.3628 25.5578C82.6256 25.1494 83.1973 24.9847 83.6368 25.1908L89.8037 28.081C90.0148 28.1799 90.1648 28.3511 90.2259 28.5629C90.2869 28.7747 90.2511 28.9994 90.1249 29.1956C89.9988 29.3918 89.7959 29.5383 89.554 29.608L89.5539 29.6081C89.3118 29.6777 89.0623 29.6617 88.8511 29.5627L82.6842 26.6727C82.2443 26.4666 82.1002 25.9664 82.3628 25.5578V25.5578Z" fill="#794515"/>
<path d="M62.1432 31.5014C63.3265 31.1153 62.8952 29.6221 61.689 29.925L61.6883 29.9251C60.5051 30.3115 60.937 31.8045 62.1432 31.5014Z" fill="#794515"/>
<path d="M78.0055 40.3334L78.0047 40.3336C77.5073 40.477 77.206 40.9461 77.3314 41.3813C77.6803 42.4131 79.3874 41.9211 79.1334 40.8621C79.008 40.4268 78.5029 40.1901 78.0055 40.3334V40.3334Z" fill="#794515"/>
<path d="M76.7316 25.2486C77.9148 24.8625 77.4836 23.3693 76.2773 23.6721L76.2766 23.6723C75.0934 24.0586 75.5254 25.5516 76.7316 25.2486Z" fill="#794515"/>
<path d="M90.9693 33.012L90.9686 33.0123C90.4712 33.1556 90.1698 33.6247 90.2953 34.06C90.6442 35.0917 92.3513 34.5998 92.0973 33.5407C91.9719 33.1054 91.4668 32.8687 90.9693 33.012V33.012Z" fill="#794515"/>
<path d="M75.613 34.9251C76.0731 35.0931 76.6295 34.8864 76.8527 34.4585C77.0748 34.0323 76.8799 33.5501 76.4174 33.3816L76.4167 33.3813C75.9544 33.2129 75.3995 33.4218 75.1774 33.848C74.9553 34.2742 75.1505 34.7564 75.613 34.9251V34.9251Z" fill="#794515"/>
</g>
<g clip-path="url(#clip2)">
<path fill-rule="evenodd" clip-rule="evenodd" d="M59.4141 40.6296L53.7589 40.3502C52.9547 40.3104 52.1765 40.926 52.0303 41.7182C51.8841 42.5104 52.4231 43.191 53.2273 43.2307L58.8824 43.5101C59.6867 43.5498 60.4649 42.9342 60.6111 42.1421C60.7572 41.3499 60.2183 40.6692 59.4141 40.6296Z" fill="#713E21"/>
<path fill-rule="evenodd" clip-rule="evenodd" d="M55.088 33.1487L69.0184 33.8368C69.8229 33.8766 70.3617 34.5572 70.2155 35.3494C70.0693 36.1415 69.2913 36.7572 68.4868 36.7174L54.5564 36.0293C53.7519 35.9895 53.2131 35.3089 53.3593 34.5167C53.5055 33.7245 54.2835 33.1089 55.088 33.1487V33.1487ZM52.0303 41.7182C51.8841 42.5105 52.4231 43.191 53.2273 43.2308L58.8824 43.5101C59.6866 43.5498 60.4648 42.9342 60.611 42.1421C60.7572 41.3499 60.2182 40.6693 59.414 40.6295L53.7589 40.3501C52.9547 40.3105 52.1764 40.926 52.0303 41.7182ZM46.7527 46.8315C50.4924 51.557 60.2554 50.0607 68.5589 43.4894C76.8623 36.9181 80.5619 27.7602 76.8222 23.0346C73.0824 18.3091 63.3194 19.8054 55.016 26.3767C46.7125 32.948 43.0129 42.1059 46.7527 46.8315ZM64.1608 29.2366L69.8159 29.516C70.6201 29.5557 71.3983 28.9401 71.5445 28.1479C71.6907 27.3558 71.1517 26.6751 70.3475 26.6354L64.6923 26.356C63.8881 26.3163 63.1099 26.9318 62.9637 27.724C62.8176 28.5162 63.3566 29.1968 64.1608 29.2366Z" fill="url(#paint1_linear)"/>
<path fill-rule="evenodd" clip-rule="evenodd" d="M64.1607 29.2366L69.8158 29.516C70.62 29.5557 71.3982 28.9401 71.5444 28.1479C71.6906 27.3558 71.1516 26.6751 70.3474 26.6354L64.6923 26.356C63.888 26.3162 63.1098 26.9318 62.9636 27.724C62.8175 28.5162 63.3565 29.1968 64.1607 29.2366Z" fill="#713E21"/>
<path fill-rule="evenodd" clip-rule="evenodd" d="M69.0184 33.8368L55.0879 33.1487C54.2835 33.109 53.5054 33.7245 53.3593 34.5167C53.2131 35.309 53.7519 35.9895 54.5563 36.0293L68.4868 36.7174C69.2912 36.7572 70.0692 36.1415 70.2154 35.3494C70.3616 34.5572 69.8229 33.8765 69.0184 33.8368Z" fill="#713E21"/>
<path fill-rule="evenodd" clip-rule="evenodd" d="M76.822 23.0347C80.5617 27.7602 76.8621 36.9181 68.5586 43.4894C60.2552 50.0607 50.4922 51.557 46.7524 46.8315L50.1383 51.1098C53.8781 55.8354 63.641 54.3391 71.9445 47.7678C80.248 41.1965 83.9476 32.0385 80.2078 27.313L76.822 23.0347Z" fill="#713E21"/>
<path d="M67.6088 19.7574C59.1172 20.8959 48.7392 29.109 45.6802 37.1117C44.0208 41.2189 44.1847 44.8426 46.1414 47.3151L49.5273 51.5935C51.484 54.066 54.9731 55.0582 59.3518 54.3871C67.8433 53.2488 78.2215 45.0354 81.2806 37.0328C82.9398 32.9255 82.776 29.3018 80.8192 26.8293L77.4334 22.5509C75.4765 20.0784 71.9875 19.0863 67.6088 19.7574ZM47.056 37.4808C48.5629 33.7508 51.5401 29.9972 55.4391 26.9115C59.3382 23.8258 63.6755 21.7907 67.6519 21.1813C75.5237 19.8792 79.5962 25.0223 76.5186 32.3854C75.0118 36.1154 72.0346 39.869 68.1356 42.9546C64.2366 46.0403 59.8993 48.0753 55.9228 48.6847C48.051 49.9869 43.9785 44.8438 47.056 37.4808V37.4808ZM79.5968 27.7967C83.6823 33.5292 77.631 42.4591 71.5216 47.233C65.4759 52.0817 55.3842 55.9191 50.7496 50.6261L50.1741 49.8989C51.8322 50.3649 53.7891 50.4424 55.9659 50.1087C64.4574 48.9704 74.8356 40.757 77.8947 32.7544C78.7196 30.7125 79.0938 28.7902 79.0213 27.0694L79.5969 27.7966L79.5968 27.7967Z" fill="#753D0A"/>
<path d="M58.097 36.9309C58.5009 36.9507 58.8878 36.6446 58.9614 36.2468C59.0348 35.8491 58.7668 35.5105 58.3628 35.4905L54.6892 35.3091C54.2859 35.2891 54.0174 34.9499 54.0906 34.5528C54.164 34.1558 54.5517 33.8489 54.955 33.8687L68.8855 34.5569C69.8503 34.6459 69.5946 36.0037 68.6197 35.9972L64.9455 35.8157C64.5416 35.7958 64.1547 36.102 64.0812 36.4997C64.0078 36.8974 64.2758 37.2361 64.6797 37.2561L68.3538 37.4375C68.9383 37.4665 69.5304 37.2685 70.0212 36.8801C70.5119 36.4918 70.8407 35.961 70.9468 35.3854C71.1666 34.1942 70.3611 33.1764 69.1513 33.1166L55.2209 32.4285C54.011 32.3688 52.8478 33.2894 52.6278 34.4806C52.408 35.6718 53.2135 36.6896 54.4234 36.7495L58.097 36.9309Z" fill="#753D0A"/>
<path d="M58.7495 44.2302C59.3338 44.2592 59.9259 44.0612 60.4167 43.6729L60.4169 43.6728C60.9076 43.2844 61.2363 42.7537 61.3425 42.1782C61.5624 40.9869 60.7569 39.9691 59.5469 39.9093L53.8918 39.63C52.682 39.5702 51.5187 40.4908 51.2988 41.682C51.2987 41.682 51.2987 41.682 51.2987 41.682C51.0789 42.8733 51.8844 43.8911 53.0943 43.9509L58.7495 44.2302ZM52.7616 41.7544C52.835 41.3574 53.2226 41.0504 53.626 41.0703L59.2812 41.3497C59.6844 41.3695 59.953 41.7088 59.8797 42.1059C59.8446 42.2966 59.7347 42.4733 59.5704 42.6032C59.4061 42.7332 59.2091 42.7995 59.0154 42.7899L53.3603 42.5105C52.9568 42.4907 52.6883 42.1515 52.7616 41.7544V41.7544Z" fill="#753D0A"/>
<path d="M69.6828 30.236C70.2671 30.265 70.8593 30.067 71.35 29.6787C71.8408 29.2904 72.1695 28.7595 72.2758 28.184C72.4956 26.9928 71.6902 25.975 70.4802 25.9152L64.825 25.6358C63.6151 25.576 62.452 26.4967 62.2321 27.6878L62.2321 27.6879C62.0123 28.8791 62.8178 29.8969 64.0277 29.9568L69.6828 30.236ZM63.695 27.7601C63.7684 27.363 64.1562 27.0562 64.5593 27.0761L70.2144 27.3555C70.4081 27.3651 70.5774 27.4495 70.6911 27.5931C70.8049 27.7369 70.8482 27.921 70.8129 28.1117C70.7778 28.3024 70.6679 28.4791 70.5037 28.609L70.5037 28.609C70.3394 28.7389 70.1424 28.8053 69.9487 28.7956L64.2936 28.5164C63.8902 28.4965 63.6217 28.1572 63.695 27.7601V27.7601Z" fill="#753D0A"/>
<path d="M50.0142 38.7061C50.8027 38.0361 50.0002 37.0233 49.1678 37.6366L49.1673 37.6369C48.3789 38.3071 49.1818 39.3195 50.0142 38.7061Z" fill="#753D0A"/>
<path d="M65.0008 40.5002L65.0003 40.5006C64.6628 40.7677 64.5789 41.2236 64.8126 41.5189C65.4063 42.2026 66.5644 41.286 66.0352 40.5513C65.8015 40.256 65.3383 40.2331 65.0008 40.5002V40.5002Z" fill="#753D0A"/>
<path d="M59.2657 29.2973C60.0542 28.6272 59.2517 27.6145 58.4192 28.2277L58.4187 28.2281C57.6303 28.8982 58.4333 29.9106 59.2657 29.2973Z" fill="#753D0A"/>
<path d="M72.6659 30.7814L72.6654 30.7818C72.3279 31.0489 72.244 31.5047 72.4777 31.8C73.0713 32.4837 74.2295 31.5672 73.7002 30.8325C73.4665 30.5372 73.0033 30.5143 72.6659 30.7814V30.7814Z" fill="#753D0A"/>
<path d="M61.4556 37.0938C61.8625 37.078 62.2254 36.7436 62.2622 36.3441C62.2987 35.9463 61.9968 35.6368 61.5878 35.6529L61.5872 35.6529C61.1785 35.6691 60.8175 36.0046 60.7809 36.4026C60.7445 36.8005 61.0466 37.1099 61.4556 37.0938V37.0938Z" fill="#753D0A"/>
</g>
<path d="M0 43.7754L1.15999 47.82C1.70529 50.5731 4.26637 53.1039 8.378 54.9509C12.4324 56.7723 17.6682 57.7754 23.1207 57.7754H76.8793C82.3318 57.7754 87.5676 56.7723 91.622 54.9509C95.7332 53.104 98.2941 50.5731 98.84 47.8202L100 43.7754H0Z" fill="#FFF5F5"/>
<path d="M47.8828 11.9421C47.8828 13.5667 46.566 14.8835 44.9414 14.8835C43.3168 14.8835 42 13.5667 42 11.9421C42 10.3168 43.3168 9 44.9414 9C46.566 9 47.8828 10.3168 47.8828 11.9421Z" fill="#3CBB29"/>
<path d="M-2 43H104V51H-2V43Z" fill="#EBEBF0"/>
<path d="M25.8828 34.9421C25.8828 36.5667 24.566 37.8835 22.9414 37.8835C21.3168 37.8835 20 36.5667 20 34.9421C20 33.3168 21.3168 32 22.9414 32C24.566 32 25.8828 33.3168 25.8828 34.9421Z" fill="#58C748"/>
</g>
<defs>
<linearGradient id="paint0_linear" x1="73.3336" y1="20.0597" x2="80.6023" y2="45.2832" gradientUnits="userSpaceOnUse">
<stop stop-color="#DEAD63"/>
<stop offset="1" stop-color="#5C2100"/>
</linearGradient>
<linearGradient id="paint1_linear" x1="55.016" y1="26.3767" x2="68.5589" y2="43.4894" gradientUnits="userSpaceOnUse">
<stop stop-color="#DEAD63"/>
<stop offset="1" stop-color="#5C2100"/>
</linearGradient>
<clipPath id="clip0">
<rect width="104" height="59" fill="white"/>
</clipPath>
<clipPath id="clip1">
<rect width="48" height="42" fill="white" transform="translate(49 22.2914) rotate(-16.0755)"/>
</clipPath>
<clipPath id="clip2">
<rect width="39.9054" height="34.9173" fill="white" transform="translate(37 35.7641) rotate(-38.3579)"/>
</clipPath>
</defs>
</svg>
