<svg width="104" height="58" viewBox="0 0 104 58" fill="none" xmlns="http://www.w3.org/2000/svg">
<g clip-path="url(#clip0)">
<path d="M96.1069 43.4212C96.1069 39.3074 93.5947 35.8047 90.1116 34.5494C90.5755 33.3947 90.8206 32.143 90.8206 30.8718C90.8206 25.7068 86.8595 21.5049 81.9905 21.5049H81.6144C81.2372 16.706 77.4349 12.9234 72.815 12.9234H51.5041C43.5309 12.9234 40.4781 5.05059 40.3572 4.72944L38.8249 0.528107L35.4739 3.48977C31.6507 6.86893 30.1644 10.5615 29.5909 13.0764C25.717 13.8287 22.7185 17.2715 22.3858 21.5051H22.0098C17.1407 21.5051 13.1796 25.707 13.1796 30.872C13.1796 32.1434 13.4246 33.3949 13.8886 34.5496C10.4056 35.8051 7.89331 39.3078 7.89331 43.4216V46.6908H96.1071V43.4212H96.1069Z" fill="#FDF6C8"/>
<path d="M90.1115 34.5492C90.5753 33.3945 90.8204 32.1428 90.8204 30.8716C90.8204 25.7066 86.8593 21.5047 81.9903 21.5047H81.6143C81.237 16.7058 77.4347 12.9232 72.8149 12.9232H52.6169V46.6905H96.1067V43.4214C96.1067 39.3074 93.5945 35.8047 90.1115 34.5492Z" fill="#FFEB95"/>
<path d="M2 44L3.15999 48.0446C3.70529 50.7977 6.26637 53.3285 10.378 55.1755C14.4324 56.9969 19.6682 58 25.1207 58H78.8793C84.3318 58 89.5676 56.9969 93.622 55.1755C97.7332 53.3286 100.294 50.7977 100.84 48.0448L102 44H2Z" fill="#FFF5F5"/>
<path d="M53 44V58H79.06C84.4699 58 89.6648 56.9969 93.6875 55.1755C97.7666 53.3286 100.307 50.7977 100.849 48.0448L102 44H53Z" fill="#EBEBF0"/>
<path d="M52.6169 43.2246H104V49.3223H52.6169V43.2246Z" fill="#D2D2D7"/>
<path d="M0 43.2246H104V49.3223H0V43.2246Z" fill="#EBEBF0"/>
<path d="M31.8829 17.9421C31.8829 19.5667 30.566 20.8835 28.9414 20.8835C27.3169 20.8835 26 19.5667 26 17.9421C26 16.3168 27.3169 15 28.9414 15C30.566 15 31.8829 16.3168 31.8829 17.9421Z" fill="#4BA53E"/>
<path fill-rule="evenodd" clip-rule="evenodd" d="M14.4612 35.2214L9.49917 31.9436C8.7935 31.4775 7.83408 31.6734 7.36776 32.3793C6.90138 33.0854 7.09777 34.0446 7.80344 34.5107L12.7654 37.7884C13.4711 38.2546 14.4305 38.0587 14.8968 37.3528C15.3632 36.6468 15.1668 35.6875 14.4612 35.2214Z" fill="#660E08"/>
<path fill-rule="evenodd" clip-rule="evenodd" d="M13.7388 25.5259L25.9619 33.6001C26.6678 34.0663 26.8639 35.0256 26.3976 35.7315C25.9313 36.4374 24.9721 36.6334 24.2662 36.1672L12.0431 28.093C11.3372 27.6268 11.141 26.6676 11.6074 25.9616C12.0737 25.2556 13.0329 25.0597 13.7388 25.5259ZM7.368 32.3793C6.90162 33.0854 7.09801 34.0446 7.80368 34.5107L12.7657 37.7885C13.4713 38.2546 14.4308 38.0587 14.8971 37.3528C15.3634 36.6468 15.1671 35.6875 14.4614 35.2214L9.49938 31.9436C8.79373 31.4775 7.8343 31.6733 7.368 32.3793ZM0.464615 34.6359C1.82579 41.2949 11.2289 44.9965 21.4671 42.9037C31.7053 40.8109 38.9015 33.7162 37.5404 27.0572C36.1792 20.3982 26.7761 16.6966 16.5379 18.7894C6.2997 20.8822 -0.896546 27.977 0.464615 34.6359ZM23.5435 26.4717L28.5055 29.7495C29.2112 30.2156 30.1706 30.0197 30.6369 29.3138C31.1032 28.6078 30.9069 27.6485 30.2012 27.1824L25.2392 23.9046C24.5336 23.4384 23.5741 23.6343 23.1078 24.3403C22.6415 25.0463 22.8379 26.0056 23.5435 26.4717Z" fill="url(#paint0_linear)"/>
<path fill-rule="evenodd" clip-rule="evenodd" d="M23.5434 26.4717L28.5054 29.7494C29.2111 30.2155 30.1705 30.0197 30.6368 29.3137C31.1031 28.6078 30.9068 27.6485 30.2011 27.1823L25.2391 23.9045C24.5334 23.4384 23.574 23.6342 23.1077 24.3402C22.6414 25.0462 22.8378 26.0055 23.5434 26.4717Z" fill="#660E08"/>
<path fill-rule="evenodd" clip-rule="evenodd" d="M25.9621 33.6001L13.739 25.5259C13.0331 25.0597 12.0739 25.2556 11.6076 25.9616C11.1412 26.6676 11.3374 27.6268 12.0433 28.093L24.2664 36.1672C24.9723 36.6334 25.9315 36.4374 26.3978 35.7315C26.8641 35.0256 26.6681 34.0663 25.9621 33.6001Z" fill="#660E08"/>
<path fill-rule="evenodd" clip-rule="evenodd" d="M37.5406 27.0572C38.9018 33.7162 31.7055 40.8109 21.4673 42.9037C11.2292 44.9965 1.826 41.2948 0.464844 34.6359L1.6972 40.6647C3.05837 47.3237 12.4615 51.0253 22.6997 48.9325C32.9379 46.8397 40.1341 39.745 38.773 33.086L37.5406 27.0572Z" fill="#660E08"/>
<path d="M14.8421 30.864C15.1966 31.0981 15.6736 31.0006 15.9078 30.6462C16.142 30.2918 16.0444 29.8146 15.69 29.5804L12.4665 27.4512C12.1127 27.2175 12.0149 26.7393 12.2486 26.3855C12.4825 26.0317 12.9606 25.9339 13.3145 26.1676L25.5376 34.2418C26.3667 34.8418 25.5629 36.0493 24.6898 35.5253L21.4659 33.3958C21.1115 33.1618 20.6344 33.2593 20.4002 33.6136C20.166 33.9681 20.2636 34.4452 20.618 34.6794L23.8418 36.8089C24.3547 37.1478 24.9703 37.2662 25.5754 37.1425C26.1804 37.0188 26.7002 36.6683 27.039 36.1553C27.7402 35.0937 27.4471 33.6595 26.3855 32.9582L14.1623 24.8841C13.1007 24.183 11.6665 24.4762 10.9651 25.5377C10.2639 26.5992 10.5571 28.0335 11.6186 28.7349L14.8421 30.864Z" fill="url(#paint1_linear)"/>
<path d="M12.3413 38.4303C12.8539 38.769 13.4696 38.8875 14.0747 38.7639L14.0749 38.7638C14.6799 38.6402 15.1997 38.2896 15.5385 37.7768C16.2397 36.7152 15.9466 35.281 14.8849 34.5796L9.92283 31.3018C8.86138 30.6007 7.42702 30.8938 6.72573 31.9554C6.72565 31.9554 6.72565 31.9554 6.72565 31.9554C6.02438 33.017 6.31754 34.4512 7.37919 35.1526L12.3413 38.4303ZM8.00921 32.8033C8.243 32.4496 8.72104 32.3517 9.07499 32.5855L14.0371 35.8632C14.3909 36.0969 14.4887 36.5751 14.2549 36.9289C14.1427 37.0989 13.9693 37.2153 13.7668 37.2567C13.5642 37.298 13.3592 37.2591 13.1893 37.1468L8.2272 33.869C7.87317 33.6353 7.77545 33.1572 8.00921 32.8033Z" fill="url(#paint2_linear)"/>
<path d="M28.0814 30.3911C28.5941 30.7299 29.2098 30.8483 29.8148 30.7247C30.42 30.6011 30.9398 30.2505 31.2786 29.7377C31.9798 28.676 31.6867 27.2418 30.625 26.5405L25.6629 23.2627C24.6013 22.5614 23.1671 22.8547 22.4658 23.9162L22.4658 23.9163C21.7646 24.9778 22.0578 26.4121 23.1194 27.1135L28.0814 30.3911ZM23.7495 24.7641C23.9833 24.4103 24.4615 24.3127 24.8152 24.5463L29.7772 27.8241C29.9471 27.9363 30.0635 28.1097 30.1049 28.3121C30.1463 28.5147 30.1073 28.7198 29.995 28.8897C29.8828 29.0597 29.7094 29.1761 29.507 29.2175L29.5069 29.2175C29.3044 29.2588 29.0994 29.2198 28.9295 29.1075L23.9674 25.8299C23.6134 25.5962 23.5157 25.118 23.7495 24.7641Z" fill="url(#paint3_linear)"/>
<path d="M6.83046 28.3301C7.82215 28.0858 7.52954 26.6582 6.52238 26.8229L6.52185 26.823C5.53012 27.0675 5.82325 28.495 6.83046 28.3301Z" fill="url(#paint4_linear)"/>
<path d="M19.5346 38.0586L19.534 38.0587C19.1179 38.1438 18.8497 38.5502 18.9348 38.9663C19.179 39.9576 20.607 39.6657 20.4422 38.6581C20.3572 38.242 19.9508 37.9735 19.5346 38.0586Z" fill="url(#paint5_linear)"/>
<path d="M19.1205 23.9338C20.1122 23.6895 19.8196 22.2619 18.8124 22.4266L18.8118 22.4268C17.8201 22.6712 18.1133 24.0987 19.1205 23.9338Z" fill="url(#paint6_linear)"/>
<path d="M30.5305 32.5137L30.5299 32.5139C30.1138 32.5989 29.8456 33.0053 29.9306 33.4214C30.1748 34.4127 31.6028 34.1208 31.4381 33.1133C31.353 32.6972 30.9466 32.4287 30.5305 32.5137Z" fill="url(#paint7_linear)"/>
<path d="M17.7903 32.8077C18.1625 33.008 18.6299 32.8698 18.8319 32.4942C19.033 32.1201 18.8927 31.6537 18.5184 31.4526L18.5179 31.4523C18.1439 31.2514 17.6777 31.3917 17.4766 31.7659C17.2755 32.1401 17.4161 32.6065 17.7903 32.8077Z" fill="url(#paint8_linear)"/>
<path fill-rule="evenodd" clip-rule="evenodd" d="M22.3465 41.1089L16.8475 38.8448C16.0654 38.5228 15.1615 38.8992 14.8394 39.6816C14.5172 40.464 14.8941 41.3677 15.6762 41.6897L21.1752 43.9537C21.9572 44.2757 22.8612 43.8992 23.1833 43.1169C23.5054 42.3346 23.1285 41.4308 22.3465 41.1089Z" fill="#660E08"/>
<path fill-rule="evenodd" clip-rule="evenodd" d="M19.776 31.7324L33.322 37.3095C34.1042 37.6316 34.4809 38.5353 34.1588 39.3176C33.8367 40.1 32.9329 40.4765 32.1507 40.1544L18.6047 34.5773C17.8224 34.2553 17.4457 33.3516 17.7679 32.5692C18.09 31.7868 18.9937 31.4104 19.776 31.7324ZM14.8396 39.6815C14.5174 40.464 14.8943 41.3676 15.6764 41.6896L21.1754 43.9536C21.9574 44.2756 22.8614 43.8992 23.1835 43.1168C23.5056 42.3345 23.1287 41.4307 22.3467 41.1087L16.8476 38.8446C16.0656 38.5227 15.1617 38.8991 14.8396 39.6815ZM8.49789 43.2215C11.1123 49.4953 21.0512 51.3226 30.6971 47.3031C40.343 43.2835 46.0431 34.939 43.4288 28.6653C40.8144 22.3915 30.8755 20.5642 21.2296 24.5838C11.5837 28.6034 5.88354 36.9478 8.49789 43.2215ZM29.5799 30.7781L35.0789 33.0422C35.8609 33.3641 36.7649 32.9877 37.087 32.2054C37.4091 31.423 37.0322 30.5192 36.2502 30.1973L30.7512 27.9332C29.9691 27.6112 29.0651 27.9876 28.7431 28.77C28.421 29.5524 28.7979 30.4561 29.5799 30.7781Z" fill="url(#paint9_linear)"/>
<path fill-rule="evenodd" clip-rule="evenodd" d="M29.5797 30.7781L35.0787 33.0422C35.8608 33.3641 36.7647 32.9877 37.0868 32.2054C37.4089 31.423 37.032 30.5192 36.25 30.1973L30.751 27.9332C29.9689 27.6112 29.0649 27.9876 28.7429 28.77C28.4208 29.5524 28.7977 30.4561 29.5797 30.7781Z" fill="#660E08"/>
<path fill-rule="evenodd" clip-rule="evenodd" d="M33.322 37.3096L19.776 31.7325C18.9938 31.4104 18.09 31.7869 17.7679 32.5693C17.4458 33.3517 17.8225 34.2553 18.6047 34.5774L32.1507 40.1545C32.9329 40.4765 33.8367 40.1 34.1588 39.3177C34.4809 38.5353 34.1043 37.6316 33.322 37.3096Z" fill="#660E08"/>
<path fill-rule="evenodd" clip-rule="evenodd" d="M43.4287 28.6654C46.0431 34.9391 40.3429 43.2835 30.697 47.3031C21.0511 51.3227 11.1122 49.4953 8.4978 43.2216L10.8648 48.9016C13.4791 55.1754 23.418 57.0027 33.0639 52.9831C42.7098 48.9635 48.41 40.6191 45.7956 34.3454L43.4287 28.6654Z" fill="#660E08"/>
<path d="M21.8839 36.7594C22.2767 36.921 22.7261 36.7337 22.888 36.3409C23.0497 35.9482 22.8624 35.4986 22.4696 35.3368L18.8973 33.8662C18.5052 33.7047 18.3174 33.2542 18.4788 32.8621C18.6404 32.47 19.0908 32.2822 19.483 32.4436L33.029 38.0207C33.9578 38.4504 33.4008 39.7897 32.4433 39.4432L28.8706 37.9722C28.4778 37.8106 28.0284 37.9979 27.8665 38.3907C27.7048 38.7834 27.8921 39.233 28.2849 39.3948L31.8576 40.8657C32.426 41.0998 33.0528 41.0978 33.6229 40.8602C34.193 40.6227 34.6358 40.1789 34.8698 39.6104C35.3542 38.4339 34.7911 37.0827 33.6146 36.5983L20.0687 31.0212C18.8922 30.537 17.541 31.1001 17.0564 32.2765C16.572 33.4529 17.1351 34.8042 18.3116 35.2887L21.8839 36.7594Z" fill="url(#paint10_linear)"/>
<path d="M20.8825 44.6649C21.4507 44.899 22.0776 44.897 22.6477 44.6596L22.6479 44.6595C23.218 44.4219 23.6607 43.9781 23.8948 43.4098C24.3792 42.2333 23.8161 40.882 22.6395 40.3976L17.1404 38.1335C15.9641 37.6492 14.6127 38.2122 14.1283 39.3887C14.1282 39.3887 14.1282 39.3887 14.1282 39.3887C13.6438 40.5653 14.2069 41.9165 15.3834 42.4009L20.8825 44.6649ZM15.5507 39.9744C15.7122 39.5824 16.1626 39.3946 16.5548 39.556L22.0539 41.8201C22.4461 41.9815 22.6338 42.432 22.4723 42.8241C22.3948 43.0125 22.247 43.16 22.0562 43.2395C21.8653 43.319 21.6567 43.3201 21.4683 43.2425L15.9692 40.9784C15.5769 40.817 15.3892 40.3666 15.5507 39.9744Z" fill="url(#paint11_linear)"/>
<path d="M34.786 33.7533C35.3542 33.9874 35.9812 33.9854 36.5512 33.7479C37.1214 33.5104 37.5642 33.0665 37.7982 32.4982C38.2826 31.3217 37.7195 29.9704 36.543 29.486L31.0439 27.2219C29.8674 26.7375 28.5162 27.3007 28.0317 28.4771L28.0318 28.4772C27.5474 29.6536 28.1105 31.0049 29.287 31.4894L34.786 33.7533ZM29.4543 29.0627C29.6159 28.6707 30.0664 28.483 30.4583 28.6444L35.9574 30.9085C36.1457 30.986 36.2932 31.1338 36.3727 31.3245C36.4522 31.5154 36.4533 31.7241 36.3757 31.9125C36.2982 32.1008 36.1504 32.2483 35.9597 32.3278L35.9596 32.3278C35.7688 32.4073 35.5602 32.4084 35.3718 32.3308L29.8728 30.0669C29.4805 29.9054 29.2928 29.455 29.4543 29.0627Z" fill="url(#paint12_linear)"/>
<path d="M13.5348 35.8108C14.4612 35.3807 13.8999 34.0358 12.9431 34.3908L12.9426 34.3911C12.0163 34.8213 12.578 36.166 13.5348 35.8108Z" fill="url(#paint13_linear)"/>
<path d="M27.8704 42.9192L27.8698 42.9194C27.4778 43.0828 27.2926 43.5331 27.456 43.9251C27.886 44.8511 29.2314 44.2905 28.8763 43.3333C28.7129 42.9412 28.2625 42.7558 27.8704 42.9192Z" fill="url(#paint14_linear)"/>
<path d="M24.7521 29.1366C25.6784 28.7065 25.1172 27.3616 24.1604 27.7167L24.1598 27.7169C23.2335 28.1472 23.7954 29.4918 24.7521 29.1366Z" fill="url(#paint15_linear)"/>
<path d="M37.5972 35.3663L37.5967 35.3665C37.2046 35.5299 37.0194 35.9802 37.1828 36.3722C37.6128 37.2982 38.9582 36.7376 38.6031 35.7804C38.4397 35.3884 37.9893 35.2029 37.5972 35.3663Z" fill="url(#paint16_linear)"/>
<path d="M25.1505 38.1008C25.5542 38.226 25.9864 38.0006 26.1125 37.5932C26.238 37.1874 26.0107 36.7566 25.6048 36.6311L25.6043 36.631C25.1986 36.5056 24.768 36.7328 24.6425 37.1386C24.5171 37.5445 24.7446 37.9752 25.1505 38.1008Z" fill="url(#paint17_linear)"/>
<path d="M0 42.7754L1.15999 46.82C1.70529 49.5731 4.26637 52.1039 8.378 53.9509C12.4324 55.7723 17.6682 56.7754 23.1207 56.7754H76.8793C82.3318 56.7754 87.5676 55.7723 91.622 53.9509C95.7332 52.104 98.2941 49.5731 98.84 46.8202L100 42.7754H0Z" fill="#FFF5F5"/>
<path d="M47.8828 10.9421C47.8828 12.5667 46.566 13.8835 44.9414 13.8835C43.3168 13.8835 42 12.5667 42 10.9421C42 9.31685 43.3168 8 44.9414 8C46.566 8 47.8828 9.31685 47.8828 10.9421Z" fill="#3CBB29"/>
<path d="M-2 42H104V50H-2V42Z" fill="#EBEBF0"/>
<path d="M71.8828 25.9421C71.8828 27.5667 70.566 28.8835 68.9414 28.8835C67.3168 28.8835 66 27.5667 66 25.9421C66 24.3168 67.3168 23 68.9414 23C70.566 23 71.8828 24.3168 71.8828 25.9421Z" fill="#58C748"/>
</g>
<defs>
<linearGradient id="paint0_linear" x1="16.5379" y1="18.7894" x2="21.4671" y2="42.9037" gradientUnits="userSpaceOnUse">
<stop stop-color="#AE3227"/>
<stop offset="1" stop-color="#5C1100"/>
</linearGradient>
<linearGradient id="paint1_linear" x1="17.5029" y1="23.5127" x2="20.501" y2="38.1797" gradientUnits="userSpaceOnUse">
<stop stop-color="#790E0E"/>
<stop offset="1" stop-color="#4F0F0F"/>
</linearGradient>
<linearGradient id="paint2_linear" x1="10.2491" y1="30.5465" x2="12.0149" y2="39.1849" gradientUnits="userSpaceOnUse">
<stop stop-color="#790E0E"/>
<stop offset="1" stop-color="#4F0F0F"/>
</linearGradient>
<linearGradient id="paint3_linear" x1="25.9893" y1="22.5074" x2="27.755" y2="31.1458" gradientUnits="userSpaceOnUse">
<stop stop-color="#790E0E"/>
<stop offset="1" stop-color="#4F0F0F"/>
</linearGradient>
<linearGradient id="paint4_linear" x1="6.52222" y1="26.823" x2="6.8303" y2="28.3301" gradientUnits="userSpaceOnUse">
<stop stop-color="#790E0E"/>
<stop offset="1" stop-color="#4F0F0F"/>
</linearGradient>
<linearGradient id="paint5_linear" x1="19.5345" y1="38.0586" x2="19.8417" y2="39.5618" gradientUnits="userSpaceOnUse">
<stop stop-color="#790E0E"/>
<stop offset="1" stop-color="#4F0F0F"/>
</linearGradient>
<linearGradient id="paint6_linear" x1="18.8123" y1="22.4267" x2="19.1203" y2="23.9338" gradientUnits="userSpaceOnUse">
<stop stop-color="#790E0E"/>
<stop offset="1" stop-color="#4F0F0F"/>
</linearGradient>
<linearGradient id="paint7_linear" x1="30.5303" y1="32.5138" x2="30.8376" y2="34.0169" gradientUnits="userSpaceOnUse">
<stop stop-color="#790E0E"/>
<stop offset="1" stop-color="#4F0F0F"/>
</linearGradient>
<linearGradient id="paint8_linear" x1="18.0002" y1="31.3763" x2="18.3084" y2="32.8837" gradientUnits="userSpaceOnUse">
<stop stop-color="#790E0E"/>
<stop offset="1" stop-color="#4F0F0F"/>
</linearGradient>
<linearGradient id="paint9_linear" x1="21.2296" y1="24.5838" x2="30.6971" y2="47.3031" gradientUnits="userSpaceOnUse">
<stop stop-color="#AE3227"/>
<stop offset="1" stop-color="#5C1100"/>
</linearGradient>
<linearGradient id="paint10_linear" x1="23.0838" y1="29.0339" x2="28.8422" y2="42.8524" gradientUnits="userSpaceOnUse">
<stop stop-color="#790E0E"/>
<stop offset="1" stop-color="#4F0F0F"/>
</linearGradient>
<linearGradient id="paint11_linear" x1="17.3156" y1="37.3296" x2="20.7071" y2="45.4682" gradientUnits="userSpaceOnUse">
<stop stop-color="#790E0E"/>
<stop offset="1" stop-color="#4F0F0F"/>
</linearGradient>
<linearGradient id="paint12_linear" x1="31.2191" y1="26.4179" x2="34.6106" y2="34.5566" gradientUnits="userSpaceOnUse">
<stop stop-color="#790E0E"/>
<stop offset="1" stop-color="#4F0F0F"/>
</linearGradient>
<linearGradient id="paint13_linear" x1="12.943" y1="34.3909" x2="13.5347" y2="35.8109" gradientUnits="userSpaceOnUse">
<stop stop-color="#790E0E"/>
<stop offset="1" stop-color="#4F0F0F"/>
</linearGradient>
<linearGradient id="paint14_linear" x1="27.8703" y1="42.9192" x2="28.4604" y2="44.3354" gradientUnits="userSpaceOnUse">
<stop stop-color="#790E0E"/>
<stop offset="1" stop-color="#4F0F0F"/>
</linearGradient>
<linearGradient id="paint15_linear" x1="24.1602" y1="27.7168" x2="24.752" y2="29.1367" gradientUnits="userSpaceOnUse">
<stop stop-color="#790E0E"/>
<stop offset="1" stop-color="#4F0F0F"/>
</linearGradient>
<linearGradient id="paint16_linear" x1="37.5971" y1="35.3663" x2="38.1872" y2="36.7825" gradientUnits="userSpaceOnUse">
<stop stop-color="#790E0E"/>
<stop offset="1" stop-color="#4F0F0F"/>
</linearGradient>
<linearGradient id="paint17_linear" x1="25.0816" y1="36.6558" x2="25.6734" y2="38.0759" gradientUnits="userSpaceOnUse">
<stop stop-color="#790E0E"/>
<stop offset="1" stop-color="#4F0F0F"/>
</linearGradient>
<clipPath id="clip0">
<rect width="104" height="58" fill="white"/>
</clipPath>
</defs>
</svg>
