<svg width="92" height="92" viewBox="0 0 92 92" fill="none" xmlns="http://www.w3.org/2000/svg">
<g clip-path="url(#clip0)">
<path d="M45.7258 91.2259C70.8548 91.2259 91.2258 70.8549 91.2258 45.7259C91.2258 20.5969 70.8548 0.225891 45.7258 0.225891C20.5969 0.225891 0.22583 20.5969 0.22583 45.7259C0.22583 70.8549 20.5969 91.2259 45.7258 91.2259Z" fill="#DFF6FD"/>
<path d="M45.7258 78.409C63.7761 78.409 78.4088 63.7763 78.4088 45.7259C78.4088 27.6756 63.7761 13.0429 45.7258 13.0429C27.6754 13.0429 13.0427 27.6756 13.0427 45.7259C13.0427 63.7763 27.6754 78.409 45.7258 78.409Z" fill="#99E6FC"/>
<path d="M63.398 3.78577C76.9353 11.669 86.0356 26.3363 86.0356 43.1308C86.0356 68.2598 65.6646 88.6308 40.5357 88.6308C34.2682 88.6308 28.2969 87.3632 22.8635 85.071C29.5815 88.9831 37.3914 91.2259 45.7259 91.2259C70.8548 91.2259 91.2258 70.8549 91.2258 45.7259C91.2258 26.8646 79.749 10.684 63.398 3.78577V3.78577Z" fill="#C8EFFE"/>
<path d="M79.7679 50.7231C77.8957 43.4575 70.7381 38.8647 63.3533 40.1904C57.088 41.3151 51.3002 39.4736 46.9455 35.7493C43.2448 32.5842 38.4642 30.6452 33.2325 30.562C21.2622 30.3716 11.3336 40.0477 11.2291 52.019C11.1493 61.1623 16.738 69.0093 24.6925 72.2615L26.2454 72.8669C32.1234 74.8075 53.5693 80.3347 74.1108 66.0426C79.0156 62.6299 81.2588 56.5091 79.7679 50.7231V50.7231Z" fill="#9E5528"/>
<path d="M79.7679 50.7231C78.4443 45.5864 74.4777 41.7891 69.6579 40.4712C72.08 42.3552 73.9135 45.0242 74.7334 48.2057C76.2243 53.9917 73.9811 60.1125 69.0765 63.525C48.1552 78.0816 26.2955 72.0788 20.9009 70.2457C23.1126 71.7178 24.7634 72.2891 26.245 72.8665C32.1227 74.807 53.569 80.3349 74.1108 66.0422C79.0156 62.6299 81.2588 56.5091 79.7679 50.7231V50.7231Z" fill="#904D24"/>
<path d="M43.6184 70.1518C36.9799 70.1515 30.4314 68.7749 26.7361 67.2634C20.5377 64.7291 16.5701 58.7638 16.6286 52.0659C16.7071 43.0768 24.1739 35.8077 33.1467 35.9609C36.9175 36.0208 40.5717 37.403 43.4361 39.8527C48.0221 43.7751 53.8111 45.9351 59.7368 45.935C63.1233 45.935 64.1411 45.3625 65.8988 45.3625C69.9684 45.3625 73.5215 48.1207 74.5392 52.0705C75.4666 55.6695 74.0553 59.5034 71.0272 61.6101C62.8816 67.2777 53.6595 70.1518 43.6204 70.1518C43.619 70.1518 43.6197 70.1518 43.6184 70.1518Z" fill="url(#paint0_linear)"/>
<path d="M15.4536 60.6028C15.1127 60.6028 14.7718 60.4727 14.5118 60.2127C13.9915 59.6923 13.9915 58.8491 14.5118 58.3287L38.4599 34.3806C38.9801 33.8606 39.8234 33.8606 40.3437 34.3806C40.8639 34.901 40.8639 35.7442 40.3437 36.2646L16.3956 60.2127C16.1354 60.4727 15.7945 60.6028 15.4536 60.6028V60.6028Z" fill="#9E5528"/>
<path d="M22.0546 68.3515C21.7137 68.3515 21.3729 68.2214 21.1128 67.9614C20.5926 67.441 20.5926 66.5978 21.1128 66.0774L47.2128 39.9773C47.733 39.4572 48.5763 39.4572 49.0966 39.9773C49.6168 40.4977 49.6168 41.3409 49.0966 41.8613L22.9965 67.9614C22.7364 68.2214 22.3955 68.3515 22.0546 68.3515V68.3515Z" fill="#9E5528"/>
<path d="M33.1346 71.4837C32.8287 71.4837 32.5228 71.367 32.2895 71.1337C31.8228 70.6668 31.8228 69.9102 32.2895 69.4433L55.1855 46.5473C55.6523 46.0807 56.409 46.0807 56.8757 46.5473C57.3425 47.0143 57.3425 47.7708 56.8757 48.2377L33.9796 71.1337C33.7463 71.367 33.4403 71.4837 33.1346 71.4837V71.4837Z" fill="#9E5528"/>
<path d="M66.9091 52.0171C67.3314 51.6072 67.3314 50.943 66.9091 50.5331C66.4869 50.1235 65.8024 50.1235 65.3801 50.5331L44.5422 70.756C44.1246 71.1613 44.1207 71.815 44.5291 72.2259C45.1251 72.1578 45.7287 72.0758 46.3382 71.9809L66.9091 52.0171Z" fill="#9E5528"/>
<path d="M66.1533 40.0951C71.4879 41.5246 76.9713 38.3587 78.4007 33.0241C79.8302 27.6894 76.6643 22.206 71.3297 20.7766C65.995 19.3472 60.5116 22.513 59.0822 27.8477C57.6528 33.1824 60.8186 38.6657 66.1533 40.0951Z" fill="#FF9800"/>
<path d="M43.937 34.1423C47.1378 35 50.4279 33.1005 51.2855 29.8997C52.1432 26.6989 50.2437 23.4088 47.0429 22.5512C43.8421 21.6935 40.5521 23.593 39.6944 26.7938C38.8367 29.9946 40.7362 33.2847 43.937 34.1423Z" fill="#FF9800"/>
<path d="M71.5543 20.8368C69.6942 20.3384 67.8132 20.4273 66.0969 20.9871C68.27 23.4063 69.2112 26.8851 68.292 30.3155C67.373 33.7455 64.8181 36.2875 61.7268 37.2965C62.9332 38.6394 64.5179 39.6569 66.378 40.1554C71.5886 41.5516 76.9712 38.3589 78.4007 33.0241C79.8301 27.6893 76.765 22.233 71.5543 20.8368Z" fill="#FB8C00"/>
<path d="M48.1437 22.8461C47.0276 22.5471 45.899 22.6004 44.8692 22.9363C46.1731 24.3878 46.7378 26.4751 46.1863 28.5333C45.6349 30.5914 44.1019 32.1166 42.2471 32.7219C42.971 33.5277 43.9218 34.1382 45.0379 34.4373C48.1643 35.275 51.3938 33.3594 52.2515 30.1585C53.1092 26.9576 51.2701 23.6839 48.1437 22.8461Z" fill="#FFAD46"/>
<path d="M60.2117 31.6683C62.5526 32.2955 64.9588 30.9064 65.586 28.5655C66.2133 26.2246 64.8241 23.8184 62.4832 23.1912C60.1423 22.564 57.7362 23.9531 57.1089 26.294C56.4817 28.6349 57.8709 31.0411 60.2117 31.6683Z" fill="#5A7A39"/>
<path d="M60.4967 30.2972C62.0971 30.726 63.7421 29.7763 64.171 28.1759C64.5998 26.5755 63.65 24.9305 62.0496 24.5016C60.4492 24.0728 58.8042 25.0226 58.3754 26.623C57.9466 28.2234 58.8963 29.8684 60.4967 30.2972Z" fill="#76A34F"/>
<path d="M62.5152 36.7182C64.8561 37.3454 67.2622 35.9562 67.8895 33.6153C68.5167 31.2744 67.1275 28.8683 64.7867 28.2411C62.4458 27.6138 60.0396 29.003 59.4124 31.3439C58.7851 33.6848 60.1743 36.0909 62.5152 36.7182Z" fill="#5A7A39"/>
<path d="M63.3246 35.1961C64.925 35.625 66.57 34.6752 66.9988 33.0748C67.4277 31.4744 66.4779 29.8294 64.8775 29.4006C63.2771 28.9718 61.6321 29.9215 61.2033 31.5219C60.7745 33.1223 61.7242 34.7673 63.3246 35.1961Z" fill="#76A34F"/>
<path d="M49.1361 32.9772C51.477 33.6045 53.8831 32.2153 54.5103 29.8744C55.1376 27.5335 53.7484 25.1274 51.4075 24.5001C49.0666 23.8729 46.6605 25.2621 46.0332 27.603C45.406 29.9438 46.7952 32.35 49.1361 32.9772Z" fill="#5A7A39"/>
<path d="M49.496 30.4554C50.9842 30.8542 52.5139 29.971 52.9127 28.4828C53.3115 26.9945 52.4283 25.4648 50.94 25.0661C49.4518 24.6673 47.9221 25.5505 47.5233 27.0387C47.1246 28.5269 48.0077 30.0567 49.496 30.4554Z" fill="#76A34F"/>
<path d="M48.5101 38.2357C50.851 38.8629 53.2571 37.4737 53.8844 35.1328C54.5116 32.7919 53.1224 30.3858 50.7815 29.7586C48.4406 29.1313 46.0345 30.5205 45.4073 32.8614C44.78 35.2023 46.1692 37.6084 48.5101 38.2357Z" fill="#5A7A39"/>
<path d="M49.4738 36.6612C51.0742 37.09 52.7192 36.1402 53.148 34.5398C53.5768 32.9394 52.6271 31.2944 51.0267 30.8656C49.4263 30.4368 47.7813 31.3865 47.3524 32.9869C46.9236 34.5873 47.8734 36.2323 49.4738 36.6612Z" fill="#76A34F"/>
<path d="M54.4127 29.7084C56.7536 30.3357 59.1597 28.9465 59.787 26.6056C60.4142 24.2647 59.025 21.8585 56.6841 21.2313C54.3432 20.6041 51.9371 21.9932 51.3098 24.3341C50.6826 26.675 52.0718 29.0812 54.4127 29.7084Z" fill="#5A7A39"/>
<path d="M54.9649 27.8031C56.5713 28.2335 58.2225 27.2802 58.653 25.6738C59.0834 24.0674 58.1301 22.4162 56.5237 21.9857C54.9172 21.5553 53.2661 22.5086 52.8356 24.115C52.4052 25.7214 53.3585 27.3726 54.9649 27.8031Z" fill="#76A34F"/>
<path d="M55.0677 34.3711C57.4086 34.9983 59.8148 33.6091 60.442 31.2682C61.0692 28.9273 59.68 26.5212 57.3391 25.894C54.9983 25.2667 52.5921 26.6559 51.9649 28.9968C51.3376 31.3377 52.7268 33.7438 55.0677 34.3711Z" fill="#5A7A39"/>
<path d="M55.6749 32.5631C57.313 33.0021 58.9968 32.0299 59.4357 30.3918C59.8746 28.7537 58.9025 27.07 57.2644 26.631C55.6263 26.1921 53.9425 27.1642 53.5036 28.8023C53.0647 30.4404 54.0368 32.1242 55.6749 32.5631Z" fill="#76A34F"/>
<path d="M56.0037 39.6968C58.3446 40.3241 60.7508 38.9349 61.378 36.594C62.0053 34.2531 60.6161 31.8469 58.2752 31.2197C55.9343 30.5925 53.5281 31.9817 52.9009 34.3225C52.2737 36.6634 53.6629 39.0696 56.0037 39.6968Z" fill="#5A7A39"/>
<path d="M57.4596 37.7657C59.06 38.1946 60.705 37.2448 61.1338 35.6444C61.5627 34.044 60.6129 32.399 59.0125 31.9702C57.4121 31.5413 55.7671 32.4911 55.3383 34.0915C54.9095 35.6919 55.8592 37.3369 57.4596 37.7657Z" fill="#76A34F"/>
<path d="M20.1456 17.9477L36.4863 27.3632C37.0121 27.6662 37.1927 28.3378 36.8897 28.8636L35.4271 31.4019C35.1242 31.9277 34.4525 32.1083 33.9268 31.8053L17.5861 22.3898C17.0603 22.0869 16.8798 21.4152 17.1827 20.8895L18.6453 18.3511C18.9481 17.8255 19.62 17.6449 20.1456 17.9477Z" fill="#FDB441"/>
<path d="M14.7304 20.7444L31.071 30.1599C31.5968 30.4628 31.7774 31.1345 31.4745 31.6602L30.0118 34.1986C29.7089 34.7244 29.0373 34.905 28.5115 34.602L12.1708 25.1865C11.6451 24.8836 11.4645 24.2119 11.7674 23.6862L13.23 21.1478C13.5329 20.6222 14.2046 20.4415 14.7304 20.7444Z" fill="#FECE85"/>
<path d="M16.8443 28.6589L35.7024 28.8685C36.3091 28.8752 36.7954 29.3725 36.7887 29.9792L36.7561 32.9086C36.7494 33.5154 36.2521 34.0017 35.6454 33.9949L16.7873 33.7854C16.1806 33.7786 15.6943 33.2814 15.701 32.6747L15.7336 29.7453C15.7403 29.1387 16.2377 28.6522 16.8443 28.6589Z" fill="#FDB441"/>
<path d="M16.7873 33.7854L19.8408 33.8193L19.8625 31.8674C19.8692 31.2606 20.3665 30.7743 20.9732 30.7811L36.7778 30.9567L36.7887 29.9792C36.7954 29.3725 36.3091 28.8752 35.7024 28.8685L16.8443 28.6589C16.2376 28.6522 15.7403 29.1385 15.7336 29.7453L15.701 32.6747C15.6943 33.2814 16.1808 33.7786 16.7873 33.7854Z" fill="#FEA613"/>
<path d="M36.5887 38.3849C39.7894 39.2426 43.0795 37.3431 43.9371 34.1423C44.7948 30.9415 42.8953 27.6515 39.6945 26.7938C36.4937 25.9362 33.2037 27.8357 32.346 31.0365C31.4884 34.2373 33.3879 37.5273 36.5887 38.3849Z" fill="#FF9800"/>
<path d="M40.7951 27.0888C39.679 26.7897 38.5503 26.8431 37.5206 27.1789C38.8244 28.6304 39.3892 30.7177 38.8377 32.776C38.2862 34.834 36.7533 36.3592 34.8985 36.9646C35.6224 37.7703 36.5732 38.3808 37.6892 38.6799C40.8156 39.5176 44.0452 37.602 44.9029 34.4011C45.7605 31.2003 43.9215 27.9265 40.7951 27.0888Z" fill="#FFAD46"/>
</g>
<defs>
<linearGradient id="paint0_linear" x1="45.7244" y1="35.9585" x2="45.7244" y2="70.1518" gradientUnits="userSpaceOnUse">
<stop stop-color="#C86D36"/>
<stop offset="1" stop-color="#C86D36" stop-opacity="0"/>
</linearGradient>
<clipPath id="clip0">
<rect width="91" height="91" fill="white" transform="translate(0.22583 0.225891)"/>
</clipPath>
</defs>
</svg>
