<svg width="78" height="60" viewBox="0 0 78 60" fill="none" xmlns="http://www.w3.org/2000/svg">
<g clip-path="url(#clip0)">
<path d="M35.787 1.75906C33.7959 3.10121 32.3471 5.18375 31.8901 7.89547C31.8474 8.1614 31.7501 8.41559 31.6043 8.64203C31.4585 8.86847 31.2673 9.06223 31.0429 9.2111C30.8184 9.35996 30.5656 9.4607 30.3003 9.50696C30.0349 9.55321 29.7629 9.54398 29.5013 9.47984C28.1692 9.13947 26.7719 9.14752 25.4438 9.50321C24.1157 9.8589 22.9015 10.5503 21.9178 11.5109C20.9341 12.4714 20.2141 13.6689 19.8269 14.9882C19.4398 16.3075 19.3985 17.7042 19.7071 19.044C19.768 19.3099 19.7724 19.5856 19.72 19.8533C19.6676 20.121 19.5596 20.3747 19.4029 20.598C19.2462 20.8214 19.0444 21.0093 18.8105 21.1496C18.5766 21.29 18.3158 21.3797 18.0451 21.4129C14.9418 21.7953 10.2375 23.4421 10.8346 29.9335C10.888 30.5079 10.9489 31.0715 11.0464 31.6154C11.1351 32.0913 11.0429 32.5831 10.7878 32.9945C10.5328 33.406 10.1333 33.7073 9.6677 33.8396C8.20184 34.2433 6.83815 34.9529 5.66648 35.9219C4.49481 36.8908 3.54176 38.0971 2.87012 39.4611C2.88687 39.2128 4.8125 10.074 28.7716 3.12863C31.0628 2.45657 33.4113 1.99809 35.787 1.75906Z" fill="#F9AA13"/>
<path d="M9.66838 33.8394C10.1338 33.707 10.533 33.4058 10.7879 32.9945C11.0429 32.5833 11.1352 32.0918 11.0467 31.6161C10.9493 31.0709 10.8877 30.5081 10.8348 29.9342C10.237 23.4428 14.9421 21.795 18.0444 21.4133C18.3151 21.3801 18.5758 21.2904 18.8097 21.1501C19.0436 21.0097 19.2454 20.8218 19.4021 20.5985C19.5587 20.3753 19.6668 20.1216 19.7192 19.8539C19.7716 19.5862 19.7673 19.3105 19.7065 19.0447C19.4452 17.9098 19.4344 16.7316 19.6747 15.5921C19.9151 14.4526 20.4008 13.3792 21.0981 12.4465C21.7955 11.5138 22.6876 10.7443 23.7126 10.1914C24.7375 9.6385 25.8706 9.31559 27.033 9.2451C27.1951 9.23556 27.356 9.23082 27.516 9.23087C28.1855 9.23041 28.8524 9.31391 29.5011 9.47942C29.6557 9.51907 29.8146 9.53918 29.9741 9.53926C30.4357 9.53476 30.8809 9.36747 31.2313 9.06689C31.5817 8.7663 31.8147 8.35171 31.8893 7.89614C32.346 5.1829 33.7972 3.10245 35.7881 1.75928C34.8098 1.85577 33.8087 1.99375 32.7839 2.18043C31.4395 3.71681 30.5566 5.60174 30.2369 7.61804C30.2279 7.6829 30.1969 7.7427 30.1491 7.7874C30.1013 7.8321 30.0395 7.85896 29.9742 7.86348C29.9546 7.8634 29.9351 7.86084 29.9161 7.85586C29.1318 7.65587 28.3255 7.55485 27.516 7.55514C27.3238 7.55514 27.1282 7.56089 26.9348 7.57226C25.5291 7.65705 24.1588 8.04716 22.9192 8.71543C21.6796 9.3837 20.6005 10.3141 19.7571 11.4418C18.9136 12.5695 18.3261 13.8675 18.0353 15.2454C17.7445 16.6234 17.7575 18.0481 18.0734 19.4205C18.0822 19.4571 18.0829 19.4953 18.0756 19.5323C18.0683 19.5693 18.0531 19.6043 18.031 19.6349C18.0093 19.6667 17.981 19.6935 17.948 19.7133C17.915 19.7332 17.8781 19.7457 17.8398 19.75C15.4604 20.0428 13.4286 20.8581 11.9642 22.1079C10.4699 23.3832 8.7715 25.8028 9.1661 30.0878C9.21593 30.629 9.28234 31.2688 9.39707 31.9109C9.41121 31.9747 9.40172 32.0415 9.37034 32.0989C9.33896 32.1563 9.28784 32.2004 9.22645 32.2229C6.96333 32.848 4.92276 34.0995 3.33976 35.8334C2.95675 38.0752 2.86963 39.4621 2.86963 39.4621H2.8719C3.54293 38.0977 4.49564 36.8911 5.66717 35.9219C6.83871 34.9527 8.20243 34.2429 9.66838 33.8394Z" fill="#FF8B00"/>
<path d="M20.0987 16.6052C21.4446 16.6052 22.5357 15.5141 22.5357 14.1682C22.5357 12.8222 21.4446 11.7311 20.0987 11.7311C18.7527 11.7311 17.6616 12.8222 17.6616 14.1682C17.6616 15.5141 18.7527 16.6052 20.0987 16.6052Z" fill="#FFFCF2"/>
<path d="M17.8974 28.1787C21.4623 28.1787 24.3522 25.2887 24.3522 21.7238C24.3522 18.159 21.4623 15.269 17.8974 15.269C14.3325 15.269 11.4426 18.159 11.4426 21.7238C11.4426 25.2887 14.3325 28.1787 17.8974 28.1787Z" fill="#FF4A45"/>
<path d="M74.0648 17.4825C73.7845 11.4116 69.1411 10.2751 66.5954 10.1136C66.1642 10.0871 65.7543 9.91721 65.4308 9.63096C65.1073 9.34471 64.8887 8.95852 64.8099 8.53379C64.033 4.19504 60.5854 1.39039 56.3046 1.39039C54.4945 1.3875 52.7293 1.95404 51.259 3.0098C50.8876 3.27134 50.4366 3.39498 49.9837 3.35938C49.5309 3.32377 49.1047 3.13116 48.7788 2.8148C46.9079 1.00613 44.4067 -0.00355227 41.8045 -0.000511953C37.0072 -0.000511953 32.737 2.8605 31.89 7.89547C31.8473 8.16139 31.75 8.41559 31.6042 8.64203C31.4584 8.86846 31.2672 9.06223 31.0428 9.21109C30.8183 9.35996 30.5655 9.4607 30.3002 9.50695C30.0348 9.55321 29.7628 9.54397 29.5012 9.47984C28.1691 9.13947 26.7718 9.14752 25.4437 9.50321C24.1156 9.8589 22.9014 10.5503 21.9177 11.5109C20.934 12.4714 20.214 13.6689 19.8268 14.9882C19.4397 16.3075 19.3984 17.7042 19.707 19.044C19.7679 19.3099 19.7723 19.5856 19.7199 19.8533C19.6675 20.121 19.5595 20.3747 19.4028 20.598C19.2461 20.8214 19.0443 21.0093 18.8104 21.1496C18.5765 21.29 18.3157 21.3797 18.045 21.4129C14.9417 21.7953 10.2374 23.4421 10.8345 29.9335C10.8879 30.5079 10.9488 31.0715 11.0463 31.6154C11.135 32.0913 11.0428 32.5831 10.7877 32.9945C10.5327 33.406 10.1332 33.7073 9.66759 33.8396C7.32963 34.4809 5.27765 35.8948 3.84582 37.8512C2.41399 39.8075 1.68666 42.1909 1.78228 44.6134C1.83719 46.0229 2.17245 47.4073 2.76848 48.6858L2.76795 48.6855L2.77118 48.6918C2.90108 48.9703 3.04263 49.2419 3.19582 49.5068C3.35602 49.8087 3.51469 50.0992 3.57841 50.1892C3.63663 50.2428 3.69109 50.3003 3.74142 50.3613C4.10095 50.7117 5.07138 51.5085 6.79439 51.9259C10.9991 52.9466 15.3104 50.6157 16.8674 46.5786C21.0644 35.6967 24.515 10.9591 44.0531 7.64413C58.0565 5.26756 67.9086 14.0136 72.1864 23.1603C73.4938 21.5655 74.1631 19.5424 74.0648 17.4825Z" fill="#6DCC82"/>
<path d="M62.5247 3.94519C61.4359 4.03648 60.3768 4.34642 59.4106 4.85647C58.4444 5.36652 57.591 6.06621 56.9015 6.91367C54.2375 6.02172 51.4463 5.56866 48.637 5.57222C47.0067 5.57595 45.3796 5.71609 43.7727 5.99117C39.8566 6.63841 36.161 8.24288 33.0142 10.662C32.5068 10.9789 29.8561 12.676 26.6066 15.6696C23.3373 18.6799 18.8127 23.6387 15.8237 30.1575C14.4434 33.1708 13.4227 35.7926 12.5224 38.1052C11.2259 41.437 10.2022 44.068 8.86157 45.7742C7.63064 47.3403 6.07673 48.1614 3.70931 48.4844C3.66513 48.4814 3.62095 48.4798 3.57677 48.4798C3.317 48.4803 3.06073 48.5397 2.82724 48.6535C2.80681 48.663 2.78697 48.6737 2.76782 48.6855C2.89936 48.9683 3.04395 49.2437 3.19871 49.5125C3.35788 49.8123 3.51496 50.0997 3.57829 50.1891L3.6179 50.1846C11.9481 49.2111 11.7957 42.968 17.3471 30.8567C22.9077 18.7256 33.9648 12.0453 33.9648 12.0453C35.3807 10.9452 36.9239 10.0194 38.561 9.28789C40.315 8.51064 42.1603 7.95833 44.053 7.6441C45.5671 7.38305 47.1006 7.25055 48.637 7.248C51.1191 7.24187 53.5875 7.61681 55.9558 8.35973L55.9556 8.36011C56.4979 8.52921 57.0296 8.7171 57.5506 8.92378C58.1082 7.91357 58.9266 7.07142 59.9204 6.48514C60.9143 5.89886 62.0472 5.58991 63.2011 5.5905C63.393 5.5905 63.5835 5.60117 63.7708 5.61792C63.4278 5.00991 63.0091 4.44785 62.5247 3.94519Z" fill="#49B464"/>
<path d="M69.656 19.3576C71.002 19.3576 72.0931 18.2665 72.0931 16.9206C72.0931 15.5747 71.002 14.4836 69.656 14.4836C68.3101 14.4836 67.219 15.5747 67.219 16.9206C67.219 18.2665 68.3101 19.3576 69.656 19.3576Z" fill="#FFFCF2"/>
<path d="M33.9481 12.056C24.9949 18.9998 21.4696 32.0419 18.6391 41.2664C18.0327 43.2468 17.4569 45.049 16.8673 46.5786C15.3332 50.5563 11.127 52.8765 6.98173 51.9685C6.91927 51.9548 6.85681 51.9411 6.79435 51.9258C4.61583 51.3972 3.64083 50.2622 3.58142 50.1922H3.57989L3.57837 50.1891C11.9481 49.2309 11.7867 42.9878 17.3472 30.8567C22.7783 19.0074 33.4515 12.3607 33.9481 12.056Z" fill="#97260D"/>
<path d="M42.8296 9.05451C44.1756 9.05451 45.2667 7.96341 45.2667 6.61746C45.2667 5.27152 44.1756 4.18042 42.8296 4.18042C41.4837 4.18042 40.3926 5.27152 40.3926 6.61746C40.3926 7.96341 41.4837 9.05451 42.8296 9.05451Z" fill="#FFFCF2"/>
<path d="M63.2011 18.5003C66.766 18.5003 69.656 15.6103 69.656 12.0454C69.656 8.48055 66.766 5.59064 63.2011 5.59064C59.6363 5.59064 56.7463 8.48055 56.7463 12.0454C56.7463 15.6103 59.6363 18.5003 63.2011 18.5003Z" fill="#FF4A45"/>
<path d="M8.72806 44.3361C10.074 44.3361 11.1651 43.245 11.1651 41.8991C11.1651 40.5531 10.074 39.462 8.72806 39.462C7.38212 39.462 6.29102 40.5531 6.29102 41.8991C6.29102 43.245 7.38212 44.3361 8.72806 44.3361Z" fill="#FFFCF2"/>
<path d="M74.5477 33.7711C74.9362 27.4838 71.2312 18.5687 64.2051 12.8466C64.3513 12.9122 73.6732 17.1443 75.7801 25.2688C76.5906 28.3964 75.6857 31.457 74.5477 33.7711Z" fill="#97260D"/>
<path d="M15.1828 50.4211C18.7477 50.4211 21.6376 47.5312 21.6376 43.9663C21.6376 40.4015 18.7477 37.5115 15.1828 37.5115C11.6179 37.5115 8.72803 40.4015 8.72803 43.9663C8.72803 47.5312 11.6179 50.4211 15.1828 50.4211Z" fill="#FF4A45"/>
<path d="M69.6558 12.0453C69.6557 13.3218 69.2771 14.5696 68.5678 15.6309C67.8586 16.6922 66.8506 17.5193 65.6712 18.0078C64.4919 18.4962 63.1942 18.624 61.9423 18.3749C60.6903 18.1259 59.5403 17.5112 58.6377 16.6086C57.7351 15.706 57.1204 14.556 56.8714 13.304C56.6223 12.0521 56.7501 10.7544 57.2385 9.57506C57.7269 8.39572 58.5541 7.3877 59.6154 6.67846C60.6767 5.96922 61.9245 5.5906 63.201 5.59049C64.0501 5.58514 64.8919 5.74845 65.6774 6.07094C66.463 6.39343 67.1767 6.86868 67.7771 7.46914C68.3776 8.06959 68.8528 8.78329 69.1753 9.56883C69.4978 10.3544 69.6611 11.1961 69.6558 12.0453Z" fill="#FF4A45"/>
<path d="M40.4023 6.80752C40.4463 7.38581 40.6957 7.92929 41.1055 8.33964C42.0721 8.04479 43.0568 7.81246 44.0533 7.6441C44.4065 7.58415 44.7566 7.53239 45.1044 7.48647C45.3149 6.94339 45.321 6.34235 45.1215 5.79514C44.6723 5.85068 44.2228 5.91629 43.7728 5.99196C42.6318 6.18555 41.5056 6.45806 40.4023 6.80752Z" fill="#FFF4D3"/>
<path d="M65.0354 11.3643C63.0736 9.79284 60.9001 8.50559 58.5791 7.54047C58.1757 7.9532 57.8298 8.4185 57.5508 8.92375V8.92527C61.7204 10.5691 65.1954 13.2914 67.8949 16.4754C68.2911 16.0569 68.6293 15.587 68.9004 15.0784C67.7266 13.7265 66.433 12.4833 65.0354 11.3643Z" fill="#C9452C"/>
<path d="M3.57812 50.1898C3.57812 50.1898 5.02844 55.6911 14.6209 58.1755C18.8351 59.2506 23.234 59.3875 27.5069 58.5764C41.8594 55.9051 64.6595 47.0036 72.3282 39.4463C79.8442 32.1383 68.0389 3.57393 44.0535 7.64357C24.515 10.9587 21.0646 35.6962 16.8673 46.5781C15.3101 50.6152 10.9986 52.9459 6.79364 51.9256C4.54526 51.38 3.57812 50.1898 3.57812 50.1898Z" fill="#FD9B29"/>
<path d="M63.052 30.945C63.0634 22.3763 59.8326 14.1206 54.0083 7.83576C50.9805 7.15795 47.6545 7.0326 44.0534 7.64359C24.5149 10.9587 21.0645 35.6962 16.8672 46.5781C15.3101 50.6152 10.9985 52.9459 6.79357 51.9256C4.54526 51.3801 3.57812 50.1898 3.57812 50.1898C3.57812 50.1898 5.02844 55.6911 14.6209 58.1755C18.8351 59.2506 23.234 59.3875 27.5069 58.5764C36.4139 56.9186 48.5735 52.8611 58.3517 48.2148C61.4376 42.9833 63.0609 37.0188 63.052 30.945Z" fill="#FFB800"/>
<path d="M18.6396 41.2662C25.5658 43.2191 34.8827 40.1894 42.1049 32.9673C50.1381 24.9341 52.9833 14.3099 49.555 7.26606C47.7131 7.20392 45.8696 7.33042 44.0535 7.64357C27.2612 10.4927 22.3524 29.1653 18.6396 41.2662Z" fill="#FFC91F"/>
<path d="M34.8116 30.7962C35.3618 30.7962 35.8078 30.0493 35.8078 29.1279C35.8078 28.2065 35.3618 27.4596 34.8116 27.4596C34.2614 27.4596 33.8154 28.2065 33.8154 29.1279C33.8154 30.0493 34.2614 30.7962 34.8116 30.7962Z" fill="#F9AA13"/>
<path d="M52.8802 21.0261C53.4304 21.0261 53.8764 20.2792 53.8764 19.3578C53.8764 18.4364 53.4304 17.6895 52.8802 17.6895C52.33 17.6895 51.884 18.4364 51.884 19.3578C51.884 20.2792 52.33 21.0261 52.8802 21.0261Z" fill="#F9AA13"/>
<path d="M45.2669 17.9029C45.8171 17.9029 46.2631 17.156 46.2631 16.2346C46.2631 15.3132 45.8171 14.5663 45.2669 14.5663C44.7168 14.5663 44.2708 15.3132 44.2708 16.2346C44.2708 17.156 44.7168 17.9029 45.2669 17.9029Z" fill="#F9AA13"/>
<path d="M61.9104 23.7292C62.541 23.7292 63.0522 22.9822 63.0522 22.0608C63.0522 21.1394 62.541 20.3925 61.9104 20.3925C61.2798 20.3925 60.7686 21.1394 60.7686 22.0608C60.7686 22.9822 61.2798 23.7292 61.9104 23.7292Z" fill="#FF9200"/>
<path d="M42.8298 25.7914C43.4604 25.7914 43.9716 25.0445 43.9716 24.1231C43.9716 23.2017 43.4604 22.4548 42.8298 22.4548C42.1992 22.4548 41.688 23.2017 41.688 24.1231C41.688 25.0445 42.1992 25.7914 42.8298 25.7914Z" fill="#FF9200"/>
<path d="M51.884 30.7962C52.5146 30.7962 53.0258 30.0493 53.0258 29.1279C53.0258 28.2065 52.5146 27.4596 51.884 27.4596C51.2534 27.4596 50.7422 28.2065 50.7422 29.1279C50.7422 30.0493 51.2534 30.7962 51.884 30.7962Z" fill="#FF9200"/>
<path d="M70.6508 20.2962C67.2231 15.5446 62.1912 11.4953 55.7927 9.92923C55.226 9.20712 54.6314 8.50939 54.0088 7.83603C61.5148 9.51638 67.185 14.5955 70.6508 20.2962Z" fill="#FF8E00"/>
<path d="M55.7929 9.92926C54.002 9.49128 52.1672 9.25822 50.3237 9.23458C50.1199 8.55932 49.8632 7.90119 49.5559 7.2663C51.0291 7.31809 52.4945 7.50318 53.9343 7.8193C53.9602 7.8254 53.9845 7.82997 54.0089 7.83606C54.6305 8.50942 55.2251 9.20715 55.7929 9.92926Z" fill="#FFC91F"/>
<path d="M20.4415 41.6518C19.6493 44.2584 18.9272 46.6289 18.1822 48.5606C16.6253 52.5977 12.3139 54.9285 8.10926 53.9078C5.93074 53.3792 4.95574 52.2442 4.89633 52.1742H4.8948L4.89328 52.1711C4.47535 51.8035 4.12343 51.3671 3.85277 50.8808C3.81316 50.797 3.77813 50.7208 3.74918 50.6523C3.74613 50.6492 3.74613 50.6462 3.74461 50.6431C3.74004 50.6309 3.73547 50.6203 3.7309 50.6081C3.67199 50.4727 3.62162 50.3338 3.58008 50.1922C3.6273 50.247 4.60078 51.3942 6.79453 51.9258C10.9992 52.9465 15.3105 50.6157 16.8675 46.5786C17.4571 45.049 18.0329 43.2453 18.6393 41.2664C19.2316 41.4313 19.8335 41.5601 20.4415 41.6518Z" fill="#FFA30D"/>
<path d="M3.73071 50.6081C3.73511 50.6198 3.7395 50.6301 3.7439 50.6418L3.73071 50.611V50.6081Z" fill="#FFA30D"/>
<path d="M44.0534 7.64408C27.2618 10.4931 22.3527 29.1652 18.6401 41.2662C19.2322 41.4313 19.8338 41.5599 20.4416 41.6513C24.112 29.5695 29.2988 12.3526 45.3697 9.62608C47.0056 9.34483 48.6638 9.21383 50.3236 9.23472C50.1199 8.55934 49.8631 7.90116 49.5555 7.26635C47.7134 7.20424 45.8698 7.33081 44.0534 7.64408Z" fill="#FFE8A0"/>
<path d="M24.0202 40.0452L24.1706 39.4625C24.2762 39.071 24.3912 38.6804 24.5176 38.2949C24.7682 37.5268 25.0585 36.7723 25.3872 36.0343C25.5461 35.6651 25.7253 35.3062 25.899 34.946C26.0851 34.5918 26.2629 34.2346 26.4631 33.89C26.8468 33.1918 27.2762 32.5235 27.7113 31.8641C27.8146 31.7078 27.9736 31.5969 28.1558 31.5538C28.3381 31.5106 28.53 31.5387 28.6923 31.6321C28.8546 31.7255 28.9752 31.8774 29.0295 32.0566C29.0837 32.2359 29.0676 32.4291 28.9843 32.5969L28.9751 32.6153C28.6406 33.288 28.3145 33.962 28.0376 34.6542C27.8904 34.9964 27.7667 35.3475 27.6348 35.6939C27.5157 36.0452 27.3912 36.3935 27.2877 36.7479C27.0722 37.4496 26.8932 38.162 26.7515 38.8823C26.6807 39.2404 26.621 39.5994 26.5692 39.9611C26.5692 39.9611 26.4306 41.014 26.4126 41.1292C26.3591 41.4688 26.1729 41.7733 25.8951 41.9758C25.6172 42.1783 25.2704 42.2623 24.9307 42.2093C24.5909 42.1563 24.2862 41.9707 24.0832 41.6931C23.8803 41.4156 23.7957 41.0689 23.8482 40.7291C23.8559 40.6796 24.0202 40.0452 24.0202 40.0452Z" fill="white"/>
<path d="M24.3048 46.6843C25.0646 46.6843 25.6806 46.0683 25.6806 45.3085C25.6806 44.5487 25.0646 43.9327 24.3048 43.9327C23.5449 43.9327 22.929 44.5487 22.929 45.3085C22.929 46.0683 23.5449 46.6843 24.3048 46.6843Z" fill="white"/>
</g>
<defs>
<clipPath id="clip0">
<rect width="78" height="60" fill="white"/>
</clipPath>
</defs>
</svg>
