<svg width="67" height="95" viewBox="0 0 67 95" fill="none" xmlns="http://www.w3.org/2000/svg">
<g clip-path="url(#clip0)">
<path d="M26.7966 7.63562H10.7557V2.79637C10.7557 1.19284 12.0949 -0.107178 13.7467 -0.107178H23.8055C25.4574 -0.107178 26.7966 1.19284 26.7966 2.79637V7.63562Z" fill="#D48000"/>
<path d="M1.67715 55.5767H35.8751V87.0641H1.67715V55.5767Z" fill="#D58000"/>
<path d="M18.5457 60.937H11.756L8.36124 66.5516L11.756 72.166H18.5457L21.9404 66.5516L18.5457 60.937Z" fill="#FFE600"/>
<path d="M18.5457 72.1658H11.756L8.36124 77.7804L11.756 83.3947H18.5457L21.9404 77.7804L18.5457 72.1658Z" fill="#FFC700"/>
<path d="M28.6041 66.7954H21.8145L18.4198 72.4098L21.8145 78.0244H28.6041L31.999 72.4098L28.6041 66.7954Z" fill="#FFD600"/>
<path d="M26.079 29.2511C25.2354 26.2939 24.8021 23.2264 24.8021 20.13V7.6355H12.75V20.13C12.75 23.2264 12.3167 26.2939 11.4728 29.2511C10.7107 32.0952 9.43692 34.7705 7.95415 37.3369H29.5979C28.115 34.7705 26.8414 32.0954 26.079 29.2511V29.2511Z" fill="#F5FDFF" fill-opacity="0.24"/>
<path d="M1.67714 87.0637H35.8751V93.0644C35.8751 94.2048 34.9228 95.1292 33.7481 95.1292H3.80412C2.62942 95.1292 1.67714 94.2048 1.67714 93.0644V87.0637Z" fill="#FFB800"/>
<path d="M35.8751 52.5561C35.8751 49.2548 34.951 46.016 33.2015 43.1852C32.6375 42.2727 32.0736 41.3605 31.5097 40.4478C30.8505 39.4269 30.2072 38.3909 29.5982 37.3369H7.95422C7.34523 38.3909 6.70176 39.4267 6.04272 40.4478C5.47881 41.3603 4.91489 42.2727 4.35077 43.1852C2.6012 46.016 1.67715 49.2548 1.67715 52.5561V55.5764H35.8751V52.5561Z" fill="#FFB800"/>
<path d="M43.4054 90.1627V93.0645C43.4054 94.2048 44.3576 95.1293 45.5323 95.1293H59.2248C60.3995 95.1293 61.3518 94.2048 61.3518 93.0645V90.1627C61.3518 89.2335 61.4128 88.3063 61.5332 87.3865H43.2237C43.3443 88.3063 43.4054 89.2335 43.4054 90.1627Z" fill="#F5FDFF" fill-opacity="0.24"/>
<path d="M65.288 72.489H39.469L42.6948 84.6971C42.9289 85.5826 43.1052 86.4808 43.2238 87.3861H61.5334C61.652 86.4808 61.8283 85.5826 62.0624 84.6971L65.288 72.489Z" fill="#FFB800"/>
<path d="M66.3761 68.3713C66.8614 66.5345 65.4323 64.7463 63.4789 64.7463H41.2784C39.325 64.7463 37.8957 66.5345 38.381 68.3713L39.4692 72.4891H65.2881L66.3761 68.3713Z" fill="#F5FDFF" fill-opacity="0.24"/>
</g>
<defs>
<clipPath id="clip0">
<rect width="67" height="95" fill="white"/>
</clipPath>
</defs>
</svg>
