<svg width="95" height="95" viewBox="0 0 95 95" fill="none" xmlns="http://www.w3.org/2000/svg">
<path d="M7.42188 53.4594V39.3359C7.42188 36.9739 8.36021 34.7085 10.0305 33.0383C11.7007 31.368 13.966 30.4297 16.3281 30.4297H21.5453C23.9074 30.4297 26.1727 29.4913 27.843 27.8211L43.407 12.257C45.0773 10.5868 47.3426 9.64845 49.7047 9.64844H63.1078C65.4699 9.64845 67.7352 10.5868 69.4055 12.257L84.9695 27.8211C86.6398 29.4913 87.5781 31.7567 87.5781 34.1187V59.3969C87.5781 61.759 86.6398 64.0243 84.9695 65.6945L78.3117 72.3523C76.6415 74.0226 74.3762 74.9609 72.0141 74.9609H28.9234C26.5613 74.9609 24.296 74.0226 22.6258 72.3523L10.0305 59.757C8.36023 58.0868 7.42189 55.8215 7.42188 53.4594V53.4594Z" fill="#5A5A73"/>
<path d="M57.8906 9.64844C59.4653 9.64844 60.9756 10.274 62.0891 11.3875C63.2026 12.501 63.8281 14.0112 63.8281 15.5859V35.6469C63.8281 38.009 62.8898 40.2743 61.2195 41.9445L48.6242 54.5398C46.954 56.2101 44.6887 57.1484 42.3266 57.1484H13.3594C11.7847 57.1484 10.2744 56.5229 9.16093 55.4094C8.04743 54.2959 7.42188 52.7857 7.42188 51.2109V53.4594C7.42189 55.8215 8.36023 58.0868 10.0305 59.757L22.6258 72.3523C24.296 74.0226 26.5613 74.9609 28.9234 74.9609H72.0141C74.3762 74.9609 76.6415 74.0226 78.3117 72.3523L84.9695 65.6945C86.6398 64.0243 87.5781 61.759 87.5781 59.3969V34.1187C87.5781 31.7567 86.6398 29.4913 84.9695 27.8211L69.4055 12.257C67.7352 10.5868 65.4699 9.64845 63.1078 9.64844H57.8906Z" fill="#463C4B"/>
<path d="M51.9531 36.3672C55.2323 36.3672 57.8906 33.7089 57.8906 30.4297C57.8906 27.1505 55.2323 24.4922 51.9531 24.4922C48.6739 24.4922 46.0156 27.1505 46.0156 30.4297C46.0156 33.7089 48.6739 36.3672 51.9531 36.3672Z" fill="#463C4B"/>
<path d="M31.1719 45.2734C32.8115 45.2734 34.1406 43.9443 34.1406 42.3047C34.1406 40.6651 32.8115 39.3359 31.1719 39.3359C29.5323 39.3359 28.2031 40.6651 28.2031 42.3047C28.2031 43.9443 29.5323 45.2734 31.1719 45.2734Z" fill="#463C4B"/>
<path d="M66.7969 63.0859C69.2563 63.0859 71.25 61.0922 71.25 58.6328C71.25 56.1734 69.2563 54.1797 66.7969 54.1797C64.3375 54.1797 62.3438 56.1734 62.3438 58.6328C62.3438 61.0922 64.3375 63.0859 66.7969 63.0859Z" fill="#32283C"/>
<path d="M15.0985 9.39368L11.6202 12.8719C11.2304 13.2618 10.9211 13.7246 10.7102 14.234C10.4992 14.7434 10.3906 15.2894 10.3906 15.8407V20.0391C10.3906 21.2201 10.8598 22.3528 11.6949 23.1879C12.53 24.023 13.6627 24.4922 14.8438 24.4922H17.8125C18.9935 24.4922 20.1262 24.023 20.9613 23.1879C21.7965 22.3528 22.2656 21.2201 22.2656 20.0391V12.3624C22.2656 11.249 21.8232 10.1811 21.0359 9.39379C20.2486 8.60645 19.1807 8.16411 18.0673 8.16406C17.5159 8.16405 16.97 8.27263 16.4606 8.48361C15.9512 8.69459 15.4884 9.00383 15.0985 9.39368V9.39368Z" fill="#5A5A73"/>
<path d="M22.2656 14.1016C22.2656 15.6763 21.6401 17.1865 20.5266 18.3C19.4131 19.4135 17.9028 20.0391 16.3281 20.0391H10.3906C10.3906 21.2201 10.8598 22.3528 11.6949 23.1879C12.53 24.023 13.6627 24.4922 14.8438 24.4922H17.8125C18.9935 24.4922 20.1262 24.023 20.9613 23.1879C21.7965 22.3528 22.2656 21.2201 22.2656 20.0391V14.1016Z" fill="#463C4B"/>
<path d="M77.1875 86.8359C79.6469 86.8359 81.6406 84.8422 81.6406 82.3828C81.6406 79.9234 79.6469 77.9297 77.1875 77.9297C74.7281 77.9297 72.7344 79.9234 72.7344 82.3828C72.7344 84.8422 74.7281 86.8359 77.1875 86.8359Z" fill="#463C4B"/>
</svg>
