<svg width="71" height="79" viewBox="0 0 71 79" fill="none" xmlns="http://www.w3.org/2000/svg">
<g clip-path="url(#clip0)">
<path d="M17.9862 10.4337C17.633 9.87739 17.0833 9.47537 16.4462 9.30661L2.55711 5.63302C1.6916 5.40398 0.805 5.91991 0.575965 6.78542L0.0660621 8.71293C-0.162972 9.57783 0.352958 10.465 1.21847 10.6941L14.1167 14.1055L21.8032 26.2039L26.2218 23.3964L17.9862 10.4337Z" fill="#EFEDEE"/>
<path d="M53.1542 10.4338C53.5074 9.87744 54.057 9.47543 54.6941 9.30666L68.5832 5.63247C69.4481 5.40404 70.3354 5.91997 70.5644 6.78487L71.0743 8.71238C71.3027 9.57789 70.7868 10.4651 69.9219 10.6935L57.023 14.1055L49.3365 26.204L44.918 23.3965L53.1542 10.4338Z" fill="#EDEFEF"/>
<path d="M36.3245 -0.154297C36.3245 -0.154297 28.3077 1.97512 26.9263 7.15552L26.9299 7.15793L27.4874 9.39704L36.3143 13.3184L45.2297 10.6356C49.1438 2.32048 36.744 3.70192 36.3245 -0.154297V-0.154297Z" fill="#FED8E4"/>
<path d="M26.9262 7.15552C26.9262 7.15552 21.3799 9.80328 22.944 14.0621L22.6661 18.7766L35.5698 19.4812L48.978 18.0726C55.3596 7.15552 29.3437 10.494 26.9262 7.15552Z" fill="#F797B1"/>
<path d="M50.8415 14.073L44.918 23.3965L49.3365 26.204L55.1426 17.0661C54.0709 15.7449 52.5979 14.7806 50.8415 14.073V14.073Z" fill="#60D9F3"/>
<path d="M15.4053 16.133L21.8038 26.2039L26.2223 23.3964L18.9565 11.9604C17.7734 12.8964 16.369 14.2851 15.4053 16.133Z" fill="#D4D4D4"/>
<path d="M22.9442 14.0621C22.9442 14.0621 15.0401 18.1245 19.7166 24.8997L35.5706 27.7433L52.1383 24.8997C58.3969 11.6452 24.2581 18.5518 22.9442 14.0621V14.0621Z" fill="#FED8E4"/>
<path d="M53.0519 24.8997H18.0886C16.5842 24.8997 15.3751 26.1376 15.4058 27.642C16.1044 61.4921 29.6223 71.0682 29.6223 71.0682L35.5711 74.5079L41.5182 71.0682C41.5182 71.0682 55.036 61.4921 55.7346 27.642C55.7653 26.1376 54.5563 24.8997 53.0519 24.8997V24.8997Z" fill="#B7E4EA"/>
<path d="M31.0992 69C29.7765 67.4805 27.6632 66.3903 25.5264 61.9931C20.1723 50.9741 18.439 37.9101 18 28H53C51.8499 54.5052 43.2473 65.1664 39.9135 69H31.0992Z" fill="#F797B1"/>
<path d="M29.3763 61.9931C23.9728 50.9741 22.2244 37.9101 21.7814 28H18C18.443 37.9101 20.1921 50.9741 25.595 61.9931C27.7513 66.3903 29.8839 67.4798 31.2186 69H35C33.6652 67.4798 31.5319 66.3903 29.3763 61.9931Z" fill="#E67F9A"/>
<path d="M41.5183 71.0682H29.6224C25.3268 71.0682 21.8442 74.5501 21.8442 78.8457H49.2964C49.2964 74.5501 45.8139 71.0682 41.5183 71.0682V71.0682Z" fill="#96D8F3"/>
<path d="M34.3911 71.0682H29.6224C25.3268 71.0682 21.8442 74.5501 21.8442 78.8457H26.613C26.613 74.5501 30.0955 71.0682 34.3911 71.0682Z" fill="#83C9E6"/>
</g>
<defs>
<clipPath id="clip0">
<rect width="71" height="79" fill="white"/>
</clipPath>
</defs>
</svg>
