<svg width="83" height="83" viewBox="0 0 83 83" fill="none" xmlns="http://www.w3.org/2000/svg">
<path d="M54.9796 15.0786V4.98737H30.6146V15.0786C30.6146 18.2425 29.8364 21.3578 28.3486 24.1501L26.7104 27.2247C22.8928 34.3896 20.896 42.3835 20.896 50.502V75.4722C20.896 79.6297 24.2663 83 28.4238 83H57.1699C61.3274 83 64.6977 79.6297 64.6977 75.4722V50.5018C64.6977 42.3833 62.7009 34.3895 58.8833 27.2245L57.2451 24.1499C55.7576 21.3578 54.9796 18.2425 54.9796 15.0786Z" fill="url(#paint0_linear)"/>
<path d="M58.8834 27.2238L57.2456 24.1499C55.7575 21.3575 54.9801 18.243 54.9801 15.0781V4.98657H30.614V12.4223C30.9507 12.5085 31.3036 12.554 31.6679 12.554H45.9473C47.3413 12.554 48.4714 13.6842 48.4714 15.0781C48.4714 18.243 49.2488 21.3575 50.737 24.1499L52.3747 27.2238C56.1918 34.3895 58.1889 42.383 58.1889 50.5018V69.3309H20.8962V73.8797H56.5975C57.4764 73.8797 58.1891 74.5922 58.1891 75.4713C58.1891 79.6299 54.8193 82.9997 50.6623 82.9997H57.171C61.328 82.9997 64.6978 79.6299 64.6978 75.4713V50.5018C64.6976 42.383 62.7004 34.3895 58.8834 27.2238Z" fill="url(#paint1_linear)"/>
<path d="M53.9256 8.48698H31.6683C29.3247 8.48698 27.4248 6.58707 27.4248 4.24349C27.4248 1.89991 29.3247 0 31.6683 0H53.9256C56.2692 0 58.1691 1.89991 58.1691 4.24349C58.1691 6.58707 56.2692 8.48698 53.9256 8.48698Z" fill="url(#paint2_linear)"/>
<path d="M53.9257 0H47.417C49.7606 0 51.6605 1.89991 51.6605 4.24349C51.6605 6.58707 49.7606 8.48698 47.417 8.48698H53.9257C56.2692 8.48698 58.1692 6.58707 58.1692 4.24349C58.1692 1.89991 56.2692 0 53.9257 0Z" fill="url(#paint3_linear)"/>
<path d="M61.5002 51.4223V72.7455C61.5002 76.2961 58.6219 79.1745 55.0712 79.1745H30.523C26.9723 79.1745 24.094 76.2961 24.094 72.7455V51.4223C24.094 47.0607 24.7688 42.7418 26.0811 38.6147C27.1406 35.2823 29.6635 32.6432 32.9134 31.3532C35.4661 30.34 37.8583 28.8007 39.9233 26.7358C43.499 23.1601 48.0507 21.161 52.7202 20.7369C52.9778 20.7134 53.2009 20.9133 53.2009 21.1721C53.2009 23.8734 53.8645 26.5342 55.1346 28.9184L56.5349 31.545C59.7942 37.6633 61.5002 44.4891 61.5002 51.4223Z" fill="url(#paint4_linear)"/>
<path d="M56.5349 31.545L55.1346 28.9184C53.8638 26.5329 53.2001 23.8705 53.2009 21.1677C53.2009 20.9106 52.9761 20.7138 52.7202 20.737C51.6367 20.8354 50.5597 21.0199 49.4995 21.2879C49.8335 22.2704 50.2457 23.2281 50.737 24.1501L52.3747 27.2239C56.1918 34.3897 58.1889 42.3832 58.1889 50.502V69.3311H24.094V72.7457C24.094 73.1329 24.1301 73.5115 24.1958 73.8799H56.5976C57.4764 73.8799 58.1891 74.5924 58.1891 75.4714C58.1891 76.6333 57.9256 77.7335 57.4558 78.716C59.8254 77.7687 61.5004 75.4535 61.5004 72.7457V51.4225C61.5002 44.4892 59.7942 37.6633 56.5349 31.545Z" fill="url(#paint5_linear)"/>
<path d="M20.8962 50.5019V69.8123H64.6981V50.5019C64.6981 48.6462 64.5926 46.797 64.386 44.9628H21.2083C21.0018 46.797 20.8962 48.646 20.8962 50.5019Z" fill="url(#paint6_linear)"/>
<path d="M58.1888 50.5018V69.812H64.6975V50.5018C64.6975 48.646 64.5919 46.797 64.3854 44.9626H57.8767C58.0833 46.797 58.1888 48.6461 58.1888 50.5018Z" fill="url(#paint7_linear)"/>
<path d="M30.7273 59.3386C30.4823 59.7532 30.1053 59.8851 29.7474 59.8851C29.4081 59.8851 29.0502 59.772 28.8239 59.3386L27.0338 56.0597V63.3147C27.0338 63.9178 26.2988 64.2193 25.5639 64.2193C24.8289 64.2193 24.094 63.9178 24.094 63.3147V51.914C24.094 50.8399 24.8289 50.4442 25.5639 50.4442C26.6191 50.4442 27.0714 50.5572 27.844 51.914L29.7849 55.3059L31.7258 51.914C32.4985 50.5572 32.9506 50.4442 34.006 50.4442C34.7596 50.4442 35.4759 50.8399 35.4759 51.914V63.3147C35.4759 63.9178 34.7409 64.2193 34.006 64.2193C33.271 64.2193 32.5361 63.9178 32.5361 63.3147V56.248L30.7273 59.3386Z" fill="url(#paint8_linear)"/>
<path d="M37.5115 51.3289C37.5115 50.707 38.2464 50.4432 38.9814 50.4432C39.7163 50.4432 40.4513 50.707 40.4513 51.3289V63.3139C40.4513 63.917 39.7163 64.2185 38.9814 64.2185C38.2464 64.2185 37.5115 63.917 37.5115 63.3139V51.3289Z" fill="url(#paint9_linear)"/>
<path d="M43.7677 64.2185C43.127 64.2185 42.4863 63.917 42.4863 63.3139V51.3289C42.4863 50.707 43.2213 50.4432 43.9562 50.4432C44.6912 50.4432 45.4261 50.707 45.4261 51.3289V61.6557H49.7226C50.288 61.6557 50.5706 62.2963 50.5706 62.9371C50.5706 63.5779 50.288 64.2185 49.7226 64.2185H43.7677Z" fill="url(#paint10_linear)"/>
<path d="M51.7579 51.3289C51.7579 50.707 52.4928 50.4432 53.2278 50.4432C53.9627 50.4432 54.6977 50.707 54.6977 51.3289V55.8515L58.2215 50.8578C58.4289 50.5563 58.6927 50.4432 58.994 50.4432C59.7479 50.4432 60.7277 51.2158 60.7277 51.9507C60.7277 52.1015 60.69 52.3087 60.5393 52.516L57.4488 56.398L61.3495 62.3716C61.4437 62.5223 61.5003 62.692 61.5003 62.8616C61.5003 63.5966 60.577 64.3313 59.7288 64.3313C59.3331 64.3313 58.9563 64.1806 58.7112 63.7849L55.4888 58.8855L54.6974 59.9031V63.3139C54.6974 63.9169 53.9624 64.2185 53.2275 64.2185C52.4925 64.2185 51.7576 63.9169 51.7576 63.3139V51.3289H51.7579Z" fill="url(#paint11_linear)"/>
<path d="M60.5398 52.5162C60.6905 52.309 60.7283 52.1017 60.7283 51.9509C60.7283 51.2159 59.7484 50.4434 58.9946 50.4434C58.6931 50.4434 58.4293 50.5565 58.2221 50.858L58.1897 50.9038V55.4684L60.5398 52.5162Z" fill="url(#paint12_linear)"/>
<path d="M59.7287 64.3315C60.5767 64.3315 61.5 63.5968 61.5 62.8618C61.5 62.6922 61.4434 62.5225 61.3492 62.3718L58.1887 57.5317V62.9909L58.7111 63.7851C58.956 64.1808 59.333 64.3315 59.7287 64.3315Z" fill="url(#paint13_linear)"/>
<defs>
<linearGradient id="paint0_linear" x1="20.8962" y1="43.9936" x2="64.698" y2="43.9936" gradientUnits="userSpaceOnUse">
<stop stop-color="#F9F3F1"/>
<stop offset="0.5725" stop-color="#EFE2DD"/>
<stop offset="1" stop-color="#CDBFBA"/>
</linearGradient>
<linearGradient id="paint1_linear" x1="7.85123" y1="43.9931" x2="66.8855" y2="43.9931" gradientUnits="userSpaceOnUse">
<stop stop-color="#F9F3F1"/>
<stop offset="0.5725" stop-color="#EFE2DD"/>
<stop offset="1" stop-color="#CDBFBA"/>
</linearGradient>
<linearGradient id="paint2_linear" x1="29.4044" y1="4.24349" x2="56.3618" y2="4.24349" gradientUnits="userSpaceOnUse">
<stop stop-color="#6BD9E7"/>
<stop offset="0.5725" stop-color="#26A6FE"/>
<stop offset="1" stop-color="#0172FB"/>
</linearGradient>
<linearGradient id="paint3_linear" x1="21.1665" y1="4.24349" x2="54.5547" y2="4.24349" gradientUnits="userSpaceOnUse">
<stop stop-color="#6BD9E7"/>
<stop offset="0.5725" stop-color="#26A6FE"/>
<stop offset="1" stop-color="#0172FB"/>
</linearGradient>
<linearGradient id="paint4_linear" x1="24.4386" y1="49.9548" x2="59.0872" y2="49.9548" gradientUnits="userSpaceOnUse">
<stop stop-color="white"/>
<stop offset="1" stop-color="#F9F3F1"/>
</linearGradient>
<linearGradient id="paint5_linear" x1="24.4386" y1="49.7255" x2="59.0872" y2="49.7255" gradientUnits="userSpaceOnUse">
<stop stop-color="#F9F3F1"/>
<stop offset="1" stop-color="#EFE2DD"/>
</linearGradient>
<linearGradient id="paint6_linear" x1="23.2195" y1="57.3875" x2="67.4275" y2="57.3875" gradientUnits="userSpaceOnUse">
<stop stop-color="#6BD9E7"/>
<stop offset="0.5725" stop-color="#26A6FE"/>
<stop offset="1" stop-color="#0172FB"/>
</linearGradient>
<linearGradient id="paint7_linear" x1="27.3466" y1="57.3875" x2="59.3863" y2="57.3875" gradientUnits="userSpaceOnUse">
<stop stop-color="#6BD9E7"/>
<stop offset="0.5725" stop-color="#26A6FE"/>
<stop offset="1" stop-color="#0172FB"/>
</linearGradient>
<linearGradient id="paint8_linear" x1="24.094" y1="57.3317" x2="35.4761" y2="57.3317" gradientUnits="userSpaceOnUse">
<stop stop-color="white"/>
<stop offset="1" stop-color="#F9F3F1"/>
</linearGradient>
<linearGradient id="paint9_linear" x1="37.5115" y1="57.3309" x2="40.4513" y2="57.3309" gradientUnits="userSpaceOnUse">
<stop stop-color="white"/>
<stop offset="1" stop-color="#F9F3F1"/>
</linearGradient>
<linearGradient id="paint10_linear" x1="42.4863" y1="57.3309" x2="50.5705" y2="57.3309" gradientUnits="userSpaceOnUse">
<stop stop-color="white"/>
<stop offset="1" stop-color="#F9F3F1"/>
</linearGradient>
<linearGradient id="paint11_linear" x1="51.7579" y1="57.3875" x2="61.5003" y2="57.3875" gradientUnits="userSpaceOnUse">
<stop stop-color="white"/>
<stop offset="1" stop-color="#F9F3F1"/>
</linearGradient>
<linearGradient id="paint12_linear" x1="50.035" y1="52.9558" x2="59.1431" y2="52.9558" gradientUnits="userSpaceOnUse">
<stop stop-color="#F9F3F1"/>
<stop offset="1" stop-color="#EFE2DD"/>
</linearGradient>
<linearGradient id="paint13_linear" x1="50.0342" y1="60.9316" x2="59.1423" y2="60.9316" gradientUnits="userSpaceOnUse">
<stop stop-color="#F9F3F1"/>
<stop offset="1" stop-color="#EFE2DD"/>
</linearGradient>
</defs>
</svg>
