<svg width="86" height="86" viewBox="0 0 86 86" fill="none" xmlns="http://www.w3.org/2000/svg">
<path d="M86 11.3883V38.7L74.763 55.581H62.1148L57.6804 39.2041L63.3242 22.8271L61.3719 10.2295L68.9175 0L86 11.3883Z" fill="#9E8A41"/>
<path d="M39.1533 35.1052L41.2698 49.2146L33.3082 63.3242L30.3771 74.3597L16.9313 86L0 63.4248L11.4889 46.1408L39.1533 35.1052Z" fill="#CFA53A"/>
<path d="M61.2244 62.7195L47.2661 68.0609L33.3081 63.3241L39.1533 35.1052L61.2244 62.7195Z" fill="#F9DD97"/>
<path d="M68.9176 0L63.3242 22.8271L51.9863 30.8392L40.6484 28.7732V5.64375L68.9176 0Z" fill="#F9DD97"/>
<path d="M63.3242 22.8271L62.1148 55.5811L40.6484 28.7732L63.3242 22.8271Z" fill="#CFA53A"/>
<path d="M29.094 30.3857H21.9684L8.26855 16.6857L29.3253 9.66846L36.1556 23.3241L29.094 30.3857Z" fill="#F9DD97"/>
<path d="M61.2243 62.7195L55.4296 86H16.9312L33.3081 63.3242L61.2243 62.7195Z" fill="#9E8A41"/>
</svg>
