<svg width="94" height="94" viewBox="0 0 94 94" fill="none" xmlns="http://www.w3.org/2000/svg">
<g clip-path="url(#clip0)">
<path d="M54.7214 41.6445L41.0198 27.9429L32.1878 36.7749L45.8894 50.4765L54.7214 41.6445Z" fill="#817060"/>
<path d="M49.3017 47.062L35.6001 33.3604L32.1859 36.7746L45.8875 50.4762L49.3017 47.062Z" fill="#56443F"/>
<path d="M53.5875 37.668L91.5857 75.6661C94.8515 78.9318 94.8041 84.2753 91.4436 87.4811C88.181 90.592 82.9891 90.4213 79.8009 87.233L41.9115 49.3437C41.3633 48.7955 41.3633 47.9076 41.9115 47.3594L42.3413 46.9296L51.1733 38.0976L51.6031 37.6678C52.1515 37.1196 53.0391 37.1196 53.5875 37.668Z" fill="#AE8B71"/>
<path d="M83.0621 83.9719L45.1728 46.0827C44.6245 45.5345 44.6245 44.6465 45.1728 44.0983L42.3412 46.9298L41.9114 47.3596C41.3632 47.9078 41.3632 48.7959 41.9114 49.3441L79.8006 87.2332C82.9888 90.4217 88.1807 90.5923 91.4433 87.4813C92.0764 86.8774 92.5917 86.1976 92.9896 85.4698C89.8176 87.1956 85.7358 86.6456 83.0621 83.9719Z" fill="#87634F"/>
<path d="M65.2519 7.21691C57.1795 10.8005 48.071 19.0916 44.7197 24.8907L35.6546 29.9629L29.8997 25.9345L34.7553 14.919L34.7592 14.9152C37.0479 12.6247 38.7111 10.9615 38.8913 10.783C45.6865 3.98823 56.4466 2.04489 65.2519 7.21691Z" fill="#817060"/>
<path d="M65.2518 7.21695C57.1794 10.8005 48.0709 19.0916 44.7196 24.8908L41.5658 21.737L41.0095 21.1787C41.4162 20.3 41.6732 19.7437 41.725 19.6325C45.7688 10.9156 55.2033 5.38872 65.2518 7.21695Z" fill="#56443F"/>
<path d="M17.4632 27.8977L29.7561 30.9703L31.8692 42.3036L31.5344 42.8061C29.5578 41.8218 26.7754 42.4238 24.761 44.4382C22.7591 46.4401 22.1524 49.2017 23.1148 51.1752L22.8999 51.2732L12.2041 49.0982L8.4939 36.867L8.6013 36.6331C10.5714 37.5606 13.3017 36.9476 15.2861 34.9631C17.3036 32.9456 17.9056 30.1537 16.912 28.1771L17.4632 27.8977Z" fill="#56443F"/>
<path d="M8.60137 36.6332L8.49396 36.8671L22.9002 51.2733L23.115 51.1753C23.2982 51.5546 23.5417 51.9053 23.8419 52.2148L16.3448 59.7119L0 43.3671L7.49705 35.87C7.82403 36.1907 8.19526 36.4452 8.60137 36.6332Z" fill="#817060"/>
<path d="M19.4786 47.5103L19.3264 47.6994L23.5646 51.9377L23.7383 51.7983C23.7231 51.979 23.7567 52.12 23.8417 52.2145L16.3446 59.7116L11.5361 54.9031L19.0332 47.406C19.1316 47.4985 19.2821 47.5319 19.4786 47.5103Z" fill="#56443F"/>
<path d="M29.509 13.8578C30.6666 12.7002 32.5435 12.7012 33.6999 13.8598L34.756 14.9181L41.5656 21.7371L44.7192 24.8907L45.848 26.0194C47.0048 27.1762 47.0048 29.0515 45.848 30.2081L44.5659 31.4901L44.5645 31.4887L35.7325 40.3206L35.734 40.3221L32.5393 43.5168C32.2374 43.2245 31.8992 42.9875 31.5344 42.806L31.8693 42.3035L17.4631 27.8972L16.9118 28.1768C16.7285 27.8102 16.4884 27.4722 16.1945 27.172L29.509 13.8578Z" fill="#817060"/>
<rect x="22" y="24" width="2" height="2" fill="#9D6C3F"/>
<rect x="35" y="20" width="2" height="2" fill="#9D6C3F"/>
<rect x="30" y="18" width="2" height="2" fill="#9D6C3F"/>
<rect x="32" y="33" width="2" height="2" fill="#9D6C3F"/>
<rect x="42" y="12" width="2" height="2" fill="#9D6C3F"/>
<rect x="8.67468" y="37.3156" width="14.3177" height="2.37529" transform="rotate(44.8327 8.67468 37.3156)" fill="#93653A"/>
<rect x="29" y="23" width="3" height="3" fill="#9D6C3F"/>
</g>
<defs>
<clipPath id="clip0">
<rect width="94" height="94" fill="white"/>
</clipPath>
</defs>
</svg>
