<svg width="92" height="92" viewBox="0 0 92 92" fill="none" xmlns="http://www.w3.org/2000/svg">
<g clip-path="url(#clip0)">
<path fill-rule="evenodd" clip-rule="evenodd" d="M85.008 67.8692L83.9262 65.3313H72.8227L66.4779 62.1589V70.0899L70.8558 72.7071L72.2517 73.5478L74.409 74.8485L75.5669 80.6699C75.6316 80.9592 75.5271 81.2601 75.2972 81.4471C57.5026 96.1642 31.5534 95.4027 14.6523 79.6676C-2.24875 63.9325 -4.86001 38.1038 8.54964 19.3043C8.71713 19.0689 8.99942 18.9431 9.28648 18.9761C9.57354 19.0091 9.81994 19.1956 9.92964 19.4629L11.1034 22.2071H22.2069L28.5517 25.3795V17.4485L24.1738 14.8312L20.6207 12.6898L19.8434 8.75604C19.7753 8.43884 19.9073 8.11215 20.1765 7.93121C37.7345 -3.98772 61.1674 -2.34864 76.8951 11.8985C92.6228 26.1457 96.5631 49.3031 86.4324 67.9501C86.2844 68.2153 85.998 68.3727 85.6949 68.3554C85.3917 68.3382 85.125 68.1494 85.008 67.8692Z" fill="#F3D55B"/>
<path fill-rule="evenodd" clip-rule="evenodd" d="M84.069 46C84.0853 52.806 82.2542 59.4888 78.7711 65.3359H72.8228L66.478 62.1635V70.0945L70.8559 72.7117L72.2517 73.5524C57.7517 87.3696 35.0239 87.5841 20.2656 74.0431C5.50734 60.5021 3.7694 37.8399 16.2904 22.2069H22.2069L28.5518 25.3793V17.4483L24.1738 14.8311C35.7964 6.67715 50.9922 5.67321 63.5865 12.2272C76.1808 18.7811 84.0779 31.8025 84.069 46Z" fill="#D9B424"/>
<path d="M53.9311 34.8965H38.069C36.3169 34.8965 34.8966 36.3168 34.8966 38.0689V53.931C34.8966 55.683 36.3169 57.1034 38.069 57.1034H53.9311C55.6832 57.1034 57.1035 55.683 57.1035 53.931V38.0689C57.1035 36.3168 55.6832 34.8965 53.9311 34.8965Z" fill="#EACF41"/>
<path d="M50.7584 49.1724V42.8275C50.7584 41.9515 50.0483 41.2413 49.1722 41.2413H42.8274C41.9513 41.2413 41.2412 41.9515 41.2412 42.8275V49.1724C41.2412 50.0484 41.9513 50.7586 42.8274 50.7586H49.1722C50.0483 50.7586 50.7584 50.0484 50.7584 49.1724Z" fill="#F7E06D"/>
<path fill-rule="evenodd" clip-rule="evenodd" d="M42.8276 68.2068C43.7036 68.2068 44.4138 67.4966 44.4138 66.6206C44.4138 65.7445 43.7036 65.0343 42.8276 65.0343H39.6552V63.4481C39.6552 62.5721 38.945 61.8619 38.0689 61.8619C37.1929 61.8619 36.4827 62.5721 36.4827 63.4481V65.0343H33.3103C32.4343 65.0343 31.7241 65.7445 31.7241 66.6206C31.7241 67.4966 32.4343 68.2068 33.3103 68.2068H36.4827V76.1378C36.4827 77.0138 37.1929 77.724 38.0689 77.724C38.945 77.724 39.6552 77.0138 39.6552 76.1378V68.2068H42.8276Z" fill="#F7E06D"/>
<path d="M57.1034 74.5516H55.9613L57.0558 70.1784C57.1745 69.7045 57.0682 69.2023 56.7677 68.8171C56.4671 68.4319 56.0058 68.2068 55.5172 68.2068H51.0488L51.9562 65.0343H53.931C54.807 65.0343 55.5172 64.3242 55.5172 63.4481C55.5172 62.5721 54.807 61.8619 53.931 61.8619H47.5862C46.7101 61.8619 46 62.5721 46 63.4481C46 64.3242 46.7101 65.0343 47.5862 65.0343H48.6553L47.7448 68.2068H46C45.1239 68.2068 44.4137 68.9169 44.4137 69.793C44.4137 70.669 45.1239 71.3792 46 71.3792H46.8422L46.0602 74.1154C46.0282 74.2584 46.0165 74.4053 46.0253 74.5516H42.8275C41.9515 74.5516 41.2413 75.2618 41.2413 76.1378C41.2413 77.0138 41.9515 77.724 42.8275 77.724H57.1034C57.9794 77.724 58.6896 77.0138 58.6896 76.1378C58.6896 75.2618 57.9794 74.5516 57.1034 74.5516ZM50.1431 71.3792H53.4853L52.6922 74.5516H49.2358L50.1431 71.3792Z" fill="#F7E06D"/>
<path fill-rule="evenodd" clip-rule="evenodd" d="M35.8577 30.0094C36.6628 30.3545 37.5951 29.9816 37.9404 29.1766C38.4496 27.9353 38.8922 26.6677 39.2664 25.3793H42.8275C43.7035 25.3793 44.4137 24.6691 44.4137 23.793C44.4137 22.917 43.7035 22.2068 42.8275 22.2068H40.1484C40.4656 20.9664 40.74 19.837 40.9256 19.0344H46.609C46.9002 20.7424 47.3364 22.4224 47.9128 24.0564L44.8213 27.4905C44.4288 27.9095 44.2933 28.508 44.4672 29.0552C44.641 29.6024 45.097 30.013 45.6594 30.1286C46.2217 30.2443 46.8027 30.047 47.1784 29.6128L49.3579 27.1955C49.8714 28.0976 50.4983 28.9302 51.2233 29.6731C51.8457 30.2742 52.835 30.2656 53.4468 29.6538C54.0587 29.0419 54.0673 28.0526 53.4662 27.4302C52.485 26.3817 51.7163 25.153 51.2026 23.8121C51.1836 23.7645 51.1677 23.7185 51.1439 23.6725C50.5576 22.1726 50.1183 20.6193 49.8322 19.0344H52.3447C53.2207 19.0344 53.9309 18.3243 53.9309 17.4482C53.9309 16.5722 53.2207 15.862 52.3447 15.862H49.3722C49.1834 14.0236 49.1723 12.7245 49.1723 12.6896C49.1723 11.8136 48.4621 11.1034 47.5861 11.1034C46.71 11.1034 45.9999 11.8136 45.9999 12.6896C45.9999 12.8482 45.9999 14.0791 46.1775 15.862H39.6551C38.9067 15.862 38.2601 16.3849 38.1037 17.1167C37.3302 20.7873 36.3014 24.3994 35.0249 27.9267C34.6799 28.7318 35.0527 29.6642 35.8577 30.0094V30.0094Z" fill="#F7E06D"/>
<path fill-rule="evenodd" clip-rule="evenodd" d="M72.9479 44.4137H76.1378C77.0138 44.4137 77.724 43.7035 77.724 42.8275C77.724 41.9515 77.0138 41.2413 76.1378 41.2413H71.8169C71.5397 40.2061 71.3927 39.1404 71.3791 38.0689C71.3791 37.1928 70.669 36.4827 69.7929 36.4827C68.9169 36.4827 68.2067 37.1928 68.2067 38.0689C68.1932 39.1404 68.0461 40.2061 67.7689 41.2413H63.4481C62.5721 41.2413 61.8619 41.9515 61.8619 42.8275C61.8619 43.7035 62.5721 44.4137 63.4481 44.4137H66.638C65.4863 46.8879 64.015 49.2002 62.2616 51.2915C61.6795 51.9463 61.7384 52.9491 62.3933 53.5312C63.0481 54.1133 64.0509 54.0544 64.633 53.3996C66.7509 50.9154 68.4897 48.1316 69.7929 45.1386C71.0962 48.1316 72.835 50.9154 74.9529 53.3996C75.535 54.0544 76.5378 54.1133 77.1926 53.5312C77.8474 52.9491 77.9064 51.9463 77.3242 51.2915C75.5709 49.2002 74.0995 46.8879 72.9479 44.4137V44.4137Z" fill="#F7E06D"/>
<path fill-rule="evenodd" clip-rule="evenodd" d="M28.5516 39.6551C29.4277 39.6551 30.1378 38.9449 30.1378 38.0689C30.1378 37.1928 29.4277 36.4827 28.5516 36.4827H15.862C14.9859 36.4827 14.2758 37.1928 14.2758 38.0689C14.2758 38.9449 14.9859 39.6551 15.862 39.6551H20.6206V45.9999H15.862C14.9859 45.9999 14.2758 46.7101 14.2758 47.5861C14.2758 48.4622 14.9859 49.1723 15.862 49.1723H20.6206V53.9309C20.6206 54.807 21.3308 55.5171 22.2068 55.5171C23.0828 55.5171 23.793 54.807 23.793 53.9309V49.1723H28.5516C29.4277 49.1723 30.1378 48.4622 30.1378 47.5861C30.1378 46.7101 29.4277 45.9999 28.5516 45.9999H23.793V39.6551H28.5516Z" fill="#F7E06D"/>
</g>
<defs>
<clipPath id="clip0">
<rect width="92" height="92" fill="white"/>
</clipPath>
</defs>
</svg>
