<svg width="87" height="87" viewBox="0 0 87 87" fill="none" xmlns="http://www.w3.org/2000/svg">
<path d="M43.5 87C67.5244 87 87 67.5244 87 43.5C87 19.4756 67.5244 0 43.5 0C19.4756 0 0 19.4756 0 43.5C0 67.5244 19.4756 87 43.5 87Z" fill="#EBF4FF"/>
<path d="M43.5001 0C42.6182 0 41.7432 0.0293965 40.8743 0.0812227C63.6757 1.43924 81.7486 20.3575 81.7486 43.5C81.7486 66.6425 63.6757 85.5608 40.8744 86.9188C41.7432 86.9706 42.6182 87 43.5001 87C67.5245 87 87.0001 67.5244 87.0001 43.5C87.0001 19.4756 67.5245 0 43.5001 0Z" fill="#BED8FB"/>
<path d="M73.308 43.2096C73.308 46.4402 68.5629 48.8106 67.6858 51.7248C66.7775 54.7422 69.284 59.6975 67.5908 62.2076C65.8832 64.7388 60.7691 63.63 58.4245 65.4708C56.1068 67.2905 55.4708 72.9264 52.6881 73.9013C50.0056 74.8409 46.4719 70.7015 43.4999 70.7015C40.528 70.7015 36.9943 74.8409 34.3119 73.9013C31.5291 72.9266 30.8931 67.2905 28.5753 65.4708C26.2308 63.63 21.1166 64.7388 19.4091 62.2076C17.7158 59.6975 20.2223 54.7422 19.3141 51.7249C18.437 48.8108 13.6919 46.4405 13.6919 43.2098C13.6919 39.9793 18.437 37.6089 19.3141 34.6947C20.2223 31.6772 17.7158 26.722 19.4091 24.2119C21.1166 21.6807 26.2308 22.7895 28.5753 20.9487C30.8931 19.129 31.5291 13.493 34.3117 12.5182C36.9943 11.5785 40.528 15.718 43.4999 15.718C46.4719 15.718 50.0056 11.5785 52.6879 12.5182C55.4707 13.4929 56.1068 19.129 58.4245 20.9487C60.7691 22.7895 65.8832 21.6807 67.5908 24.2119C69.284 26.722 66.7775 31.6772 67.6858 34.6945C68.5629 37.6087 73.308 39.9791 73.308 43.2096Z" fill="#50DA87"/>
<path d="M19.3153 29.4432C19.7195 28.1002 19.4471 26.3731 19.1698 24.6486C18.5475 26.0202 18.8534 27.933 19.1625 29.8545C19.2206 29.7182 19.2736 29.5816 19.3153 29.4432Z" fill="#3AAD54"/>
<path d="M67.6859 46.4731C67.2781 47.8283 67.5588 49.574 67.8386 51.3135C69.0055 48.5841 73.3081 46.2869 73.3081 43.2098C73.3081 42.2735 72.9082 41.4098 72.321 40.584C70.8814 42.6081 68.3088 44.4037 67.6859 46.4731Z" fill="#3AAD54"/>
<path d="M67.5909 56.956C65.8833 59.4872 60.7692 58.3784 58.4246 60.2192C56.1069 62.0389 55.4709 67.6748 52.6882 68.6497C50.0057 69.5894 46.472 65.4499 43.5 65.4499C40.5281 65.4499 36.9944 69.5894 34.312 68.6497C31.5292 67.675 30.8932 62.039 28.5755 60.2192C26.2309 58.3784 21.1167 59.4872 19.4092 56.956C19.3161 56.818 19.2377 56.6716 19.1689 56.5196C18.8231 58.6692 18.4697 60.8149 19.4092 62.2076C21.1167 64.7388 26.2309 63.63 28.5755 65.4708C30.8932 67.2905 31.5292 72.9264 34.312 73.9013C36.9946 74.841 40.5283 70.7015 43.5 70.7015C46.472 70.7015 50.0057 74.841 52.6882 73.9013C55.471 72.9266 56.107 67.2907 58.4246 65.4708C60.7692 63.63 65.8833 64.7388 67.5909 62.2076C68.5304 60.8149 68.1769 58.6692 67.8313 56.5195C67.7623 56.6716 67.684 56.818 67.5909 56.956Z" fill="#3AAD54"/>
<path d="M23.3237 23.5743C23.755 23.2358 24.128 22.7646 24.4673 22.2164C22.4364 22.5119 20.3761 22.778 19.4089 24.2117C19.2731 24.4128 19.1669 24.6314 19.0813 24.8618C20.6811 24.6298 22.278 24.3953 23.3237 23.5743Z" fill="#3E9F55"/>
<path d="M67.6858 51.7246C68.563 48.8106 73.308 46.4402 73.308 43.2096C73.308 39.9789 68.563 37.6085 67.6858 34.6943C66.7776 31.6768 69.2841 26.7216 67.5909 24.2117C65.8833 21.6805 60.7692 22.7893 58.4246 20.9485C56.1069 19.129 55.4708 13.4928 52.688 12.518C50.6578 11.8069 48.1402 14.0038 45.7476 15.1151C46.3367 14.973 46.9035 14.957 47.4366 15.1438C50.2194 16.1185 50.8554 21.7546 53.1731 23.5743C55.5177 25.4151 60.6319 24.3063 62.3394 26.8375C64.0327 29.3476 61.5262 34.3028 62.4344 37.3201C63.3115 40.2343 68.0566 42.6047 68.0566 45.8354C68.0566 49.066 63.3115 51.4364 62.4344 54.3504C61.5991 57.1261 63.6502 61.5396 62.667 64.1831C64.6538 63.8947 66.6451 63.6096 67.5909 62.2074C69.2843 59.6975 66.7776 54.7422 67.6858 51.7246Z" fill="#3E9F55"/>
<path d="M65.5564 69.5548C70.8253 69.5548 75.0966 65.2835 75.0966 60.0146C75.0966 54.7456 70.8253 50.4743 65.5564 50.4743C60.2874 50.4743 56.0161 54.7456 56.0161 60.0146C56.0161 65.2835 60.2874 69.5548 65.5564 69.5548Z" fill="#FF5A64"/>
<path d="M65.5562 50.4743C64.6451 50.4743 63.7649 50.6046 62.9304 50.8432C66.9219 51.9839 69.8449 55.6566 69.8449 60.0146C69.8449 64.3724 66.9219 68.0451 62.9304 69.1857C63.7649 69.4243 64.6451 69.5548 65.5562 69.5548C70.8252 69.5548 75.0965 65.2835 75.0965 60.0146C75.0965 54.7456 70.8252 50.4743 65.5562 50.4743Z" fill="#FF3D4D"/>
<path d="M21.6228 37.1679C26.8917 37.1679 31.163 32.8965 31.163 27.6276C31.163 22.3587 26.8917 18.0873 21.6228 18.0873C16.3538 18.0873 12.0825 22.3587 12.0825 27.6276C12.0825 32.8965 16.3538 37.1679 21.6228 37.1679Z" fill="#FF5A64"/>
<path d="M29.1634 21.7833C26.7026 18.6083 22.6353 17.4153 18.9956 18.4566C20.8811 18.9944 22.6185 20.1148 23.9118 21.7833C27.1395 25.9477 26.3801 31.9406 22.2156 35.1682C21.226 35.9352 20.1329 36.4742 18.9985 36.799C21.819 37.6035 24.9712 37.1029 27.4672 35.1682C31.6317 31.9406 32.3911 25.9477 29.1634 21.7833Z" fill="#FF3D4D"/>
<path d="M52.8876 17.9922C52.9231 17.6503 53.2414 17.4116 53.5803 17.4696C58.4516 18.3028 61.9067 22.7863 61.3898 27.7737C60.873 32.761 56.572 36.4407 51.6332 36.2573C51.2896 36.2446 51.027 35.9457 51.0625 35.6037L52.8876 17.9922Z" fill="#FDF9CE"/>
<path d="M51.5028 37.1379C51.1297 37.0992 50.7808 36.9192 50.5337 36.6348C50.2662 36.3269 50.1369 35.9177 50.1789 35.5121L52.0041 17.9007C52.0461 17.4951 52.2566 17.121 52.5816 16.8746C52.9077 16.6272 53.3266 16.5243 53.73 16.5942C59.0805 17.5095 62.8331 22.4603 62.273 27.8652C61.7129 33.2701 57.0247 37.3461 51.6 37.1447C51.5675 37.1436 51.5352 37.1412 51.5028 37.1379ZM53.7378 18.4033L51.9789 35.3758C56.338 35.3787 60.053 32.0555 60.5063 27.6822C60.9595 23.309 58.0048 19.2944 53.7378 18.4033Z" fill="#FFE07D"/>
<path d="M61.298 28.657L51.8834 27.6813C51.3955 27.6308 51.041 27.1943 51.0916 26.7064C51.1421 26.2185 51.5786 25.864 52.0665 25.9146L61.4813 26.8903C61.9691 26.9409 62.3236 27.3774 62.2731 27.8652C62.2225 28.3531 61.7859 28.7076 61.298 28.657Z" fill="#FFE07D"/>
<path d="M51.8831 27.6812C51.6745 27.6596 51.4726 27.5645 51.32 27.3975C50.9887 27.0358 51.0135 26.4741 51.3752 26.1428L58.3557 19.7518C58.7174 19.4207 59.2793 19.4452 59.6104 19.8071C59.9417 20.1689 59.9169 20.7306 59.5551 21.0619L52.5747 27.4529C52.3797 27.6314 52.1267 27.7065 51.8831 27.6812Z" fill="#FFE07D"/>
<path d="M25.3354 52.945C25.0019 52.804 24.6201 52.9764 24.5015 53.3185C22.7962 58.2354 25.1776 63.6995 30.0408 65.7555C34.904 67.8115 40.4827 65.7127 42.8216 61.0636C42.9844 60.7401 42.842 60.3461 42.5085 60.2051L25.3354 52.945Z" fill="#FDF9CE"/>
<path d="M43.7001 61.3907C43.6868 61.4222 43.6725 61.4533 43.657 61.484C41.0879 66.5903 34.947 68.8451 29.6766 66.6169C24.4062 64.3888 21.7449 58.4129 23.6179 53.0121C23.7584 52.6047 24.066 52.2703 24.4598 52.0953C24.8523 51.9207 25.3041 51.9164 25.6995 52.0836L42.8727 59.3438C43.2682 59.5109 43.58 59.8381 43.7281 60.2412C43.8651 60.6134 43.854 61.0268 43.7001 61.3907ZM25.2828 53.9381C23.9378 58.3269 26.1406 63.0912 30.405 64.8941C34.6697 66.697 39.6219 64.958 41.8328 60.9348L25.2828 53.9381Z" fill="#FFE07D"/>
<path d="M34.7835 56.9392L30.9023 66.1197C30.7012 66.5954 30.1525 66.818 29.6768 66.6169C29.2011 66.4158 28.9785 65.8671 29.1796 65.3914L33.0608 56.2109C33.2619 55.7351 33.8106 55.5125 34.2863 55.7136C34.762 55.9148 34.9846 56.4635 34.7835 56.9392Z" fill="#FFE07D"/>
<path d="M39.07 65.9368C38.984 66.1401 38.8261 66.3141 38.6109 66.4165C38.1447 66.6387 37.5866 66.4408 37.3644 65.9745L33.0776 56.9774C32.8556 56.5112 33.0531 55.9529 33.5197 55.7309C33.9859 55.5086 34.544 55.7066 34.7662 56.1728L39.053 65.17C39.1726 65.4211 39.1705 65.6991 39.07 65.9368Z" fill="#FFE07D"/>
<path d="M34.7833 56.9389C34.6828 57.1766 34.485 57.3718 34.2214 57.4609L24.7808 60.6546C24.2915 60.8201 23.7607 60.5577 23.5953 60.0684C23.4297 59.5791 23.6924 59.0484 24.1814 58.8828L33.622 55.6891C34.1113 55.5237 34.6421 55.786 34.8076 56.2753C34.8839 56.501 34.8693 56.7355 34.7833 56.9389Z" fill="#FFE07D"/>
<path d="M14.6139 57.5598C11.7088 57.5598 9.5224 54.9495 9.98764 52.0817C12.6068 35.9354 26.6138 23.6079 43.5 23.6079C60.3861 23.6079 74.3931 35.9354 77.0123 52.0817C77.4776 54.9495 75.2912 57.5598 72.386 57.5598H14.6139Z" fill="#FFCF70"/>
<path d="M77.0121 52.0817C74.393 35.9354 60.386 23.6079 43.4998 23.6079C42.6161 23.6079 41.7408 23.6436 40.874 23.71C56.5689 24.9107 69.2785 36.7806 71.7605 52.0819C72.2258 54.9495 70.0396 57.56 67.1343 57.56H72.3857C75.2912 57.5598 77.4774 54.9495 77.0121 52.0817Z" fill="#FFB82D"/>
<path d="M33.6096 40.6713C35.3498 40.6713 36.7605 39.2606 36.7605 37.5204C36.7605 35.7803 35.3498 34.3696 33.6096 34.3696C31.8694 34.3696 30.4587 35.7803 30.4587 37.5204C30.4587 39.2606 31.8694 40.6713 33.6096 40.6713Z" fill="#FF4752"/>
<path d="M57.2414 40.6713C58.9816 40.6713 60.3923 39.2606 60.3923 37.5204C60.3923 35.7803 58.9816 34.3696 57.2414 34.3696C55.5013 34.3696 54.0906 35.7803 54.0906 37.5204C54.0906 39.2606 55.5013 40.6713 57.2414 40.6713Z" fill="#FF4752"/>
<path d="M46.7383 51.1743C48.4784 51.1743 49.8891 49.7636 49.8891 48.0235C49.8891 46.2833 48.4784 44.8726 46.7383 44.8726C44.9981 44.8726 43.5874 46.2833 43.5874 48.0235C43.5874 49.7636 44.9981 51.1743 46.7383 51.1743Z" fill="#FF4752"/>
<path d="M66.5438 52.4304C65.8188 52.4304 65.231 51.8427 65.231 51.1176C65.231 49.1142 63.6011 47.4845 61.5977 47.4845C60.8727 47.4845 60.2849 46.8968 60.2849 46.1717C60.2849 45.4465 60.8727 44.8589 61.5977 44.8589C65.049 44.8589 67.8568 47.6667 67.8568 51.1178C67.8568 51.8428 67.2689 52.4304 66.5438 52.4304Z" fill="#FFE792"/>
<path d="M22.2113 52.4304C21.4862 52.4304 20.8984 51.8427 20.8984 51.1176C20.8984 47.6665 23.7062 44.8587 27.1575 44.8587C27.8826 44.8587 28.4703 45.4465 28.4703 46.1715C28.4703 46.8967 27.8826 47.4843 27.1575 47.4843C25.1541 47.4843 23.5242 49.1142 23.5242 51.1174C23.5242 51.8428 22.9363 52.4304 22.2113 52.4304Z" fill="#FFE792"/>
<path d="M49.1878 34.2029C48.8519 34.2029 48.5158 34.0746 48.2595 33.8183C46.8429 32.4015 44.5381 32.4015 43.1214 33.8183C42.6086 34.3308 41.7773 34.331 41.2647 33.8182C40.7519 33.3055 40.752 32.4742 41.2647 31.9614C43.7051 29.5212 47.6758 29.5212 50.1162 31.9614C50.6291 32.4742 50.6291 33.3053 50.1162 33.8183C49.8598 34.0746 49.5239 34.2029 49.1878 34.2029Z" fill="#FFE792"/>
<path d="M57.0701 52.4304C57.7952 52.4304 58.383 51.8427 58.383 51.1176C58.383 50.3926 57.7952 49.8048 57.0701 49.8048C56.3451 49.8048 55.7573 50.3926 55.7573 51.1176C55.7573 51.8427 56.3451 52.4304 57.0701 52.4304Z" fill="#7AC260"/>
<path d="M30.9544 53.0739C31.6795 53.0739 32.2672 52.4862 32.2672 51.7611C32.2672 51.0361 31.6795 50.4483 30.9544 50.4483C30.2294 50.4483 29.6416 51.0361 29.6416 51.7611C29.6416 52.4862 30.2294 53.0739 30.9544 53.0739Z" fill="#7AC260"/>
<path d="M43.9415 40.1942C44.6665 40.1942 45.2543 39.6064 45.2543 38.8814C45.2543 38.1563 44.6665 37.5685 43.9415 37.5685C43.2164 37.5685 42.6287 38.1563 42.6287 38.8814C42.6287 39.6064 43.2164 40.1942 43.9415 40.1942Z" fill="#7AC260"/>
<path d="M67.5733 44.5532C68.2984 44.5532 68.8861 43.9654 68.8861 43.2404C68.8861 42.5153 68.2984 41.9276 67.5733 41.9276C66.8483 41.9276 66.2605 42.5153 66.2605 43.2404C66.2605 43.9654 66.8483 44.5532 67.5733 44.5532Z" fill="#7AC260"/>
<path d="M16.9324 51.1176C17.6575 51.1176 18.2453 50.5298 18.2453 49.8048C18.2453 49.0797 17.6575 48.4919 16.9324 48.4919C16.2074 48.4919 15.6196 49.0797 15.6196 49.8048C15.6196 50.5298 16.2074 51.1176 16.9324 51.1176Z" fill="#7AC260"/>
<path d="M22.9356 39.3016C23.6607 39.3016 24.2484 38.7138 24.2484 37.9888C24.2484 37.2637 23.6607 36.676 22.9356 36.676C22.2106 36.676 21.6228 37.2637 21.6228 37.9888C21.6228 38.7138 22.2106 39.3016 22.9356 39.3016Z" fill="#7AC260"/>
<path d="M36.0643 47.4843C36.7893 47.4843 37.3771 46.8966 37.3771 46.1715C37.3771 45.4465 36.7893 44.8587 36.0643 44.8587C35.3392 44.8587 34.7515 45.4465 34.7515 46.1715C34.7515 46.8966 35.3392 47.4843 36.0643 47.4843Z" fill="#7AC260"/>
<path d="M36.0643 31.4243C36.7893 31.4243 37.3771 30.8366 37.3771 30.1115C37.3771 29.3865 36.7893 28.7987 36.0643 28.7987C35.3392 28.7987 34.7515 29.3865 34.7515 30.1115C34.7515 30.8366 35.3392 31.4243 36.0643 31.4243Z" fill="#7AC260"/>
</svg>
