<svg width="87" height="87" viewBox="0 0 87 87" fill="none" xmlns="http://www.w3.org/2000/svg">
<path d="M50.551 0.571838C46.2304 0.571838 42.0819 2.26545 38.996 5.28927L0 43.5L38.996 81.7106C42.0819 84.7345 46.2303 86.4281 50.5508 86.4281H50.551C71.2217 83.0585 87 65.1232 87 43.5C87 21.8767 71.2217 3.94156 50.551 0.571838Z" fill="#F8F8FF"/>
<path d="M31.803 69.7794C26.7792 62.1133 23.957 53.0219 23.957 43.5C23.957 33.1888 27.2658 23.382 33.0971 15.3437C37.5565 9.19644 43.4907 4.08322 50.551 0.571714C48.2556 0.197807 45.9012 0 43.5 0C19.4757 0 0 19.4757 0 43.5C0 67.5243 19.4757 87 43.5 87C45.901 87 48.2556 86.8024 50.551 86.4283C42.7839 82.5651 36.3798 76.7638 31.803 69.7794Z" fill="#E1EBF4"/>
<path d="M73.4397 20.7771C72.0057 20.2826 70.7307 19.3904 69.909 18.1155C68.8968 16.545 67.1948 15.5475 65.3512 15.405C63.7819 15.2839 62.2981 14.6819 61.1069 13.6529C59.7319 12.4651 57.8723 11.966 56.0868 12.307C54.5455 12.6012 52.9606 12.3915 51.5478 11.7088C49.9142 10.9194 47.9941 10.9201 46.3612 11.7104C44.9431 12.397 43.3528 12.5949 41.8041 12.3056C40.0235 11.9728 38.1627 12.4672 36.7865 13.6662C35.742 14.5763 34.4601 15.1426 33.0971 15.3439L22.3167 26.1244V69.7797H31.803L50.7921 50.7923L74.8184 26.7681C76.6777 24.909 76.0342 21.6715 73.4397 20.7771Z" fill="#FFCE71"/>
<path d="M33.0972 15.3439C32.9203 15.37 32.7422 15.3908 32.563 15.4045C30.7577 15.5431 29.0909 16.5014 28.0717 18.0119C27.1984 19.3064 25.9289 20.2693 24.4543 20.7831C22.7395 21.3804 21.3802 22.7409 20.7824 24.4541C20.2662 25.9338 19.2963 27.2025 17.9991 28.0822C16.493 29.1036 15.5309 30.7716 15.3984 32.5846C15.2839 34.1492 14.6704 35.6247 13.6463 36.8133C12.4609 38.1894 11.961 40.0491 12.3053 41.8371C12.602 43.3774 12.3846 44.9607 11.7043 46.3741C10.9189 48.0062 10.9178 49.926 11.7113 51.5597C12.3988 52.975 12.592 54.5645 12.3035 56.1112C11.9716 57.8903 12.4651 59.7496 13.663 61.1255C14.6881 62.3029 15.2846 63.7804 15.3996 65.3371C15.5364 67.1858 16.5354 68.8825 18.094 69.8963C19.4543 70.781 20.2655 72.0289 20.8026 73.5196C21.698 76.0032 24.8975 76.6844 26.7646 74.8175L31.8029 69.7797C26.7791 62.1135 23.957 53.0221 23.957 43.5003C23.9572 33.1889 27.266 23.3821 33.0972 15.3439Z" fill="#FFB357"/>
</svg>
