<svg width="86" height="52" viewBox="0 0 86 52" fill="none" xmlns="http://www.w3.org/2000/svg">
<path d="M71.2188 31.875H14.7812C11.8127 31.875 9.40625 34.3039 9.40625 37.3C9.40625 40.2961 11.8127 42.725 14.7812 42.725H71.2188C74.1873 42.725 76.5938 40.2961 76.5938 37.3C76.5938 34.3039 74.1873 31.875 71.2188 31.875Z" fill="#FFCC81"/>
<path d="M75.5831 46.7937C76.2989 45.9769 76.8995 45.0641 77.3676 44.0812H8.63208C9.10021 45.0641 9.70072 45.9769 10.4166 46.7937H75.5831Z" fill="#CDDEF6"/>
<path d="M71.2188 21.025H14.7812C11.8127 21.025 9.40625 23.4538 9.40625 26.45C9.40625 29.4461 11.8127 31.875 14.7812 31.875H71.2188C74.1873 31.875 76.5938 29.4461 76.5938 26.45C76.5938 23.4538 74.1873 21.025 71.2188 21.025Z" fill="#FFCC81"/>
<path d="M71.2188 10.175H14.7812C11.8127 10.175 9.40625 12.6038 9.40625 15.6C9.40625 18.5961 11.8127 21.025 14.7812 21.025H71.2188C74.1873 21.025 76.5938 18.5961 76.5938 15.6C76.5938 12.6038 74.1873 10.175 71.2188 10.175Z" fill="#FFCC81"/>
<path d="M71.2188 0H14.7812C11.8127 0 9.40625 2.42885 9.40625 5.425C9.40625 8.42114 11.8127 10.85 14.7812 10.85H71.2188C74.1873 10.85 76.5938 8.42114 76.5938 5.425C76.5938 2.42885 74.1873 0 71.2188 0Z" fill="#FFCC81"/>
<path d="M11.6991 39.8534C11.6991 38.4648 12.268 37.1331 13.2804 36.1513C14.2929 35.1694 15.6662 34.6178 17.098 34.6178H73.7865C74.5505 34.6197 75.3053 34.7803 76 35.089C75.575 34.1698 74.8853 33.3893 74.0137 32.8413C73.1421 32.2933 72.1258 32.0011 71.087 32H14.3986C13.164 31.9986 11.9662 32.4081 11.0055 33.16C10.0448 33.912 9.37923 34.961 9.1201 36.1316C8.86098 37.3022 9.02396 38.5236 9.58181 39.5917C10.1397 40.6598 11.0586 41.5099 12.185 42C11.8668 41.3264 11.7011 40.5944 11.6991 39.8534Z" fill="#FFBD5C"/>
<path d="M77.9375 42.725H8.0625C8.84515 45.0947 10.3467 47.1558 12.3545 48.6163C14.3622 50.0767 16.7744 50.8626 19.2492 50.8625H66.7508C69.2256 50.8626 71.6378 50.0767 73.6456 48.6163C75.6533 47.1558 77.1549 45.0947 77.9375 42.725Z" fill="#D4E6FF"/>
<path d="M80.625 44.0812H5.375C5.01862 44.0812 4.67683 43.9384 4.42483 43.684C4.17282 43.4297 4.03125 43.0847 4.03125 42.725C4.03125 42.3653 4.17282 42.0203 4.42483 41.766C4.67683 41.5116 5.01862 41.3687 5.375 41.3687H80.625C80.9814 41.3687 81.3232 41.5116 81.5752 41.766C81.8272 42.0203 81.9688 42.3653 81.9688 42.725C81.9688 43.0847 81.8272 43.4297 81.5752 43.684C81.3232 43.9384 80.9814 44.0812 80.625 44.0812Z" fill="#E2EEFF"/>
<path d="M11.6991 7.8534C11.6991 6.46484 12.268 5.13314 13.2804 4.15128C14.2929 3.16941 15.6662 2.6178 17.098 2.6178H73.7865C74.5505 2.61967 75.3053 2.78035 76 3.08901C75.575 2.16983 74.8853 1.38929 74.0137 0.841277C73.1421 0.293267 72.1258 0.00112858 71.087 3.72934e-06H14.3986C13.164 -0.00142563 11.9662 0.408063 11.0055 1.16005C10.0448 1.91203 9.37923 2.96097 9.1201 4.13159C8.86098 5.30221 9.02396 6.52361 9.58181 7.59172C10.1397 8.65982 11.0586 9.50993 12.185 10C11.8668 9.32636 11.7011 8.59439 11.6991 7.8534Z" fill="#FFBD5C"/>
<path d="M11.6991 17.8534C11.6991 16.4648 12.268 15.1331 13.2804 14.1513C14.2929 13.1694 15.6662 12.6178 17.098 12.6178H73.7865C74.5505 12.6197 75.3053 12.7803 76 13.089C75.575 12.1698 74.8853 11.3893 74.0137 10.8413C73.1421 10.2933 72.1258 10.0011 71.087 10H14.3986C13.164 9.99857 11.9662 10.4081 11.0055 11.16C10.0448 11.912 9.37923 12.961 9.1201 14.1316C8.86098 15.3022 9.02396 16.5236 9.58181 17.5917C10.1397 18.6598 11.0586 19.5099 12.185 20C11.8668 19.3264 11.7011 18.5944 11.6991 17.8534Z" fill="#FFBD5C"/>
<path d="M11.6991 28.8534C11.6991 27.4648 12.268 26.1331 13.2804 25.1513C14.2929 24.1694 15.6662 23.6178 17.098 23.6178H73.7865C74.5505 23.6197 75.3053 23.7803 76 24.089C75.575 23.1698 74.8853 22.3893 74.0137 21.8413C73.1421 21.2933 72.1258 21.0011 71.087 21H14.3986C13.164 20.9986 11.9662 21.4081 11.0055 22.16C10.0448 22.912 9.37923 23.961 9.1201 25.1316C8.86098 26.3022 9.02396 27.5236 9.58181 28.5917C10.1397 29.6598 11.0586 30.5099 12.185 31C11.8668 30.3264 11.7011 29.5944 11.6991 28.8534Z" fill="#FFBD5C"/>
</svg>
