<svg width="89" height="89" viewBox="0 0 89 89" fill="none" xmlns="http://www.w3.org/2000/svg">
<g clip-path="url(#clip0)">
<path d="M8.19304 16.3863H2.60742C1.16743 16.3863 0 15.2189 0 13.7789C0 12.3389 1.16743 11.1714 2.60742 11.1714H8.19304C9.63303 11.1714 10.8005 12.3389 10.8005 13.7789C10.8005 15.2189 9.63303 16.3863 8.19304 16.3863Z" fill="#E6E3DC"/>
<path d="M8.19304 16.3863H2.60742C1.16743 16.3863 0 15.2189 0 13.7789H10.8005C10.8005 15.2189 9.63303 16.3863 8.19304 16.3863Z" fill="#D2D2C8"/>
<path d="M80.8068 5.58562L39.9944 5.58579L37.1459 2.73727C35.3789 0.972221 33.0314 0 30.5359 0C29.0959 0 27.9285 1.16743 27.9285 2.60742V24.9501C27.9285 26.3901 29.0959 27.5575 30.5359 27.5575C33.0335 27.5575 35.3813 26.5849 37.1469 24.8192L39.9944 21.9719H80.807C85.3319 21.9719 89.0002 18.3036 89.0002 13.7787C89.0002 9.25374 85.3317 5.58562 80.8068 5.58562Z" fill="#E6E3DC"/>
<path d="M27.9285 24.9501C27.9285 26.3901 29.0959 27.5575 30.5359 27.5575C33.0335 27.5575 35.3813 26.5849 37.1469 24.8192L39.9944 21.9719H80.807C85.3319 21.9719 89.0002 18.3036 89.0002 13.7787H27.9285V24.9501Z" fill="#D2D2C8"/>
<path d="M8.19304 5.21484H2.60742C1.16743 5.21484 0 4.04741 0 2.60742C0 1.16743 1.16743 0 2.60742 0H8.19304C9.63303 0 10.8005 1.16743 10.8005 2.60742C10.8005 4.04741 9.63303 5.21484 8.19304 5.21484Z" fill="#E6E3DC"/>
<path d="M8.19304 27.5575H2.60742C1.16743 27.5575 0 26.3901 0 24.9501C0 23.5101 1.16743 22.3427 2.60742 22.3427H8.19304C9.63303 22.3427 10.8005 23.5101 10.8005 24.9501C10.8005 26.3901 9.63303 27.5575 8.19304 27.5575Z" fill="#D2D2C8"/>
<path d="M8.19312 0H30.5358V75.0353H8.19312V0Z" fill="#FFE65A"/>
<path d="M8.19312 13.7789H30.5358V75.0355H8.19312V13.7789Z" fill="#FFC800"/>
<path d="M19.3645 75.0353C17.9245 75.0353 16.7571 73.8679 16.7571 72.4279V2.60742C16.7571 1.16743 17.9245 0 19.3645 0C20.8045 0 21.9719 1.16743 21.9719 2.60742V72.4279C21.9719 73.8679 20.8045 75.0353 19.3645 75.0353Z" fill="#FFF0B4"/>
<path d="M8.19312 75.0353C6.75312 75.0353 5.58569 73.8679 5.58569 72.4279V2.60742C5.58569 1.16743 6.75312 0 8.19312 0C9.63311 0 10.8005 1.16743 10.8005 2.60742V72.4279C10.8005 73.8679 9.63311 75.0353 8.19312 75.0353Z" fill="#FFF0B4"/>
<path d="M30.5359 75.0353C29.0959 75.0353 27.9285 73.8679 27.9285 72.4279V2.60742C27.9285 1.16743 29.0959 0 30.5359 0C31.9759 0 33.1433 1.16743 33.1433 2.60742V72.4279C33.1433 73.8679 31.9759 75.0353 30.5359 75.0353Z" fill="#FFF0B4"/>
<path d="M19.3645 75.0354C20.8045 75.0354 21.9719 73.868 21.9719 72.428V13.7789H16.7571V72.4281C16.7571 73.868 17.9245 75.0354 19.3645 75.0354Z" fill="#FFE65A"/>
<path d="M8.19312 75.0354C9.63311 75.0354 10.8005 73.868 10.8005 72.428V13.7789H5.58569V72.4281C5.58569 73.868 6.75312 75.0354 8.19312 75.0354Z" fill="#FFE65A"/>
<path d="M30.5359 75.0354C31.9759 75.0354 33.1433 73.868 33.1433 72.428V13.7789H27.9285V72.4281C27.9285 73.868 29.0957 75.0354 30.5359 75.0354Z" fill="#FFE65A"/>
<path d="M24.9508 47.4787C12.7133 47.4787 2.79297 57.3991 2.79297 69.6348V72.4284C2.79297 73.8684 3.9604 75.0359 5.40039 75.0359H38.9145C40.3544 75.0359 41.5219 73.8684 41.5219 72.4284V50.0861C41.5219 48.6461 40.3544 47.4787 38.9145 47.4787H24.9508Z" fill="#FFA000"/>
<path d="M24.9508 52.6918C15.5919 52.6918 8.00781 60.2776 8.00781 69.6348V72.4284C8.00781 73.8684 9.17524 75.0358 10.6152 75.0358H38.9145C40.3544 75.0358 41.5219 73.8684 41.5219 72.4284V55.2992C41.5219 53.8592 40.3544 52.6918 38.9145 52.6918H24.9508Z" fill="#FFC800"/>
<path d="M24.9508 58.6506C18.8824 58.6506 13.9648 63.5682 13.9648 69.6348V72.4284C13.9648 73.8684 15.1323 75.0358 16.5723 75.0358H38.9144C40.3544 75.0358 41.5218 73.8684 41.5218 72.4284V61.258C41.5218 59.818 40.3544 58.6506 38.9144 58.6506H24.9508Z" fill="#FFA000"/>
<path d="M24.9508 63.8638C21.7628 63.8638 19.1797 66.4486 19.1797 69.6349V72.4284C19.1797 73.8684 20.3471 75.0359 21.7871 75.0359H38.9144C40.3544 75.0359 41.5218 73.8684 41.5218 72.4284V66.4712C41.5218 65.0312 40.3544 63.8638 38.9144 63.8638H24.9508Z" fill="#FFC800"/>
<path d="M55.6714 36.3068C38.8066 36.3068 25.135 49.9784 25.135 66.8415V72.4285C25.135 73.8685 26.3024 75.0359 27.7424 75.0359H83.6004C85.0403 75.0359 86.2078 73.8685 86.2078 72.4285V66.8415C86.2078 49.9784 72.5362 36.3068 55.6714 36.3068Z" fill="#FFE65A"/>
<path d="M86.2078 72.4285V66.8415C86.2078 49.9784 72.5362 36.3068 55.6714 36.3068V75.0359H83.6003C85.0403 75.0359 86.2078 73.8685 86.2078 72.4285Z" fill="#FFC800"/>
<path d="M55.6577 41.5216C41.6388 41.5291 30.3499 53.0666 30.3499 67.0855V72.4284C30.3499 73.8684 31.5173 75.0358 32.9573 75.0358H78.3855C79.8255 75.0358 80.9929 73.8684 80.9929 72.4284V66.8414C80.9929 52.8524 69.6484 41.5141 55.6577 41.5216Z" fill="#FFF0B4"/>
<path d="M80.9929 72.4284V66.8414C80.9929 52.8569 69.6559 41.5217 55.6714 41.5217V75.0358H78.3855C79.8255 75.0358 80.9929 73.8684 80.9929 72.4284Z" fill="#FFE65A"/>
<path d="M55.6008 47.4771C44.8992 47.5152 36.3069 56.3502 36.3069 67.0517V72.4284C36.3069 73.8684 37.4743 75.0358 38.9143 75.0358H72.4284C73.8684 75.0358 75.0358 73.8684 75.0358 72.4284V66.8414C75.0358 56.124 66.327 47.4389 55.6008 47.4771Z" fill="#FFE65A"/>
<path d="M75.0358 72.4284V66.8414C75.0358 56.1475 66.3653 47.4778 55.6714 47.4777V75.0357H72.4284C73.8684 75.0359 75.0358 73.8684 75.0358 72.4284Z" fill="#FFC800"/>
<path d="M55.566 52.6922C47.7634 52.7491 41.5217 59.2163 41.5217 67.0191V72.4283C41.5217 73.8683 42.6892 75.0357 44.1292 75.0357H67.2135C68.6535 75.0357 69.8209 73.8683 69.8209 72.4283V66.8413C69.8209 58.9928 63.4296 52.635 55.566 52.6922Z" fill="#FFF0B4"/>
<path d="M69.821 72.4284V66.8414C69.821 59.028 63.4865 52.6944 55.6714 52.694V75.0358H67.2136C68.6536 75.0358 69.821 73.8684 69.821 72.4284Z" fill="#FFE65A"/>
<path d="M55.5317 58.6501C51.0396 58.7248 47.4788 62.4835 47.4788 66.9763V72.4284C47.4788 73.8684 48.6462 75.0358 50.0862 75.0358H61.2564C62.6964 75.0358 63.8638 73.8684 63.8638 72.4284V66.8414C63.864 62.2702 60.1204 58.5736 55.5317 58.6501Z" fill="#FFE65A"/>
<path d="M63.8639 72.4284V66.8414C63.8639 62.3168 60.196 58.6515 55.6714 58.6513V75.0358H61.2565C62.6965 75.0358 63.8639 73.8684 63.8639 72.4284Z" fill="#FFC800"/>
<path d="M55.7282 63.8643C54.0596 63.8332 52.6938 65.2506 52.6938 66.9195V71.98C52.6938 73.649 54.0596 75.0663 55.7282 75.0352C57.3465 75.0052 58.6492 73.6835 58.6492 72.0581V66.8413C58.6492 65.216 57.3464 63.8946 55.7282 63.8643Z" fill="#FFF0B4"/>
<path d="M58.6491 72.0582V66.8414C58.6491 65.216 57.3462 63.8944 55.7281 63.8643C55.7089 63.8639 55.6905 63.8662 55.6714 63.8662V75.0333C55.6905 75.0333 55.7089 75.0357 55.7281 75.0352C57.3462 75.0053 58.6491 73.6837 58.6491 72.0582Z" fill="#FFE65A"/>
<path d="M67.3213 89H21.6767C19.5196 89 17.4083 88.1256 15.8839 86.601L3.55631 74.2718C2.81059 73.5261 2.58774 72.4048 2.99137 71.4303C3.395 70.4561 4.34567 69.8208 5.40028 69.8208H83.5998C84.6544 69.8208 85.6051 70.456 86.0087 71.4305C86.4122 72.4048 86.1892 73.5263 85.4434 74.272L73.1143 86.601C71.5673 88.148 69.51 89 67.3213 89Z" fill="#E6E3DC"/>
<path d="M55.6714 89H67.3215C69.5102 89 71.5674 88.148 73.1143 86.601L85.4435 74.272C86.1892 73.5263 86.4122 72.4049 86.0087 71.4305C85.6051 70.4561 84.6544 69.8208 83.5998 69.8208H55.6714V89Z" fill="#D2D2C8"/>
<path d="M86.3926 75.0359H2.60742C1.16743 75.0359 0 73.8685 0 72.4285C0 70.9885 1.16743 69.821 2.60742 69.821H86.3926C87.8326 69.821 89 70.9885 89 72.4285C89 73.8685 87.8326 75.0359 86.3926 75.0359Z" fill="#FAF5F0"/>
<path d="M55.6714 75.0359H86.3925C87.8325 75.0359 89 73.8685 89 72.4285C89 70.9885 87.8325 69.821 86.3925 69.821H55.6714V75.0359Z" fill="#E6E3DC"/>
</g>
<defs>
<clipPath id="clip0">
<rect width="89" height="89" fill="white"/>
</clipPath>
</defs>
</svg>
