<svg width="92" height="89" viewBox="0 0 92 89" fill="none" xmlns="http://www.w3.org/2000/svg">
<g clip-path="url(#clip0)">
<path d="M11.193 16.3863H5.60742C4.16743 16.3863 3 15.2189 3 13.7789C3 12.3389 4.16743 11.1714 5.60742 11.1714H11.193C12.633 11.1714 13.8005 12.3389 13.8005 13.7789C13.8005 15.2189 12.633 16.3863 11.193 16.3863Z" fill="#E6E3DC"/>
<path d="M11.193 16.3863H5.60742C4.16743 16.3863 3 15.2189 3 13.7789H13.8005C13.8005 15.2189 12.633 16.3863 11.193 16.3863Z" fill="#D2D2C8"/>
<path d="M83.8068 5.58562L42.9944 5.58579L40.1459 2.73727C38.3789 0.972221 36.0314 0 33.5359 0C32.0959 0 30.9285 1.16743 30.9285 2.60742V24.9501C30.9285 26.3901 32.0959 27.5575 33.5359 27.5575C36.0335 27.5575 38.3813 26.5849 40.1469 24.8192L42.9944 21.9719H83.807C88.3319 21.9719 92.0002 18.3036 92.0002 13.7787C92.0002 9.25374 88.3317 5.58562 83.8068 5.58562V5.58562Z" fill="#E6E3DC"/>
<path d="M30.9285 24.9501C30.9285 26.3901 32.0959 27.5575 33.5359 27.5575C36.0335 27.5575 38.3813 26.5849 40.1469 24.8192L42.9944 21.9719H83.807C88.3319 21.9719 92.0002 18.3036 92.0002 13.7787H30.9285V24.9501Z" fill="#D2D2C8"/>
<path d="M11.193 5.21484H5.60742C4.16743 5.21484 3 4.04741 3 2.60742C3 1.16743 4.16743 0 5.60742 0H11.193C12.633 0 13.8005 1.16743 13.8005 2.60742C13.8005 4.04741 12.633 5.21484 11.193 5.21484Z" fill="#E6E3DC"/>
<path d="M11.193 27.5575H5.60742C4.16743 27.5575 3 26.3901 3 24.9501C3 23.5101 4.16743 22.3427 5.60742 22.3427H11.193C12.633 22.3427 13.8005 23.5101 13.8005 24.9501C13.8005 26.3901 12.633 27.5575 11.193 27.5575Z" fill="#D2D2C8"/>
<path d="M11.1929 0H33.5355V75.0353H11.1929V0Z" fill="#FFE65A"/>
<path d="M11.1929 13.7789H33.5355V75.0355H11.1929V13.7789Z" fill="#FFC800"/>
<path d="M22.3645 75.0353C20.9245 75.0353 19.7571 73.8679 19.7571 72.4279V2.60742C19.7571 1.16743 20.9245 0 22.3645 0C23.8045 0 24.9719 1.16743 24.9719 2.60742V72.4279C24.9719 73.8679 23.8045 75.0353 22.3645 75.0353Z" fill="#FFF0B4"/>
<path d="M11.1929 75.0353C9.75288 75.0353 8.58545 73.8679 8.58545 72.4279V2.60742C8.58545 1.16743 9.75288 0 11.1929 0C12.6329 0 13.8003 1.16743 13.8003 2.60742V72.4279C13.8003 73.8679 12.6329 75.0353 11.1929 75.0353Z" fill="#FFF0B4"/>
<path d="M33.5359 75.0353C32.0959 75.0353 30.9285 73.8679 30.9285 72.4279V2.60742C30.9285 1.16743 32.0959 0 33.5359 0C34.9759 0 36.1433 1.16743 36.1433 2.60742V72.4279C36.1433 73.8679 34.9759 75.0353 33.5359 75.0353Z" fill="#FFF0B4"/>
<path d="M22.3643 75.0354C23.8043 75.0354 24.9717 73.868 24.9717 72.428V13.7789H19.7568V72.4281C19.7568 73.868 20.9243 75.0354 22.3643 75.0354V75.0354Z" fill="#FFE65A"/>
<path d="M11.1929 75.0354C12.6329 75.0354 13.8003 73.868 13.8003 72.428V13.7789H8.58545V72.4281C8.58545 73.868 9.75288 75.0354 11.1929 75.0354V75.0354Z" fill="#FFE65A"/>
<path d="M33.5356 75.0354C34.9756 75.0354 36.1431 73.868 36.1431 72.428V13.7789H30.9282V72.4281C30.9282 73.868 32.0955 75.0354 33.5356 75.0354V75.0354Z" fill="#FFE65A"/>
<path d="M27.9508 47.4787C15.7133 47.4787 5.79297 57.3991 5.79297 69.6348V72.4284C5.79297 73.8684 6.9604 75.0359 8.40039 75.0359H41.9145C43.3544 75.0359 44.5219 73.8684 44.5219 72.4284V50.0861C44.5219 48.6461 43.3544 47.4787 41.9145 47.4787H27.9508Z" fill="#FFA000"/>
<path d="M27.9508 52.6918C18.5919 52.6918 11.0078 60.2776 11.0078 69.6348V72.4284C11.0078 73.8684 12.1752 75.0358 13.6152 75.0358H41.9145C43.3544 75.0358 44.5219 73.8684 44.5219 72.4284V55.2992C44.5219 53.8592 43.3544 52.6918 41.9145 52.6918H27.9508Z" fill="#FFC800"/>
<path d="M27.9505 58.6506C21.8822 58.6506 16.9646 63.5682 16.9646 69.6348V72.4284C16.9646 73.8684 18.132 75.0358 19.572 75.0358H41.9142C43.3541 75.0358 44.5216 73.8684 44.5216 72.4284V61.2581C44.5216 59.8181 43.3541 58.6506 41.9142 58.6506H27.9505Z" fill="#FFA000"/>
<path d="M2.0705 57.6707L0.855343 62.7342C0.600473 63.7874 0.635918 64.89 0.957906 65.9247C1.27989 66.9593 1.87638 67.8873 2.68388 68.6099C5.01023 70.6804 9.24191 73.2436 16.5248 74.3379C29.682 76.3143 38.4745 75.7669 44.036 77.2C49.5974 78.6331 56.9977 79.9907 60.7518 78.0866C64.3047 76.2848 64.147 71.4872 65.009 69.2345C65.099 68.9993 65.11 68.7411 65.0405 68.4991C64.9709 68.257 64.8245 68.0441 64.6234 67.8925C59.8515 64.2932 31.7641 43.8164 19.5639 51.003C9.90467 56.6936 5.2102 57.0369 3.35294 56.791C3.06822 56.753 2.77952 56.8219 2.54264 56.9844C2.30577 57.1469 2.13755 57.3914 2.0705 57.6707V57.6707Z" fill="url(#paint0_linear)"/>
<path d="M7.60602 49.06C7.60602 49.06 21.5557 43.4276 33.1367 47.6659C37.4343 49.2386 40.719 50.5352 43.1521 51.5458C45.9111 52.6959 48.4519 54.3117 50.6634 56.3227C51.5929 57.1658 52.9764 58.0879 54.9804 58.7642C59.7606 60.3769 65.0636 63.9122 65.1318 66.9088C65.2 69.9054 65.6043 73.3473 55.2041 72.1865C44.8038 71.0258 10.294 66.8753 4.52304 61.3941C-1.24796 55.9128 5.35102 54.3553 5.35102 54.3553C5.35102 54.3553 6.29134 53.3079 6.11198 52.2097C5.93261 51.1116 7.60602 49.06 7.60602 49.06Z" fill="url(#paint1_linear)"/>
<path d="M7.9189 54.1138C7.9189 54.1138 6.77418 50.8864 9.58651 50.0358C12.3988 49.1851 18.647 47.1414 27.8285 48.459C37.0101 49.7766 42.9661 53.6665 42.9661 53.6665C42.9661 53.6665 44.2486 54.2695 48.0716 55.9743C51.8946 57.6792 48.6672 58.8239 48.6672 58.8239C48.6672 58.8239 38.0079 59.563 34.2779 59.1108C30.548 58.6585 22.5484 58.3627 21.0054 58.4354C19.4624 58.508 16.2052 56.496 14.7739 56.1033C13.3426 55.7106 9.03756 57.0396 7.9189 54.1138Z" fill="url(#paint2_linear)"/>
<path d="M61.908 64.7572C62.0568 63.3166 58.7066 62.5126 56.9905 61.461C55.2744 60.4094 54.1688 60.0949 52.745 60.4914C51.3211 60.8878 48.4046 60.5324 46.977 60.5343C45.5494 60.5362 39.9229 60.8099 39.3292 61.8485C38.9057 62.5878 39.3921 65.3694 39.7061 66.9093C39.8613 67.6871 40.3149 68.3733 40.9698 68.8207C41.1286 68.9282 41.2777 69.0103 41.394 69.0382C41.8593 69.1498 52.3139 70.084 55.4148 70.2868C58.5156 70.4896 60.2205 70.3575 61.9663 69.6446C63.7122 68.9317 61.7591 66.1978 61.908 64.7572Z" fill="url(#paint3_linear)"/>
<path d="M36.9903 61.8531C35.6986 61.4939 24.0937 60.4313 20.7025 60.2081C17.3113 59.9848 16.403 58.4381 15.0406 57.9635C13.6781 57.4889 11.145 57.1762 9.9575 56.7929C8.77001 56.4095 6.41554 56.5826 6.41554 56.5826C6.41554 56.5826 5.70641 56.4616 5.14432 57.1633C4.58224 57.865 5.60783 60.7685 8.10006 61.6619C10.5923 62.5553 27.1053 67.1578 31.4848 67.5691C35.8644 67.9803 37.4724 64.9707 37.5729 64.5519C37.6734 64.1331 38.282 62.2123 36.9903 61.8531Z" fill="url(#paint4_linear)"/>
<path d="M27.9505 63.8638C24.7625 63.8638 22.1794 66.4486 22.1794 69.6349V72.4284C22.1794 73.8684 23.3469 75.0359 24.7869 75.0359H41.9142C43.3541 75.0359 44.5216 73.8684 44.5216 72.4284V66.4712C44.5216 65.0312 43.3541 63.8638 41.9142 63.8638H27.9505Z" fill="#FFC800"/>
<path d="M58.6714 36.3068C41.8066 36.3068 28.135 49.9784 28.135 66.8415V72.4285C28.135 73.8685 29.3024 75.0359 30.7424 75.0359H86.6004C88.0403 75.0359 89.2078 73.8685 89.2078 72.4285V66.8415C89.2078 49.9784 75.5362 36.3068 58.6714 36.3068V36.3068Z" fill="#FFE65A"/>
<path d="M89.2078 72.4285V66.8415C89.2078 49.9784 75.5362 36.3068 58.6714 36.3068V75.0359H86.6003C88.0403 75.0359 89.2078 73.8685 89.2078 72.4285V72.4285Z" fill="#FFC800"/>
<path d="M58.6577 41.5216C44.6388 41.5291 33.3499 53.0666 33.3499 67.0855V72.4284C33.3499 73.8684 34.5173 75.0358 35.9573 75.0358H81.3855C82.8255 75.0358 83.9929 73.8684 83.9929 72.4284V66.8414C83.9929 52.8524 72.6484 41.5141 58.6577 41.5216Z" fill="#FFF0B4"/>
<path d="M83.9929 72.4284V66.8414C83.9929 52.8569 72.6559 41.5217 58.6714 41.5217V75.0358H81.3855C82.8255 75.0358 83.9929 73.8684 83.9929 72.4284Z" fill="#FFE65A"/>
<path d="M58.6008 47.4771C47.8992 47.5152 39.3069 56.3502 39.3069 67.0517V72.4284C39.3069 73.8684 40.4743 75.0358 41.9143 75.0358H75.4284C76.8684 75.0358 78.0358 73.8684 78.0358 72.4284V66.8414C78.0358 56.124 69.327 47.4389 58.6008 47.4771V47.4771Z" fill="#FFE65A"/>
<path d="M78.0358 72.4284V66.8414C78.0358 56.1475 69.3653 47.4778 58.6714 47.4777V75.0357H75.4284C76.8684 75.0359 78.0358 73.8684 78.0358 72.4284V72.4284Z" fill="#FFC800"/>
<path d="M58.566 52.6922C50.7634 52.7491 44.5217 59.2163 44.5217 67.0191V72.4283C44.5217 73.8683 45.6892 75.0357 47.1292 75.0357H70.2135C71.6535 75.0357 72.8209 73.8683 72.8209 72.4283V66.8413C72.8209 58.9928 66.4296 52.635 58.566 52.6922V52.6922Z" fill="#FFF0B4"/>
<path d="M72.821 72.4284V66.8414C72.821 59.028 66.4865 52.6944 58.6714 52.694V75.0358H70.2136C71.6536 75.0358 72.821 73.8684 72.821 72.4284V72.4284Z" fill="#FFE65A"/>
<path d="M58.5317 58.6501C54.0396 58.7248 50.4788 62.4835 50.4788 66.9763V72.4284C50.4788 73.8684 51.6462 75.0358 53.0862 75.0358H64.2564C65.6964 75.0358 66.8638 73.8684 66.8638 72.4284V66.8414C66.864 62.2702 63.1204 58.5736 58.5317 58.6501Z" fill="#FFE65A"/>
<path d="M66.8639 72.4284V66.8414C66.8639 62.3168 63.196 58.6515 58.6714 58.6513V75.0358H64.2565C65.6965 75.0358 66.8639 73.8684 66.8639 72.4284Z" fill="#FFC800"/>
<path d="M58.7279 63.8643C57.0594 63.8332 55.6936 65.2506 55.6936 66.9195V71.98C55.6936 73.649 57.0594 75.0663 58.7279 75.0352C60.3463 75.0052 61.649 73.6835 61.649 72.0581V66.8413C61.649 65.216 60.3461 63.8946 58.7279 63.8643V63.8643Z" fill="#FFF0B4"/>
<path d="M61.6491 72.0582V66.8414C61.6491 65.216 60.3462 63.8944 58.7281 63.8643C58.7089 63.8639 58.6905 63.8662 58.6714 63.8662V75.0333C58.6905 75.0333 58.7089 75.0357 58.7281 75.0352C60.3462 75.0053 61.6491 73.6837 61.6491 72.0582V72.0582Z" fill="#FFE65A"/>
<path d="M70.3213 89H24.6767C22.5196 89 20.4083 88.1256 18.8839 86.601L6.55631 74.2718C5.81059 73.5261 5.58774 72.4048 5.99137 71.4303C6.395 70.4561 7.34567 69.8208 8.40028 69.8208H86.5998C87.6544 69.8208 88.6051 70.456 89.0087 71.4305C89.4122 72.4048 89.1892 73.5263 88.4434 74.272L76.1143 86.601C74.5673 88.148 72.51 89 70.3213 89V89Z" fill="#E6E3DC"/>
<path d="M58.6714 89H70.3215C72.5102 89 74.5674 88.148 76.1143 86.601L88.4435 74.272C89.1892 73.5263 89.4122 72.4049 89.0087 71.4305C88.6051 70.4561 87.6544 69.8208 86.5998 69.8208H58.6714V89Z" fill="#D2D2C8"/>
<path d="M89.3926 75.0359H5.60742C4.16743 75.0359 3 73.8685 3 72.4285C3 70.9885 4.16743 69.821 5.60742 69.821H89.3926C90.8326 69.821 92 70.9885 92 72.4285C92 73.8685 90.8326 75.0359 89.3926 75.0359Z" fill="#FAF5F0"/>
<path d="M58.6714 75.0359H89.3925C90.8325 75.0359 92 73.8685 92 72.4285C92 70.9885 90.8325 69.821 89.3925 69.821H58.6714V75.0359Z" fill="#E6E3DC"/>
</g>
<defs>
<linearGradient id="paint0_linear" x1="2.20483" y1="57.1109" x2="64.3493" y2="72.0244" gradientUnits="userSpaceOnUse">
<stop stop-color="#823634"/>
<stop offset="1" stop-color="#6D2F3D"/>
</linearGradient>
<linearGradient id="paint1_linear" x1="3.47281" y1="51.6477" x2="65.7057" y2="66.5825" gradientUnits="userSpaceOnUse">
<stop stop-color="#D67D52"/>
<stop offset="0.5" stop-color="#B44A32"/>
<stop offset="1" stop-color="#D67D52"/>
</linearGradient>
<linearGradient id="paint2_linear" x1="8.33645" y1="49.5399" x2="49.525" y2="59.4244" gradientUnits="userSpaceOnUse">
<stop stop-color="#A65252"/>
<stop offset="1" stop-color="#913031"/>
</linearGradient>
<linearGradient id="paint3_linear" x1="39.1188" y1="62.5854" x2="62.7991" y2="68.2682" gradientUnits="userSpaceOnUse">
<stop stop-color="#8E2C2E"/>
<stop offset="1" stop-color="#A65252"/>
</linearGradient>
<linearGradient id="paint4_linear" x1="1365.27" y1="2918.41" x2="23920.7" y2="8331.29" gradientUnits="userSpaceOnUse">
<stop stop-color="#9F4242"/>
<stop offset="0.0885417" stop-color="#E60003"/>
</linearGradient>
<clipPath id="clip0">
<rect width="92" height="89" fill="white"/>
</clipPath>
</defs>
</svg>
