<svg width="89" height="89" viewBox="0 0 89 89" fill="none" xmlns="http://www.w3.org/2000/svg">
<g clip-path="url(#clip0)">
<path d="M6.82724 10H2.17276C0.972816 10 0 9.3284 0 8.5C0 7.6716 0.972816 7 2.17276 7H6.82724C8.02718 7 9 7.6716 9 8.5C9 9.3284 8.02718 10 6.82724 10Z" fill="#E6E3DC"/>
<path d="M6.82724 10H2.17276C0.972816 10 0 9.55227 0 9H9C9 9.55227 8.02718 10 6.82724 10Z" fill="#D2D2C8"/>
<path d="M73.3529 5.22959L35.2615 5.22966L32.6029 4.09262C30.9537 3.38808 28.7627 3 26.4336 3C25.0896 3 24 3.466 24 4.04079V12.9592C24 13.534 25.0896 14 26.4336 14C28.7646 14 30.956 13.6118 32.6038 12.907L35.2615 11.7704L73.3529 12C77.5761 12 81 12 81 8.49997C81 5.5 77.5761 5.22959 73.3529 5.22959Z" fill="#E6E3DC"/>
<path d="M24 13.0538C24 13.5764 25.0896 14 26.4336 14C28.7646 14 30.956 13.6471 32.6038 13.0063L35.2615 11.9731H73.353C79 11.9731 81 10.642 81 9H24V13.0538Z" fill="#D2D2C8"/>
<path d="M6.82724 3H2.17276C0.972816 3 0 2.3284 0 1.5C0 0.6716 0.972816 0 2.17276 0H6.82724C8.02718 0 9 0.6716 9 1.5C9 2.3284 8.02718 3 6.82724 3Z" fill="#E6E3DC"/>
<path d="M6.82724 17H2.17276C0.972816 17 0 16.3284 0 15.5C0 14.6716 0.972816 14 2.17276 14H6.82724C8.02718 14 9 14.6716 9 15.5C9 16.3284 8.02718 17 6.82724 17Z" fill="#D2D2C8"/>
<path d="M8.19312 0H30.5358V75.0353H8.19312V0Z" fill="#FFE65A"/>
<path d="M8.19312 13.7789H30.5358V75.0355H8.19312V13.7789Z" fill="#FFC800"/>
<path d="M19.3645 75.0353C17.9245 75.0353 16.7571 73.8679 16.7571 72.4279V2.60742C16.7571 1.16743 17.9245 0 19.3645 0C20.8045 0 21.9719 1.16743 21.9719 2.60742V72.4279C21.9719 73.8679 20.8045 75.0353 19.3645 75.0353Z" fill="#FFF0B4"/>
<path d="M8.19312 75.0353C6.75312 75.0353 5.58569 73.8679 5.58569 72.4279V2.60742C5.58569 1.16743 6.75312 0 8.19312 0C9.63311 0 10.8005 1.16743 10.8005 2.60742V72.4279C10.8005 73.8679 9.63311 75.0353 8.19312 75.0353Z" fill="#FFF0B4"/>
<path d="M30.5359 75.0353C29.0959 75.0353 27.9285 73.8679 27.9285 72.4279V2.60742C27.9285 1.16743 29.0959 0 30.5359 0C31.9759 0 33.1433 1.16743 33.1433 2.60742V72.4279C33.1433 73.8679 31.9759 75.0353 30.5359 75.0353Z" fill="#FFF0B4"/>
<path d="M19.3645 75.0354C20.8045 75.0354 21.9719 73.868 21.9719 72.428V13.7789H16.7571V72.4281C16.7571 73.868 17.9245 75.0354 19.3645 75.0354V75.0354Z" fill="#FFE65A"/>
<path d="M8.19312 75.0354C9.63311 75.0354 10.8005 73.868 10.8005 72.428V13.7789H5.58569V72.4281C5.58569 73.868 6.75312 75.0354 8.19312 75.0354V75.0354Z" fill="#FFE65A"/>
<path d="M30.5359 75.0354C31.9759 75.0354 33.1433 73.868 33.1433 72.428V13.7789H27.9285V72.4281C27.9285 73.868 29.0957 75.0354 30.5359 75.0354V75.0354Z" fill="#FFE65A"/>
<path d="M24.9508 47.4787C12.7133 47.4787 2.79297 57.3991 2.79297 69.6348V72.4284C2.79297 73.8684 3.9604 75.0359 5.40039 75.0359H38.9145C40.3544 75.0359 41.5219 73.8684 41.5219 72.4284V50.0861C41.5219 48.6461 40.3544 47.4787 38.9145 47.4787H24.9508Z" fill="#FFA000"/>
<path d="M24.9508 52.6918C15.5919 52.6918 8.00781 60.2776 8.00781 69.6348V72.4284C8.00781 73.8684 9.17524 75.0358 10.6152 75.0358H38.9145C40.3544 75.0358 41.5219 73.8684 41.5219 72.4284V55.2992C41.5219 53.8592 40.3544 52.6918 38.9145 52.6918H24.9508Z" fill="#FFC800"/>
<path d="M24.9508 58.6506C18.8824 58.6506 13.9648 63.5682 13.9648 69.6348V72.4284C13.9648 73.8684 15.1323 75.0358 16.5723 75.0358H38.9144C40.3544 75.0358 41.5218 73.8684 41.5218 72.4284V61.258C41.5218 59.818 40.3544 58.6506 38.9144 58.6506H24.9508Z" fill="#FFA000"/>
<path d="M24.9508 63.8638C21.7628 63.8638 19.1797 66.4486 19.1797 69.6349V72.4284C19.1797 73.8684 20.3471 75.0359 21.7871 75.0359H38.9144C40.3544 75.0359 41.5218 73.8684 41.5218 72.4284V66.4712C41.5218 65.0312 40.3544 63.8638 38.9144 63.8638H24.9508Z" fill="#FFC800"/>
<path d="M55.6714 36.3068C38.8066 36.3068 25.135 49.9784 25.135 66.8415V72.4285C25.135 73.8685 26.3024 75.0359 27.7424 75.0359H83.6004C85.0403 75.0359 86.2078 73.8685 86.2078 72.4285V66.8415C86.2078 49.9784 72.5362 36.3068 55.6714 36.3068V36.3068Z" fill="#FFE65A"/>
<path d="M86.2078 72.4285V66.8415C86.2078 49.9784 72.5362 36.3068 55.6714 36.3068V75.0359H83.6003C85.0403 75.0359 86.2078 73.8685 86.2078 72.4285V72.4285Z" fill="#FFC800"/>
<path d="M55.4851 39C40.2601 39.008 28 51.4013 28 66.4599V72.1992C28 73.746 29.2679 75 30.8317 75H80.1683C81.7321 75 83 73.746 83 72.1992V66.1978C83 51.1712 70.6795 38.992 55.4851 39Z" fill="#FFF0B4"/>
<path d="M82 72.3548V66.6868C82 52.4995 69.9114 41 55 41V75H79.2197C80.7552 75 82 73.8156 82 72.3548Z" fill="#FFE65A"/>
<path d="M77 72.1617V66.0796C77 54.4381 67.1494 45.0002 55 45V75H74.0377C75.6737 75.0002 77 73.7293 77 72.1617V72.1617Z" fill="#FFC800"/>
<path d="M29 72.3548V66.6868C29 52.4995 41.0886 41 56 41V75H31.7803C30.2448 75 29 73.8156 29 72.3548Z" fill="#FFEC81"/>
<path d="M34 72.1617V66.0796C34 54.4381 43.8506 45.0002 56 45V75H36.9623C35.3263 75.0002 34 73.7293 34 72.1617V72.1617Z" fill="#FFD335"/>
<path d="M54.9417 49.0001C46.0995 49.0388 39 58.0152 39 68.8881V74.3508C39 75.8139 39.9646 77 41.1544 77H68.8456C70.0354 77 71 75.8139 71 74.3508V68.6744C71 57.7855 63.8043 48.9613 54.9417 49.0001V49.0001Z" fill="#FFE65A"/>
<path d="M55.566 52.6922C47.7634 52.7491 41.5217 59.2163 41.5217 67.0191V72.4283C41.5217 73.8683 42.6892 75.0357 44.1292 75.0357H67.2135C68.6535 75.0357 69.8209 73.8683 69.8209 72.4283V66.8413C69.8209 58.9928 63.4296 52.635 55.566 52.6922V52.6922Z" fill="#FFD012"/>
<path d="M69.821 72.4284V66.8414C69.821 59.028 63.4865 52.6944 55.6714 52.694V75.0358H67.2136C68.6536 75.0358 69.821 73.8684 69.821 72.4284V72.4284Z" fill="#FFE65A"/>
<path d="M55.5317 58.6501C51.0396 58.7248 47.4788 62.4835 47.4788 66.9763V72.4284C47.4788 73.8684 48.6462 75.0358 50.0862 75.0358H61.2564C62.6964 75.0358 63.8638 73.8684 63.8638 72.4284V66.8414C63.864 62.2702 60.1204 58.5736 55.5317 58.6501Z" fill="#FFE65A"/>
<path d="M63.8639 72.4284V66.8414C63.8639 62.3168 60.196 58.6515 55.6714 58.6513V75.0358H61.2565C62.6965 75.0358 63.8639 73.8684 63.8639 72.4284Z" fill="#FFC800"/>
<path d="M55.7282 63.8643C54.0596 63.8332 52.6938 65.2506 52.6938 66.9195V71.98C52.6938 73.649 54.0596 75.0663 55.7282 75.0352C57.3465 75.0052 58.6492 73.6835 58.6492 72.0581V66.8413C58.6492 65.216 57.3464 63.8946 55.7282 63.8643V63.8643Z" fill="#FFF0B4"/>
<g clip-path="url(#clip1)">
<path fill-rule="evenodd" clip-rule="evenodd" d="M61.2466 68.7279L56.1815 66.3374C55.4612 65.9975 54.4921 66.2494 54.0287 66.8976C53.5651 67.5458 53.7759 68.3545 54.4962 68.6944L59.5612 71.0849C60.2815 71.4248 61.2506 71.1729 61.7141 70.5247C62.1775 69.8765 61.9669 69.0678 61.2466 68.7279Z" fill="#660E08"/>
<path fill-rule="evenodd" clip-rule="evenodd" d="M60.3949 60.4449L72.8718 66.3334C73.5923 66.6734 73.8028 67.4821 73.3393 68.1302C72.8759 68.7784 71.907 69.0304 71.1865 68.6904L58.7095 62.8019C57.989 62.4619 57.7785 61.6532 58.242 61.0051C58.7054 60.3568 59.6743 60.1049 60.3949 60.4449V60.4449ZM54.0286 66.8976C53.565 67.5458 53.7758 68.3545 54.4961 68.6944L59.5611 71.0849C60.2814 71.4248 61.2505 71.1729 61.714 70.5247C62.1774 69.8765 61.9668 69.0678 61.2465 68.7279L56.1814 66.3374C55.4611 65.9975 54.492 66.2494 54.0286 66.8976ZM47.0661 69.4396C48.5268 75.0534 58.0941 77.4229 68.4354 74.7322C78.7767 72.0415 85.9758 65.3094 84.5152 59.6957C83.0545 54.0819 73.4872 51.7123 63.1459 54.403C52.8046 57.0938 45.6055 63.8259 47.0661 69.4396ZM70.3348 60.4074L75.3998 62.7979C76.1201 63.1378 77.0892 62.8859 77.5527 62.2377C78.0161 61.5895 77.8055 60.7808 77.0852 60.4409L72.0201 58.0504C71.2998 57.7104 70.3307 57.9623 69.8673 58.6105C69.4038 59.2588 69.6145 60.0675 70.3348 60.4074Z" fill="url(#paint0_linear)"/>
<path fill-rule="evenodd" clip-rule="evenodd" d="M70.3348 60.4074L75.3998 62.7979C76.1201 63.1378 77.0892 62.8859 77.5527 62.2377C78.0161 61.5895 77.8055 60.7808 77.0851 60.4408L72.0201 58.0504C71.2998 57.7104 70.3307 57.9623 69.8672 58.6105C69.4038 59.2587 69.6145 60.0674 70.3348 60.4074Z" fill="#660E08"/>
<path fill-rule="evenodd" clip-rule="evenodd" d="M72.8717 66.3334L60.3947 60.4449C59.6742 60.1049 58.7053 60.3568 58.2419 61.0051C57.7783 61.6533 57.9889 62.4619 58.7094 62.8019L71.1864 68.6904C71.9069 69.0304 72.8758 68.7784 73.3392 68.1302C73.8027 67.4821 73.5923 66.6734 72.8717 66.3334Z" fill="#660E08"/>
<path fill-rule="evenodd" clip-rule="evenodd" d="M84.5152 59.6957C85.9759 65.3095 78.7767 72.0415 68.4354 74.7323C58.0942 77.423 48.5268 75.0533 47.0662 69.4396L48.3886 74.5221C49.8492 80.1359 59.4166 82.5055 69.7579 79.8147C80.0991 77.124 87.2983 70.3919 85.8376 64.7782L84.5152 59.6957Z" fill="#660E08"/>
<path d="M77.4373 53.2946C69.1836 51.0889 56.2587 54.4519 50.1269 60.4007C46.898 63.4199 45.5408 66.7003 46.3051 69.6376L47.6275 74.7201C48.3917 77.6574 51.1757 79.8604 55.4666 80.9231C63.7202 83.129 76.6454 79.7658 82.7771 73.8171C86.0059 70.7979 87.3632 67.5174 86.5989 64.5801L85.2765 59.4976C84.5122 56.5603 81.7282 54.3574 77.4373 53.2946ZM51.2339 61.2497C54.1662 58.5078 58.4553 56.3018 63.3113 55.0383C68.1673 53.7748 72.9876 53.6105 76.8844 54.5756C84.6383 56.4012 86.2301 62.5119 80.3474 67.8855C77.4153 70.6276 73.1261 72.8335 68.2702 74.0969C63.4143 75.3604 58.5939 75.5247 54.6971 74.5595C46.9432 72.734 45.3514 66.6234 51.2339 61.2497V61.2497ZM85.0765 64.9762C86.4351 71.6152 77.1761 77.2539 69.5927 79.1795C62.0366 81.1955 51.1942 80.7807 49.1498 74.324L48.925 73.4601C50.2503 74.5021 52.011 75.3123 54.1442 75.8405C62.3978 78.0464 75.323 74.6833 81.4547 68.7346C83.0599 67.2336 84.2024 65.668 84.8518 64.1122L85.0766 64.9762L85.0765 64.9762Z" fill="url(#paint1_linear)"/>
<path d="M61.5785 64.944C61.9404 65.1146 62.4222 64.9893 62.655 64.6639C62.8877 64.3385 62.783 63.9362 62.4212 63.7654L59.1309 62.2126C58.7697 62.0421 58.6648 61.6391 58.897 61.3142C59.1294 60.9893 59.6124 60.8636 59.9736 61.034L72.4506 66.9225C73.2975 67.367 72.4985 68.4762 71.6079 68.101L68.3171 66.5479C67.9553 66.3773 67.4735 66.5027 67.2406 66.828C67.0079 67.1535 67.1126 67.5557 67.4744 67.7265L70.7652 69.2795C71.2886 69.5267 71.9134 69.5752 72.5247 69.4161C73.1358 69.2571 73.6578 68.9103 73.9945 68.4393C74.6914 67.4646 74.3768 66.2555 73.2932 65.744L60.8163 59.8556C59.7327 59.3443 58.284 59.7212 57.5868 60.6959C56.8899 61.6705 57.2045 62.8797 58.2881 63.3912L61.5785 64.944Z" fill="url(#paint2_linear)"/>
<path d="M59.1399 71.6741C59.6632 71.9212 60.2881 71.9697 60.8993 71.8107L60.8995 71.8107C61.5106 71.6516 62.0326 71.3047 62.3693 70.8339C63.0663 69.8591 62.7517 68.6501 61.668 68.1386L56.6029 65.7481C55.5194 65.2367 54.0706 65.6136 53.3736 66.5883C53.3735 66.5883 53.3735 66.5883 53.3735 66.5883C52.6765 67.5631 52.9911 68.7722 54.0748 69.2837L59.1399 71.6741ZM54.6837 67.2067C54.9161 66.882 55.3989 66.7562 55.7602 66.9267L60.8254 69.3171C61.1866 69.4875 61.2915 69.8906 61.0591 70.2155C60.9476 70.3716 60.7734 70.4869 60.5689 70.5401C60.3643 70.5932 60.1562 70.5775 59.9828 70.4956L54.9177 68.1051C54.5563 67.9347 54.4514 67.5317 54.6837 67.2067V67.2067Z" fill="url(#paint3_linear)"/>
<path d="M74.9785 63.387C75.5018 63.6341 76.1267 63.6826 76.7379 63.5236C77.3491 63.3647 77.8711 63.0177 78.2078 62.5468C78.9048 61.5721 78.5902 60.363 77.5065 59.8515L72.4414 57.461C71.3577 56.9496 69.9091 57.3266 69.2121 58.3013L69.2121 58.3013C68.5152 59.276 68.8298 60.4851 69.9134 60.9967L74.9785 63.387ZM70.5224 58.9196C70.7548 58.5948 71.2378 58.4692 71.5988 58.6396L76.6639 61.0301C76.8373 61.1119 76.9573 61.251 77.0018 61.4217C77.0462 61.5925 77.0092 61.7724 76.8976 61.9284C76.7861 62.0845 76.6119 62.1997 76.4075 62.2529L76.4074 62.253C76.2029 62.3061 75.9948 62.2904 75.8213 62.2085L70.7562 59.8181C70.3949 59.6477 70.2901 59.2446 70.5224 58.9196V58.9196Z" fill="url(#paint4_linear)"/>
<path d="M53.4347 63.4587C54.4359 63.1623 54.122 61.9588 53.1041 62.1881L53.1036 62.1882C52.1024 62.4848 52.4169 63.6881 53.4347 63.4587Z" fill="url(#paint5_linear)"/>
<path d="M66.4189 70.7295L66.4183 70.7296C65.998 70.839 65.7315 71.2121 65.8228 71.5629C66.0823 72.395 67.5247 72.0197 67.3454 71.1667C67.2541 70.8159 66.8392 70.6201 66.4189 70.7295V70.7295Z" fill="url(#paint6_linear)"/>
<path d="M65.8249 58.6069C66.826 58.3106 66.5121 57.1071 65.4943 57.3364L65.4937 57.3365C64.4925 57.633 64.8071 58.8364 65.8249 58.6069Z" fill="url(#paint7_linear)"/>
<path d="M77.4846 65.0014L77.484 65.0016C77.0637 65.1109 76.7972 65.484 76.8884 65.8348C77.1479 66.6669 78.5903 66.2916 78.4111 65.4386C78.3198 65.0878 77.9049 64.892 77.4846 65.0014V65.0014Z" fill="url(#paint8_linear)"/>
<path d="M64.5879 66.361C64.9672 66.5011 65.4388 66.3416 65.6387 66.0007C65.8377 65.6612 65.6898 65.2719 65.3084 65.1313L65.3079 65.1311C64.9267 64.9906 64.4563 65.1519 64.2573 65.4915C64.0584 65.831 64.2064 66.2203 64.5879 66.361V66.361Z" fill="url(#paint9_linear)"/>
</g>
<g clip-path="url(#clip2)">
<path fill-rule="evenodd" clip-rule="evenodd" d="M43.1134 68.5194L37.9069 67.572C37.1664 67.4373 36.3432 67.9036 36.0782 68.6082C35.8131 69.313 36.2026 69.9998 36.943 70.1346L42.1495 71.0819C42.89 71.2166 43.7132 70.7503 43.9783 70.0456C44.2433 69.3409 43.8538 68.654 43.1134 68.5194Z" fill="#660E08"/>
<path fill-rule="evenodd" clip-rule="evenodd" d="M40.3166 61.1657L53.1421 63.4992C53.8827 63.634 54.272 64.3208 54.007 65.0255C53.7419 65.7302 52.9189 66.1965 52.1783 66.0617L39.3528 63.7282C38.6122 63.5935 38.2228 62.9066 38.4879 62.2019C38.753 61.4972 39.576 61.0309 40.3166 61.1657V61.1657ZM36.0782 68.6083C35.8131 69.313 36.2026 69.9998 36.9431 70.1346L42.1496 71.0819C42.89 71.2166 43.7132 70.7503 43.9783 70.0456C44.2434 69.341 43.8539 68.6541 43.1134 68.5193L37.9069 67.572C37.1665 67.4373 36.3432 67.9035 36.0782 68.6083ZM30.3421 72.6262C33.0442 77.3948 42.3556 77.2254 51.1399 72.2479C59.9241 67.2704 64.8548 59.3697 62.1528 54.6012C59.4507 49.8326 50.1393 50.0021 41.355 54.9795C32.5708 59.957 27.6401 67.8577 30.3421 72.6262ZM49.3814 58.7081L54.5879 59.6554C55.3283 59.7901 56.1516 59.3239 56.4166 58.6192C56.6817 57.9145 56.2922 57.2276 55.5518 57.0929L50.3452 56.1455C49.6048 56.0108 48.7815 56.477 48.5165 57.1818C48.2515 57.8865 48.641 58.5734 49.3814 58.7081Z" fill="url(#paint10_linear)"/>
<path fill-rule="evenodd" clip-rule="evenodd" d="M49.3815 58.7081L54.588 59.6554C55.3284 59.7901 56.1517 59.3238 56.4167 58.6192C56.6818 57.9145 56.2923 57.2276 55.5519 57.0929L50.3453 56.1455C49.6049 56.0108 48.7816 56.477 48.5166 57.1817C48.2516 57.8865 48.6411 58.5733 49.3815 58.7081Z" fill="#660E08"/>
<path fill-rule="evenodd" clip-rule="evenodd" d="M53.1421 63.4992L40.3166 61.1657C39.576 61.0309 38.7529 61.4972 38.4879 62.2019C38.2228 62.9067 38.6121 63.5935 39.3528 63.7282L52.1783 66.0618C52.9189 66.1965 53.7419 65.7302 54.007 65.0255C54.272 64.3208 53.8828 63.6339 53.1421 63.4992Z" fill="#660E08"/>
<path fill-rule="evenodd" clip-rule="evenodd" d="M62.1527 54.6012C64.8547 59.3697 59.924 67.2704 51.1398 72.2479C42.3555 77.2253 33.044 77.3947 30.342 72.6262L32.7884 76.9435C35.4904 81.712 44.8018 81.5426 53.5861 76.5651C62.3704 71.5876 67.301 63.6869 64.599 58.9184L62.1527 54.6012Z" fill="#660E08"/>
<path d="M54.131 50.4835C46.0587 50.4822 35.0798 56.7033 30.9326 63.6287C28.7211 67.1721 28.2819 70.4975 29.6957 72.9926L32.142 77.3099C33.5558 79.8049 36.6343 81.1372 40.8104 81.0612C48.8827 81.0626 59.8618 74.8414 64.009 67.916C66.2203 64.3727 66.6596 61.0471 65.2458 58.552L62.7995 54.2348C61.3856 51.7398 58.3072 50.4075 54.131 50.4835ZM32.1502 64.1338C34.1584 60.9159 37.5361 57.8565 41.6609 55.5192C45.7857 53.1819 50.146 51.8567 53.9386 51.7877C61.462 51.5638 64.4049 56.754 60.3448 63.0936C58.3367 66.3116 54.959 69.371 50.8342 71.7083C46.7094 74.0455 42.3491 75.3707 38.5565 75.4397C31.0331 75.6636 28.0903 70.4735 32.1502 64.1338V64.1338ZM63.9526 59.2848C66.8114 65.0142 59.7338 72.4189 53.2806 76.0255C46.8744 79.7081 36.8755 81.9728 33.4351 76.5771L33.0193 75.8433C34.4831 76.4714 36.288 76.7817 38.3641 76.7439C46.4363 76.7453 57.4155 70.5241 61.5626 63.5987C62.662 61.8372 63.3233 60.1295 63.5369 58.5509L63.9527 59.2848L63.9526 59.2848Z" fill="url(#paint11_linear)"/>
<path d="M42.4942 64.9843C42.8661 65.0518 43.2754 64.8199 43.4086 64.4661C43.5417 64.1123 43.3481 63.7706 42.9762 63.7029L39.5939 63.0876C39.2226 63.02 39.0286 62.6776 39.1614 62.3244C39.2943 61.9712 39.7046 61.7387 40.0759 61.8063L52.9013 64.1398C53.7828 64.3391 53.3238 65.5464 52.4194 65.4211L49.0367 64.8056C48.6648 64.738 48.2555 64.9699 48.1223 65.3237C47.9892 65.6775 48.1828 66.0192 48.5548 66.0869L51.9374 66.7024C52.4755 66.8004 53.0577 66.6923 53.5769 66.3981C54.096 66.1039 54.488 65.66 54.6806 65.148C55.0791 64.0883 54.4972 63.0612 53.3833 62.8585L40.5578 60.525C39.4439 60.3225 38.2134 61.0197 37.8146 62.0794C37.416 63.1391 37.998 64.1662 39.1119 64.369L42.4942 64.9843Z" fill="url(#paint12_linear)"/>
<path d="M41.9087 71.7225C42.4466 71.8204 43.0289 71.7124 43.548 71.4183L43.5482 71.4182C44.0673 71.124 44.4592 70.6801 44.6518 70.1682C45.0504 69.1084 44.4685 68.0814 43.3545 67.8786L38.1479 66.9313C37.0342 66.7287 35.8035 67.426 35.4048 68.4857C35.4048 68.4857 35.4048 68.4857 35.4048 68.4857C35.0062 69.5454 35.5881 70.5725 36.7021 70.7752L41.9087 71.7225ZM36.7516 68.7308C36.8845 68.3776 37.2946 68.1451 37.666 68.2126L42.8726 69.16C43.2439 69.2275 43.4379 69.5699 43.305 69.9231C43.2413 70.0928 43.1104 70.2404 42.9367 70.3389C42.7628 70.4373 42.5691 70.4737 42.3907 70.4412L37.1841 69.4939C36.8127 69.4264 36.6187 69.084 36.7516 68.7308V68.7308Z" fill="url(#paint13_linear)"/>
<path d="M54.3471 60.296C54.885 60.394 55.4673 60.2859 55.9865 59.9918C56.5057 59.6977 56.8976 59.2537 57.0902 58.7417C57.4888 57.682 56.9069 56.6549 55.7929 56.4522L50.5863 55.5049C49.4723 55.3022 48.2419 55.9996 47.8432 57.0592L47.8432 57.0593C47.4447 58.1189 48.0266 59.146 49.1406 59.3488L54.3471 60.296ZM49.1901 57.3042C49.3231 56.9511 49.7333 56.7186 50.1044 56.7862L55.311 57.7335C55.4893 57.766 55.6327 57.8637 55.7149 58.0087C55.7971 58.1537 55.8072 58.327 55.7434 58.4966C55.6796 58.6663 55.5487 58.814 55.3751 58.9124L55.375 58.9124C55.2012 59.0108 55.0075 59.0472 54.8292 59.0147L49.6226 58.0675C49.2512 57.9999 49.0572 57.6575 49.1901 57.3042V57.3042Z" fill="url(#paint14_linear)"/>
<path d="M34.6976 65.6138C35.5393 65.0992 34.9593 64.0771 34.086 64.5345L34.0856 64.5348C33.2439 65.0496 33.8244 66.0714 34.6976 65.6138Z" fill="url(#paint15_linear)"/>
<path d="M48.3233 69.0855L48.3228 69.0858C47.9658 69.2881 47.8134 69.6937 47.9823 69.9917C48.422 70.688 49.6473 69.9937 49.2757 69.2588C49.1068 68.9608 48.6804 68.8832 48.3233 69.0855V69.0855Z" fill="url(#paint16_linear)"/>
<path d="M44.8255 58.164C45.6672 57.6494 45.0872 56.6273 44.214 57.0848L44.2134 57.0851C43.3718 57.5998 43.9524 58.6216 44.8255 58.164Z" fill="url(#paint17_linear)"/>
<path d="M57.0284 61.1588L57.0279 61.1591C56.6709 61.3614 56.5185 61.7669 56.6874 62.0649C57.1271 62.7612 58.3523 62.067 57.9807 61.332C57.8119 61.034 57.3854 60.9565 57.0284 61.1588V61.1588Z" fill="url(#paint18_linear)"/>
<path d="M45.5866 65.5441C45.967 65.5795 46.3586 65.3189 46.458 64.959C46.5569 64.6006 46.327 64.2813 45.9445 64.2459L45.944 64.2459C45.5618 64.2106 45.1717 64.4725 45.0728 64.831C44.974 65.1894 45.2041 65.5087 45.5866 65.5441V65.5441Z" fill="url(#paint19_linear)"/>
</g>
<path d="M67.3213 89H21.6767C19.5196 89 17.4083 88.1256 15.8839 86.601L3.55631 74.2718C2.81059 73.5261 2.58774 72.4048 2.99137 71.4303C3.395 70.4561 4.34567 69.8208 5.40028 69.8208H83.5998C84.6544 69.8208 85.6051 70.456 86.0087 71.4305C86.4122 72.4048 86.1892 73.5263 85.4434 74.272L73.1143 86.601C71.5673 88.148 69.51 89 67.3213 89V89Z" fill="#E6E3DC"/>
<path d="M55.6714 89H67.3215C69.5102 89 71.5674 88.148 73.1143 86.601L85.4435 74.272C86.1892 73.5263 86.4122 72.4049 86.0087 71.4305C85.6051 70.4561 84.6544 69.8208 83.5998 69.8208H55.6714V89Z" fill="#D2D2C8"/>
<path d="M55.6714 75.0359H86.3925C87.8325 75.0359 89 73.8685 89 72.4285C89 70.9885 87.8325 69.821 86.3925 69.821H55.6714V75.0359Z" fill="#E6E3DC"/>
<path d="M86.3926 75.0359H2.60742C1.16743 75.0359 0 73.8685 0 72.4285C0 70.9885 1.16743 69.821 2.60742 69.821H86.3926C87.8326 69.821 89 70.9885 89 72.4285C89 73.8685 87.8326 75.0359 86.3926 75.0359Z" fill="#FAF5F0"/>
</g>
<defs>
<linearGradient id="paint0_linear" x1="63.1459" y1="54.403" x2="68.4354" y2="74.7322" gradientUnits="userSpaceOnUse">
<stop stop-color="#AE3227"/>
<stop offset="1" stop-color="#5C1100"/>
</linearGradient>
<linearGradient id="paint1_linear" x1="62.9865" y1="53.7897" x2="69.9175" y2="80.4281" gradientUnits="userSpaceOnUse">
<stop stop-color="#790E0E"/>
<stop offset="1" stop-color="#4F0F0F"/>
</linearGradient>
<linearGradient id="paint2_linear" x1="64.182" y1="58.3849" x2="67.3992" y2="70.7497" gradientUnits="userSpaceOnUse">
<stop stop-color="#790E0E"/>
<stop offset="1" stop-color="#4F0F0F"/>
</linearGradient>
<linearGradient id="paint3_linear" x1="56.9239" y1="65.0696" x2="58.8188" y2="72.352" gradientUnits="userSpaceOnUse">
<stop stop-color="#790E0E"/>
<stop offset="1" stop-color="#4F0F0F"/>
</linearGradient>
<linearGradient id="paint4_linear" x1="72.7625" y1="56.7825" x2="74.6573" y2="64.065" gradientUnits="userSpaceOnUse">
<stop stop-color="#790E0E"/>
<stop offset="1" stop-color="#4F0F0F"/>
</linearGradient>
<linearGradient id="paint5_linear" x1="53.104" y1="62.1881" x2="53.4346" y2="63.4587" gradientUnits="userSpaceOnUse">
<stop stop-color="#790E0E"/>
<stop offset="1" stop-color="#4F0F0F"/>
</linearGradient>
<linearGradient id="paint6_linear" x1="66.4188" y1="70.7295" x2="66.7485" y2="71.9967" gradientUnits="userSpaceOnUse">
<stop stop-color="#790E0E"/>
<stop offset="1" stop-color="#4F0F0F"/>
</linearGradient>
<linearGradient id="paint7_linear" x1="65.4941" y1="57.3364" x2="65.8247" y2="58.607" gradientUnits="userSpaceOnUse">
<stop stop-color="#790E0E"/>
<stop offset="1" stop-color="#4F0F0F"/>
</linearGradient>
<linearGradient id="paint8_linear" x1="77.4845" y1="65.0014" x2="77.8142" y2="66.2687" gradientUnits="userSpaceOnUse">
<stop stop-color="#790E0E"/>
<stop offset="1" stop-color="#4F0F0F"/>
</linearGradient>
<linearGradient id="paint9_linear" x1="64.7827" y1="65.1106" x2="65.1134" y2="66.3814" gradientUnits="userSpaceOnUse">
<stop stop-color="#790E0E"/>
<stop offset="1" stop-color="#4F0F0F"/>
</linearGradient>
<linearGradient id="paint10_linear" x1="41.355" y1="54.9795" x2="51.1399" y2="72.2479" gradientUnits="userSpaceOnUse">
<stop stop-color="#AE3227"/>
<stop offset="1" stop-color="#5C1100"/>
</linearGradient>
<linearGradient id="paint11_linear" x1="41.0599" y1="54.4586" x2="53.8816" y2="77.0862" gradientUnits="userSpaceOnUse">
<stop stop-color="#790E0E"/>
<stop offset="1" stop-color="#4F0F0F"/>
</linearGradient>
<linearGradient id="paint12_linear" x1="43.2717" y1="58.3619" x2="49.2232" y2="68.8651" gradientUnits="userSpaceOnUse">
<stop stop-color="#790E0E"/>
<stop offset="1" stop-color="#4F0F0F"/>
</linearGradient>
<linearGradient id="paint13_linear" x1="38.2755" y1="66.2337" x2="41.7808" y2="72.4197" gradientUnits="userSpaceOnUse">
<stop stop-color="#790E0E"/>
<stop offset="1" stop-color="#4F0F0F"/>
</linearGradient>
<linearGradient id="paint14_linear" x1="50.714" y1="54.8072" x2="54.2192" y2="60.9932" gradientUnits="userSpaceOnUse">
<stop stop-color="#790E0E"/>
<stop offset="1" stop-color="#4F0F0F"/>
</linearGradient>
<linearGradient id="paint15_linear" x1="34.0859" y1="64.5346" x2="34.6975" y2="65.6139" gradientUnits="userSpaceOnUse">
<stop stop-color="#790E0E"/>
<stop offset="1" stop-color="#4F0F0F"/>
</linearGradient>
<linearGradient id="paint16_linear" x1="48.3232" y1="69.0856" x2="48.9331" y2="70.162" gradientUnits="userSpaceOnUse">
<stop stop-color="#790E0E"/>
<stop offset="1" stop-color="#4F0F0F"/>
</linearGradient>
<linearGradient id="paint17_linear" x1="44.2138" y1="57.0848" x2="44.8254" y2="58.1641" gradientUnits="userSpaceOnUse">
<stop stop-color="#790E0E"/>
<stop offset="1" stop-color="#4F0F0F"/>
</linearGradient>
<linearGradient id="paint18_linear" x1="57.0283" y1="61.1588" x2="57.6382" y2="62.2353" gradientUnits="userSpaceOnUse">
<stop stop-color="#790E0E"/>
<stop offset="1" stop-color="#4F0F0F"/>
</linearGradient>
<linearGradient id="paint19_linear" x1="45.4596" y1="64.3552" x2="46.0713" y2="65.4347" gradientUnits="userSpaceOnUse">
<stop stop-color="#790E0E"/>
<stop offset="1" stop-color="#4F0F0F"/>
</linearGradient>
<clipPath id="clip0">
<rect width="89" height="89" fill="white"/>
</clipPath>
<clipPath id="clip1">
<rect width="40.269" height="33.6097" fill="white" transform="translate(42.7346 55.9156) rotate(-14.5845)"/>
</clipPath>
<clipPath id="clip2">
<rect width="38.0488" height="31.7567" fill="white" transform="translate(23.0911 61.3366) rotate(-29.5375)"/>
</clipPath>
</defs>
</svg>
