<svg width="89" height="89" viewBox="0 0 89 89" fill="none" xmlns="http://www.w3.org/2000/svg">
<g clip-path="url(#clip0)">
<path d="M6.82724 10H2.17276C0.972816 10 0 9.3284 0 8.5C0 7.6716 0.972816 7 2.17276 7H6.82724C8.02718 7 9 7.6716 9 8.5C9 9.3284 8.02718 10 6.82724 10Z" fill="#E6E3DC"/>
<path d="M6.82724 10H2.17276C0.972816 10 0 9.55227 0 9H9C9 9.55227 8.02718 10 6.82724 10Z" fill="#D2D2C8"/>
<path d="M73.3529 5.22959L35.2615 5.22966L32.6029 4.09262C30.9537 3.38808 28.7627 3 26.4336 3C25.0896 3 24 3.466 24 4.04079V12.9592C24 13.534 25.0896 14 26.4336 14C28.7646 14 30.956 13.6118 32.6038 12.907L35.2615 11.7704L73.3529 12C77.5761 12 81 12 81 8.49997C81 5.5 77.5761 5.22959 73.3529 5.22959Z" fill="#E6E3DC"/>
<path d="M24 13.0538C24 13.5764 25.0896 14 26.4336 14C28.7646 14 30.956 13.6471 32.6038 13.0063L35.2615 11.9731H73.353C79 11.9731 81 10.642 81 9H24V13.0538Z" fill="#D2D2C8"/>
<path d="M6.82724 3H2.17276C0.972816 3 0 2.3284 0 1.5C0 0.6716 0.972816 0 2.17276 0H6.82724C8.02718 0 9 0.6716 9 1.5C9 2.3284 8.02718 3 6.82724 3Z" fill="#E6E3DC"/>
<path d="M6.82724 17H2.17276C0.972816 17 0 16.3284 0 15.5C0 14.6716 0.972816 14 2.17276 14H6.82724C8.02718 14 9 14.6716 9 15.5C9 16.3284 8.02718 17 6.82724 17Z" fill="#D2D2C8"/>
<path d="M8.19312 0H30.5358V75.0353H8.19312V0Z" fill="#FFE65A"/>
<path d="M8.19312 13.7789H30.5358V75.0355H8.19312V13.7789Z" fill="#FFC800"/>
<path d="M19.3645 75.0353C17.9245 75.0353 16.7571 73.8679 16.7571 72.4279V2.60742C16.7571 1.16743 17.9245 0 19.3645 0C20.8045 0 21.9719 1.16743 21.9719 2.60742V72.4279C21.9719 73.8679 20.8045 75.0353 19.3645 75.0353Z" fill="#FFF0B4"/>
<path d="M8.19312 75.0353C6.75312 75.0353 5.58569 73.8679 5.58569 72.4279V2.60742C5.58569 1.16743 6.75312 0 8.19312 0C9.63311 0 10.8005 1.16743 10.8005 2.60742V72.4279C10.8005 73.8679 9.63311 75.0353 8.19312 75.0353Z" fill="#FFF0B4"/>
<path d="M30.5359 75.0353C29.0959 75.0353 27.9285 73.8679 27.9285 72.4279V2.60742C27.9285 1.16743 29.0959 0 30.5359 0C31.9759 0 33.1433 1.16743 33.1433 2.60742V72.4279C33.1433 73.8679 31.9759 75.0353 30.5359 75.0353Z" fill="#FFF0B4"/>
<path d="M19.3645 75.0354C20.8045 75.0354 21.9719 73.868 21.9719 72.428V13.7789H16.7571V72.4281C16.7571 73.868 17.9245 75.0354 19.3645 75.0354V75.0354Z" fill="#FFE65A"/>
<path d="M8.19312 75.0354C9.63311 75.0354 10.8005 73.868 10.8005 72.428V13.7789H5.58569V72.4281C5.58569 73.868 6.75312 75.0354 8.19312 75.0354V75.0354Z" fill="#FFE65A"/>
<path d="M30.5359 75.0354C31.9759 75.0354 33.1433 73.868 33.1433 72.428V13.7789H27.9285V72.4281C27.9285 73.868 29.0957 75.0354 30.5359 75.0354V75.0354Z" fill="#FFE65A"/>
<path d="M24.9508 47.4787C12.7133 47.4787 2.79297 57.3991 2.79297 69.6348V72.4284C2.79297 73.8684 3.9604 75.0359 5.40039 75.0359H38.9145C40.3544 75.0359 41.5219 73.8684 41.5219 72.4284V50.0861C41.5219 48.6461 40.3544 47.4787 38.9145 47.4787H24.9508Z" fill="#FFA000"/>
<path d="M24.9508 52.6918C15.5919 52.6918 8.00781 60.2776 8.00781 69.6348V72.4284C8.00781 73.8684 9.17524 75.0358 10.6152 75.0358H38.9145C40.3544 75.0358 41.5219 73.8684 41.5219 72.4284V55.2992C41.5219 53.8592 40.3544 52.6918 38.9145 52.6918H24.9508Z" fill="#FFC800"/>
<path d="M24.9508 58.6506C18.8824 58.6506 13.9648 63.5682 13.9648 69.6348V72.4284C13.9648 73.8684 15.1323 75.0358 16.5723 75.0358H38.9144C40.3544 75.0358 41.5218 73.8684 41.5218 72.4284V61.258C41.5218 59.818 40.3544 58.6506 38.9144 58.6506H24.9508Z" fill="#FFA000"/>
<path d="M24.9508 63.8638C21.7628 63.8638 19.1797 66.4486 19.1797 69.6349V72.4284C19.1797 73.8684 20.3471 75.0359 21.7871 75.0359H38.9144C40.3544 75.0359 41.5218 73.8684 41.5218 72.4284V66.4712C41.5218 65.0312 40.3544 63.8638 38.9144 63.8638H24.9508Z" fill="#FFC800"/>
<path d="M55.6714 36.3068C38.8066 36.3068 25.135 49.9784 25.135 66.8415V72.4285C25.135 73.8685 26.3024 75.0359 27.7424 75.0359H83.6004C85.0403 75.0359 86.2078 73.8685 86.2078 72.4285V66.8415C86.2078 49.9784 72.5362 36.3068 55.6714 36.3068V36.3068Z" fill="#FFE65A"/>
<path d="M86.2078 72.4285V66.8415C86.2078 49.9784 72.5362 36.3068 55.6714 36.3068V75.0359H83.6003C85.0403 75.0359 86.2078 73.8685 86.2078 72.4285V72.4285Z" fill="#FFC800"/>
<path d="M55.4851 39C40.2601 39.008 28 51.4013 28 66.4599V72.1992C28 73.746 29.2679 75 30.8317 75H80.1683C81.7321 75 83 73.746 83 72.1992V66.1978C83 51.1712 70.6795 38.992 55.4851 39Z" fill="#FFF0B4"/>
<path d="M82 72.3548V66.6868C82 52.4995 69.9114 41 55 41V75H79.2197C80.7552 75 82 73.8156 82 72.3548Z" fill="#FFE65A"/>
<path d="M77 72.1617V66.0796C77 54.4381 67.1494 45.0002 55 45V75H74.0377C75.6737 75.0002 77 73.7293 77 72.1617V72.1617Z" fill="#FFC800"/>
<path d="M29 72.3548V66.6868C29 52.4995 41.0886 41 56 41V75H31.7803C30.2448 75 29 73.8156 29 72.3548Z" fill="#FFEC81"/>
<path d="M34 72.1617V66.0796C34 54.4381 43.8506 45.0002 56 45V75H36.9623C35.3263 75.0002 34 73.7293 34 72.1617V72.1617Z" fill="#FFD335"/>
<path d="M54.9417 49.0001C46.0995 49.0388 39 58.0152 39 68.8881V74.3508C39 75.8139 39.9646 77 41.1544 77H68.8456C70.0354 77 71 75.8139 71 74.3508V68.6744C71 57.7855 63.8043 48.9613 54.9417 49.0001V49.0001Z" fill="#FFE65A"/>
<path d="M55.566 52.6922C47.7634 52.7491 41.5217 59.2163 41.5217 67.0191V72.4283C41.5217 73.8683 42.6892 75.0357 44.1292 75.0357H67.2135C68.6535 75.0357 69.8209 73.8683 69.8209 72.4283V66.8413C69.8209 58.9928 63.4296 52.635 55.566 52.6922V52.6922Z" fill="#FFD012"/>
<path d="M69.821 72.4284V66.8414C69.821 59.028 63.4865 52.6944 55.6714 52.694V75.0358H67.2136C68.6536 75.0358 69.821 73.8684 69.821 72.4284V72.4284Z" fill="#FFE65A"/>
<path d="M55.5317 58.6501C51.0396 58.7248 47.4788 62.4835 47.4788 66.9763V72.4284C47.4788 73.8684 48.6462 75.0358 50.0862 75.0358H61.2564C62.6964 75.0358 63.8638 73.8684 63.8638 72.4284V66.8414C63.864 62.2702 60.1204 58.5736 55.5317 58.6501Z" fill="#FFE65A"/>
<path d="M63.8639 72.4284V66.8414C63.8639 62.3168 60.196 58.6515 55.6714 58.6513V75.0358H61.2565C62.6965 75.0358 63.8639 73.8684 63.8639 72.4284Z" fill="#FFC800"/>
<path d="M55.7282 63.8643C54.0596 63.8332 52.6938 65.2506 52.6938 66.9195V71.98C52.6938 73.649 54.0596 75.0663 55.7282 75.0352C57.3465 75.0052 58.6492 73.6835 58.6492 72.0581V66.8413C58.6492 65.216 57.3464 63.8946 55.7282 63.8643V63.8643Z" fill="#FFF0B4"/>
<path d="M55.6714 89H67.3215C69.5102 89 71.5674 88.148 73.1143 86.601L85.4435 74.272C86.1892 73.5263 86.4122 72.4049 86.0087 71.4305C85.6051 70.4561 84.6544 69.8208 83.5998 69.8208H55.6714V89Z" fill="#D2D2C8"/>
<g clip-path="url(#clip1)">
<path fill-rule="evenodd" clip-rule="evenodd" d="M56.7282 68.9294L50.5613 66.0392C49.6843 65.6281 48.5374 65.9584 48.0134 66.7734C47.4893 67.5885 47.7788 68.5918 48.6559 69.0028L54.8227 71.893C55.6997 72.304 56.8466 71.9737 57.3706 71.1587C57.8946 70.3437 57.6052 69.3403 56.7282 68.9294Z" fill="#713E21"/>
<path fill-rule="evenodd" clip-rule="evenodd" d="M55.3251 58.6299L70.5162 65.7493C71.3934 66.1604 71.6827 67.1637 71.1587 67.9787C70.6347 68.7937 69.488 69.1241 68.6107 68.713L53.4196 61.5936C52.5424 61.1825 52.2531 60.1792 52.7772 59.3641C53.3011 58.549 54.4479 58.2188 55.3251 58.6299V58.6299ZM48.0134 66.7734C47.4893 67.5885 47.7788 68.5918 48.6559 69.0028L54.8227 71.893C55.6997 72.304 56.8466 71.9737 57.3706 71.1587C57.8946 70.3437 57.6052 69.3403 56.7282 68.9293L50.5613 66.0391C49.6843 65.6281 48.5374 65.9583 48.0134 66.7734ZM39.8072 70.0575C41.8144 77.0229 53.3633 79.8102 65.6023 76.2832C77.8413 72.7563 86.1358 64.2506 84.1286 57.2853C82.1214 50.32 70.5726 47.5327 58.3336 51.0597C46.0945 54.5866 37.8 63.0923 39.8072 70.0575ZM67.2076 58.4136L73.3744 61.3037C74.2514 61.7148 75.3983 61.3845 75.9223 60.5695C76.4463 59.7545 76.1569 58.7511 75.2799 58.3401L69.113 55.4499C68.236 55.0388 67.0891 55.369 66.5651 56.1841C66.0411 56.9992 66.3307 58.0026 67.2076 58.4136Z" fill="url(#paint0_linear)"/>
<path fill-rule="evenodd" clip-rule="evenodd" d="M67.2076 58.4136L73.3744 61.3037C74.2514 61.7148 75.3983 61.3845 75.9223 60.5695C76.4463 59.7545 76.1569 58.7511 75.2799 58.3401L69.113 55.4498C68.236 55.0388 67.0891 55.369 66.5651 56.1841C66.0411 56.9992 66.3307 58.0026 67.2076 58.4136Z" fill="#713E21"/>
<path fill-rule="evenodd" clip-rule="evenodd" d="M70.5162 65.7493L55.3251 58.6299C54.4479 58.2187 53.3011 58.549 52.7772 59.3641C52.2531 60.1792 52.5424 61.1824 53.4196 61.5936L68.6107 68.7129C69.4879 69.1241 70.6346 68.7937 71.1586 67.9787C71.6826 67.1637 71.3935 66.1604 70.5162 65.7493Z" fill="#713E21"/>
<path fill-rule="evenodd" clip-rule="evenodd" d="M84.1288 57.2853C86.136 64.2506 77.8415 72.7563 65.6024 76.2832C53.3634 79.8101 41.8146 77.0227 39.8074 70.0575L41.6246 76.3636C43.6318 83.329 55.1807 86.1163 67.4197 82.5893C79.6587 79.0624 87.9532 70.5567 85.946 63.5914L84.1288 57.2853Z" fill="#713E21"/>
<path d="M75.3687 49.4356C65.3981 46.83 50.1013 51.2381 43.0466 58.7501C39.3264 62.5648 37.8561 66.6727 38.9064 70.3171L40.7236 76.6233C41.7738 80.2677 45.2047 82.9634 50.3844 84.2134C60.3548 86.8193 75.652 82.411 82.7067 74.899C86.4267 71.0844 87.897 66.9764 86.8468 63.3319L85.0296 57.0257C83.9792 53.3813 80.5484 50.6858 75.3687 49.4356ZM44.4096 59.7884C47.788 56.3241 52.8136 53.5041 58.5607 51.8479C64.3078 50.1918 70.0634 49.9049 74.7673 51.0402C84.1226 53.1811 86.3097 60.7629 79.526 67.5545C76.1478 71.0189 71.1221 73.8389 65.3751 75.495C59.6281 77.1511 53.8725 77.438 49.1686 76.3027C39.8132 74.1618 37.6261 66.5801 44.4096 59.7884V59.7884ZM85.045 63.8511C86.9778 72.0949 76.1697 79.2741 67.1925 81.8012C58.2521 84.4406 45.2696 84.109 42.5253 76.1041L42.2164 75.0322C43.8493 76.3071 45.9921 77.2858 48.5671 77.9072C58.5376 80.5131 73.8347 76.1048 80.8894 68.5928C82.7388 66.6964 84.0321 64.7275 84.7362 62.7791L85.0451 63.8511L85.045 63.8511Z" fill="#794515"/>
<path d="M56.9493 64.212C57.3898 64.4183 57.9601 64.254 58.2233 63.8449C58.4864 63.4357 58.3426 62.9366 57.9021 62.7301L53.896 60.8527C53.4563 60.6466 53.312 60.1464 53.5746 59.7379C53.8374 59.3294 54.409 59.1647 54.8488 59.3707L70.0399 66.4901C71.0731 67.0292 70.1693 68.4239 69.0871 67.972L65.0805 66.0943C64.64 65.8879 64.0697 66.0523 63.8064 66.4614C63.5434 66.8706 63.6872 67.3697 64.1277 67.5762L68.1343 69.4539C68.7716 69.7527 69.5209 69.8024 70.2443 69.5939C70.9676 69.3855 71.5756 68.9447 71.9563 68.3525C72.7442 67.1268 72.3119 65.6267 70.9926 65.0083L55.8015 57.889C54.4822 57.2708 52.7677 57.7649 51.9794 58.9904C51.1915 60.2159 51.6238 61.7162 52.9432 62.3346L56.9493 64.212Z" fill="#794515"/>
<path d="M54.3462 72.6339C54.9834 72.9326 55.7328 72.9823 56.4561 72.774L56.4563 72.7739C57.1796 72.5655 57.7875 72.1246 58.1683 71.5326C58.9563 70.3069 58.524 68.8067 57.2045 68.1883L51.0376 65.2981C49.7184 64.6799 48.0037 65.1739 47.2157 66.3995C47.2156 66.3995 47.2156 66.3995 47.2156 66.3995C46.4276 67.6252 46.8599 69.1253 48.1793 69.7438L54.3462 72.6339ZM48.8108 67.1472C49.0735 66.7388 49.645 66.574 50.0849 66.7801L56.2518 69.6702C56.6916 69.8763 56.8357 70.3764 56.5731 70.785C56.447 70.9812 56.2441 71.1277 56.002 71.1974C55.7599 71.2671 55.5104 71.2511 55.2992 71.1521L49.1322 68.2619C48.6923 68.0558 48.5482 67.5558 48.8108 67.1472V67.1472Z" fill="#794515"/>
<path d="M72.8982 62.0446C73.5353 62.3434 74.2847 62.3931 75.008 62.1847C75.7314 61.9764 76.3394 61.5354 76.7201 60.9433C77.5081 59.7177 77.0758 58.2175 75.7564 57.5991L69.5895 54.7089C68.27 54.0906 66.5556 54.5848 65.7675 55.8103L65.7676 55.8104C64.9796 57.0359 65.4119 58.5362 66.7313 59.1546L72.8982 62.0446ZM67.3628 56.5579C67.6256 56.1494 68.1973 55.9848 68.6368 56.1908L74.8037 59.081C75.0148 59.18 75.1648 59.3511 75.2259 59.5629C75.2869 59.7748 75.2511 59.9995 75.1249 60.1957C74.9988 60.3919 74.7959 60.5384 74.554 60.6081L74.5539 60.6081C74.3118 60.6778 74.0623 60.6618 73.8511 60.5627L67.6842 57.6727C67.2443 57.4666 67.1002 56.9665 67.3628 56.5579V56.5579Z" fill="#794515"/>
<path d="M47.1432 62.5015C48.3265 62.1154 47.8952 60.6221 46.689 60.925L46.6883 60.9252C45.5051 61.3115 45.937 62.8045 47.1432 62.5015Z" fill="#794515"/>
<path d="M63.0055 71.3334L63.0047 71.3336C62.5073 71.477 62.206 71.9461 62.3314 72.3814C62.6803 73.4131 64.3874 72.9211 64.1334 71.8621C64.008 71.4268 63.5029 71.1901 63.0055 71.3334V71.3334Z" fill="#794515"/>
<path d="M61.7316 56.2486C62.9148 55.8625 62.4836 54.3693 61.2773 54.6721L61.2766 54.6724C60.0934 55.0586 60.5254 56.5517 61.7316 56.2486Z" fill="#794515"/>
<path d="M75.9693 64.0121L75.9686 64.0123C75.4712 64.1556 75.1698 64.6248 75.2953 65.06C75.6442 66.0917 77.3513 65.5998 77.0973 64.5407C76.9719 64.1055 76.4668 63.8687 75.9693 64.0121V64.0121Z" fill="#794515"/>
<path d="M60.613 65.9251C61.0731 66.0931 61.6295 65.8864 61.8527 65.4585C62.0748 65.0323 61.8799 64.5501 61.4174 64.3816L61.4167 64.3813C60.9544 64.2129 60.3995 64.4218 60.1774 64.848C59.9553 65.2742 60.1505 65.7564 60.613 65.9251V65.9251Z" fill="#794515"/>
</g>
<g clip-path="url(#clip2)">
<path fill-rule="evenodd" clip-rule="evenodd" d="M44.4141 71.6295L38.7589 71.3501C37.9547 71.3104 37.1765 71.926 37.0303 72.7181C36.8841 73.5104 37.4231 74.191 38.2273 74.2307L43.8824 74.51C44.6867 74.5498 45.4649 73.9342 45.6111 73.142C45.7572 72.3499 45.2183 71.6692 44.4141 71.6295Z" fill="#713E21"/>
<path fill-rule="evenodd" clip-rule="evenodd" d="M40.088 64.1487L54.0184 64.8368C54.8229 64.8766 55.3617 65.5572 55.2155 66.3494C55.0693 67.1415 54.2913 67.7571 53.4868 67.7174L39.5564 67.0293C38.7519 66.9895 38.2131 66.3089 38.3593 65.5167C38.5055 64.7245 39.2835 64.1089 40.088 64.1487V64.1487ZM37.0303 72.7182C36.8841 73.5104 37.4231 74.191 38.2273 74.2307L43.8824 74.5101C44.6866 74.5498 45.4648 73.9342 45.611 73.1421C45.7572 72.3499 45.2182 71.6693 44.414 71.6295L38.7589 71.3501C37.9547 71.3104 37.1764 71.926 37.0303 72.7182ZM31.7527 77.8314C35.4924 82.557 45.2554 81.0607 53.5589 74.4894C61.8623 67.9181 65.5619 58.7602 61.8222 54.0346C58.0824 49.3091 48.3194 50.8054 40.016 57.3767C31.7125 63.948 28.0129 73.1059 31.7527 77.8314ZM49.1608 60.2366L54.8159 60.516C55.6201 60.5557 56.3983 59.9401 56.5445 59.1479C56.6907 58.3558 56.1517 57.6751 55.3475 57.6354L49.6923 57.356C48.8881 57.3162 48.1099 57.9318 47.9637 58.724C47.8176 59.5162 48.3566 60.1968 49.1608 60.2366Z" fill="url(#paint1_linear)"/>
<path fill-rule="evenodd" clip-rule="evenodd" d="M49.1607 60.2366L54.8158 60.516C55.62 60.5557 56.3982 59.9401 56.5444 59.1479C56.6906 58.3558 56.1516 57.6751 55.3474 57.6354L49.6923 57.356C48.888 57.3162 48.1098 57.9318 47.9636 58.724C47.8175 59.5162 48.3565 60.1968 49.1607 60.2366Z" fill="#713E21"/>
<path fill-rule="evenodd" clip-rule="evenodd" d="M54.0184 64.8369L40.0879 64.1487C39.2835 64.109 38.5054 64.7245 38.3593 65.5167C38.2131 66.309 38.7519 66.9896 39.5563 67.0293L53.4868 67.7174C54.2912 67.7572 55.0692 67.1416 55.2154 66.3494C55.3616 65.5573 54.8229 64.8766 54.0184 64.8369Z" fill="#713E21"/>
<path fill-rule="evenodd" clip-rule="evenodd" d="M61.822 54.0347C65.5617 58.7602 61.8621 67.9181 53.5586 74.4894C45.2552 81.0607 35.4922 82.557 31.7524 77.8315L35.1383 82.1098C38.8781 86.8354 48.641 85.3391 56.9445 78.7678C65.248 72.1965 68.9476 63.0385 65.2078 58.313L61.822 54.0347Z" fill="#713E21"/>
<path d="M52.6088 50.7574C44.1172 51.8959 33.7392 60.109 30.6802 68.1117C29.0208 72.2189 29.1847 75.8426 31.1414 78.3151L34.5273 82.5935C36.484 85.066 39.9731 86.0582 44.3518 85.3871C52.8433 84.2488 63.2215 76.0354 66.2806 68.0328C67.9398 63.9255 67.776 60.3018 65.8192 57.8293L62.4334 53.5509C60.4765 51.0784 56.9875 50.0863 52.6088 50.7574ZM32.056 68.4808C33.5629 64.7508 36.5401 60.9972 40.4391 57.9115C44.3382 54.8258 48.6755 52.7907 52.6519 52.1813C60.5237 50.8792 64.5962 56.0223 61.5186 63.3854C60.0118 67.1154 57.0346 70.869 53.1356 73.9546C49.2366 77.0403 44.8993 79.0753 40.9228 79.6847C33.051 80.9869 28.9785 75.8438 32.056 68.4808V68.4808ZM64.5968 58.7967C68.6823 64.5292 62.631 73.4591 56.5216 78.233C50.4759 83.0817 40.3842 86.9191 35.7496 81.6261L35.1741 80.8989C36.8322 81.3649 38.7891 81.4424 40.9659 81.1087C49.4574 79.9704 59.8356 71.757 62.8947 63.7544C63.7196 61.7125 64.0938 59.7902 64.0213 58.0694L64.5969 58.7966L64.5968 58.7967Z" fill="#753D0A"/>
<path d="M43.097 67.9309C43.5009 67.9507 43.8878 67.6446 43.9614 67.2468C44.0348 66.8491 43.7668 66.5105 43.3628 66.4905L39.6892 66.3091C39.2859 66.2892 39.0174 65.9499 39.0906 65.5528C39.164 65.1558 39.5517 64.8489 39.955 64.8687L53.8855 65.5569C54.8503 65.6459 54.5946 67.0037 53.6197 66.9972L49.9455 66.8157C49.5416 66.7958 49.1547 67.102 49.0812 67.4997C49.0078 67.8974 49.2758 68.2361 49.6797 68.2561L53.3538 68.4375C53.9383 68.4665 54.5304 68.2685 55.0212 67.8801C55.5119 67.4918 55.8407 66.961 55.9468 66.3854C56.1666 65.1942 55.3611 64.1764 54.1513 64.1166L40.2209 63.4285C39.011 63.3688 37.8478 64.2894 37.6278 65.4806C37.408 66.6718 38.2135 67.6896 39.4234 67.7495L43.097 67.9309Z" fill="#753D0A"/>
<path d="M43.7495 75.2302C44.3338 75.2592 44.9259 75.0612 45.4167 74.6729L45.4169 74.6728C45.9076 74.2844 46.2363 73.7537 46.3425 73.1782C46.5624 71.9869 45.7569 70.9691 44.5469 70.9093L38.8918 70.6299C37.682 70.5702 36.5187 71.4908 36.2988 72.682C36.2987 72.682 36.2987 72.682 36.2987 72.682C36.0789 73.8733 36.8844 74.8911 38.0943 74.9509L43.7495 75.2302ZM37.7616 72.7544C37.835 72.3574 38.2226 72.0504 38.626 72.0703L44.2812 72.3496C44.6844 72.3695 44.953 72.7088 44.8797 73.1059C44.8446 73.2966 44.7347 73.4733 44.5704 73.6032C44.4061 73.7332 44.2091 73.7995 44.0154 73.7899L38.3603 73.5105C37.9568 73.4907 37.6883 73.1514 37.7616 72.7544V72.7544Z" fill="#753D0A"/>
<path d="M54.6828 61.236C55.2671 61.265 55.8593 61.067 56.35 60.6787C56.8408 60.2904 57.1695 59.7595 57.2758 59.184C57.4956 57.9928 56.6902 56.975 55.4802 56.9152L49.825 56.6358C48.6151 56.576 47.452 57.4967 47.2321 58.6878L47.2321 58.6879C47.0123 59.8791 47.8178 60.8969 49.0277 60.9568L54.6828 61.236ZM48.695 58.76C48.7684 58.363 49.1562 58.0562 49.5593 58.0761L55.2144 58.3555C55.4081 58.3651 55.5774 58.4495 55.6911 58.5931C55.8049 58.7369 55.8482 58.921 55.8129 59.1117C55.7778 59.3024 55.6679 59.4791 55.5037 59.609L55.5037 59.609C55.3394 59.7389 55.1424 59.8053 54.9487 59.7956L49.2936 59.5164C48.8902 59.4965 48.6217 59.1572 48.695 58.76V58.76Z" fill="#753D0A"/>
<path d="M35.0142 69.7061C35.8027 69.0361 35.0002 68.0234 34.1678 68.6366L34.1673 68.6369C33.3789 69.3071 34.1818 70.3195 35.0142 69.7061Z" fill="#753D0A"/>
<path d="M50.0008 71.5002L50.0003 71.5006C49.6628 71.7677 49.5789 72.2235 49.8126 72.5188C50.4063 73.2025 51.5644 72.286 51.0352 71.5513C50.8015 71.256 50.3383 71.2331 50.0008 71.5002V71.5002Z" fill="#753D0A"/>
<path d="M44.2657 60.2973C45.0542 59.6272 44.2517 58.6145 43.4192 59.2277L43.4187 59.2281C42.6303 59.8983 43.4333 60.9106 44.2657 60.2973Z" fill="#753D0A"/>
<path d="M57.6659 61.7814L57.6654 61.7818C57.3279 62.0489 57.244 62.5047 57.4777 62.8C58.0713 63.4837 59.2295 62.5671 58.7002 61.8325C58.4665 61.5372 58.0033 61.5143 57.6659 61.7814V61.7814Z" fill="#753D0A"/>
<path d="M46.4556 68.0938C46.8625 68.078 47.2254 67.7436 47.2622 67.3441C47.2987 66.9463 46.9968 66.6367 46.5878 66.6529L46.5872 66.6529C46.1785 66.6691 45.8175 67.0046 45.7809 67.4026C45.7445 67.8005 46.0466 68.1099 46.4556 68.0938V68.0938Z" fill="#753D0A"/>
</g>
<path d="M55.6714 75.0359H86.3925C87.8325 75.0359 89 73.8685 89 72.4285C89 70.9885 87.8325 69.821 86.3925 69.821H55.6714V75.0359Z" fill="#E6E3DC"/>
<path d="M67.3213 89H21.6767C19.5196 89 17.4083 88.1256 15.8839 86.601L3.55631 74.2718C2.81059 73.5261 2.58774 72.4048 2.99137 71.4303C3.395 70.4561 4.34567 69.8208 5.40028 69.8208H83.5998C84.6544 69.8208 85.6051 70.456 86.0087 71.4305C86.4122 72.4048 86.1892 73.5263 85.4434 74.272L73.1143 86.601C71.5673 88.148 69.51 89 67.3213 89V89Z" fill="#E6E3DC"/>
<path d="M86.3926 75.0359H2.60742C1.16743 75.0359 0 73.8685 0 72.4285C0 70.9885 1.16743 69.821 2.60742 69.821H86.3926C87.8326 69.821 89 70.9885 89 72.4285C89 73.8685 87.8326 75.0359 86.3926 75.0359Z" fill="#FAF5F0"/>
</g>
<defs>
<linearGradient id="paint0_linear" x1="58.3336" y1="51.0597" x2="65.6023" y2="76.2832" gradientUnits="userSpaceOnUse">
<stop stop-color="#DEAD63"/>
<stop offset="1" stop-color="#5C2100"/>
</linearGradient>
<linearGradient id="paint1_linear" x1="40.016" y1="57.3767" x2="53.5589" y2="74.4894" gradientUnits="userSpaceOnUse">
<stop stop-color="#DEAD63"/>
<stop offset="1" stop-color="#5C2100"/>
</linearGradient>
<clipPath id="clip0">
<rect width="89" height="89" fill="white"/>
</clipPath>
<clipPath id="clip1">
<rect width="48" height="42" fill="white" transform="translate(34 53.2914) rotate(-16.0755)"/>
</clipPath>
<clipPath id="clip2">
<rect width="39.9054" height="34.9173" fill="white" transform="translate(22 66.7642) rotate(-38.3579)"/>
</clipPath>
</defs>
</svg>
