<svg width="60" height="95" viewBox="0 0 60 95" fill="none" xmlns="http://www.w3.org/2000/svg">
<g clip-path="url(#clip0)">
<path d="M32.5067 33.1363C35.7477 46.4393 34.5136 50.3625 31.9577 50.9598C29.4017 51.5571 26.4921 48.6022 23.2512 35.2993C20.8004 25.2395 21.6891 17.406 22.2679 14.1846C22.3854 13.5305 23.2436 13.33 23.65 13.8615C25.6517 16.48 30.0559 23.0765 32.5067 33.1363V33.1363Z" fill="#A1E42C"/>
<path d="M32.5068 33.1363C30.056 23.0765 25.6518 16.48 23.6502 13.8615C23.2438 13.33 22.3858 13.5305 22.2681 14.1846C22.1175 15.0229 21.9463 16.1759 21.818 17.5966C23.9198 21.0726 26.4844 26.3049 28.1488 33.1363C30.6478 43.3945 30.4857 48.0745 29.1089 49.9536C30.1024 50.936 31.0523 51.1713 31.9579 50.9598C34.5136 50.3625 35.7477 46.4393 32.5068 33.1363V33.1363Z" fill="#95D528"/>
<path d="M40.5949 29.5001C40.5949 48.2826 38.1121 53.1383 35.0492 53.1383C31.9865 53.1383 29.5035 48.2828 29.5035 29.5001C29.5035 14.5797 33.0029 4.09163 34.4422 0.40927C34.6555 -0.136423 35.4429 -0.136423 35.6562 0.40927C37.0955 4.09163 40.5949 14.5797 40.5949 29.5001V29.5001Z" fill="#A1E42C"/>
<path d="M35.6562 0.40927C35.4429 -0.136423 34.6555 -0.136423 34.4422 0.40927C34.05 1.41289 33.5044 2.92566 32.9186 4.89227C34.4821 10.1414 36.3337 18.6461 36.3337 29.5001C36.3337 43.6526 34.9239 49.8972 32.9186 52.1164C33.5747 52.8424 34.2942 53.1383 35.0492 53.1383C38.1119 53.1383 40.5948 48.2828 40.5948 29.5001C40.5948 14.5797 37.0955 4.09163 35.6562 0.40927V0.40927Z" fill="#95D528"/>
<g filter="url(#filter0_d)">
<path d="M41.9247 92.141L35.6118 86.7865C34.8398 86.1317 34.3963 85.1808 34.3963 84.1807V74.0059H29.1562V84.1807C29.1562 85.181 28.7127 86.1317 27.9406 86.7865L21.6277 92.141C20.4643 93.128 21.1768 94.9999 22.7159 94.9999H40.8365C42.3756 94.9999 43.0884 93.128 41.9247 92.141Z" fill="#97E4F9" fill-opacity="0.5"/>
</g>
<g filter="url(#filter1_d)">
<path d="M41.9247 92.141L35.6118 86.7865C34.8398 86.1317 34.3962 85.1808 34.3962 84.1807V74.0059H30.2008V84.1807C30.2008 85.181 30.6443 86.1317 31.4163 86.7865L37.7293 92.141C38.8927 93.128 38.1802 94.9999 36.6411 94.9999H40.8365C42.3756 94.9999 43.0883 93.128 41.9247 92.141Z" fill="white" fill-opacity="0.24"/>
</g>
<path d="M15.63 34.1627C18.0615 36.9756 23.1902 38.285 26.0623 35.9037C28.9344 33.5223 28.4621 28.3521 26.0306 25.5394C23.5992 22.7265 20.2953 23.5282 17.4232 25.9095C14.5511 28.2907 13.1986 31.35 15.63 34.1627Z" fill="#FB636F"/>
<path d="M26.0306 25.5391C25.0182 24.3677 23.8542 23.825 22.6334 23.7603C24.8433 26.6283 25.1855 31.5196 22.4149 33.8167C20.7483 35.1985 18.3226 35.3358 16.1042 34.6596C18.6791 37.1211 23.3654 38.1396 26.0623 35.9034C28.9342 33.5222 28.4621 28.352 26.0306 25.5391V25.5391Z" fill="#FA4954"/>
<path d="M18.5683 28.4446C18.0482 28.4446 17.5447 28.1729 17.279 27.694C14.467 22.6239 8.84706 19.5522 2.95753 19.8639C2.1461 19.9072 1.45839 19.3001 1.41443 18.5085C1.37048 17.7168 1.99018 17.0403 2.79839 16.9972C9.80872 16.6222 16.5053 20.2846 19.8548 26.3236C20.2411 27.0201 19.9778 27.8918 19.2666 28.2701C19.0442 28.3883 18.8045 28.4446 18.5683 28.4446Z" fill="#FA2A3B"/>
<g filter="url(#filter2_d)">
<path d="M41.5414 43.1345L43.7004 36.5886C43.8862 36.0249 43.4571 35.4473 42.8522 35.4473H20.6896C20.0879 35.4473 19.659 36.0193 19.8391 36.5815L21.965 43.2169C22.7346 45.6186 21.9777 48.2357 20.0426 49.8925C16.3265 53.074 13.9703 57.7413 13.9407 62.9485C13.886 72.6258 21.8958 80.5158 31.7772 80.5155C41.6272 80.5149 49.6121 72.6945 49.6121 63.0475C49.6121 57.7641 47.2166 53.0293 43.4317 49.8264C41.4828 48.1773 40.7498 45.5347 41.5414 43.1345V43.1345Z" fill="#97E4F9" fill-opacity="0.5"/>
</g>
<g filter="url(#filter3_d)">
<path d="M43.4316 49.8262C41.4829 48.1771 40.7497 45.5347 41.5415 43.1345L43.7005 36.5886C43.8863 36.0249 43.4572 35.4473 42.8523 35.4473H34.8509L33.0098 41.0293C32.2183 43.4295 32.9513 46.072 34.9 47.721C38.6849 50.9239 41.0803 55.6587 41.0803 60.9421C41.0803 70.5754 33.1184 78.3867 23.2878 78.4097C25.8125 79.7521 28.7043 80.5155 31.777 80.5155C41.6271 80.5149 49.612 72.6945 49.612 63.0475C49.612 57.7639 47.2165 53.0291 43.4316 49.8262Z" fill="white" fill-opacity="0.24"/>
</g>
<path d="M59.0838 26.387C58.0446 25.814 56.7704 25.2384 55.2504 24.7596C55.099 24.7119 54.9325 24.728 54.7929 24.8026L52.2275 26.1736L50.3303 23.92C50.232 23.8031 50.0912 23.7285 49.9372 23.7146C49.081 23.6364 48.1792 23.593 47.2293 23.593C46.3088 23.593 45.4331 23.6337 44.6005 23.7071C44.4459 23.7209 44.3043 23.7955 44.2056 23.9127L42.231 26.2582L39.5676 24.8349C39.4273 24.7599 39.2598 24.744 39.1078 24.7928C37.6322 25.2652 36.3898 25.8274 35.3737 26.3875C34.89 26.6542 34.7247 27.257 35.0121 27.722L45.7702 45.1283C46.434 46.2023 48.0248 46.2023 48.6885 45.1283L59.4466 27.722C59.7342 27.2566 59.5678 26.6538 59.0838 26.387V26.387Z" fill="#FCE25C"/>
<path d="M59.0838 26.3868C58.0799 25.8334 56.8543 25.2782 55.4019 24.8093C55.3807 24.9171 55.344 25.0238 55.2822 25.1236L44.5241 42.53C44.465 42.6255 44.3964 42.7096 44.3239 42.7883L45.7699 45.1282C46.4338 46.2021 48.0246 46.2021 48.6883 45.1282L59.4464 27.7219C59.7342 27.2565 59.5678 26.6537 59.0838 26.3868V26.3868Z" fill="#FCDD2E"/>
<path d="M41.6465 42.8162H21.8367L21.9651 43.2169C22.7347 45.6187 21.9778 48.2358 20.0427 49.8925C16.3266 53.0741 13.9704 57.7414 13.9408 62.9486C13.8861 72.6259 21.896 80.516 31.7773 80.5156C41.6273 80.515 49.6122 72.6946 49.6122 63.0476C49.6122 57.7642 47.2168 53.0294 43.4319 49.8265C41.4831 48.1774 40.75 45.535 41.5417 43.1347L41.6465 42.8162Z" fill="#FFF170"/>
<path d="M43.4316 49.8263C41.4829 48.1772 40.7497 45.5348 41.5415 43.1346L41.6464 42.8162H32.6993C32.6508 44.6629 33.4279 46.4755 34.9 47.7211C42.5 51.9072 43.4316 60.3351 43.4316 65.6186C43.4316 75.2518 36.5 82.2681 23.2878 78.4098C25.8125 79.7522 28.7043 80.5156 31.777 80.5156C41.6271 80.515 49.612 72.6946 49.612 63.0476C49.612 57.764 47.2165 53.0292 43.4316 49.8263Z" fill="#FFEA30"/>
</g>
<defs>
<filter id="filter0_d" x="17.0503" y="74.0059" width="29.4519" height="28.9941" filterUnits="userSpaceOnUse" color-interpolation-filters="sRGB">
<feFlood flood-opacity="0" result="BackgroundImageFix"/>
<feColorMatrix in="SourceAlpha" type="matrix" values="0 0 0 0 0 0 0 0 0 0 0 0 0 0 0 0 0 0 127 0"/>
<feOffset dy="4"/>
<feGaussianBlur stdDeviation="2"/>
<feColorMatrix type="matrix" values="0 0 0 0 0 0 0 0 0 0 0 0 0 0 0 0 0 0 0.25 0"/>
<feBlend mode="normal" in2="BackgroundImageFix" result="effect1_dropShadow"/>
<feBlend mode="normal" in="SourceGraphic" in2="effect1_dropShadow" result="shape"/>
</filter>
<filter id="filter1_d" x="26.2008" y="74.0059" width="20.3014" height="28.9941" filterUnits="userSpaceOnUse" color-interpolation-filters="sRGB">
<feFlood flood-opacity="0" result="BackgroundImageFix"/>
<feColorMatrix in="SourceAlpha" type="matrix" values="0 0 0 0 0 0 0 0 0 0 0 0 0 0 0 0 0 0 127 0"/>
<feOffset dy="4"/>
<feGaussianBlur stdDeviation="2"/>
<feColorMatrix type="matrix" values="0 0 0 0 0 0 0 0 0 0 0 0 0 0 0 0 0 0 0.25 0"/>
<feBlend mode="normal" in2="BackgroundImageFix" result="effect1_dropShadow"/>
<feBlend mode="normal" in="SourceGraphic" in2="effect1_dropShadow" result="shape"/>
</filter>
<filter id="filter2_d" x="9.94043" y="35.4473" width="43.6717" height="53.0682" filterUnits="userSpaceOnUse" color-interpolation-filters="sRGB">
<feFlood flood-opacity="0" result="BackgroundImageFix"/>
<feColorMatrix in="SourceAlpha" type="matrix" values="0 0 0 0 0 0 0 0 0 0 0 0 0 0 0 0 0 0 127 0"/>
<feOffset dy="4"/>
<feGaussianBlur stdDeviation="2"/>
<feColorMatrix type="matrix" values="0 0 0 0 0 0 0 0 0 0 0 0 0 0 0 0 0 0 0.25 0"/>
<feBlend mode="normal" in2="BackgroundImageFix" result="effect1_dropShadow"/>
<feBlend mode="normal" in="SourceGraphic" in2="effect1_dropShadow" result="shape"/>
</filter>
<filter id="filter3_d" x="19.2878" y="35.4473" width="34.3241" height="53.0682" filterUnits="userSpaceOnUse" color-interpolation-filters="sRGB">
<feFlood flood-opacity="0" result="BackgroundImageFix"/>
<feColorMatrix in="SourceAlpha" type="matrix" values="0 0 0 0 0 0 0 0 0 0 0 0 0 0 0 0 0 0 127 0"/>
<feOffset dy="4"/>
<feGaussianBlur stdDeviation="2"/>
<feColorMatrix type="matrix" values="0 0 0 0 0 0 0 0 0 0 0 0 0 0 0 0 0 0 0.25 0"/>
<feBlend mode="normal" in2="BackgroundImageFix" result="effect1_dropShadow"/>
<feBlend mode="normal" in="SourceGraphic" in2="effect1_dropShadow" result="shape"/>
</filter>
<clipPath id="clip0">
<rect width="60" height="95" fill="white"/>
</clipPath>
</defs>
</svg>
