<svg width="73" height="74" viewBox="0 0 73 74" fill="none" xmlns="http://www.w3.org/2000/svg">
<path d="M37 73.7398C56.7385 73.7398 72.7398 57.7385 72.7398 38C72.7398 18.2615 56.7385 2.26025 37 2.26025C17.2615 2.26025 1.26025 18.2615 1.26025 38C1.26025 57.7385 17.2615 73.7398 37 73.7398Z" fill="#4F3B2E"/>
<path d="M36.9999 63.2717C50.957 63.2717 62.2715 51.9572 62.2715 38C62.2715 24.0429 50.957 12.7284 36.9999 12.7284C23.0428 12.7284 11.7283 24.0429 11.7283 38C11.7283 51.9572 23.0428 63.2717 36.9999 63.2717Z" fill="#F1F2F2"/>
<path d="M25.3014 54.0305C34.1219 54.0305 41.2723 46.8801 41.2723 38.0596C41.2723 29.2391 34.1219 22.0887 25.3014 22.0887C16.481 22.0887 9.33057 29.2391 9.33057 38.0596C9.33057 46.8801 16.481 54.0305 25.3014 54.0305Z" fill="#F1F2F2"/>
<path d="M41.0517 35.4077C40.5218 38.572 39.0361 41.6076 36.5945 44.0492C30.3575 50.2862 20.2452 50.2862 14.0082 44.0492C11.5666 41.6076 10.0809 38.572 9.55098 35.4077C8.72711 40.3266 10.2129 45.5571 14.0082 49.3525C20.2452 55.5894 30.3575 55.5894 36.5945 49.3525C40.3898 45.5571 41.8756 40.3266 41.0517 35.4077V35.4077Z" fill="#E6E7E8"/>
<path d="M24.5163 39.3305C30.8716 39.3305 36.0235 34.1786 36.0235 27.8233C36.0235 21.468 30.8716 16.316 24.5163 16.316C18.161 16.316 13.009 21.468 13.009 27.8233C13.009 34.1786 18.161 39.3305 24.5163 39.3305Z" fill="#F1F2F2"/>
<path d="M24.5163 59.9473C30.8716 59.9473 36.0235 54.7953 36.0235 48.44C36.0235 42.0848 30.8716 36.9328 24.5163 36.9328C18.161 36.9328 13.009 42.0848 13.009 48.44C13.009 54.7953 18.161 59.9473 24.5163 59.9473Z" fill="#F1F2F2"/>
<path d="M35.7153 45.788C35.2413 47.798 34.2209 49.7057 32.6531 51.2732C28.1591 55.7672 20.8732 55.7672 16.3796 51.2732C14.8121 49.7057 13.7913 47.798 13.3173 45.788C12.4327 49.5403 13.4534 53.6503 16.3796 56.5764C20.8736 61.0704 28.1594 61.0704 32.6531 56.5764C35.5796 53.6507 36.5999 49.5403 35.7153 45.788Z" fill="#E6E7E8"/>
<path d="M32.3978 26.351C33.1088 26.351 33.6848 26.9274 33.6848 27.638V29.8186C33.6848 30.5296 33.1085 31.1056 32.3978 31.1056C31.6868 31.1056 31.1108 30.5293 31.1108 29.8186V27.638C31.1108 26.9274 31.6872 26.351 32.3978 26.351Z" fill="white"/>
<path d="M32.1764 35.7572C31.6739 35.2547 31.6739 34.4398 32.1764 33.9369L33.7184 32.3949C34.2209 31.8924 35.0358 31.8924 35.5387 32.3949C36.0412 32.8974 36.0412 33.7123 35.5387 34.2152L33.9967 35.7572C33.4938 36.2597 32.6789 36.2597 32.1764 35.7572Z" fill="white"/>
<path d="M32.3983 39.2716C33.1093 39.2716 33.6853 39.848 33.6853 40.5586V42.7392C33.6853 43.4499 33.109 44.0262 32.3983 44.0262C31.6873 44.0262 31.1113 43.4499 31.1113 42.7392V40.5586C31.111 39.848 31.6873 39.2716 32.3983 39.2716Z" fill="white"/>
<path d="M32.1767 48.6778C31.6742 48.1753 31.6742 47.3604 32.1767 46.8575L33.7187 45.3155C34.2212 44.813 35.036 44.813 35.5389 45.3155C36.0414 45.818 36.0414 46.6329 35.5389 47.1358L33.9969 48.6778C33.4941 49.1803 32.6792 49.1803 32.1767 48.6778Z" fill="white"/>
<path d="M19.2704 27.9523C19.7729 27.4498 20.5878 27.4498 21.0907 27.9523L22.6327 29.4943C23.1352 29.9968 23.1352 30.8116 22.6327 31.3145C22.1302 31.817 21.3153 31.817 20.8124 31.3145L19.2704 29.7725C18.7679 29.2696 18.7679 28.4548 19.2704 27.9523Z" fill="white"/>
<path d="M15.4962 26.351C16.2072 26.351 16.7832 26.9274 16.7832 27.638V29.8186C16.7832 30.5296 16.2069 31.1056 15.4962 31.1056C14.7852 31.1056 14.2092 30.5293 14.2092 29.8186V27.638C14.2092 26.9274 14.7852 26.351 15.4962 26.351Z" fill="white"/>
<path d="M15.2746 35.7572C14.7721 35.2547 14.7721 34.4398 15.2746 33.9369L16.8166 32.3949C17.3191 31.8924 18.1339 31.8924 18.6368 32.3949C19.1393 32.8974 19.1393 33.7123 18.6368 34.2152L17.0948 35.7572C16.592 36.2597 15.7771 36.2597 15.2746 35.7572Z" fill="white"/>
<path d="M19.2704 40.8728C19.7729 40.3703 20.5878 40.3703 21.0907 40.8728L22.6327 42.4149C23.1352 42.9174 23.1352 43.7322 22.6327 44.2351C22.1302 44.7376 21.3153 44.7376 20.8124 44.2351L19.2704 42.6931C18.7679 42.1902 18.7679 41.3753 19.2704 40.8728Z" fill="white"/>
<path d="M15.4962 39.2716C16.2072 39.2716 16.7832 39.848 16.7832 40.5586V42.7392C16.7832 43.4502 16.2069 44.0262 15.4962 44.0262C14.7852 44.0262 14.2092 43.4499 14.2092 42.7392V40.5586C14.2092 39.848 14.7852 39.2716 15.4962 39.2716Z" fill="white"/>
<path d="M15.2746 48.6778C14.7721 48.1753 14.7721 47.3604 15.2746 46.8575L16.8166 45.3155C17.3191 44.813 18.1339 44.813 18.6368 45.3155C19.1393 45.818 19.1393 46.6329 18.6368 47.1358L17.0948 48.6778C16.592 49.1803 15.7771 49.1803 15.2746 48.6778Z" fill="white"/>
<path d="M19.2704 53.7935C19.7729 53.291 20.5878 53.291 21.0907 53.7935L22.6327 55.3355C23.1352 55.838 23.1352 56.6529 22.6327 57.1558C22.1302 57.6583 21.3153 57.6583 20.8124 57.1558L19.2704 55.6138C18.7679 55.1109 18.7679 54.296 19.2704 53.7935Z" fill="white"/>
<path d="M24.6158 52.1484C24.1133 52.6509 23.2985 52.6509 22.7956 52.1484L21.2536 50.6064C20.7511 50.1039 20.7511 49.2891 21.2536 48.7862C21.7561 48.2837 22.571 48.2837 23.0738 48.7862L24.6158 50.3282C25.1187 50.8311 25.1187 51.6459 24.6158 52.1484Z" fill="white"/>
<path d="M28.3905 53.7493C27.6795 53.7493 27.1035 53.1729 27.1035 52.4623V50.2816C27.1035 49.571 27.6799 48.9946 28.3905 48.9946C29.1015 48.9946 29.6775 49.571 29.6775 50.2816V52.4623C29.6775 53.1733 29.1011 53.7493 28.3905 53.7493Z" fill="white"/>
<path d="M28.6117 44.3435C29.1142 44.846 29.1142 45.6609 28.6117 46.1638L27.0697 47.7058C26.5672 48.2083 25.7523 48.2083 25.2494 47.7058C24.7469 47.2033 24.7469 46.3884 25.2494 45.8855L26.7914 44.3435C27.2943 43.8407 28.1092 43.8407 28.6117 44.3435Z" fill="white"/>
<path d="M24.6158 39.2278C24.1133 39.7303 23.2985 39.7303 22.7956 39.2278L21.2536 37.6858C20.7511 37.1833 20.7511 36.3684 21.2536 35.8655C21.7561 35.363 22.571 35.363 23.0738 35.8655L24.6158 37.4075C25.1187 37.91 25.1187 38.7253 24.6158 39.2278Z" fill="white"/>
<path d="M28.3905 40.8286C27.6795 40.8286 27.1035 40.2522 27.1035 39.5416V37.361C27.1035 36.65 27.6799 36.074 28.3905 36.074C29.1015 36.074 29.6775 36.6503 29.6775 37.361V39.5416C29.6775 40.2526 29.1011 40.8286 28.3905 40.8286Z" fill="white"/>
<path d="M28.6117 31.4229C29.1142 31.9254 29.1142 32.7402 28.6117 33.2431L27.0697 34.7851C26.5672 35.2876 25.7523 35.2876 25.2494 34.7851C24.7469 34.2826 24.7469 33.4677 25.2494 32.9649L26.7914 31.4229C27.2943 30.92 28.1092 30.92 28.6117 31.4229Z" fill="white"/>
<path d="M24.6158 26.3072C24.1133 26.8097 23.2985 26.8097 22.7956 26.3072L21.2536 24.7652C20.7511 24.2627 20.7511 23.4478 21.2536 22.9449C21.7561 22.4424 22.571 22.4424 23.0738 22.9449L24.6158 24.4869C25.1187 24.9894 25.1187 25.8047 24.6158 26.3072Z" fill="white"/>
<path d="M28.3905 27.9081C27.6795 27.9081 27.1035 27.3317 27.1035 26.6211V24.4404C27.1035 23.7294 27.6799 23.1534 28.3905 23.1534C29.1015 23.1534 29.6775 23.7298 29.6775 24.4404V26.6211C29.6775 27.3321 29.1011 27.9081 28.3905 27.9081Z" fill="white"/>
<path d="M28.6117 18.5023C29.1142 19.0048 29.1142 19.8197 28.6117 20.3225L27.0697 21.8645C26.5672 22.367 25.7523 22.367 25.2494 21.8645C24.7469 21.362 24.7469 20.5472 25.2494 20.0443L26.7914 18.5023C27.2943 17.9994 28.1092 17.9994 28.6117 18.5023Z" fill="white"/>
<path d="M3.51254 38.75C3.09629 38.75 2.75879 38.4125 2.75879 38C2.75879 37.9963 2.75879 37.9963 2.76254 37.9963C2.76254 37.5838 3.10004 37.25 3.51254 37.25C3.92504 37.25 4.25879 37.5875 4.25879 38C4.25879 38.4125 3.92504 38.75 3.51254 38.75ZM3.64379 35.7538C3.62129 35.7538 3.59879 35.7538 3.57629 35.7538C3.37754 35.735 3.19754 35.6413 3.06629 35.4875C2.93879 35.3338 2.87879 35.1388 2.89754 34.94C3.65129 26.4613 7.53629 18.6013 13.8363 12.8038C20.1775 6.97251 28.4013 3.76251 37 3.76251C37.4125 3.76251 37.75 4.09626 37.75 4.50876C37.75 4.92501 37.4125 5.25876 37 5.25876C20.2 5.25876 5.87879 18.3538 4.39004 35.0713C4.35629 35.4613 4.03379 35.7538 3.64379 35.7538V35.7538Z" fill="#AC9484"/>
<path d="M60.3272 10.9227C65.7254 17.183 68.9894 25.3355 68.9894 34.25C68.9894 53.9885 52.9881 69.9897 33.2496 69.9897C24.3347 69.9897 16.1826 66.7257 9.92236 61.3276C16.4762 68.9281 26.176 73.7397 36.9996 73.7397C56.7381 73.7397 72.7394 57.7385 72.7394 38C72.7397 27.1764 67.9281 17.4766 60.3272 10.9227V10.9227Z" fill="#6C4935"/>
<path d="M61.3168 11.8081C67.2415 18.1869 70.8647 26.7327 70.8647 36.125C70.8647 55.8635 54.8635 71.8647 35.125 71.8647C25.7327 71.8647 17.1869 68.2419 10.8081 62.3169C17.3346 69.3432 26.6537 73.7397 37 73.7397C56.7385 73.7397 72.7397 57.7385 72.7397 38C72.7397 27.6537 68.3432 18.3346 61.3168 11.8081V11.8081Z" fill="#362C24"/>
<path d="M43.8421 34.3344C47.9132 34.3344 51.2135 31.0341 51.2135 26.963C51.2135 22.892 47.9132 19.5917 43.8421 19.5917C39.771 19.5917 36.4707 22.892 36.4707 26.963C36.4707 31.0341 39.771 34.3344 43.8421 34.3344Z" fill="#B7022D"/>
<path d="M43.8422 31.1368C46.1473 31.1368 48.016 29.2682 48.016 26.9631C48.016 24.658 46.1473 22.7893 43.8422 22.7893C41.5371 22.7893 39.6685 24.658 39.6685 26.9631C39.6685 29.2682 41.5371 31.1368 43.8422 31.1368Z" fill="#E8566F"/>
<path d="M51.2154 28.6266C55.2865 28.6266 58.5867 25.3263 58.5867 21.2552C58.5867 17.1841 55.2865 13.8838 51.2154 13.8838C47.1443 13.8838 43.844 17.1841 43.844 21.2552C43.844 25.3263 47.1443 28.6266 51.2154 28.6266Z" fill="#B7022D"/>
<path d="M51.2155 25.4289C53.5206 25.4289 55.3892 23.5603 55.3892 21.2552C55.3892 18.9501 53.5206 17.0814 51.2155 17.0814C48.9104 17.0814 47.0417 18.9501 47.0417 21.2552C47.0417 23.5603 48.9104 25.4289 51.2155 25.4289Z" fill="#E8566F"/>
<path d="M50.2386 51.9436C54.3097 51.9436 57.6099 48.6433 57.6099 44.5722C57.6099 40.5011 54.3097 37.2009 50.2386 37.2009C46.1675 37.2009 42.8672 40.5011 42.8672 44.5722C42.8672 48.6433 46.1675 51.9436 50.2386 51.9436Z" fill="#B7022D"/>
<path d="M50.2387 48.7461C52.5438 48.7461 54.4124 46.8774 54.4124 44.5723C54.4124 42.2672 52.5438 40.3986 50.2387 40.3986C47.9336 40.3986 46.0649 42.2672 46.0649 44.5723C46.0649 46.8774 47.9336 48.7461 50.2387 48.7461Z" fill="#E8566F"/>
<path d="M59.0779 50.9466C63.149 50.9466 66.4493 47.6463 66.4493 43.5752C66.4493 39.5041 63.149 36.2038 59.0779 36.2038C55.0068 36.2038 51.7065 39.5041 51.7065 43.5752C51.7065 47.6463 55.0068 50.9466 59.0779 50.9466Z" fill="#B7022D"/>
<path d="M59.078 47.7489C61.3831 47.7489 63.2518 45.8803 63.2518 43.5752C63.2518 41.2701 61.3831 39.4014 59.078 39.4014C56.773 39.4014 54.9043 41.2701 54.9043 43.5752C54.9043 45.8803 56.773 47.7489 59.078 47.7489Z" fill="#E8566F"/>
<path d="M42.8653 44.5704C46.9364 44.5704 50.2367 41.2702 50.2367 37.1991C50.2367 33.128 46.9364 29.8277 42.8653 29.8277C38.7942 29.8277 35.4939 33.128 35.4939 37.1991C35.4939 41.2702 38.7942 44.5704 42.8653 44.5704Z" fill="#B7022D"/>
<path d="M42.8654 41.3728C45.1705 41.3728 47.0391 39.5042 47.0391 37.1991C47.0391 34.894 45.1705 33.0253 42.8654 33.0253C40.5603 33.0253 38.6917 34.894 38.6917 37.1991C38.6917 39.5042 40.5603 41.3728 42.8654 41.3728Z" fill="#E8566F"/>
<path d="M50.2386 41.7073C54.3097 41.7073 57.6099 38.407 57.6099 34.3359C57.6099 30.2648 54.3097 26.9645 50.2386 26.9645C46.1675 26.9645 42.8672 30.2648 42.8672 34.3359C42.8672 38.407 46.1675 41.7073 50.2386 41.7073Z" fill="#B7022D"/>
<path d="M50.2387 38.5097C52.5438 38.5097 54.4124 36.641 54.4124 34.3359C54.4124 32.0308 52.5438 30.1622 50.2387 30.1622C47.9336 30.1622 46.0649 32.0308 46.0649 34.3359C46.0649 36.641 47.9336 38.5097 50.2387 38.5097Z" fill="#E8566F"/>
<path d="M58.5884 38.1298C62.6595 38.1298 65.9598 34.8295 65.9598 30.7584C65.9598 26.6873 62.6595 23.387 58.5884 23.387C54.5173 23.387 51.217 26.6873 51.217 30.7584C51.217 34.8295 54.5173 38.1298 58.5884 38.1298Z" fill="#B7022D"/>
<path d="M58.5885 34.9322C60.8936 34.9322 62.7623 33.0635 62.7623 30.7584C62.7623 28.4533 60.8936 26.5847 58.5885 26.5847C56.2834 26.5847 54.4148 28.4533 54.4148 30.7584C54.4148 33.0635 56.2834 34.9322 58.5885 34.9322Z" fill="#E8566F"/>
<path d="M47.5083 51.7741C51.5794 51.7741 54.8797 48.4738 54.8797 44.4027C54.8797 40.3316 51.5794 37.0313 47.5083 37.0313C43.4372 37.0313 40.137 40.3316 40.137 44.4027C40.137 48.4738 43.4372 51.7741 47.5083 51.7741Z" fill="#5A7A39"/>
<path d="M47.5085 48.5764C49.8136 48.5764 51.6822 46.7078 51.6822 44.4027C51.6822 42.0976 49.8136 40.2289 47.5085 40.2289C45.2034 40.2289 43.3347 42.0976 43.3347 44.4027C43.3347 46.7078 45.2034 48.5764 47.5085 48.5764Z" fill="#76A34F"/>
<path d="M53.4419 58.9665C57.513 58.9665 60.8133 55.6662 60.8133 51.5951C60.8133 47.524 57.513 44.2238 53.4419 44.2238C49.3708 44.2238 46.0706 47.524 46.0706 51.5951C46.0706 55.6662 49.3708 58.9665 53.4419 58.9665Z" fill="#5A7A39"/>
<path d="M53.4421 55.7689C55.7472 55.7689 57.6158 53.9002 57.6158 51.5951C57.6158 49.29 55.7472 47.4214 53.4421 47.4214C51.137 47.4214 49.2683 49.29 49.2683 51.5951C49.2683 53.9002 51.137 55.7689 53.4421 55.7689Z" fill="#76A34F"/>
<path d="M30.106 58.7135C34.1771 58.7135 37.4774 55.4132 37.4774 51.3421C37.4774 47.271 34.1771 43.9707 30.106 43.9707C26.0349 43.9707 22.7346 47.271 22.7346 51.3421C22.7346 55.4132 26.0349 58.7135 30.106 58.7135Z" fill="#5A7A39"/>
<path d="M30.1061 55.5158C32.4112 55.5158 34.2799 53.6472 34.2799 51.3421C34.2799 49.037 32.4112 47.1683 30.1061 47.1683C27.801 47.1683 25.9324 49.037 25.9324 51.3421C25.9324 53.6472 27.801 55.5158 30.1061 55.5158Z" fill="#76A34F"/>
<path d="M31.3767 67.5181C35.4478 67.5181 38.7481 64.2178 38.7481 60.1467C38.7481 56.0756 35.4478 52.7753 31.3767 52.7753C27.3056 52.7753 24.0054 56.0756 24.0054 60.1467C24.0054 64.2178 27.3056 67.5181 31.3767 67.5181Z" fill="#5A7A39"/>
<path d="M31.3769 64.3205C33.682 64.3205 35.5506 62.4518 35.5506 60.1467C35.5506 57.8416 33.682 55.973 31.3769 55.973C29.0718 55.973 27.2031 57.8416 27.2031 60.1467C27.2031 62.4518 29.0718 64.3205 31.3769 64.3205Z" fill="#76A34F"/>
<path d="M37.2469 51.1152C41.318 51.1152 44.6183 47.8149 44.6183 43.7438C44.6183 39.6727 41.318 36.3724 37.2469 36.3724C33.1758 36.3724 29.8755 39.6727 29.8755 43.7438C29.8755 47.8149 33.1758 51.1152 37.2469 51.1152Z" fill="#5A7A39"/>
<path d="M37.247 47.9176C39.5521 47.9176 41.4207 46.049 41.4207 43.7439C41.4207 41.4388 39.5521 39.5701 37.247 39.5701C34.9419 39.5701 33.0732 41.4388 33.0732 43.7439C33.0732 46.049 34.9419 47.9176 37.247 47.9176Z" fill="#76A34F"/>
<path d="M40.3372 58.3961C44.4083 58.3961 47.7086 55.0959 47.7086 51.0248C47.7086 46.9537 44.4083 43.6534 40.3372 43.6534C36.2661 43.6534 32.9658 46.9537 32.9658 51.0248C32.9658 55.0959 36.2661 58.3961 40.3372 58.3961Z" fill="#5A7A39"/>
<path d="M40.3373 55.1985C42.6424 55.1985 44.5111 53.3299 44.5111 51.0248C44.5111 48.7197 42.6424 46.851 40.3373 46.851C38.0322 46.851 36.1636 48.7197 36.1636 51.0248C36.1636 53.3299 38.0322 55.1985 40.3373 55.1985Z" fill="#76A34F"/>
<path d="M44.1717 66.6308C48.2428 66.6308 51.543 63.3305 51.543 59.2594C51.543 55.1883 48.2428 51.8881 44.1717 51.8881C40.1006 51.8881 36.8003 55.1883 36.8003 59.2594C36.8003 63.3305 40.1006 66.6308 44.1717 66.6308Z" fill="#5A7A39"/>
<path d="M44.1718 63.4332C46.4769 63.4332 48.3456 61.5645 48.3456 59.2594C48.3456 56.9543 46.4769 55.0857 44.1718 55.0857C41.8667 55.0857 39.998 56.9543 39.998 59.2594C39.998 61.5645 41.8667 63.4332 44.1718 63.4332Z" fill="#76A34F"/>
<path d="M21.7139 61.0453C22.5134 61.0453 23.1614 60.3973 23.1614 59.5978V1.919C23.1614 1.1195 22.5134 0.471497 21.7139 0.471497C20.9144 0.471497 20.2664 1.1195 20.2664 1.919V59.5978C20.2664 60.3973 20.9144 61.0453 21.7139 61.0453Z" fill="#EE9673"/>
<path d="M30.5211 57.8735C31.2366 57.5173 31.5283 56.6484 31.1721 55.9329L5.47596 4.29425C5.11971 3.57875 4.25084 3.287 3.53534 3.64325C2.81984 3.9995 2.52809 4.86837 2.88434 5.58387L28.5805 57.2225C28.9367 57.9384 29.8056 58.2298 30.5211 57.8735V57.8735Z" fill="#FFB775"/>
<path d="M37.4351 30.4741H34.3874C32.5754 30.4741 31.1069 29.0052 31.1069 27.1936V21.9477C31.1069 20.1357 32.5758 18.6672 34.3874 18.6672H37.4351C39.2471 18.6672 40.7156 20.1361 40.7156 21.9477V27.1936C40.7156 29.0052 39.2471 30.4741 37.4351 30.4741Z" fill="#FFC91D"/>
<path d="M38.6201 18.8878C38.7626 19.2553 38.841 19.655 38.841 20.0728V25.3186C38.841 27.1306 37.3721 28.5991 35.5605 28.5991H32.5129C32.0951 28.5991 31.6954 28.5208 31.3279 28.3783C31.803 29.6045 32.994 30.4741 34.3879 30.4741H37.4355C39.2475 30.4741 40.716 29.0053 40.716 27.1936V21.9478C40.7156 20.5539 39.8464 19.3629 38.6201 18.8878Z" fill="#FFA91A"/>
<path d="M30.5771 22.9839H27.5295C25.7175 22.9839 24.249 21.515 24.249 19.7034V14.4575C24.249 12.6455 25.7179 11.177 27.5295 11.177H30.5771C32.3891 11.177 33.8576 12.6459 33.8576 14.4575V19.7034C33.858 21.515 32.3891 22.9839 30.5771 22.9839Z" fill="#F79219"/>
<path d="M31.7622 11.3975C31.9047 11.765 31.9831 12.1647 31.9831 12.5825V17.8283C31.9831 19.6403 30.5142 21.1088 28.7026 21.1088H25.655C25.2372 21.1088 24.8375 21.0305 24.47 20.888C24.9451 22.1142 26.1361 22.9838 27.53 22.9838H30.5776C32.3896 22.9838 33.8581 21.515 33.8581 19.7033V14.4575C33.8581 13.0636 32.9885 11.8726 31.7622 11.3975Z" fill="#EF7816"/>
<path d="M37.0161 19.7855H33.9685C32.1565 19.7855 30.688 18.3166 30.688 16.505V11.2591C30.688 9.44708 32.1569 7.97858 33.9685 7.97858H37.0161C38.8281 7.97858 40.2966 9.44745 40.2966 11.2591V16.505C40.297 18.3166 38.8281 19.7855 37.0161 19.7855Z" fill="#FFC91D"/>
<path d="M38.2012 8.1991C38.3437 8.5666 38.4221 8.96635 38.4221 9.3841V14.63C38.4221 16.442 36.9532 17.9105 35.1416 17.9105H32.0939C31.6762 17.9105 31.2764 17.8321 30.9089 17.6896C31.3841 18.9158 32.5751 19.7855 33.9689 19.7855H37.0166C38.8286 19.7855 40.2971 18.3166 40.2971 16.505V11.2591C40.2971 9.86522 39.4274 8.6746 38.2012 8.1991V8.1991Z" fill="#FFA91A"/>
<path d="M45.366 22.5433H42.3183C40.5063 22.5433 39.0378 21.0744 39.0378 19.2628V14.0169C39.0378 12.2049 40.5067 10.7364 42.3183 10.7364H45.366C47.178 10.7364 48.6465 12.2053 48.6465 14.0169V19.2628C48.6468 21.0744 47.178 22.5433 45.366 22.5433Z" fill="#F79219"/>
<path d="M46.551 10.9568C46.6935 11.3243 46.7719 11.7241 46.7719 12.1418V17.3877C46.7719 19.1997 45.303 20.6682 43.4914 20.6682H40.4438C40.026 20.6682 39.6263 20.5898 39.2588 20.4473C39.7339 21.6736 40.9249 22.5432 42.3188 22.5432H45.3664C47.1784 22.5432 48.6469 21.0743 48.6469 19.2627V14.0168C48.6469 12.6226 47.7773 11.432 46.551 10.9568V10.9568Z" fill="#EF7816"/>
</svg>
