<svg width="103" height="103" viewBox="0 0 103 103" fill="none" xmlns="http://www.w3.org/2000/svg">
<g clip-path="url(#clip0)">
<path fill-rule="evenodd" clip-rule="evenodd" d="M16.399 103L59.981 103C62.7964 103 65.0709 100.512 65.0709 97.4324L65.0709 27.8378C65.0709 24.7583 62.7964 22.2703 59.981 22.2703L16.399 22.2703C13.5836 22.2703 11.3091 24.7583 11.3091 27.8378L11.3091 97.4324C11.3091 100.512 13.5836 103 16.399 103ZM33.3184 26.7939C32.0212 26.7939 30.9696 27.8455 30.9696 29.1427C30.9696 30.4399 32.0212 31.4916 33.3184 31.4916L43.0616 31.4916C44.3589 31.4916 45.4105 30.4399 45.4105 29.1427C45.4105 27.8455 44.3589 26.7939 43.0616 26.7939L33.3184 26.7939Z" fill="white"/>
<path fill-rule="evenodd" clip-rule="evenodd" d="M56.0391 103L59.9825 103C62.7971 103 65.0709 100.512 65.0709 97.4324L65.0709 27.8378C65.0709 24.7583 62.7971 22.2703 59.9825 22.2703L16.3975 22.2703C13.5829 22.2703 11.3091 24.7583 11.3091 27.8378L11.3091 36.137C11.3091 37.3027 11.9769 38.3466 12.9628 38.7468C36.1785 48.2986 52.1751 71.1257 53.4949 100.355C53.4949 101.608 54.5443 103 56.0391 103ZM33.3184 26.7939C32.0212 26.7939 30.9696 27.8455 30.9696 29.1427C30.9696 30.4399 32.0212 31.4916 33.3184 31.4916L43.0616 31.4916C44.3589 31.4916 45.4105 30.4399 45.4105 29.1427C45.4105 27.8455 44.3589 26.7939 43.0616 26.7939L33.3184 26.7939Z" fill="#E9F2FF"/>
<path d="M38.625 96.5626L30.6216 88.5592L46.6283 88.5592L38.625 96.5626Z" fill="#7CA0CA"/>
<path d="M90.5356 62.1289C90.9246 62.7866 90.705 63.6458 90.046 64.0354L84.0532 67.5792C83.3942 67.9689 82.5355 67.7474 82.1466 67.0896L78.6042 61.0991C78.2138 60.439 78.4349 59.5822 79.0938 59.1926L85.0867 55.6488C85.7456 55.2591 86.6029 55.4783 86.9933 56.1384L90.5356 62.1289Z" fill="#EDAB37"/>
<path d="M84.1541 51.3365C84.5431 51.9942 84.3235 52.8534 83.6645 53.243L80.0798 55.3628C79.4209 55.7525 78.5622 55.5309 78.1733 54.8732L73.9224 47.6846C73.532 47.0245 73.7531 46.1677 74.412 45.7781L77.9967 43.6583C78.6557 43.2686 79.5129 43.4878 79.9033 44.1479L84.1541 51.3365Z" fill="#EDAB37"/>
<path d="M75.3777 41.9696L68.1725 29.7849C69.0355 29.467 69.8815 29.0654 70.6962 28.5837C71.5109 28.1019 72.2716 27.5534 72.9648 26.951L95.0551 64.3076L90.2627 67.1415L88.8458 64.7453L83.8864 56.3587L81.0454 51.5543L75.3777 41.9696Z" fill="#F6BB42"/>
<path d="M49.7239 23.198C45.4163 15.9135 47.8372 6.52615 55.1097 2.22571C62.3941 -2.08181 71.7744 0.327113 76.0819 7.61152C79.9077 14.0812 78.4323 22.1964 72.9648 26.9512C72.2715 27.5535 71.5108 28.102 70.6961 28.5838C69.8814 29.0655 69.0355 29.4671 68.1724 29.7851C61.3644 32.2731 53.5418 29.6545 49.7239 23.198ZM55.7143 19.6556C58.0587 23.6201 63.188 24.9383 67.1537 22.5933C71.1206 20.2475 72.4358 15.1184 70.0914 11.1539C67.7457 7.187 62.6189 5.87042 58.652 8.21618C54.6875 10.5605 53.3693 15.6899 55.7143 19.6556Z" fill="#FFCE54"/>
<path d="M89.8845 62.9796C89.4927 62.3171 89.7116 61.4648 90.3741 61.073L92.7655 59.6589C93.4281 59.2671 94.2803 59.486 94.6721 60.1485C95.0639 60.8111 94.845 61.6633 94.1825 62.0551L91.7911 63.4692C91.1285 63.861 90.2763 63.6421 89.8845 62.9796Z" fill="#F6BB42"/>
<path d="M42.8357 29.0728C42.3352 28.4879 42.4035 27.6107 42.9883 27.1102L56.7365 15.3459C57.3213 14.8454 58.1986 14.9136 58.699 15.4985C59.1995 16.0833 59.1312 16.9605 58.5464 17.461L44.7982 29.2254C44.2134 29.7258 43.3361 29.6576 42.8357 29.0728Z" fill="#C9DDE3"/>
</g>
<defs>
<clipPath id="clip0">
<rect width="103" height="103" fill="white" transform="translate(103) rotate(90)"/>
</clipPath>
</defs>
</svg>
