<svg width="93" height="81" viewBox="0 0 93 81" fill="none" xmlns="http://www.w3.org/2000/svg">
<g clip-path="url(#clip0)">
<path d="M44.0001 75.2185C36.7358 75.2185 30.069 74.1429 24.8472 72.3497C25.5984 75.3212 27.0099 77.5685 28.7502 78.2877C32.6781 79.911 38.0611 80.9121 44.0001 80.9121C49.9391 80.9121 55.3221 79.911 59.25 78.2877C60.9903 77.5685 62.4018 75.3212 63.1531 72.3497C57.9312 74.1429 51.2644 75.2185 44.0001 75.2185Z" fill="url(#paint0_linear)"/>
<path d="M88 38.5903C88 26.3608 0 26.3608 0 38.5903C0 50.8199 10.3403 77.3155 44 77.3155C77.6597 77.3155 88 50.8199 88 38.5903Z" fill="url(#paint1_linear)"/>
<path d="M88 38.5903C88 50.8199 0 50.8199 0 38.5903C0 26.3608 88 26.3608 88 38.5903Z" fill="url(#paint2_linear)"/>
<path d="M84.3665 38.5903C84.3665 47.6031 3.63354 47.6031 3.63354 38.5903C3.63354 29.5776 84.3665 29.5776 84.3665 38.5903Z" fill="url(#paint3_linear)"/>
<path d="M5.25195 40.6723C9.47216 43.2167 21.427 44.7231 34.8051 45.1912C36.1491 45.2383 37.5072 44.0669 38.8735 44.0931C40.0922 44.1164 41.3173 45.3391 42.5441 45.3458C59.8075 45.4387 77.4263 43.8807 82.7477 40.6725C72.4041 34.4361 15.5957 34.4361 5.25195 40.6723V40.6723Z" fill="url(#paint4_linear)"/>
<path d="M66.655 17.5023C69.1132 18.9146 71.2113 20.8765 72.7853 23.2344C73.5314 24.4539 74.0218 25.8123 74.2268 27.2272C74.4317 28.642 74.3469 30.0838 73.9774 31.4648C73.608 32.8459 72.9617 34.1374 72.0777 35.261C71.1937 36.3846 70.0906 37.3167 68.8353 38.0008C67.58 38.6849 66.1987 39.1067 64.7753 39.2405C63.352 39.3743 61.9163 39.2174 60.5555 38.7793C59.1946 38.3412 57.9371 37.631 56.8592 36.6919C55.7813 35.7527 54.9055 34.6043 54.2852 33.3163C53.2932 31.2319 52.6897 28.9841 52.5044 26.6832C52.1156 22.392 53.0736 17.9931 56.0693 16.1543C56.9757 15.6638 57.9706 15.3586 58.996 15.2564C60.0215 15.1541 61.057 15.2569 62.0424 15.5587C63.6678 15.9742 65.2224 16.6292 66.655 17.5023V17.5023ZM69.9658 30.3454C70.2547 29.1403 70.1798 27.8765 69.7505 26.714C69.3212 25.5514 68.5568 24.5423 67.5539 23.8141C66.5511 23.086 65.3548 22.6716 64.1165 22.6233C62.8781 22.5751 61.6533 22.8951 60.5968 23.543C59.5404 24.1908 58.6997 25.1374 58.1812 26.263C57.6627 27.3887 57.4897 28.6427 57.6839 29.8667C57.8782 31.0907 58.431 32.2296 59.2725 33.1393C60.1141 34.0491 61.2065 34.6889 62.4116 34.9779C64.0276 35.3653 65.7314 35.0949 67.1481 34.2262C68.5648 33.3574 69.5783 31.9615 69.9658 30.3454Z" fill="#FFFAE8"/>
<path d="M62.4123 34.9748C65.777 35.7815 69.1585 33.7078 69.9652 30.3432C70.7718 26.9785 68.6982 23.5969 65.3335 22.7903C61.9688 21.9836 58.5873 24.0573 57.7806 27.4219C56.9739 30.7866 59.0476 34.1681 62.4123 34.9748Z" fill="#FCD83C"/>
<path d="M56.0694 16.1572C57.8573 15.1848 59.9571 14.9583 61.9112 15.527C64.1986 16.1094 66.3492 17.1358 68.2405 18.5479C69.3022 19.3044 70.2826 20.169 71.166 21.1276C71.7733 21.7755 72.3159 22.481 72.7862 23.2343C73.0411 23.6515 73.2671 24.0857 73.4627 24.5338C73.2257 24.2364 72.9804 23.9381 72.7089 23.6464C71.8256 22.6874 70.8453 21.8226 69.7836 21.0657C67.8924 19.6534 65.7418 18.6269 63.4544 18.0448C61.5004 17.4745 59.4002 17.7003 57.612 18.6728C54.919 20.3242 53.8786 24.0365 53.9759 27.8819C54.0324 30.4836 54.5993 33.0488 55.6442 35.4321C55.3382 35.0621 55.0575 34.6719 54.8041 34.2641C53.2875 31.5413 52.4744 28.4831 52.4386 25.3666C52.336 21.521 53.3761 17.8097 56.0694 16.1572V16.1572Z" fill="#FFF2C4"/>
<path d="M68.4216 27.8274C68.689 26.71 68.6416 25.5403 68.2846 24.4482C68.9575 25.1159 69.47 25.9277 69.7833 26.8224C70.0965 27.7171 70.2024 28.6713 70.093 29.6129C69.9835 30.5545 69.6616 31.4589 69.1514 32.2579C68.6413 33.0569 67.9563 33.7295 67.1482 34.225C66.34 34.7205 65.4299 35.026 64.4864 35.1183C63.543 35.2105 62.5909 35.0873 61.702 34.7578C60.8132 34.4282 60.0108 33.9011 59.3555 33.2161C58.7002 32.5311 58.2091 31.7062 57.9193 30.8037C58.7061 31.59 59.6885 32.1521 60.7651 32.4321C61.8416 32.7121 62.9734 32.6998 64.0436 32.3965C65.1138 32.0932 66.0838 31.5099 66.8533 30.7067C67.6229 29.9035 68.1643 28.9096 68.4216 27.8274Z" fill="#F6A635"/>
<path d="M72.7851 23.2354C72.5205 22.8125 72.2307 22.4059 71.9172 22.0178C72.5347 23.4384 72.8314 24.9778 72.7861 26.5261C72.7408 28.0745 72.3547 29.5938 71.6553 30.976C71.5492 29.4617 70.8991 28.0368 69.8249 26.9642C70.2595 28.2997 70.2316 29.7426 69.7459 31.0603C69.2603 32.3781 68.345 33.4939 67.1477 34.2279C65.9504 34.9619 64.5408 35.2714 63.1461 35.1065C61.7514 34.9415 60.4529 34.3117 59.4599 33.3187C59.9317 34.7712 60.9161 36.0024 62.2293 36.7823C59.6814 36.7787 57.2207 35.8546 55.3002 34.1803C54.8662 33.7919 54.4649 33.3684 54.1002 32.9143C54.3071 33.3781 54.5418 33.8288 54.8033 34.2642C55.521 35.458 56.4682 36.4978 57.59 37.3236C58.7118 38.1494 59.9861 38.7448 61.3392 39.0754C62.6924 39.4061 64.0977 39.4654 65.4739 39.25C66.8501 39.0346 68.1701 38.5488 69.3575 37.8205C70.5449 37.0922 71.5764 36.1359 72.3922 35.0068C73.2081 33.8778 73.7922 32.5983 74.1109 31.2422C74.4296 29.8862 74.4765 28.4805 74.2489 27.1062C74.0214 25.7319 73.5239 24.4163 72.7851 23.2354V23.2354Z" fill="#FFEFB5"/>
<path d="M65.375 24.1447C65.5595 24.297 65.7058 24.4902 65.8025 24.7089C65.8992 24.9277 65.9436 25.1659 65.9321 25.4048C65.8437 25.8695 65.5786 26.2817 65.1924 26.5548C64.5318 27.0924 63.7209 27.4123 62.8712 27.4707C62.5436 27.5189 62.2101 27.4389 61.9399 27.2474C61.234 26.6486 61.6214 24.8267 62.2006 24.2073C62.6282 23.8061 63.1895 23.5776 63.7758 23.5661C64.3621 23.5545 64.9319 23.7607 65.375 24.1447Z" fill="#FFEF96"/>
<path d="M0.77124 45.0477C1.1298 46.6674 1.62139 48.373 2.25879 50.1199C14.5619 58.122 73.438 58.122 85.7411 50.1199C86.3785 48.373 86.8701 46.6674 87.2287 45.0477C87.1781 44.9874 87.1279 44.9272 87.0727 44.8679C78.2899 54.3209 9.71014 54.3209 0.927397 44.8679C0.872181 44.9272 0.821797 44.9874 0.77124 45.0477Z" fill="url(#paint5_linear)"/>
<path d="M3.63354 53.4404C4.16551 54.5858 4.76081 55.736 5.42529 56.8799C21.1771 62.8347 66.8227 62.8347 82.5746 56.8799C83.2392 55.736 83.8345 54.5858 84.3663 53.4404C70.0917 60.4166 17.9084 60.4166 3.63354 53.4404V53.4404Z" fill="url(#paint6_linear)"/>
<path d="M72.2445 43.5858C64.2725 44.8161 53.3531 45.4028 42.57 45.346C41.4552 45.3401 40.3417 44.1195 39.2331 44.0999C37.7493 44.0736 36.2742 45.2428 34.8162 45.1919C27.7581 44.9453 21.0954 44.4101 15.7554 43.586C17.9433 39.1066 21.5599 35.2605 26.1187 32.4583C31.1467 29.3662 37.324 27.5441 43.9999 27.5441C50.6758 27.5441 56.8531 29.3662 61.8812 32.4583C66.4399 35.2603 70.0566 39.1065 72.2445 43.5858Z" fill="url(#paint7_linear)"/>
<path d="M67.8003 44.1728C65.2895 39.8969 61.5913 36.2147 57.075 33.4385C54.1914 31.6653 50.9735 30.2617 47.5172 29.3089C41.3509 27.6091 34.7561 28.1209 28.9911 30.8914C27.9977 31.3688 27.0389 31.8922 26.1187 32.4579C21.5599 35.2601 17.9433 39.1063 15.7554 43.5856C29.5986 45.7221 52.3285 45.9176 67.8003 44.1728Z" fill="url(#paint8_linear)"/>
<path d="M61.9371 44.7176C59.4324 40.5975 55.8213 37.0438 51.4344 34.3472C48.573 32.5876 45.3824 31.1922 41.9564 30.2399C36.6314 28.7597 30.9083 29.5309 26.1923 32.4129C26.1677 32.428 26.1432 32.443 26.1187 32.4581C21.5599 35.2603 17.9433 39.1065 15.7554 43.5858C27.9353 45.4654 46.9947 45.8426 61.9371 44.7176V44.7176Z" fill="url(#paint9_linear)"/>
<path d="M55.8967 45.0813C53.3993 41.0733 49.8491 37.6137 45.5562 34.9749C42.8976 33.34 39.9546 32.0195 36.8026 31.0767C33.2272 30.0073 29.3504 30.479 26.1679 32.4279C26.1515 32.4379 26.1351 32.448 26.1189 32.4581C21.5602 35.2603 17.9435 39.1064 15.7556 43.5858C21.096 44.4099 27.7588 44.9451 34.8173 45.1917C36.1552 45.2385 37.5075 44.412 38.8675 44.438C40.1075 44.4617 41.3538 45.3394 42.602 45.346C47.0841 45.3688 51.5897 45.2806 55.8967 45.0813Z" fill="url(#paint10_linear)"/>
<path d="M49.5034 45.2932C47.091 41.9085 43.9022 38.9694 40.1443 36.6595C37.2607 34.8862 34.0428 33.4827 30.5865 32.5299C30.4119 32.4818 30.1827 32.4469 29.9203 32.4224C27.5293 32.1988 25.1583 32.9575 23.2697 34.4407C20.0474 36.9717 17.4652 40.0855 15.7554 43.5858C21.0932 44.4096 27.7522 44.9447 34.807 45.1912C36.1018 45.2364 37.4101 44.2367 38.7258 44.2626C40.0101 44.2878 41.3018 45.3391 42.5952 45.3457C44.902 45.3576 47.2147 45.3401 49.5034 45.2932Z" fill="url(#paint11_linear)"/>
<path d="M43.6393 45.3489C41.4498 42.7455 38.7762 40.4575 35.7277 38.5836C32.8441 36.8103 29.6262 35.4068 26.1699 34.454C26.1625 34.4519 26.1551 34.4499 26.1477 34.448C24.7345 34.0597 23.224 34.4343 22.1193 35.3971C19.4307 37.7405 17.256 40.5132 15.7554 43.5856C23.2863 44.7479 33.4475 45.3355 43.6393 45.3489Z" fill="url(#paint12_linear)"/>
<path d="M22.3744 32.7808C17.688 34.3217 13.8332 37.6984 11.7557 42.202C11.6643 42.4004 11.5746 42.6006 11.4883 42.8007C12.6759 43.0614 13.9761 43.3027 15.3686 43.5247C15.7685 42.2561 16.2486 41.0136 16.809 39.7984C17.9254 37.3775 19.5284 35.2672 21.4868 33.5642C21.8152 33.2784 22.1535 33.0044 22.5012 32.742C22.4593 32.7553 22.4163 32.767 22.3744 32.7808V32.7808Z" fill="url(#paint13_linear)"/>
<path d="M30.8222 28.4567C27.1797 29.0192 23.8616 30.5825 21.1992 32.8999C19.2407 34.6029 17.6378 36.7132 16.5214 39.134C15.8743 40.5369 15.3342 41.9759 14.9011 43.4495C15.2186 43.5013 15.5396 43.553 15.8674 43.6031C16.9372 43.767 18.0588 43.9188 19.2252 44.0603C19.3187 43.7685 19.4179 43.4788 19.5211 43.1902C20.0215 41.3342 20.6907 39.5264 21.5322 37.7763C22.3276 36.1198 23.3578 34.6065 24.5794 33.2658C26.4914 31.1666 28.8721 29.492 31.5528 28.3592C31.3093 28.3875 31.0659 28.4191 30.8222 28.4567V28.4567Z" fill="url(#paint14_linear)"/>
<path d="M35.9314 26.5545C31.2485 27.2803 27.0745 29.5101 24.0618 32.776C22.8401 34.0996 21.81 35.5937 21.0146 37.2291C19.9568 39.4011 19.1666 41.6617 18.6489 43.9956C18.8387 44.0194 19.032 44.0417 19.2252 44.0655C20.4279 44.2085 21.6772 44.3398 22.9678 44.4573C23.4147 42.6038 24.0618 40.8048 24.9038 39.0742C25.3839 38.0886 28.2385 33.7805 28.7808 33.1107C31.5021 29.7384 35.2438 27.3609 39.4463 26.3002C38.2819 26.2904 37.1067 26.3727 35.9314 26.5545V26.5545Z" fill="url(#paint15_linear)"/>
<path d="M41.9725 25.4475C36.558 25.6286 31.5885 28.1513 28.2756 32.3097C27.7804 32.9292 27.3231 33.5866 26.9056 34.2785C25.0162 37.4086 23.6979 40.8233 22.9697 44.4572C24.3984 44.5918 25.8772 44.7091 27.3922 44.8126C27.7067 43.3808 28.1286 41.9909 28.6549 40.6476C28.9794 39.7085 29.3451 38.7826 29.7561 37.8727C30.7638 35.6468 32.1649 33.678 33.8645 32.0388C36.6339 29.3695 40.1987 27.575 44.1415 26.9711C46.1141 26.6679 48.086 26.6783 49.9973 26.9757C47.5122 25.8918 44.7804 25.3526 41.9725 25.4475V25.4475Z" fill="url(#paint16_linear)"/>
<path d="M43.7962 26.5286C39.8535 27.1474 36.2886 28.9857 33.5192 31.7205C31.8196 33.3999 30.4185 35.4168 29.4108 37.6972C28.4066 39.974 27.6594 42.3446 27.1746 44.7912C27.247 44.7966 27.3195 44.8017 27.392 44.8071C28.6604 44.8968 29.9569 44.9734 31.2729 45.0411C31.729 43.3867 32.3224 41.7716 33.05 40.2012C33.1442 39.9724 33.2414 39.7447 33.3415 39.518C34.3975 37.1228 36.0196 35.1047 38.0198 33.608C38.6411 33.0765 39.2961 32.5815 39.9829 32.1282C42.4106 30.5295 45.2215 29.4366 48.2463 28.9749C51.2816 28.5119 54.3177 28.7074 57.1595 29.496C53.265 26.8762 48.5318 25.7831 43.7962 26.5286V26.5286Z" fill="url(#paint17_linear)"/>
<path d="M66.4951 34.8704C65.7342 34.0507 64.9111 33.3036 64.0398 32.6341C59.6311 29.2349 53.937 27.7613 48.2464 28.6465C45.2216 29.1176 42.4108 30.2322 39.983 31.8628C37.0911 33.8092 34.7444 36.4889 33.2381 39.6862C32.4219 41.4186 31.7662 43.2062 31.271 45.0404C31.3573 45.0456 31.4435 45.0507 31.5298 45.0542C32.4844 45.1009 33.4527 45.1398 34.4261 45.1748C37.5395 37.0704 45.0092 31.3607 53.7307 31.3607C58.8014 31.3607 63.4488 33.2912 67.0635 36.4996C67.1072 35.9213 66.921 35.328 66.4951 34.8704Z" fill="url(#paint18_linear)"/>
<path d="M26.338 31.4492C26.7441 30.3396 26.1737 29.1107 25.0642 28.7046C23.9546 28.2985 22.7257 28.8689 22.3196 29.9784C21.9135 31.088 22.4839 32.3167 23.5934 32.723C24.7033 33.1291 25.932 32.5587 26.338 31.4492Z" fill="url(#paint19_linear)"/>
<path d="M19.4966 33.2625C18.6207 32.9421 17.6507 33.3921 17.33 34.2684C17.0092 35.1443 17.4596 36.1143 18.3358 36.435C19.212 36.7557 20.1817 36.3054 20.5025 35.4292C20.8229 34.5532 20.3725 33.5832 19.4966 33.2625Z" fill="url(#paint20_linear)"/>
<path d="M25.8956 37.3936C25.3675 37.2005 24.7826 37.472 24.5895 38.0001C24.3961 38.5282 24.6675 39.1132 25.1957 39.3063C25.7238 39.4994 26.3087 39.2282 26.5018 38.7001C26.6952 38.1717 26.4237 37.5871 25.8956 37.3936Z" fill="url(#paint21_linear)"/>
<path d="M35.2477 33.9797C34.0732 34.1079 33.225 35.1641 33.3531 36.3389C33.4813 37.5134 34.5375 38.3617 35.7123 38.2335C36.8868 38.1053 37.7351 37.0491 37.6069 35.8743C37.4788 34.6995 36.4225 33.8515 35.2477 33.9797Z" fill="url(#paint22_linear)"/>
<path d="M38.3128 28.321C37.3856 28.4224 36.7159 29.2561 36.817 30.1835C36.9183 31.1107 37.752 31.7804 38.6795 31.6793C39.6067 31.578 40.2764 30.7443 40.1753 29.8168C40.0739 28.8893 39.24 28.2196 38.3128 28.321Z" fill="url(#paint23_linear)"/>
<path d="M30.8911 28.7906C30.3321 28.8517 29.9283 29.3542 29.9892 29.9135C30.0504 30.4725 30.5529 30.8762 31.1122 30.8153C31.6712 30.7542 32.0749 30.2517 32.014 29.6924C31.9531 29.1331 31.4501 28.7294 30.8911 28.7906Z" fill="url(#paint24_linear)"/>
<path d="M28.7607 37.9396C27.9439 38.2477 27.5314 39.1601 27.8399 39.9769C28.1481 40.7937 29.0604 41.2061 29.8772 40.8977C30.694 40.5895 31.1065 39.6771 30.798 38.8603C30.4895 38.0436 29.5775 37.6311 28.7607 37.9396Z" fill="url(#paint25_linear)"/>
<path d="M29.9108 33.3252C29.2658 33.5687 28.9405 34.2888 29.1837 34.9337C29.4272 35.5787 30.1473 35.904 30.7922 35.6608C31.4372 35.4173 31.7625 34.6972 31.5193 34.0523C31.2758 33.4073 30.5557 33.0817 29.9108 33.3252Z" fill="url(#paint26_linear)"/>
<path d="M25.2182 36.4374C25.6071 36.2905 25.8032 35.8565 25.6566 35.4676C25.5098 35.0788 25.0758 34.8827 24.6869 35.0292C24.298 35.176 24.102 35.6101 24.2485 35.999C24.3953 36.3878 24.8297 36.5842 25.2182 36.4374Z" fill="url(#paint27_linear)"/>
<path d="M49.8356 30.7605C50.2416 29.651 49.6713 28.422 48.5617 28.016C47.4522 27.6099 46.2232 28.1802 45.8172 29.2898C45.4111 30.3993 45.9815 31.6283 47.091 32.0344C48.2005 32.4407 49.4292 31.8704 49.8356 30.7605V30.7605Z" fill="url(#paint28_linear)"/>
<path d="M42.9947 32.5739C42.1187 32.2534 41.1487 32.7035 40.828 33.5797C40.5073 34.4559 40.9576 35.4256 41.8336 35.7464C42.7095 36.0671 43.6795 35.6167 44.0002 34.7405C44.3209 33.8646 43.8706 32.8946 42.9947 32.5739Z" fill="url(#paint29_linear)"/>
<path d="M49.3937 36.7053C48.8656 36.5119 48.2807 36.7834 48.0875 37.3118C47.8941 37.8399 48.1656 38.4248 48.6937 38.618C49.2218 38.8114 49.8068 38.5399 49.9999 38.0118C50.1933 37.4834 49.9218 36.8984 49.3937 36.7053Z" fill="url(#paint30_linear)"/>
<path d="M61.7734 32.0289C60.5989 32.1571 59.7506 33.2133 59.8788 34.3881C60.0069 35.5626 61.0632 36.4109 62.238 36.2827C63.4125 36.1545 64.2607 35.0983 64.1326 33.9235C64.0044 32.749 62.9482 31.9007 61.7734 32.0289Z" fill="url(#paint31_linear)"/>
<path d="M61.1487 29.2322C61.0474 28.305 60.2137 27.6353 59.2862 27.7366C58.3587 27.838 57.6893 28.6717 57.7904 29.5989C57.8917 30.5264 58.7254 31.1958 59.6529 31.0947C60.5804 30.9933 61.2501 30.1593 61.1487 29.2322V29.2322Z" fill="url(#paint32_linear)"/>
<path d="M54.3886 28.102C53.8296 28.1631 53.4259 28.6656 53.4868 29.2249C53.548 29.7839 54.0504 30.1876 54.6097 30.1265C55.1687 30.0653 55.5725 29.5625 55.5116 29.0035C55.4504 28.4448 54.9476 28.0411 54.3886 28.102Z" fill="url(#paint33_linear)"/>
<path d="M52.2585 37.2509C51.4417 37.5591 51.0292 38.4714 51.3377 39.2882C51.6459 40.105 52.5582 40.5175 53.375 40.209C54.1918 39.9008 54.6043 38.9885 54.2958 38.1717C53.9873 37.3549 53.0753 36.9427 52.2585 37.2509V37.2509Z" fill="url(#paint34_linear)"/>
<path d="M53.4088 32.6365C52.7639 32.8801 52.4385 33.6001 52.6817 34.2448C52.9253 34.8897 53.6453 35.2151 54.2903 34.9719C54.9352 34.7283 55.2606 34.0082 55.0173 33.3636C54.7738 32.7187 54.0537 32.3933 53.4088 32.6365Z" fill="url(#paint35_linear)"/>
<path d="M48.7158 35.7487C49.1047 35.6019 49.3007 35.1679 49.1542 34.779C49.0074 34.3901 48.5734 34.1941 48.1845 34.3406C47.7956 34.4874 47.5996 34.9214 47.7461 35.3103C47.8929 35.6995 48.3269 35.8955 48.7158 35.7487Z" fill="url(#paint36_linear)"/>
<path d="M42.1745 28.6968C42.9581 28.9836 43.8257 28.5806 44.1126 27.7973C44.3994 27.0137 43.9967 26.1462 43.2131 25.8593C42.4295 25.5724 41.562 25.9751 41.2751 26.7587C40.9882 27.5427 41.3909 28.4102 42.1745 28.6968Z" fill="url(#paint37_linear)"/>
<path d="M34.6109 28.7002C34.7472 28.3272 34.5557 27.9144 34.1826 27.7778C33.8096 27.6414 33.3968 27.833 33.2605 28.206C33.1241 28.579 33.3157 28.9918 33.6887 29.1285C34.0614 29.2648 34.4742 29.0732 34.6109 28.7002Z" fill="url(#paint38_linear)"/>
<path d="M43.3802 31.822C43.3369 31.4272 42.9822 31.1423 42.5874 31.1852C42.1926 31.2284 41.9076 31.5831 41.9509 31.9779C41.9941 32.3727 42.3488 32.6577 42.7436 32.6148C43.1381 32.5716 43.4234 32.2168 43.3802 31.822Z" fill="url(#paint39_linear)"/>
<path d="M52.3047 28.2199C52.2615 27.8251 51.9068 27.5402 51.512 27.5831C51.1172 27.6263 50.8322 27.981 50.8754 28.3758C50.9187 28.7706 51.2737 29.0556 51.6682 29.0127C52.0627 28.9695 52.3476 28.6147 52.3047 28.2199Z" fill="url(#paint40_linear)"/>
<path d="M34.2256 30.7232C34.0078 30.1463 33.3637 29.8553 32.7868 30.0731C32.2099 30.2908 31.919 30.9349 32.1367 31.5115C32.3545 32.0884 32.9986 32.3794 33.5752 32.1616C34.152 31.9442 34.4433 31.3001 34.2256 30.7232Z" fill="url(#paint41_linear)"/>
<path d="M39.4262 27.5967C39.2542 27.1413 38.7458 26.9115 38.2904 27.0832C37.835 27.2552 37.6052 27.7636 37.7769 28.219C37.9489 28.6744 38.4573 28.9041 38.9127 28.7321C39.3684 28.5605 39.5982 28.052 39.4262 27.5967V27.5967Z" fill="url(#paint42_linear)"/>
<path d="M47.8628 27.5967C47.6908 27.1413 47.1824 26.9115 46.727 27.0832C46.2716 27.2552 46.0418 27.7636 46.2138 28.219C46.3858 28.6744 46.8942 28.9041 47.3496 28.7321C47.8047 28.5605 48.0344 28.052 47.8628 27.5967V27.5967Z" fill="url(#paint43_linear)"/>
<path d="M39.7154 30.1716C39.8189 30.4461 40.1257 30.5847 40.4002 30.4812C40.6748 30.3777 40.8133 30.0709 40.7098 29.7963C40.6063 29.5218 40.2995 29.3832 40.025 29.4867C39.7501 29.5906 39.6116 29.8973 39.7154 30.1716Z" fill="url(#paint44_linear)"/>
<path d="M42.3187 39.3221C42.0332 38.9622 41.5692 38.7494 41.065 38.8233H41.0633C40.9977 38.8336 40.9321 38.8371 40.8666 38.8371C40.601 38.8371 40.3425 38.7579 40.1232 38.613C40.0775 38.5648 39.8368 38.3236 39.7566 38.2603C39.4862 37.9212 39.095 37.75 38.7028 37.75C38.2956 37.75 37.8884 37.9312 37.6192 38.2936C37.3224 38.6922 36.8307 38.8958 36.3406 38.8233H36.3389C35.4434 38.6921 34.6755 39.4617 34.8067 40.3555V40.3572C34.817 40.4228 34.8205 40.4884 34.8205 40.554C34.8205 40.975 34.622 41.3787 34.2769 41.6358C33.9146 41.9067 33.7334 42.3122 33.7334 42.7177C33.7334 43.1111 33.9042 43.5035 34.2426 43.7725C34.2735 43.8119 34.4429 43.8203 34.5145 43.8936C34.5894 43.9704 34.5661 44.1117 34.5898 44.1342C34.7737 44.4084 34.8565 44.7438 34.8067 45.0799V45.0816C34.8015 45.1191 34.7982 45.1548 34.7965 45.1907C36.0625 45.235 37.3412 44.4073 38.6272 44.433C39.9407 44.4593 41.2617 45.3387 42.5848 45.3455C44.4951 45.3555 46.4099 45.3451 48.3115 45.3148L42.3187 39.3221Z" fill="url(#paint45_linear)"/>
<path d="M47.4328 41.6675C47.4328 42.2375 47.1792 42.8075 46.672 43.1843C46.1141 43.5997 45.8292 44.288 45.9306 44.9739V44.9763C45.9499 45.1019 45.9547 45.2251 45.9475 45.3458C44.0757 45.3386 42.2064 45.3144 40.3492 45.2782C39.3227 45.2565 38.3011 45.2323 37.2843 45.2033C36.5236 45.1816 35.7652 45.1574 35.0117 45.1309C35.0141 45.0802 35.0189 45.0294 35.0262 44.9763V44.9739C35.1276 44.288 34.8426 43.5997 34.2847 43.1843C33.7775 42.8075 33.5239 42.2375 33.5239 41.6675C33.5239 41.1 33.7775 40.5324 34.2847 40.1532C34.7677 39.7934 35.0455 39.2282 35.0455 38.6389C35.0455 38.5472 35.0406 38.4554 35.0262 38.3636V38.3612C34.8426 37.1101 35.9173 36.033 37.1708 36.2165H37.1732C37.8591 36.318 38.5475 36.033 38.9629 35.4751C39.3396 34.9679 39.9096 34.7143 40.4796 34.7143C41.0471 34.7143 41.6147 34.9679 41.9939 35.4751C42.3537 35.9581 42.9189 36.2358 43.5082 36.2358C43.6 36.2358 43.6917 36.231 43.7835 36.2165H43.7859C45.037 36.033 46.1117 37.1101 45.9306 38.3612V38.3636C45.8292 39.0495 46.1141 39.7378 46.672 40.1532C47.1792 40.5324 47.4328 41.1 47.4328 41.6675V41.6675Z" fill="url(#paint46_linear)"/>
<path d="M44.5735 41.1241C44.4624 42.0008 44.0156 42.7785 43.32 43.3195C42.622 43.8581 41.7574 44.0947 40.8831 43.9837C40.1368 43.8895 39.4751 43.5103 39.0162 42.9162C38.5549 42.322 38.3545 41.5854 38.4486 40.8415C38.509 40.3778 38.9317 40.0518 39.3954 40.1097C39.8567 40.1677 40.1851 40.5928 40.1272 41.0541C40.0885 41.3511 40.1682 41.6434 40.3518 41.88C40.5353 42.1167 40.7986 42.2689 41.0957 42.3051C41.5231 42.3607 41.9434 42.2447 42.2839 41.9815C42.6245 41.7182 42.8418 41.3391 42.8949 40.9116C43.0495 39.6967 42.1873 38.5809 40.9701 38.4264C40.1779 38.3249 39.393 38.5399 38.7626 39.0277C38.1298 39.518 37.7265 40.2233 37.6251 41.0154C37.3836 42.9355 38.567 44.713 40.3494 45.2782C39.3229 45.2564 38.3013 45.2323 37.2845 45.2033C36.7846 44.6285 36.403 43.9523 36.1687 43.2205C35.9272 42.4645 35.8427 41.6434 35.949 40.8029C36.275 38.2404 38.6225 36.4218 41.1826 36.7478C43.3248 37.0208 44.844 38.9843 44.5735 41.1241V41.1241Z" fill="url(#paint47_linear)"/>
<path d="M69.3514 43.4928L56.2542 30.3956C56.0075 30.0077 55.4558 29.753 54.8447 29.8219L54.8434 29.822C54.3524 29.8774 53.8613 29.7206 53.5649 29.4138C53.0248 28.8549 51.9384 28.8549 51.3983 29.4138C51.1019 29.7206 50.6108 29.8773 50.1197 29.822L50.1185 29.8219C49.224 29.7211 48.456 30.3129 48.5866 31.0023L48.5868 31.0031C48.6586 31.3815 48.4552 31.7599 48.0571 31.9884C47.3614 32.3877 47.335 33.1731 47.9739 33.604L48.3879 34.0341C48.5426 34.195 48.6279 34.4191 48.5877 34.6386C48.5873 34.6401 48.5872 34.6417 48.5868 34.6432L48.5866 34.6441C48.5164 35.014 48.7066 35.3547 49.0346 35.5766L57.6284 44.1704C61.7157 44.0404 65.6821 43.8146 69.3514 43.4928Z" fill="url(#paint48_linear)"/>
<path d="M59.6087 33.0423C59.036 33.371 58.7433 33.9154 58.8466 34.4599L58.8469 34.4611C59.035 35.4529 57.9301 36.3043 56.6429 36.1594L56.6412 36.1591C55.9346 36.0794 55.2281 36.3051 54.8016 36.7465C54.0246 37.5506 52.4616 37.5506 51.6846 36.7465C51.2581 36.3051 50.5516 36.0797 49.8451 36.1591L49.8433 36.1594C48.5564 36.3043 47.4515 35.4529 47.6396 34.4611L47.6399 34.4599C47.7432 33.9154 47.4505 33.371 46.8778 33.0423C45.8344 32.4436 45.8344 31.2393 46.8778 30.6405C47.4505 30.3119 47.7432 29.7674 47.6399 29.223L47.6396 29.2218C47.4515 28.23 48.5564 27.3785 49.8436 27.5235L49.8453 27.5238C50.5518 27.6034 51.2584 27.3778 51.6849 26.9364C52.4619 26.1323 54.0249 26.1323 54.8019 26.9364C55.2284 27.3778 55.9349 27.6032 56.6414 27.5238L56.6431 27.5235C57.9301 27.3785 59.035 28.23 58.8469 29.2218L58.8466 29.223C58.7433 29.7674 59.036 30.3119 59.6087 30.6405C60.6521 31.2393 60.6521 32.4436 59.6087 33.0423Z" fill="url(#paint49_linear)"/>
<path d="M48.8134 33.0711C48.5644 32.4706 48.4775 31.8205 48.5872 31.1549C48.9219 29.1267 51.3356 27.6861 53.9676 27.944C56.1683 28.1598 57.731 29.7148 57.4515 31.4106C57.3373 32.1032 56.8798 32.7201 56.1633 33.1476C55.4469 33.5751 54.5574 33.7623 53.6582 33.6741C52.8931 33.5992 52.2114 33.299 51.7393 32.8291C51.2668 32.3592 51.0603 31.7755 51.1579 31.1859C51.2184 30.819 51.6534 30.5596 52.1293 30.6063C52.6054 30.6529 52.942 30.9881 52.8815 31.355C52.8427 31.5898 52.9249 31.8219 53.1131 32.0094C53.301 32.1965 53.5726 32.316 53.8774 32.3457C54.3158 32.3887 54.7498 32.2976 55.0993 32.0891C55.4486 31.8805 55.6718 31.5796 55.7276 31.2418C55.8868 30.2783 54.9988 29.3946 53.7486 29.2724C52.9341 29.1925 52.1278 29.362 51.4786 29.7496C50.8294 30.1371 50.4149 30.6961 50.3113 31.324C50.0288 33.0351 51.6062 34.6046 53.827 34.822C54.3029 34.8687 54.6401 35.2033 54.5795 35.5708C54.5189 35.9377 54.084 36.1971 53.6078 36.1504C51.2999 35.9245 49.4787 34.6761 48.8134 33.0711V33.0711Z" fill="url(#paint50_linear)"/>
<path d="M41.1306 44.7952C39.0022 44.7728 36.8849 45.2637 34.802 45.1909C32.5739 45.1129 30.3853 45.0061 28.2654 44.8696L23.2545 39.8588C22.9267 39.6379 22.7369 39.2963 22.8076 38.927V38.9253C22.8076 38.9253 22.8076 38.9235 22.8076 38.9218C22.849 38.7027 22.7628 38.4784 22.6075 38.3162L22.1934 37.8865C21.8879 37.6795 21.7344 37.3913 21.7344 37.1049C21.7344 36.7926 21.9156 36.4785 22.2779 36.2715C22.6748 36.042 22.8784 35.6641 22.8076 35.2862V35.2845C22.7714 35.0912 22.8042 34.9049 22.8939 34.741C23.0268 34.489 23.2856 34.2872 23.6083 34.1802C23.8291 34.1043 24.0776 34.0749 24.3381 34.1042H24.3399C24.8316 34.1595 25.3217 34.0042 25.6185 33.697C25.8894 33.4175 26.2948 33.2777 26.7021 33.2777C27.1093 33.2777 27.5148 33.4175 27.7857 33.697C28.041 33.9628 28.4448 34.1146 28.8676 34.1146C28.9331 34.1146 28.9987 34.1112 29.0643 34.1042C29.6768 34.0352 30.2272 34.2906 30.474 34.6788L41.1306 44.7952Z" fill="url(#paint51_linear)"/>
<path d="M30.9113 38.076C30.356 38.3946 30.0722 38.9225 30.1724 39.4503L30.1726 39.4515C30.355 40.413 29.2838 41.2386 28.0358 41.098L28.0341 41.0978C27.3491 41.0205 26.6641 41.2393 26.2507 41.6672C25.4973 42.4468 23.982 42.4468 23.2286 41.6672C22.8151 41.2393 22.1301 41.0207 21.4452 41.0978L21.4435 41.098C20.1958 41.2386 19.1245 40.413 19.3069 39.4515L19.3072 39.4503C19.4073 38.9225 19.1235 38.3946 18.5683 38.076C17.5567 37.4955 17.5567 36.3279 18.5683 35.7474C19.1235 35.4287 19.4073 34.9009 19.3072 34.3731L19.3069 34.3719C19.1245 33.4103 20.1958 32.5848 21.4437 32.7253L21.4454 32.7256C22.1304 32.8028 22.8154 32.5841 23.2289 32.1561C23.9822 31.3765 25.4976 31.3765 26.2509 32.1561C26.6644 32.5841 27.3491 32.8026 28.0344 32.7256L28.036 32.7253C29.2838 32.5848 30.355 33.4103 30.1726 34.3719L30.1724 34.3731C30.0722 34.9009 30.356 35.4287 30.9113 35.7474C31.9229 36.3279 31.9229 37.4955 30.9113 38.076Z" fill="url(#paint52_linear)"/>
<path d="M20.4447 38.1039C20.2033 37.5217 20.1191 36.8913 20.2255 36.2461C20.5499 34.2797 22.8901 32.883 25.4418 33.1331C27.5755 33.3422 29.0906 34.8499 28.8196 36.494C28.7089 37.1655 28.2653 37.7636 27.5707 38.178C26.876 38.5925 26.0137 38.774 25.1419 38.6885C24.4001 38.6158 23.7392 38.3249 23.2814 37.8692C22.8234 37.4136 22.6232 36.8478 22.7177 36.2762C22.7765 35.9204 23.1981 35.6689 23.6595 35.7142C24.1212 35.7594 24.4475 36.0843 24.3888 36.4401C24.3513 36.6678 24.4309 36.8928 24.6134 37.0745C24.7956 37.256 25.0589 37.3718 25.3544 37.4006C25.7795 37.4423 26.2002 37.3539 26.5391 37.1518C26.8777 36.9496 27.0941 36.6579 27.1483 36.3303C27.3025 35.3962 26.4416 34.5394 25.2295 34.421C24.4398 34.3435 23.6581 34.5079 23.0287 34.8836C22.3993 35.2593 21.9974 35.8013 21.897 36.41C21.6231 38.069 23.1524 39.5906 25.3056 39.8015C25.767 39.8467 26.0938 40.1711 26.0351 40.5274C25.9764 40.8831 25.5547 41.1346 25.0931 41.0894C22.8554 40.8703 21.0898 39.6599 20.4447 38.1039V38.1039Z" fill="url(#paint53_linear)"/>
<path d="M60.3887 15.4653C60.1813 14.941 60.7512 14.4504 61.2414 14.7292C62.9731 15.714 65.5153 17.7404 65.5153 21.1507C65.5153 26.3221 59.2859 26.8097 59.2859 30.6403C59.2859 32.6062 59.5463 33.9638 59.7997 34.8196C59.9464 35.3147 59.4398 35.7509 58.9732 35.5302C57.4212 34.796 55.0339 33.0044 55.0339 28.9297C55.0339 22.8924 61.2115 22.9821 61.2115 19.6812C61.2115 17.9573 60.7907 16.4818 60.3887 15.4653V15.4653Z" fill="url(#paint54_linear)"/>
<path d="M44.9902 1.42208C44.8549 1.19121 45.2169 0.980699 45.4595 1.14842C47.1049 2.2862 49.8876 4.69188 49.8876 7.94633C49.8876 12.5668 44.6211 13.8749 43.9193 17.4781C43.3516 20.3926 44.6526 23.2299 45.2491 24.3319C45.3527 24.5231 45.1144 24.7171 44.8676 24.6432C43.0529 24.0997 38.171 22.0859 38.9 16.2837C39.6063 10.6629 44.8892 10.9197 45.8267 7.28305C46.5003 4.67204 45.6703 2.58282 44.9902 1.42208V1.42208Z" fill="url(#paint55_linear)"/>
<path d="M31.2058 16.6939C31.0208 16.2613 31.4084 15.8565 31.7856 16.0865C33.118 16.899 35.1102 18.5712 35.3233 21.3851C35.6465 25.6524 31.1054 26.0548 31.3449 29.2158C31.4677 30.8379 31.7436 31.9581 31.9831 32.6645C32.1217 33.0729 31.7773 33.433 31.421 33.2508C30.2361 32.645 28.3722 31.1666 28.1175 27.8043C27.7402 22.8225 32.2794 22.8965 32.073 20.1726C31.9654 18.7501 31.5644 17.5325 31.2058 16.6939V16.6939Z" fill="url(#paint56_linear)"/>
<path d="M88 38.5912C88 43.6952 72.6638 46.67 54.7964 47.512L60.0143 44.853C73.6439 43.9627 84.3661 41.8748 84.3661 38.5912C84.3661 37.2039 82.4525 36.0289 79.2138 35.0695L81.9711 33.6632C85.7482 34.9936 88 36.6362 88 38.5912Z" fill="url(#paint57_linear)"/>
<path d="M83.4827 29.2339C83.4584 32.0688 82.7787 34.8596 81.4966 37.3882C80.8002 38.6367 79.8573 39.7307 78.7251 40.6035C77.5928 41.4764 76.295 42.11 74.9104 42.4659C73.5258 42.8217 72.0832 42.8924 70.6705 42.6735C69.2577 42.4547 67.9042 41.951 66.6921 41.1929C65.48 40.4349 64.4346 39.4383 63.6196 38.2638C62.8045 37.0893 62.2366 35.7614 61.9506 34.3607C61.6645 32.96 61.6662 31.5157 61.9555 30.1157C62.2448 28.7156 62.8157 27.389 63.6335 26.2164C64.9628 24.3292 66.6252 22.7003 68.5391 21.4097C72.0872 18.9651 76.3902 17.6411 79.4624 19.3489C80.3345 19.898 81.0887 20.615 81.681 21.4584C82.2733 22.3017 82.6919 23.2544 82.9125 24.2611C83.3482 25.8812 83.5404 27.5572 83.4827 29.2339V29.2339ZM73.9171 38.4211C75.1089 38.0815 76.1732 37.396 76.9755 36.4514C77.7778 35.5069 78.2819 34.3456 78.4242 33.1145C78.5665 31.8834 78.3406 30.6378 77.7749 29.5351C77.2093 28.4324 76.3293 27.5223 75.2464 26.9197C74.1635 26.3171 72.9262 26.0492 71.691 26.1498C70.4558 26.2504 69.2781 26.7151 68.307 27.485C67.3359 28.2549 66.6149 29.2954 66.2351 30.4751C65.8554 31.6548 65.834 32.9206 66.1737 34.1124C66.6291 35.7106 67.7008 37.0625 69.153 37.8705C70.6052 38.6785 72.3189 38.8766 73.9171 38.4211Z" fill="#FFFAE8"/>
<path d="M66.1768 34.1116C67.1251 37.4392 70.5913 39.3679 73.9189 38.4196C77.2464 37.4713 79.1751 34.005 78.2268 30.6775C77.2785 27.35 73.8123 25.4212 70.4847 26.3695C67.1572 27.3178 65.2285 30.7841 66.1768 34.1116Z" fill="#FCD83C"/>
<path d="M79.4599 19.3505C81.1846 20.4311 82.4123 22.1495 82.8758 24.1313C83.4909 26.4101 83.6519 28.7876 83.3496 31.1285C83.2115 32.4248 82.9393 33.7032 82.5376 34.9434C82.2711 35.7905 81.9226 36.6096 81.4971 37.389C81.2586 37.8158 80.9913 38.2258 80.6968 38.6161C80.8396 38.2637 80.9792 37.9036 81.1001 37.5238C81.5022 36.2836 81.7746 35.005 81.9131 33.7086C82.2156 31.3677 82.0546 28.9901 81.4393 26.7114C80.9773 24.729 79.7499 23.0099 78.0251 21.9291C75.2646 20.393 71.5195 21.3083 68.2167 23.2801C65.9776 24.6061 64.0206 26.3589 62.4569 28.4388C62.6291 27.9907 62.8313 27.5547 63.0622 27.1337C64.6904 24.4761 66.956 22.2669 69.6539 20.7063C72.9543 18.7298 76.6983 17.8148 79.4599 19.3505V19.3505Z" fill="#FFF2C4"/>
<path d="M75.3534 35.8401C76.4583 35.5247 77.4541 34.9094 78.2305 34.0624C77.979 34.9764 77.5231 35.8213 76.8973 36.5333C76.2715 37.2453 75.4921 37.8058 74.6179 38.1725C73.7438 38.5393 72.7978 38.7026 71.8513 38.6502C70.9047 38.5978 69.9825 38.331 69.1542 37.8701C68.3259 37.4091 67.6131 36.7659 67.0697 35.9892C66.5263 35.2124 66.1665 34.3224 66.0174 33.3862C65.8683 32.4501 65.9339 31.4923 66.2091 30.5852C66.4844 29.6781 66.9621 28.8453 67.6063 28.1499C67.3073 29.2213 67.2996 30.3531 67.584 31.4285C67.8683 32.504 68.4344 33.484 69.2239 34.2677C70.0133 35.0514 70.9976 35.6102 72.075 35.8866C73.1525 36.163 74.2842 36.147 75.3534 35.8401Z" fill="#F6A635"/>
<path d="M81.4955 37.3884C81.7342 36.9503 81.9462 36.4983 82.1305 36.0347C81.1957 37.2698 80.0001 38.2837 78.6288 39.0041C77.2574 39.7245 75.7442 40.1337 74.1967 40.2026C75.464 39.367 76.3865 38.1013 76.7939 36.639C75.8435 37.673 74.5727 38.3568 73.1862 38.5803C71.7997 38.8038 70.3783 38.5539 69.1512 37.8709C67.924 37.1879 66.9626 36.1116 66.422 34.8154C65.8813 33.5193 65.7928 32.0788 66.1707 30.7262C65.1366 31.8502 64.547 33.3121 64.5118 34.839C63.2647 32.6172 62.8623 30.0197 63.3786 27.5247C63.5041 26.956 63.6761 26.3985 63.8928 25.8579C63.5903 26.2657 63.3127 26.6915 63.0617 27.1329C62.3738 28.3441 61.9325 29.6797 61.7635 31.0624C61.5945 32.4451 61.7011 33.8475 62.0771 35.1888C62.453 36.5301 63.0909 37.7836 63.954 38.8771C64.817 39.9705 65.8881 40.8821 67.1054 41.5593C68.3227 42.2366 69.662 42.666 71.0462 42.8227C72.4303 42.9795 73.8318 42.8606 75.1697 42.4728C76.5076 42.085 77.7555 41.4361 78.8412 40.5634C79.927 39.6907 80.8291 38.6116 81.4955 37.3884V37.3884Z" fill="#FFEFB5"/>
<path d="M77.0668 31.3782C77.0246 31.6136 76.9281 31.8359 76.785 32.0275C76.6418 32.2191 76.456 32.3747 76.2422 32.4819C75.794 32.633 75.3047 32.6042 74.8772 32.4018C74.0846 32.09 73.408 31.5405 72.9401 30.8287C72.7374 30.567 72.6434 30.2371 72.6776 29.9078C72.853 28.9988 74.6305 28.4423 75.4544 28.643C76.0139 28.8187 76.4883 29.1956 76.7861 29.7008C77.0839 30.206 77.1839 30.8036 77.0668 31.3782Z" fill="#FFEF96"/>
<g filter="url(#filter0_d)">
<path d="M86.3417 28.2454L34.2719 57.0248C33.6332 57.4662 34.1826 58.5213 35.2649 58.9326C35.7628 59.1218 36.2537 59.1183 36.5573 58.9233L89.792 31.1115C91.0191 30.3234 89.5383 28.2624 87.571 28.02C87.0761 27.9589 86.6404 28.0388 86.3417 28.2454V28.2454Z" fill="url(#paint58_linear)"/>
<path d="M90.1023 29.289L37.0187 58.0683C36.38 58.5097 36.9294 59.5649 38.0117 59.9762C38.5096 60.1653 39.0006 60.1619 39.3041 59.9668L93.5526 32.1551C94.7796 31.367 93.2988 29.306 91.3315 29.0636C90.8366 29.0027 90.4009 29.0826 90.1023 29.289V29.289Z" fill="url(#paint59_linear)"/>
</g>
</g>
<defs>
<filter id="filter0_d" x="30" y="28" width="67.9999" height="40.1156" filterUnits="userSpaceOnUse" color-interpolation-filters="sRGB">
<feFlood flood-opacity="0" result="BackgroundImageFix"/>
<feColorMatrix in="SourceAlpha" type="matrix" values="0 0 0 0 0 0 0 0 0 0 0 0 0 0 0 0 0 0 127 0"/>
<feOffset dy="4"/>
<feGaussianBlur stdDeviation="2"/>
<feColorMatrix type="matrix" values="0 0 0 0 0 0 0 0 0 0 0 0 0 0 0 0 0 0 0.25 0"/>
<feBlend mode="normal" in2="BackgroundImageFix" result="effect1_dropShadow"/>
<feBlend mode="normal" in="SourceGraphic" in2="effect1_dropShadow" result="shape"/>
</filter>
<linearGradient id="paint0_linear" x1="44.1813" y1="75.3385" x2="44.5034" y2="80.6533" gradientUnits="userSpaceOnUse">
<stop stop-color="#F8F6FB"/>
<stop offset="1" stop-color="#EFDCFB"/>
</linearGradient>
<linearGradient id="paint1_linear" x1="37.3234" y1="33.4247" x2="62.6881" y2="71.213" gradientUnits="userSpaceOnUse">
<stop stop-color="#F8F6FB"/>
<stop offset="1" stop-color="#EFDCFB"/>
</linearGradient>
<linearGradient id="paint2_linear" x1="38.6548" y1="17.0114" x2="44.8665" y2="42.0884" gradientUnits="userSpaceOnUse">
<stop stop-color="#F8F6FB"/>
<stop offset="1" stop-color="#EFDCFB"/>
</linearGradient>
<linearGradient id="paint3_linear" x1="44" y1="55.8627" x2="44" y2="-6.53363" gradientUnits="userSpaceOnUse">
<stop stop-color="#EFDCFB" stop-opacity="0"/>
<stop offset="0.0287" stop-color="#E9D6F7" stop-opacity="0.029"/>
<stop offset="0.2203" stop-color="#C5B5DE" stop-opacity="0.22"/>
<stop offset="0.4138" stop-color="#AA9BCB" stop-opacity="0.414"/>
<stop offset="0.6078" stop-color="#9688BD" stop-opacity="0.608"/>
<stop offset="0.8028" stop-color="#8A7DB5" stop-opacity="0.803"/>
<stop offset="1" stop-color="#8679B2"/>
</linearGradient>
<linearGradient id="paint4_linear" x1="43.9999" y1="36.3646" x2="43.9999" y2="42.4998" gradientUnits="userSpaceOnUse">
<stop stop-color="#FFDECF"/>
<stop offset="0.3791" stop-color="#FDC4B0"/>
<stop offset="0.7655" stop-color="#FBAE97"/>
<stop offset="1" stop-color="#FAA68E"/>
</linearGradient>
<linearGradient id="paint5_linear" x1="59.045" y1="57.0802" x2="66.2921" y2="61.9116" gradientUnits="userSpaceOnUse">
<stop stop-color="#FF6359"/>
<stop offset="0.2243" stop-color="#FE5B50"/>
<stop offset="0.5952" stop-color="#FC4637"/>
<stop offset="1" stop-color="#F82814"/>
</linearGradient>
<linearGradient id="paint6_linear" x1="57.7356" y1="63.7199" x2="64.3988" y2="68.1621" gradientUnits="userSpaceOnUse">
<stop stop-color="#FF6359"/>
<stop offset="0.2243" stop-color="#FE5B50"/>
<stop offset="0.5952" stop-color="#FC4637"/>
<stop offset="1" stop-color="#F82814"/>
</linearGradient>
<linearGradient id="paint7_linear" x1="38.4692" y1="30.1158" x2="45.6012" y2="47.4858" gradientUnits="userSpaceOnUse">
<stop stop-color="#FFD945"/>
<stop offset="0.3043" stop-color="#FFCD3E"/>
<stop offset="0.8558" stop-color="#FFAD2B"/>
<stop offset="1" stop-color="#FFA325"/>
</linearGradient>
<linearGradient id="paint8_linear" x1="42.3968" y1="40.1233" x2="49.9889" y2="-5.94734" gradientUnits="userSpaceOnUse">
<stop stop-color="#F82814" stop-opacity="0"/>
<stop offset="1" stop-color="#C0272D"/>
</linearGradient>
<linearGradient id="paint9_linear" x1="39.117" y1="46.5102" x2="34.4735" y2="6.04677" gradientUnits="userSpaceOnUse">
<stop stop-color="#F82814" stop-opacity="0"/>
<stop offset="1" stop-color="#C0272D"/>
</linearGradient>
<linearGradient id="paint10_linear" x1="36.086" y1="42.8659" x2="42.6429" y2="5.85421" gradientUnits="userSpaceOnUse">
<stop stop-color="#F82814" stop-opacity="0"/>
<stop offset="1" stop-color="#C0272D"/>
</linearGradient>
<linearGradient id="paint11_linear" x1="33.902" y1="40.7141" x2="39.8549" y2="23.2866" gradientUnits="userSpaceOnUse">
<stop stop-color="#F82814" stop-opacity="0"/>
<stop offset="1" stop-color="#C0272D"/>
</linearGradient>
<linearGradient id="paint12_linear" x1="29.7588" y1="45.4804" x2="28.8386" y2="30.2961" gradientUnits="userSpaceOnUse">
<stop stop-color="#F82814" stop-opacity="0"/>
<stop offset="1" stop-color="#C0272D"/>
</linearGradient>
<linearGradient id="paint13_linear" x1="15.9421" y1="36.413" x2="17.7251" y2="38.7135" gradientUnits="userSpaceOnUse">
<stop stop-color="#FFD945"/>
<stop offset="0.3043" stop-color="#FFCD3E"/>
<stop offset="0.8558" stop-color="#FFAD2B"/>
<stop offset="1" stop-color="#FFA325"/>
</linearGradient>
<linearGradient id="paint14_linear" x1="19.6479" y1="32.6141" x2="23.214" y2="35.8925" gradientUnits="userSpaceOnUse">
<stop stop-color="#FFD945"/>
<stop offset="0.3043" stop-color="#FFCD3E"/>
<stop offset="0.8558" stop-color="#FFAD2B"/>
<stop offset="1" stop-color="#FFA325"/>
</linearGradient>
<linearGradient id="paint15_linear" x1="24.8521" y1="30.6567" x2="28.9356" y2="35.0279" gradientUnits="userSpaceOnUse">
<stop stop-color="#FFD945"/>
<stop offset="0.3043" stop-color="#FFCD3E"/>
<stop offset="0.8558" stop-color="#FFAD2B"/>
<stop offset="1" stop-color="#FFA325"/>
</linearGradient>
<linearGradient id="paint16_linear" x1="30.0006" y1="27.4559" x2="35.3496" y2="34.2716" gradientUnits="userSpaceOnUse">
<stop stop-color="#FFD945"/>
<stop offset="0.3043" stop-color="#FFCD3E"/>
<stop offset="0.8558" stop-color="#FFAD2B"/>
<stop offset="1" stop-color="#FFA325"/>
</linearGradient>
<linearGradient id="paint17_linear" x1="32.9106" y1="24.5212" x2="40.5028" y2="34.8742" gradientUnits="userSpaceOnUse">
<stop stop-color="#FFD945"/>
<stop offset="0.3043" stop-color="#FFCD3E"/>
<stop offset="0.8558" stop-color="#FFAD2B"/>
<stop offset="1" stop-color="#FFA325"/>
</linearGradient>
<linearGradient id="paint18_linear" x1="41.5199" y1="27.6376" x2="46.0062" y2="35.1149" gradientUnits="userSpaceOnUse">
<stop stop-color="#FFD945"/>
<stop offset="0.3043" stop-color="#FFCD3E"/>
<stop offset="0.8558" stop-color="#FFAD2B"/>
<stop offset="1" stop-color="#FFA325"/>
</linearGradient>
<linearGradient id="paint19_linear" x1="22.4233" y1="28.0722" x2="28.3477" y2="36.2855" gradientUnits="userSpaceOnUse">
<stop stop-color="#BADA00"/>
<stop offset="0.2269" stop-color="#B0CE00"/>
<stop offset="0.6378" stop-color="#95AE00"/>
<stop offset="1" stop-color="#798C00"/>
</linearGradient>
<linearGradient id="paint20_linear" x1="17.4118" y1="32.7632" x2="22.0888" y2="39.2472" gradientUnits="userSpaceOnUse">
<stop stop-color="#BADA00"/>
<stop offset="0.2269" stop-color="#B0CE00"/>
<stop offset="0.6378" stop-color="#95AE00"/>
<stop offset="1" stop-color="#798C00"/>
</linearGradient>
<linearGradient id="paint21_linear" x1="24.6387" y1="37.0927" x2="27.4585" y2="41.0019" gradientUnits="userSpaceOnUse">
<stop stop-color="#BADA00"/>
<stop offset="0.2269" stop-color="#B0CE00"/>
<stop offset="0.6378" stop-color="#95AE00"/>
<stop offset="1" stop-color="#798C00"/>
</linearGradient>
<linearGradient id="paint22_linear" x1="33.5745" y1="33.4647" x2="39.4992" y2="41.6786" gradientUnits="userSpaceOnUse">
<stop stop-color="#BADA00"/>
<stop offset="0.2269" stop-color="#B0CE00"/>
<stop offset="0.6378" stop-color="#95AE00"/>
<stop offset="1" stop-color="#798C00"/>
</linearGradient>
<linearGradient id="paint23_linear" x1="36.9918" y1="27.9144" x2="41.6691" y2="34.3989" gradientUnits="userSpaceOnUse">
<stop stop-color="#BADA00"/>
<stop offset="0.2269" stop-color="#B0CE00"/>
<stop offset="0.6378" stop-color="#95AE00"/>
<stop offset="1" stop-color="#798C00"/>
</linearGradient>
<linearGradient id="paint24_linear" x1="30.0947" y1="28.5456" x2="32.9147" y2="32.4547" gradientUnits="userSpaceOnUse">
<stop stop-color="#BADA00"/>
<stop offset="0.2269" stop-color="#B0CE00"/>
<stop offset="0.6378" stop-color="#95AE00"/>
<stop offset="1" stop-color="#798C00"/>
</linearGradient>
<linearGradient id="paint25_linear" x1="27.9107" y1="37.4662" x2="32.2891" y2="43.5362" gradientUnits="userSpaceOnUse">
<stop stop-color="#BADA00"/>
<stop offset="0.2269" stop-color="#B0CE00"/>
<stop offset="0.6378" stop-color="#95AE00"/>
<stop offset="1" stop-color="#798C00"/>
</linearGradient>
<linearGradient id="paint26_linear" x1="29.2399" y1="32.9515" x2="32.6964" y2="37.7436" gradientUnits="userSpaceOnUse">
<stop stop-color="#BADA00"/>
<stop offset="0.2269" stop-color="#B0CE00"/>
<stop offset="0.6378" stop-color="#95AE00"/>
<stop offset="1" stop-color="#798C00"/>
</linearGradient>
<linearGradient id="paint27_linear" x1="24.2823" y1="34.8041" x2="26.3663" y2="37.6931" gradientUnits="userSpaceOnUse">
<stop stop-color="#BADA00"/>
<stop offset="0.2269" stop-color="#B0CE00"/>
<stop offset="0.6378" stop-color="#95AE00"/>
<stop offset="1" stop-color="#798C00"/>
</linearGradient>
<linearGradient id="paint28_linear" x1="45.9209" y1="27.3836" x2="51.8452" y2="35.5969" gradientUnits="userSpaceOnUse">
<stop stop-color="#BADA00"/>
<stop offset="0.2269" stop-color="#B0CE00"/>
<stop offset="0.6378" stop-color="#95AE00"/>
<stop offset="1" stop-color="#798C00"/>
</linearGradient>
<linearGradient id="paint29_linear" x1="40.9099" y1="32.0746" x2="45.5869" y2="38.5585" gradientUnits="userSpaceOnUse">
<stop stop-color="#BADA00"/>
<stop offset="0.2269" stop-color="#B0CE00"/>
<stop offset="0.6378" stop-color="#95AE00"/>
<stop offset="1" stop-color="#798C00"/>
</linearGradient>
<linearGradient id="paint30_linear" x1="48.1367" y1="36.4041" x2="50.9565" y2="40.3133" gradientUnits="userSpaceOnUse">
<stop stop-color="#BADA00"/>
<stop offset="0.2269" stop-color="#B0CE00"/>
<stop offset="0.6378" stop-color="#95AE00"/>
<stop offset="1" stop-color="#798C00"/>
</linearGradient>
<linearGradient id="paint31_linear" x1="60.1002" y1="31.5139" x2="66.0248" y2="39.7278" gradientUnits="userSpaceOnUse">
<stop stop-color="#BADA00"/>
<stop offset="0.2269" stop-color="#B0CE00"/>
<stop offset="0.6378" stop-color="#95AE00"/>
<stop offset="1" stop-color="#798C00"/>
</linearGradient>
<linearGradient id="paint32_linear" x1="57.9654" y1="27.33" x2="62.6427" y2="33.8143" gradientUnits="userSpaceOnUse">
<stop stop-color="#BADA00"/>
<stop offset="0.2269" stop-color="#B0CE00"/>
<stop offset="0.6378" stop-color="#95AE00"/>
<stop offset="1" stop-color="#798C00"/>
</linearGradient>
<linearGradient id="paint33_linear" x1="53.5922" y1="27.857" x2="56.412" y2="31.7664" gradientUnits="userSpaceOnUse">
<stop stop-color="#BADA00"/>
<stop offset="0.2269" stop-color="#B0CE00"/>
<stop offset="0.6378" stop-color="#95AE00"/>
<stop offset="1" stop-color="#798C00"/>
</linearGradient>
<linearGradient id="paint34_linear" x1="51.4085" y1="36.7775" x2="55.7867" y2="42.8476" gradientUnits="userSpaceOnUse">
<stop stop-color="#BADA00"/>
<stop offset="0.2269" stop-color="#B0CE00"/>
<stop offset="0.6378" stop-color="#95AE00"/>
<stop offset="1" stop-color="#798C00"/>
</linearGradient>
<linearGradient id="paint35_linear" x1="52.738" y1="32.2631" x2="56.1942" y2="37.0549" gradientUnits="userSpaceOnUse">
<stop stop-color="#BADA00"/>
<stop offset="0.2269" stop-color="#B0CE00"/>
<stop offset="0.6378" stop-color="#95AE00"/>
<stop offset="1" stop-color="#798C00"/>
</linearGradient>
<linearGradient id="paint36_linear" x1="47.7799" y1="34.1157" x2="49.8638" y2="37.0045" gradientUnits="userSpaceOnUse">
<stop stop-color="#BADA00"/>
<stop offset="0.2269" stop-color="#B0CE00"/>
<stop offset="0.6378" stop-color="#95AE00"/>
<stop offset="1" stop-color="#798C00"/>
</linearGradient>
<linearGradient id="paint37_linear" x1="44.5591" y1="25.9328" x2="38.7599" y2="30.116" gradientUnits="userSpaceOnUse">
<stop stop-color="#FF6359"/>
<stop offset="0.2243" stop-color="#FE5B50"/>
<stop offset="0.5952" stop-color="#FC4637"/>
<stop offset="1" stop-color="#F82814"/>
</linearGradient>
<linearGradient id="paint38_linear" x1="34.8236" y1="27.8128" x2="32.0635" y2="29.8038" gradientUnits="userSpaceOnUse">
<stop stop-color="#FF6359"/>
<stop offset="0.2243" stop-color="#FE5B50"/>
<stop offset="0.5952" stop-color="#FC4637"/>
<stop offset="1" stop-color="#F82814"/>
</linearGradient>
<linearGradient id="paint39_linear" x1="43.5534" y1="31.2597" x2="40.793" y2="33.2507" gradientUnits="userSpaceOnUse">
<stop stop-color="#FF6359"/>
<stop offset="0.2243" stop-color="#FE5B50"/>
<stop offset="0.5952" stop-color="#FC4637"/>
<stop offset="1" stop-color="#F82814"/>
</linearGradient>
<linearGradient id="paint40_linear" x1="52.478" y1="27.6576" x2="49.7175" y2="29.6486" gradientUnits="userSpaceOnUse">
<stop stop-color="#FF6359"/>
<stop offset="0.2243" stop-color="#FE5B50"/>
<stop offset="0.5952" stop-color="#FC4637"/>
<stop offset="1" stop-color="#F82814"/>
</linearGradient>
<linearGradient id="paint41_linear" x1="34.5598" y1="30.1229" x2="30.2738" y2="33.2147" gradientUnits="userSpaceOnUse">
<stop stop-color="#FF6359"/>
<stop offset="0.2243" stop-color="#FE5B50"/>
<stop offset="0.5952" stop-color="#FC4637"/>
<stop offset="1" stop-color="#F82814"/>
</linearGradient>
<linearGradient id="paint42_linear" x1="39.6903" y1="27.123" x2="36.3066" y2="29.5634" gradientUnits="userSpaceOnUse">
<stop stop-color="#FF6359"/>
<stop offset="0.2243" stop-color="#FE5B50"/>
<stop offset="0.5952" stop-color="#FC4637"/>
<stop offset="1" stop-color="#F82814"/>
</linearGradient>
<linearGradient id="paint43_linear" x1="48.1266" y1="27.123" x2="44.7432" y2="29.5634" gradientUnits="userSpaceOnUse">
<stop stop-color="#FF6359"/>
<stop offset="0.2243" stop-color="#FE5B50"/>
<stop offset="0.5952" stop-color="#FC4637"/>
<stop offset="1" stop-color="#F82814"/>
</linearGradient>
<linearGradient id="paint44_linear" x1="40.8685" y1="29.511" x2="38.8286" y2="30.9823" gradientUnits="userSpaceOnUse">
<stop stop-color="#FF6359"/>
<stop offset="0.2243" stop-color="#FE5B50"/>
<stop offset="0.5952" stop-color="#FC4637"/>
<stop offset="1" stop-color="#F82814"/>
</linearGradient>
<linearGradient id="paint45_linear" x1="48.2622" y1="48.039" x2="32.474" y2="38.5488" gradientUnits="userSpaceOnUse">
<stop stop-color="#F82814" stop-opacity="0"/>
<stop offset="1" stop-color="#C0272D"/>
</linearGradient>
<linearGradient id="paint46_linear" x1="36.5706" y1="37.0401" x2="43.4012" y2="44.3728" gradientUnits="userSpaceOnUse">
<stop stop-color="#F8F6FB"/>
<stop offset="1" stop-color="#EFDCFB"/>
</linearGradient>
<linearGradient id="paint47_linear" x1="35.9038" y1="40.9939" x2="44.6046" y2="40.9939" gradientUnits="userSpaceOnUse">
<stop stop-color="#FAA68E"/>
<stop offset="0.3566" stop-color="#FB9D92"/>
<stop offset="0.9447" stop-color="#FF849B"/>
<stop offset="1" stop-color="#FF819C"/>
</linearGradient>
<linearGradient id="paint48_linear" x1="59.8368" y1="40.4442" x2="46.1192" y2="22.2402" gradientUnits="userSpaceOnUse">
<stop stop-color="#F82814" stop-opacity="0"/>
<stop offset="1" stop-color="#C0272D"/>
</linearGradient>
<linearGradient id="paint49_linear" x1="49.5266" y1="27.8515" x2="55.9667" y2="34.7652" gradientUnits="userSpaceOnUse">
<stop stop-color="#F8F6FB"/>
<stop offset="1" stop-color="#EFDCFB"/>
</linearGradient>
<linearGradient id="paint50_linear" x1="50.8234" y1="28.4793" x2="55.8284" y2="34.9481" gradientUnits="userSpaceOnUse">
<stop stop-color="#FAA68E"/>
<stop offset="0.3566" stop-color="#FB9D92"/>
<stop offset="0.9447" stop-color="#FF849B"/>
<stop offset="1" stop-color="#FF819C"/>
</linearGradient>
<linearGradient id="paint51_linear" x1="32.5023" y1="42.7931" x2="21.0859" y2="27.6432" gradientUnits="userSpaceOnUse">
<stop stop-color="#F82814" stop-opacity="0"/>
<stop offset="1" stop-color="#C0272D"/>
</linearGradient>
<linearGradient id="paint52_linear" x1="21.1364" y1="33.0433" x2="27.3802" y2="39.7463" gradientUnits="userSpaceOnUse">
<stop stop-color="#F8F6FB"/>
<stop offset="1" stop-color="#EFDCFB"/>
</linearGradient>
<linearGradient id="paint53_linear" x1="22.3883" y1="33.6394" x2="27.2407" y2="39.9111" gradientUnits="userSpaceOnUse">
<stop stop-color="#FAA68E"/>
<stop offset="0.3566" stop-color="#FB9D92"/>
<stop offset="0.9447" stop-color="#FF849B"/>
<stop offset="1" stop-color="#FF819C"/>
</linearGradient>
<linearGradient id="paint54_linear" x1="57.104" y1="23.6994" x2="71.4256" y2="30.5151" gradientUnits="userSpaceOnUse">
<stop stop-color="#E87264" stop-opacity="0"/>
<stop offset="1" stop-color="#F8DFBE"/>
</linearGradient>
<linearGradient id="paint55_linear" x1="40.1866" y1="11.7132" x2="50.9522" y2="14.2463" gradientUnits="userSpaceOnUse">
<stop stop-color="#E87264" stop-opacity="0"/>
<stop offset="0.1575" stop-color="#E97869" stop-opacity="0.158"/>
<stop offset="0.3778" stop-color="#EC8B78" stop-opacity="0.378"/>
<stop offset="0.6353" stop-color="#F0A991" stop-opacity="0.635"/>
<stop offset="0.9188" stop-color="#F6D2B3" stop-opacity="0.919"/>
<stop offset="1" stop-color="#F8DFBE"/>
</linearGradient>
<linearGradient id="paint56_linear" x1="28.3827" y1="23.4107" x2="36.2049" y2="26.4589" gradientUnits="userSpaceOnUse">
<stop stop-color="#E87264" stop-opacity="0"/>
<stop offset="1" stop-color="#F8DFBE"/>
</linearGradient>
<linearGradient id="paint57_linear" x1="72.6997" y1="45.3888" x2="69.4213" y2="38.7456" gradientUnits="userSpaceOnUse">
<stop stop-color="#EFDCFB" stop-opacity="0"/>
<stop offset="0.0287" stop-color="#E9D6F7" stop-opacity="0.029"/>
<stop offset="0.2203" stop-color="#C5B5DE" stop-opacity="0.22"/>
<stop offset="0.4138" stop-color="#AA9BCB" stop-opacity="0.414"/>
<stop offset="0.6078" stop-color="#9688BD" stop-opacity="0.608"/>
<stop offset="0.8028" stop-color="#8A7DB5" stop-opacity="0.803"/>
<stop offset="1" stop-color="#8679B2"/>
</linearGradient>
<linearGradient id="paint58_linear" x1="61.2746" y1="42.5033" x2="62.7541" y2="44.8871" gradientUnits="userSpaceOnUse">
<stop stop-color="#FF6359"/>
<stop offset="0.2243" stop-color="#FE5B50"/>
<stop offset="0.5952" stop-color="#FC4637"/>
<stop offset="1" stop-color="#F82814"/>
</linearGradient>
<linearGradient id="paint59_linear" x1="64.1412" y1="42.9365" x2="66.6071" y2="46.882" gradientUnits="userSpaceOnUse">
<stop stop-color="#FF6359"/>
<stop offset="0.2243" stop-color="#FE5B50"/>
<stop offset="0.5952" stop-color="#FC4637"/>
<stop offset="1" stop-color="#F82814"/>
</linearGradient>
<clipPath id="clip0">
<rect width="93" height="81" fill="white"/>
</clipPath>
</defs>
</svg>
