<svg width="89" height="90" viewBox="0 0 89 90" fill="none" xmlns="http://www.w3.org/2000/svg">
<g clip-path="url(#clip0)">
<path d="M87.833 45.4837C87.833 21.1742 68.3574 1.46742 44.333 1.46742C20.3086 1.46742 0.833005 21.1742 0.833006 45.4837C0.833007 69.7933 20.3086 89.5 44.333 89.5C68.3574 89.5 87.833 69.7933 87.833 45.4837Z" fill="white"/>
<path d="M84.4869 45.4837C84.4869 23.0442 66.5094 4.8533 44.333 4.8533C22.1567 4.8533 4.1792 23.0442 4.1792 45.4837C4.1792 67.9233 22.1567 86.1142 44.333 86.1142C66.5094 86.1142 84.4869 67.9233 84.4869 45.4837Z" fill="#B7CED3"/>
<path d="M48.1812 8.44234C47.44 8.36546 46.692 8.49118 46.0152 8.8064C45.3383 9.12161 44.7575 9.61478 44.3331 10.2345C43.9101 9.61361 43.3295 9.11956 42.6525 8.80434C41.9754 8.48912 41.2269 8.36438 40.4857 8.44322C39.7445 8.52207 39.038 8.8016 38.4405 9.2524C37.8431 9.7032 37.3767 10.3086 37.0905 11.0049C36.5492 10.4865 35.8798 10.1254 35.1527 9.9594C34.4256 9.79343 33.6678 9.82883 32.9589 10.0619C32.2501 10.2949 31.6164 10.7169 31.1245 11.2836C30.6327 11.8503 30.3009 12.5406 30.164 13.2819C29.528 12.8887 28.7989 12.6762 28.0536 12.6668C27.3083 12.6574 26.5743 12.8515 25.9287 13.2285C25.2832 13.6056 24.7501 14.1518 24.3854 14.8096C24.0207 15.4674 23.838 16.2125 23.8565 16.9664C23.1536 16.7157 22.3969 16.6613 21.666 16.809C20.9351 16.9567 20.2571 17.3009 19.7032 17.8056C19.1493 18.3102 18.7401 18.9566 18.5186 19.6766C18.2971 20.3967 18.2715 21.1639 18.4444 21.8975C17.7053 21.8001 16.954 21.9061 16.2694 22.2042C15.5848 22.5024 14.9923 22.9818 14.5542 23.592C14.1161 24.2021 13.8487 24.9204 13.7799 25.6714C13.7112 26.4223 13.8438 27.1781 14.1637 27.8593C13.4209 27.9197 12.7078 28.1815 12.0996 28.6173C11.4914 29.053 11.0105 29.6466 10.7074 30.3355C10.4044 31.0244 10.2904 31.7832 10.3775 32.5321C10.4646 33.281 10.7495 33.9923 11.2023 34.5912C10.4881 34.8065 9.84431 35.2125 9.33881 35.7666C8.8333 36.3208 8.48474 37.0025 8.32978 37.7402C8.17483 38.4778 8.21921 39.2441 8.45826 39.9583C8.69731 40.6726 9.1222 41.3085 9.68821 41.7991C9.03374 42.1599 8.48747 42.6926 8.10686 43.341C7.72626 43.9894 7.52539 44.7296 7.52539 45.4838C7.52539 46.2379 7.72626 46.9781 8.10686 47.6266C8.48747 48.275 9.03374 48.8076 9.68821 49.1684C9.1222 49.659 8.69731 50.2949 8.45826 51.0092C8.21921 51.7235 8.17483 52.4897 8.32978 53.2274C8.48474 53.965 8.8333 54.6468 9.33881 55.2009C9.84431 55.755 10.4881 56.1611 11.2023 56.3763C10.7495 56.9752 10.4646 57.6865 10.3775 58.4354C10.2904 59.1843 10.4044 59.9431 10.7074 60.6321C11.0105 61.321 11.4914 61.9145 12.0996 62.3502C12.7078 62.786 13.4209 63.0478 14.1637 63.1082C13.8438 63.7894 13.7112 64.5452 13.7799 65.2962C13.8487 66.0471 14.1161 66.7654 14.5542 67.3756C14.9923 67.9857 15.5848 68.4651 16.2694 68.7633C16.954 69.0615 17.7053 69.1675 18.4444 69.0701C18.2714 69.8036 18.2971 70.5708 18.5186 71.2909C18.7401 72.011 19.1493 72.6573 19.7032 73.162C20.2571 73.6666 20.9351 74.0108 21.666 74.1585C22.3969 74.3061 23.1536 74.2517 23.8565 74.0009C23.838 74.7549 24.0207 75.5 24.3854 76.1578C24.7501 76.8156 25.2832 77.3617 25.9287 77.7388C26.5743 78.1159 27.3083 78.31 28.0536 78.3006C28.7989 78.2912 29.528 78.0787 30.164 77.6854C30.3008 78.4268 30.6326 79.1172 31.1244 79.6839C31.6163 80.2506 32.2499 80.6727 32.9588 80.9057C33.6677 81.1388 34.4255 81.1742 35.1526 81.0083C35.8797 80.8423 36.5492 80.4812 37.0905 79.9628C37.3767 80.6591 37.8431 81.2645 38.4406 81.7152C39.038 82.166 39.7445 82.4455 40.4857 82.5244C41.2269 82.6032 41.9754 82.4784 42.6525 82.1632C43.3295 81.848 43.9101 81.3539 44.3331 80.733C44.7562 81.3539 45.3368 81.8479 46.0138 82.1632C46.6909 82.4784 47.4394 82.6031 48.1806 82.5243C48.9219 82.4455 49.6284 82.166 50.2259 81.7152C50.8234 81.2644 51.2898 80.6591 51.576 79.9627C52.1174 80.4811 52.7868 80.8422 53.5139 81.0082C54.241 81.1741 54.9988 81.1386 55.7076 80.9056C56.4165 80.6726 57.0502 80.2505 57.542 79.6839C58.0339 79.1172 58.3657 78.4269 58.5026 77.6856C59.1386 78.0788 59.8677 78.2912 60.613 78.3006C61.3583 78.31 62.0923 78.1159 62.7378 77.7388C63.3833 77.3617 63.9165 76.8155 64.2811 76.1577C64.6458 75.5 64.8285 74.7549 64.8101 74.0009C65.513 74.2517 66.2697 74.3061 67.0006 74.1585C67.7315 74.0108 68.4095 73.6666 68.9634 73.1619C69.5173 72.6573 69.9265 72.011 70.148 71.2909C70.3695 70.5708 70.3951 69.8036 70.2221 69.0701C70.9612 69.1674 71.7125 69.0614 72.3971 68.7632C73.0817 68.465 73.6741 67.9856 74.1122 67.3755C74.5503 66.7654 74.8177 66.047 74.8865 65.2961C74.9552 64.5452 74.8226 63.7894 74.5027 63.1082C75.2456 63.048 75.9587 62.7862 76.5671 62.3505C77.1754 61.9149 77.6564 61.3213 77.9596 60.6324C78.2627 59.9435 78.3768 59.1846 78.2897 58.4356C78.2027 57.6866 77.9177 56.9752 77.4649 56.3763C78.1792 56.1611 78.8229 55.755 79.3284 55.2009C79.8339 54.6468 80.1825 53.965 80.3375 53.2274C80.4924 52.4897 80.448 51.7235 80.209 51.0092C79.9699 50.2949 79.545 49.659 78.979 49.1684C79.6335 48.8076 80.1798 48.275 80.5604 47.6266C80.941 46.9781 81.1418 46.2379 81.1418 45.4838C81.1418 44.7296 80.941 43.9894 80.5604 43.341C80.1798 42.6925 79.6335 42.1599 78.979 41.7991C79.545 41.3085 79.9699 40.6726 80.209 39.9583C80.448 39.244 80.4924 38.4777 80.3374 37.7401C80.1824 37.0025 79.8338 36.3207 79.3283 35.7666C78.8228 35.2125 78.179 34.8064 77.4647 34.5912C77.9176 33.9923 78.2026 33.281 78.2897 32.5321C78.3768 31.7832 78.2629 31.0243 77.9598 30.3354C77.6567 29.6465 77.1758 29.0529 76.5675 28.6172C75.9593 28.1814 75.2462 27.9196 74.5034 27.8593C74.8233 27.1781 74.9558 26.4224 74.8871 25.6714C74.8184 24.9205 74.5509 24.2022 74.1129 23.592C73.6748 22.9819 73.0823 22.5025 72.3978 22.2043C71.7132 21.9061 70.9619 21.8001 70.2228 21.8975C70.3958 21.1639 70.3701 20.3967 70.1486 19.6766C69.9271 18.9566 69.5179 18.3102 68.964 17.8056C68.4102 17.3009 67.7321 16.9567 67.0012 16.809C66.2704 16.6613 65.5137 16.7157 64.8107 16.9664C64.8292 16.2125 64.6465 15.4674 64.2818 14.8096C63.9172 14.1518 63.384 13.6056 62.7385 13.2285C62.093 12.8515 61.3589 12.6574 60.6136 12.6668C59.8683 12.6762 59.1393 12.8887 58.5032 13.2819C58.3664 12.5406 58.0346 11.8503 57.5427 11.2836C57.0509 10.7169 56.4172 10.2949 55.7083 10.0619C54.9994 9.82883 54.2416 9.79343 53.5145 9.95939C52.7875 10.1254 52.118 10.4865 51.5767 11.0049C51.289 10.3095 50.8222 9.7049 50.225 9.25417C49.6278 8.80344 48.922 8.52308 48.1812 8.44234V8.44234Z" fill="#F5FCFC"/>
<path d="M52.6984 69.1848C52.6984 68.2498 51.9494 67.4919 51.0254 67.4919C50.1014 67.4919 49.3523 68.2498 49.3523 69.1848C49.3523 70.1198 50.1014 70.8777 51.0254 70.8777C51.9494 70.8777 52.6984 70.1198 52.6984 69.1848Z" fill="#DCEDED"/>
<path d="M22.583 40.4049C22.583 39.4699 21.8339 38.712 20.9099 38.712C19.9859 38.712 19.2368 39.4699 19.2368 40.4049C19.2368 41.3399 19.9859 42.0978 20.9099 42.0978C21.8339 42.0978 22.583 41.3399 22.583 40.4049Z" fill="#DCEDED"/>
<path d="M40.9868 50.5625C40.9868 49.6275 40.2377 48.8696 39.3137 48.8696C38.3897 48.8696 37.6406 49.6275 37.6406 50.5625C37.6406 51.4975 38.3897 52.2555 39.3137 52.2555C40.2377 52.2555 40.9868 51.4975 40.9868 50.5625Z" fill="#DCEDED"/>
<path d="M39.3137 70.8777C39.3137 69.9428 38.5646 69.1848 37.6406 69.1848C36.7166 69.1848 35.9675 69.9428 35.9675 70.8777C35.9675 71.8127 36.7166 72.5707 37.6406 72.5707C38.5646 72.5707 39.3137 71.8127 39.3137 70.8777Z" fill="#DCEDED"/>
<path d="M24.2561 59.0272C24.2561 58.0922 23.507 57.3343 22.583 57.3343C21.659 57.3343 20.9099 58.0922 20.9099 59.0272C20.9099 59.9622 21.659 60.7201 22.583 60.7201C23.507 60.7201 24.2561 59.9622 24.2561 59.0272Z" fill="#DCEDED"/>
<path d="M34.2944 18.3968C34.2944 17.4618 33.5453 16.7038 32.6213 16.7038C31.6973 16.7038 30.9482 17.4618 30.9482 18.3968C30.9482 19.3317 31.6973 20.0897 32.6213 20.0897C33.5453 20.0897 34.2944 19.3317 34.2944 18.3968Z" fill="#DCEDED"/>
<g clip-path="url(#clip1)">
<path fill-rule="evenodd" clip-rule="evenodd" d="M59.0862 66.0263L53.4922 65.7515C52.6966 65.7124 51.8972 66.3154 51.7164 67.0914C51.5356 67.8676 52.0392 68.5344 52.8348 68.5735L58.4288 68.8483C59.2244 68.8874 60.0238 68.2844 60.2045 67.5084C60.3853 66.7323 59.8817 66.0654 59.0862 66.0263Z" fill="#660E08"/>
<path fill-rule="evenodd" clip-rule="evenodd" d="M55.1357 58.6965L68.9157 59.3734C69.7115 59.4125 70.2149 60.0794 70.0341 60.8555C69.8533 61.6315 69.0541 62.2345 68.2583 62.1954L54.4783 61.5185C53.6825 61.4794 53.1791 60.8125 53.3599 60.0364C53.5407 59.2603 54.3399 58.6574 55.1357 58.6965V58.6965ZM51.7164 67.0915C51.5356 67.8676 52.0392 68.5345 52.8347 68.5735L58.4288 68.8483C59.2243 68.8874 60.0237 68.2844 60.2045 67.5084C60.3853 66.7324 59.8817 66.0654 59.0862 66.0263L53.4921 65.7515C52.6966 65.7125 51.8971 66.3154 51.7164 67.0915ZM46.2526 72.0999C49.7466 76.7303 59.4936 75.2662 68.0233 68.8299C76.553 62.3936 80.6353 53.4223 77.1414 48.792C73.6475 44.1616 63.9004 45.6257 55.3707 52.062C46.841 58.4983 42.7587 67.4696 46.2526 72.0999ZM64.3078 54.8656L69.9018 55.1404C70.6974 55.1795 71.4968 54.5765 71.6776 53.8005C71.8583 53.0244 71.3548 52.3575 70.5592 52.3184L64.9651 52.0435C64.1696 52.0045 63.3702 52.6074 63.1894 53.3835C63.0087 54.1596 63.5123 54.8265 64.3078 54.8656Z" fill="url(#paint0_linear)"/>
<path fill-rule="evenodd" clip-rule="evenodd" d="M64.3079 54.8655L69.902 55.1403C70.6975 55.1794 71.4969 54.5764 71.6777 53.8004C71.8585 53.0244 71.3549 52.3574 70.5593 52.3183L64.9653 52.0435C64.1697 52.0044 63.3703 52.6073 63.1895 53.3834C63.0088 54.1595 63.5124 54.8264 64.3079 54.8655Z" fill="#660E08"/>
<path fill-rule="evenodd" clip-rule="evenodd" d="M68.9156 59.3734L55.1356 58.6965C54.3398 58.6574 53.5406 59.2603 53.3598 60.0364C53.179 60.8125 53.6824 61.4794 54.4782 61.5185L68.2582 62.1954C69.054 62.2344 69.8532 61.6315 70.034 60.8554C70.2148 60.0794 69.7115 59.4124 68.9156 59.3734Z" fill="#660E08"/>
<path fill-rule="evenodd" clip-rule="evenodd" d="M77.1415 48.792C80.6354 53.4223 76.5531 62.3936 68.0234 68.8299C59.4937 75.2662 49.7466 76.7302 46.2527 72.0999L49.416 76.292C52.9099 80.9224 62.657 79.4584 71.1867 73.0221C79.7164 66.5858 83.7987 57.6144 80.3048 52.9841L77.1415 48.792Z" fill="#660E08"/>
<path d="M68.1553 45.5794C59.6849 46.6932 49.0241 54.7376 45.6291 62.5773C43.7981 66.6008 43.7966 70.1509 45.6248 72.5736L48.7881 76.7658C50.6162 79.1885 54.0305 80.1612 58.402 79.5046C66.8724 78.391 77.5334 70.3464 80.9283 62.5068C82.7592 58.4833 82.7607 54.9331 80.9326 52.5103L77.7693 48.3182C75.9411 45.8955 72.5269 44.9228 68.1553 45.5794ZM46.9765 62.9391C48.6392 59.2851 51.7608 55.6083 55.7661 52.586C59.7714 49.5636 64.1636 47.5708 68.1336 46.9745C75.9969 45.7003 79.8018 50.7398 76.4174 57.9528C74.7548 61.6068 71.6332 65.2837 67.628 68.3059C63.6227 71.3282 59.2305 73.3211 55.2604 73.9173C47.3971 75.1915 43.5922 70.1521 46.9765 62.9391V62.9391ZM79.6769 53.4579C83.4681 59.0748 77.0645 67.8222 70.7914 72.4981C64.578 77.2472 54.3991 81.0047 50.0437 75.8183L49.506 75.1057C51.1288 75.5626 53.0655 75.6388 55.2387 75.3124C63.7091 74.1988 74.3701 66.1542 77.765 58.3146C78.6753 56.3144 79.1333 54.4311 79.1392 52.7452L79.6769 53.4578L79.6769 53.4579Z" fill="url(#paint1_linear)"/>
<path d="M57.9478 62.4025C58.3474 62.422 58.7448 62.1222 58.8358 61.7325C58.9265 61.3429 58.6762 61.0111 58.2766 60.9914L54.6426 60.813C54.2437 60.7934 53.9927 60.4609 54.0833 60.072C54.174 59.6829 54.5724 59.3824 54.9713 59.4019L68.7514 60.0788C69.7039 60.1661 69.389 61.4964 68.4227 61.4898L64.7882 61.3113C64.3886 61.2917 63.9912 61.5916 63.9003 61.9813C63.8095 62.3709 64.0599 62.7027 64.4595 62.7224L68.0939 62.9008C68.6721 62.9293 69.2681 62.7355 69.7722 62.3551C70.2763 61.9747 70.6263 61.4548 70.7576 60.8909C71.0294 59.7239 70.2769 58.7266 69.0801 58.6678L55.3 57.991C54.1032 57.9323 52.9084 58.8339 52.6363 60.0009C52.3645 61.1679 53.117 62.1652 54.3139 62.2241L57.9478 62.4025Z" fill="url(#paint2_linear)"/>
<path d="M58.2645 69.5538C58.8424 69.5823 59.4385 69.3884 59.9426 69.0081L59.9428 69.008C60.4469 68.6276 60.7968 68.1077 60.9282 67.5439C61.2 66.3768 60.4475 65.3796 59.2506 65.3207L53.6565 65.0459C52.4598 64.9872 51.2648 65.8888 50.9929 67.0558C50.9928 67.0559 50.9928 67.0559 50.9928 67.0559C50.7209 68.2229 51.4735 69.2202 52.6704 69.279L58.2645 69.5538ZM52.4399 67.127C52.5306 66.7381 52.9288 66.4374 53.3278 66.457L58.9219 66.7318C59.3209 66.7513 59.5717 67.0838 59.4811 67.4728C59.4376 67.6597 59.3207 67.8327 59.152 67.96C58.9832 68.0873 58.7849 68.1522 58.5933 68.1427L52.9992 67.8679C52.6001 67.8484 52.3493 67.516 52.4399 67.127V67.127Z" fill="url(#paint3_linear)"/>
<path d="M69.7376 55.8458C70.3156 55.8743 70.9116 55.6804 71.4157 55.3001C71.9199 54.9198 72.2698 54.3997 72.4012 53.836C72.6731 52.6689 71.9205 51.6716 70.7237 51.6128L65.1295 51.338C63.9327 51.2792 62.7379 52.1809 62.4659 53.3479L62.466 53.3479C62.1941 54.5149 62.9467 55.5122 64.1435 55.5711L69.7376 55.8458ZM63.913 53.4189C64.0038 53.03 64.4022 52.7294 64.8009 52.749L70.395 53.0238C70.5865 53.0333 70.7506 53.116 70.8569 53.2567C70.9631 53.3976 70.9977 53.578 70.9541 53.7648C70.9107 53.9517 70.7937 54.1247 70.6251 54.2519L70.625 54.252C70.4563 54.3792 70.258 54.4442 70.0664 54.4347L64.4723 54.16C64.0733 54.1405 63.8224 53.808 63.913 53.4189V53.4189Z" fill="url(#paint4_linear)"/>
<path d="M49.854 64.1401C50.6661 63.4838 49.9163 62.4915 49.0633 63.0921L49.0628 63.0925C48.2508 63.7489 49.001 64.7409 49.854 64.1401Z" fill="url(#paint5_linear)"/>
<path d="M64.631 65.9007L64.6305 65.9011C64.2838 66.1627 64.18 66.6093 64.3983 66.8986C64.9559 67.5685 66.1457 66.6708 65.6542 65.951C65.4359 65.6616 64.9777 65.6391 64.631 65.9007V65.9007Z" fill="url(#paint6_linear)"/>
<path d="M59.4519 54.9241C60.264 54.2678 59.5142 53.2754 58.6611 53.8761L58.6606 53.8765C57.8486 54.5328 58.5989 55.5248 59.4519 54.9241Z" fill="url(#paint7_linear)"/>
<path d="M72.6703 56.3807L72.6698 56.381C72.3231 56.6426 72.2193 57.0892 72.4376 57.3786C72.9953 58.0485 74.185 57.1508 73.6935 56.4309C73.4752 56.1416 73.017 56.1191 72.6703 56.3807V56.3807Z" fill="url(#paint8_linear)"/>
<path d="M61.2703 62.5628C61.6744 62.5474 62.0493 62.2198 62.1039 61.8284C62.1581 61.4387 61.8728 61.1354 61.4666 61.1511L61.466 61.1511C61.0601 61.1669 60.6869 61.4956 60.6327 61.8854C60.5785 62.2752 60.8641 62.5784 61.2703 62.5628V62.5628Z" fill="url(#paint9_linear)"/>
</g>
<g clip-path="url(#clip2)">
<path fill-rule="evenodd" clip-rule="evenodd" d="M42.248 72.7589L37.0743 73.8719C36.3386 74.0302 35.7558 74.7755 35.78 75.528C35.8041 76.2806 36.4264 76.7665 37.1622 76.6083L42.3358 75.4953C43.0716 75.337 43.6543 74.5917 43.6302 73.8392C43.606 73.0867 42.9837 72.6006 42.248 72.7589Z" fill="#660E08"/>
<path fill-rule="evenodd" clip-rule="evenodd" d="M36.8546 67.0309L49.599 64.2892C50.335 64.1309 50.9571 64.617 50.9813 65.3695C51.0054 66.122 50.4229 66.8673 49.6869 67.0256L36.9425 69.7673C36.2065 69.9256 35.5844 69.4395 35.5602 68.687C35.536 67.9344 36.1186 67.1892 36.8546 67.0309V67.0309ZM35.7799 75.528C35.8041 76.2806 36.4264 76.7666 37.1621 76.6083L42.3358 75.4953C43.0715 75.337 43.6543 74.5917 43.6301 73.8392C43.6059 73.0867 42.9836 72.6007 42.2479 72.7589L37.0742 73.8719C36.3385 74.0302 35.7557 74.7755 35.7799 75.528ZM32.0132 81.4321C36.3317 84.8072 44.8725 81.0944 51.0899 73.1394C57.3073 65.1843 58.8466 55.9994 54.5283 52.6243C50.2099 49.2492 41.669 52.962 35.4516 60.9171C29.2343 68.8722 27.6949 78.0571 32.0132 81.4321ZM44.2936 61.2976L49.4672 60.1846C50.203 60.0263 50.7857 59.281 50.7616 58.5285C50.7374 57.776 50.1151 57.2899 49.3793 57.4482L44.2057 58.5612C43.4699 58.7194 42.8871 59.4647 42.9113 60.2173C42.9355 60.9698 43.5579 61.4558 44.2936 61.2976Z" fill="url(#paint10_linear)"/>
<path fill-rule="evenodd" clip-rule="evenodd" d="M44.2936 61.2975L49.4672 60.1846C50.203 60.0263 50.7857 59.281 50.7615 58.5285C50.7374 57.776 50.1151 57.2899 49.3793 57.4482L44.2056 58.5611C43.4699 58.7194 42.8871 59.4647 42.9113 60.2172C42.9355 60.9697 43.5579 61.4558 44.2936 61.2975Z" fill="#660E08"/>
<path fill-rule="evenodd" clip-rule="evenodd" d="M49.5991 64.2892L36.8547 67.0309C36.1187 67.1892 35.5361 67.9345 35.5603 68.687C35.5845 69.4396 36.2066 69.9256 36.9426 69.7673L49.687 67.0256C50.423 66.8673 51.0055 66.122 50.9814 65.3695C50.9572 64.617 50.3351 64.1308 49.5991 64.2892Z" fill="#660E08"/>
<path fill-rule="evenodd" clip-rule="evenodd" d="M54.5282 52.6243C58.8466 55.9994 57.3072 65.1843 51.0899 73.1394C44.8725 81.0944 36.3316 84.8072 32.0132 81.4322L35.9229 84.4878C40.2413 87.8629 48.7822 84.1501 54.9996 76.1951C61.2169 68.24 62.7563 59.0551 58.4379 55.68L54.5282 52.6243Z" fill="#660E08"/>
<path d="M45.5418 51.8825C38.081 54.9643 30.3103 64.9069 29.1224 72.8912C28.4319 77.0106 29.296 80.2517 31.5556 82.0177L35.4653 85.0734C37.7248 86.8393 41.0788 86.8949 44.9093 85.2296C52.3702 82.148 60.141 72.2052 61.3289 64.221C62.0193 60.1016 61.1552 56.8604 58.8956 55.0944L54.9859 52.0388C52.7263 50.2729 49.3724 50.2173 45.5418 51.8825ZM30.4406 72.893C31.0677 69.1521 33.0208 65.0345 35.9403 61.2991C38.8598 57.5636 42.3834 54.6735 45.8621 53.1613C52.7297 50.0811 57.4317 53.7538 56.1007 61.1635C55.4738 64.9045 53.5206 69.022 50.6012 72.7574C47.6817 76.4928 44.1581 79.3829 40.6793 80.8951C33.8118 83.9754 29.1097 80.3027 30.4406 72.893V72.893ZM57.9803 56.2655C62.8106 60.4688 59.0976 70.0153 54.511 75.8131C49.9969 81.6632 41.6209 87.575 36.3805 83.9023L35.716 83.3829C37.3087 83.4043 39.0953 83.0018 40.9996 82.1739C48.4604 79.0923 56.2313 69.1495 57.4191 61.1652C57.7624 59.1174 57.7214 57.2865 57.3158 55.7461L57.9804 56.2655L57.9803 56.2655Z" fill="url(#paint11_linear)"/>
<path d="M40.3251 69.7284C40.6946 69.6488 40.9843 69.2782 40.9723 68.9003C40.9602 68.5225 40.6508 68.2807 40.2812 68.3601L36.9203 69.0832C36.5514 69.1625 36.2413 68.9203 36.2291 68.5431C36.2171 68.1659 36.5074 67.7943 36.8764 67.7149L49.6208 64.9733C50.5116 64.8208 50.5485 66.1119 49.6648 66.3415L46.3034 67.0646C45.9339 67.1442 45.6442 67.5148 45.6562 67.8927C45.6684 68.2705 45.9778 68.5123 46.3474 68.4329L49.7087 67.7097C50.2434 67.5948 50.7402 67.2725 51.1077 66.8023C51.4751 66.3322 51.6678 65.7723 51.6502 65.2255C51.6138 64.0939 50.6837 63.367 49.5769 63.6051L36.8325 66.3468C35.7257 66.585 34.8547 67.6993 34.8909 68.831C34.9272 69.9626 35.8573 70.6895 36.9643 70.4515L40.3251 69.7284Z" fill="url(#paint12_linear)"/>
<path d="M42.3577 76.1794C42.8923 76.0645 43.3891 75.7422 43.7566 75.2721L43.7568 75.272C44.1242 74.8018 44.3168 74.2419 44.2993 73.6952C44.263 72.5636 43.3329 71.8367 42.2259 72.0747L37.0522 73.1877C35.9455 73.4258 35.0744 74.5403 35.1107 75.6719C35.1106 75.6719 35.1106 75.6719 35.1106 75.6719C35.147 76.8036 36.0771 77.5305 37.184 77.2924L42.3577 76.1794ZM36.449 75.3841C36.437 75.0069 36.7272 74.6354 37.0962 74.556L42.2699 73.443C42.6388 73.3636 42.9489 73.6059 42.961 73.9831C42.9669 74.1643 42.9023 74.3507 42.7794 74.5081C42.6563 74.6654 42.4911 74.773 42.3139 74.8111L37.1402 75.9241C36.7711 76.0036 36.4611 75.7613 36.449 75.3841V75.3841Z" fill="url(#paint13_linear)"/>
<path d="M49.4893 60.8686C50.0239 60.7537 50.5207 60.4314 50.8882 59.9614C51.2557 59.4912 51.4484 58.9312 51.4308 58.3845C51.3945 57.2529 50.4644 56.5259 49.3574 56.764L44.1837 57.877C43.0768 58.1152 42.206 59.2296 42.2422 60.3612L42.2423 60.3612C42.2786 61.4928 43.2088 62.2197 44.3157 61.9817L49.4893 60.8686ZM43.5806 60.0732C43.5686 59.696 43.859 59.3245 44.2278 59.2452L49.4014 58.1323C49.5786 58.0942 49.7485 58.1297 49.8798 58.2323C50.0112 58.3349 50.0867 58.4912 50.0925 58.6724C50.0984 58.8535 50.0338 59.04 49.9109 59.1973L49.9108 59.1973C49.7878 59.3546 49.6226 59.4622 49.4454 59.5003L44.2718 60.6134C43.9028 60.6928 43.5927 60.4505 43.5806 60.0732V60.0732Z" fill="url(#paint14_linear)"/>
<path d="M33.3603 73.2879C33.9416 72.4908 33.0152 71.7677 32.3829 72.524L32.3826 72.5244C31.8013 73.3216 32.728 74.0443 33.3603 73.2879Z" fill="url(#paint15_linear)"/>
<path d="M47.2789 71.2925L47.2785 71.2929C47.0258 71.6163 47.0399 72.0493 47.3097 72.2602C47.9821 72.7358 48.8493 71.6262 48.2252 71.0889C47.9553 70.878 47.5316 70.9691 47.2789 71.2925V71.2925Z" fill="url(#paint16_linear)"/>
<path d="M39.8752 62.5348C40.4565 61.7377 39.5301 61.0147 38.8978 61.7709L38.8974 61.7714C38.3162 62.5686 39.2429 63.2912 39.8752 62.5348Z" fill="url(#paint17_linear)"/>
<path d="M52.2967 60.6419L52.2963 60.6424C52.0436 60.9657 52.0577 61.3987 52.3276 61.6096C52.9999 62.0852 53.8671 60.9756 53.243 60.4383C52.9731 60.2274 52.5494 60.3186 52.2967 60.6419V60.6419Z" fill="url(#paint18_linear)"/>
<path d="M43.3972 69.0647C43.7624 68.9522 44.0248 68.5617 43.9791 68.1911C43.9336 67.8221 43.5992 67.6148 43.2322 67.7282L43.2317 67.7284C42.865 67.8417 42.6045 68.2327 42.65 68.6018C42.6956 68.9709 43.0302 69.178 43.3972 69.0647V69.0647Z" fill="url(#paint19_linear)"/>
</g>
</g>
<defs>
<linearGradient id="paint0_linear" x1="55.3707" y1="52.062" x2="68.0233" y2="68.8299" gradientUnits="userSpaceOnUse">
<stop stop-color="#AE3227"/>
<stop offset="1" stop-color="#5C1100"/>
</linearGradient>
<linearGradient id="paint1_linear" x1="54.989" y1="51.5561" x2="71.5684" y2="73.528" gradientUnits="userSpaceOnUse">
<stop stop-color="#790E0E"/>
<stop offset="1" stop-color="#4F0F0F"/>
</linearGradient>
<linearGradient id="paint2_linear" x1="57.8489" y1="55.3463" x2="65.5446" y2="65.5451" gradientUnits="userSpaceOnUse">
<stop stop-color="#790E0E"/>
<stop offset="1" stop-color="#4F0F0F"/>
</linearGradient>
<linearGradient id="paint3_linear" x1="53.694" y1="64.2963" x2="58.2266" y2="70.303" gradientUnits="userSpaceOnUse">
<stop stop-color="#790E0E"/>
<stop offset="1" stop-color="#4F0F0F"/>
</linearGradient>
<linearGradient id="paint4_linear" x1="65.1671" y1="50.5883" x2="69.6997" y2="56.595" gradientUnits="userSpaceOnUse">
<stop stop-color="#790E0E"/>
<stop offset="1" stop-color="#4F0F0F"/>
</linearGradient>
<linearGradient id="paint5_linear" x1="49.0631" y1="63.0922" x2="49.8539" y2="64.1402" gradientUnits="userSpaceOnUse">
<stop stop-color="#790E0E"/>
<stop offset="1" stop-color="#4F0F0F"/>
</linearGradient>
<linearGradient id="paint6_linear" x1="64.6309" y1="65.9008" x2="65.4196" y2="66.946" gradientUnits="userSpaceOnUse">
<stop stop-color="#790E0E"/>
<stop offset="1" stop-color="#4F0F0F"/>
</linearGradient>
<linearGradient id="paint7_linear" x1="58.661" y1="53.8762" x2="59.4518" y2="54.9242" gradientUnits="userSpaceOnUse">
<stop stop-color="#790E0E"/>
<stop offset="1" stop-color="#4F0F0F"/>
</linearGradient>
<linearGradient id="paint8_linear" x1="72.6702" y1="56.3808" x2="73.4589" y2="57.426" gradientUnits="userSpaceOnUse">
<stop stop-color="#790E0E"/>
<stop offset="1" stop-color="#4F0F0F"/>
</linearGradient>
<linearGradient id="paint9_linear" x1="60.9729" y1="61.3328" x2="61.7638" y2="62.3809" gradientUnits="userSpaceOnUse">
<stop stop-color="#790E0E"/>
<stop offset="1" stop-color="#4F0F0F"/>
</linearGradient>
<linearGradient id="paint10_linear" x1="35.4516" y1="60.9171" x2="51.0899" y2="73.1394" gradientUnits="userSpaceOnUse">
<stop stop-color="#AE3227"/>
<stop offset="1" stop-color="#5C1100"/>
</linearGradient>
<linearGradient id="paint11_linear" x1="34.9798" y1="60.5484" x2="55.4715" y2="76.5638" gradientUnits="userSpaceOnUse">
<stop stop-color="#790E0E"/>
<stop offset="1" stop-color="#4F0F0F"/>
</linearGradient>
<linearGradient id="paint12_linear" x1="38.5145" y1="63.3111" x2="48.0262" y2="70.7451" gradientUnits="userSpaceOnUse">
<stop stop-color="#790E0E"/>
<stop offset="1" stop-color="#4F0F0F"/>
</linearGradient>
<linearGradient id="paint13_linear" x1="36.9037" y1="72.4942" x2="42.5058" y2="76.8726" gradientUnits="userSpaceOnUse">
<stop stop-color="#790E0E"/>
<stop offset="1" stop-color="#4F0F0F"/>
</linearGradient>
<linearGradient id="paint14_linear" x1="44.0353" y1="57.1835" x2="49.6373" y2="61.5618" gradientUnits="userSpaceOnUse">
<stop stop-color="#790E0E"/>
<stop offset="1" stop-color="#4F0F0F"/>
</linearGradient>
<linearGradient id="paint15_linear" x1="32.3828" y1="72.5241" x2="33.3602" y2="73.288" gradientUnits="userSpaceOnUse">
<stop stop-color="#790E0E"/>
<stop offset="1" stop-color="#4F0F0F"/>
</linearGradient>
<linearGradient id="paint16_linear" x1="47.2788" y1="71.2926" x2="48.2536" y2="72.0545" gradientUnits="userSpaceOnUse">
<stop stop-color="#790E0E"/>
<stop offset="1" stop-color="#4F0F0F"/>
</linearGradient>
<linearGradient id="paint17_linear" x1="38.8977" y1="61.7711" x2="39.8751" y2="62.5349" gradientUnits="userSpaceOnUse">
<stop stop-color="#790E0E"/>
<stop offset="1" stop-color="#4F0F0F"/>
</linearGradient>
<linearGradient id="paint18_linear" x1="52.2966" y1="60.642" x2="53.2714" y2="61.4039" gradientUnits="userSpaceOnUse">
<stop stop-color="#790E0E"/>
<stop offset="1" stop-color="#4F0F0F"/>
</linearGradient>
<linearGradient id="paint19_linear" x1="42.8258" y1="68.0144" x2="43.8034" y2="68.7784" gradientUnits="userSpaceOnUse">
<stop stop-color="#790E0E"/>
<stop offset="1" stop-color="#4F0F0F"/>
</linearGradient>
<clipPath id="clip0">
<rect width="89" height="88" fill="white" transform="translate(0.35498 89.5) rotate(-90)"/>
</clipPath>
<clipPath id="clip1">
<rect width="40.269" height="33.6097" fill="white" transform="translate(37.0842 61.2554) rotate(-37.0373)"/>
</clipPath>
<clipPath id="clip2">
<rect width="38.0488" height="31.7567" fill="white" transform="translate(21 73.7677) rotate(-51.9902)"/>
</clipPath>
</defs>
</svg>
