<svg width="89" height="90" viewBox="0 0 89 90" fill="none" xmlns="http://www.w3.org/2000/svg">
<g clip-path="url(#clip0)">
<path d="M87.833 45.4837C87.833 21.1742 68.3574 1.46742 44.333 1.46742C20.3086 1.46742 0.833005 21.1742 0.833006 45.4837C0.833007 69.7933 20.3086 89.5 44.333 89.5C68.3574 89.5 87.833 69.7933 87.833 45.4837Z" fill="white"/>
<path d="M84.4869 45.4837C84.4869 23.0442 66.5094 4.8533 44.333 4.8533C22.1567 4.8533 4.1792 23.0442 4.1792 45.4837C4.1792 67.9233 22.1567 86.1142 44.333 86.1142C66.5094 86.1142 84.4869 67.9233 84.4869 45.4837Z" fill="#B7CED3"/>
<path d="M48.1812 8.44234C47.44 8.36546 46.692 8.49118 46.0152 8.8064C45.3383 9.12161 44.7575 9.61478 44.3331 10.2345C43.9101 9.61361 43.3295 9.11956 42.6525 8.80434C41.9754 8.48912 41.2269 8.36438 40.4857 8.44322C39.7445 8.52207 39.038 8.8016 38.4405 9.2524C37.8431 9.7032 37.3767 10.3086 37.0905 11.0049C36.5492 10.4865 35.8798 10.1254 35.1527 9.9594C34.4256 9.79343 33.6678 9.82883 32.9589 10.0619C32.2501 10.2949 31.6164 10.7169 31.1245 11.2836C30.6327 11.8503 30.3009 12.5406 30.164 13.2819C29.528 12.8887 28.7989 12.6762 28.0536 12.6668C27.3083 12.6574 26.5743 12.8515 25.9287 13.2285C25.2832 13.6056 24.7501 14.1518 24.3854 14.8096C24.0207 15.4674 23.838 16.2125 23.8565 16.9664C23.1536 16.7157 22.3969 16.6613 21.666 16.809C20.9351 16.9567 20.2571 17.3009 19.7032 17.8056C19.1493 18.3102 18.7401 18.9566 18.5186 19.6766C18.2971 20.3967 18.2715 21.1639 18.4444 21.8975C17.7053 21.8001 16.954 21.9061 16.2694 22.2042C15.5848 22.5024 14.9923 22.9818 14.5542 23.592C14.1161 24.2021 13.8487 24.9204 13.7799 25.6714C13.7112 26.4223 13.8438 27.1781 14.1637 27.8593C13.4209 27.9197 12.7078 28.1815 12.0996 28.6173C11.4914 29.053 11.0105 29.6466 10.7074 30.3355C10.4044 31.0244 10.2904 31.7832 10.3775 32.5321C10.4646 33.281 10.7495 33.9923 11.2023 34.5912C10.4881 34.8065 9.84431 35.2125 9.33881 35.7666C8.8333 36.3208 8.48474 37.0025 8.32978 37.7402C8.17483 38.4778 8.21921 39.2441 8.45826 39.9583C8.69731 40.6726 9.1222 41.3085 9.68821 41.7991C9.03374 42.1599 8.48747 42.6926 8.10686 43.341C7.72626 43.9894 7.52539 44.7296 7.52539 45.4838C7.52539 46.2379 7.72626 46.9781 8.10686 47.6266C8.48747 48.275 9.03374 48.8076 9.68821 49.1684C9.1222 49.659 8.69731 50.2949 8.45826 51.0092C8.21921 51.7235 8.17483 52.4897 8.32978 53.2274C8.48474 53.965 8.8333 54.6468 9.33881 55.2009C9.84431 55.755 10.4881 56.1611 11.2023 56.3763C10.7495 56.9752 10.4646 57.6865 10.3775 58.4354C10.2904 59.1843 10.4044 59.9431 10.7074 60.6321C11.0105 61.321 11.4914 61.9145 12.0996 62.3502C12.7078 62.786 13.4209 63.0478 14.1637 63.1082C13.8438 63.7894 13.7112 64.5452 13.7799 65.2962C13.8487 66.0471 14.1161 66.7654 14.5542 67.3756C14.9923 67.9857 15.5848 68.4651 16.2694 68.7633C16.954 69.0615 17.7053 69.1675 18.4444 69.0701C18.2714 69.8036 18.2971 70.5708 18.5186 71.2909C18.7401 72.011 19.1493 72.6573 19.7032 73.162C20.2571 73.6666 20.9351 74.0108 21.666 74.1585C22.3969 74.3061 23.1536 74.2517 23.8565 74.0009C23.838 74.7549 24.0207 75.5 24.3854 76.1578C24.7501 76.8156 25.2832 77.3617 25.9287 77.7388C26.5743 78.1159 27.3083 78.31 28.0536 78.3006C28.7989 78.2912 29.528 78.0787 30.164 77.6854C30.3008 78.4268 30.6326 79.1172 31.1244 79.6839C31.6163 80.2506 32.2499 80.6727 32.9588 80.9057C33.6677 81.1388 34.4255 81.1742 35.1526 81.0083C35.8797 80.8423 36.5492 80.4812 37.0905 79.9628C37.3767 80.6591 37.8431 81.2645 38.4406 81.7152C39.038 82.166 39.7445 82.4455 40.4857 82.5244C41.2269 82.6032 41.9754 82.4784 42.6525 82.1632C43.3295 81.848 43.9101 81.3539 44.3331 80.733C44.7562 81.3539 45.3368 81.8479 46.0138 82.1632C46.6909 82.4784 47.4394 82.6031 48.1806 82.5243C48.9219 82.4455 49.6284 82.166 50.2259 81.7152C50.8234 81.2644 51.2898 80.6591 51.576 79.9627C52.1174 80.4811 52.7868 80.8422 53.5139 81.0082C54.241 81.1741 54.9988 81.1386 55.7076 80.9056C56.4165 80.6726 57.0502 80.2505 57.542 79.6839C58.0339 79.1172 58.3657 78.4269 58.5026 77.6856C59.1386 78.0788 59.8677 78.2912 60.613 78.3006C61.3583 78.31 62.0923 78.1159 62.7378 77.7388C63.3833 77.3617 63.9165 76.8155 64.2811 76.1577C64.6458 75.5 64.8285 74.7549 64.8101 74.0009C65.513 74.2517 66.2697 74.3061 67.0006 74.1585C67.7315 74.0108 68.4095 73.6666 68.9634 73.1619C69.5173 72.6573 69.9265 72.011 70.148 71.2909C70.3695 70.5708 70.3951 69.8036 70.2221 69.0701C70.9612 69.1674 71.7125 69.0614 72.3971 68.7632C73.0817 68.465 73.6741 67.9856 74.1122 67.3755C74.5503 66.7654 74.8177 66.047 74.8865 65.2961C74.9552 64.5452 74.8226 63.7894 74.5027 63.1082C75.2456 63.048 75.9587 62.7862 76.5671 62.3505C77.1754 61.9149 77.6564 61.3213 77.9596 60.6324C78.2627 59.9435 78.3768 59.1846 78.2897 58.4356C78.2027 57.6866 77.9177 56.9752 77.4649 56.3763C78.1792 56.1611 78.8229 55.755 79.3284 55.2009C79.8339 54.6468 80.1825 53.965 80.3375 53.2274C80.4924 52.4897 80.448 51.7235 80.209 51.0092C79.9699 50.2949 79.545 49.659 78.979 49.1684C79.6335 48.8076 80.1798 48.275 80.5604 47.6266C80.941 46.9781 81.1418 46.2379 81.1418 45.4838C81.1418 44.7296 80.941 43.9894 80.5604 43.341C80.1798 42.6925 79.6335 42.1599 78.979 41.7991C79.545 41.3085 79.9699 40.6726 80.209 39.9583C80.448 39.244 80.4924 38.4777 80.3374 37.7401C80.1824 37.0025 79.8338 36.3207 79.3283 35.7666C78.8228 35.2125 78.179 34.8064 77.4647 34.5912C77.9176 33.9923 78.2026 33.281 78.2897 32.5321C78.3768 31.7832 78.2629 31.0243 77.9598 30.3354C77.6567 29.6465 77.1758 29.0529 76.5675 28.6172C75.9593 28.1814 75.2462 27.9196 74.5034 27.8593C74.8233 27.1781 74.9558 26.4224 74.8871 25.6714C74.8184 24.9205 74.5509 24.2022 74.1129 23.592C73.6748 22.9819 73.0823 22.5025 72.3978 22.2043C71.7132 21.9061 70.9619 21.8001 70.2228 21.8975C70.3958 21.1639 70.3701 20.3967 70.1486 19.6766C69.9271 18.9566 69.5179 18.3102 68.964 17.8056C68.4102 17.3009 67.7321 16.9567 67.0012 16.809C66.2704 16.6613 65.5137 16.7157 64.8107 16.9664C64.8292 16.2125 64.6465 15.4674 64.2818 14.8096C63.9172 14.1518 63.384 13.6056 62.7385 13.2285C62.093 12.8515 61.3589 12.6574 60.6136 12.6668C59.8683 12.6762 59.1393 12.8887 58.5032 13.2819C58.3664 12.5406 58.0346 11.8503 57.5427 11.2836C57.0509 10.7169 56.4172 10.2949 55.7083 10.0619C54.9994 9.82883 54.2416 9.79343 53.5145 9.95939C52.7875 10.1254 52.118 10.4865 51.5767 11.0049C51.289 10.3095 50.8222 9.7049 50.225 9.25417C49.6278 8.80344 48.922 8.52308 48.1812 8.44234V8.44234Z" fill="#F5FCFC"/>
<path d="M52.6984 69.1848C52.6984 68.2498 51.9494 67.4919 51.0254 67.4919C50.1014 67.4919 49.3523 68.2498 49.3523 69.1848C49.3523 70.1198 50.1014 70.8777 51.0254 70.8777C51.9494 70.8777 52.6984 70.1198 52.6984 69.1848Z" fill="#DCEDED"/>
<path d="M22.583 40.4049C22.583 39.4699 21.8339 38.712 20.9099 38.712C19.9859 38.712 19.2368 39.4699 19.2368 40.4049C19.2368 41.3399 19.9859 42.0978 20.9099 42.0978C21.8339 42.0978 22.583 41.3399 22.583 40.4049Z" fill="#DCEDED"/>
<path d="M40.9868 50.5625C40.9868 49.6275 40.2377 48.8696 39.3137 48.8696C38.3897 48.8696 37.6406 49.6275 37.6406 50.5625C37.6406 51.4975 38.3897 52.2555 39.3137 52.2555C40.2377 52.2555 40.9868 51.4975 40.9868 50.5625Z" fill="#DCEDED"/>
<path d="M39.3137 70.8777C39.3137 69.9428 38.5646 69.1848 37.6406 69.1848C36.7166 69.1848 35.9675 69.9428 35.9675 70.8777C35.9675 71.8127 36.7166 72.5707 37.6406 72.5707C38.5646 72.5707 39.3137 71.8127 39.3137 70.8777Z" fill="#DCEDED"/>
<path d="M24.2561 59.0272C24.2561 58.0922 23.507 57.3343 22.583 57.3343C21.659 57.3343 20.9099 58.0922 20.9099 59.0272C20.9099 59.9622 21.659 60.7201 22.583 60.7201C23.507 60.7201 24.2561 59.9622 24.2561 59.0272Z" fill="#DCEDED"/>
<path d="M34.2944 18.3968C34.2944 17.4618 33.5453 16.7038 32.6213 16.7038C31.6973 16.7038 30.9482 17.4618 30.9482 18.3968C30.9482 19.3317 31.6973 20.0897 32.6213 20.0897C33.5453 20.0897 34.2944 19.3317 34.2944 18.3968Z" fill="#DCEDED"/>
<g clip-path="url(#clip1)">
<path fill-rule="evenodd" clip-rule="evenodd" d="M58.9641 68.4863L53.1638 68.273C52.3389 68.2427 51.5492 68.8838 51.4096 69.6977C51.27 70.5116 51.8312 71.2023 52.6561 71.2326L58.4564 71.4458C59.2813 71.4761 60.071 70.8351 60.2106 70.0212C60.3503 69.2073 59.789 68.5166 58.9641 68.4863Z" fill="#713E21"/>
<path fill-rule="evenodd" clip-rule="evenodd" d="M54.4329 60.874L68.7211 61.3993C69.5462 61.4296 70.1072 62.1203 69.9676 62.9342C69.828 63.7481 69.0385 64.3892 68.2134 64.3589L53.9252 63.8336C53.1001 63.8033 52.539 63.1126 52.6787 62.2987C52.8182 61.4847 53.6078 60.8437 54.4329 60.874V60.874ZM51.4094 69.6977C51.2698 70.5116 51.8311 71.2023 52.656 71.2326L58.4563 71.4458C59.2812 71.4762 60.0709 70.8351 60.2105 70.0212C60.3501 69.2073 59.7888 68.5166 58.964 68.4863L53.1636 68.273C52.3388 68.2427 51.549 68.8837 51.4094 69.6977ZM46.0658 75.0072C49.9603 79.8027 59.9484 78.1427 68.3748 71.2995C76.8012 64.4563 80.475 55.0212 76.5805 50.2257C72.686 45.4302 62.6979 47.0902 54.2715 53.9334C45.8451 60.7766 42.1713 70.2117 46.0658 75.0072ZM63.6823 56.7467L69.4826 56.9599C70.3075 56.9902 71.0972 56.3491 71.2368 55.5353C71.3764 54.7214 70.8151 54.0307 69.9902 54.0003L64.1899 53.7871C63.365 53.7567 62.5752 54.3978 62.4357 55.2117C62.2961 56.0256 62.8575 56.7163 63.6823 56.7467Z" fill="url(#paint0_linear)"/>
<path fill-rule="evenodd" clip-rule="evenodd" d="M63.6823 56.7467L69.4826 56.9599C70.3074 56.9902 71.0972 56.3491 71.2368 55.5352C71.3764 54.7214 70.8151 54.0306 69.9902 54.0003L64.1899 53.787C63.365 53.7567 62.5752 54.3977 62.4357 55.2117C62.2961 56.0256 62.8574 56.7163 63.6823 56.7467Z" fill="#713E21"/>
<path fill-rule="evenodd" clip-rule="evenodd" d="M68.7211 61.3993L54.4329 60.874C53.6078 60.8437 52.8183 61.4847 52.6787 62.2987C52.5391 63.1126 53.1002 63.8033 53.9253 63.8336L68.2134 64.3588C69.0385 64.3892 69.8281 63.7481 69.9677 62.9342C70.1073 62.1203 69.5463 61.4295 68.7211 61.3993Z" fill="#713E21"/>
<path fill-rule="evenodd" clip-rule="evenodd" d="M76.5806 50.2257C80.4751 55.0212 76.8013 64.4563 68.3749 71.2995C59.9485 78.1427 49.9604 79.8027 46.0659 75.0072L49.5919 79.3489C53.4864 84.1444 63.4745 82.4844 71.9009 75.6412C80.3273 68.798 84.0011 59.3629 80.1066 54.5674L76.5806 50.2257Z" fill="#713E21"/>
<path d="M67.0942 46.9855C58.4047 48.2623 47.873 56.8153 44.8409 65.058C43.1931 69.2895 43.4079 73.0017 45.4456 75.5109L48.9716 79.8526C51.0093 82.3617 54.5986 83.3336 59.0782 82.5891C67.7676 81.3125 78.2995 72.7593 81.3316 64.5167C82.9793 60.2851 82.7645 56.5728 80.7268 54.0636L77.2008 49.7219C75.163 47.2128 71.5738 46.241 67.0942 46.9855ZM46.2559 65.4184C47.7523 61.5756 50.7555 57.6895 54.7123 54.4761C58.6691 51.2627 63.0886 49.1206 67.1568 48.4445C75.2088 47.008 79.4498 52.2272 76.3903 59.8145C74.8941 63.6574 71.8908 67.5435 67.9341 70.7568C63.9774 73.9701 59.5578 76.1122 55.4896 76.7883C47.4376 78.2249 43.1966 73.0057 46.2559 65.4184V65.4184ZM79.4863 55.0711C83.7482 60.8943 77.6608 70.126 71.4602 75.0985C65.3258 80.1468 55.031 84.2108 50.212 78.8452L49.6127 78.1072C51.3183 78.5634 53.3252 78.6175 55.5522 78.2473C64.2416 76.9707 74.7735 68.4175 77.8056 60.1749C78.6248 58.0713 78.9836 56.096 78.887 54.333L79.4863 55.071L79.4863 55.0711Z" fill="#794515"/>
<path d="M57.5663 64.712C57.9806 64.7271 58.3732 64.4083 58.4434 63.9997C58.5135 63.591 58.2345 63.2474 57.8201 63.2321L54.0522 63.0937C53.6386 63.0785 53.3589 62.7342 53.4288 62.3262C53.4989 61.9183 53.8924 61.5987 54.306 61.6138L68.5942 62.1391C69.5843 62.2178 69.3398 63.613 68.3404 63.6189L64.5719 63.4803C64.1576 63.4652 63.765 63.784 63.6947 64.1927C63.6246 64.6013 63.9037 64.9449 64.318 64.9602L68.0865 65.0987C68.686 65.1208 69.2903 64.9102 69.7883 64.5058C70.2863 64.1014 70.6165 63.5531 70.7179 62.9617C70.9277 61.7378 70.0889 60.7049 68.848 60.6593L54.5599 60.1341C53.319 60.0886 52.1386 61.0472 51.9284 62.2711C51.7185 63.495 52.5573 64.5279 53.7983 64.5736L57.5663 64.712Z" fill="#794515"/>
<path d="M58.3294 72.1857C58.9287 72.2078 59.5332 71.9972 60.0312 71.5929L60.0314 71.5927C60.5293 71.1883 60.8594 70.64 60.9609 70.0487C61.1708 68.8248 60.332 67.7919 59.091 67.7463L53.2906 67.533C52.0498 67.4874 50.8693 68.4461 50.6593 69.67C50.6592 69.67 50.6592 69.67 50.6592 69.67C50.4493 70.894 51.2881 71.9268 52.5291 71.9725L58.3294 72.1857ZM52.1596 69.7253C52.2297 69.3174 52.6231 68.9977 53.0368 69.0129L58.8372 69.2261C59.2508 69.2413 59.5305 69.5856 59.4605 69.9936C59.4269 70.1895 59.3166 70.372 59.1499 70.5073C58.9832 70.6427 58.7821 70.7132 58.5834 70.7059L52.783 70.4926C52.3693 70.4775 52.0897 70.1332 52.1596 69.7253V69.7253Z" fill="#794515"/>
<path d="M69.3558 57.6997C69.9551 57.7219 70.5595 57.5113 71.0575 57.1069C71.5556 56.7025 71.8857 56.1541 71.9872 55.5628C72.1971 54.3389 71.3583 53.306 70.1173 53.2604L64.3169 53.0471C63.0759 53.0015 61.8956 53.9602 61.6855 55.1841L61.6856 55.1841C61.4757 56.408 62.3145 57.4409 63.5555 57.4866L69.3558 57.6997ZM63.186 55.2392C63.2561 54.8313 63.6497 54.5117 64.0632 54.5269L69.8635 54.7402C70.0621 54.7475 70.2367 54.8318 70.3552 54.9776C70.4737 55.1235 70.5204 55.3117 70.4867 55.5076C70.4532 55.7036 70.3428 55.886 70.1762 56.0213L70.1762 56.0214C70.0095 56.1567 69.8084 56.2272 69.6097 56.2198L63.8094 56.0067C63.3957 55.9916 63.1161 55.6472 63.186 55.2392V55.2392Z" fill="#794515"/>
<path d="M49.3041 66.6362C50.1037 65.9392 49.268 64.9115 48.4226 65.5508L48.4222 65.5512C47.6226 66.2484 48.4587 67.2757 49.3041 66.6362Z" fill="#794515"/>
<path d="M64.6891 68.2814L64.6886 68.2819C64.3461 68.56 64.266 69.0284 64.5093 69.328C65.1267 70.0212 66.302 69.0667 65.75 68.3205C65.5066 68.0208 65.0316 68.0033 64.6891 68.2814V68.2814Z" fill="#794515"/>
<path d="M58.6656 56.8721C59.4652 56.1751 58.6296 55.1474 57.7842 55.7868L57.7837 55.7872C56.9842 56.4843 57.8204 57.5116 58.6656 56.8721Z" fill="#794515"/>
<path d="M72.4203 58.2202L72.4198 58.2206C72.0773 58.4987 71.9972 58.9671 72.2405 59.2668C72.8579 59.9599 74.0332 59.0054 73.4812 58.2592C73.2379 57.9595 72.7628 57.942 72.4203 58.2202V58.2202Z" fill="#794515"/>
<path d="M61.0111 64.8356C61.4279 64.8142 61.7956 64.4667 61.8281 64.0567C61.8604 63.6484 61.547 63.335 61.128 63.3569L61.1274 63.3569C60.7086 63.3788 60.3429 63.7274 60.3106 64.1358C60.2783 64.5441 60.592 64.8573 61.0111 64.8356V64.8356Z" fill="#794515"/>
</g>
<g clip-path="url(#clip2)">
<path fill-rule="evenodd" clip-rule="evenodd" d="M50.2035 74.7062L45.6741 76.3705C45.03 76.6072 44.6246 77.3494 44.7737 78.0195C44.9229 78.6897 45.5724 79.044 46.2165 78.8073L50.7458 77.1429C51.3899 76.9062 51.7954 76.1641 51.6462 75.494C51.4971 74.8239 50.8475 74.4694 50.2035 74.7062Z" fill="#713E21"/>
<path fill-rule="evenodd" clip-rule="evenodd" d="M44.3181 70.2785L55.4753 66.1786C56.1196 65.9418 56.769 66.2963 56.9181 66.9664C57.0673 67.6365 56.662 68.3786 56.0177 68.6153L44.8605 72.7153C44.2162 72.9521 43.5668 72.5976 43.4177 71.9275C43.2685 71.2573 43.6738 70.5153 44.3181 70.2785V70.2785ZM44.7737 78.0195C44.9229 78.6897 45.5724 79.044 46.2165 78.8073L50.7458 77.1429C51.3899 76.9062 51.7954 76.1641 51.6462 75.494C51.497 74.8239 50.8475 74.4695 50.2034 74.7062L45.6741 76.3705C45.03 76.6073 44.6245 77.3494 44.7737 78.0195ZM42.3367 83.7885C46.8443 86.2499 54.0047 81.8244 58.3298 73.9038C62.6549 65.9832 62.5068 57.5668 57.9992 55.1054C53.4915 52.6439 46.3312 57.0695 42.0061 64.9901C37.681 72.9107 37.829 81.3271 42.3367 83.7885ZM50.1324 64.1878L54.6617 62.5234C55.3059 62.2867 55.7113 61.5446 55.5621 60.8745C55.413 60.2043 54.7634 59.8499 54.1193 60.0866L49.59 61.751C48.9459 61.9877 48.5404 62.7298 48.6896 63.3999C48.8388 64.07 49.4884 64.4244 50.1324 64.1878Z" fill="url(#paint1_linear)"/>
<path fill-rule="evenodd" clip-rule="evenodd" d="M50.1326 64.1877L54.6619 62.5234C55.306 62.2867 55.7114 61.5445 55.5623 60.8744C55.4131 60.2043 54.7636 59.8499 54.1195 60.0866L49.5901 61.7509C48.946 61.9876 48.5405 62.7297 48.6897 63.3999C48.8389 64.07 49.4885 64.4244 50.1326 64.1877Z" fill="#713E21"/>
<path fill-rule="evenodd" clip-rule="evenodd" d="M55.4755 66.1786L44.3183 70.2785C43.674 70.5153 43.2686 71.2573 43.4179 71.9275C43.567 72.5977 44.2164 72.9521 44.8607 72.7153L56.0179 68.6153C56.6622 68.3786 57.0674 67.6365 56.9183 66.9664C56.7691 66.2963 56.1198 65.9417 55.4755 66.1786Z" fill="#713E21"/>
<path fill-rule="evenodd" clip-rule="evenodd" d="M57.9992 55.1054C62.5069 57.5668 62.6549 65.9831 58.3298 73.9038C54.0047 81.8244 46.8443 86.2499 42.3367 83.7885L46.4178 86.017C50.9254 88.4784 58.0858 84.0529 62.4109 76.1323C66.736 68.2116 66.5879 59.7953 62.0803 57.3339L57.9992 55.1054Z" fill="#713E21"/>
<path d="M49.6801 55.6031C43.398 59.3246 37.9923 69.2241 38.258 76.5209C38.3243 80.2955 39.6598 83.0835 42.0183 84.3715L46.0994 86.6C48.4579 87.8878 51.5255 87.5041 54.7369 85.5192C61.0191 81.798 66.4248 71.8982 66.1591 64.6015C66.0927 60.8268 64.7573 58.0387 62.3987 56.7508L58.3176 54.5223C55.959 53.2345 52.8916 53.6183 49.6801 55.6031ZM39.4603 76.3521C39.4 72.9242 40.4853 68.988 42.5162 65.2687C44.5472 61.5494 47.2718 58.5083 50.1882 56.7058C55.9297 53.0625 60.8374 55.7406 60.8755 62.5418C60.9359 65.9698 59.8506 69.906 57.8197 73.6252C55.7888 77.3444 53.0642 80.3855 50.1476 82.188C44.4062 85.8314 39.4985 83.1532 39.4603 76.3521V76.3521ZM61.762 57.9169C66.8762 61.0531 65.1035 70.0738 61.9009 75.8537C58.7732 81.6709 52.1347 88.0425 46.7361 85.434L46.0424 85.0552C47.4983 84.8685 49.0593 84.2775 50.6557 83.2907C56.9379 79.5694 62.3437 69.6697 62.078 62.373C62.045 60.4964 61.6983 58.8638 61.0683 57.538L61.762 57.9168L61.762 57.9169Z" fill="#753D0A"/>
<path d="M47.9384 72.2433C48.2619 72.1243 48.4634 71.7553 48.3887 71.4188C48.3138 71.0823 47.9908 70.906 47.6672 71.0248L44.725 72.1061C44.402 72.2248 44.0783 72.0481 44.0035 71.7122C43.9288 71.3763 44.1308 71.0064 44.4537 70.8876L55.6109 66.7876C56.3974 66.5361 56.6492 67.6864 55.8821 68.006L52.9395 69.0874C52.616 69.2064 52.4145 69.5754 52.4892 69.9119C52.5641 70.2484 52.8871 70.4247 53.2107 70.3059L56.1533 69.2245C56.6215 69.0525 57.02 68.7 57.2756 68.2319C57.5312 67.7638 57.6124 67.2379 57.504 66.751C57.2796 65.7433 56.3088 65.2132 55.3397 65.5692L44.1826 69.6693C43.2136 70.0254 42.6078 71.135 42.8319 72.1428C43.0562 73.1504 44.0271 73.6806 44.9962 73.3246L47.9384 72.2433Z" fill="#753D0A"/>
<path d="M50.8815 77.7521C51.3495 77.5802 51.7481 77.2277 52.0037 76.7596L52.0038 76.7594C52.2594 76.2913 52.3405 75.7655 52.2322 75.2787C52.0079 74.2709 51.037 73.7408 50.0679 74.0968L45.5386 75.7613C44.5697 76.1173 43.9637 77.2269 44.1879 78.2347C44.1879 78.2347 44.1879 78.2347 44.1879 78.2347C44.4122 79.2425 45.3831 79.7726 46.3522 79.4165L50.8815 77.7521ZM45.3596 77.8042C45.2849 77.4684 45.4868 77.0985 45.8098 76.9797L50.3392 75.3153C50.6621 75.1965 50.9858 75.3733 51.0606 75.7092C51.0965 75.8705 51.0691 76.0457 50.9836 76.2023C50.898 76.359 50.7655 76.4766 50.6104 76.5336L46.081 78.198C45.758 78.3168 45.4343 78.1401 45.3596 77.8042V77.8042Z" fill="#753D0A"/>
<path d="M54.7973 63.1325C55.2653 62.9606 55.6639 62.608 55.9195 62.14C56.1752 61.6719 56.2562 61.1459 56.1479 60.6591C55.9236 59.6514 54.9527 59.1212 53.9836 59.4773L49.4543 61.1417C48.4852 61.4978 47.8795 62.6074 48.1037 63.6151L48.1037 63.6151C48.328 64.6228 49.2989 65.153 50.268 64.797L54.7973 63.1325ZM49.2753 63.1845C49.2007 62.8486 49.4027 62.4787 49.7256 62.3601L54.2549 60.6957C54.41 60.6387 54.5709 60.6486 54.708 60.7234C54.8451 60.7982 54.9404 60.9283 54.9763 61.0896C55.0122 61.2509 54.9848 61.4261 54.8993 61.5827L54.8993 61.5827C54.8137 61.7394 54.6813 61.857 54.5261 61.914L49.9969 63.5784C49.6738 63.6972 49.3501 63.5205 49.2753 63.1845V63.1845Z" fill="#753D0A"/>
<path d="M42.1891 76.328C42.5845 75.5398 41.6176 75.0126 41.1689 75.7709L41.1686 75.7713C40.7733 76.5597 41.7404 77.0865 42.1891 76.328Z" fill="#753D0A"/>
<path d="M54.5431 72.7439L54.5428 72.7444C54.367 73.0663 54.453 73.4519 54.7347 73.6057C55.4281 73.9443 56.0314 72.8395 55.3715 72.4395C55.0899 72.2857 54.7189 72.422 54.5431 72.7439V72.7439Z" fill="#753D0A"/>
<path d="M46.3129 65.8657C46.7083 65.0774 45.7414 64.5503 45.2926 65.3086L45.2924 65.3091C44.8971 66.0974 45.8642 66.6241 46.3129 65.8657Z" fill="#753D0A"/>
<path d="M57.319 62.5668L57.3187 62.5673C57.1429 62.8892 57.2289 63.2748 57.5106 63.4286C58.204 63.7672 58.8073 62.6624 58.1474 62.2624C57.8657 62.1085 57.4948 62.2449 57.319 62.5668V62.5668Z" fill="#753D0A"/>
<path d="M50.6274 71.2525C50.9413 71.1046 51.1146 70.7214 51.0104 70.3957C50.9066 70.0715 50.5666 69.9292 50.2512 70.0781L50.2507 70.0783C49.9355 70.2272 49.764 70.6106 49.8679 70.935C49.9718 71.2592 50.3119 71.4013 50.6274 71.2525V71.2525Z" fill="#753D0A"/>
</g>
</g>
<defs>
<linearGradient id="paint0_linear" x1="54.2715" y1="53.9334" x2="68.3748" y2="71.2995" gradientUnits="userSpaceOnUse">
<stop stop-color="#DEAD63"/>
<stop offset="1" stop-color="#5C2100"/>
</linearGradient>
<linearGradient id="paint1_linear" x1="42.0061" y1="64.9901" x2="58.3298" y2="73.9038" gradientUnits="userSpaceOnUse">
<stop stop-color="#DEAD63"/>
<stop offset="1" stop-color="#5C2100"/>
</linearGradient>
<clipPath id="clip0">
<rect width="89" height="88" fill="white" transform="translate(0.35498 89.5) rotate(-90)"/>
</clipPath>
<clipPath id="clip1">
<rect width="40.9079" height="35.7944" fill="white" transform="translate(35.926 63.7889) rotate(-39.0806)"/>
</clipPath>
<clipPath id="clip2">
<rect width="34.0093" height="29.7581" fill="white" transform="translate(31 78.3548) rotate(-61.363)"/>
</clipPath>
</defs>
</svg>
