<svg width="88" height="88" viewBox="0 0 88 88" fill="none" xmlns="http://www.w3.org/2000/svg">
<g clip-path="url(#clip0)">
<path d="M8.2063 23.7303C14.3445 9.36598 28.4779 0.00240676 44.0001 5.06753e-07C59.9118 -0.00257762 74.3311 9.83228 80.2171 24.7304C56.2136 24.397 32.2098 24.0635 8.2063 23.7303Z" fill="#EAF6FF"/>
<path d="M74.8749 24.6562C76.6555 24.6809 78.4363 24.7057 80.217 24.7304C74.3309 9.83228 59.9116 -0.00257762 44 5.06753e-07C43.111 0.000172382 42.2271 0.0324849 41.3486 0.0931568C56.1632 1.11598 69.3019 10.6341 74.8749 24.6562Z" fill="#D8ECFE"/>
<path d="M22.3509 15.8725C22.1685 15.8725 21.9829 15.8347 21.8057 15.7548C21.1373 15.4531 20.8396 14.6668 21.1412 13.9982C21.3941 13.4377 22.0023 12.3889 23.2352 11.6628C24.493 10.9225 25.7282 10.9108 26.3527 10.9698C27.0828 11.0387 27.6187 11.6867 27.5498 12.4169C27.4807 13.1469 26.8344 13.6816 26.1026 13.6141C25.798 13.5852 25.1958 13.5907 24.5827 13.9516C23.9823 14.3053 23.6857 14.8168 23.5623 15.0905C23.3407 15.5815 22.8572 15.8725 22.3509 15.8725Z" fill="#C4E2FF"/>
<path d="M34.3113 8.82371C34.129 8.82371 33.9434 8.7859 33.7661 8.70598C33.0977 8.40434 32.8 7.61801 33.1017 6.94942C33.3547 6.38876 33.9628 5.33998 35.1956 4.61398C36.4534 3.87337 37.6887 3.86169 38.3129 3.92098C39.0431 3.99008 39.579 4.63804 39.51 5.36817C39.4411 6.09829 38.7928 6.63368 38.0628 6.56528C37.7576 6.53658 37.1559 6.54207 36.5433 6.90284C35.9428 7.25639 35.6461 7.76806 35.5227 8.04168C35.301 8.53273 34.8175 8.82371 34.3113 8.82371Z" fill="#C4E2FF"/>
<path d="M53.5143 8.64395C53.3911 8.37032 53.0944 7.859 52.4937 7.50528C51.8811 7.14451 51.2787 7.13918 50.974 7.16771C50.2447 7.23681 49.5961 6.7009 49.527 5.9706C49.458 5.24048 49.9938 4.59251 50.7241 4.52342C51.3478 4.46412 52.5838 4.47564 53.8415 5.21642C55.0744 5.94225 55.6827 6.99103 55.9355 7.55168C56.2371 8.22028 55.9394 9.00678 55.271 9.30825C54.615 9.60439 53.8194 9.32062 53.5143 8.64395Z" fill="#C4E2FF"/>
<path d="M42.402 15.4474C42.3916 15.4474 42.3811 15.4474 42.3708 15.4474C41.6374 15.4424 41.047 14.844 41.0518 14.1104C41.0568 13.3803 41.6504 12.7914 42.3795 12.7914H42.4039C42.7083 12.7914 43.287 12.7307 43.8494 12.3392C44.4329 11.9329 44.6892 11.3879 44.7903 11.0991C45.0321 10.4068 45.7887 10.0414 46.4819 10.2836C47.1742 10.5252 47.5394 11.2827 47.2974 11.9752C47.0906 12.5671 46.5649 13.6848 45.3671 14.5191C44.2124 15.3228 43.026 15.4474 42.402 15.4474Z" fill="#C4E2FF"/>
<path d="M64.8563 15.0903C64.7331 14.8167 64.4362 14.3053 63.8355 13.9514C63.2226 13.5905 62.6207 13.585 62.316 13.6139C61.5848 13.6823 60.9379 13.1471 60.8688 12.4168C60.7997 11.6865 61.3356 11.0387 62.0659 10.9696C62.6895 10.9105 63.9251 10.9218 65.1832 11.6626C66.4162 12.3886 67.0245 13.4375 67.2773 13.998C67.579 14.6666 67.2813 15.4531 66.6128 15.7546C65.957 16.0507 65.1614 15.767 64.8563 15.0903Z" fill="#C4E2FF"/>
<path d="M6.9941 29.1766L6.82789 33.0332C5.1748 44.9771 5.04899 57.0831 6.45372 69.0589C6.79421 71.9618 5.75969 74.8573 3.65663 76.8871C2.39489 78.105 1.68213 79.7835 1.68213 81.5372C1.6823 85.1065 4.57582 88 8.14515 88H79.855C83.4243 88 86.318 85.1065 86.318 81.537C86.318 79.7832 85.6053 78.1048 84.3435 76.8869C82.2405 74.8571 81.2059 71.9617 81.5464 69.0587C82.9512 57.083 82.8253 44.9771 81.1723 33.033L81.0061 29.1765H6.9941V29.1766Z" fill="#FFE1C7"/>
<path d="M84.3435 76.8869C82.2405 74.8571 81.206 71.9617 81.5464 69.0587C82.9512 57.083 82.8254 44.9771 81.1723 33.033L81.0061 29.1765H75.6943L75.8605 33.033C77.5136 44.9769 77.6394 57.083 76.2346 69.0587C75.8942 71.9617 76.9287 74.8571 79.0317 76.8869C80.2935 78.1048 81.0062 79.7834 81.0062 81.537C81.0062 85.1063 78.1127 88 74.5432 88H79.855C83.4243 88 86.318 85.1065 86.318 81.537C86.318 79.7834 85.6054 78.1048 84.3435 76.8869Z" fill="#FDB97E"/>
<path d="M6.99417 18.5529H81.0063C83.94 18.5529 86.3181 20.9312 86.3181 23.8647C86.3181 26.7984 83.9399 29.1765 81.0063 29.1765H6.99417C4.06044 29.1765 1.68237 26.7983 1.68237 23.8647C1.68237 20.931 4.06061 18.5529 6.99417 18.5529Z" fill="#FFEAD8"/>
<path d="M81.0064 18.5529H75.6946C78.6283 18.5529 81.0064 20.9312 81.0064 23.8647C81.0064 26.7984 78.6281 29.1765 75.6946 29.1765H81.0064C83.9401 29.1765 86.3182 26.7983 86.3182 23.8647C86.3182 20.931 83.9399 18.5529 81.0064 18.5529Z" fill="#FFE3CB"/>
<path d="M44.0003 75.055C53.0947 75.055 60.4671 67.6825 60.4671 58.5882C60.4671 49.4938 53.0947 42.1213 44.0003 42.1213C34.9059 42.1213 27.5334 49.4938 27.5334 58.5882C27.5334 67.6825 34.9059 75.055 44.0003 75.055Z" fill="#C6D9EC"/>
<path d="M47.2445 54.0891C47.2445 55.8809 45.792 57.3334 44.0002 57.3334C42.2084 57.3334 40.7559 55.8809 40.7559 54.0891C40.7559 52.7457 42.5795 49.588 43.4923 48.0917C43.7243 47.7111 44.276 47.7111 44.5081 48.0917C45.4209 49.588 47.2445 52.7457 47.2445 54.0891Z" fill="white"/>
<path d="M40.5952 61.7372C41.4206 63.1668 40.9307 64.9949 39.501 65.8202C38.0714 66.6456 36.2433 66.1557 35.418 64.7261C34.7992 63.6543 34.7996 60.2948 34.8386 58.6804C34.8486 58.2699 35.2886 58.0157 35.6492 58.2123C37.0668 58.9861 39.9765 60.6653 40.5952 61.7372Z" fill="white"/>
<path d="M47.4053 61.7372C46.58 63.1668 47.0698 64.9949 48.4995 65.8202C49.9291 66.6456 51.7572 66.1557 52.5825 64.7261C53.2013 63.6543 53.2009 60.2948 53.1619 58.6804C53.1519 58.2699 52.7119 58.0157 52.3513 58.2123C50.9337 58.9861 48.0241 60.6653 47.4053 61.7372Z" fill="white"/>
</g>
<defs>
<clipPath id="clip0">
<rect width="88" height="88" fill="white"/>
</clipPath>
</defs>
</svg>
