<svg width="85" height="79" viewBox="0 0 85 79" fill="none" xmlns="http://www.w3.org/2000/svg">
<path d="M27.3583 2.90881C27.2385 6.9483 28.1859 17.0543 40.7925 16.2538C41.7416 16.1935 42.4478 15.5285 42.5081 14.5795L43.5304 13.3524L42.5098 12.6807C42.2164 1.88748 32.935 1.04362 29.11 1.15718C28.0872 1.18739 27.3887 1.88582 27.3583 2.90881Z" fill="#A4E786"/>
<path d="M57.6416 2.90799C57.6112 1.885 56.9128 1.18657 55.8898 1.15619C52.0736 1.04297 42.8335 1.88235 42.5 12.6055V14.5903C42.5603 15.5393 43.2584 16.1926 44.2075 16.2528C56.814 17.0535 57.7615 6.94748 57.6416 2.90799Z" fill="#6FBE6B"/>
<path d="M42.5 14.1307L46.3866 29.6249L42.5 58.9551H19.1748C12.3084 58.9551 6.72363 53.3703 6.72363 46.5039C6.72363 40.4908 11.0085 35.4605 16.6846 34.3034V34.2287C16.6846 27.3623 22.2693 21.7775 29.1357 21.7775C29.7467 21.7775 30.3543 21.8207 30.9536 21.9087C32.813 17.2785 37.3187 14.1307 42.5 14.1307Z" fill="#FFF492"/>
<path d="M78.2764 46.5038C78.2764 53.3703 72.6916 58.955 65.8252 58.955H42.5V14.1308C47.6813 14.1308 52.187 17.2785 54.0464 21.9086C54.6457 21.8206 55.2533 21.7775 55.8643 21.7775C62.7307 21.7775 68.3154 27.3622 68.3154 34.2286V34.3034C73.9915 35.4605 78.2764 40.4908 78.2764 46.5038Z" fill="#FFCF57"/>
<path d="M38.4048 36.6285C39.7801 36.6285 40.895 35.5136 40.895 34.1383C40.895 32.763 39.7801 31.6481 38.4048 31.6481C37.0295 31.6481 35.9146 32.763 35.9146 34.1383C35.9146 35.5136 37.0295 36.6285 38.4048 36.6285Z" fill="#FFCF57"/>
<path d="M54.4531 42.3905C55.8284 42.3905 56.9434 41.2756 56.9434 39.9003C56.9434 38.525 55.8284 37.41 54.4531 37.41C53.0778 37.41 51.9629 38.525 51.9629 39.9003C51.9629 41.2756 53.0778 42.3905 54.4531 42.3905Z" fill="#FF9C4A"/>
<path d="M29.6616 42.3905C31.0369 42.3905 32.1519 41.2756 32.1519 39.9003C32.1519 38.525 31.0369 37.41 29.6616 37.41C28.2863 37.41 27.1714 38.525 27.1714 39.9003C27.1714 41.2756 28.2863 42.3905 29.6616 42.3905Z" fill="#FFCF57"/>
<path d="M42.5 60.2747L46.3866 69.0635L42.5 77.8524H13.3559C11.6327 77.8524 10.1153 76.8148 9.48944 75.2111L5.60467 65.2551L4.98544 63.6697C4.34976 62.0381 5.54956 60.2747 7.30467 60.2747H42.5Z" fill="#ECF2FF"/>
<path d="M80.0145 63.673L79.3936 65.2551L75.4889 75.2161C74.8614 76.8181 73.344 77.8524 71.6241 77.8524H42.5V60.2747H77.6953C79.4489 60.2747 80.6537 62.0416 80.0145 63.673Z" fill="#DEDDF4"/>
<path d="M42.5 47.6758L48.0615 54.2782L42.5 65.2552H2.49023C1.11496 65.2552 0 64.1402 0 62.7649V50.166C0 48.7907 1.11496 47.6758 2.49023 47.6758H42.5Z" fill="#DEDDF4"/>
<path d="M85 50.166V62.7649C85 64.1402 83.885 65.2552 82.5098 65.2552H42.5V47.6758H82.5098C83.885 47.6758 85 48.7907 85 50.166Z" fill="#B6BAF2"/>
</svg>
