<svg width="75" height="95" viewBox="0 0 75 95" fill="none" xmlns="http://www.w3.org/2000/svg">
<g clip-path="url(#clip0)">
<path d="M70.1929 63.3416H49.9508C49.1967 63.3416 48.5459 63.8683 48.3901 64.6057C47.6109 68.2918 45.4596 79.0872 45.8538 84.1567C46.2114 88.7566 48.5388 91.7999 50.2777 93.4615C51.3114 94.4492 52.6857 95.0001 54.1158 95.0001H66.0278C67.4582 95.0001 68.8322 94.4492 69.8659 93.4615C71.6049 91.7999 73.9324 88.7566 74.2899 84.1567C74.6839 79.087 72.5327 68.2918 71.7536 64.6057C71.5978 63.8683 70.947 63.3416 70.1929 63.3416Z" fill="#DFEDE7" fill-opacity="0.24"/>
<path d="M71.7535 64.6054C71.5977 63.8681 70.9469 63.3413 70.1928 63.3413H60.7681C60.7681 63.3413 64.0573 77.9878 63.5778 84.1565C63.171 89.3902 60.214 92.609 58.4752 94.0699C57.7609 94.6701 56.8592 94.9998 55.9258 94.9998H66.0279C67.4582 94.9998 68.8323 94.4489 69.866 93.4613C71.6049 91.7997 73.9323 88.7564 74.2899 84.1565C74.6838 79.087 72.5326 68.2915 71.7535 64.6054Z" fill="#D7E0DC" fill-opacity="0.24"/>
<path d="M46.9333 72.2976C46.2305 76.5275 45.6294 81.2699 45.8537 84.1566C46.2112 88.7565 48.5387 91.7998 50.2777 93.4614C51.3114 94.4491 52.6856 95 54.1158 95H66.0278C67.4581 95 68.8321 94.4491 69.8658 93.4614C71.6048 91.7998 73.9321 88.7565 74.2898 84.1566C74.5141 81.2699 73.913 76.5277 73.2102 72.2976H46.9333Z" fill="#FD9727"/>
<path d="M74.326 83.4394C74.3299 83.314 74.3334 83.1878 74.3351 83.0572C74.336 82.9822 74.3358 82.9047 74.3358 82.8281C74.336 82.705 74.3358 82.5809 74.3341 82.4538C74.333 82.3716 74.3313 82.2883 74.3295 82.2046C74.3267 82.0771 74.323 81.948 74.3185 81.817C74.3156 81.7317 74.3124 81.6459 74.3087 81.5591C74.3029 81.4225 74.2959 81.2839 74.2885 81.144C74.284 81.0602 74.2797 80.9767 74.2745 80.8917C74.2652 80.7364 74.2545 80.5787 74.2431 80.42C74.2381 80.3479 74.2337 80.2766 74.2281 80.2037C74.2112 79.9792 74.1928 79.7519 74.1724 79.5216C74.1717 79.5138 74.1711 79.5062 74.1705 79.4982C74.1488 79.2528 74.1251 79.0041 74.0998 78.7533C74.0948 78.7041 74.0892 78.6538 74.0842 78.6045C74.0636 78.4054 74.0424 78.2052 74.02 78.0033C74.012 77.9319 74.0034 77.8599 73.9953 77.7881C73.9743 77.6055 73.9529 77.4222 73.9305 77.2379C73.9212 77.1607 73.9115 77.0834 73.9019 77.0058C73.879 76.8227 73.8558 76.6392 73.8319 76.4549C73.8222 76.3809 73.8125 76.3067 73.8027 76.2324C73.7767 76.0361 73.75 75.8396 73.7227 75.6428C73.7145 75.5832 73.7063 75.5236 73.6978 75.4641C73.6659 75.2362 73.633 75.008 73.5996 74.7802C73.5953 74.7516 73.5914 74.723 73.5871 74.6946C73.4681 73.8881 73.3411 73.0839 73.2104 72.2974H62.4984C63.2013 76.5273 63.8021 81.2698 63.5778 84.1564C63.171 89.3901 60.214 92.609 58.4752 94.0698C57.7609 94.67 56.8592 94.9997 55.9258 94.9997H66.0279C67.4582 94.9997 68.8323 94.4488 69.866 93.4612C71.6049 91.7996 73.9323 88.7563 74.2899 84.1564C74.3031 83.986 74.3132 83.8081 74.3208 83.6252C74.3232 83.5649 74.3241 83.501 74.326 83.4394Z" fill="#E57F23"/>
<path d="M31.9423 29.9883C28.6465 29.3014 26.2848 26.3987 26.2848 23.0346V14.3363C26.2848 13.7387 26.7696 13.254 27.3679 13.254C27.966 13.254 28.451 12.7696 28.451 12.1717V4.57861H12.2603V12.1717C12.2603 12.7694 12.7451 13.254 13.3434 13.254C13.9415 13.254 14.4265 13.7385 14.4265 14.3363V23.0346C14.4265 26.3987 12.0648 29.3016 8.76906 29.9883C4.58783 30.8596 1.62431 34.588 1.72105 38.8548L2.91129 91.2643C2.95826 93.3289 4.6465 94.978 6.71317 94.978H33.998C36.0646 94.978 37.7529 93.3289 37.7998 91.2643L38.9901 38.8548C39.0872 34.588 36.1235 30.8596 31.9423 29.9883Z" fill="#DFEDE7" fill-opacity="0.24"/>
<path d="M28.4511 7.76178H12.2604V0.967811C12.2604 0.433251 12.6939 0 13.2289 0H27.4826C28.0175 0 28.4511 0.433251 28.4511 0.967811V7.76178Z" fill="#4A4256"/>
<path d="M8.76931 29.9883C4.58808 30.8596 1.62438 34.588 1.7213 38.855L2.91154 91.2645C2.95852 93.3291 4.64676 94.9782 6.71342 94.9782H33.9982C36.0649 94.9782 37.7531 93.3291 37.8001 91.2645L38.9903 38.855C39.0873 34.5882 36.1236 30.8598 31.9423 29.9885C29.1143 29.3992 26.9756 27.1776 26.4251 24.4336H14.2864C13.736 27.1775 11.5973 29.399 8.76931 29.9883Z" fill="#FD9727"/>
<path d="M47.5643 89.9404C48.4049 91.4691 49.4137 92.6359 50.2775 93.4612C51.3113 94.4488 52.6855 94.9997 54.1156 94.9997H66.0276C67.458 94.9997 68.832 94.4488 69.8657 93.4612C70.7295 92.6359 71.7384 91.4691 72.579 89.9404C72.3309 90.1581 47.8126 90.1581 47.5643 89.9404Z" fill="#D7E0DC" fill-opacity="0.24"/>
<path d="M31.9423 29.9883C31.7817 29.9547 31.6238 29.9145 31.4679 29.8707C31.4426 29.8636 31.4173 29.8569 31.3923 29.8497C31.2437 29.8063 31.0974 29.7579 30.9535 29.7053C30.9264 29.6955 30.8997 29.6853 30.8727 29.6751C30.7272 29.62 30.5834 29.5612 30.4429 29.4972C30.4286 29.4907 30.4147 29.4836 30.4005 29.4769C30.2605 29.412 30.1231 29.343 29.9885 29.2695C29.9774 29.2636 29.966 29.2578 29.9551 29.2519C29.8179 29.1762 29.6842 29.0953 29.5531 29.011C29.5336 28.9984 29.5139 28.986 29.4946 28.9734C29.365 28.8884 29.2383 28.7995 29.1151 28.7065C29.1013 28.6962 29.0879 28.6856 29.0744 28.6752C28.8155 28.4772 28.5714 28.2622 28.3432 28.0317C28.3363 28.0248 28.3292 28.018 28.3224 28.0111C28.2093 27.8961 28.1005 27.777 27.9956 27.6545C27.9878 27.6454 27.9801 27.6365 27.9725 27.6274C27.6468 27.2435 27.3622 26.8257 27.124 26.3802C27.1227 26.3777 27.1214 26.3753 27.1201 26.3731C26.7986 25.7706 26.5625 25.1184 26.425 24.4336H17.9031C18.0457 27.311 18.7557 29.977 21.5943 30.5685C25.7755 31.4398 28.5457 34.5884 28.4488 38.8552L27.0911 94.9784H33.998C34.2563 94.9784 34.5088 94.9526 34.7528 94.9034C36.4611 94.5596 37.7588 93.071 37.7999 91.2645L38.9901 38.855C39.087 34.588 36.1235 30.8596 31.9423 29.9883Z" fill="#E57F23"/>
<path d="M30.9591 74.8514H9.75251C9.11394 74.8514 8.59607 74.3341 8.59607 73.6958V49.9351C8.59607 49.297 9.11376 48.7795 9.75251 48.7795H30.9591C31.5977 48.7795 32.1156 49.2968 32.1156 49.9351V73.696C32.1154 74.3339 31.5977 74.8514 30.9591 74.8514Z" fill="#FFE5B8"/>
<path d="M20.3547 55.9175C24.2994 55.9175 27.4972 52.7221 27.4972 48.7803C27.4972 44.8385 24.2994 41.6431 20.3547 41.6431C16.41 41.6431 13.2122 44.8385 13.2122 48.7803C13.2122 52.7221 16.41 55.9175 20.3547 55.9175Z" fill="#FC502A"/>
<path d="M26.2881 64.2961H14.4238C13.6224 64.2961 12.973 63.647 12.973 62.8464C12.973 62.0458 13.6225 61.3967 14.4238 61.3967H26.2881C27.0895 61.3967 27.7388 62.0458 27.7388 62.8464C27.7388 63.647 27.0895 64.2961 26.2881 64.2961Z" fill="white"/>
<path d="M26.2881 70.1388H14.4238C13.6224 70.1388 12.973 69.4898 12.973 68.6892C12.973 67.8885 13.6225 67.2395 14.4238 67.2395H26.2881C27.0895 67.2395 27.7388 67.8885 27.7388 68.6892C27.7388 69.4898 27.0895 70.1388 26.2881 70.1388Z" fill="white"/>
<path d="M20.3559 89.2435C13.869 89.2435 7.84465 89.0392 2.85327 88.6895L2.91176 91.2645C2.95874 93.3291 4.64698 94.9782 6.71364 94.9782H33.9984C36.0651 94.9782 37.7533 93.3291 37.8003 91.2645L37.8588 88.6895C32.8671 89.0392 26.8427 89.2435 20.3559 89.2435Z" fill="#D7E0DC" fill-opacity="0.24"/>
<path d="M27.2319 89.1646L27.0913 94.9781H33.9982C34.2565 94.9781 34.509 94.9524 34.753 94.9032C34.8681 94.88 34.981 94.8507 35.0921 94.8175C35.1283 94.8065 35.1634 94.793 35.199 94.7811C35.2729 94.7564 35.3466 94.7312 35.4185 94.7021C35.4597 94.6854 35.4998 94.6668 35.5403 94.6488C35.6049 94.62 35.6692 94.5904 35.7317 94.5583C35.7728 94.5373 35.8131 94.515 35.8532 94.4926C35.9133 94.4588 35.9726 94.4236 36.0307 94.3868C36.0693 94.3623 36.1079 94.3375 36.1456 94.3117C36.2036 94.272 36.2598 94.23 36.3153 94.1873C36.3499 94.1608 36.3848 94.1348 36.4182 94.1072C36.4773 94.0586 36.5337 94.007 36.5896 93.9549C36.6165 93.9298 36.6446 93.9061 36.6706 93.8803C36.8314 93.7214 36.9781 93.5483 37.1088 93.3631C37.1299 93.3333 37.1487 93.3015 37.1689 93.2711C37.2115 93.2069 37.2532 93.1423 37.2919 93.0755C37.3138 93.0377 37.3336 92.9987 37.3542 92.9601C37.3875 92.8978 37.4198 92.8347 37.4495 92.7703C37.4688 92.7284 37.487 92.6859 37.5048 92.6432C37.5318 92.5788 37.557 92.5137 37.5804 92.4475C37.596 92.4037 37.6112 92.3595 37.6252 92.315C37.6467 92.2465 37.6653 92.1768 37.6829 92.1066C37.6939 92.0628 37.7056 92.0194 37.715 91.9751C37.7316 91.8975 37.7442 91.8187 37.7561 91.7394C37.7618 91.701 37.7693 91.6633 37.7739 91.6246C37.7878 91.506 37.7973 91.386 37.8001 91.2642L37.8586 88.6892C34.6852 88.9117 31.0934 89.075 27.2319 89.1646Z" fill="#C9D1CD" fill-opacity="0.24"/>
<path d="M70.1962 93.1358C70.9794 92.3387 71.8438 91.2783 72.5793 89.9407C72.4666 90.0394 67.3514 90.0934 61.7758 90.1025C60.7176 91.9685 59.4176 93.2781 58.4751 94.07C57.7608 94.6701 56.8593 94.9998 55.926 95H66.028C67.4583 95 68.8324 94.4491 69.8661 93.4614C69.974 93.3584 70.0841 93.2501 70.1959 93.1363C70.1959 93.1361 70.196 93.136 70.1962 93.1358Z" fill="#C9D1CD" fill-opacity="0.24"/>
<path d="M17.8713 7.76172V23.0346C17.8713 23.5013 17.8801 23.9699 17.9031 24.4334H26.4251C26.4251 24.4336 26.4251 24.4336 26.4251 24.4338C26.3339 23.98 26.2849 23.5122 26.2849 23.0346V14.3364C26.2849 13.7387 26.7699 13.2541 27.368 13.2541C27.966 13.2541 28.4511 12.7696 28.4511 12.1718V7.76172H17.8713Z" fill="#D7E0DC" fill-opacity="0.24"/>
</g>
<defs>
<clipPath id="clip0">
<rect width="75" height="95" fill="white"/>
</clipPath>
</defs>
</svg>
