<svg width="53" height="95" viewBox="0 0 53 95" fill="none" xmlns="http://www.w3.org/2000/svg">
<g clip-path="url(#clip0)">
<path d="M24.0241 92.4629L24.0246 40.3975C24.0246 39.1265 23.5292 37.9056 22.6438 36.994L18.0118 32.2257C17.2483 31.4397 16.8211 30.3871 16.8211 29.2912V13.1038H7.87167V29.2933C7.87167 30.3891 7.44454 31.4417 6.68102 32.2277L2.04958 37.0003C1.16508 37.9117 0.67041 39.1319 0.67041 40.402V92.4625C0.67041 93.8638 1.80633 94.9997 3.20758 94.9997H21.4869C22.8882 95.0001 24.0241 93.8641 24.0241 92.4629Z" fill="#E5F9F6" fill-opacity="0.24"/>
<path d="M6.68102 32.2278L2.04958 37.0006C1.16508 37.912 0.67041 39.1322 0.67041 40.4022V92.4628C0.67041 93.864 1.80633 95 3.20758 95H21.4869C22.8882 95 24.0241 93.864 24.0241 92.4628L24.0246 40.3974C24.0246 39.1264 23.5292 37.9055 22.6438 36.9939L18.0118 32.2256C17.2765 31.4687 16.8573 30.464 16.8271 29.4121H7.8661C7.83623 30.4647 7.41689 31.4704 6.68102 32.2278Z" fill="#CDEAE0"/>
<path d="M22.6437 36.9939L18.0117 32.2256C17.2764 31.4687 16.8573 30.464 16.827 29.4121H7.86603C7.84265 30.2398 7.57509 31.0364 7.10547 31.7083C7.23294 31.8899 7.37136 32.0645 7.52796 32.2256L12.16 36.9939C13.0456 37.9055 13.5408 39.1264 13.5408 40.3974L13.5402 92.4628C13.5402 93.864 12.4043 95 11.0031 95H21.487C22.8883 95 24.0242 93.864 24.0242 92.4628L24.0247 40.3974C24.0246 39.1264 23.5293 37.9055 22.6437 36.9939Z" fill="#B6D1C6"/>
<path d="M22.6437 36.9939L18.0117 32.2256C17.2764 31.4687 16.8573 30.464 16.827 29.4121H7.86603C7.84265 30.2398 7.57509 31.0364 7.10547 31.7083C7.23294 31.8899 7.37136 32.0645 7.52796 32.2256L12.16 36.9939C13.0456 37.9055 13.5408 39.1264 13.5408 40.3974L13.5402 92.4628C13.5402 93.864 12.4043 95 11.0031 95H21.487C22.8883 95 24.0242 93.864 24.0242 92.4628L24.0247 40.3974C24.0246 39.1264 23.5293 37.9055 22.6437 36.9939Z" fill="#B6D1C6"/>
<path d="M48.5571 95.0001H35.6479C34.5817 95.0001 33.6979 94.1742 33.6258 93.1104L31.8781 67.3532C31.8325 66.6813 32.3652 66.1113 33.0385 66.1113H51.1662C51.8396 66.1113 52.3723 66.6813 52.3267 67.3532L50.579 93.1104C50.5072 94.1742 49.6232 95.0001 48.5571 95.0001Z" fill="#E5F9F6" fill-opacity="0.24"/>
<path d="M51.1664 66.1113H41.9765L40.0164 95.0001H48.5571C49.6232 95.0001 50.507 94.1742 50.5792 93.1104L52.3268 67.3532C52.3725 66.6813 51.8398 66.1113 51.1664 66.1113Z" fill="#D6E5E2" fill-opacity="0.24"/>
<path d="M33 73L34.2534 89.4613C34.3194 90.3274 35.127 91 36.1013 91H47.8987C48.873 91 49.6806 90.3275 49.7466 89.4613L51 73H33Z" fill="#CDEAE0"/>
<path d="M12.4495 16.9891C11.6691 16.9891 11.0362 16.3564 11.0362 15.5758V6.42034C11.0362 5.63882 10.7319 4.90405 10.1793 4.35149L8.24054 2.41253C7.68854 1.86053 7.68854 0.965818 8.24054 0.414001C8.79254 -0.138001 9.68743 -0.138001 10.2391 0.414001L12.1778 2.35297C13.2644 3.43934 13.8626 4.88383 13.8626 6.42034V15.576C13.8626 16.3564 13.2299 16.9891 12.4495 16.9891Z" fill="#772424"/>
<path d="M6.86149 52.0564C10.4112 50.0172 14.2815 50.0172 17.8327 52.0606C18.5289 52.4612 19.4013 51.9816 19.4343 51.1791L19.5349 48.7341C19.5525 48.3074 19.3147 47.9099 18.9298 47.7246C14.6908 45.6821 10.0065 45.6795 5.76509 47.7201C5.38008 47.9053 5.14203 48.3031 5.15947 48.7299L5.26003 51.1743C5.29343 51.9768 6.1655 52.4562 6.86149 52.0564Z" fill="#FC502A"/>
<path d="M18.9303 47.7248C17.1886 46.8856 15.3715 46.3915 13.5409 46.2412V50.5999C14.995 50.7725 16.4386 51.2582 17.833 52.0607C18.5291 52.4613 19.4016 51.9817 19.4346 51.1792L19.5352 48.7342C19.5528 48.3077 19.3149 47.9102 18.9303 47.7248Z" fill="#E52D15"/>
<path d="M19.5585 77.8713H5.13646C4.35605 77.8713 3.72314 77.2386 3.72314 76.458C3.72314 75.6776 4.35586 75.0447 5.13646 75.0447H19.5585C20.3389 75.0447 20.9718 75.6774 20.9718 76.458C20.9718 77.2384 20.3391 77.8713 19.5585 77.8713Z" fill="white"/>
<path d="M19.5585 84.112H5.13646C4.35605 84.112 3.72314 83.4793 3.72314 82.6987C3.72314 81.9183 4.35586 81.2854 5.13646 81.2854H19.5585C20.3389 81.2854 20.9718 81.9181 20.9718 82.6987C20.9718 83.4793 20.3391 84.112 19.5585 84.112Z" fill="white"/>
<path d="M12.3484 70.3852C15.7393 70.3852 18.4881 67.6363 18.4881 64.2455C18.4881 60.8546 15.7393 58.1057 12.3484 58.1057C8.95748 58.1057 6.20862 60.8546 6.20862 64.2455C6.20862 67.6363 8.95748 70.3852 12.3484 70.3852Z" fill="#FC502A"/>
<path d="M13.5407 58.2236L13.5405 70.2686C16.3599 69.7132 18.4868 67.2284 18.4868 64.2461C18.4868 61.2636 16.3601 58.779 13.5407 58.2236Z" fill="#E52D15"/>
<path d="M17.258 16.2894H7.43735C7.1054 16.2894 6.83655 16.0204 6.83655 15.6886V11.6242C6.83655 11.2923 7.10559 11.0234 7.43735 11.0234H17.258C17.5899 11.0234 17.8588 11.2925 17.8588 11.6242V15.6885C17.8588 16.0204 17.5897 16.2894 17.258 16.2894Z" fill="#4A4256"/>
<path d="M41.3825 73L40 91H47.872C48.8547 91 49.6693 90.3275 49.7358 89.4613L51 73H41.3825Z" fill="#BCDDCF"/>
<path d="M50.0252 90.5035H34.18C33.9128 90.5035 33.6599 90.4388 33.4369 90.3237L33.626 93.1105C33.6981 94.1742 34.5819 95.0001 35.6481 95.0001H48.5573C49.6234 95.0001 50.5072 94.1742 50.5794 93.1105L50.7685 90.3237C50.5452 90.4388 50.2923 90.5035 50.0252 90.5035Z" fill="#DFEDE7" fill-opacity="0.24"/>
<path opacity="0.14" d="M50.5794 93.1105L50.6157 92.574L50.7684 90.3237C50.5452 90.4388 50.2923 90.5035 50.0253 90.5035H40.3218L40.0164 95.0001H48.5571C48.7569 95.0001 48.9504 94.9709 49.1334 94.9168C49.1944 94.8988 49.2542 94.8778 49.3126 94.8544C50.0144 94.5722 50.5252 93.9083 50.5794 93.1105Z" fill="#D7E0DC"/>
<path d="M16.82 16.2891H7.87109V20.7138H16.82V16.2891Z" fill="#352F3F"/>
</g>
<defs>
<clipPath id="clip0">
<rect width="53" height="95" fill="white"/>
</clipPath>
</defs>
</svg>
