<svg width="87" height="69" viewBox="0 0 87 69" fill="none" xmlns="http://www.w3.org/2000/svg">
<g clip-path="url(#clip0)">
<path d="M49.8748 11.7651C47.9652 12.2974 46.0223 11.4093 45.1243 9.77381C43.1111 6.06607 37.5754 5.18858 34.5261 8.17416C33.0366 9.59726 30.8741 9.61916 29.4184 8.61556C26.0067 6.32626 20.8347 7.75268 19.257 11.8301C18.56 13.6389 16.6982 14.6405 14.8072 14.2874C12.8856 13.9004 10.5658 14.9126 9.43604 16.1977L32.7771 39.5393C34.2718 39.6628 35.7925 39.7577 37.3324 39.8241L58.3417 18.4637C58.5587 14.2084 54.0578 10.579 49.8748 11.7651Z" fill="#00B04B"/>
<path d="M46.1177 17.7807C50.5808 22.2438 57.6292 22.5445 62.4408 18.6827C63.0063 18.2287 63.0455 17.3791 62.5324 16.866L47.0323 1.36596C46.5193 0.852877 45.6697 0.892039 45.2156 1.45756C41.3546 6.26914 41.6552 13.3182 46.1177 17.7807Z" fill="#FF5368"/>
<path d="M47.0463 16.8528C42.7803 12.5868 42.7803 5.64592 47.0463 1.37995C45.9743 0.308644 44.1888 0.504453 43.3691 1.77953C39.9925 7.02985 40.5992 14.1188 45.1897 18.7093C49.7796 23.2999 56.8686 23.9065 62.1195 20.5294C63.3939 19.7096 63.5898 17.9241 62.5185 16.8521C58.2531 21.1181 51.3116 21.1181 47.0463 16.8528Z" fill="#C5324F"/>
<path d="M52.3068 11.5918C53.6741 12.9592 55.891 12.9592 57.2584 11.5918L52.3068 6.64087C50.9394 8.00821 50.9394 10.2245 52.3068 11.5918Z" fill="#FF7C8B"/>
<path d="M46.5286 8.13232C46.445 8.84254 46.4523 9.56205 46.5505 10.2703C46.6508 10.9885 47.3139 11.4896 48.032 11.3894C48.3261 11.3482 48.5836 11.2135 48.7788 11.0183C49.0595 10.7369 49.2102 10.332 49.1511 9.90787C49.0834 9.422 49.0781 8.92816 49.1365 8.4403C49.2215 7.72079 48.7064 7.06765 47.9869 6.98269C47.2667 6.89773 46.6136 7.41214 46.5286 8.13232Z" fill="#FFCF5D"/>
<path d="M51.3089 13.6223C51.1171 13.4743 50.9325 13.3116 50.7593 13.1391C50.5854 12.9652 50.4214 12.7786 50.2721 12.5848C49.83 12.0107 49.0057 11.9038 48.4308 12.3465C47.8567 12.7886 47.7498 13.6137 48.1926 14.1878C48.4103 14.4706 48.6492 14.7427 48.9028 14.9956C49.1543 15.2472 49.4238 15.4848 49.7039 15.7012C50.2323 16.1094 50.9737 16.0516 51.4337 15.591C51.4728 15.5518 51.5107 15.5093 51.5452 15.4642C51.9886 14.8901 51.8824 14.0657 51.3089 13.6223Z" fill="#FFCF5D"/>
<path d="M32.0858 36.3154C30.9807 35.5541 30.5572 34.1363 31.1048 32.8964C32.3354 30.0967 30.4908 26.831 27.6838 26.2754C26.4725 26.0517 25.4184 24.9705 25.3859 23.5288C25.354 20.5419 22.1965 18.2367 19.3789 19.075C18.1317 19.4401 16.7365 18.9177 16.0588 17.709C14.5832 15.0513 10.5794 14.6199 8.59017 16.8335C7.64497 17.9128 6.18272 18.0336 4.78285 17.7256C1.94131 17.0797 -0.922806 19.6485 0.282577 22.3931C0.629723 23.2029 1.27755 23.8554 1.99706 24.2649C3.26882 24.9931 4.32353 26.0232 4.15029 27.4928C3.96909 29.0659 4.49478 30.6914 5.6172 31.8663C6.60686 32.8679 7.41133 33.1135 8.03792 33.373C7.60449 33.1234 7.21884 32.8818 6.88165 32.6515C7.21884 32.8818 7.60449 33.1234 8.03792 33.373C8.28948 33.4772 8.51317 33.5847 8.70765 33.7434C10.1659 34.5186 12.0995 35.355 14.6443 36.1754C20.1117 37.9383 26.8315 39.1245 34.1017 39.6402C33.8999 38.2762 33.1505 37.027 32.0858 36.3154Z" fill="#4FE267"/>
<path d="M32.2624 14.963C25.4947 14.963 20.0088 20.449 20.0088 27.2166C20.0088 29.6135 20.6991 31.8477 21.8892 33.7361C27.6466 34.9288 34.2212 35.6132 41.0824 35.718C43.2071 33.5144 44.516 30.5188 44.516 27.2166C44.5154 20.449 39.0294 14.963 32.2624 14.963Z" fill="#FF5368"/>
<path d="M33.5753 34.2186V20.2146C33.5753 19.4892 32.9872 18.9017 32.2624 18.9017C31.5369 18.9017 30.9495 19.4892 30.9495 20.2146V34.2186C30.9495 34.5896 31.1041 34.9242 31.3517 35.1631C31.892 35.2176 32.4363 35.268 32.9839 35.3145C33.3397 35.0802 33.5753 34.6766 33.5753 34.2186Z" fill="#FF7C8B"/>
<path d="M35.7632 27.2167C35.7632 29.1502 34.1961 30.7173 32.2626 30.7173C30.329 30.7173 28.7612 29.1502 28.7612 27.2167C28.7612 25.2831 30.329 23.7153 32.2626 23.7153C34.1961 23.7153 35.7632 25.2831 35.7632 27.2167Z" fill="#FF7C8B"/>
<path d="M32.2623 13.6501C24.7818 13.6501 18.6958 19.7361 18.6958 27.2167C18.6958 29.427 19.2308 31.5138 20.1727 33.3598C21.3349 33.6292 22.535 33.8768 23.7682 34.1018C22.2396 32.2201 21.3216 29.8239 21.3216 27.2167C21.3216 21.1838 26.2294 16.276 32.2623 16.276C38.2946 16.276 43.203 21.1838 43.203 27.2167C43.203 30.6204 41.6399 33.6657 39.194 35.6743C40.3914 35.7114 41.5981 35.7307 42.8128 35.732C44.6972 33.4022 45.8289 30.4392 45.8289 27.2167C45.8282 19.7361 39.7422 13.6501 32.2623 13.6501Z" fill="#C5324F"/>
<path d="M27.1221 20.6846C26.5605 21.1274 26.0574 21.6411 25.626 22.2119C25.1885 22.7901 25.3034 23.6138 25.8822 24.0505C26.1191 24.2297 26.3966 24.316 26.6727 24.316C27.0696 24.316 27.4626 24.1362 27.7208 23.795C28.0168 23.4034 28.3626 23.0503 28.7483 22.7469C29.3171 22.2976 29.4154 21.4718 28.966 20.903C28.5166 20.3335 27.6916 20.2359 27.1221 20.6846Z" fill="#FFCF5D"/>
<path d="M28.7426 31.6824C28.357 31.3784 28.0125 31.0253 27.7165 30.633C27.2804 30.0542 26.4573 29.9387 25.8778 30.3755C25.299 30.8116 25.1836 31.6346 25.6203 32.2141C26.0504 32.7849 26.5535 33.3 27.1144 33.7427C27.3554 33.9332 27.6428 34.0255 27.9275 34.0255C28.3158 34.0255 28.6995 33.8543 28.959 33.5264C29.4084 32.9575 29.3115 32.1318 28.7426 31.6824Z" fill="#FFCF5D"/>
<path d="M26.62 27.9468C26.5888 27.7065 26.5736 27.4609 26.5736 27.2166C26.5736 26.9704 26.5895 26.7228 26.6207 26.4805C26.7136 25.761 26.2065 25.1026 25.487 25.0097C24.7688 24.9161 24.1097 25.4238 24.0168 26.1433C23.971 26.4971 23.9478 26.8582 23.9478 27.2166C23.9478 27.5724 23.9703 27.9308 24.0155 28.2813C24.1004 28.9437 24.6653 29.427 25.3158 29.427C25.3715 29.427 25.4279 29.4236 25.485 29.4163C26.2039 29.3241 26.7123 28.6656 26.62 27.9468Z" fill="#FFCF5D"/>
<path d="M35.782 22.7502C36.1676 23.0549 36.5121 23.4073 36.8081 23.7996C37.0657 24.1421 37.4593 24.322 37.8575 24.322C38.1323 24.322 38.4098 24.2357 38.6468 24.0578C39.2255 23.6211 39.341 22.798 38.9043 22.2186C38.4742 21.6477 37.971 21.1333 37.4095 20.6899C36.8407 20.2406 36.015 20.3375 35.5656 20.9063C35.1162 21.4751 35.2131 22.3009 35.782 22.7502Z" fill="#FFCF5D"/>
<path d="M38.6427 30.3821C38.0646 29.9447 37.2415 30.0595 36.8041 30.6383C36.5081 31.03 36.1629 31.3824 35.7773 31.6864C35.2078 32.1351 35.1102 32.9608 35.5589 33.5303C35.8178 33.8589 36.2027 34.0301 36.591 34.0301C36.8758 34.0301 37.1619 33.9379 37.4028 33.748C37.9644 33.3053 38.4681 32.7916 38.8989 32.2207C39.3363 31.6426 39.2215 30.8195 38.6427 30.3821Z" fill="#FFCF5D"/>
<path d="M40.5093 26.1514C40.417 25.4325 39.7586 24.9247 39.0397 25.017C38.3209 25.1093 37.8124 25.767 37.9047 26.4859C37.9359 26.7268 37.9512 26.9724 37.9512 27.216C37.9512 27.4623 37.9352 27.7099 37.904 27.9528C37.8111 28.6716 38.3182 29.3301 39.0377 29.423C39.0948 29.4303 39.1512 29.4343 39.2077 29.4343C39.8575 29.4343 40.4223 28.9517 40.508 28.29C40.5544 27.9362 40.5777 27.5751 40.5777 27.216C40.5777 26.8609 40.5544 26.5025 40.5093 26.1514Z" fill="#FFCF5D"/>
<path d="M80.1321 11.7146C78.1222 12.1547 76.0228 11.9821 74.6647 10.4402C71.8092 7.27871 66.0604 7.89467 63.9411 11.6914C62.968 13.4178 60.9654 14.1639 59.1739 13.6428C55.1283 12.4447 50.5942 15.7383 50.5491 20.0056C50.502 22.0652 48.9886 23.6098 47.2495 23.9291C43.2186 24.7223 40.5695 29.3885 42.3371 33.387C43.1236 35.1592 42.515 37.1836 40.9279 38.2715C40.3027 38.6871 39.7544 39.232 39.3037 39.8632C40.6611 39.909 42.0318 39.9336 43.4124 39.9336C53.8393 39.9336 63.7207 38.5988 71.2371 36.1747C72.2433 35.8508 74.06 35.1525 74.8844 34.828C75.8203 33.3053 76.5471 34.3195 78.934 31.9154C80.5456 30.2374 81.301 27.9149 81.0408 25.6681C80.7919 23.5686 82.3059 22.0971 84.1325 21.0563C85.1654 20.4716 86.0959 19.5396 86.5938 18.3827C88.3248 14.4619 84.2129 10.792 80.1321 11.7146Z" fill="#4FE267"/>
<path d="M70.9112 33.4274C70.499 28.6517 66.4826 24.8908 61.602 24.8908C56.4479 24.8908 52.2556 29.0831 52.2556 34.2372C52.2556 35.4804 52.5012 36.6665 52.9439 37.7524C58.2347 37.1199 63.1107 36.1143 67.2638 34.7748C68.6551 34.3261 69.8624 33.8728 70.9112 33.4274Z" fill="#C5324F"/>
<path d="M65.6967 28.9855C65.6967 28.9736 65.6967 28.961 65.6967 28.949C65.6881 26.7228 63.8647 24.8994 61.6385 24.8908C61.6265 24.8908 61.6139 24.8908 61.602 24.8908C56.4486 24.8908 52.2556 29.0831 52.2556 34.2372V34.2737C52.2609 35.6556 52.9665 36.8822 54.0332 37.6164C56.9709 37.232 59.7707 36.7309 62.3792 36.1203C64.4064 34.4044 65.6967 31.8437 65.6967 28.9855Z" fill="#FF5368"/>
<path d="M31.5621 3.96261C30.5406 2.94109 28.8699 2.94109 27.8484 3.96261C26.8275 4.98347 26.8275 6.65481 27.8484 7.67567L31.5621 11.3887C32.583 12.4103 34.2543 12.4103 35.2752 11.3887C36.296 10.3679 36.296 8.6972 35.2752 7.67567L31.5621 3.96261Z" fill="#FF7E40"/>
<path d="M72.6986 17.3034H67.4476C66.0033 17.3034 64.8218 18.4849 64.8218 19.9292C64.8218 21.3736 66.0033 22.5551 67.4476 22.5551H72.6986C74.1429 22.5551 75.3244 21.3736 75.3244 19.9292C75.3244 18.4849 74.1429 17.3034 72.6986 17.3034Z" fill="#FF7E40"/>
<path d="M14.4076 23.0429L10.6939 26.756C9.67301 27.7769 9.67301 29.4482 10.6939 30.4697C11.7147 31.4906 13.3861 31.4906 14.4076 30.4697L18.1206 26.756C19.1422 25.7351 19.1422 24.0638 18.1206 23.0429C17.0991 22.0214 15.4284 22.0214 14.4076 23.0429Z" fill="#FF7E40"/>
<path d="M80.3496 33.2927H6.65553C3.23453 33.2927 0.748771 36.6075 1.68865 39.9395C3.99254 48.107 10.4608 55.1793 19.3472 59.7473H67.6586C76.5337 55.1853 82.9967 48.1243 85.3079 39.97C86.2557 36.626 83.7832 33.2927 80.3496 33.2927Z" fill="white"/>
<path d="M80.2805 38.4254L80.234 38.6146C78.3364 45.2077 73.023 51.0322 65.261 55.022C60.4747 57.4825 54.9304 59.7473 48.8245 59.7473H19.3464C19.3464 64.3989 23.3907 68.3031 27.9826 68.3031H59.0224C60.3174 68.3031 61.6635 68.0037 62.9067 67.3771C64.1273 66.8886 67.6585 64.3404 67.6585 59.7473C76.5336 55.1846 82.9966 48.1236 85.3078 39.9693C85.3542 39.8054 85.3927 39.6421 85.4226 39.4788C86.0352 36.176 81.0916 35.1657 80.2805 38.4254Z" fill="#DEEEED"/>
</g>
<defs>
<clipPath id="clip0">
<rect width="87" height="69" fill="white"/>
</clipPath>
</defs>
</svg>
