<svg width="85" height="70" viewBox="0 0 85 70" fill="none" xmlns="http://www.w3.org/2000/svg">
<path d="M40.0244 3.24031L36.8578 5.17187L35.0439 2.59203C31.0489 2.20844 27.9273 2.1875 27.5586 2.1875C27.1522 2.1875 26.2499 2.19813 25.0684 2.23922L23.1399 4.70406L20.0879 2.55203C17.0158 2.83328 13.4519 3.33516 10.1854 4.21547L7.94916 7.3925L5.2094 6.07016C2.23772 7.57344 0 9.64047 0 12.5375V27.9688C0 29.2642 1.1138 30.3125 2.49023 30.3125H15.1074L17.8336 27.9688L20.0879 30.3125H27.5586H30.0488L32.4604 27.9688L35.0293 30.3125H44.9902L47.2054 27.9688L49.9707 30.3125H52.4609C53.8374 30.3125 54.9512 29.2642 54.9512 27.9688V12.5375C54.9512 7.00031 47.2618 4.43766 40.0244 3.24031V3.24031Z" fill="#FF6B3D"/>
<path d="M32.4604 27.9688L35.0293 30.3125H44.9902L47.2054 27.9688L49.9707 30.3125H52.4609C53.8374 30.3125 54.9512 29.2642 54.9512 27.9688V12.5375C54.9512 7.00031 47.2618 4.43766 40.0244 3.24031L36.8578 5.17187L35.0439 2.59203C31.0489 2.20844 27.9273 2.1875 27.5586 2.1875V30.3125H30.0488L32.4604 27.9688Z" fill="#EB4F2D"/>
<path d="M29.4991 14.7875C28.8016 13.967 28.1567 13.1613 27.5586 12.3311C26.1211 10.3361 25.0717 8.11345 25.0684 4.5772V2.23923C23.7339 2.28563 22.027 2.37423 20.0879 2.55188V4.57923C20.0977 11.2305 23.0255 14.6775 25.6131 17.717C26.3125 18.5402 26.9588 19.3481 27.5586 20.1813C28.9983 22.182 30.0488 24.4139 30.0488 27.9686V30.3123H35.0293V27.9686C35.0293 21.29 32.0916 17.8361 29.4991 14.7875V14.7875Z" fill="#FE8271"/>
<path d="M30.0488 30.3125H35.0293V27.9687C35.0293 21.29 32.0916 17.8361 29.4991 14.7875C28.8016 13.967 28.1567 13.1612 27.5586 12.3311V20.1814C28.9983 22.1822 30.0488 24.4141 30.0488 27.9687V30.3125Z" fill="#FF6B3D"/>
<path d="M44.3725 14.8447C42.1061 12.2172 40.1459 9.94892 40.0244 5.60938V3.24032C38.2965 2.95423 36.6091 2.74251 35.0439 2.59204V5.6711C35.2141 11.6655 38.0254 14.927 40.5108 17.8019C42.9134 20.5874 44.9903 22.9906 44.9903 27.9688V30.3125H49.9708V27.9688C49.9708 21.3266 46.9991 17.8842 44.3725 14.8447Z" fill="#FF6B3D"/>
<path d="M14.4217 14.918C12.2671 12.4597 10.4043 10.338 10.1855 6.64609V4.21547C8.37772 4.70266 6.69116 5.32094 5.20947 6.07031L5.2098 6.77438C5.52108 12.1325 8.2107 15.1995 10.5842 17.9027C13.0112 20.6697 15.1075 23.0592 15.1075 27.9688V30.3125H20.088V27.9688C20.088 21.3723 17.0773 17.9438 14.4217 14.918Z" fill="#FE8271"/>
<path d="M54.9658 21.9903L51.7992 23.9219L49.9853 21.342C45.9903 20.9584 42.8687 20.9375 42.5 20.9375C42.0936 20.9375 41.1913 20.9481 40.0098 20.9892L38.0813 23.4541L35.0293 21.302C31.9572 21.5833 28.3933 22.0852 25.1268 22.9655L22.8907 26.1427L20.151 24.8203C17.1791 26.3234 15.1074 28.3905 15.1074 31.2875V46.7188C15.1074 48.0142 16.2212 49.0625 17.5977 49.0625H30.0488L32.775 46.7188L35.0293 49.0625H42.5H44.9902L47.4018 46.7188L49.9707 49.0625H59.9316L62.1468 46.7188L64.9121 49.0625H67.4023C68.7788 49.0625 69.8926 48.0142 69.8926 46.7188V31.2875C69.8926 25.7503 62.2032 23.1877 54.9658 21.9903V21.9903Z" fill="#FF6B3D"/>
<path d="M47.4018 46.7188L49.9707 49.0625H59.9316L62.1468 46.7188L64.9121 49.0625H67.4023C68.7788 49.0625 69.8926 48.0142 69.8926 46.7188V31.2875C69.8926 25.7503 62.2032 23.1877 54.9658 21.9903L51.7992 23.9219L49.9853 21.342C45.9903 20.9584 42.8687 20.9375 42.5 20.9375V49.0625H44.9902L47.4018 46.7188Z" fill="#EB4F2D"/>
<path d="M44.4406 33.5375C43.743 32.717 43.0982 31.9113 42.5 31.0811C41.0625 29.0861 40.0131 26.8634 40.0098 23.3272V20.9894C38.6753 21.0358 36.9684 21.1244 35.0293 21.302V23.3294C35.0391 29.9806 37.9669 33.4277 40.5545 36.4672C41.2539 37.2903 41.9002 38.0983 42.5 38.9314C43.9397 40.9322 44.9902 43.1641 44.9902 46.7188V49.0625H49.9707V46.7188C49.9707 40.04 47.0331 36.5861 44.4406 33.5375Z" fill="#FE8271"/>
<path d="M44.9902 49.0625H49.9707V46.7187C49.9707 40.04 47.0331 36.5861 44.4406 33.5375C43.743 32.717 43.0982 31.9112 42.5 31.0811V38.9314C43.9397 40.9322 44.9902 43.1641 44.9902 46.7187V49.0625Z" fill="#FF6B3D"/>
<path d="M59.3139 33.5947C57.0475 30.9672 55.0873 28.6989 54.9658 24.3594V21.9905C53.2379 21.7044 51.5505 21.4927 49.9854 21.3422V24.4213C50.1555 30.4156 52.9668 33.6772 55.4522 36.552C57.8548 39.3374 59.9317 41.7406 59.9317 46.7188V49.0625H64.9121V46.7188C64.9121 40.0766 61.9405 36.6342 59.3139 33.5947Z" fill="#FF6B3D"/>
<path d="M29.363 33.668C27.2083 31.2098 25.3456 29.088 25.1266 25.3962V22.9655C23.3189 23.4527 21.6323 24.0709 20.1506 24.8203L20.151 25.5244C20.4622 30.8825 23.1519 33.9495 25.5254 36.6527C27.9525 39.4197 30.0488 41.8092 30.0488 46.7187V49.0625H35.0293V46.7187C35.0293 40.1223 32.0186 36.6937 29.363 33.668Z" fill="#FE8271"/>
<path d="M69.9073 40.7403L66.7407 42.6719L64.9268 40.092C60.9318 39.7084 57.8102 39.6875 57.4415 39.6875C57.0351 39.6875 56.1328 39.6981 54.9512 39.7392L53.0228 42.2041L49.9708 40.052C46.8987 40.3333 43.3348 40.8352 40.0683 41.7155L37.8322 44.8927L35.0925 43.5703C32.1208 45.0734 30.0491 47.1406 30.0491 50.0377V65.4688C30.0491 66.7642 31.1629 67.8125 32.5393 67.8125H44.9905L47.7166 65.4688L49.9708 67.8125H57.4415H59.9317L62.3433 65.4688L64.9122 67.8125H74.8731L77.0883 65.4688L79.8536 67.8125H82.5098C83.8863 67.8125 85.0001 66.7642 85.0001 65.4688V50.0375C85.0001 44.5003 77.1447 41.9377 69.9073 40.7403V40.7403Z" fill="#FF6B3D"/>
<path d="M62.3432 65.4688L64.9121 67.8125H74.873L77.0882 65.4688L79.8535 67.8125H82.5098C83.8862 67.8125 85 66.7642 85 65.4688V50.0375C85 44.5003 77.1446 41.9377 69.9072 40.7403L66.7406 42.6719L64.9267 40.092C60.9317 39.7084 57.8101 39.6875 57.4414 39.6875V67.8125H59.9316L62.3432 65.4688Z" fill="#EB4F2D"/>
<path d="M59.382 52.2875C58.6844 51.467 58.0396 50.6613 57.4414 49.8311C56.0039 47.8361 54.9545 45.6134 54.9512 42.0772V39.7394C53.6167 39.7858 51.9098 39.8744 49.9707 40.052V42.0794C49.9805 48.7306 52.9084 52.1777 55.4959 55.2172C56.1953 56.0403 56.8416 56.8483 57.4414 57.6814C58.8811 59.6822 59.9316 61.9141 59.9316 65.4687V67.8125H64.9121V65.4687C64.9121 58.79 61.9745 55.3361 59.382 52.2875Z" fill="#FE8271"/>
<path d="M59.9316 67.8125H64.9121V65.4688C64.9121 58.79 61.9745 55.3361 59.382 52.2875C58.6844 51.467 58.0396 50.6613 57.4414 49.8311V57.6814C58.8811 59.6822 59.9316 61.9141 59.9316 65.4688V67.8125Z" fill="#FF6B3D"/>
<path d="M74.2553 52.3447C71.9889 49.7172 70.0288 47.4489 69.9072 43.1094V40.7405C68.1793 40.4544 66.492 40.2427 64.9268 40.0922V43.1713C65.0969 49.1656 67.9082 52.4272 70.3937 55.302C72.7962 58.0874 74.8731 60.4906 74.8731 65.4688V67.8125H79.8536V65.4688C79.8536 58.8266 76.8819 55.3842 74.2553 52.3447Z" fill="#FF6B3D"/>
<path d="M44.3046 52.418C42.1499 49.9598 40.2872 47.838 40.0683 44.1463V41.7155C38.2605 42.2027 36.574 42.8209 35.0923 43.5703L35.0926 44.2744C35.4039 49.6325 38.0935 52.6995 40.467 55.4027C42.8942 58.1697 44.9905 60.5592 44.9905 65.4688V67.8125H49.9709V65.4688C49.9709 58.8723 46.9602 55.4438 44.3046 52.418Z" fill="#FE8271"/>
</svg>
