<svg width="58" height="95" viewBox="0 0 58 95" fill="none" xmlns="http://www.w3.org/2000/svg">
<g clip-path="url(#clip0)">
<path d="M18.2477 28.651V18.0955H9.31755V28.651C6.34083 31.6669 0.38739 34.6828 0.38739 43.7304V93.4923C0.38739 94.3213 1.05599 95.0002 1.87575 95.0002H25.6895C26.5064 95.0002 27.1779 94.3213 27.1779 93.4923V43.7304C27.1779 34.6828 21.2244 31.6669 18.2477 28.651Z" fill="#C4D9DF" fill-opacity="0.85"/>
<path d="M3.38336 53.866H24.1667V76.8814H3.38336V53.866Z" fill="#A3AEBE"/>
<path d="M3.36414 82.1823C3.36414 82.5968 3.69916 82.9363 4.10832 82.9363H23.457C23.8661 82.9363 24.2012 82.5968 24.2012 82.1823V76.9045H3.36414V82.1823Z" fill="white"/>
<path d="M23.457 48.2542H4.10832C3.69916 48.2542 3.36414 48.5936 3.36414 49.0081V54.2859H24.2012V49.0081C24.2012 48.5936 23.8661 48.2542 23.457 48.2542Z" fill="white"/>
<path d="M56.0667 62.6804L52.9323 94.119C52.8824 94.6193 52.4668 95 51.9705 95H35.9962C35.4999 95 35.0843 94.6193 35.0344 94.119L31.9 62.6804H56.0667Z" fill="#D0EEFF" fill-opacity="0.64"/>
<path d="M31.9 62.6805H56.0666L56.4142 59.8638C56.4863 59.2793 56.0364 58.7629 55.455 58.7629H32.5117C31.9302 58.7629 31.4803 59.2793 31.5525 59.8638L31.9 62.6805Z" fill="white" fill-opacity="0.25"/>
<path d="M18.2478 6.03321V18.0952H9.31763V3.01733H18.2478V6.03321Z" fill="#C9CCD5"/>
<path d="M17.5036 0H10.0618C9.65265 0 9.31763 0.339433 9.31763 0.753968V2.2619V3.76984V6.03175H18.2478V3.76984C18.2478 3.35531 18.2478 2.67644 18.2478 2.2619V0.753968C18.2478 0.339433 17.9128 0 17.5036 0Z" fill="white"/>
<path d="M20.3524 52.0238H7.21293C6.80087 52.0238 6.46875 51.6858 6.46875 51.2698C6.46875 50.8538 6.80087 50.5159 7.21293 50.5159H20.3524C20.7644 50.5159 21.0965 50.8538 21.0965 51.2698C21.0965 51.6858 20.7644 52.0238 20.3524 52.0238Z" fill="#C9CCD5"/>
<path d="M20.3524 80.6744H7.21293C6.80087 80.6744 6.46875 80.3365 6.46875 79.9205C6.46875 79.5045 6.80087 79.1665 7.21293 79.1665H20.3524C20.7644 79.1665 21.0965 79.5045 21.0965 79.9205C21.0965 80.3365 20.7644 80.6744 20.3524 80.6744Z" fill="#C9CCD5"/>
<path d="M20.4803 62.5795H7.08506C6.67591 62.5795 6.34088 62.2415 6.34088 61.8255C6.34088 61.4095 6.67591 61.0715 7.08506 61.0715H20.4803C20.8895 61.0715 21.2245 61.4095 21.2245 61.8255C21.2245 62.2415 20.8895 62.5795 20.4803 62.5795Z" fill="#E6E9ED"/>
<path d="M17.5036 65.5953H10.0618C9.65265 65.5953 9.31763 65.2574 9.31763 64.8414C9.31763 64.4254 9.65265 64.0874 10.0618 64.0874H17.5036C17.9128 64.0874 18.2478 64.4254 18.2478 64.8414C18.2478 65.2574 17.9128 65.5953 17.5036 65.5953Z" fill="#E6E9ED"/>
<path d="M10.806 12.8176C10.5095 12.8176 10.2297 12.6379 10.1141 12.3442C9.96223 11.9583 10.1454 11.5195 10.5291 11.3641L16.4825 8.9513C16.8604 8.79447 17.2965 8.98443 17.4469 9.37173C17.6017 9.75828 17.4157 10.1971 17.0348 10.3525L11.0814 12.7646C10.992 12.8007 10.8968 12.8176 10.806 12.8176Z" fill="white"/>
<path d="M10.806 15.8335C10.5095 15.8335 10.2297 15.6538 10.1141 15.36C9.96223 14.9742 10.1454 14.5354 10.5291 14.38L13.5058 13.1732C13.8866 13.0164 14.3197 13.2063 14.4702 13.5944C14.625 13.9802 14.4389 14.419 14.0581 14.5744L11.0814 15.7804C10.992 15.8165 10.8968 15.8335 10.806 15.8335Z" fill="white"/>
<path d="M24.2012 93.4922C23.7891 93.4922 23.457 93.8301 23.457 94.2462V95.0001H24.9454V94.2462C24.9454 93.8301 24.6104 93.4922 24.2012 93.4922Z" fill="#CCD1D9"/>
<path d="M21.2245 93.4922C20.8124 93.4922 20.4803 93.8301 20.4803 94.2462V95.0001H21.9686V94.2462C21.9686 93.8301 21.6336 93.4922 21.2245 93.4922Z" fill="#CCD1D9"/>
<path d="M18.2478 93.4922C17.8357 93.4922 17.5036 93.8301 17.5036 94.2462V95.0001H18.992V94.2462C18.992 93.8301 18.6569 93.4922 18.2478 93.4922Z" fill="#CCD1D9"/>
<path d="M15.271 93.4922C14.859 93.4922 14.5269 93.8301 14.5269 94.2462V95.0001H16.0152V94.2462C16.0152 93.8301 15.6802 93.4922 15.271 93.4922Z" fill="#CCD1D9"/>
<path d="M12.2944 93.4922C11.8823 93.4922 11.5502 93.8301 11.5502 94.2462V95.0001H13.0385V94.2462C13.0385 93.8301 12.7035 93.4922 12.2944 93.4922Z" fill="#CCD1D9"/>
<path d="M9.31761 93.4922C8.90554 93.4922 8.57343 93.8301 8.57343 94.2462V95.0001H10.0618V94.2462C10.0618 93.8301 9.72676 93.4922 9.31761 93.4922Z" fill="#CCD1D9"/>
<path d="M6.34092 93.4922C5.92886 93.4922 5.59674 93.8301 5.59674 94.2462V95.0001H7.0851V94.2462C7.0851 93.8301 6.75008 93.4922 6.34092 93.4922Z" fill="#CCD1D9"/>
<path d="M3.36418 93.4922C2.95211 93.4922 2.62 93.8301 2.62 94.2462V95.0001H4.10836V94.2462C4.10836 93.8301 3.77333 93.4922 3.36418 93.4922Z" fill="#CCD1D9"/>
<path d="M37.4364 92.0617L34.9014 64.7521C34.847 64.1658 35.3083 63.6597 35.8971 63.6597H36.9357C37.464 63.6597 37.9012 64.0706 37.9338 64.5979L39.6333 92.0617H37.4364Z" fill="white" fill-opacity="0.1"/>
<path d="M50.5303 92.0617L53.0653 64.7521C53.1197 64.1658 52.6584 63.6597 52.0696 63.6597H51.031C50.5027 63.6597 50.0655 64.0706 50.0329 64.5979L48.3334 92.0617H50.5303Z" fill="white" fill-opacity="0.1"/>
<path d="M42.015 65.0148L42.4286 93H44.5714L44.985 65.0148C44.9932 64.4568 44.5432 64 43.9851 64H43.0149C42.4568 64 42.0068 64.4568 42.015 65.0148Z" fill="white" fill-opacity="0.1"/>
</g>
<defs>
<clipPath id="clip0">
<rect width="58" height="95" fill="white"/>
</clipPath>
</defs>
</svg>
