<svg width="100" height="100" viewBox="0 0 100 100" fill="none" xmlns="http://www.w3.org/2000/svg">
<g filter="url(#filter0_d)">
<path d="M49.5 95C74.629 95 95 74.629 95 49.5C95 24.371 74.629 4 49.5 4C24.371 4 4 24.371 4 49.5C4 74.629 24.371 95 49.5 95Z" fill="white"/>
<path d="M67.5344 8C81.0718 15.8832 90.1721 30.5506 90.1721 47.3451C90.1721 72.474 69.8011 92.8451 44.6721 92.8451C38.4047 92.8451 32.4333 91.5775 27 89.2852C33.718 93.1973 41.5278 95.4402 49.8623 95.4402C74.9913 95.4402 95.3623 75.0691 95.3623 49.9402C95.3623 31.0788 83.8855 14.8982 67.5344 8V8Z" fill="#DFF6FF" fill-opacity="0.41"/>
<path d="M49.5 91C72.4198 91 91 72.4198 91 49.5C91 26.5802 72.4198 8 49.5 8C26.5802 8 8 26.5802 8 49.5C8 72.4198 26.5802 91 49.5 91Z" fill="#C5D9DF"/>
<path d="M16.0027 28.8934C24.6983 16.1944 41.6823 5.96624 52.1888 11.3547C62.6953 16.7431 61.9767 26.8988 75.0453 28.8934C88.114 30.8879 96.2479 35.1157 89.4695 46.4731C82.6913 57.8301 73.9582 59.8936 71.8753 73.9955C69.7922 88.0973 50.8332 92.881 34.9041 83.9435C18.9749 75.006 27.1964 61.4589 18.9749 53.2892C10.7534 45.1196 12.2697 34.3452 16.0027 28.8934Z" fill="#F1F4F6"/>
<path d="M53.9099 88.3873C47.9159 88.8533 41.1746 87.4627 34.9048 83.9439C18.9743 75.0072 27.1954 61.46 18.9744 53.2884C10.7533 45.1192 12.2681 34.3458 16.0024 28.8931C23.5965 17.8032 37.5155 8.59482 47.9184 10.0353C38.298 11.2265 27.1026 19.3632 20.5769 28.8931C16.8451 34.3458 15.3278 45.1192 23.5488 53.2884C31.7723 61.46 23.5488 75.0072 39.4792 83.9439C44.1967 86.5905 49.1799 88.0334 53.9099 88.3873V88.3873Z" fill="#DFEAEF"/>
<path d="M50.0258 74.2021C59.1876 74.2021 66.6148 66.8218 66.6148 57.7177C66.6148 48.6137 59.1876 41.2334 50.0258 41.2334C40.8639 41.2334 33.4368 48.6137 33.4368 57.7177C33.4368 66.8218 40.8639 74.2021 50.0258 74.2021Z" fill="#FFB710"/>
<path d="M54.8666 73.4903C53.3343 73.9538 51.7091 74.203 50.0263 74.203C40.8648 74.203 33.4363 66.8239 33.4363 57.7177C33.4363 48.614 40.8648 41.2349 50.0263 41.2349C51.7091 41.2349 53.3343 41.4841 54.8666 41.9476C48.0651 44.0061 43.1169 50.2862 43.1169 57.7177C43.1169 65.1492 48.0651 71.4318 54.8666 73.4903Z" fill="#FFA400"/>
<path d="M60.2864 63.795C62.1364 63.795 63.6362 60.9232 63.6362 57.3808C63.6362 53.8383 62.1364 50.9666 60.2864 50.9666C58.4363 50.9666 56.9365 53.8383 56.9365 57.3808C56.9365 60.9232 58.4363 63.795 60.2864 63.795Z" fill="#FFE857"/>
</g>
<defs>
<filter id="filter0_d" x="-1" y="-1" width="101" height="101" filterUnits="userSpaceOnUse" color-interpolation-filters="sRGB">
<feFlood flood-opacity="0" result="BackgroundImageFix"/>
<feColorMatrix in="SourceAlpha" type="matrix" values="0 0 0 0 0 0 0 0 0 0 0 0 0 0 0 0 0 0 127 0"/>
<feOffset/>
<feGaussianBlur stdDeviation="2"/>
<feColorMatrix type="matrix" values="0 0 0 0 0 0 0 0 0 0.424 0 0 0 0 0.6625 0 0 0 0.25 0"/>
<feBlend mode="normal" in2="BackgroundImageFix" result="effect1_dropShadow"/>
<feBlend mode="normal" in="SourceGraphic" in2="effect1_dropShadow" result="shape"/>
</filter>
</defs>
</svg>
