<svg width="99" height="99" viewBox="0 0 99 99" fill="none" xmlns="http://www.w3.org/2000/svg">
<g filter="url(#filter0_d)">
<path d="M49.5 95C74.629 95 95 74.629 95 49.5C95 24.371 74.629 4 49.5 4C24.371 4 4 24.371 4 49.5C4 74.629 24.371 95 49.5 95Z" fill="white"/>
<path d="M49.5 91C72.4198 91 91 72.4198 91 49.5C91 26.5802 72.4198 8 49.5 8C26.5802 8 8 26.5802 8 49.5C8 72.4198 26.5802 91 49.5 91Z" fill="#C5D9DF"/>
<path d="M81.616 31.2983C83.5184 42.7016 69.535 46.4224 69.4902 62.2877C69.4584 72.765 75.5391 77.8879 71.822 85.3538C69.8635 89.2893 65.7693 92.7581 61.0945 93.742C52.1687 95.6201 49.0975 86.7876 34.0406 82.0922C21.9596 78.3248 16.8218 81.7898 10.4854 76.034C7.11555 72.9722 4.50556 67.9744 4.19005 62.7526C3.66731 54.1254 9.16732 52.4265 9.32041 42.4832C9.43803 34.7951 6.07006 32.635 8.15357 27.3385C9.58739 23.6924 13.0226 20.0387 17.2493 19.1837C22.8931 18.0393 25.0457 22.8802 31.2421 23.8436C41.5457 25.4436 45.3394 13.5922 56.429 12.6587C66.9941 11.7701 79.9376 21.2336 81.616 31.2983Z" fill="#CBE3FA"/>
<path d="M70.8418 16.8252C77.6489 21.231 77.4019 31.3476 70.3002 35.2607C63.7786 38.8542 59.6995 45.6006 51.7673 44.3689C45.5709 43.4056 43.4183 38.5646 37.7745 39.7091C33.5478 40.5641 30.1126 44.2177 28.6788 47.8639C26.5952 53.1604 29.9632 55.3204 29.8456 63.0085C29.7778 67.4253 28.6549 70.2151 27.4733 72.7079C24.4658 79.0532 16.0608 81.0994 10.4854 76.0342C7.11555 72.9724 4.50556 67.9746 4.19005 62.7528C3.66731 54.1256 9.16732 52.4267 9.32041 42.4833C9.43803 34.7953 6.07006 32.6352 8.15357 27.3387C9.58739 23.6925 13.0226 20.0389 17.2493 19.1839C22.8931 18.0394 25.0457 22.8804 31.2421 23.8438C41.5457 25.4437 45.3394 13.5924 56.429 12.6589C61.1959 12.2577 66.3972 13.9484 70.8418 16.8252Z" fill="#EEF7FF"/>
<path d="M35.749 66.7142C44.5617 66.7142 51.7058 59.5701 51.7058 50.7575C51.7058 41.9448 44.5617 34.8007 35.749 34.8007C26.9363 34.8007 19.7922 41.9448 19.7922 50.7575C19.7922 59.5701 26.9363 66.7142 35.749 66.7142Z" fill="#FFC700"/>
<path d="M89.1997 40.0449C86.9855 36.662 87.034 32.3382 89.2016 29.0299C91.4176 25.647 91.3672 21.3232 89.2016 18.015C87.4731 15.3785 87.1434 11.9289 88.2126 8.98232C88.5629 8.01711 87.8288 7 86.802 7C82.5829 7 70.8273 7 66.6011 7C66.0453 7 65.5334 7.30749 65.2763 7.80017C63.6143 10.9844 63.7939 15.0372 65.7455 18.015C67.9615 21.3979 67.913 25.7217 65.7455 29.0299C63.5294 32.4128 63.5779 36.7367 65.7455 40.0449C67.9615 43.4278 67.913 47.7517 65.7455 51.0599C63.5294 54.4428 63.5779 58.7666 65.7455 62.0749C67.9615 65.4578 67.913 69.7816 65.7455 73.0898C63.7812 76.0885 63.625 80.1394 65.2769 83.3054C65.5337 83.7979 66.0455 84.1048 66.6009 84.1048H86.8014C87.8275 84.1048 88.5631 83.0886 88.2128 82.124C87.1378 79.163 87.4845 75.7101 89.2018 73.0898C91.4178 69.7069 91.3674 65.3831 89.1999 62.0749C86.9857 58.692 87.0342 54.3681 89.2018 51.0599C91.4176 47.677 91.3672 43.3531 89.1997 40.0449Z" fill="#FF98A0"/>
<path d="M89.2017 18.015C91.3673 21.3232 91.4177 25.647 89.2017 29.0299C87.0341 32.3382 86.9856 36.662 89.1998 40.0449C91.3673 43.3531 91.4177 47.677 89.2017 51.0599C87.0341 54.3681 86.9856 58.692 89.1998 62.0749C91.3673 65.3831 91.4177 69.7069 89.2017 73.0899C87.4844 75.7103 87.1378 79.163 88.2127 82.124C88.563 83.0885 87.8274 84.1048 86.8013 84.1048C77.4969 84.1048 77.9235 84.1121 77.9235 84.0918C75.7746 80.8097 75.8045 76.3085 77.9235 73.0749C80.0742 69.7947 80.0424 65.2935 77.9235 62.0581C75.7746 58.7779 75.8045 54.2766 77.9235 51.0431C80.0742 47.761 80.0424 43.2598 77.9235 40.0263C75.7746 36.746 75.8045 32.2448 77.9235 29.0094C80.0742 25.7292 80.0424 21.228 77.9235 17.9944C75.7951 14.7441 75.7895 10.256 77.9085 7H86.8021C87.8289 7 88.563 8.01711 88.2127 8.98232C87.1435 11.9289 87.4732 15.3785 89.2017 18.015Z" fill="#C8313D"/>
<path d="M77.9233 73.0749C75.8044 76.3085 75.7745 80.8097 77.9233 84.0917C77.9233 84.1119 78.4636 84.1048 66.6007 84.1048C66.0462 84.1048 65.5343 83.7966 65.2766 83.3054C63.6244 80.139 63.7812 76.0882 65.7452 73.0898C67.9128 69.7816 67.9613 65.4578 65.7452 62.0749C64.7199 60.5098 64.1682 58.7164 64.1076 56.9031C64.0805 56.0952 64.69 55.4089 65.4964 55.3527C68.7161 55.1282 72.9446 54.3726 77.24 52.2827C75.8305 55.3595 76.0377 59.1792 77.9233 62.0581C80.0423 65.2935 80.0741 69.7947 77.9233 73.0749Z" fill="#FF8893"/>
<path d="M89.2017 73.0898C87.4841 75.711 87.1392 79.163 88.2127 82.124C88.5637 83.0892 87.8281 84.1048 86.8013 84.1048C77.5013 84.1048 77.9235 84.1121 77.9235 84.0917C75.7746 80.8096 75.8045 76.3084 77.9235 73.0749C80.0742 69.7947 80.0424 65.2935 77.9235 62.0581C76.0378 59.1792 75.8306 55.3595 77.2402 52.2827C81.5267 50.2007 85.2411 47.0717 87.9979 43.2109C88.768 42.1323 90.4585 42.4966 90.6896 43.8016C91.1291 46.2824 90.6288 48.8802 89.2015 51.0601C87.034 54.3683 86.9854 58.6921 89.1996 62.075C91.3673 65.3831 91.4177 69.7069 89.2017 73.0898Z" fill="#A31E28"/>
<path d="M35.8835 34.8012C38.495 34.8229 39.0136 38.4828 36.5269 39.2808C29.5992 41.5036 24.7814 48.1758 25.4538 55.8947C25.6822 58.5155 22.0932 59.4258 21.062 57.0055C16.5926 46.5146 24.3322 34.7058 35.8835 34.8012Z" fill="#FFEC41"/>
<path d="M23.619 48.3205C22.7096 48.4415 21.9088 47.7248 21.9271 46.8104C21.9875 43.7765 23.652 40.9337 26.2706 39.3912C26.9812 38.972 27.897 39.2094 28.3155 39.92C28.7341 40.6307 28.4973 41.5465 27.7866 41.9649C26.0543 42.9852 24.9535 44.8647 24.9136 46.8698C24.8988 47.617 24.3376 48.225 23.619 48.3205Z" fill="white"/>
</g>
<defs>
<filter id="filter0_d" x="0" y="0" width="99" height="99" filterUnits="userSpaceOnUse" color-interpolation-filters="sRGB">
<feFlood flood-opacity="0" result="BackgroundImageFix"/>
<feColorMatrix in="SourceAlpha" type="matrix" values="0 0 0 0 0 0 0 0 0 0 0 0 0 0 0 0 0 0 127 0"/>
<feOffset/>
<feGaussianBlur stdDeviation="2"/>
<feColorMatrix type="matrix" values="0 0 0 0 0.0239583 0 0 0 0 0.0359375 0 0 0 0 0.05 0 0 0 0.25 0"/>
<feBlend mode="normal" in2="BackgroundImageFix" result="effect1_dropShadow"/>
<feBlend mode="normal" in="SourceGraphic" in2="effect1_dropShadow" result="shape"/>
</filter>
</defs>
</svg>
