<svg width="73" height="73" viewBox="0 0 73 73" fill="none" xmlns="http://www.w3.org/2000/svg">
<g clip-path="url(#clip0)">
<path d="M56.0314 0H16.9685C10.6336 0 5.49805 5.13552 5.49805 11.4704V20.0548H67.502V11.4704C67.5018 5.13552 62.3665 0 56.0314 0V0Z" fill="#A66235"/>
<path d="M69.8842 15.7774H3.11572C1.93461 15.7774 0.977051 16.735 0.977051 17.9161V29.6092L2.40283 31.5973L0.977051 33.8867V70.8613C0.977051 72.0424 1.93461 73 3.11572 73H69.8842C71.0653 73 72.0229 72.0424 72.0229 70.8613V33.8865L70.4545 31.6938L72.0229 29.6092V17.9161C72.0229 16.735 71.0653 15.7774 69.8842 15.7774V15.7774Z" fill="#F2F7FE"/>
<path d="M72.0229 29.6092H0.977051V33.8866H13.0476V73H17.3249V33.8866H27.2566V73H31.534V33.8866H41.466V73H45.7433V33.8866H55.675V73H59.9523V33.8866H72.0229V29.6092Z" fill="#E0ECFD"/>
<path d="M56.0315 0H36.5V15.7773L39.3516 20.0548H67.5019V11.4704C67.5019 5.13552 62.3665 0 56.0315 0V0Z" fill="#854D28"/>
<path d="M69.8842 15.7774H36.5V29.6092L39.3516 31.7781L36.5 33.8867V73H69.8842C71.0654 73 72.0229 72.0424 72.0229 70.8613V33.8865L70.4545 31.6938L72.0229 29.6092V17.9162C72.0229 16.735 71.0654 15.7774 69.8842 15.7774V15.7774Z" fill="#E0ECFD"/>
<path d="M36.5 33.8866H41.466V73H45.7433V33.8866H55.675V73H59.9524V33.8866H72.0229V29.6092H36.5V33.8866Z" fill="#CAE4FD"/>
</g>
<defs>
<clipPath id="clip0">
<rect width="73" height="73" fill="white"/>
</clipPath>
</defs>
</svg>
