<svg width="100" height="47" viewBox="0 0 100 47" fill="none" xmlns="http://www.w3.org/2000/svg">
<path d="M0.0654467 26.7384V34.8647C0.0622247 36.5557 0.517535 38.2159 1.38292 39.6687C2.24831 41.1215 3.4914 42.3125 4.97989 43.1149C9.26406 45.4097 16.6189 47.7583 28.069 46.7666C48.7543 44.9743 61.8974 40.9418 70.8585 41.0912C79.8197 41.2405 91.5438 40.6058 96.5471 36.3492C101.282 32.3212 99.296 25.0985 99.7836 21.3662C99.8345 20.9765 99.7573 20.5807 99.5636 20.2387C99.3699 19.8967 99.0702 19.6269 98.7097 19.4702C90.1578 15.7461 40.0792 -5.0983 24.1829 10.2499C11.5977 22.4027 4.59904 24.6333 1.69115 24.9365C1.24525 24.9825 0.832251 25.1922 0.531977 25.525C0.231702 25.8578 0.0654814 26.2901 0.0654467 26.7384V26.7384Z" fill="url(#paint0_linear)"/>
<path d="M5.33 11.6561C5.33 11.6561 24.4471 -1.97085 43.5642 0.243298C50.6585 1.06474 56.1151 1.83614 60.1752 2.48358C64.7808 3.22404 69.2248 4.75076 73.313 6.99702C75.0306 7.93794 77.4658 8.8333 80.753 9.12977C88.594 9.83621 97.9285 13.2698 99.1234 17.7922C100.318 22.3146 102.185 27.3903 85.9803 29.4163C69.7756 31.4423 15.8967 37.7113 5.14331 31.4953C-5.61006 25.2793 3.83648 20.5127 3.83648 20.5127C3.83648 20.5127 4.88195 18.5808 4.20986 16.9797C3.53778 15.3787 5.33 11.6561 5.33 11.6561Z" fill="url(#paint1_linear)"/>
<path d="M7.64481 19.2111C7.64481 19.2111 4.73244 14.7305 8.69028 12.4155C12.6481 10.1006 21.3852 4.72387 35.7978 3.37969C50.2103 2.03552 60.6649 5.76933 60.6649 5.76933C60.6649 5.76933 62.8305 6.21739 69.2527 7.41221C75.6749 8.60703 71.1943 11.5194 71.1943 11.5194C71.1943 11.5194 55.2882 16.5227 49.4635 17.1948C43.6388 17.8669 31.3919 20.3312 29.0769 21.0033C26.7619 21.6754 21.0865 19.8085 18.7716 19.7338C16.4566 19.6591 10.4078 23.2436 7.64481 19.2111Z" fill="url(#paint2_linear)"/>
<path d="M93.4479 15.7012C93.1492 13.461 87.7725 13.461 84.7855 12.4902C81.7984 11.5194 80.0062 11.4447 77.9899 12.5648C75.9737 13.685 71.4184 14.2077 69.2528 14.7305C67.0872 15.2532 58.6488 17.7175 58.126 19.5097C57.7527 20.786 59.5038 24.8297 60.5411 27.052C61.0598 28.1759 61.998 29.0519 63.1547 29.4925C63.4348 29.5977 63.6909 29.6679 63.8776 29.6679C64.6244 29.6679 80.8291 27.2783 85.6084 26.4569C90.3877 25.6354 92.9267 24.814 95.3163 23.0964C97.7059 21.3789 93.7466 17.9415 93.4479 15.7012Z" fill="url(#paint3_linear)"/>
<path d="M54.5788 20.3685C52.4879 20.2938 34.4909 22.9075 29.2636 23.8036C24.0362 24.6997 22.0946 22.6835 19.8544 22.4594C17.6141 22.2354 13.6562 22.6835 11.7147 22.5341C9.77307 22.3848 6.26329 23.5049 6.26329 23.5049C6.26329 23.5049 5.14314 23.5796 4.54573 24.8491C3.94832 26.1186 6.56199 30.1511 10.6692 30.5992C14.7764 31.0472 41.5105 32.018 48.306 31.0472C55.1015 30.0764 56.4457 24.9238 56.4457 24.2517C56.4457 23.5796 56.6697 20.4432 54.5788 20.3685Z" fill="url(#paint4_linear)"/>
<defs>
<linearGradient id="paint0_linear" x1="0.0654467" y1="25.8401" x2="99.7985" y2="25.8401" gradientUnits="userSpaceOnUse">
<stop stop-color="#823634"/>
<stop offset="1" stop-color="#6D2F3D"/>
</linearGradient>
<linearGradient id="paint1_linear" x1="0.000362069" y1="17.088" x2="99.8753" y2="17.088" gradientUnits="userSpaceOnUse">
<stop stop-color="#D67D52"/>
<stop offset="0.5" stop-color="#B44A32"/>
<stop offset="1" stop-color="#D67D52"/>
</linearGradient>
<linearGradient id="paint2_linear" x1="6.61279" y1="12.1183" x2="72.7147" y2="12.1183" gradientUnits="userSpaceOnUse">
<stop stop-color="#A65252"/>
<stop offset="1" stop-color="#913031"/>
</linearGradient>
<linearGradient id="paint3_linear" x1="58.0753" y1="20.7046" x2="96.0787" y2="20.7046" gradientUnits="userSpaceOnUse">
<stop stop-color="#8E2C2E"/>
<stop offset="1" stop-color="#A65252"/>
</linearGradient>
<linearGradient id="paint4_linear" x1="3110.45" y1="3871.39" x2="39308.7" y2="3871.39" gradientUnits="userSpaceOnUse">
<stop stop-color="#9F4242"/>
<stop offset="0.0885417" stop-color="#E60003"/>
</linearGradient>
</defs>
</svg>
