<svg width="89" height="90" viewBox="0 0 89 90" fill="none" xmlns="http://www.w3.org/2000/svg">
<g clip-path="url(#clip0)">
<path d="M87.978 45.4837C87.978 21.1742 68.5024 1.46742 44.478 1.46742C20.4536 1.46742 0.978024 21.1742 0.978025 45.4837C0.978026 69.7933 20.4536 89.5 44.478 89.5C68.5024 89.5 87.978 69.7933 87.978 45.4837Z" fill="#4D4D4D"/>
<path d="M84.6319 45.4837C84.6319 23.0442 66.6544 4.8533 44.4781 4.8533C22.3017 4.8533 4.32422 23.0442 4.32422 45.4837C4.32422 67.9233 22.3017 86.1142 44.4781 86.1142C66.6544 86.1142 84.6319 67.9233 84.6319 45.4837Z" fill="#373737"/>
<path d="M48.3262 8.44231C47.585 8.36543 46.837 8.49115 46.1602 8.80636C45.4833 9.12158 44.9025 9.61475 44.4781 10.2345C44.0551 9.61358 43.4745 9.11954 42.7975 8.80431C42.1204 8.48909 41.3719 8.36435 40.6307 8.44319C39.8895 8.52204 39.183 8.80157 38.5855 9.25237C37.9881 9.70318 37.5217 10.3086 37.2356 11.0049C36.6942 10.4865 36.0248 10.1253 35.2977 9.95936C34.5707 9.7934 33.8128 9.8288 33.104 10.0618C32.3951 10.2949 31.7614 10.7169 31.2695 11.2836C30.7777 11.8502 30.4459 12.5405 30.309 13.2819C29.673 12.8887 28.9439 12.6762 28.1986 12.6668C27.4533 12.6574 26.7193 12.8514 26.0738 13.2285C25.4282 13.6056 24.8951 14.1518 24.5304 14.8095C24.1657 15.4673 23.983 16.2124 24.0015 16.9664C23.2986 16.7157 22.5419 16.6613 21.811 16.809C21.0801 16.9566 20.4021 17.3009 19.8482 17.8055C19.2944 18.3102 18.8851 18.9565 18.6636 19.6766C18.4421 20.3967 18.4165 21.1639 18.5894 21.8974C17.8504 21.8 17.099 21.906 16.4144 22.2042C15.7298 22.5024 15.1373 22.9818 14.6992 23.5919C14.2612 24.2021 13.9937 24.9204 13.925 25.6713C13.8562 26.4223 13.9888 27.1781 14.3087 27.8593C13.5659 27.9197 12.8529 28.1815 12.2446 28.6172C11.6364 29.053 11.1555 29.6465 10.8525 30.3354C10.5494 31.0244 10.4354 31.7832 10.5225 32.5321C10.6096 33.281 10.8946 33.9923 11.3474 34.5912C10.6331 34.8064 9.98933 35.2125 9.48382 35.7666C8.97832 36.3207 8.62976 37.0025 8.4748 37.7401C8.31985 38.4778 8.36423 39.244 8.60328 39.9583C8.84233 40.6726 9.26722 41.3085 9.83323 41.7991C9.17876 42.1599 8.63249 42.6925 8.25188 43.3409C7.87128 43.9893 7.67041 44.7296 7.67041 45.4837C7.67041 46.2379 7.87128 46.9781 8.25188 47.6265C8.63249 48.2749 9.17876 48.8076 9.83323 49.1684C9.26722 49.659 8.84233 50.2949 8.60328 51.0091C8.36423 51.7234 8.31985 52.4897 8.4748 53.2273C8.62976 53.965 8.97832 54.6467 9.48383 55.2009C9.98933 55.755 10.6331 56.161 11.3474 56.3762C10.8946 56.9752 10.6096 57.6865 10.5225 58.4354C10.4354 59.1843 10.5494 59.9431 10.8525 60.632C11.1555 61.3209 11.6364 61.9145 12.2446 62.3502C12.8529 62.786 13.5659 63.0478 14.3087 63.1082C13.9888 63.7894 13.8562 64.5452 13.925 65.2961C13.9937 66.0471 14.2612 66.7654 14.6992 67.3755C15.1373 67.9857 15.7298 68.4651 16.4144 68.7632C17.099 69.0614 17.8504 69.1674 18.5894 69.07C18.4165 69.8036 18.4421 70.5708 18.6636 71.2909C18.8851 72.0109 19.2943 72.6573 19.8482 73.1619C20.4021 73.6665 21.0801 74.0108 21.811 74.1584C22.5419 74.3061 23.2986 74.2516 24.0015 74.0009C23.983 74.7549 24.1657 75.5 24.5304 76.1577C24.8951 76.8155 25.4282 77.3617 26.0738 77.7388C26.7193 78.1159 27.4533 78.3099 28.1986 78.3005C28.9439 78.2911 29.673 78.0786 30.309 77.6854C30.4458 78.4268 30.7776 79.1171 31.2694 79.6838C31.7613 80.2505 32.395 80.6726 33.1038 80.9057C33.8127 81.1388 34.5706 81.1742 35.2977 81.0082C36.0247 80.8423 36.6942 80.4811 37.2356 79.9627C37.5217 80.659 37.9881 81.2644 38.5856 81.7152C39.1831 82.166 39.8896 82.4455 40.6308 82.5243C41.372 82.6032 42.1205 82.4784 42.7975 82.1632C43.4746 81.8479 44.0551 81.3539 44.4781 80.733C44.9012 81.3539 45.4818 81.8479 46.1589 82.1631C46.8359 82.4784 47.5844 82.6031 48.3257 82.5243C49.0669 82.4455 49.7734 82.166 50.3709 81.7152C50.9684 81.2644 51.4348 80.659 51.7211 79.9627C52.2624 80.4811 52.9319 80.8422 53.6589 81.0081C54.386 81.174 55.1438 81.1386 55.8527 80.9056C56.5615 80.6725 57.1952 80.2505 57.687 79.6838C58.1789 79.1172 58.5107 78.4269 58.6476 77.6856C59.2837 78.0787 60.0127 78.2912 60.758 78.3006C61.5033 78.3099 62.2373 78.1158 62.8828 77.7388C63.5284 77.3617 64.0615 76.8155 64.4262 76.1577C64.7908 75.4999 64.9736 74.7549 64.9551 74.0009C65.658 74.2516 66.4147 74.3061 67.1456 74.1584C67.8765 74.0108 68.5545 73.6665 69.1084 73.1619C69.6623 72.6573 70.0715 72.0109 70.293 71.2909C70.5145 70.5708 70.5401 69.8036 70.3672 69.07C71.1062 69.1674 71.8576 69.0614 72.5421 68.7632C73.2267 68.465 73.8192 67.9856 74.2572 67.3755C74.6953 66.7653 74.9628 66.047 75.0315 65.2961C75.1002 64.5451 74.9676 63.7893 74.6477 63.1082C75.3906 63.0479 76.1038 62.7862 76.7121 62.3505C77.3204 61.9148 77.8015 61.3213 78.1046 60.6324C78.4077 59.9434 78.5218 59.1845 78.4347 58.4356C78.3477 57.6866 78.0627 56.9752 77.6099 56.3762C78.3242 56.161 78.9679 55.755 79.4735 55.2009C79.979 54.6467 80.3275 53.965 80.4825 53.2273C80.6374 52.4897 80.593 51.7234 80.354 51.0091C80.1149 50.2949 79.6901 49.659 79.124 49.1684C79.7785 48.8076 80.3248 48.2749 80.7054 47.6265C81.086 46.9781 81.2869 46.2379 81.2869 45.4837C81.2869 44.7296 81.086 43.9893 80.7054 43.3409C80.3248 42.6925 79.7785 42.1599 79.124 41.7991C79.6901 41.3085 80.1149 40.6726 80.354 39.9583C80.593 39.244 80.6374 38.4777 80.4824 37.7401C80.3274 37.0024 79.9789 36.3207 79.4733 35.7666C78.9678 35.2124 78.324 34.8064 77.6097 34.5912C78.0626 33.9923 78.3476 33.281 78.4347 32.5321C78.5218 31.7831 78.4079 31.0243 78.1048 30.3354C77.8018 29.6464 77.3208 29.0529 76.7126 28.6171C76.1043 28.1814 75.3913 27.9196 74.6484 27.8593C74.9683 27.1781 75.1009 26.4223 75.0321 25.6714C74.9634 24.9204 74.696 24.2021 74.2579 23.592C73.8198 22.9819 73.2274 22.5025 72.5428 22.2043C71.8582 21.9061 71.1069 21.8001 70.3678 21.8974C70.5408 21.1639 70.5152 20.3967 70.2936 19.6766C70.0721 18.9565 69.6629 18.3102 69.109 17.8055C68.5552 17.3009 67.8771 16.9566 67.1463 16.809C66.4154 16.6613 65.6587 16.7157 64.9558 16.9664C64.9742 16.2124 64.7915 15.4673 64.4269 14.8095C64.0622 14.1518 63.5291 13.6056 62.8835 13.2285C62.238 12.8514 61.504 12.6574 60.7586 12.6668C60.0133 12.6762 59.2843 12.8887 58.6483 13.2819C58.5114 12.5405 58.1796 11.8502 57.6877 11.2836C57.1959 10.7169 56.5622 10.2949 55.8533 10.0618C55.1445 9.82879 54.3866 9.7934 53.6596 9.95936C52.9325 10.1253 52.2631 10.4865 51.7217 11.0049C51.434 10.3095 50.9672 9.70487 50.37 9.25414C49.7728 8.80341 49.067 8.52305 48.3262 8.44231Z" fill="#F5FCFC"/>
<path d="M52.8435 69.1848C52.8435 68.2498 52.0944 67.4919 51.1704 67.4919C50.2464 67.4919 49.4973 68.2498 49.4973 69.1848C49.4973 70.1198 50.2464 70.8777 51.1704 70.8777C52.0944 70.8777 52.8435 70.1198 52.8435 69.1848Z" fill="#DCEDED"/>
<path d="M22.728 40.4049C22.728 39.4699 21.9789 38.712 21.0549 38.712C20.1309 38.712 19.3818 39.4699 19.3818 40.4049C19.3818 41.3399 20.1309 42.0978 21.0549 42.0978C21.9789 42.0978 22.728 41.3399 22.728 40.4049Z" fill="#DCEDED"/>
<path d="M41.1318 50.5625C41.1318 49.6275 40.3827 48.8696 39.4587 48.8696C38.5347 48.8696 37.7856 49.6275 37.7856 50.5625C37.7856 51.4975 38.5347 52.2555 39.4587 52.2555C40.3827 52.2555 41.1318 51.4975 41.1318 50.5625Z" fill="#DCEDED"/>
<path d="M39.4587 70.8777C39.4587 69.9428 38.7096 69.1848 37.7856 69.1848C36.8616 69.1848 36.1125 69.9428 36.1125 70.8777C36.1125 71.8127 36.8616 72.5707 37.7856 72.5707C38.7096 72.5707 39.4587 71.8127 39.4587 70.8777Z" fill="#DCEDED"/>
<path d="M24.4011 59.0272C24.4011 58.0922 23.652 57.3343 22.728 57.3343C21.804 57.3343 21.0549 58.0922 21.0549 59.0272C21.0549 59.9622 21.804 60.7201 22.728 60.7201C23.652 60.7201 24.4011 59.9622 24.4011 59.0272Z" fill="#DCEDED"/>
<path d="M34.4394 18.3968C34.4394 17.4618 33.6904 16.7038 32.7663 16.7038C31.8423 16.7038 31.0933 17.4618 31.0933 18.3968C31.0933 19.3317 31.8423 20.0897 32.7663 20.0897C33.6904 20.0897 34.4394 19.3317 34.4394 18.3968Z" fill="#DCEDED"/>
<path d="M80.22 40.8727C80.5264 43.9384 80.5264 47.0275 80.22 50.0932C80.0261 52.0389 79.2525 53.8791 78.0016 55.3698C76.7507 56.8605 75.0816 57.9313 73.2156 58.4403C67.5506 60.0407 61.5606 60.0407 55.8956 58.4403C54.0296 57.9313 52.3605 56.8605 51.1096 55.3698C49.8587 53.8791 49.085 52.039 48.8913 50.0932C48.5847 47.0275 48.5847 43.9384 48.8913 40.8727C49.0852 38.9271 49.859 37.0871 51.1099 35.5966C52.3608 34.106 54.0298 33.0354 55.8958 32.5265C61.5607 30.9262 67.5507 30.9262 73.2156 32.5265C75.0815 33.0355 76.7505 34.1061 78.0014 35.5967C79.2522 37.0872 80.026 38.9271 80.22 40.8727Z" fill="#C47940"/>
<path d="M65.3915 31.0938L65.3915 35.832C65.396 37.7778 64.9657 39.6995 64.1328 41.4533C63.2998 43.2071 62.0858 44.7477 60.5814 45.9598C59.4694 46.8549 58.5719 47.993 57.9562 49.2889C57.3405 50.5847 57.0226 52.0047 57.0261 53.4425L57.0261 58.1807L53.68 58.1807L53.68 53.4425C53.6754 51.4967 54.1057 49.575 54.9387 47.8212C55.7717 46.0674 56.9857 44.5268 58.4901 43.3147C59.6021 42.4196 60.4995 41.2815 61.1152 39.9856C61.7309 38.6898 62.0489 37.2698 62.0453 35.832L62.0453 31.0938L65.3915 31.0938Z" fill="#DFAC84"/>
<path d="M75.4298 32.7867L75.4298 37.5249C75.4344 39.4707 75.0041 41.3924 74.1711 43.1462C73.3381 44.9 72.1241 46.4406 70.6197 47.6527C69.5077 48.5478 68.6103 49.6859 67.9946 50.9818C67.3789 52.2776 67.0609 53.6976 67.0644 55.1355L67.0644 59.8737L63.7183 59.8737L63.7183 55.1355C63.7138 53.1896 64.1441 51.268 64.977 49.5141C65.81 47.7603 67.024 46.2197 68.5284 45.0077C69.6404 44.1125 70.5379 42.9744 71.1536 41.6786C71.7693 40.3827 72.0872 38.9627 72.0837 37.5249L72.0837 32.7867L75.4298 32.7867Z" fill="#DFAC84"/>
<path d="M82.1222 45.4829C82.1226 47.0797 82.0435 48.6754 81.8853 50.2641C81.6513 52.5497 80.7393 54.7102 79.2692 56.4615C77.7991 58.2129 75.8397 59.4732 73.6486 60.0769C67.7004 61.7549 61.4119 61.7549 55.4638 60.0769C53.2727 59.4731 51.3134 58.2128 49.8431 56.4616C48.3729 54.7105 47.4604 52.5503 47.2257 50.2648C46.9088 47.086 46.9088 43.8829 47.2257 40.7041C47.4597 38.4182 48.3718 36.2574 49.8421 34.5059C51.3125 32.7544 53.2723 31.4941 55.4638 30.8907C61.4114 29.2126 67.6993 29.2126 73.6469 30.8907C75.8385 31.4935 77.7984 32.7534 79.2688 34.5048C80.7392 36.2562 81.6513 38.4169 81.885 40.7027C82.0433 42.2911 82.1225 43.8865 82.1222 45.4829ZM50.3353 45.4829C50.3352 46.966 50.4089 48.4481 50.556 49.9237C50.7197 51.5261 51.3587 53.041 52.3888 54.2693C53.419 55.4976 54.7922 56.3819 56.3281 56.8061C61.7109 58.3238 67.4014 58.3238 72.7843 56.8061C74.3201 56.3819 75.6931 55.4976 76.7231 54.2692C77.753 53.0409 78.3916 51.526 78.5551 49.9237C78.8492 46.9712 78.8492 43.9963 78.5551 41.0439C78.3921 39.4413 77.7537 37.9262 76.7237 36.6978C75.6937 35.4693 74.3203 34.5851 72.7843 34.1614C67.4008 32.6437 61.7098 32.6437 56.3264 34.1614C54.7905 34.5854 53.4173 35.4697 52.3874 36.6981C51.3574 37.9265 50.7188 39.4414 50.5556 41.0439C50.4085 42.5189 50.3349 44.0004 50.3349 45.4829L50.3353 45.4829Z" fill="#A25820"/>
<path d="M71.1426 20.9627C73.1313 23.2961 74.8823 25.8266 76.3691 28.5157C77.3132 30.222 77.7226 32.1784 77.5429 34.1254C77.3632 36.0725 76.6029 37.9183 75.3629 39.4182C71.6296 44.0171 66.7229 47.4936 61.1752 49.4705C59.3582 50.1367 57.3839 50.2282 55.5143 49.7332C53.6446 49.2381 51.9678 48.1797 50.7061 46.6984C48.7173 44.3649 46.9662 41.8345 45.4794 39.1453C44.5353 37.439 44.126 35.4827 44.3057 33.5356C44.4854 31.5886 45.2456 29.7428 46.4856 28.2428C50.219 23.6441 55.1257 20.1677 60.6733 18.1907C62.4904 17.5245 64.4646 17.4329 66.3343 17.9279C68.204 18.423 69.8808 19.4813 71.1426 20.9627Z" fill="#C47940"/>
<path d="M53.4524 21.5583L56.1382 25.4393C57.2451 27.0307 57.982 28.8548 58.2939 30.775C58.6057 32.6952 58.4845 34.662 57.9391 36.5281C57.5355 37.9067 57.4454 39.3599 57.6756 40.7787C57.9058 42.1976 58.4502 43.5453 59.2682 44.721L61.9542 48.6023L59.2132 50.5439L56.5272 46.6625C55.4204 45.0711 54.6835 43.2471 54.3716 41.3268C54.0598 39.4066 54.1811 37.4399 54.7265 35.5738C55.1302 34.195 55.2203 32.7417 54.9901 31.3227C54.7599 29.9037 54.2154 28.5558 53.3972 27.38L50.7114 23.4987L53.4524 21.5583Z" fill="#DFAC84"/>
<path d="M62.6351 17.1188L65.3208 21.0002C66.4277 22.5916 67.1646 24.4156 67.4764 26.3359C67.7882 28.2561 67.6669 30.2228 67.1216 32.0889C66.7181 33.4675 66.6281 34.9207 66.8583 36.3395C67.0885 37.7583 67.6329 39.106 68.4508 40.2817L71.1368 44.1623L68.3956 46.1044L65.7093 42.223C64.6026 40.6317 63.8658 38.8078 63.554 36.8878C63.2421 34.9677 63.3634 33.0011 63.9086 31.1351C64.3123 29.7564 64.4025 28.3031 64.1723 26.884C63.9421 25.465 63.3975 24.1171 62.5793 22.9413L59.8936 19.0601L62.6351 17.1188Z" fill="#DFAC84"/>
<path d="M75.3127 23.6353C76.2182 24.9431 77.058 26.2962 77.829 27.6894C78.9327 29.6974 79.4102 31.9963 79.1988 34.284C78.9873 36.5716 78.0967 38.7411 76.6442 40.5071C72.7229 45.334 67.5716 48.9837 61.7479 51.0614C59.6109 51.8384 57.2915 51.9432 55.0945 51.362C52.8975 50.7808 50.9256 49.5409 49.4378 47.805C47.3762 45.385 45.5606 42.7611 44.0183 39.9731C42.9146 37.9649 42.4372 35.6657 42.6489 33.3778C42.8606 31.0899 43.7515 28.9204 45.2045 27.1544C49.1254 22.3279 54.2762 18.6785 60.0994 16.6012C62.2363 15.823 64.556 15.7176 66.7532 16.2988C68.9505 16.88 70.9223 18.1207 72.4094 19.8575C73.4393 21.0666 74.4083 22.3275 75.3127 23.6353ZM49.2753 42.0839C50.1158 43.2988 51.0162 44.4701 51.9731 45.5934C53.0157 46.811 54.3978 47.6811 55.9379 48.0893C57.4781 48.4976 59.1043 48.425 60.6029 47.881C65.8726 46.0001 70.534 42.6974 74.0832 38.33C75.1007 37.0911 75.7242 35.5698 75.8716 33.9658C76.0189 32.3619 75.6834 30.7503 74.909 29.3429C73.4762 26.7538 71.7898 24.317 69.8752 22.0692C68.8334 20.851 67.4515 19.9804 65.9114 19.572C64.3713 19.1635 62.7451 19.2363 61.2467 19.7807C55.9765 21.6621 51.3148 24.9653 47.7655 29.3332C46.7477 30.572 46.1242 32.0933 45.9768 33.6973C45.8294 35.3013 46.1651 36.913 46.9397 38.3203C47.6554 39.6137 48.4349 40.8698 49.2753 42.0839Z" fill="#A25820"/>
<path d="M52.4206 9.92176C55.3724 10.6788 58.2411 11.7354 60.9832 13.0754C62.7238 13.925 64.1681 15.2899 65.1246 16.989C66.0811 18.6882 66.5047 20.6414 66.3393 22.5896C65.8879 28.5236 63.8392 34.2192 60.4154 39.0584C59.3045 40.6586 57.7393 41.8794 55.9271 42.559C54.1149 43.2386 52.1414 43.3448 50.2682 42.8636C47.3164 42.1064 44.4476 41.0498 41.7054 39.71C39.9647 38.8602 38.5204 37.4952 37.5639 35.7959C36.6074 34.0966 36.1839 32.1432 36.3495 30.1948C36.8009 24.261 38.8495 18.5655 42.2732 13.7263C43.3842 12.1261 44.9495 10.9054 46.7617 10.226C48.574 9.54653 50.5474 9.44044 52.4206 9.92176Z" fill="#C47940"/>
<path d="M38.2674 20.6767L42.6676 22.2972C44.4762 22.9584 46.1136 24.0248 47.4574 25.4167C48.8013 26.8086 49.8167 28.4899 50.4278 30.3349C50.8787 31.6984 51.6287 32.9409 52.6215 33.9695C53.6143 34.998 54.8243 35.7859 56.1608 36.2742L60.561 37.8949L59.4166 41.0764L55.0164 39.4559C53.2077 38.7948 51.5701 37.7285 50.2262 36.3367C48.8822 34.9449 47.8666 33.2637 47.2553 31.4187C46.8045 30.0552 46.0546 28.8125 45.0618 27.7839C44.069 26.7552 42.859 25.9672 41.5225 25.4789L37.1223 23.8584L38.2674 20.6767Z" fill="#DFAC84"/>
<path d="M43.2735 11.7098L47.6737 13.3305C49.4822 13.9917 51.1197 15.0581 52.4636 16.45C53.8074 17.8418 54.8229 19.5231 55.4341 21.368C55.8849 22.7316 56.6348 23.9742 57.6276 25.0029C58.6204 26.0315 59.8304 26.8195 61.1668 27.3079L65.567 28.9283L64.4225 32.11L60.0223 30.4896C58.2137 29.8283 56.5763 28.7619 55.2324 27.37C53.8886 25.9781 52.8732 24.2968 52.2621 22.4519C51.8112 21.0883 51.0613 19.8457 50.0684 18.8171C49.0756 17.7885 47.8656 17.0005 46.5291 16.5122L42.1289 14.8915L43.2735 11.7098Z" fill="#DFAC84"/>
<path d="M57.3523 9.69006C58.8351 10.2358 60.2897 10.8568 61.7108 11.5506C63.7532 12.5549 65.4475 14.1609 66.571 16.1576C67.6945 18.1543 68.1948 20.4483 68.0059 22.738C67.53 28.9678 65.3792 34.9471 61.7864 40.029C60.4763 41.9056 58.636 43.3375 56.507 44.1365C54.378 44.9356 52.06 45.0644 49.8574 44.5061C46.7968 43.7203 43.8222 42.6247 40.9785 41.2361C38.936 40.2316 37.2416 38.6253 36.1182 36.6283C34.9947 34.6313 34.4947 32.337 34.6839 30.0471C35.1598 23.8179 37.3103 17.839 40.9029 12.7577C42.2122 10.8801 44.0525 9.44752 46.1817 8.6484C48.3109 7.84928 50.6293 7.72103 52.8319 8.28052C54.3612 8.67322 55.8699 9.14367 57.3523 9.69006ZM46.4806 39.914C47.8578 40.4214 49.2594 40.8584 50.68 41.2232C52.2242 41.6154 53.8495 41.5259 55.3424 40.9665C56.8354 40.407 58.1262 39.4037 59.0454 38.0884C62.2959 33.4892 64.2422 28.0784 64.6738 22.4411C64.8052 20.8357 64.4535 19.2276 63.665 17.8282C62.8765 16.4287 61.6881 15.3033 60.2559 14.5999C57.6147 13.3105 54.852 12.293 52.0096 11.5628C50.4656 11.1697 48.8402 11.2585 47.3471 11.8178C45.854 12.377 44.5631 13.3805 43.6442 14.6961C40.3935 19.2958 38.4471 24.7071 38.0153 30.3451C37.8837 31.9504 38.2351 33.5584 39.0235 34.9579C39.8118 36.3573 41.0001 37.4827 42.4323 38.1861C43.7522 38.8304 45.1034 39.4072 46.4806 39.914Z" fill="#A25820"/>
</g>
<defs>
<clipPath id="clip0">
<rect width="89" height="88" fill="white" transform="translate(0.5 89.5) rotate(-90)"/>
</clipPath>
</defs>
</svg>
