<svg width="91" height="91" viewBox="0 0 91 91" fill="none" xmlns="http://www.w3.org/2000/svg">
<g clip-path="url(#clip0)">
<path d="M45.4998 91C70.6287 91 90.9998 70.629 90.9998 45.5C90.9998 20.371 70.6287 0 45.4998 0C20.3708 0 -0.000244141 20.371 -0.000244141 45.5C-0.000244141 70.629 20.3708 91 45.4998 91Z" fill="#DFF6FD"/>
<path d="M45.4997 78.183C63.55 78.183 78.1827 63.5503 78.1827 45.5C78.1827 27.4497 63.55 12.817 45.4997 12.817C27.4493 12.817 12.8167 27.4497 12.8167 45.5C12.8167 63.5503 27.4493 78.183 45.4997 78.183Z" fill="#99E6FC"/>
<path d="M63.1719 3.55988C76.7092 11.4431 85.8096 26.1105 85.8096 42.9049C85.8096 68.0339 65.4385 88.4049 40.3096 88.4049C34.0421 88.4049 28.0708 87.1373 22.6375 84.8451C29.3555 88.7572 37.1653 91 45.4998 91C70.6287 91 90.9998 70.629 90.9998 45.5C90.9998 26.6387 79.5229 10.4581 63.1719 3.55988Z" fill="#C8EFFE"/>
<path d="M79.5418 50.4972C77.6696 43.2316 70.5121 38.6388 63.1272 39.9645C56.8619 41.0892 51.0741 39.2477 46.7195 35.5234C43.0187 32.3583 38.2382 30.4193 33.0064 30.3361C21.0361 30.1457 11.1075 39.8218 11.003 51.7931C10.9232 60.9364 16.5119 68.7834 24.4664 72.0356L26.0193 72.6409C31.8973 74.5816 53.3433 80.1088 73.8847 65.8167C78.7895 62.404 81.0327 56.2832 79.5418 50.4972Z" fill="#9E5528"/>
<path d="M38.3156 35.1184L53.5691 35.0363C54.7777 35.0297 55.9197 34.4818 56.6809 33.5432L61.6706 27.3905C64.1322 24.3552 62.5968 19.604 58.5398 18.8998C58.9973 16.0317 57.1716 13.2534 54.2996 12.5739C51.4996 11.9115 48.6948 13.4782 47.7439 16.1231C47.7034 16.2358 47.5813 16.3037 47.4554 16.2711C46.2518 15.5721 44.7592 15.346 43.2369 15.857C43.1214 15.8958 42.9895 15.8311 42.9401 15.7196C41.8033 13.1547 38.9002 11.7929 36.1572 12.6482C33.3398 13.5267 31.7128 16.4259 32.3695 19.2549C28.3785 20.2394 27.1672 25.0828 29.8398 27.9438L35.3457 33.838C36.1138 34.6602 37.1905 35.1245 38.3156 35.1184Z" fill="#02905D"/>
<path d="M30.253 35.1874L43.0774 35.1184C44.0935 35.1129 45.0537 34.6522 45.6935 33.8631L49.8886 28.6903C51.9583 26.1382 50.6672 22.1438 47.2563 21.5518C47.6409 19.1404 46.106 16.8045 43.6913 16.2332C41.3372 15.6762 38.9791 16.9936 38.1796 19.2172C38.1455 19.3119 38.0428 19.369 37.937 19.3416C36.9252 18.754 35.6702 18.5639 34.3903 18.9934C34.2931 19.026 34.1822 18.9716 34.1408 18.8779C33.1851 16.7215 30.7443 15.5767 28.4382 16.2956C26.0693 17.0343 24.7015 19.4717 25.2537 21.8503C21.8983 22.6781 20.8798 26.7501 23.1268 29.1554L27.7558 34.111C28.4019 34.8022 29.3071 35.1925 30.253 35.1874Z" fill="#7ACAA6"/>
<path d="M79.5419 50.4973C78.2183 45.3606 74.2516 41.5633 69.4318 40.2454C71.854 42.1293 73.6875 44.7984 74.5074 47.9798C75.9982 53.7658 73.755 59.8866 68.8504 63.2991C47.9291 77.8557 26.0694 71.8529 20.6748 70.0198C22.8865 71.492 24.5373 72.0632 26.0189 72.6407C31.8966 74.5812 53.3429 80.1091 73.8847 65.8164C78.7895 62.404 81.0327 56.2832 79.5419 50.4973Z" fill="#904D24"/>
<path d="M53.5692 35.0363C54.7778 35.0299 55.9198 34.4817 56.681 33.5431L61.6707 27.3903C64.1323 24.355 62.5969 19.6039 58.5399 18.8996C58.9974 16.0315 57.1717 13.2531 54.2997 12.5737C52.9621 12.2573 51.6239 12.4505 50.4866 13.026C52.6237 14.1056 53.8748 16.4701 53.4873 18.8996C57.5444 19.6039 59.0799 24.355 56.6181 27.3903L51.6284 33.5431C50.8671 34.4817 49.7252 35.0297 48.5166 35.0363H53.5692Z" fill="#017B4E"/>
<path d="M43.3923 69.9259C36.7538 69.9256 30.2053 68.549 26.5101 67.0376C20.3116 64.5032 16.344 58.5379 16.4025 51.84C16.4811 42.8509 23.9479 35.5818 32.9206 35.735C36.6914 35.7949 40.3456 37.1771 43.21 39.6268C47.7961 43.5493 53.5851 45.7093 59.5107 45.7091C62.8973 45.7091 63.915 45.1366 65.6728 45.1366C69.7424 45.1366 73.2954 47.8949 74.3131 51.8446C75.2406 55.4436 73.8292 59.2775 70.8011 61.3842C62.6556 67.0518 53.4335 69.9259 43.3943 69.9259C43.3929 69.9259 43.3936 69.9259 43.3923 69.9259Z" fill="url(#paint0_linear)"/>
<path d="M43.0775 35.1184C44.0936 35.1129 45.0538 34.6522 45.6936 33.8631L49.8887 28.6903C51.9584 26.1382 50.6673 22.1438 47.2564 21.5518C47.641 19.1405 46.1061 16.8045 43.6914 16.2333C42.3977 15.9272 41.1034 16.1881 40.0667 16.8534C41.6045 17.8419 42.4695 19.6738 42.1699 21.5518C45.5808 22.144 46.8718 26.1384 44.8021 28.6903L40.607 33.8631C39.967 34.6522 39.0069 35.1129 37.991 35.1184H43.0775Z" fill="#57BE92"/>
<path d="M77.8658 46.2876H59.0065C58.3998 46.2876 57.908 45.7958 57.908 45.189V42.2594C57.908 41.6526 58.3998 41.1608 59.0065 41.1608H77.8658C78.4725 41.1608 78.9643 41.6526 78.9643 42.2594V45.189C78.9643 45.7956 78.4724 46.2876 77.8658 46.2876Z" fill="#FDB441"/>
<path d="M81.1614 41.1608H62.3022C61.6954 41.1608 61.2036 40.669 61.2036 40.0622V37.1326C61.2036 36.5258 61.6954 36.0341 62.3022 36.0341H81.1614C81.7682 36.0341 82.26 36.5258 82.26 37.1326V40.0622C82.26 40.6688 81.7682 41.1608 81.1614 41.1608Z" fill="#FECE85"/>
<path d="M75.3785 35.3586L58.9342 44.592C58.4052 44.889 57.7356 44.701 57.4385 44.1719L56.0042 41.6175C55.7071 41.0884 55.8951 40.4188 56.4242 40.1217L72.8685 30.8883C73.3976 30.5912 74.0672 30.7793 74.3643 31.3084L75.7986 33.8628C76.0956 34.3918 75.9075 35.0616 75.3785 35.3586Z" fill="#FDB441"/>
<path d="M75.7421 29.2748L59.2978 38.5082C58.7687 38.8052 58.0991 38.6172 57.802 38.0881L56.3677 35.5336C56.0706 35.0046 56.2587 34.335 56.7877 34.0379L73.232 24.8045C73.7611 24.5074 74.4307 24.6955 74.7278 25.2246L76.1621 27.779C76.4591 28.308 76.2711 28.9777 75.7421 29.2748Z" fill="#FECE85"/>
<path d="M72.8685 30.8883L70.2059 32.3834L71.1616 34.0855C71.4587 34.6146 71.2706 35.2842 70.7415 35.5812L56.9599 43.3195L57.4385 44.1719C57.7356 44.701 58.4052 44.889 58.9342 44.592L75.3785 35.3586C75.9076 35.0615 76.0957 34.3919 75.7986 33.8628L74.3643 31.3084C74.0672 30.7793 73.3974 30.5913 72.8685 30.8883Z" fill="#FEA613"/>
<path d="M73.232 24.8045L70.5694 26.2996L71.5251 28.0017C71.8222 28.5308 71.6342 29.2003 71.1051 29.4974L57.3234 37.2357L57.802 38.0881C58.0991 38.6172 58.7687 38.8052 59.2978 38.5082L75.7421 29.2748C76.2711 28.9777 76.4592 28.3081 76.1621 27.779L74.7278 25.2246C74.4307 24.6955 73.7611 24.5074 73.232 24.8045Z" fill="#FEC165"/>
<path d="M15.2275 60.377C14.8866 60.377 14.5457 60.2469 14.2857 59.9868C13.7655 59.4664 13.7655 58.6233 14.2857 58.1029L38.2338 34.1547C38.754 33.6347 39.5974 33.6347 40.1176 34.1547C40.6378 34.6752 40.6378 35.5183 40.1176 36.0387L16.1695 59.9868C15.9093 60.2469 15.5684 60.377 15.2275 60.377Z" fill="#9E5528"/>
<path d="M21.8286 68.1256C21.4877 68.1256 21.1468 67.9955 20.8868 67.7355C20.3665 67.2151 20.3665 66.3719 20.8868 65.8515L46.9867 39.7514C47.5069 39.2313 48.3503 39.2313 48.8705 39.7514C49.3907 40.2718 49.3907 41.1149 48.8705 41.6354L22.7704 67.7355C22.5104 67.9955 22.1695 68.1256 21.8286 68.1256Z" fill="#9E5528"/>
<path d="M32.9085 71.2579C32.6026 71.2579 32.2968 71.1411 32.0635 70.9078C31.5967 70.4409 31.5967 69.6844 32.0635 69.2174L54.9594 46.3215C55.4262 45.8548 56.1829 45.8548 56.6497 46.3215C57.1164 46.7884 57.1164 47.5449 56.6497 48.0119L33.7536 70.9078C33.5202 71.1411 33.2142 71.2579 32.9085 71.2579Z" fill="#9E5528"/>
<path d="M71.1752 48.8402C71.6811 48.3704 71.6811 47.6092 71.1752 47.1395C70.6693 46.67 69.8492 46.67 69.3434 47.1395L44.3788 70.3155C43.8784 70.78 43.8738 71.5291 44.363 72C45.0772 71.9221 45.8003 71.828 46.5305 71.7193L71.1752 48.8402Z" fill="#9E5528"/>
<path d="M48.2411 37.2649C50.5794 37.2649 52.4751 35.2567 52.4751 32.7794C52.4751 30.3022 50.5794 28.2939 48.2411 28.2939C45.9027 28.2939 44.0071 30.3022 44.0071 32.7794C44.0071 35.2567 45.9027 37.2649 48.2411 37.2649Z" fill="#EE6161"/>
<path d="M46.7202 28.6532C48.3163 29.3428 49.4335 30.9303 49.4335 32.7795C49.4335 34.6286 48.3163 36.2163 46.7202 36.9057C47.2662 37.1416 47.8678 37.2729 48.5004 37.2729C50.9821 37.2729 52.9939 35.2612 52.9939 32.7795C52.9941 29.5404 49.6704 27.3785 46.7202 28.6532Z" fill="#E94444"/>
<path d="M41.34 37.2649C43.6783 37.2649 45.5739 35.2567 45.5739 32.7794C45.5739 30.3022 43.6783 28.2939 41.34 28.2939C39.0016 28.2939 37.106 30.3022 37.106 32.7794C37.106 35.2567 39.0016 37.2649 41.34 37.2649Z" fill="#F79595"/>
<path d="M39.8191 28.6532C41.4151 29.3428 42.5324 30.9303 42.5324 32.7795C42.5324 34.6286 41.4151 36.2163 39.8191 36.9057C40.3651 37.1416 40.9667 37.2729 41.5993 37.2729C44.081 37.2729 46.0928 35.2612 46.0928 32.7795C46.0929 29.5404 42.7693 27.3785 39.8191 28.6532Z" fill="#F47C7C"/>
<g clip-path="url(#clip1)">
<path d="M21.7457 51.4221C23.4752 46.4912 20.88 41.0918 15.9491 39.3623C11.0181 37.6327 5.61874 40.228 3.88919 45.1589C2.15964 50.0898 4.75488 55.4892 9.68582 57.2188C14.6168 58.9483 20.0162 56.3531 21.7457 51.4221Z" fill="#FF5050"/>
<path d="M20.6744 51.0463C22.1964 46.707 19.9126 41.9556 15.5733 40.4336C11.2341 38.9116 6.48266 41.1954 4.96066 45.5346C3.43866 49.8738 5.72247 54.6253 10.0617 56.1473C14.4009 57.6693 19.1524 55.3855 20.6744 51.0463Z" fill="#FF736E"/>
<path d="M16.9656 50.5948C16.7159 50.5072 16.4439 50.5539 16.2281 50.707C15.254 51.3984 13.5775 51.5297 11.889 50.9375C10.2006 50.3453 8.97349 49.1954 8.64466 48.0471C8.57182 47.7927 8.38858 47.5864 8.13885 47.4988L6.6141 46.964C6.37355 46.8796 6.11996 47.0391 6.0822 47.2912C5.60843 50.4598 7.42792 53.6193 10.5627 54.7189C13.6976 55.8184 17.0921 54.4877 18.7013 51.7174C18.8294 51.497 18.7309 51.214 18.4903 51.1296L16.9656 50.5948Z" fill="#C84146"/>
<path d="M8.64477 48.047C8.57194 47.7926 8.3887 47.5863 8.13904 47.4987L7.70066 47.345C7.23931 49.8277 8.63634 52.3444 11.0934 53.2062C13.5505 54.068 16.2134 52.9754 17.4041 50.7485L16.9657 50.5947C16.716 50.5071 16.444 50.5538 16.2282 50.7069C15.2541 51.3982 13.5776 51.5296 11.8892 50.9374C10.2007 50.3451 8.97361 49.1953 8.64477 48.047Z" fill="#FF5050"/>
<path d="M7.14473 45.4513L8.6696 45.9862C8.9193 46.0738 9.19126 46.0271 9.40708 45.874C10.3812 45.1826 12.0577 45.0513 13.7461 45.6435C15.4346 46.2357 16.6617 47.3855 16.9905 48.5339C17.0633 48.7882 17.2466 48.9946 17.4963 49.0822L19.0212 49.617C19.2617 49.7014 19.5153 49.5419 19.5531 49.2898C20.0269 46.1212 18.2074 42.9617 15.0725 41.8621C11.9377 40.7626 8.54319 42.0933 6.93398 44.8636C6.80574 45.084 6.90418 45.3669 7.14473 45.4513Z" fill="#C84146"/>
<path d="M16.9905 48.5339C17.0633 48.7883 17.2466 48.9946 17.4962 49.0821L17.9346 49.2359C18.3959 46.7531 16.9989 44.2365 14.5419 43.3747C12.0848 42.5128 9.42181 43.6054 8.2312 45.8324L8.66958 45.9862C8.91928 46.0737 9.19124 46.0271 9.40707 45.874C10.3812 45.1826 12.0577 45.0513 13.7461 45.6435C15.4345 46.2357 16.6616 47.3856 16.9905 48.5339Z" fill="#FF5050"/>
<path d="M9.10954 50.3871C9.07561 50.4838 9.00473 50.5677 8.90495 50.6156L8.29592 50.9084C8.0964 51.0043 7.8571 50.9203 7.76121 50.7208C7.66531 50.5213 7.74925 50.282 7.94876 50.1861L8.55779 49.8934C8.7573 49.7975 8.9966 49.8814 9.0925 50.0809C9.14052 50.1807 9.14348 50.2903 9.10954 50.3871Z" fill="#FFDC64"/>
<path d="M17.891 46.1663C17.8571 46.2631 17.7862 46.3469 17.6864 46.3949L17.0774 46.6876C16.8779 46.7835 16.6386 46.6996 16.5427 46.5C16.4468 46.3005 16.5307 46.0612 16.7303 45.9653L17.3393 45.6726C17.5388 45.5767 17.7781 45.6606 17.874 45.8601C17.922 45.9599 17.925 46.0696 17.891 46.1663Z" fill="#FFDC64"/>
<path d="M15.4526 53.1183C15.4187 53.215 15.3478 53.2988 15.248 53.3468C15.0485 53.4427 14.8092 53.3587 14.7133 53.1592L14.4206 52.5502C14.3247 52.3507 14.4086 52.1114 14.6081 52.0155C14.8076 51.9196 15.0469 52.0035 15.1428 52.203L15.4356 52.8121C15.4835 52.9118 15.4865 53.0215 15.4526 53.1183Z" fill="#FFDC64"/>
<path d="M11.2317 44.3369C11.1977 44.4336 11.1269 44.5174 11.0271 44.5654C10.8276 44.6613 10.5883 44.5774 10.4924 44.3779L10.1996 43.7688C10.1037 43.5693 10.1877 43.33 10.3872 43.2341C10.5867 43.1382 10.826 43.2222 10.9219 43.4217L11.2146 44.0307C11.2626 44.1305 11.2656 44.2402 11.2317 44.3369Z" fill="#FFDC64"/>
<path d="M13.4842 53.6247C13.4323 53.7728 13.2947 53.883 13.1281 53.8921C12.9072 53.9042 12.7181 53.735 12.7058 53.5142L12.6684 52.8392C12.6568 52.6195 12.8254 52.429 13.0463 52.4169C13.2672 52.4048 13.4563 52.574 13.4686 52.7948L13.506 53.4698C13.509 53.5239 13.5012 53.5763 13.4842 53.6247Z" fill="#FFA869"/>
<path d="M12.9451 43.8965C12.8932 44.0446 12.7556 44.1548 12.5891 44.1639C12.3681 44.176 12.1791 44.0068 12.1667 43.786L12.1293 43.111C12.1171 42.8911 12.2863 42.7008 12.5072 42.6887C12.7282 42.6766 12.9172 42.8458 12.9296 43.0666L12.967 43.7416C12.9699 43.7957 12.9621 43.8482 12.9451 43.8965Z" fill="#FFA869"/>
<path d="M16.6703 44.5413C16.6533 44.5897 16.6267 44.6355 16.5906 44.6759L16.1397 45.1797C15.9922 45.3444 15.7388 45.3584 15.5739 45.211C15.4088 45.0635 15.396 44.8093 15.5426 44.6451L15.9934 44.1414C16.141 43.9766 16.3943 43.9627 16.5593 44.1101C16.6836 44.2213 16.7222 44.3933 16.6703 44.5413Z" fill="#FFA869"/>
<path d="M10.1724 51.8012C10.1555 51.8496 10.1288 51.8954 10.0927 51.9358L9.64187 52.4396C9.49431 52.6043 9.24099 52.6183 9.07602 52.4709C8.91107 52.3234 8.89765 52.069 9.04474 51.905L9.49557 51.4013C9.64313 51.2365 9.89645 51.2226 10.0614 51.37C10.1858 51.4812 10.2244 51.6532 10.1724 51.8012Z" fill="#FFA869"/>
<path d="M3.88925 45.1588C3.63219 45.8917 3.47285 46.6348 3.40033 47.3749C4.50701 47.6203 5.64744 47.0068 6.032 45.9104C6.41657 44.814 5.90922 43.6226 4.8917 43.123C4.48608 43.7461 4.1463 44.426 3.88925 45.1588Z" fill="#F6A48E"/>
<path d="M11.7367 52.5826L11.4714 53.3389C11.3981 53.5479 11.1695 53.6577 10.9607 53.5844C10.7518 53.5112 10.6418 53.2826 10.7152 53.0736L10.9804 52.3174C11.0537 52.1084 11.2824 51.9986 11.4912 52.0718C11.7 52.1451 11.81 52.3736 11.7367 52.5826Z" fill="#FFA869"/>
<path d="M14.9198 43.5073L14.6545 44.2636C14.5812 44.4726 14.3526 44.5823 14.1438 44.5091C13.9349 44.4359 13.825 44.2073 13.8983 43.9983L14.1635 43.242C14.2368 43.033 14.4655 42.9233 14.6743 42.9965C14.8831 43.0698 14.9931 43.2983 14.9198 43.5073Z" fill="#FFA869"/>
</g>
<g clip-path="url(#clip2)">
<path d="M36.6207 30.5896C34.7263 23.8356 27.7153 19.8961 20.9613 21.7906C14.2073 23.685 10.2679 30.696 12.1623 37.45C14.0568 44.204 21.0677 48.1434 27.8217 46.249C34.5757 44.3546 38.5152 37.3436 36.6207 30.5896Z" fill="#FF5050"/>
<path d="M35.1532 31.0011C33.4861 25.0576 27.3165 21.5909 21.373 23.258C15.4295 24.9251 11.9628 31.0947 13.6299 37.0382C15.297 42.9818 21.4666 46.4485 27.4101 44.7814C33.3536 43.1142 36.8204 36.9446 35.1532 31.0011Z" fill="#FF736E"/>
<path d="M30.7271 33.3601C30.3851 33.456 30.1219 33.7167 30.0025 34.0513C29.4636 35.5615 27.7211 36.9967 25.4084 37.6454C23.0957 38.2941 20.8611 37.9744 19.6153 36.9648C19.3394 36.7412 18.979 36.6553 18.637 36.7513L16.5485 37.3371C16.219 37.4295 16.063 37.8002 16.2155 38.1065C18.134 41.9556 22.5674 44.0292 26.8613 42.8248C31.1551 41.6204 33.8634 37.5436 33.5001 33.2583C33.4713 32.9172 33.1452 32.6819 32.8156 32.7743L30.7271 33.3601Z" fill="#C84146"/>
<path d="M19.6154 36.9647C19.3395 36.741 18.9791 36.6552 18.6372 36.7511L18.0367 36.9195C19.4409 40.005 22.9147 41.6969 26.2802 40.7529C29.6457 39.8089 31.7329 36.5571 31.3276 33.1915L30.7272 33.36C30.3852 33.4559 30.122 33.7166 30.0026 34.0511C29.4636 35.5614 27.7212 36.9966 25.4085 37.6453C23.0958 38.2939 20.8611 37.9742 19.6154 36.9647Z" fill="#FF5050"/>
<path d="M15.9675 35.2652L18.0561 34.6794C18.3981 34.5834 18.6613 34.3228 18.7807 33.9882C19.3197 32.478 21.0621 31.0428 23.3748 30.3941C25.6875 29.7454 27.9222 30.065 29.1679 31.0747C29.4438 31.2983 29.8042 31.3841 30.1462 31.2882L32.2349 30.7023C32.5644 30.6099 32.7204 30.2392 32.5679 29.933C30.6494 26.0838 26.2159 24.0102 21.9221 25.2146C17.6283 26.419 14.92 30.4958 15.2832 34.7812C15.3119 35.1223 15.638 35.3576 15.9675 35.2652Z" fill="#C84146"/>
<path d="M29.1675 31.0747C29.4435 31.2983 29.8038 31.3841 30.1458 31.2882L30.7462 31.1198C29.3421 28.0344 25.8682 26.3424 22.5027 27.2864C19.1372 28.2304 17.05 31.4822 17.4553 34.8478L18.0558 34.6794C18.3978 34.5834 18.661 34.3228 18.7804 33.9882C19.3193 32.478 21.0618 31.0428 23.3745 30.3941C25.6871 29.7454 27.9218 30.0651 29.1675 31.0747Z" fill="#FF5050"/>
<path d="M21.9282 39.1801C21.9654 39.3126 21.952 39.4594 21.8792 39.5889L21.4348 40.3798C21.2893 40.6388 20.9615 40.7308 20.7024 40.5852C20.4434 40.4396 20.3514 40.1118 20.497 39.8528L20.9414 39.062C21.0869 38.8029 21.4147 38.711 21.6738 38.8565C21.8034 38.9293 21.8911 39.0476 21.9282 39.1801Z" fill="#FFDC64"/>
<path d="M28.3352 27.7778C28.3724 27.9103 28.359 28.057 28.2862 28.1866L27.8418 28.9774C27.6963 29.2365 27.3685 29.3284 27.1094 29.1828C26.8504 29.0373 26.7584 28.7095 26.904 28.4504L27.3483 27.6596C27.4939 27.4006 27.8217 27.3086 28.0807 27.4542C28.2103 27.527 28.2981 27.6453 28.3352 27.7778Z" fill="#FFDC64"/>
<path d="M31.0063 37.3C31.0434 37.4325 31.03 37.5793 30.9572 37.7088C30.8116 37.9679 30.4839 38.0598 30.2248 37.9143L29.434 37.4699C29.1749 37.3244 29.083 36.9966 29.2286 36.7375C29.3741 36.4785 29.7019 36.3865 29.961 36.5321L30.7518 36.9764C30.8813 37.0492 30.9691 37.1675 31.0063 37.3Z" fill="#FFDC64"/>
<path d="M19.6037 30.8931C19.6408 31.0256 19.6274 31.1723 19.5546 31.3019C19.4091 31.5609 19.0813 31.6529 18.8222 31.5073L18.0314 31.0629C17.7723 30.9174 17.6804 30.5896 17.826 30.3305C17.9715 30.0715 18.2993 29.9795 18.5584 30.1251L19.3492 30.5695C19.4788 30.6422 19.5665 30.7606 19.6037 30.8931Z" fill="#FFDC64"/>
<path d="M29.2314 39.3723C29.2883 39.5751 29.2219 39.8022 29.0457 39.9405C28.8121 40.1239 28.4739 40.0834 28.2903 39.8501L27.7295 39.1366C27.5476 38.904 27.5863 38.5647 27.8199 38.3813C28.0536 38.1979 28.3917 38.2383 28.5753 38.4717L29.1361 39.1851C29.181 39.2424 29.2128 39.306 29.2314 39.3723Z" fill="#FFA869"/>
<path d="M21.1485 29.0897C21.2054 29.2925 21.1389 29.5195 20.9628 29.6578C20.7292 29.8412 20.391 29.8008 20.2074 29.5674L19.6466 28.8539C19.4638 28.6215 19.5034 28.282 19.737 28.0986C19.9706 27.9152 20.3088 27.9557 20.4924 28.189L21.0532 28.9025C21.0982 28.9597 21.1299 29.0234 21.1485 29.0897Z" fill="#FFA869"/>
<path d="M25.7414 26.9307C25.76 26.9969 25.766 27.0678 25.7574 27.1401L25.6494 28.0411C25.614 28.3359 25.3462 28.5463 25.0513 28.5112C24.7561 28.4761 24.5465 28.2064 24.5812 27.913L24.6892 27.0119C24.7246 26.7172 24.9924 26.5068 25.2873 26.5419C25.5097 26.5685 25.6846 26.7278 25.7414 26.9307Z" fill="#FFA869"/>
<path d="M24.1856 39.9169C24.2041 39.9832 24.2101 40.0541 24.2015 40.1263L24.0936 41.0274C24.0581 41.3221 23.7903 41.5325 23.4954 41.4974C23.2005 41.4623 22.9899 41.1929 23.0253 40.8993L23.1333 39.9982C23.1687 39.7034 23.4365 39.4931 23.7314 39.5282C23.9539 39.5547 24.1287 39.7141 24.1856 39.9169Z" fill="#FFA869"/>
<path d="M12.1625 37.4499C12.444 38.4537 12.841 39.3936 13.331 40.2632C14.7369 39.6811 15.5187 38.1284 15.0974 36.6267C14.6762 35.1249 13.201 34.2053 11.6974 34.4393C11.7311 35.4369 11.8809 36.4461 12.1625 37.4499Z" fill="#F6A48E"/>
<path d="M26.5075 39.5718L26.7981 40.6077C26.8784 40.894 26.7115 41.1907 26.4254 41.2709C26.1394 41.3512 25.8425 41.1845 25.7622 40.8982L25.4716 39.8623C25.3913 39.5761 25.5583 39.2793 25.8443 39.1991C26.1303 39.1189 26.4272 39.2855 26.5075 39.5718Z" fill="#FFA869"/>
<path d="M23.021 27.1412L23.3115 28.1771C23.3918 28.4633 23.2249 28.7601 22.9389 28.8403C22.6528 28.9205 22.3559 28.7539 22.2756 28.4676L21.9851 27.4317C21.9048 27.1455 22.0717 26.8487 22.3577 26.7685C22.6437 26.6883 22.9407 26.8549 23.021 27.1412Z" fill="#FFA869"/>
</g>
<g clip-path="url(#clip3)">
<path d="M62.6545 19.4536L65.0519 21.2157L58.7196 29.8307L56.3222 28.0686L62.6545 19.4536Z" fill="#95D528"/>
<path d="M64.1892 20.5816L65.0519 21.2157L58.7196 29.8307L57.8569 29.1966L64.1892 20.5816Z" fill="#89C627"/>
<path d="M67.9847 25.4397L65.4571 25.6573C63.9375 25.7882 62.4794 26.3142 61.2306 27.1673C62.0194 26.2993 62.9133 25.5295 63.8892 24.8788L67.1005 22.7378L66.3983 21.6845L63.187 23.8255C62.0954 24.5533 61.0999 25.4157 60.2241 26.3923L59.7575 26.9126C59.4768 27.2256 59.0012 27.2898 58.6611 27.0427C58.2961 26.7776 58.2169 26.2665 58.4838 25.9035L61.6236 21.6317L60.6036 20.882L58.3055 24.0085C58.4763 23.1661 58.551 22.3038 58.5246 21.4402L58.4396 18.656L57.1742 18.6946L57.2593 21.4788C57.3114 23.1873 56.9192 24.8902 56.1249 26.4036L55.4515 27.6866C55.3318 27.9148 55.3967 28.1963 55.6044 28.349L58.6935 30.6196C58.8993 30.7708 59.1842 30.7508 59.3668 30.5722L60.9273 29.0463C62.177 27.8242 63.8243 27.0685 65.5658 26.9186L68.0934 26.7009L67.9847 25.4397Z" fill="#B9EA6A"/>
<path d="M67.9847 25.4398L65.4571 25.6574C63.9375 25.7883 62.4794 26.3143 61.2306 27.1674C61.6218 26.7369 62.0388 26.3307 62.4789 25.9511C61.2732 26.2942 60.1607 26.9341 59.2565 27.8184L57.6961 29.3443C57.5135 29.5229 57.2285 29.5429 57.0227 29.3917L58.6934 30.6197C58.8992 30.7709 59.1842 30.7509 59.3668 30.5724L60.9272 29.0464C62.1769 27.8243 63.8242 27.0687 65.5657 26.9187L68.0933 26.701L67.9847 25.4398Z" fill="#A1E42C"/>
<path d="M71.3279 22.214C71.2308 22.1402 71.1309 22.0726 71.029 22.011C70.6198 21.7639 70.4989 21.2292 70.7579 20.8276C70.7639 20.8184 70.7698 20.8091 70.7757 20.7998C71.6641 19.3933 71.3781 17.5233 70.1095 16.4472C69.89 16.261 69.6548 16.1083 69.4097 15.9879C69.115 15.8432 68.9323 15.5396 68.9407 15.2115C68.9679 14.1461 68.49 13.0854 67.5646 12.4086C66.6391 11.7317 65.4832 11.597 64.4759 11.9456C64.1858 12.046 63.8605 11.9772 63.6379 11.7658C63.5351 11.6682 63.425 11.576 63.3075 11.4901C61.8082 10.3934 59.7038 10.7199 58.6072 12.2192C58.4805 12.3923 58.3732 12.5735 58.2843 12.7604C58.1578 13.0265 57.9018 13.2082 57.6085 13.2368C56.6734 13.3279 55.7805 13.8077 55.1916 14.6366C54.166 16.0803 54.4474 18.1021 55.8304 19.2081C56.5103 19.7519 57.3294 19.9875 58.127 19.9409C58.5178 19.9181 58.8645 20.1739 58.9614 20.5531C59.1551 21.3113 59.613 22.0069 60.3125 22.4887C61.7216 23.4594 63.6613 23.2052 64.7736 21.905C64.7904 21.8853 64.8071 21.8654 64.8234 21.8454C65.0976 21.5096 65.5867 21.4606 65.9358 21.7175L65.9434 21.723C66.0354 21.7903 66.1296 21.8522 66.2258 21.9088C66.6198 22.1407 66.7356 22.661 66.4839 23.0425C66.4704 23.063 66.457 23.0837 66.4439 23.1046C65.5501 24.5239 65.852 26.4103 67.1443 27.4797C68.6788 28.7495 70.9551 28.4206 72.0712 26.7882C73.0762 25.3181 72.7461 23.2907 71.3279 22.214Z" fill="#118E5E"/>
<path d="M72.0704 26.7876C72.3363 26.3987 72.5079 25.9706 72.5915 25.5316C71.4281 26.1618 69.9414 26.0753 68.838 25.1623C67.5458 24.093 67.2439 22.2065 68.1377 20.7872C68.1508 20.7663 68.1641 20.7456 68.1777 20.7252C68.4294 20.3436 68.3136 19.8233 67.9196 19.5914C67.8234 19.5348 67.7292 19.4729 67.6372 19.4056C67.6347 19.4038 67.6322 19.4019 67.6296 19.4001C67.2804 19.1431 66.7914 19.1922 66.5172 19.528C66.5009 19.548 66.4843 19.5679 66.4674 19.5876C65.3551 20.8879 63.4154 21.142 62.0063 20.1713C61.3068 19.6895 60.8489 18.9939 60.6552 18.2357C60.5583 17.8565 60.2116 17.6007 59.8208 17.6235C59.0232 17.6701 58.2041 17.4345 57.5242 16.8907C56.5261 16.0925 56.1021 14.8175 56.3286 13.6269C55.8911 13.8638 55.4992 14.202 55.1908 14.6361C54.1652 16.0797 54.4466 18.1015 55.8297 19.2076C56.5095 19.7513 57.3286 19.9869 58.1263 19.9404C58.517 19.9175 58.8637 20.1734 58.9606 20.5526C59.1543 21.3107 59.6122 22.0063 60.3117 22.4882C61.7208 23.4588 63.6605 23.2047 64.7728 21.9045C64.7897 21.8847 64.8063 21.8649 64.8226 21.8449C65.0968 21.5091 65.5859 21.46 65.9351 21.7169L65.9426 21.7224C66.0346 21.7897 66.1288 21.8516 66.225 21.9082C66.6189 22.1401 66.7348 22.6604 66.483 23.042C66.4695 23.0624 66.4562 23.0831 66.4431 23.104C65.5493 24.5233 65.8512 26.4097 67.1434 27.4791C68.6779 28.7489 70.9542 28.4201 72.0704 26.7876Z" fill="#017B4F"/>
<path d="M61.9315 15.0347C62.1167 15.1708 62.3772 15.1311 62.5133 14.9458C62.6495 14.7606 62.6097 14.5001 62.4245 14.364C62.2393 14.2279 61.9788 14.2676 61.8426 14.4529C61.7065 14.6381 61.7463 14.8986 61.9315 15.0347Z" fill="#017B4F"/>
<path d="M63.557 14.8744C63.7422 15.0105 64.0027 14.9707 64.1388 14.7855C64.275 14.6003 64.2352 14.3398 64.05 14.2037C63.8647 14.0675 63.6042 14.1073 63.4681 14.2925C63.332 14.4777 63.3717 14.7382 63.557 14.8744Z" fill="#017B4F"/>
<path d="M62.1656 17.4699C62.3508 17.6061 62.6113 17.5663 62.7475 17.3811C62.8836 17.1959 62.8438 16.9354 62.6586 16.7992C62.4734 16.6631 62.2129 16.7029 62.0767 16.8881C61.9406 17.0733 61.9804 17.3338 62.1656 17.4699Z" fill="#017B4F"/>
<path d="M63.0506 18.1203C63.2358 18.2565 63.4963 18.2167 63.6325 18.0315C63.7686 17.8463 63.7288 17.5858 63.5436 17.4496C63.3584 17.3135 63.0979 17.3533 62.9618 17.5385C62.8256 17.7237 62.8654 17.9842 63.0506 18.1203Z" fill="#017B4F"/>
<path d="M65.4354 17.9463C65.6206 18.0825 65.8811 18.0427 66.0172 17.8575C66.1534 17.6723 66.1136 17.4117 65.9284 17.2756C65.7432 17.1395 65.4827 17.1793 65.3465 17.3645C65.2104 17.5497 65.2502 17.8102 65.4354 17.9463Z" fill="#017B4F"/>
<path d="M70.2686 24.569C70.4538 24.7051 70.7144 24.6654 70.8505 24.4801C70.9866 24.2949 70.9468 24.0344 70.7616 23.8983C70.5764 23.7622 70.3159 23.8019 70.1798 23.9872C70.0436 24.1724 70.0834 24.4329 70.2686 24.569Z" fill="#017B4F"/>
<path d="M57.5706 15.2356C57.7558 15.3718 58.0163 15.332 58.1525 15.1468C58.2886 14.9616 58.2488 14.7011 58.0636 14.5649C57.8784 14.4288 57.6179 14.4686 57.4818 14.6538C57.3456 14.839 57.3854 15.0995 57.5706 15.2356Z" fill="#017B4F"/>
<path d="M57.3536 18.4507C57.5388 18.5868 57.7993 18.547 57.9354 18.3618C58.0716 18.1766 58.0318 17.9161 57.8466 17.7799C57.6614 17.6438 57.4009 17.6836 57.2647 17.8688C57.1286 18.054 57.1684 18.3145 57.3536 18.4507Z" fill="#118E5E"/>
</g>
<g clip-path="url(#clip4)">
<path d="M51.8972 35.6018L53.4563 33.738L60.1539 39.3408L58.5948 41.2046L51.8972 35.6018Z" fill="#95D528"/>
<path d="M52.8953 34.4087L53.4563 33.738L60.1539 39.3408L59.5928 40.0114L52.8953 34.4087Z" fill="#89C627"/>
<path d="M57.0496 31.564L57.0975 33.6354C57.1263 34.8807 57.4804 36.0961 58.1117 37.1577C57.4447 36.4703 56.863 35.7023 56.3826 34.8734L54.8021 32.1463L53.9075 32.6647L55.4881 35.3919C56.0254 36.3188 56.6773 37.1745 57.4285 37.9384L57.8287 38.3453C58.0694 38.5902 58.0974 38.9811 57.8786 39.2457C57.6438 39.5296 57.2231 39.568 56.9409 39.3319L53.6199 36.5538L52.9565 37.3467L55.3872 39.3801C54.7093 39.1977 54.0103 39.0927 53.305 39.0699L51.0313 38.9966L50.998 40.0299L53.2717 40.1032C54.6669 40.1483 56.0349 40.5552 57.2277 41.2802L58.239 41.8947C58.4189 42.0041 58.6516 41.9655 58.7867 41.8041L60.7957 39.4025C60.9295 39.2426 60.9278 39.0093 60.7916 38.8513L59.6277 37.5012C58.6957 36.42 58.1641 35.0386 58.1311 33.6114L58.0832 31.54L57.0496 31.564Z" fill="#B9EA6A"/>
<path d="M57.0497 31.5639L57.0976 33.6353C57.1264 34.8806 57.4804 36.096 58.1118 37.1576C57.781 36.8167 57.4713 36.456 57.1844 36.0778C57.4023 37.0781 57.8669 38.0177 58.5413 38.8L59.7052 40.1501C59.8413 40.308 59.843 40.5414 59.7092 40.7013L60.7958 39.4025C60.9296 39.2425 60.9279 39.0092 60.7917 38.8512L59.6278 37.5011C58.6958 36.4199 58.1642 35.0385 58.1312 33.6113L58.0833 31.54L57.0497 31.5639Z" fill="#A1E42C"/>
<path d="M54.5916 28.6735C54.5265 28.7489 54.4662 28.8268 54.4108 28.9068C54.1885 29.2276 53.7464 29.2988 53.4323 29.0671C53.4251 29.0618 53.4179 29.0565 53.4106 29.0512C52.3097 28.255 50.7708 28.3923 49.8287 29.3712C49.6657 29.5406 49.5292 29.7245 49.4185 29.9181C49.2855 30.1509 49.0286 30.2842 48.7616 30.2606C47.8946 30.1838 47.0056 30.5191 46.4065 31.2387C45.8074 31.9583 45.6384 32.8936 45.8709 33.7325C45.9379 33.9741 45.8652 34.2357 45.6814 34.4063C45.5966 34.4851 45.5158 34.5701 45.4398 34.6615C44.4691 35.8273 44.6273 37.5594 45.7932 38.53C45.9279 38.6421 46.0701 38.7389 46.2178 38.8209C46.4282 38.9377 46.5632 39.1556 46.5715 39.3961C46.5979 40.163 46.9432 40.9154 47.5887 41.4378C48.7129 42.3478 50.3752 42.222 51.3476 41.1514C51.8256 40.625 52.0596 39.9695 52.0625 39.317C52.064 38.9973 52.2902 38.7278 52.6043 38.6683C53.2322 38.5492 53.8226 38.2116 54.2512 37.6661C55.1145 36.5673 55.0068 34.9733 54.004 34.0001C53.9887 33.9853 53.9734 33.9708 53.9579 33.9564C53.6983 33.7157 53.6833 33.3146 53.9106 33.0431L53.9156 33.0372C53.9751 32.9657 54.0304 32.8921 54.0815 32.8166C54.2906 32.5073 54.7207 32.4396 55.0188 32.6643C55.0348 32.6764 55.0509 32.6883 55.0673 32.7001C56.1784 33.5013 57.7314 33.3519 58.6692 32.3534C59.7828 31.1677 59.6314 29.2954 58.358 28.302C57.2113 27.4076 55.5419 27.5727 54.5916 28.6735Z" fill="#118E5E"/>
<path d="M58.3576 28.3027C58.0542 28.0661 57.7141 27.9043 57.3605 27.8137C57.8146 28.7942 57.6679 30.0016 56.8672 30.8541C55.9294 31.8526 54.3763 32.0021 53.2652 31.2009C53.2489 31.1891 53.2327 31.1772 53.2167 31.1651C52.9186 30.9403 52.4886 31.0081 52.2794 31.3173C52.2284 31.3928 52.1731 31.4665 52.1135 31.538C52.1119 31.54 52.1103 31.5419 52.1086 31.5439C51.8813 31.8154 51.8963 32.2165 52.1559 32.4572C52.1714 32.4715 52.1867 32.4861 52.2019 32.5009C53.2048 33.4741 53.3125 35.0681 52.4492 36.1669C52.0206 36.7124 51.4301 37.05 50.8023 37.169C50.4882 37.2286 50.2619 37.4981 50.2605 37.8177C50.2576 38.4702 50.0236 39.1258 49.5456 39.6521C48.8438 40.4248 47.7828 40.7051 46.824 40.4594C46.9947 40.8282 47.2502 41.1649 47.5883 41.4385C48.7124 42.3485 50.3748 42.2227 51.3472 41.152C51.8252 40.6257 52.0592 39.9702 52.0621 39.3176C52.0635 38.998 52.2898 38.7285 52.6039 38.669C53.2318 38.5499 53.8222 38.2123 54.2508 37.6668C55.1141 36.568 55.0063 34.974 54.0035 34.0008C53.9883 33.986 53.973 33.9715 53.9575 33.9571C53.6979 33.7164 53.6829 33.3153 53.9102 33.0438L53.9151 33.038C53.9746 32.9664 54.0299 32.8928 54.081 32.8173C54.2902 32.5081 54.7202 32.4403 55.0183 32.665C55.0343 32.6771 55.0505 32.689 55.0668 32.7008C56.1779 33.502 57.731 33.3526 58.6688 32.3541C59.7824 31.1684 59.631 29.2962 58.3576 28.3027Z" fill="#017B4F"/>
<path d="M48.2586 35.9647C48.379 35.8207 48.3599 35.6063 48.216 35.4859C48.072 35.3654 47.8576 35.3845 47.7371 35.5285C47.6167 35.6725 47.6358 35.8868 47.7798 36.0073C47.9238 36.1277 48.1381 36.1087 48.2586 35.9647Z" fill="#017B4F"/>
<path d="M48.211 34.6316C48.3314 34.4876 48.3123 34.2732 48.1683 34.1528C48.0244 34.0323 47.81 34.0514 47.6895 34.1954C47.5691 34.3394 47.5882 34.5538 47.7322 34.6742C47.8761 34.7947 48.0905 34.7756 48.211 34.6316Z" fill="#017B4F"/>
<path d="M50.2554 35.8986C50.3759 35.7546 50.3568 35.5403 50.2128 35.4198C50.0688 35.2994 49.8544 35.3184 49.734 35.4624C49.6135 35.6064 49.6326 35.8208 49.7766 35.9412C49.9206 36.0617 50.1349 36.0426 50.2554 35.8986Z" fill="#017B4F"/>
<path d="M50.8308 35.2108C50.9513 35.0668 50.9322 34.8524 50.7882 34.7319C50.6442 34.6115 50.4299 34.6306 50.3094 34.7746C50.189 34.9186 50.208 35.1329 50.352 35.2534C50.496 35.3738 50.7104 35.3547 50.8308 35.2108Z" fill="#017B4F"/>
<path d="M50.8113 33.2579C50.9318 33.1139 50.9127 32.8996 50.7687 32.7791C50.6247 32.6587 50.4103 32.6778 50.2899 32.8217C50.1694 32.9657 50.1885 33.1801 50.3325 33.3006C50.4765 33.421 50.6909 33.4019 50.8113 33.2579Z" fill="#017B4F"/>
<path d="M56.4568 29.6577C56.5773 29.5137 56.5582 29.2994 56.4142 29.1789C56.2702 29.0584 56.0558 29.0775 55.9354 29.2215C55.8149 29.3655 55.834 29.5799 55.978 29.7003C56.122 29.8208 56.3364 29.8017 56.4568 29.6577Z" fill="#017B4F"/>
<path d="M48.1988 39.5294C48.3192 39.3854 48.3001 39.1711 48.1561 39.0506C48.0122 38.9302 47.7978 38.9492 47.6773 39.0932C47.5569 39.2372 47.576 39.4516 47.7199 39.572C47.8639 39.6925 48.0783 39.6734 48.1988 39.5294Z" fill="#017B4F"/>
<path d="M50.8081 39.8712C50.9286 39.7272 50.9095 39.5128 50.7655 39.3923C50.6215 39.2719 50.4072 39.291 50.2867 39.435C50.1662 39.579 50.1853 39.7933 50.3293 39.9138C50.4733 40.0342 50.6877 40.0151 50.8081 39.8712Z" fill="#118E5E"/>
</g>
</g>
<defs>
<linearGradient id="paint0_linear" x1="45.4984" y1="35.7326" x2="45.4984" y2="69.9259" gradientUnits="userSpaceOnUse">
<stop stop-color="#C86D36"/>
<stop offset="1" stop-color="#C86D36" stop-opacity="0"/>
</linearGradient>
<clipPath id="clip0">
<rect width="91" height="91" fill="white" transform="translate(-0.000244141)"/>
</clipPath>
<clipPath id="clip1">
<rect width="21.9508" height="21.9508" fill="white" transform="translate(-2.60034 54.5135) rotate(-70.6715)"/>
</clipPath>
<clipPath id="clip2">
<rect width="29.4667" height="29.4667" fill="white" transform="translate(12.228 52.7334) rotate(-105.668)"/>
</clipPath>
<clipPath id="clip3">
<rect width="20.8" height="20.8" fill="white" transform="translate(60.8521 6.93335) rotate(36.317)"/>
</clipPath>
<clipPath id="clip4">
<rect width="16.9873" height="16.9873" fill="white" transform="translate(41.5999 36.4294) rotate(-50.0864)"/>
</clipPath>
</defs>
</svg>
