<svg width="86" height="86" viewBox="0 0 86 86" fill="none" xmlns="http://www.w3.org/2000/svg">
<path d="M43 86C66.7482 86 86 66.7482 86 43C86 19.2518 66.7482 0 43 0C19.2518 0 0 19.2518 0 43C0 66.7482 19.2518 86 43 86Z" fill="#F5F5F5"/>
<path d="M42.9999 0C42.1282 0 41.2633 0.0290586 40.4043 0.0801211C62.9437 1.42253 80.8088 20.1235 80.8088 43C80.8088 65.8765 62.9437 84.5775 40.4045 85.9199C41.2633 85.9709 42.1282 86 42.9999 86C66.7482 86 85.9999 66.7483 85.9999 43C85.9999 19.2517 66.7482 0 42.9999 0Z" fill="#E6E6E6"/>
<path d="M43 79C33.3841 79 24.3436 75.2555 17.5442 68.4558C10.7447 61.6564 7 52.6159 7 43C7 33.3841 10.7447 24.3436 17.5442 17.5442C24.3436 10.7447 33.3841 7 43 7C52.6159 7 61.6564 10.7445 68.4558 17.5442C75.2553 24.3436 79 33.3841 79 43C79 52.6159 75.2555 61.6564 68.4558 68.4558C61.6564 75.2553 52.6159 79 43 79Z" fill="#B05A21"/>
<path d="M68.585 17.5442C61.869 10.7447 52.9393 7 43.4412 7C42.6227 7 41.809 7.02975 41 7.08492C49.579 7.66996 57.5653 11.3305 63.7027 17.5441C70.4189 24.3435 74.1177 33.384 74.1177 43C74.1177 52.616 70.4191 61.6565 63.7027 68.4559C57.5653 74.6697 49.579 78.33 41 78.9151C41.8088 78.9703 42.6227 79 43.4412 79C52.9393 79 61.869 75.2555 68.585 68.4558C75.3012 61.6564 79 52.6158 79 42.9998C79 33.3839 75.3012 24.3436 68.585 17.5442Z" fill="#964E1D"/>
<path d="M63.8323 42.9175L55.577 33.547C55.2109 33.1314 55.2542 32.5274 55.6737 32.1981L64.8324 25.0079C65.252 24.6786 65.889 24.7485 66.2551 25.1641L66.5175 25.462C71.2979 30.8883 70.7326 38.7734 65.2547 43.0738C64.8354 43.403 64.1985 43.3332 63.8323 42.9175Z" fill="#FFD54F"/>
<path d="M66.5944 25.4931L66.3358 25.1967C65.9752 24.7833 65.345 24.7162 64.9283 25.0467L63.1336 26.4705C65.1477 30.9278 64.3814 36.1063 61.0152 39.665L63.8646 42.9306C64.2252 43.344 64.8555 43.4111 65.2721 43.0806C70.7118 38.7649 71.3038 30.8907 66.5944 25.4931Z" fill="#FFCA28"/>
<path d="M10.9604 38.1361L19.957 40.4113C20.356 40.5123 20.5994 40.9248 20.5008 41.3329L18.3465 50.2397C18.2478 50.6477 17.8443 50.8967 17.4453 50.7958L17.1592 50.7234C11.9496 49.4058 8.77078 44.0193 10.0592 38.6921C10.1579 38.2841 10.5613 38.0352 10.9604 38.1361Z" fill="#FFD54F"/>
<path d="M20.0033 40.8228L16.842 40.0682L14.6592 48.5857C15.486 49.1126 16.4177 49.516 17.4345 49.7587L17.6972 49.8215C18.0636 49.9089 18.434 49.6931 18.5247 49.3396L20.5027 41.6213C20.5932 41.2677 20.3697 40.9102 20.0033 40.8228Z" fill="#FFCA28"/>
<path d="M44.0199 66.2583L30.5418 68.3964C29.9441 68.4911 29.3879 68.0467 29.2998 67.4037L27.3754 53.366C27.2873 52.723 27.7004 52.1248 28.2982 52.03L28.7267 51.9619C36.5314 50.7238 43.7916 56.5262 44.9425 64.922C45.0309 65.5653 44.6177 66.1633 44.0199 66.2583Z" fill="#FFD54F"/>
<path d="M44.9424 65.2109C43.7699 56.6304 36.3742 50.7001 28.4237 51.9656L27.9872 52.035C27.7403 52.0743 27.5272 52.201 27.3635 52.3783C32.9923 53.9679 37.4805 59.0443 38.3828 65.6485L38.6265 67.4318L44.0025 66.5763C44.6112 66.4795 45.0321 65.8681 44.9424 65.2109Z" fill="#FFCA28"/>
<path d="M23.7928 30.8873C26.4687 30.8873 28.6379 28.7181 28.6379 26.0422C28.6379 23.3664 26.4687 21.1971 23.7928 21.1971C21.117 21.1971 18.9478 23.3664 18.9478 26.0422C18.9478 28.7181 21.117 30.8873 23.7928 30.8873Z" fill="#FF9800"/>
<path d="M14.1705 60.5909C15.5198 60.5909 16.6137 59.497 16.6137 58.1477C16.6137 56.7984 15.5198 55.7045 14.1705 55.7045C12.8211 55.7045 11.7273 56.7984 11.7273 58.1477C11.7273 59.497 12.8211 60.5909 14.1705 60.5909Z" fill="#FF9800"/>
<path d="M23.7929 21.1971C22.8376 21.1971 21.9477 21.4746 21.1973 21.9518C22.5491 22.8115 23.4467 24.3215 23.4467 26.0422C23.4467 27.7627 22.5489 29.2727 21.1973 30.1326C21.9477 30.6098 22.8376 30.8873 23.7929 30.8873C26.4688 30.8873 28.6379 28.7181 28.6379 26.0422C28.6379 23.3663 26.4686 21.1971 23.7929 21.1971Z" fill="#FB8C00"/>
<path d="M14.0682 55.7045C13.5664 55.7045 13.0989 55.8445 12.7046 56.0851C13.4148 56.5186 13.8864 57.28 13.8864 58.1477C13.8864 59.0153 13.4147 59.7768 12.7046 60.2103C13.0989 60.451 13.5664 60.5909 14.0682 60.5909C15.4741 60.5909 16.6137 59.4971 16.6137 58.1477C16.6137 56.7984 15.474 55.7045 14.0682 55.7045Z" fill="#FB8C00"/>
<path d="M58.2274 54.2475C60.9032 54.2475 63.0724 52.0783 63.0724 49.4025C63.0724 46.7266 60.9032 44.5574 58.2274 44.5574C55.5515 44.5574 53.3823 46.7266 53.3823 49.4025C53.3823 52.0783 55.5515 54.2475 58.2274 54.2475Z" fill="#FF9800"/>
<path d="M58.2275 44.5574C57.2722 44.5574 56.3823 44.8349 55.6318 45.3121C56.9836 46.1718 57.8813 47.6818 57.8813 49.4025C57.8813 51.123 56.9835 52.633 55.6318 53.4929C56.3823 53.9701 57.2722 54.2475 58.2275 54.2475C60.9034 54.2475 63.0725 52.0784 63.0725 49.4025C63.0725 46.7266 60.9034 44.5574 58.2275 44.5574Z" fill="#FB8C00"/>
<path d="M54.7271 72.3182C58.5053 72.3182 61.5681 69.2554 61.5681 65.4773C61.5681 61.6991 58.5053 58.6364 54.7271 58.6364C50.949 58.6364 47.8862 61.6991 47.8862 65.4773C47.8862 69.2554 50.949 72.3182 54.7271 72.3182Z" fill="#FF9800"/>
<path d="M54.5682 58.6364C53.1881 58.6364 51.9024 59.0281 50.8181 59.7019C52.7712 60.9157 54.068 63.0478 54.068 65.4773C54.068 67.9065 52.7709 70.0386 50.8181 71.2526C51.9024 71.9264 53.1881 72.3182 54.5682 72.3182C58.4342 72.3182 61.5681 69.2555 61.5681 65.4773C61.5681 61.6993 58.4342 58.6364 54.5682 58.6364Z" fill="#FB8C00"/>
<path d="M41.5341 43.9773C45.5821 43.9773 48.8637 40.6957 48.8637 36.6477C48.8637 32.5997 45.5821 29.3182 41.5341 29.3182C37.4861 29.3182 34.2046 32.5997 34.2046 36.6477C34.2046 40.6957 37.4861 43.9773 41.5341 43.9773Z" fill="#FF9800"/>
<path d="M41.8636 29.3182C40.4835 29.3182 39.1978 29.738 38.1135 30.4599C40.0666 31.7603 41.3634 34.0447 41.3634 36.6477C41.3634 39.2505 40.0663 41.5348 38.1135 42.8356C39.1978 43.5575 40.4835 43.9773 41.8636 43.9773C45.7296 43.9773 48.8635 40.6958 48.8635 36.6477C48.8635 32.5996 45.7296 29.3182 41.8636 29.3182Z" fill="#FB8C00"/>
<path d="M48.5372 23.4466C51.213 23.4466 53.3823 21.2774 53.3823 18.6015C53.3823 15.9257 51.213 13.7565 48.5372 13.7565C45.8613 13.7565 43.6921 15.9257 43.6921 18.6015C43.6921 21.2774 45.8613 23.4466 48.5372 23.4466Z" fill="#FF9800"/>
<path d="M48.5373 13.7565C47.582 13.7565 46.6921 14.034 45.9417 14.5112C47.2935 15.3708 48.1911 16.8809 48.1911 18.6015C48.1911 20.322 47.2933 21.8321 45.9417 22.6919C46.6921 23.1691 47.582 23.4466 48.5373 23.4466C51.2132 23.4466 53.3823 21.2774 53.3823 18.6015C53.3823 15.9256 51.213 13.7565 48.5373 13.7565Z" fill="#FB8C00"/>
<path d="M36.9436 19.2902C36.2477 19.2902 35.6838 19.854 35.6838 20.5499V21.5881C35.6838 22.284 36.2477 22.8479 36.9436 22.8479C37.6395 22.8479 38.2034 22.284 38.2034 21.5881V20.5499C38.2034 19.854 37.6395 19.2902 36.9436 19.2902Z" fill="#4CAF50"/>
<path d="M29.5956 36.9862C30.122 36.9862 30.613 36.6536 30.7897 36.127C31.0111 35.4674 30.6558 34.7532 29.9962 34.5318L29.0121 34.2014C28.3516 33.9799 27.6383 34.3355 27.4169 34.9949C27.1955 35.6545 27.5508 36.3687 28.2104 36.5901L29.1945 36.9205C29.3277 36.965 29.4627 36.9862 29.5956 36.9862Z" fill="#4CAF50"/>
<path d="M69.562 47.1038C68.8739 47.0117 68.2379 47.494 68.1447 48.1835L68.0056 49.2123C67.9124 49.9017 68.3958 50.5362 69.0854 50.6296C69.1426 50.6374 69.1996 50.6411 69.2558 50.6411C69.8765 50.6411 70.4172 50.1822 70.5027 49.5499L70.6417 48.5211C70.7348 47.8316 70.2514 47.197 69.562 47.1038Z" fill="#4CAF50"/>
<path d="M52.1153 28.9764L51.3109 28.3202C50.7716 27.8804 49.9781 27.9607 49.5383 28.4999C49.0986 29.0389 49.1789 29.8326 49.7181 30.2725L50.5225 30.9287C50.7564 31.1196 51.038 31.2123 51.318 31.2123C51.6835 31.2123 52.0459 31.0542 52.2949 30.7489C52.7348 30.2098 52.6545 29.4164 52.1153 28.9764Z" fill="#4CAF50"/>
<path d="M59.6356 18.5431C59.0287 18.2043 58.2606 18.4216 57.9216 19.0295L57.4157 19.936C57.0768 20.5436 57.2944 21.311 57.9022 21.65C58.0963 21.7585 58.307 21.8097 58.5147 21.8097C58.9567 21.8097 59.3855 21.5769 59.6161 21.1635L60.122 20.257C60.4608 19.6495 60.2431 18.8822 59.6356 18.5431Z" fill="#4CAF50"/>
<path d="M27.8837 16.6799L28.6654 17.3632C28.9043 17.5722 29.1997 17.6746 29.494 17.6746C29.8449 17.6746 30.1939 17.5289 30.4428 17.244C30.9009 16.7203 30.8473 15.9244 30.3234 15.4665L29.5417 14.7832C29.0181 14.325 28.2221 14.3786 27.7643 14.9027C27.3062 15.4262 27.3598 16.2221 27.8837 16.6799Z" fill="#4CAF50"/>
<path d="M43.7282 50.448C43.9128 50.5429 44.1097 50.5881 44.304 50.5881C44.7607 50.5881 45.2015 50.3389 45.4251 49.9048L45.9004 48.9818C46.2189 48.3634 45.9757 47.6037 45.3572 47.285C44.7386 46.9666 43.9792 47.2098 43.6604 47.8282L43.185 48.7512C42.8664 49.3697 43.1096 50.1294 43.7282 50.448Z" fill="#4CAF50"/>
<path d="M31.5808 44.6425C31.0403 44.2043 30.247 44.2878 29.8089 44.8281L29.1552 45.6349C28.7173 46.1754 28.8005 46.9687 29.3408 47.4068C29.5741 47.5959 29.8546 47.6878 30.1331 47.6878C30.5001 47.6878 30.8638 47.5284 31.1127 47.2212L31.7664 46.4144C32.2045 45.8739 32.1212 45.0806 31.5808 44.6425Z" fill="#4CAF50"/>
<path d="M45.3302 70.013L44.2922 69.9877C43.5966 69.9789 43.0192 70.5208 43.0019 71.2162C42.9847 71.9117 43.535 72.4894 44.2304 72.5065L45.2684 72.5319C45.279 72.5321 45.2894 72.5322 45.3 72.5322C45.9814 72.5322 46.542 71.9883 46.5588 71.3034C46.5759 70.6078 46.0258 70.0301 45.3302 70.013Z" fill="#4CAF50"/>
<path d="M25.163 61.1132L24.3003 60.5356C23.722 60.1482 22.9396 60.3033 22.5526 60.8813C22.1654 61.4594 22.3201 62.242 22.8983 62.629L23.7609 63.2066C23.9763 63.3507 24.2198 63.4199 24.4609 63.4199C24.867 63.4199 25.2658 63.2237 25.5087 62.8611C25.8957 62.2828 25.741 61.5004 25.163 61.1132Z" fill="#4CAF50"/>
</svg>
