<svg width="90" height="82" viewBox="0 0 90 82" fill="none" xmlns="http://www.w3.org/2000/svg">
<g clip-path="url(#clip0)">
<path d="M15.4688 28.3877C14.7228 28.3877 14.0075 28.0924 13.48 27.5668C12.9526 27.0412 12.6562 26.3283 12.6562 25.585C12.6562 24.8416 12.9526 24.1287 13.48 23.6031C14.0075 23.0775 14.7228 22.7822 15.4688 22.7822H74.5312C75.2772 22.7822 75.9925 23.0775 76.52 23.6031C77.0474 24.1287 77.3438 24.8416 77.3438 25.585C77.3438 26.3283 77.0474 27.0412 76.52 27.5668C75.9925 28.0924 75.2772 28.3877 74.5312 28.3877V31.1904C75.2772 31.1904 75.9925 31.4857 76.52 32.0113C77.0474 32.5369 77.3438 33.2498 77.3438 33.9932C77.3438 34.7365 77.0474 35.4494 76.52 35.975C75.9925 36.5006 75.2772 36.7959 74.5312 36.7959H15.4688C14.7228 36.7959 14.0075 36.5006 13.48 35.975C12.9526 35.4494 12.6562 34.7365 12.6562 33.9932C12.6562 33.2498 12.9526 32.5369 13.48 32.0113C14.0075 31.4857 14.7228 31.1904 15.4688 31.1904V28.3877Z" fill="#58B5EA"/>
<path d="M30.9375 28.3877V31.1904C30.1916 31.1904 29.4762 31.4857 28.9488 32.0113C28.4213 32.5369 28.125 33.2498 28.125 33.9932C28.125 34.7365 28.4213 35.4494 28.9488 35.975C29.4762 36.5006 30.1916 36.7959 30.9375 36.7959H15.4688C14.7228 36.7959 14.0075 36.5006 13.48 35.975C12.9526 35.4494 12.6562 34.7365 12.6562 33.9932C12.6562 33.2498 12.9526 32.5369 13.48 32.0113C14.0075 31.4857 14.7228 31.1904 15.4688 31.1904V28.3877C14.7228 28.3877 14.0075 28.0924 13.48 27.5668C12.9526 27.0412 12.6562 26.3283 12.6562 25.585C12.6562 24.8416 12.9526 24.1287 13.48 23.6031C14.0075 23.0775 14.7228 22.7822 15.4688 22.7822H30.9375C30.1916 22.7822 29.4762 23.0775 28.9488 23.6031C28.4213 24.1287 28.125 24.8416 28.125 25.585C28.125 26.3283 28.4213 27.0412 28.9488 27.5668C29.4762 28.0924 30.1916 28.3877 30.9375 28.3877Z" fill="#4694C0"/>
<path d="M15.4688 76.0342C15.4688 76.0342 12.6562 69.0273 12.6562 56.415C12.6562 43.8027 15.4688 36.7959 15.4688 36.7959H74.5312C74.5312 36.7959 77.3438 43.8027 77.3438 56.415C77.3438 69.0273 74.5312 76.0342 74.5312 76.0342C75.2772 76.0342 75.9925 76.3295 76.52 76.8551C77.0474 77.3807 77.3438 78.0936 77.3438 78.8369C77.3438 79.5802 77.0474 80.2931 76.52 80.8187C75.9925 81.3444 75.2772 81.6396 74.5312 81.6396H15.4688C14.7228 81.6396 14.0075 81.3444 13.48 80.8187C12.9526 80.2931 12.6562 79.5802 12.6562 78.8369C12.6562 78.0936 12.9526 77.3807 13.48 76.8551C14.0075 76.3295 14.7228 76.0342 15.4688 76.0342Z" fill="#58B5EA"/>
<path d="M30.9375 76.0342C30.9375 76.0342 28.125 69.0273 28.125 56.415C28.125 43.8027 30.9375 36.7959 30.9375 36.7959H15.4688C15.4688 36.7959 12.6562 43.8027 12.6562 56.415C12.6562 69.0273 15.4688 76.0342 15.4688 76.0342C14.7228 76.0342 14.0075 76.3295 13.48 76.8551C12.9526 77.3807 12.6562 78.0936 12.6562 78.8369C12.6562 79.5802 12.9526 80.2931 13.48 80.8187C14.0075 81.3444 14.7228 81.6396 15.4688 81.6396H30.9375C30.1916 81.6396 29.4762 81.3444 28.9488 80.8187C28.4213 80.2931 28.125 79.5802 28.125 78.8369C28.125 78.0936 28.4213 77.3807 28.9488 76.8551C29.4762 76.3295 30.1916 76.0342 30.9375 76.0342Z" fill="#4694C0"/>
<path d="M71.7188 22.7822H63.2812L53.4375 12.9727L57.6562 8.76855L71.7188 22.7822Z" fill="white"/>
<path d="M63.2812 22.7822L53.4375 12.9727L57.6562 8.76855L63.2812 22.7822Z" fill="#BCCCD5"/>
<path d="M63.2812 22.7822H18.2812L40.7812 0.360352L53.4375 12.9727L63.2812 22.7822Z" fill="white"/>
<path d="M40.7812 22.7822H18.2812L40.7812 0.360352V22.7822Z" fill="#BCCCD5"/>
<path d="M15.4688 26.9863H64.6875V29.7891H15.4688V26.9863Z" fill="#B1F3FF"/>
<path d="M67.5 26.9863H70.3125V29.7891H67.5V26.9863Z" fill="#B1F3FF"/>
<path d="M15.4688 74.6328H61.875V77.4355H15.4688V74.6328Z" fill="#B1F3FF"/>
<path d="M64.6875 74.6328H67.5V77.4355H64.6875V74.6328Z" fill="#B1F3FF"/>
<path d="M25.3125 49.4082H19.6875C19.3145 49.4082 18.9569 49.5558 18.6931 49.8187C18.4294 50.0815 18.2812 50.4379 18.2812 50.8096V56.415C18.2812 56.7867 18.4294 57.1431 18.6931 57.406C18.9569 57.6688 19.3145 57.8164 19.6875 57.8164H23.9062V60.6191H18.2812V62.0205C18.2812 62.3922 18.4294 62.7486 18.6931 63.0114C18.9569 63.2742 19.3145 63.4219 19.6875 63.4219H25.3125C25.6855 63.4219 26.0431 63.2742 26.3069 63.0114C26.5706 62.7486 26.7188 62.3922 26.7188 62.0205V56.415C26.7188 56.0434 26.5706 55.6869 26.3069 55.4241C26.0431 55.1613 25.6855 55.0137 25.3125 55.0137H21.0938V52.2109H26.7188V50.8096C26.7188 50.4379 26.5706 50.0815 26.3069 49.8187C26.0431 49.5558 25.6855 49.4082 25.3125 49.4082Z" fill="white"/>
<path d="M35.1562 60.6191H32.3438V49.4082H29.5312V62.0205C29.5312 62.3922 29.6794 62.7486 29.9431 63.0114C30.2069 63.2742 30.5645 63.4219 30.9375 63.4219H36.5625C36.9355 63.4219 37.2931 63.2742 37.5569 63.0114C37.8206 62.7486 37.9688 62.3922 37.9688 62.0205V49.4082H35.1562V60.6191Z" fill="white"/>
<path d="M47.8125 49.4082H42.1875C41.8145 49.4082 41.4569 49.5558 41.1931 49.8187C40.9294 50.0815 40.7812 50.4379 40.7812 50.8096V62.0205C40.7812 62.3922 40.9294 62.7486 41.1931 63.0114C41.4569 63.2742 41.8145 63.4219 42.1875 63.4219H47.8125C48.1855 63.4219 48.5431 63.2742 48.8069 63.0114C49.0706 62.7486 49.2188 62.3922 49.2188 62.0205V56.415C49.2188 56.0434 49.0706 55.6869 48.8069 55.4241C48.5431 55.1613 48.1855 55.0137 47.8125 55.0137H45V57.8164H46.4062V60.6191H43.5938V52.2109H49.2188V50.8096C49.2188 50.4379 49.0706 50.0815 48.8069 49.8187C48.5431 49.5558 48.1855 49.4082 47.8125 49.4082Z" fill="white"/>
<path d="M59.0625 49.4082H53.4375C53.0645 49.4082 52.7069 49.5558 52.4431 49.8187C52.1794 50.0815 52.0312 50.4379 52.0312 50.8096V63.4219H54.8438V57.8164H57.6562V63.4219H60.4688V50.8096C60.4688 50.4379 60.3206 50.0815 60.0569 49.8187C59.7931 49.5558 59.4355 49.4082 59.0625 49.4082ZM54.8438 55.0137V52.2109H57.6562V55.0137H54.8438Z" fill="white"/>
<path d="M71.7188 52.2109V50.8096C71.7188 50.4379 71.5706 50.0815 71.3069 49.8187C71.0431 49.5558 70.6855 49.4082 70.3125 49.4082H64.6875C64.3145 49.4082 63.9569 49.5558 63.6931 49.8187C63.4294 50.0815 63.2812 50.4379 63.2812 50.8096V63.4219H66.0938V57.8164H66.9176L68.9062 59.7981V63.4219H71.7188V59.2178C71.7188 59.0337 71.6824 58.8515 71.6117 58.6815C71.5411 58.5115 71.4375 58.357 71.3069 58.2268L69.3095 56.2365L71.4825 52.9883C71.6366 52.7582 71.7188 52.4876 71.7188 52.2109ZM66.0938 52.2109H68.6224L66.7475 55.0137H66.0938V52.2109Z" fill="white"/>
</g>
<defs>
<clipPath id="clip0">
<rect width="90" height="82" fill="white"/>
</clipPath>
</defs>
</svg>
