<svg width="76" height="95" viewBox="0 0 76 95" fill="none" xmlns="http://www.w3.org/2000/svg">
<g clip-path="url(#clip0)">
<path fill-rule="evenodd" clip-rule="evenodd" d="M35.5028 12.5001C33.7597 5.09864 30.088 0 25.8335 0C21.5845 0 17.9128 5.09864 16.1697 12.5001L26.6071 15.9624L35.5028 12.5001Z" fill="#FFD772"/>
<path fill-rule="evenodd" clip-rule="evenodd" d="M29.87 12.5001H35.5027C33.7596 5.09864 30.0879 0 25.8335 0C24.8638 0 23.9159 0.265517 23.0225 0.769463C26.0405 2.4546 28.53 6.79454 29.87 12.5001V12.5001Z" fill="#FBBA58"/>
<path fill-rule="evenodd" clip-rule="evenodd" d="M49.808 60.9024V49.8868C49.808 41.0223 45.1286 35.4198 36.6251 33.9406C36.6251 30.5161 35.4213 23.2286 33.1931 20.9582L26.2313 17.6802L18.4796 20.9582C16.246 23.2286 15.0476 30.5161 15.0476 33.9406C6.5441 35.4198 1.86469 41.0223 1.86469 49.8868V88.7418V90.7413C1.86469 93.082 3.78764 95.0001 6.14638 95.0001H44.3387L49.808 60.9024Z" fill="#7FDBAE"/>
<path fill-rule="evenodd" clip-rule="evenodd" d="M33.5525 20.9582C37.7795 20.9582 41.7838 16.3772 42.3041 13.1712C42.3612 12.8199 42.0929 12.5002 41.7351 12.5002H35.5027H25.8334H16.1696H9.93713C9.57933 12.5002 9.31107 12.8199 9.36815 13.1712C9.88844 16.3772 13.8927 20.9582 18.1198 20.9582H33.5525Z" fill="#EA9A58"/>
<path fill-rule="evenodd" clip-rule="evenodd" d="M33.5527 20.9582C37.7797 20.9582 41.784 16.3772 42.3043 13.1712C42.3614 12.8199 42.0931 12.5002 41.7353 12.5002H36.7341C36.7341 15.6916 32.4578 20.9582 27.92 20.9582H28.8624H33.1932H33.5527Z" fill="#D88954"/>
<path fill-rule="evenodd" clip-rule="evenodd" d="M26.5363 25.3796C28.6663 25.3796 30.551 24.9894 30.9107 27.0647C31.2157 28.8257 32.376 32.2881 32.5014 33.778C32.7519 36.7148 31.9621 37.7606 34.577 38.0639C43.8487 39.1368 42.8299 46.6087 42.8299 50.2985V60.9022H49.8082V49.8866C49.8082 41.0221 45.1288 35.4195 36.6253 33.9403C36.6253 30.5159 35.4215 23.2284 33.1933 20.958C28.2852 20.958 23.3823 20.958 18.4796 20.958C17.608 21.8412 16.8943 23.4939 16.3495 25.3794H26.5363V25.3796Z" fill="#3BC3A4"/>
<path fill-rule="evenodd" clip-rule="evenodd" d="M41.348 61.8937C41.348 61.3466 41.8002 60.9022 42.3503 60.9022H42.8298V48.7218C42.8298 47.4701 42.6499 47.0259 41.3208 47.0259H39.8009C33.0896 47.0259 32.3542 40.616 25.8336 40.551C19.3129 40.616 18.583 47.0259 11.8662 47.0259H10.3464C9.01724 47.0259 8.8374 47.4703 8.8374 48.7218V86.7587H41.348V68.8293V61.8937Z" fill="#F9F7F8"/>
<path fill-rule="evenodd" clip-rule="evenodd" d="M41.3479 61.8937C41.3479 61.3466 41.8001 60.9022 42.3502 60.9022H42.8296V48.7218C42.8296 47.4701 42.6498 47.0259 41.3207 47.0259H39.8008C33.5363 47.0259 32.4793 41.445 27.0701 40.6431C31.2375 45.758 35.9495 53.1595 36.4452 61.5145C36.4942 62.3923 36.5215 59.2712 36.5215 64.1802C36.5215 69.0893 33.9122 81.1288 29.7393 86.7585H41.3479V68.8291V61.8937Z" fill="#DDDAEC"/>
<path d="M33.2202 63.4312H29.6031C28.8007 63.4312 28.1504 62.7843 28.1504 61.9863C28.1504 61.1883 28.8007 60.5415 29.6031 60.5415H33.2202C33.5366 60.5415 33.7939 60.2854 33.7939 59.9707V57.3321C33.7939 56.534 34.4442 55.8872 35.2466 55.8872C36.0489 55.8872 36.6992 56.534 36.6992 57.3321V59.9707C36.6994 61.8787 35.1387 63.4312 33.2202 63.4312V63.4312Z" fill="#3BC3A4"/>
<path d="M21.8351 66.6925H18.4522C16.5338 66.6925 14.9731 65.14 14.9731 63.232V59.0057C14.9731 58.2076 15.6234 57.5608 16.4257 57.5608C17.2281 57.5608 17.8784 58.2076 17.8784 59.0057V63.232C17.8784 63.5467 18.1359 63.8028 18.4521 63.8028H21.8349C22.6373 63.8028 23.2876 64.4496 23.2876 65.2476C23.2878 66.0457 22.6373 66.6925 21.8351 66.6925V66.6925Z" fill="#3BC3A4"/>
<path d="M29.0801 78.7811H22.358C21.5556 78.7811 20.9053 78.1342 20.9053 77.3362C20.9053 76.5382 21.5556 75.8914 22.358 75.8914H29.0801C29.8825 75.8914 30.5328 76.5382 30.5328 77.3362C30.5328 78.1342 29.8825 78.7811 29.0801 78.7811Z" fill="#375E7D"/>
<path fill-rule="evenodd" clip-rule="evenodd" d="M29.6033 72.1562V61.986V57.9819C29.6033 55.858 27.8546 54.1187 25.7191 54.1187C23.5783 54.1187 21.835 55.858 21.835 57.9819V65.2479V72.1564H29.6033V72.1562Z" fill="#A7E9A6"/>
<path fill-rule="evenodd" clip-rule="evenodd" d="M29.6033 72.1562V61.986V57.9819C29.6033 55.858 27.8546 54.1187 25.7191 54.1187C25.011 54.1187 24.3463 54.3083 23.7744 54.6387C24.9347 55.3106 25.7191 56.5623 25.7191 57.9819V72.1564H29.6033V72.1562Z" fill="#7FDBAE"/>
<path d="M32.7791 73.6011H18.6591C17.8568 73.6011 17.2065 72.9543 17.2065 72.1563C17.2065 71.3582 17.8568 70.7114 18.6591 70.7114H32.7791C33.5815 70.7114 34.2318 71.3582 34.2318 72.1563C34.2318 72.9543 33.5815 73.6011 32.7791 73.6011Z" fill="#D88954"/>
<path d="M56.9849 54.7301C56.616 54.3632 56.6377 53.7582 57.0365 53.423C61.5145 49.6584 68.2231 49.8754 72.4442 54.0739C76.6657 58.2726 76.8836 64.9448 73.0986 69.3991C72.7616 69.7957 72.1537 69.8173 71.7844 69.45L56.9849 54.7301Z" fill="#82CD64"/>
<path d="M72.4445 54.0738C70.9407 52.578 69.1208 51.5899 67.1988 51.1045C68.2947 51.6399 69.3231 52.3576 70.2347 53.264C74.4504 57.4573 74.6707 64.1166 70.9003 68.5706L71.7844 69.45C72.1537 69.8173 72.7615 69.7953 73.0986 69.399C76.8836 64.9447 76.6657 58.2726 72.4445 54.0738V54.0738Z" fill="#5DB33A"/>
<path d="M58.7925 56.5277C61.876 53.4605 66.8937 53.4605 69.9771 56.5277C73.0609 59.5946 73.0609 64.5853 69.9771 67.6521L58.7925 56.5277Z" fill="#FFF2B2"/>
<path d="M69.9771 56.5279C68.6494 55.2073 66.9633 54.4568 65.2272 54.2732C66.0275 54.6489 66.7779 55.1644 67.4388 55.8216C70.211 58.579 70.4893 62.8901 68.2771 65.9614L69.9771 67.6523C73.0609 64.5854 73.0606 59.5947 69.9771 56.5279Z" fill="#FFEA84"/>
<path d="M63.8373 93.3895L67.1794 61.809C67.235 61.2834 66.8206 60.8257 66.2891 60.8257H40.7907C40.2592 60.8257 39.8448 61.2834 39.9005 61.809L43.2425 93.3895C43.3396 94.3046 44.1155 94.9997 45.041 94.9997H62.0388C62.964 94.9997 63.7402 94.3046 63.8373 93.3895V93.3895Z" fill="#DEF4F8" fill-opacity="0.53"/>
<path opacity="0.26" d="M65.6559 60.8257L62.2097 93.3895C62.1129 94.305 61.3367 94.9997 60.4112 94.9997H62.039C62.9642 94.9997 63.7404 94.3046 63.8374 93.3895L67.1795 61.809C67.2351 61.2834 66.8207 60.8257 66.2892 60.8257H65.6559Z" fill="white"/>
<path d="M43.2366 65.5779L44.8246 82.1134C45.0904 84.8818 47.4288 86.996 50.2251 86.996H56.855C59.6513 86.996 61.9894 84.8821 62.2555 82.1134L63.8432 65.5779C63.8934 65.055 63.4804 64.603 62.9523 64.603H44.1275C43.5997 64.603 43.1863 65.055 43.2366 65.5779V65.5779Z" fill="#FFE046"/>
<path d="M61.316 64.603L59.6342 82.113C59.3681 84.8818 57.03 86.996 54.2337 86.996H56.8545C59.6509 86.996 61.9893 84.8818 62.2551 82.113L63.8431 65.5779C63.8934 65.055 63.48 64.603 62.9522 64.603H61.316Z" fill="#FFD508"/>
</g>
<defs>
<clipPath id="clip0">
<rect width="76" height="95" fill="white"/>
</clipPath>
</defs>
</svg>
