<svg width="74" height="74" viewBox="0 0 74 74" fill="none" xmlns="http://www.w3.org/2000/svg">
<path d="M58.3662 4.4668C47.6831 4.4668 47.6831 0 37 0L56.1328 74H60.5996C65.5335 74 69.5332 70.0003 69.5332 65.0664V31.0404C72.2959 28.2207 74 24.36 74 20.1006C74 11.4663 67.0005 4.4668 58.3662 4.4668Z" fill="#C87044"/>
<path d="M65.0664 65.0664L58.3662 8.9336C52.1283 8.9336 48.8513 6.19322 45.9601 3.77534C43.4376 1.66597 41.4452 0 37 0C26.3169 0 26.3169 4.4668 15.6338 4.4668C6.99948 4.4668 0 11.4663 0 20.1006C0 24.36 1.70408 28.2208 4.4668 31.0404V65.0664C4.4668 70.0003 8.46652 74 13.4004 74H56.1328C61.0667 74 65.0664 70.0003 65.0664 65.0664Z" fill="#DB905A"/>
<path d="M58.3662 8.93359L56.1328 69.5332H60.5996C63.0626 69.5332 65.0664 67.5294 65.0664 65.0664V31.0404C65.0664 29.8714 65.5246 28.7492 66.3426 27.9142C68.4001 25.8144 69.5332 23.0394 69.5332 20.1006C69.5332 13.9431 64.5237 8.93359 58.3662 8.93359Z" fill="#FFD185"/>
<path d="M60.5996 65.0664V31.0404C60.5996 28.6885 61.5061 26.4682 63.1521 24.7882C64.3865 23.5283 65.0664 21.8635 65.0664 20.1006C65.0664 13.9431 62.0607 8.93363 58.3662 8.93363C52.1283 8.93363 48.8513 7.56336 45.9601 6.3545C43.4375 5.29989 41.4452 4.46683 37 4.46683C32.5546 4.46683 30.5624 5.29989 28.04 6.3545C25.1487 7.56336 21.8715 8.93363 15.6338 8.93363C9.47631 8.93363 4.4668 13.9431 4.4668 20.1006C4.4668 23.0395 5.59988 25.8144 7.65743 27.9144C8.47545 28.7493 8.9336 29.8716 8.9336 31.0404V65.0664C8.9336 67.5294 10.9374 69.5332 13.4004 69.5332H56.1328C58.5958 69.5332 60.5996 67.5294 60.5996 65.0664Z" fill="#FFE8C2"/>
<path d="M58.3662 21.2173C58.9829 21.2173 59.4829 20.7173 59.4829 20.1006C59.4829 19.4839 58.9829 18.9839 58.3662 18.9839C57.7495 18.9839 57.2495 19.4839 57.2495 20.1006C57.2495 20.7173 57.7495 21.2173 58.3662 21.2173Z" fill="#FFD185"/>
<path d="M53.8994 25.6841C54.5161 25.6841 55.0161 25.1842 55.0161 24.5674C55.0161 23.9507 54.5161 23.4507 53.8994 23.4507C53.2827 23.4507 52.7827 23.9507 52.7827 24.5674C52.7827 25.1842 53.2827 25.6841 53.8994 25.6841Z" fill="#FFD185"/>
<path d="M15.6338 57.2495C16.2505 57.2495 16.7505 56.7495 16.7505 56.1328C16.7505 55.516 16.2505 55.0161 15.6338 55.0161C15.0171 55.0161 14.5171 55.516 14.5171 56.1328C14.5171 56.7495 15.0171 57.2495 15.6338 57.2495Z" fill="#FFD185"/>
<path d="M20.1006 61.7163C20.7173 61.7163 21.2173 61.2163 21.2173 60.5996C21.2173 59.9828 20.7173 59.4828 20.1006 59.4828C19.4838 59.4828 18.9839 59.9828 18.9839 60.5996C18.9839 61.2163 19.4838 61.7163 20.1006 61.7163Z" fill="#FFD185"/>
<path d="M15.6338 21.2173C16.2505 21.2173 16.7505 20.7173 16.7505 20.1006C16.7505 19.4839 16.2505 18.9839 15.6338 18.9839C15.0171 18.9839 14.5171 19.4839 14.5171 20.1006C14.5171 20.7173 15.0171 21.2173 15.6338 21.2173Z" fill="#FFD185"/>
</svg>
