<svg width="32" height="95" viewBox="0 0 32 95" fill="none" xmlns="http://www.w3.org/2000/svg">
<g clip-path="url(#clip0)">
<path fill-rule="evenodd" clip-rule="evenodd" d="M23.1655 17.0191L26.3637 23.7022L26.3637 23.7022L29.4083 30.064C31.1376 33.6778 32.0352 37.6317 32.0352 41.636V48.169L31.6519 48.407L31.6474 76.5174L32.0352 76.8411V89.2656C32.0352 90.3903 31.7099 91.4389 31.1489 92.3243C30.1303 93.9319 27.7581 94.4266 25.7103 94.4266L6.16086 94.6177C2.98522 94.6177 0.411011 92.0504 0.411011 88.8833L0.602672 41.636C0.602672 37.6315 1.50022 33.6778 3.22978 30.064L6.27413 24.2757L7.4528 23.9818L6.27417 23.7022L9.47243 17.0191C10.2575 15.3785 10.6649 13.5839 10.6649 11.766V9.17505H21.973V11.766C21.973 13.5839 22.3804 15.3787 23.1655 17.0191Z" fill="#F9F8F9"/>
<path fill-rule="evenodd" clip-rule="evenodd" d="M12.7732 9.17505V12.1483C12.7732 13.9661 12.3658 15.7608 11.5807 17.4014L8.57411 23.7022L8.57409 23.7022L5.52955 30.064C3.80018 33.678 2.90263 37.6317 2.90263 41.636V89.2656L2.90283 89.2992C2.9126 90.9819 4.32304 92.3239 6.01023 92.3239L31.149 92.3243C30.1303 93.9319 28.3331 95 26.2854 95H8.65248H5.77756C5.66141 95 5.54623 94.9954 5.4318 94.9887C4.08596 94.913 2.77824 94.3428 1.80767 93.4116C0.711556 92.3675 0.02771 90.8967 0.02771 89.2656V76.841L0.411033 75.745L0.418888 48.739L0.02771 48.169V41.636C0.02771 37.6315 0.925261 33.6778 2.65482 30.064L5.69917 23.7022H5.69921L5.69919 23.7022L8.89745 17.0191C9.68249 15.3785 10.09 13.5839 10.09 11.766V9.17505H12.7732Z" fill="#D6DDDF"/>
<path d="M21.754 9.27734H10.2953C9.84969 9.27734 9.48834 8.85343 9.48834 8.33068V1.32533C9.48834 0.802585 9.84969 0.378667 10.2953 0.378667L11.425 0H22.0767C22.5223 0 22.8837 0.423918 22.8837 0.946668V7.00534L22.5609 8.33068C22.5609 8.85343 22.1996 9.27734 21.754 9.27734Z" fill="#B9C3CD"/>
<path d="M12.1937 7.13446C11.7465 7.13446 11.3838 6.70273 11.3838 6.17034V0H9.92612C9.47892 0 9.11627 0.431731 9.11627 0.964116V8.86987C9.11627 9.40225 9.47892 9.83398 9.92612 9.83398H22.0739C22.5211 9.83398 22.8837 9.40225 22.8837 8.86987V7.13446H12.1937Z" fill="#A2ABB8"/>
<path d="M32.0352 76.841H2.90267L0.411072 76.4587V48.5512L2.90267 48.1689H32.0352V59.2555V62.2509V65.7545V76.841Z" fill="#64F8C2"/>
<path d="M2.90263 48.1689H0.02771V59.2555V62.5292V65.7545V76.841H2.90263V48.1689Z" fill="#45E1B3"/>
<path d="M16 71.0645C20.8293 71.0645 24.7442 67.2431 24.7442 62.5293C24.7442 57.8155 20.8293 53.9941 16 53.9941C11.1707 53.9941 7.2558 57.8155 7.2558 62.5293C7.2558 67.2431 11.1707 71.0645 16 71.0645Z" fill="#FC4242"/>
<path d="M17.15 60.6422L14.2617 61.5957C13.558 61.828 12.7917 61.4078 12.5503 60.6573C12.3088 59.9068 12.6836 59.11 13.3873 58.8777L16.2755 57.9243C16.9792 57.692 17.7455 58.1121 17.987 58.8627C18.2284 59.6132 17.8537 60.41 17.15 60.6422Z" fill="#F9F8F9"/>
<path d="M20.6278 64.7224L13.8347 66.9634C13.1312 67.1955 12.3653 66.7758 12.1239 66.0261C11.8825 65.2763 12.2571 64.4803 12.9605 64.2483L19.7537 62.0072C20.4571 61.7751 21.2231 62.1948 21.4645 62.9446C21.7059 63.6944 21.3313 64.4903 20.6278 64.7224Z" fill="#F9F8F9"/>
</g>
<defs>
<clipPath id="clip0">
<rect width="32" height="95" fill="white"/>
</clipPath>
</defs>
</svg>
