<svg width="85" height="75" viewBox="0 0 85 75" fill="none" xmlns="http://www.w3.org/2000/svg">
<path d="M40.0244 3.75533L36.8578 5.80762L35.0439 3.06653C31.0489 2.65896 27.9273 2.63672 27.5586 2.63672C27.1522 2.63672 26.2499 2.64801 25.0684 2.69167L23.1399 5.31057L20.0879 3.02403C17.0158 3.32286 13.4519 3.8561 10.1854 4.79144L7.94916 8.16703L5.2094 6.76204C2.23772 8.35928 0 10.5555 0 13.6336V30.0293C0 31.4057 1.1138 32.5195 2.49023 32.5195H15.1074L17.8336 30.0293L20.0879 32.5195H27.5586H30.0488L32.4604 30.0293L35.0293 32.5195H44.9902L47.2054 30.0293L49.9707 32.5195H52.4609C53.8374 32.5195 54.9512 31.4057 54.9512 30.0293V13.6336C54.9512 7.75033 47.2618 5.02751 40.0244 3.75533V3.75533Z" fill="#FF3D60"/>
<path d="M32.4604 30.0293L35.0293 32.5195H44.9902L47.2054 30.0293L49.9707 32.5195H52.4609C53.8374 32.5195 54.9512 31.4057 54.9512 30.0293V13.6336C54.9512 7.75033 47.2618 5.02751 40.0244 3.75533L36.8578 5.80762L35.0439 3.06653C31.0489 2.65896 27.9273 2.63672 27.5586 2.63672V32.5195H30.0488L32.4604 30.0293Z" fill="#CC2944"/>
<path d="M29.4991 16.0242C28.8016 15.1525 28.1567 14.2963 27.5586 13.4143C26.1211 11.2946 25.0717 8.93304 25.0684 5.17577V2.69168C23.7339 2.74099 22.027 2.83512 20.0879 3.02388V5.17793C20.0977 12.2449 23.0255 15.9074 25.6131 19.1369C26.3125 20.0114 26.9588 20.8699 27.5586 21.7551C28.9983 23.8809 30.0488 26.2523 30.0488 30.0291V32.5194H35.0293V30.0291C35.0293 22.9331 32.0916 19.2634 29.4991 16.0242V16.0242Z" fill="#FF557E"/>
<path d="M30.0488 32.5195H35.0293V30.0293C35.0293 22.9331 32.0916 19.2633 29.4991 16.0242C28.8016 15.1525 28.1567 14.2963 27.5586 13.4143V21.7552C28.9983 23.8811 30.0488 26.2524 30.0488 30.0293V32.5195Z" fill="#FF3D60"/>
<path d="M44.3725 16.085C42.1061 13.2933 40.1459 10.8832 40.0244 6.27247V3.75534C38.2965 3.45137 36.6091 3.22642 35.0439 3.06654V6.33805C35.2141 12.7071 38.0254 16.1725 40.5108 19.227C42.9134 22.1866 44.9903 24.74 44.9903 30.0293V32.5195H49.9708V30.0293C49.9708 22.972 46.9991 19.3145 44.3725 16.085Z" fill="#FF3D60"/>
<path d="M14.4217 16.1628C12.2671 13.5509 10.4043 11.2966 10.1855 7.37397V4.79143C8.37772 5.30906 6.69116 5.96599 5.20947 6.7622L5.2098 7.51027C5.52108 13.2033 8.2107 16.462 10.5842 19.3341C13.0112 22.274 15.1075 24.8129 15.1075 30.0293V32.5195H20.088V30.0293C20.088 23.0206 17.0773 19.3777 14.4217 16.1628Z" fill="#FF557E"/>
<path d="M54.9658 23.6772L51.7992 25.7295L49.9853 22.9884C45.9903 22.5808 42.8687 22.5586 42.5 22.5586C42.0936 22.5586 41.1913 22.5699 40.0098 22.6135L38.0813 25.2324L35.0293 22.9459C31.9572 23.2447 28.3933 23.778 25.1268 24.7133L22.8907 28.0891L20.151 26.6841C17.1791 28.2812 15.1074 30.4774 15.1074 33.5555V49.9512C15.1074 51.3276 16.2212 52.4414 17.5977 52.4414H30.0488L32.775 49.9512L35.0293 52.4414H42.5H44.9902L47.4018 49.9512L49.9707 52.4414H59.9316L62.1468 49.9512L64.9121 52.4414H67.4023C68.7788 52.4414 69.8926 51.3276 69.8926 49.9512V33.5555C69.8926 27.6722 62.2032 24.9494 54.9658 23.6772V23.6772Z" fill="#FF3D60"/>
<path d="M47.4018 49.9512L49.9707 52.4414H59.9316L62.1468 49.9512L64.9121 52.4414H67.4023C68.7788 52.4414 69.8926 51.3276 69.8926 49.9512V33.5555C69.8926 27.6722 62.2032 24.9494 54.9658 23.6772L51.7992 25.7295L49.9853 22.9884C45.9903 22.5808 42.8687 22.5586 42.5 22.5586V52.4414H44.9902L47.4018 49.9512Z" fill="#CC2944"/>
<path d="M44.4406 35.9461C43.743 35.0743 43.0982 34.2182 42.5 33.3362C41.0625 31.2165 40.0131 28.8549 40.0098 25.0976V22.6137C38.6753 22.663 36.9684 22.7571 35.0293 22.9459V25.1C35.0391 32.1669 37.9669 35.8294 40.5545 39.0589C41.2539 39.9335 41.9002 40.7919 42.5 41.6771C43.9397 43.8029 44.9902 46.1743 44.9902 49.9512V52.4414H49.9707V49.9512C49.9707 42.855 47.0331 39.1852 44.4406 35.9461Z" fill="#FF557E"/>
<path d="M44.9902 52.4414H49.9707V49.9512C49.9707 42.855 47.0331 39.1852 44.4406 35.9461C43.743 35.0743 43.0982 34.2182 42.5 33.3362V41.6771C43.9397 43.803 44.9902 46.1743 44.9902 49.9512V52.4414Z" fill="#FF3D60"/>
<path d="M59.3139 36.0069C57.0475 33.2151 55.0873 30.8051 54.9658 26.1943V23.6774C53.2379 23.3734 51.5505 23.1484 49.9854 22.9886V26.2601C50.1555 32.6291 52.9668 36.0945 55.4522 39.149C57.8548 42.1084 59.9317 44.6619 59.9317 49.9512V52.4414H64.9121V49.9512C64.9121 42.8938 61.9405 39.2364 59.3139 36.0069Z" fill="#FF3D60"/>
<path d="M29.363 36.0847C27.2083 33.473 25.3456 31.2185 25.1266 27.296V24.7133C23.3189 25.231 21.6323 25.8879 20.1506 26.6841L20.151 27.4322C20.4622 33.1252 23.1519 36.3839 25.5254 39.256C27.9525 42.1959 30.0488 44.7348 30.0488 49.9512V52.4414H35.0293V49.9512C35.0293 42.9425 32.0186 39.2996 29.363 36.0847Z" fill="#FF557E"/>
<path d="M69.9073 43.5991L66.7407 45.6514L64.9268 42.9103C60.9318 42.5027 57.8102 42.4805 57.4415 42.4805C57.0351 42.4805 56.1328 42.4918 54.9512 42.5354L53.0228 45.1543L49.9708 42.8678C46.8987 43.1666 43.3348 43.6999 40.0683 44.6352L37.8322 48.0109L35.0925 46.606C32.1208 48.203 30.0491 50.3994 30.0491 53.4775V69.873C30.0491 71.2495 31.1629 72.3633 32.5393 72.3633H44.9905L47.7166 69.873L49.9708 72.3633H57.4415H59.9317L62.3433 69.873L64.9122 72.3633H74.8731L77.0883 69.873L79.8536 72.3633H82.5098C83.8863 72.3633 85.0001 71.2495 85.0001 69.873V53.4773C85.0001 47.5941 77.1447 44.8713 69.9073 43.5991V43.5991Z" fill="#FF3D60"/>
<path d="M62.3432 69.873L64.9121 72.3633H74.873L77.0882 69.873L79.8535 72.3633H82.5098C83.8862 72.3633 85 71.2495 85 69.873V53.4773C85 47.5941 77.1446 44.8713 69.9072 43.5991L66.7406 45.6514L64.9267 42.9103C60.9317 42.5027 57.8101 42.4805 57.4414 42.4805V72.3633H59.9316L62.3432 69.873Z" fill="#CC2944"/>
<path d="M59.382 55.868C58.6844 54.9962 58.0396 54.1401 57.4414 53.258C56.0039 51.1383 54.9545 48.7768 54.9512 45.0195V42.5356C53.6167 42.5849 51.9098 42.679 49.9707 42.8678V45.0218C49.9805 52.0888 52.9084 55.7513 55.4959 58.9808C56.1953 59.8553 56.8416 60.7138 57.4414 61.599C58.8811 63.7248 59.9316 66.0962 59.9316 69.873V72.3633H64.9121V69.873C64.9121 62.7769 61.9745 59.1071 59.382 55.868Z" fill="#FF557E"/>
<path d="M59.9316 72.3633H64.9121V69.8731C64.9121 62.7769 61.9745 59.1071 59.382 55.868C58.6844 54.9962 58.0396 54.1401 57.4414 53.258V61.599C58.8811 63.7248 59.9316 66.0962 59.9316 69.8731V72.3633Z" fill="#FF3D60"/>
<path d="M74.2553 55.9287C71.9889 53.137 70.0288 50.727 69.9072 46.1162V43.5992C68.1793 43.2953 66.492 43.0703 64.9268 42.9104V46.1819C65.0969 52.551 67.9082 56.0164 70.3937 59.0709C72.7962 62.0303 74.8731 64.5838 74.8731 69.873V72.3633H79.8536V69.873C79.8536 62.8157 76.8819 59.1582 74.2553 55.9287Z" fill="#FF3D60"/>
<path d="M44.3046 56.0066C42.1499 53.3948 40.2872 51.1404 40.0683 47.2179V44.6352C38.2605 45.1528 36.574 45.8098 35.0923 46.606L35.0926 47.354C35.4039 53.047 38.0935 56.3058 40.467 59.1778C42.8942 62.1178 44.9905 64.6567 44.9905 69.8731V72.3633H49.9709V69.8731C49.9709 62.8644 46.9602 59.2215 44.3046 56.0066Z" fill="#FF557E"/>
</svg>
