<svg width="100" height="48" viewBox="0 0 100 48" fill="none" xmlns="http://www.w3.org/2000/svg">
<g clip-path="url(#clip0)">
<path fill-rule="evenodd" clip-rule="evenodd" d="M6.88984 48.1113H22.9795C23.1734 47.9289 23.2988 47.6721 23.2988 47.3812V39.3105L14.5203 36.4074L6.57617 39.3105V47.3812C6.57617 47.6721 6.6959 47.9289 6.88984 48.1113Z" fill="#E29D7B"/>
<path fill-rule="evenodd" clip-rule="evenodd" d="M77.0148 48.1113H93.1045C93.2984 47.9289 93.4238 47.6721 93.4238 47.3813V39.3106L85.0625 36.2733L76.7012 39.3106V47.3813C76.7012 47.6721 76.8209 47.9289 77.0148 48.1113Z" fill="#E29D7B"/>
<path fill-rule="evenodd" clip-rule="evenodd" d="M56.3394 20.9617C56.3394 27.1674 61.4155 32.2492 67.621 32.2492C73.8265 32.2492 78.9026 27.1672 78.9026 20.9617V13.1705C78.9026 7.21016 74.22 2.29356 68.3567 1.91152C68.1114 1.89434 67.8663 1.88867 67.621 1.88867C61.4155 1.88867 56.3394 6.96504 56.3394 13.1705V20.9617Z" fill="#F9F6F6"/>
<path fill-rule="evenodd" clip-rule="evenodd" d="M67.6211 32.2494H77.0775H77.7391C83.7393 32.2494 88.65 27.3328 88.65 21.3326V12.8C88.65 6.79979 83.7393 1.88885 77.7391 1.88885H70.45L68.3568 1.9117C76.7068 3.06366 76.6896 32.4205 67.6211 32.2494Z" fill="#365E7D"/>
<path fill-rule="evenodd" clip-rule="evenodd" d="M72.9255 1.88867C78.9257 1.88867 83.8421 6.79961 83.8421 12.7998V21.3324C83.8421 27.2984 78.9884 32.1865 73.0339 32.2492H75.15H77.0777H77.7392C83.7394 32.2492 88.6501 27.3326 88.6501 21.3324V12.7998C88.6501 6.79961 83.7394 1.88867 77.7392 1.88867H72.9255Z" fill="#2B4D66"/>
<path fill-rule="evenodd" clip-rule="evenodd" d="M67.6212 9.05823C65.1288 9.05823 62.9786 10.9291 61.9575 13.6496C68.3626 15.6516 67.8151 19.7924 73.7239 19.2563C73.8493 18.6061 73.9179 17.9274 73.9179 17.2315C73.9179 12.7143 71.1003 9.05823 67.6212 9.05823Z" fill="#FF9494"/>
<path fill-rule="evenodd" clip-rule="evenodd" d="M65.7388 9.42888C68.1456 10.5754 69.8567 13.5754 69.8567 17.1004C69.8567 17.2828 69.8511 17.4654 69.8454 17.6478C70.8036 18.3892 71.9501 19.0109 73.7237 19.2562C73.8491 18.606 73.9177 17.9273 73.9177 17.2314C73.9177 12.714 71.1001 9.05798 67.621 9.05798C66.9651 9.05818 66.3319 9.18357 65.7388 9.42888Z" fill="#FF5B96"/>
<path fill-rule="evenodd" clip-rule="evenodd" d="M63.9309 2.51035C67.5184 3.75938 70.2961 6.77676 71.203 10.5068C72.8456 11.9842 73.9178 14.4424 73.9178 17.2315C73.9178 17.9274 73.8495 18.6061 73.7239 19.2563C73.3303 21.2469 72.3778 22.9465 71.0889 24.0531C70.3645 26.5856 68.7676 28.7645 66.6516 30.236H74.0319C76.9692 28.194 78.9028 24.7945 78.9028 20.9617V13.1705C78.9028 7.21016 74.2202 2.29356 68.3569 1.91152C68.1116 1.89434 67.8665 1.88867 67.6211 1.88867C66.3321 1.88867 65.0887 2.10547 63.9309 2.51035Z" fill="#E5E4ED"/>
<path fill-rule="evenodd" clip-rule="evenodd" d="M61.3188 17.2317C61.3188 21.7432 64.1421 25.4051 67.6212 25.4051C70.5585 25.4051 73.0282 22.7928 73.7239 19.2565C68.1687 18.4807 68.7847 14.0661 61.9575 13.6498C61.547 14.7278 61.3188 15.9426 61.3188 17.2317Z" fill="#FF416E"/>
<path fill-rule="evenodd" clip-rule="evenodd" d="M69.8455 17.6481C69.6688 21.0703 67.8721 23.9164 65.4424 24.9031C66.1211 25.2283 66.8568 25.4051 67.6211 25.4051C70.5584 25.4051 73.0281 22.7928 73.7238 19.2565C71.95 19.0112 70.8037 18.3895 69.8455 17.6481Z" fill="#C12424"/>
<path fill-rule="evenodd" clip-rule="evenodd" d="M34.2041 20.9617C34.2041 27.1674 39.2803 32.2492 45.4857 32.2492C51.6912 32.2492 56.7674 27.1672 56.7674 20.9617V13.1705C56.7674 7.21016 52.0904 2.29356 46.2215 1.91152C45.982 1.89434 45.7367 1.88867 45.4857 1.88867C39.2803 1.88867 34.2041 6.96504 34.2041 13.1705V20.9617Z" fill="#F9F6F6"/>
<path fill-rule="evenodd" clip-rule="evenodd" d="M45.4858 32.2494H54.9423H55.6038C61.6097 32.2494 66.5204 27.3328 66.5204 21.3326V12.8C66.5204 6.79979 61.6097 1.88885 55.6038 1.88885H48.3147L46.2216 1.9117C54.5714 3.06366 54.5601 32.4205 45.4858 32.2494Z" fill="#365E7D"/>
<path fill-rule="evenodd" clip-rule="evenodd" d="M50.7898 1.88867C56.7957 1.88867 61.7064 6.79961 61.7064 12.7998V21.3324C61.7064 27.2984 56.8527 32.1865 50.9039 32.2492H53.0199H54.9419H55.6035C61.6093 32.2492 66.5201 27.3326 66.5201 21.3324V12.7998C66.5201 6.79961 61.6093 1.88867 55.6035 1.88867H50.7898Z" fill="#2B4D66"/>
<path fill-rule="evenodd" clip-rule="evenodd" d="M45.4857 9.05823C42.999 9.05823 40.8488 10.9291 39.822 13.6496C46.2271 15.6516 45.6853 19.7924 51.5884 19.2563C51.7197 18.6061 51.788 17.9274 51.788 17.2315C51.788 12.7143 48.9648 9.05823 45.4857 9.05823Z" fill="#FF9494"/>
<path fill-rule="evenodd" clip-rule="evenodd" d="M43.6035 9.42888C46.0104 10.5754 47.7271 13.5754 47.7271 17.1004C47.7271 17.2828 47.7215 17.4654 47.71 17.6478C48.6682 18.3892 49.8146 19.0109 51.5883 19.2562C51.7195 18.606 51.7879 17.9273 51.7879 17.2314C51.7879 12.714 48.9646 9.05798 45.4855 9.05798C44.8297 9.05818 44.1967 9.18357 43.6035 9.42888Z" fill="#FF5B96"/>
<path fill-rule="evenodd" clip-rule="evenodd" d="M41.7957 2.51035C45.3831 3.75938 48.1609 6.77676 49.0734 10.5068C50.7103 11.9842 51.7882 14.4424 51.7882 17.2315C51.7882 17.9274 51.7199 18.6061 51.5886 19.2563C51.2007 21.2469 50.2425 22.9465 48.9593 24.0531C48.2349 26.5856 46.638 28.7645 44.522 30.236H51.8966C54.8396 28.194 56.7675 24.7945 56.7675 20.9617V13.1705C56.7675 7.21016 52.0906 2.29356 46.2216 1.91152C45.9822 1.89434 45.7369 1.88867 45.4859 1.88867C44.1968 1.88867 42.9535 2.10547 41.7957 2.51035Z" fill="#E5E4ED"/>
<path fill-rule="evenodd" clip-rule="evenodd" d="M39.189 17.2317C39.189 21.7432 42.0065 25.4051 45.4856 25.4051C48.4286 25.4051 50.8983 22.7928 51.5884 19.2565C46.0331 18.4807 46.6491 14.0661 39.822 13.6498C39.4173 14.7278 39.189 15.9426 39.189 17.2317Z" fill="#FF416E"/>
<path fill-rule="evenodd" clip-rule="evenodd" d="M47.71 17.6481C47.5389 21.0703 45.7366 23.9164 43.3069 24.9031C43.9856 25.2283 44.7213 25.4051 45.4856 25.4051C48.4286 25.4051 50.8983 22.7928 51.5883 19.2565C49.8147 19.0112 48.6682 18.3895 47.71 17.6481Z" fill="#C12424"/>
<path fill-rule="evenodd" clip-rule="evenodd" d="M12.0688 20.9617C12.0688 27.1674 17.1507 32.2492 23.3561 32.2492C29.5616 32.2492 34.6378 27.1672 34.6378 20.9617V13.1705C34.6378 7.21016 29.9552 2.29356 24.0919 1.91152C23.8466 1.89434 23.6015 1.88867 23.3561 1.88867C17.1507 1.88867 12.0688 6.96504 12.0688 13.1705V20.9617Z" fill="#F9F6F6"/>
<path fill-rule="evenodd" clip-rule="evenodd" d="M23.356 32.2494H32.8067H33.4741C39.4743 32.2494 44.385 27.3328 44.385 21.3326V12.8C44.385 6.79979 39.4743 1.88885 33.4741 1.88885H26.1851L24.0919 1.9117C32.4415 3.06366 32.4245 32.4205 23.356 32.2494Z" fill="#365E7D"/>
<path fill-rule="evenodd" clip-rule="evenodd" d="M28.6602 1.88867C34.6604 1.88867 39.5711 6.79961 39.5711 12.7998V21.3324C39.5711 27.2984 34.723 32.1865 28.7686 32.2492H30.8846H32.8066H33.474C39.4742 32.2492 44.385 27.3326 44.385 21.3324V12.7998C44.385 6.79961 39.4742 1.88867 33.474 1.88867H28.6602Z" fill="#2B4D66"/>
<path fill-rule="evenodd" clip-rule="evenodd" d="M23.2988 39.3106H76.7012H93.424H98.9906C99.5439 39.3106 100 38.86 100 38.3067V31.2399C100 30.6865 99.5439 30.236 98.9906 30.236H92.5969H83.8934H57.2121H42.7822H34.0787H7.40312H1.00391C0.450586 30.236 0 30.6865 0 31.2399V38.3067C0 38.86 0.450586 39.3106 1.00391 39.3106H6.57617H23.2988Z" fill="#FFD772"/>
<path fill-rule="evenodd" clip-rule="evenodd" d="M93.4238 39.3105H86.0721H76.7012V42.9609H86.3516C87.823 42.9609 87.7717 43.6453 87.7717 44.9971V48.1113H93.1045C93.2984 47.9289 93.4238 47.6721 93.4238 47.3813V39.3105Z" fill="#CE8B6B"/>
<path fill-rule="evenodd" clip-rule="evenodd" d="M23.2988 39.3105H15.9471H6.57617V42.9609H16.2266C17.698 42.9609 17.6467 43.6453 17.6467 44.9971V48.1113H22.9795C23.1734 47.9289 23.2988 47.6721 23.2988 47.3813V39.3105Z" fill="#CE8B6B"/>
<path fill-rule="evenodd" clip-rule="evenodd" d="M23.3561 9.05823C20.8637 9.05823 18.7135 10.9291 17.6924 13.6496C24.0918 15.6516 23.55 19.7924 29.4588 19.2563C29.5842 18.6061 29.6527 17.9274 29.6527 17.2315C29.6527 12.7143 26.8352 9.05823 23.3561 9.05823Z" fill="#FF9494"/>
<path fill-rule="evenodd" clip-rule="evenodd" d="M21.4739 9.42888C23.875 10.5754 25.5918 13.5754 25.5918 17.1004C25.5918 17.2828 25.5862 17.4654 25.5805 17.6478C26.5387 18.3892 27.6852 19.0109 29.4588 19.2562C29.5842 18.606 29.6528 17.9273 29.6528 17.2314C29.6528 12.714 26.8352 9.05798 23.3561 9.05798C22.7 9.05818 22.067 9.18357 21.4739 9.42888Z" fill="#FF5B96"/>
<path fill-rule="evenodd" clip-rule="evenodd" d="M19.6658 2.51035C23.2533 3.75938 26.0251 6.77676 26.9378 10.5068C28.5804 11.9842 29.6527 14.4424 29.6527 17.2315C29.6527 17.9274 29.5843 18.6061 29.4587 19.2563C29.0652 21.2469 28.1126 22.9465 26.8238 24.0531C26.0994 26.5856 24.5025 28.7645 22.3865 30.236H29.7667C32.704 28.194 34.6376 24.7945 34.6376 20.9617V13.1705C34.6376 7.21016 29.955 2.29356 24.0917 1.91152C23.8464 1.89434 23.6013 1.88867 23.356 1.88867C22.0613 1.88867 20.8236 2.10547 19.6658 2.51035Z" fill="#E5E4ED"/>
<path fill-rule="evenodd" clip-rule="evenodd" d="M17.0535 17.2317C17.0535 21.7432 19.8767 25.4051 23.3558 25.4051C26.2931 25.4051 28.7628 22.7928 29.4585 19.2565C23.9033 18.4807 24.5136 14.0661 17.6921 13.6498C17.2816 14.7278 17.0535 15.9426 17.0535 17.2317Z" fill="#FF416E"/>
<path fill-rule="evenodd" clip-rule="evenodd" d="M25.5804 17.6481C25.4036 21.0703 23.6069 23.9164 21.1772 24.9031C21.856 25.2283 22.586 25.4051 23.356 25.4051C26.2933 25.4051 28.763 22.7928 29.4587 19.2565C27.6851 19.0112 26.5386 18.3895 25.5804 17.6481Z" fill="#C12424"/>
<path fill-rule="evenodd" clip-rule="evenodd" d="M88.0967 31.2428V38.3039C88.0967 38.8572 87.6461 39.3135 87.0928 39.3135H93.4236H98.9902C99.5436 39.3135 99.9998 38.8572 99.9998 38.3039V31.2428C99.9998 30.6895 99.5436 30.2332 98.9902 30.2332H90.7201H88.9008H87.0928C87.6461 30.2332 88.0967 30.6895 88.0967 31.2428Z" fill="#FBBA58"/>
</g>
<defs>
<clipPath id="clip0">
<rect width="100" height="48" fill="white"/>
</clipPath>
</defs>
</svg>
