<svg width="97" height="61" viewBox="0 0 97 61" fill="none" xmlns="http://www.w3.org/2000/svg">
<g clip-path="url(#clip0)">
<path d="M28.563 14.9203L55.9912 37.1L55.0013 26.4536C54.1426 17.2178 58.1387 8.2156 65.4756 2.85652C54.6643 -3.08026 41.3104 -0.470604 33.3556 9.13357L28.563 14.9203Z" fill="#E87300"/>
<path d="M68.2532 15.3612C60.2501 10.2754 52.1463 8.12626 41.1285 8.17263C25.4708 8.23832 11.4736 21.8027 6.00637 27.8528C4.59117 29.4189 4.70433 31.8807 6.26027 33.2987C12.1657 38.6803 26.9839 50.5714 42.5808 50.524C52.8659 50.4927 59.9351 52.9787 67.9201 46.7276L87.2723 49.7754C90.3015 50.9246 93.0914 47.5852 91.5442 44.6621L83.4828 29.4305C82.9386 28.4024 82.9122 27.1657 83.4118 26.1139L90.1087 12.0171C91.5566 8.96931 88.4935 5.73193 85.5064 7.15311L68.2532 15.3612Z" fill="#FF9900"/>
<path d="M25.6732 12.2619C16.7614 16.7712 9.57074 23.9085 6.00661 27.8528C4.59141 29.4189 4.70458 31.8807 6.26051 33.2987C10.1047 36.8018 17.726 43.0626 26.8801 46.9938C32.8507 36.1174 32.3844 22.6911 25.6732 12.2619Z" fill="#E87300"/>
<path d="M91.5444 44.6623L83.483 29.4305C82.9388 28.4022 82.9124 27.1656 83.4119 26.1139L90.1089 12.0171C91.5568 8.96931 88.4937 5.73193 85.5068 7.15311L68.2532 15.3612C60.2501 10.2754 52.1462 8.12626 41.1284 8.17263C35.6788 8.19539 30.4309 9.85444 25.6731 12.2619C32.3843 22.6908 32.8507 36.1174 26.8798 46.9938C31.7882 49.1017 37.1367 50.5407 42.5807 50.524C52.8658 50.4926 59.935 52.9784 67.9201 46.7276L87.2723 49.7756C90.3016 50.9246 93.0914 47.5854 91.5444 44.6623Z" fill="#FF9900"/>
<path d="M17.0814 28.0246C17.7695 27.1495 18.9294 27.0242 19.7794 27.7328C20.6294 28.4415 20.7515 29.6358 20.0631 30.5108C19.3638 31.4 18.229 31.5228 17.3652 30.8026C16.4874 30.0707 16.3707 28.9284 17.0814 28.0246Z" fill="#FFBC71"/>
<path d="M43.8506 41.4209C43.6512 41.4209 43.45 41.3614 43.2721 41.2376C42.7975 40.9067 42.6721 40.2406 42.9921 39.7494L57.8029 17.0235C58.1227 16.5327 58.7662 16.4026 59.2413 16.7339C59.7159 17.0647 59.8413 17.7309 59.5213 18.2221L44.7108 40.9479C44.5105 41.2549 44.1835 41.4209 43.8506 41.4209Z" fill="#DE5D00"/>
<path d="M60.5703 37.0884C59.7717 37.1114 59.2399 36.1033 59.7091 35.4216L66.1092 25.4916C66.4268 24.9989 67.0701 24.8658 67.5464 25.1943C68.0227 25.5227 68.1514 26.1885 67.8339 26.6809L61.4338 36.611C61.234 36.9208 60.9054 37.0884 60.5703 37.0884Z" fill="#DE5D00"/>
<path d="M37.928 29.8357C37.1139 29.8606 36.5846 28.8138 37.088 28.1369L44.9993 16.7768C45.3338 16.2964 45.9817 16.1873 46.4458 16.5338C46.9103 16.8799 47.0156 17.5497 46.6811 18.0304L38.7697 29.3904C38.5672 29.6811 38.2499 29.8357 37.928 29.8357Z" fill="#DE5D00"/>
<path d="M36.0031 37.1651C37.4088 36.3126 39.6474 37.3899 41.8743 39.7163C42.5411 35.4064 44.2083 32.3526 46.1639 32.3545C48.1194 32.3564 49.792 35.4133 50.4667 39.7245C52.6894 37.4023 54.9262 36.3291 56.3333 37.1844C58.4928 38.2449 57.6642 43.8642 55.6473 48.12C52.165 57.4833 40.1383 57.4359 36.6852 48.0449C34.66 43.7633 33.8637 38.2226 36.0031 37.1651Z" fill="#65D74E"/>
<path d="M40.4974 48.0449C38.6665 44.1735 37.8405 39.2739 39.2802 37.5882C38.0082 36.8433 36.8529 36.6494 36.0031 37.1651C33.8637 38.2226 34.66 43.7633 36.6852 48.0449C38.7017 53.5291 43.6421 55.8251 48.0972 54.9228C44.8981 54.2745 41.9446 51.9808 40.4974 48.0449Z" fill="#60BA4A"/>
<path d="M5.91553 48.9624H31.3291C31.3291 41.4714 25.6401 35.3989 18.6223 35.3989C11.6045 35.3989 5.91553 41.4714 5.91553 48.9624Z" fill="#FF3838"/>
<path d="M20.1952 40.4999C20.1952 40.8146 19.9977 41.4188 19.7425 42.0677C19.3386 43.0952 17.9059 43.0952 17.502 42.0677C17.2468 41.4188 17.0493 40.8146 17.0493 40.4999C17.0493 39.6122 17.7536 38.8924 18.6223 38.8924C19.4909 38.8924 20.1952 39.612 20.1952 40.4999Z" fill="#FF9D9D"/>
<path d="M13.9713 41.8123C14.1862 42.0347 14.4592 42.6066 14.7222 43.2521C15.1386 44.2742 14.1255 45.3229 13.1378 44.8921C12.5142 44.6199 11.9618 44.3373 11.7467 44.1147C11.1402 43.487 11.1464 42.4625 11.7608 41.8269C12.3751 41.1912 13.3648 41.1845 13.9713 41.8123Z" fill="#FF9D9D"/>
<path d="M25.4927 44.1272C25.2778 44.3496 24.7254 44.6323 24.1015 44.9045C23.1139 45.3354 22.1008 44.2869 22.5172 43.2646C22.7802 42.619 23.0532 42.0471 23.2681 41.8247C23.8746 41.197 24.8643 41.2034 25.4786 41.8393C26.0929 42.475 26.0994 43.4995 25.4927 44.1272Z" fill="#FF9D9D"/>
<path d="M63.3059 54.7015C66.652 60.7003 74.0254 62.7782 79.775 59.3425C85.5243 55.9067 87.4726 48.2583 84.1265 42.2594C80.7804 36.2606 73.4069 34.1827 67.6574 37.6185C61.9079 41.0542 59.9598 48.7027 63.3059 54.7015Z" fill="#FFF7DF"/>
<path d="M69.4595 40.8595C69.4609 40.8587 69.4624 40.8576 69.4638 40.8567C72.2238 39.2073 75.5143 39.3482 78.0761 40.9259L73.7532 48.5571L69.4595 40.8595Z" fill="#FFEB6D"/>
<path d="M73.7532 48.5571L78.0761 40.9259C79.284 41.6697 80.3305 42.732 81.0819 44.0789C81.8589 45.4717 82.2226 46.9953 82.2173 48.4983L73.7532 48.5571Z" fill="#FFEB6D"/>
<path d="M73.7531 48.5571L65.2157 48.6166C65.1746 45.5312 66.7007 42.5104 69.4596 40.8595L73.7531 48.5571Z" fill="#FFEB6D"/>
<path d="M65.2153 48.6166L73.7528 48.5571L69.4759 56.107C68.2174 55.3603 67.1263 54.2734 66.3503 52.8823C65.6 51.5369 65.2346 50.0695 65.2153 48.6166Z" fill="#FFEB6D"/>
<path d="M73.753 48.5571L77.9642 56.1068C75.2478 57.7279 72.0188 57.6154 69.4763 56.1068L73.753 48.5571Z" fill="#FFEB6D"/>
<path d="M82.2173 48.4983C82.2063 51.5315 80.6845 54.4814 77.9687 56.1042C77.9673 56.1051 77.9656 56.1059 77.9642 56.1068L73.7532 48.5571L82.2173 48.4983Z" fill="#FFEB6D"/>
<path d="M74.2775 43.9783C74.773 43.682 74.861 42.8792 74.4742 42.1852C74.0873 41.4912 73.3721 41.1688 72.8766 41.4651C72.3811 41.7614 72.2931 42.5642 72.68 43.2582C73.0668 43.9522 73.7821 44.2746 74.2775 43.9783Z" fill="#FFC701"/>
<path d="M74.5912 55.3701C75.0867 55.0738 75.1747 54.271 74.7879 53.577C74.401 52.8831 73.6858 52.5606 73.1903 52.8569C72.6949 53.1532 72.6068 53.956 72.9937 54.65C73.3805 55.344 74.0958 55.6664 74.5912 55.3701Z" fill="#FFC701"/>
<path d="M79.2043 52.8056C79.6997 52.5093 79.7877 51.7065 79.4009 51.0125C79.014 50.3185 78.2988 49.9961 77.8034 50.2924C77.3079 50.5887 77.2199 51.3915 77.6067 52.0855C77.9935 52.7795 78.7088 53.1019 79.2043 52.8056Z" fill="#FFC701"/>
<path d="M69.5939 52.5914C70.0894 52.2951 70.1774 51.4924 69.7905 50.7984C69.4037 50.1044 68.6885 49.782 68.193 50.0783C67.6975 50.3746 67.6095 51.1773 67.9964 51.8713C68.3832 52.5653 69.0984 52.8877 69.5939 52.5914Z" fill="#FFC701"/>
<path d="M69.7458 47.1509C70.2412 46.8546 70.3293 46.0518 69.9424 45.3578C69.5556 44.6638 68.8403 44.3414 68.3449 44.6377C67.8494 44.934 67.7614 45.7368 68.1482 46.4308C68.5351 47.1248 69.2503 47.4472 69.7458 47.1509Z" fill="#FFC701"/>
<path d="M79.0692 47.0242C79.5647 46.7279 79.6527 45.9251 79.2659 45.2311C78.879 44.5371 78.1638 44.2147 77.6683 44.511C77.1729 44.8073 77.0848 45.6101 77.4717 46.3041C77.8585 46.9981 78.5738 47.3205 79.0692 47.0242Z" fill="#FFC701"/>
<path d="M73.7994 39.132C68.8572 39.132 64.8364 43.2914 64.8364 48.4038C64.8364 53.5163 68.8572 57.6755 73.7994 57.6755C78.7416 57.6755 82.7622 53.5163 82.7622 48.4038C82.7622 43.2914 78.7414 39.132 73.7994 39.132ZM81.7644 47.9492L74.6913 47.9L78.2757 41.5766C80.3309 43.0237 81.6293 45.3947 81.7644 47.9492ZM73.7994 40.1504C75.0573 40.1504 76.3104 40.4637 77.4288 41.057L73.8419 47.385L70.3215 40.9787C71.4125 40.4291 72.5821 40.1504 73.7994 40.1504ZM69.4649 41.4802L72.9859 47.8882L65.8404 47.8386C66.0102 45.2618 67.3588 42.896 69.4649 41.4802ZM73.8288 49.4216L77.3335 55.7996C76.2265 56.3685 75.0378 56.6568 73.7992 56.6568C72.5454 56.6568 71.3433 56.3616 70.2253 55.7792L73.8288 49.4216ZM78.1864 55.2912L74.6844 48.9184L81.7578 48.9676C81.5899 51.5193 80.2611 53.8722 78.1864 55.2912ZM72.9792 48.9066L69.3747 55.2659C67.2875 53.8211 65.9698 51.4366 65.8338 48.857L72.9792 48.9066Z" fill="#FFC701"/>
<path d="M85.7314 60.871H11.2686C5.04504 60.871 0 55.6454 0 49.1992V48.9526H97V49.1992C97 55.6454 91.955 60.871 85.7314 60.871Z" fill="#B76C4F"/>
<path d="M85.4854 56.9252H11.5146C6.49175 56.9252 2.22271 53.5952 0.648947 48.9526H0C0 55.5349 5.1553 60.8708 11.5146 60.8708H85.4854C91.8447 60.8708 97 55.5347 97 48.9526H96.3511C94.7773 53.5952 90.5083 56.9252 85.4854 56.9252Z" fill="#AD6149"/>
</g>
<defs>
<clipPath id="clip0">
<rect width="97" height="61" fill="white"/>
</clipPath>
</defs>
</svg>
