<svg width="91" height="92" viewBox="0 0 91 92" fill="none" xmlns="http://www.w3.org/2000/svg">
<g clip-path="url(#clip0)">
<path d="M45.4998 91.2258C70.6287 91.2258 90.9998 70.8548 90.9998 45.7258C90.9998 20.5969 70.6287 0.22583 45.4998 0.22583C20.3708 0.22583 -0.000244141 20.5969 -0.000244141 45.7258C-0.000244141 70.8548 20.3708 91.2258 45.4998 91.2258Z" fill="#DFF6FD"/>
<path d="M45.4997 78.4089C63.55 78.4089 78.1827 63.7762 78.1827 45.7258C78.1827 27.6755 63.55 13.0428 45.4997 13.0428C27.4493 13.0428 12.8167 27.6755 12.8167 45.7258C12.8167 63.7762 27.4493 78.4089 45.4997 78.4089Z" fill="#99E6FC"/>
<path d="M63.1719 3.78571C76.7092 11.6689 85.8096 26.3363 85.8096 43.1308C85.8096 68.2597 65.4385 88.6308 40.3096 88.6308C34.0421 88.6308 28.0708 87.3632 22.6375 85.0709C29.3555 88.983 37.1653 91.2259 45.4998 91.2259C70.6287 91.2259 90.9998 70.8548 90.9998 45.7259C90.9998 26.8645 79.5229 10.6839 63.1719 3.78571V3.78571Z" fill="#C8EFFE"/>
<path d="M79.5419 50.723C77.6696 43.4574 70.5121 38.8646 63.1272 40.1903C56.8619 41.315 51.0741 39.4735 46.7195 35.7493C43.0187 32.5842 38.2382 30.6451 33.0064 30.5619C21.0361 30.3716 11.1075 40.0476 11.003 52.0189C10.9232 61.1623 16.5119 69.0092 24.4664 72.2614L26.0193 72.8668C31.8973 74.8075 53.3433 80.3346 73.8847 66.0425C78.7895 62.6298 81.0327 56.509 79.5419 50.723V50.723Z" fill="#9E5528"/>
<path d="M38.3156 35.3443L53.5691 35.2622C54.7777 35.2556 55.9197 34.7076 56.6809 33.769L61.6706 27.6164C64.1322 24.581 62.5968 19.8298 58.5398 19.1257C58.9973 16.2576 57.1716 13.4792 54.2996 12.7997C51.4996 12.1373 48.6948 13.704 47.7439 16.3489C47.7034 16.4616 47.5813 16.5295 47.4554 16.497C46.2518 15.7979 44.7592 15.5719 43.2369 16.0828C43.1214 16.1216 42.9895 16.0569 42.9401 15.9455C41.8033 13.3806 38.9002 12.0188 36.1572 12.874C33.3398 13.7526 31.7128 16.6518 32.3695 19.4808C28.3785 20.4652 27.1672 25.3087 29.8398 28.1697L35.3457 34.0639C36.1138 34.8861 37.1905 35.3503 38.3156 35.3443V35.3443Z" fill="#02905D"/>
<path d="M30.2528 35.4132L43.0772 35.3442C44.0933 35.3387 45.0534 34.878 45.6933 34.0889L49.8883 28.9161C51.958 26.364 50.667 22.3696 47.2561 21.7776C47.6407 19.3663 46.1058 17.0303 43.6911 16.4591C41.337 15.902 38.9788 17.2194 38.1794 19.443C38.1452 19.5378 38.0425 19.5948 37.9368 19.5675C36.9249 18.9799 35.6699 18.7897 34.3901 19.2193C34.2929 19.2518 34.1819 19.1974 34.1405 19.1037C33.1849 16.9473 30.744 15.8025 28.4379 16.5214C26.0691 17.2601 24.7012 19.6976 25.2535 22.0762C21.898 22.9039 20.8796 26.976 23.1265 29.3812L27.7556 34.3368C28.4017 35.028 29.3069 35.4183 30.2528 35.4132V35.4132Z" fill="#5DB633"/>
<path d="M79.5419 50.7231C78.2183 45.5864 74.2516 41.7891 69.4318 40.4712C71.854 42.3552 73.6875 45.0242 74.5074 48.2057C75.9982 53.9916 73.755 60.1124 68.8504 63.5249C47.9291 78.0816 26.0694 72.0788 20.6748 70.2456C22.8865 71.7178 24.5373 72.289 26.0189 72.8665C31.8966 74.807 53.3429 80.3349 73.8847 66.0422C78.7895 62.6299 81.0327 56.5091 79.5419 50.7231V50.7231Z" fill="#D08353"/>
<path d="M53.5692 35.2621C54.7778 35.2557 55.9198 34.7076 56.681 33.7689L61.6707 27.6161C64.1323 24.5808 62.5969 19.8298 58.5399 19.1254C58.9974 16.2573 57.1717 13.479 54.2997 12.7995C52.9621 12.4831 51.6239 12.6763 50.4866 13.2518C52.6237 14.3314 53.8748 16.696 53.4873 19.1254C57.5444 19.8298 59.0799 24.5808 56.6181 27.6161L51.6284 33.7689C50.8671 34.7076 49.7252 35.2555 48.5166 35.2621H53.5692Z" fill="#017B4E"/>
<path d="M42.4338 68.2365C36.031 68.2362 29.7151 66.9085 26.1511 65.4507C20.1727 63.0064 16.3461 57.253 16.4025 50.7929C16.4782 42.1231 23.6799 35.1121 32.3339 35.2599C35.9708 35.3176 39.4953 36.6508 42.2579 39.0135C46.6811 42.7966 52.2645 44.8799 57.9797 44.8797C61.246 44.8797 62.2276 44.3276 63.9229 44.3276C67.848 44.3276 71.2749 46.9879 72.2564 50.7974C73.1509 54.2685 71.7897 57.9663 68.8691 59.9981C61.0129 65.4645 52.1183 68.2365 42.4357 68.2365C42.4343 68.2365 42.435 68.2365 42.4338 68.2365Z" fill="url(#paint0_linear)"/>
<path d="M43.0775 35.3443C44.0936 35.3388 45.0538 34.8781 45.6936 34.0889L49.8887 28.9161C51.9584 26.3641 50.6673 22.3697 47.2564 21.7776C47.641 19.3663 46.1061 17.0303 43.6914 16.4591C42.3977 16.153 41.1034 16.414 40.0667 17.0792C41.6045 18.0678 42.4695 19.8997 42.1699 21.7776C45.5808 22.3698 46.8718 26.3642 44.8021 28.9161L40.607 34.0889C39.967 34.8781 39.0069 35.3388 37.991 35.3443H43.0775Z" fill="#30AA35"/>
<path d="M77.8658 46.5134H59.0065C58.3998 46.5134 57.908 46.0216 57.908 45.4148V42.4852C57.908 41.8784 58.3998 41.3867 59.0065 41.3867H77.8658C78.4725 41.3867 78.9643 41.8784 78.9643 42.4852V45.4148C78.9643 46.0214 78.4724 46.5134 77.8658 46.5134Z" fill="#FFA518"/>
<path d="M81.1614 41.3866H62.3022C61.6954 41.3866 61.2036 40.8948 61.2036 40.2881V37.3585C61.2036 36.7517 61.6954 36.2599 62.3022 36.2599H81.1614C81.7682 36.2599 82.26 36.7517 82.26 37.3585V40.2881C82.26 40.8947 81.7682 41.3866 81.1614 41.3866Z" fill="#FFC700"/>
<path d="M75.3785 35.5844L58.9342 44.8178C58.4052 45.1149 57.7356 44.9268 57.4385 44.3977L56.0042 41.8433C55.7071 41.3142 55.8951 40.6446 56.4242 40.3475L72.8685 31.1142C73.3976 30.8171 74.0672 31.0051 74.3643 31.5342L75.7986 34.0887C76.0956 34.6176 75.9075 35.2874 75.3785 35.5844Z" fill="#FFA922"/>
<path d="M75.7421 29.5006L59.2978 38.734C58.7687 39.0311 58.0991 38.843 57.802 38.3139L56.3677 35.7595C56.0706 35.2304 56.2587 34.5608 56.7877 34.2637L73.232 25.0303C73.7611 24.7333 74.4307 24.9213 74.7278 25.4504L76.1621 28.0049C76.4591 28.5338 76.2711 29.2035 75.7421 29.5006Z" fill="#FFD643"/>
<path d="M72.8685 31.1142L70.2059 32.6092L71.1616 34.3113C71.4587 34.8404 71.2706 35.51 70.7415 35.8071L56.9599 43.5454L57.4385 44.3977C57.7356 44.9268 58.4052 45.1149 58.9342 44.8178L75.3785 35.5844C75.9076 35.2873 76.0957 34.6177 75.7986 34.0887L74.3643 31.5342C74.0672 31.0051 73.3974 30.8172 72.8685 31.1142Z" fill="#F09000"/>
<path d="M73.232 25.0303L70.5694 26.5254L71.5251 28.2275C71.8222 28.7566 71.6342 29.4262 71.1051 29.7233L57.3234 37.4616L57.802 38.3139C58.0991 38.843 58.7687 39.0311 59.2978 38.734L75.7421 29.5006C76.2711 29.2035 76.4592 28.5339 76.1621 28.0049L74.7278 25.4504C74.4307 24.9213 73.7611 24.7333 73.232 25.0303Z" fill="#FFB800"/>
<path d="M15.2275 60.6028C14.8866 60.6028 14.5457 60.4727 14.2857 60.2127C13.7655 59.6923 13.7655 58.8491 14.2857 58.3287L38.2338 34.3806C38.754 33.8605 39.5974 33.8605 40.1176 34.3806C40.6378 34.901 40.6378 35.7442 40.1176 36.2646L16.1695 60.2127C15.9093 60.4727 15.5684 60.6028 15.2275 60.6028V60.6028Z" fill="#9E5528"/>
<path d="M21.8286 68.3514C21.4877 68.3514 21.1468 68.2213 20.8868 67.9613C20.3665 67.4409 20.3665 66.5977 20.8868 66.0773L46.9867 39.9772C47.5069 39.4571 48.3503 39.4571 48.8705 39.9772C49.3907 40.4976 49.3907 41.3408 48.8705 41.8612L22.7704 67.9613C22.5104 68.2213 22.1695 68.3514 21.8286 68.3514V68.3514Z" fill="#9E5528"/>
<path d="M32.9935 71.4837C32.6658 71.4837 32.3382 71.3586 32.0883 71.1087C31.5884 70.6085 31.5884 69.7981 32.0883 69.2979L56.6118 44.7712C57.1118 44.2713 57.9223 44.2713 58.4222 44.7712C58.9222 45.2714 58.9222 46.0818 58.4222 46.582L33.8986 71.1087C33.6487 71.3586 33.3209 71.4837 32.9935 71.4837V71.4837Z" fill="#9E5528"/>
<path d="M71.2328 48.8656C71.7398 48.3918 71.7398 47.624 71.2328 47.1502C70.7259 46.6767 69.9041 46.6767 69.3971 47.1502L44.3796 70.5268C43.8782 70.9953 43.8735 71.7509 44.3638 72.2259C45.0795 72.1472 45.8041 72.0524 46.5359 71.9426L71.2328 48.8656Z" fill="#9E5528"/>
<path d="M48.2411 37.4907C50.5794 37.4907 52.4751 35.4825 52.4751 33.0052C52.4751 30.5279 50.5794 28.5197 48.2411 28.5197C45.9027 28.5197 44.0071 30.5279 44.0071 33.0052C44.0071 35.4825 45.9027 37.4907 48.2411 37.4907Z" fill="#FF5252"/>
<path d="M46.7202 28.879C48.3163 29.5686 49.4335 31.1561 49.4335 33.0053C49.4335 34.8544 48.3163 36.4421 46.7202 37.1316C47.2662 37.3674 47.8678 37.4988 48.5004 37.4988C50.9821 37.4988 52.9939 35.487 52.9939 33.0053C52.9941 29.7663 49.6704 27.6043 46.7202 28.879V28.879Z" fill="#E94444"/>
<path d="M41.34 37.4907C43.6783 37.4907 45.5739 35.4825 45.5739 33.0053C45.5739 30.528 43.6783 28.5198 41.34 28.5198C39.0016 28.5198 37.106 30.528 37.106 33.0053C37.106 35.4825 39.0016 37.4907 41.34 37.4907Z" fill="#FF5F5F"/>
<path d="M39.8191 28.879C41.4151 29.5686 42.5324 31.1561 42.5324 33.0053C42.5324 34.8544 41.4151 36.4421 39.8191 37.1316C40.3651 37.3674 40.9667 37.4988 41.5993 37.4988C44.081 37.4988 46.0928 35.487 46.0928 33.0053C46.0929 29.7663 42.7693 27.6043 39.8191 28.879V28.879Z" fill="#F23333"/>
<g clip-path="url(#clip1)">
<path d="M21.7457 51.648C23.4752 46.717 20.88 41.3176 15.9491 39.5881C11.0181 37.8585 5.61874 40.4538 3.88919 45.3847C2.15964 50.3157 4.75488 55.7151 9.68582 57.4446C14.6168 59.1742 20.0162 56.5789 21.7457 51.648Z" fill="#FF5050"/>
<path d="M20.6744 51.2721C22.1964 46.9329 19.9126 42.1814 15.5733 40.6594C11.2341 39.1374 6.48266 41.4212 4.96066 45.7605C3.43866 50.0997 5.72247 54.8511 10.0617 56.3731C14.4009 57.8951 19.1524 55.6113 20.6744 51.2721Z" fill="#FF736E"/>
<path d="M16.9656 50.8206C16.7159 50.7331 16.4439 50.7797 16.2281 50.9328C15.254 51.6242 13.5775 51.7555 11.889 51.1633C10.2006 50.5711 8.97349 49.4213 8.64466 48.2729C8.57182 48.0186 8.38858 47.8122 8.13885 47.7246L6.6141 47.1898C6.37355 47.1054 6.11996 47.265 6.0822 47.5171C5.60843 50.6856 7.42792 53.8452 10.5627 54.9447C13.6976 56.0443 17.0921 54.7135 18.7013 51.9433C18.8294 51.7228 18.7309 51.4399 18.4903 51.3555L16.9656 50.8206Z" fill="#C84146"/>
<path d="M8.64477 48.2728C8.57194 48.0184 8.3887 47.8121 8.13904 47.7246L7.70066 47.5708C7.23931 50.0536 8.63634 52.5702 11.0934 53.432C13.5505 54.2939 16.2134 53.2013 17.4041 50.9743L16.9657 50.8205C16.716 50.7329 16.444 50.7796 16.2282 50.9327C15.2541 51.6241 13.5776 51.7554 11.8892 51.1632C10.2007 50.571 8.97361 49.4211 8.64477 48.2728Z" fill="#FF5050"/>
<path d="M7.14473 45.6771L8.6696 46.212C8.9193 46.2996 9.19126 46.253 9.40708 46.0998C10.3812 45.4085 12.0577 45.2771 13.7461 45.8693C15.4346 46.4616 16.6617 47.6114 16.9905 48.7597C17.0633 49.0141 17.2466 49.2204 17.4963 49.308L19.0212 49.8429C19.2617 49.9272 19.5153 49.7677 19.5531 49.5156C20.0269 46.3471 18.2074 43.1875 15.0725 42.088C11.9377 40.9884 8.54319 42.3191 6.93398 45.0894C6.80574 45.3098 6.90418 45.5928 7.14473 45.6771Z" fill="#C84146"/>
<path d="M16.9905 48.7597C17.0633 49.0141 17.2466 49.2204 17.4962 49.308L17.9346 49.4617C18.3959 46.979 16.9989 44.4623 14.5419 43.6005C12.0848 42.7387 9.42181 43.8313 8.2312 46.0582L8.66958 46.212C8.91928 46.2996 9.19124 46.2529 9.40707 46.0998C10.3812 45.4084 12.0577 45.2771 13.7461 45.8693C15.4345 46.4615 16.6616 47.6114 16.9905 48.7597Z" fill="#FF5050"/>
<path d="M9.10954 50.6129C9.07561 50.7097 9.00473 50.7935 8.90495 50.8414L8.29592 51.1342C8.0964 51.2301 7.8571 51.1461 7.76121 50.9466C7.66531 50.7471 7.74925 50.5078 7.94876 50.4119L8.55779 50.1192C8.7573 50.0233 8.9966 50.1072 9.0925 50.3067C9.14052 50.4065 9.14348 50.5162 9.10954 50.6129Z" fill="#FFDC64"/>
<path d="M17.891 46.3922C17.8571 46.4889 17.7862 46.5727 17.6864 46.6207L17.0774 46.9134C16.8779 47.0093 16.6386 46.9254 16.5427 46.7259C16.4468 46.5264 16.5307 46.2871 16.7303 46.1912L17.3393 45.8984C17.5388 45.8025 17.7781 45.8865 17.874 46.086C17.922 46.1858 17.925 46.2954 17.891 46.3922Z" fill="#FFDC64"/>
<path d="M15.4526 53.3441C15.4187 53.4408 15.3478 53.5246 15.248 53.5726C15.0485 53.6685 14.8092 53.5846 14.7133 53.3851L14.4206 52.776C14.3247 52.5765 14.4086 52.3372 14.6081 52.2413C14.8076 52.1454 15.0469 52.2294 15.1428 52.4289L15.4356 53.0379C15.4835 53.1376 15.4865 53.2474 15.4526 53.3441Z" fill="#FFDC64"/>
<path d="M11.2317 44.5627C11.1977 44.6595 11.1269 44.7433 11.0271 44.7912C10.8276 44.8871 10.5883 44.8032 10.4924 44.6037L10.1996 43.9947C10.1037 43.7951 10.1877 43.5558 10.3872 43.4599C10.5867 43.364 10.826 43.448 10.9219 43.6475L11.2146 44.2565C11.2626 44.3563 11.2656 44.466 11.2317 44.5627Z" fill="#FFDC64"/>
<path d="M13.4842 53.8505C13.4323 53.9986 13.2947 54.1088 13.1281 54.1179C12.9072 54.13 12.7181 53.9608 12.7058 53.74L12.6684 53.065C12.6568 52.8453 12.8254 52.6548 13.0463 52.6427C13.2672 52.6306 13.4563 52.7998 13.4686 53.0206L13.506 53.6956C13.509 53.7497 13.5012 53.8021 13.4842 53.8505Z" fill="#FFA869"/>
<path d="M12.9451 44.1224C12.8932 44.2704 12.7556 44.3806 12.5891 44.3897C12.3681 44.4018 12.1791 44.2327 12.1667 44.0118L12.1293 43.3369C12.1171 43.1169 12.2863 42.9266 12.5072 42.9145C12.7282 42.9024 12.9172 43.0716 12.9296 43.2924L12.967 43.9674C12.9699 44.0216 12.9621 44.074 12.9451 44.1224Z" fill="#FFA869"/>
<path d="M16.6703 44.7672C16.6533 44.8156 16.6267 44.8614 16.5906 44.9018L16.1397 45.4055C15.9922 45.5702 15.7388 45.5842 15.5739 45.4368C15.4088 45.2893 15.396 45.0352 15.5426 44.8709L15.9934 44.3672C16.141 44.2025 16.3943 44.1885 16.5593 44.3359C16.6836 44.4471 16.7222 44.6191 16.6703 44.7672Z" fill="#FFA869"/>
<path d="M10.1724 52.0271C10.1555 52.0755 10.1288 52.1213 10.0927 52.1617L9.64187 52.6654C9.49431 52.8301 9.24099 52.8441 9.07602 52.6967C8.91107 52.5492 8.89765 52.2949 9.04474 52.1308L9.49557 51.6271C9.64313 51.4624 9.89645 51.4484 10.0614 51.5958C10.1858 51.7071 10.2244 51.879 10.1724 52.0271Z" fill="#FFA869"/>
<path d="M3.88925 45.3847C3.63219 46.1175 3.47285 46.8607 3.40033 47.6007C4.50701 47.8461 5.64744 47.2326 6.032 46.1362C6.41657 45.0398 5.90922 43.8484 4.8917 43.3488C4.48608 43.9719 4.1463 44.6518 3.88925 45.3847Z" fill="#F6A48E"/>
<path d="M11.7367 52.8085L11.4714 53.5647C11.3981 53.7737 11.1695 53.8835 10.9607 53.8102C10.7518 53.737 10.6418 53.5085 10.7152 53.2995L10.9804 52.5432C11.0537 52.3342 11.2824 52.2244 11.4912 52.2977C11.7 52.3709 11.81 52.5995 11.7367 52.8085Z" fill="#FFA869"/>
<path d="M14.9198 43.7331L14.6545 44.4894C14.5812 44.6984 14.3526 44.8082 14.1438 44.7349C13.9349 44.6617 13.825 44.4331 13.8983 44.2242L14.1635 43.4679C14.2368 43.2589 14.4655 43.1491 14.6743 43.2224C14.8831 43.2956 14.9931 43.5241 14.9198 43.7331Z" fill="#FFA869"/>
</g>
<g clip-path="url(#clip2)">
<path d="M36.6207 30.8154C34.7263 24.0614 27.7153 20.122 20.9613 22.0164C14.2073 23.9109 10.2679 30.9218 12.1623 37.6758C14.0568 44.4298 21.0677 48.3693 27.8217 46.4748C34.5757 44.5804 38.5152 37.5694 36.6207 30.8154Z" fill="#FF5050"/>
<path d="M35.1532 31.2269C33.4861 25.2834 27.3165 21.8167 21.373 23.4838C15.4295 25.1509 11.9628 31.3206 13.6299 37.2641C15.297 43.2076 21.4666 46.6743 27.4101 45.0072C33.3536 43.3401 36.8204 37.1704 35.1532 31.2269Z" fill="#FF736E"/>
<path d="M30.7271 33.5859C30.3851 33.6819 30.1219 33.9425 30.0025 34.2771C29.4636 35.7873 27.7211 37.2225 25.4084 37.8712C23.0957 38.5199 20.8611 38.2003 19.6153 37.1906C19.3394 36.967 18.979 36.8812 18.637 36.9771L16.5485 37.5629C16.219 37.6553 16.063 38.026 16.2155 38.3323C18.134 42.1814 22.5674 44.255 26.8613 43.0506C31.1551 41.8463 33.8634 37.7694 33.5001 33.4841C33.4713 33.1431 33.1452 32.9077 32.8156 33.0001L30.7271 33.5859Z" fill="#C84146"/>
<path d="M19.6154 37.1905C19.3395 36.9668 18.9791 36.881 18.6372 36.9769L18.0367 37.1454C19.4409 40.2308 22.9147 41.9227 26.2802 40.9787C29.6457 40.0347 31.7329 36.783 31.3276 33.4174L30.7272 33.5858C30.3852 33.6817 30.122 33.9424 30.0026 34.277C29.4636 35.7872 27.7212 37.2224 25.4085 37.8711C23.0958 38.5198 20.8611 38.2001 19.6154 37.1905Z" fill="#FF5050"/>
<path d="M15.9675 35.491L18.0561 34.9052C18.3981 34.8093 18.6613 34.5486 18.7807 34.214C19.3197 32.7038 21.0621 31.2686 23.3748 30.6199C25.6875 29.9712 27.9222 30.2909 29.1679 31.3005C29.4438 31.5241 29.8042 31.61 30.1462 31.514L32.2349 30.9282C32.5644 30.8357 32.7204 30.4651 32.5679 30.1588C30.6494 26.3097 26.2159 24.236 21.9221 25.4404C17.6283 26.6448 14.92 30.7217 15.2832 35.007C15.3119 35.3481 15.638 35.5835 15.9675 35.491Z" fill="#C84146"/>
<path d="M29.1675 31.3005C29.4435 31.5242 29.8038 31.6099 30.1458 31.514L30.7463 31.3456C29.3421 28.2602 25.8682 26.5683 22.5027 27.5123C19.1372 28.4563 17.05 31.708 17.4553 35.0736L18.0558 34.9052C18.3978 34.8093 18.661 34.5486 18.7804 34.214C19.3193 32.7038 21.0618 31.2686 23.3745 30.6199C25.6871 29.9712 27.9218 30.2909 29.1675 31.3005Z" fill="#FF5050"/>
<path d="M21.9282 39.406C21.9654 39.5385 21.952 39.6852 21.8792 39.8148L21.4348 40.6056C21.2893 40.8646 20.9615 40.9566 20.7024 40.811C20.4434 40.6654 20.3514 40.3377 20.497 40.0786L20.9414 39.2878C21.0869 39.0287 21.4147 38.9368 21.6738 39.0824C21.8034 39.1551 21.8911 39.2734 21.9282 39.406Z" fill="#FFDC64"/>
<path d="M28.3352 28.0036C28.3724 28.1361 28.359 28.2829 28.2862 28.4124L27.8418 29.2032C27.6963 29.4623 27.3685 29.5542 27.1094 29.4087C26.8504 29.2631 26.7584 28.9353 26.904 28.6763L27.3483 27.8855C27.4939 27.6264 27.8217 27.5345 28.0807 27.68C28.2103 27.7528 28.2981 27.8711 28.3352 28.0036Z" fill="#FFDC64"/>
<path d="M31.0063 37.5259C31.0434 37.6584 31.03 37.8051 30.9572 37.9347C30.8116 38.1937 30.4839 38.2857 30.2248 38.1401L29.434 37.6957C29.1749 37.5502 29.083 37.2224 29.2286 36.9633C29.3741 36.7043 29.7019 36.6123 29.961 36.7579L30.7518 37.2023C30.8813 37.275 30.9691 37.3934 31.0063 37.5259Z" fill="#FFDC64"/>
<path d="M19.6037 31.1189C19.6408 31.2514 19.6274 31.3981 19.5546 31.5277C19.4091 31.7868 19.0813 31.8787 18.8222 31.7331L18.0314 31.2888C17.7723 31.1432 17.6804 30.8154 17.826 30.5564C17.9715 30.2973 18.2993 30.2054 18.5584 30.3509L19.3492 30.7953C19.4788 30.868 19.5665 30.9864 19.6037 31.1189Z" fill="#FFDC64"/>
<path d="M29.2314 39.5982C29.2883 39.801 29.2219 40.028 29.0457 40.1663C28.8121 40.3497 28.4739 40.3093 28.2903 40.0759L27.7295 39.3625C27.5476 39.1298 27.5863 38.7905 27.8199 38.6071C28.0536 38.4237 28.3917 38.4642 28.5753 38.6975L29.1361 39.411C29.181 39.4682 29.2128 39.5318 29.2314 39.5982Z" fill="#FFA869"/>
<path d="M21.1485 29.3155C21.2054 29.5183 21.1389 29.7454 20.9628 29.8837C20.7292 30.0671 20.391 30.0266 20.2074 29.7933L19.6466 29.0798C19.4638 28.8474 19.5034 28.5078 19.737 28.3244C19.9706 28.141 20.3088 28.1815 20.4924 28.4148L21.0532 29.1283C21.0982 29.1855 21.1299 29.2493 21.1485 29.3155Z" fill="#FFA869"/>
<path d="M25.7414 27.1565C25.76 27.2228 25.766 27.2937 25.7574 27.3659L25.6494 28.2669C25.614 28.5617 25.3462 28.7721 25.0513 28.737C24.7561 28.7019 24.5465 28.4323 24.5812 28.1388L24.6892 27.2378C24.7246 26.943 24.9924 26.7326 25.2873 26.7677C25.5097 26.7943 25.6846 26.9537 25.7414 27.1565Z" fill="#FFA869"/>
<path d="M24.1856 40.1427C24.2041 40.209 24.2101 40.2799 24.2015 40.3521L24.0936 41.2532C24.0581 41.548 23.7903 41.7583 23.4954 41.7232C23.2005 41.6881 22.9899 41.4187 23.0253 41.1251L23.1333 40.224C23.1687 39.9293 23.4365 39.7189 23.7314 39.754C23.9539 39.7805 24.1287 39.9399 24.1856 40.1427Z" fill="#FFA869"/>
<path d="M12.1625 37.6757C12.444 38.6795 12.841 39.6194 13.331 40.4891C14.7369 39.9069 15.5187 38.3543 15.0974 36.8525C14.6762 35.3507 13.201 34.4312 11.6974 34.6652C11.7311 35.6627 11.8809 36.6719 12.1625 37.6757Z" fill="#F6A48E"/>
<path d="M26.5075 39.7976L26.7981 40.8335C26.8784 41.1198 26.7115 41.4165 26.4254 41.4967C26.1394 41.577 25.8425 41.4103 25.7622 41.1241L25.4716 40.0882C25.3913 39.8019 25.5583 39.5052 25.8443 39.4249C26.1303 39.3447 26.4272 39.5113 26.5075 39.7976Z" fill="#FFA869"/>
<path d="M23.021 27.367L23.3115 28.4029C23.3918 28.6892 23.2249 28.9859 22.9389 29.0661C22.6528 29.1464 22.3559 28.9797 22.2756 28.6935L21.9851 27.6576C21.9048 27.3713 22.0717 27.0746 22.3577 26.9943C22.6437 26.9141 22.9407 27.0807 23.021 27.367Z" fill="#FFA869"/>
</g>
<g clip-path="url(#clip3)">
<path d="M62.6545 19.6794L65.0519 21.4415L58.7196 30.0565L56.3222 28.2944L62.6545 19.6794Z" fill="#95D528"/>
<path d="M64.1892 20.8074L65.0519 21.4415L58.7196 30.0565L57.8569 29.4224L64.1892 20.8074Z" fill="#89C627"/>
<path d="M67.9847 25.6655L65.4571 25.8831C63.9375 26.014 62.4794 26.54 61.2306 27.3931C62.0194 26.5252 62.9133 25.7554 63.8892 25.1046L67.1005 22.9636L66.3983 21.9103L63.187 24.0513C62.0954 24.7791 61.0999 25.6415 60.2241 26.6182L59.7575 27.1384C59.4768 27.4515 59.0012 27.5157 58.6611 27.2686C58.2961 27.0034 58.2169 26.4923 58.4838 26.1293L61.6236 21.8575L60.6036 21.1078L58.3055 24.2344C58.4763 23.3919 58.551 22.5296 58.5246 21.666L58.4396 18.8818L57.1742 18.9205L57.2593 21.7046C57.3114 23.4131 56.9192 25.1161 56.1249 26.6294L55.4515 27.9124C55.3318 28.1407 55.3967 28.4222 55.6044 28.5748L58.6935 30.8454C58.8993 30.9966 59.1842 30.9766 59.3668 30.7981L60.9273 29.2721C62.177 28.05 63.8243 27.2943 65.5658 27.1444L68.0934 26.9267L67.9847 25.6655Z" fill="#B9EA6A"/>
<path d="M67.9847 25.6656L65.4571 25.8832C63.9375 26.0141 62.4794 26.5401 61.2306 27.3932C61.6218 26.9628 62.0388 26.5565 62.4789 26.177C61.2732 26.5201 60.1607 27.1599 59.2565 28.0442L57.6961 29.5702C57.5135 29.7487 57.2285 29.7687 57.0227 29.6175L58.6934 30.8455C58.8992 30.9968 59.1842 30.9767 59.3668 30.7982L60.9272 29.2722C62.1769 28.0501 63.8242 27.2945 65.5657 27.1445L68.0933 26.9269L67.9847 25.6656Z" fill="#A1E42C"/>
<path d="M71.3279 22.4398C71.2308 22.366 71.1309 22.2984 71.029 22.2368C70.6198 21.9898 70.4989 21.455 70.7579 21.0534C70.7639 21.0442 70.7698 21.0349 70.7757 21.0256C71.6641 19.6191 71.3781 17.7491 70.1095 16.673C69.89 16.4868 69.6548 16.3341 69.4097 16.2137C69.115 16.0691 68.9323 15.7654 68.9407 15.4373C68.9679 14.3719 68.49 13.3112 67.5646 12.6344C66.6391 11.9575 65.4832 11.8228 64.4759 12.1715C64.1858 12.2719 63.8605 12.2031 63.6379 11.9916C63.5351 11.894 63.425 11.8018 63.3075 11.7159C61.8082 10.6193 59.7038 10.9457 58.6072 12.445C58.4805 12.6181 58.3732 12.7994 58.2843 12.9862C58.1578 13.2523 57.9018 13.434 57.6085 13.4626C56.6734 13.5537 55.7805 14.0335 55.1916 14.8624C54.166 16.3061 54.4474 18.3279 55.8304 19.434C56.5103 19.9777 57.3294 20.2133 58.127 20.1668C58.5178 20.1439 58.8645 20.3997 58.9614 20.779C59.1551 21.5371 59.613 22.2327 60.3125 22.7145C61.7216 23.6852 63.6613 23.4311 64.7736 22.1308C64.7904 22.1111 64.8071 22.0913 64.8234 22.0713C65.0976 21.7354 65.5867 21.6864 65.9358 21.9433L65.9434 21.9489C66.0354 22.0161 66.1296 22.078 66.2258 22.1347C66.6198 22.3665 66.7356 22.8868 66.4839 23.2684C66.4704 23.2889 66.457 23.3095 66.4439 23.3304C65.5501 24.7497 65.852 26.6362 67.1443 27.7055C68.6788 28.9753 70.9551 28.6465 72.0712 27.014C73.0762 25.544 72.7461 23.5166 71.3279 22.4398V22.4398Z" fill="#118E5E"/>
<path d="M72.0704 27.0134C72.3363 26.6245 72.5079 26.1965 72.5915 25.7574C71.4281 26.3876 69.9414 26.3011 68.838 25.3881C67.5458 24.3188 67.2439 22.4323 68.1377 21.013C68.1508 20.9921 68.1641 20.9714 68.1777 20.951C68.4294 20.5694 68.3136 20.0491 67.9196 19.8173C67.8234 19.7606 67.7292 19.6988 67.6372 19.6315C67.6347 19.6296 67.6322 19.6278 67.6296 19.6259C67.2804 19.369 66.7914 19.4181 66.5172 19.7539C66.5009 19.7739 66.4843 19.7937 66.4674 19.8135C65.3551 21.1137 63.4154 21.3678 62.0063 20.3972C61.3068 19.9153 60.8489 19.2197 60.6552 18.4616C60.5583 18.0823 60.2116 17.8266 59.8208 17.8494C59.0232 17.896 58.2041 17.6603 57.5242 17.1166C56.5261 16.3184 56.1021 15.0433 56.3286 13.8527C55.8911 14.0897 55.4992 14.4278 55.1908 14.8619C54.1652 16.3056 54.4466 18.3273 55.8297 19.4334C56.5095 19.9772 57.3286 20.2128 58.1263 20.1662C58.517 20.1434 58.8637 20.3992 58.9606 20.7784C59.1543 21.5366 59.6122 22.2321 60.3117 22.714C61.7208 23.6846 63.6605 23.4305 64.7728 22.1303C64.7897 22.1106 64.8063 22.0907 64.8226 22.0707C65.0968 21.7349 65.5859 21.6858 65.9351 21.9427L65.9426 21.9483C66.0346 22.0155 66.1288 22.0774 66.225 22.1341C66.6189 22.366 66.7348 22.8862 66.483 23.2678C66.4695 23.2882 66.4562 23.3089 66.4431 23.3298C65.5493 24.7491 65.8512 26.6356 67.1434 27.7049C68.6779 28.9747 70.9542 28.6459 72.0704 27.0134V27.0134Z" fill="#017B4F"/>
<path d="M61.9315 15.2605C62.1167 15.3967 62.3772 15.3569 62.5133 15.1717C62.6495 14.9865 62.6097 14.726 62.4245 14.5898C62.2393 14.4537 61.9788 14.4935 61.8426 14.6787C61.7065 14.8639 61.7463 15.1244 61.9315 15.2605Z" fill="#017B4F"/>
<path d="M63.557 15.1002C63.7422 15.2363 64.0027 15.1965 64.1388 15.0113C64.275 14.8261 64.2352 14.5656 64.05 14.4295C63.8647 14.2933 63.6042 14.3331 63.4681 14.5183C63.332 14.7036 63.3717 14.9641 63.557 15.1002Z" fill="#017B4F"/>
<path d="M62.1656 17.6958C62.3508 17.8319 62.6113 17.7921 62.7475 17.6069C62.8836 17.4217 62.8438 17.1612 62.6586 17.0251C62.4734 16.8889 62.2129 16.9287 62.0767 17.1139C61.9406 17.2991 61.9804 17.5596 62.1656 17.6958Z" fill="#017B4F"/>
<path d="M63.0506 18.3462C63.2358 18.4823 63.4963 18.4425 63.6325 18.2573C63.7686 18.0721 63.7288 17.8116 63.5436 17.6755C63.3584 17.5393 63.0979 17.5791 62.9618 17.7643C62.8256 17.9495 62.8654 18.21 63.0506 18.3462Z" fill="#017B4F"/>
<path d="M65.4354 18.1722C65.6206 18.3083 65.8811 18.2685 66.0172 18.0833C66.1534 17.8981 66.1136 17.6376 65.9284 17.5014C65.7432 17.3653 65.4827 17.4051 65.3465 17.5903C65.2104 17.7755 65.2502 18.036 65.4354 18.1722Z" fill="#017B4F"/>
<path d="M70.2686 24.7948C70.4538 24.931 70.7144 24.8912 70.8505 24.706C70.9866 24.5208 70.9468 24.2603 70.7616 24.1241C70.5764 23.988 70.3159 24.0278 70.1798 24.213C70.0436 24.3982 70.0834 24.6587 70.2686 24.7948Z" fill="#017B4F"/>
<path d="M57.5706 15.4615C57.7558 15.5976 58.0163 15.5578 58.1525 15.3726C58.2886 15.1874 58.2488 14.9269 58.0636 14.7907C57.8784 14.6546 57.6179 14.6944 57.4818 14.8796C57.3456 15.0648 57.3854 15.3253 57.5706 15.4615Z" fill="#017B4F"/>
<path d="M57.3536 18.6765C57.5388 18.8126 57.7993 18.7728 57.9354 18.5876C58.0716 18.4024 58.0318 18.1419 57.8466 18.0058C57.6614 17.8696 57.4009 17.9094 57.2647 18.0946C57.1286 18.2798 57.1684 18.5404 57.3536 18.6765Z" fill="#118E5E"/>
</g>
<g clip-path="url(#clip4)">
<path d="M52.8274 38.5955L54.3865 36.7317L61.0841 42.3344L59.525 44.1982L52.8274 38.5955Z" fill="#95D528"/>
<path d="M53.8254 37.4023L54.3865 36.7317L61.084 42.3344L60.523 43.0051L53.8254 37.4023Z" fill="#89C627"/>
<path d="M57.9798 34.5576L58.0277 36.629C58.0565 37.8743 58.4105 39.0897 59.0419 40.1513C58.3749 39.4639 57.7932 38.6959 57.3128 37.8671L55.7322 35.1399L54.8377 35.6583L56.4183 38.3855C56.9556 39.3125 57.6075 40.1681 58.3587 40.932L58.7589 41.339C58.9996 41.5838 59.0276 41.9748 58.8088 42.2394C58.5739 42.5233 58.1533 42.5616 57.8711 42.3255L54.5501 39.5474L53.8867 40.3404L56.3174 42.3737C55.6395 42.1914 54.9405 42.0863 54.2352 42.0636L51.9615 41.9902L51.9282 43.0236L54.2019 43.0969C55.5971 43.1419 56.965 43.5489 58.1579 44.2738L59.1691 44.8884C59.349 44.9977 59.5818 44.9592 59.7169 44.7977L61.7259 42.3962C61.8597 42.2362 61.8579 42.0029 61.7218 41.8449L60.5579 40.4948C59.6258 39.4136 59.0943 38.0322 59.0613 36.6051L59.0134 34.5337L57.9798 34.5576Z" fill="#B9EA6A"/>
<path d="M57.9799 34.5576L58.0278 36.629C58.0566 37.8742 58.4106 39.0897 59.042 40.1513C58.7112 39.8104 58.4015 39.4496 58.1146 39.0715C58.3325 40.0718 58.797 41.0113 59.4715 41.7937L60.6353 43.1437C60.7715 43.3017 60.7732 43.535 60.6394 43.695L61.726 42.3961C61.8598 42.2362 61.8581 42.0028 61.7219 41.8449L60.558 40.4948C59.6259 39.4136 59.0944 38.0322 59.0614 36.605L59.0135 34.5336L57.9799 34.5576Z" fill="#A1E42C"/>
<path d="M55.5217 31.6672C55.4566 31.7426 55.3964 31.8205 55.341 31.9005C55.1186 32.2213 54.6766 32.2925 54.3625 32.0607C54.3553 32.0554 54.3481 32.0501 54.3408 32.0449C53.2399 31.2487 51.701 31.386 50.7589 32.3649C50.5959 32.5342 50.4594 32.7181 50.3487 32.9118C50.2157 33.1445 49.9588 33.2779 49.6918 33.2542C48.8248 33.1775 47.9358 33.5127 47.3367 34.2323C46.7375 34.9519 46.5685 35.8873 46.8011 36.7261C46.8681 36.9677 46.7953 37.2294 46.6116 37.4C46.5268 37.4788 46.446 37.5638 46.3699 37.6551C45.3993 38.821 45.5575 40.553 46.7234 41.5237C46.858 41.6358 47.0003 41.7325 47.148 41.8146C47.3584 41.9313 47.4934 42.1492 47.5017 42.3898C47.528 43.1566 47.8734 43.9091 48.5189 44.4315C49.643 45.3415 51.3054 45.2156 52.2778 44.145C52.7558 43.6187 52.9898 42.9631 52.9927 42.3106C52.9941 41.991 53.2204 41.7215 53.5345 41.6619C54.1623 41.5429 54.7528 41.2053 55.1814 40.6598C56.0447 39.561 55.9369 37.967 54.9341 36.9937C54.9189 36.979 54.9036 36.9644 54.8881 36.9501C54.6284 36.7094 54.6135 36.3082 54.8408 36.0368L54.8457 36.0309C54.9053 35.9594 54.9606 35.8857 55.0116 35.8102C55.2208 35.501 55.6508 35.4332 55.9489 35.658C55.9649 35.67 55.9811 35.6819 55.9974 35.6937C57.1085 36.495 58.6616 36.3455 59.5994 35.347C60.713 34.1613 60.5616 32.2891 59.2882 31.2957C58.1415 30.4013 56.4721 30.5664 55.5217 31.6672V31.6672Z" fill="#118E5E"/>
<path d="M59.2878 31.2964C58.9844 31.0597 58.6443 30.898 58.2907 30.8073C58.7448 31.7878 58.5981 32.9953 57.7974 33.8478C56.8596 34.8463 55.3065 34.9957 54.1954 34.1945C54.1791 34.1827 54.1629 34.1708 54.1469 34.1587C53.8488 33.934 53.4188 34.0017 53.2096 34.311C53.1585 34.3865 53.1033 34.4602 53.0437 34.5317C53.0421 34.5336 53.0404 34.5356 53.0388 34.5375C52.8115 34.809 52.8264 35.2101 53.0861 35.4509C53.1016 35.4652 53.1169 35.4797 53.1321 35.4945C54.1349 36.4677 54.2427 38.0617 53.3793 39.1606C52.9507 39.7061 52.3603 40.0437 51.7324 40.1627C51.4184 40.2223 51.1921 40.4917 51.1907 40.8114C51.1878 41.4639 50.9538 42.1195 50.4757 42.6458C49.774 43.4184 48.713 43.6987 47.7542 43.4531C47.9249 43.8218 48.1804 44.1586 48.5184 44.4322C49.6426 45.3421 51.3049 45.2163 52.2773 44.1457C52.7554 43.6194 52.9894 42.9638 52.9923 42.3113C52.9937 41.9916 53.22 41.7221 53.534 41.6626C54.1619 41.5435 54.7523 41.206 55.1809 40.6605C56.0443 39.5617 55.9365 37.9677 54.9337 36.9944C54.9185 36.9797 54.9032 36.9651 54.8877 36.9508C54.628 36.7101 54.6131 36.3089 54.8404 36.0375L54.8453 36.0316C54.9048 35.9601 54.9601 35.8864 55.0112 35.8109C55.2204 35.5017 55.6504 35.4339 55.9485 35.6587C55.9645 35.6708 55.9807 35.6827 55.997 35.6945C57.1081 36.4957 58.6612 36.3463 59.599 35.3477C60.7126 34.162 60.5612 32.2898 59.2878 31.2964V31.2964Z" fill="#017B4F"/>
<path d="M49.1888 38.9583C49.3092 38.8143 49.2901 38.6 49.1461 38.4795C49.0021 38.359 48.7878 38.3781 48.6673 38.5221C48.5469 38.6661 48.5659 38.8805 48.7099 39.0009C48.8539 39.1214 49.0683 39.1023 49.1888 38.9583Z" fill="#017B4F"/>
<path d="M49.1411 37.6252C49.2616 37.4813 49.2425 37.2669 49.0985 37.1464C48.9545 37.026 48.7402 37.0451 48.6197 37.1891C48.4993 37.333 48.5183 37.5474 48.6623 37.6679C48.8063 37.7883 49.0207 37.7692 49.1411 37.6252Z" fill="#017B4F"/>
<path d="M51.1856 38.8923C51.306 38.7483 51.2869 38.5339 51.143 38.4135C50.999 38.293 50.7846 38.3121 50.6641 38.4561C50.5437 38.6001 50.5628 38.8144 50.7068 38.9349C50.8508 39.0553 51.0651 39.0363 51.1856 38.8923Z" fill="#017B4F"/>
<path d="M51.761 38.2044C51.8815 38.0604 51.8624 37.846 51.7184 37.7256C51.5744 37.6051 51.36 37.6242 51.2396 37.7682C51.1191 37.9122 51.1382 38.1266 51.2822 38.247C51.4262 38.3675 51.6406 38.3484 51.761 38.2044Z" fill="#017B4F"/>
<path d="M51.7415 36.2516C51.8619 36.1076 51.8429 35.8932 51.6989 35.7728C51.5549 35.6523 51.3405 35.6714 51.2201 35.8154C51.0996 35.9594 51.1187 36.1738 51.2627 36.2942C51.4067 36.4147 51.621 36.3956 51.7415 36.2516Z" fill="#017B4F"/>
<path d="M57.387 32.6514C57.5074 32.5074 57.4884 32.293 57.3444 32.1726C57.2004 32.0521 56.986 32.0712 56.8656 32.2152C56.7451 32.3592 56.7642 32.5735 56.9082 32.694C57.0522 32.8144 57.2665 32.7954 57.387 32.6514Z" fill="#017B4F"/>
<path d="M49.1289 42.5231C49.2494 42.3791 49.2303 42.1647 49.0863 42.0443C48.9423 41.9238 48.728 41.9429 48.6075 42.0869C48.4871 42.2309 48.5061 42.4452 48.6501 42.5657C48.7941 42.6861 49.0085 42.6671 49.1289 42.5231Z" fill="#017B4F"/>
<path d="M51.7383 42.8648C51.8588 42.7208 51.8397 42.5064 51.6957 42.386C51.5517 42.2655 51.3373 42.2846 51.2169 42.4286C51.0964 42.5726 51.1155 42.787 51.2595 42.9074C51.4035 43.0279 51.6179 43.0088 51.7383 42.8648Z" fill="#118E5E"/>
</g>
</g>
<defs>
<linearGradient id="paint0_linear" x1="44.465" y1="35.2576" x2="44.465" y2="68.2365" gradientUnits="userSpaceOnUse">
<stop stop-color="#FFC369"/>
<stop offset="1" stop-color="#FF6F18" stop-opacity="0"/>
</linearGradient>
<clipPath id="clip0">
<rect width="91" height="91" fill="white" transform="translate(-0.000244141 0.22583)"/>
</clipPath>
<clipPath id="clip1">
<rect width="21.9508" height="21.9508" fill="white" transform="translate(-2.60034 54.7393) rotate(-70.6715)"/>
</clipPath>
<clipPath id="clip2">
<rect width="29.4667" height="29.4667" fill="white" transform="translate(12.228 52.9592) rotate(-105.668)"/>
</clipPath>
<clipPath id="clip3">
<rect width="20.8" height="20.8" fill="white" transform="translate(60.8521 7.15918) rotate(36.317)"/>
</clipPath>
<clipPath id="clip4">
<rect width="16.9873" height="16.9873" fill="white" transform="translate(42.53 39.4231) rotate(-50.0864)"/>
</clipPath>
</defs>
</svg>
