<svg width="86" height="86" viewBox="0 0 86 86" fill="none" xmlns="http://www.w3.org/2000/svg">
<path d="M86 43C86 66.7486 66.7486 86 43 86C19.2514 86 0 66.7486 0 43C0 19.2514 19.2514 0 43 0C66.7486 0 86 19.2514 86 43Z" fill="white"/>
<path d="M43.0001 80.8087C22.1044 80.8087 5.19141 63.899 5.19141 43C5.19141 22.1036 22.1024 5.19128 43.0001 5.19128C63.8958 5.19128 80.8088 22.101 80.8088 43C80.8088 63.8964 63.8978 80.8087 43.0001 80.8087Z" fill="#E8F2F7"/>
<path d="M43 75.6174C24.9591 75.6174 10.3826 61.0461 10.3826 43C10.3826 24.9585 24.9545 10.3826 43 10.3826C61.0415 10.3826 75.6174 24.9539 75.6174 43C75.6174 61.0415 61.0455 75.6174 43 75.6174Z" fill="#FFE55A"/>
<path d="M42.9999 10.3826C42.126 10.3826 41.2605 10.4173 40.4043 10.4843C57.2274 11.8031 70.4267 25.8278 70.4267 43C70.4267 60.1676 57.2314 74.1969 40.4043 75.5157C41.2605 75.5827 42.126 75.6174 42.9999 75.6174C61.0454 75.6174 75.6174 61.0415 75.6174 43C75.6174 24.9539 61.0415 10.3826 42.9999 10.3826Z" fill="#FFD03C"/>
<path d="M53.0249 30.7166L49.033 27.3408C48.8611 27.1952 48.892 26.9229 49.0908 26.81C52.1155 25.0969 54.2834 21.2894 54.2834 21.2894L58.1204 24.5352C58.1204 24.5352 54.7256 27.3047 53.538 30.5716C53.4599 30.7862 53.1961 30.8623 53.0249 30.7166Z" fill="#E9DFCD"/>
<path d="M61.2483 26.8606C60.1998 28.1 57.5306 26.8173 54.8307 24.534C52.1314 22.25 50.4235 19.8308 51.472 18.5914C52.5205 17.3513 55.9284 17.7614 58.6277 20.0447C61.3277 22.328 62.2968 25.6205 61.2483 26.8606Z" fill="white"/>
<path d="M58.5973 58.2823L54.4976 55.0378C54.3214 54.8978 54.3434 54.6245 54.538 54.5055C57.5053 52.6952 59.5484 48.8192 59.5484 48.8192L63.4892 51.938C63.4892 51.938 60.1859 54.8168 59.1054 58.1204C59.0346 58.3373 58.7738 58.4216 58.5973 58.2823Z" fill="#E9DFCD"/>
<path d="M66.6908 54.1606C65.6828 55.4333 62.9736 54.2378 60.2008 52.043C57.4282 49.8491 55.6426 47.4863 56.65 46.2133C57.6575 44.9402 61.077 45.239 63.8502 47.4333C66.6224 49.6277 67.6986 52.887 66.6908 54.1606Z" fill="white"/>
<path d="M37.1932 54.252C38.2134 55.515 36.4517 57.8954 33.7012 60.1177C30.9508 62.34 28.2534 63.5624 27.2331 62.2993C26.2129 61.037 27.2554 57.7668 30.0059 55.5445C32.7564 53.3222 36.1722 52.9889 37.1932 54.252Z" fill="white"/>
<path d="M44.8247 28.9825C44.8247 30.6071 43.5079 31.9239 41.8833 31.9239C40.2587 31.9239 38.9419 30.6071 38.9419 28.9825C38.9419 27.3573 40.2587 26.0404 41.8833 26.0404C43.5079 26.0404 44.8247 27.3573 44.8247 28.9825Z" fill="#58C748"/>
<path d="M26.4524 47.4321C26.4524 49.0567 25.1356 50.3736 23.511 50.3736C21.8864 50.3736 20.5696 49.0567 20.5696 47.4321C20.5696 45.8076 21.8864 44.4901 23.511 44.4901C25.1356 44.4901 26.4524 45.8076 26.4524 47.4321Z" fill="#58C748"/>
<path d="M38.0507 39.8532C38.0507 41.4778 36.7339 42.7946 35.1093 42.7946C33.4847 42.7946 32.1672 41.4778 32.1672 39.8532C32.1672 38.2287 33.4847 36.9118 35.1093 36.9118C36.7339 36.9118 38.0507 38.2287 38.0507 39.8532Z" fill="#58C748"/>
<path d="M66.4704 36.5233C66.4704 38.1479 65.1536 39.4654 63.529 39.4654C61.9038 39.4654 60.5869 38.1479 60.5869 36.5233C60.5869 34.8988 61.9038 33.5819 63.529 33.5819C65.1536 33.5819 66.4704 34.8988 66.4704 36.5233Z" fill="#58C748"/>
<path d="M50.0034 56.8863C50.0034 58.5109 48.6866 59.8284 47.062 59.8284C45.4375 59.8284 44.1206 58.5109 44.1206 56.8863C44.1206 55.2617 45.4375 53.9449 47.062 53.9449C48.6866 53.9449 50.0034 55.2617 50.0034 56.8863Z" fill="#58C748"/>
<path d="M51.4045 45.0569L48.5719 47.8894C48.259 48.2024 47.7518 48.2024 47.4388 47.8894L44.6063 45.0569C44.2933 44.744 44.2933 44.2368 44.6063 43.9238L47.4388 41.0913C47.7518 40.7783 48.259 40.7783 48.5719 41.0913L51.4045 43.9238C51.7174 44.2368 51.7174 44.744 51.4045 45.0569Z" fill="#FFA000"/>
<path d="M22.677 42.7796L18.7796 46.677C18.3489 47.1077 17.6511 47.1077 17.2204 46.677L13.323 42.7796C12.8923 42.3489 12.8923 41.6511 13.323 41.2204L17.2204 37.323C17.6511 36.8923 18.3489 36.8923 18.7796 37.323L22.677 41.2204C23.1077 41.6511 23.1077 42.3489 22.677 42.7796Z" fill="#FFA000"/>
<path d="M54.5583 67.446L51.7258 70.2785C51.4128 70.5915 50.9049 70.5915 50.592 70.2785L47.7601 67.446C47.4471 67.1331 47.4471 66.6252 47.7601 66.3122L50.592 63.4804C50.9049 63.1674 51.4128 63.1674 51.7258 63.4804L54.5583 66.3122C54.8712 66.6259 54.8712 67.1331 54.5583 67.446Z" fill="#FFA000"/>
<path d="M37.0075 22.1043L34.175 24.9368C33.862 25.2498 33.3548 25.2498 33.0418 24.9368L30.2093 22.1043C29.8964 21.7913 29.8964 21.2841 30.2093 20.9712L33.0418 18.1387C33.3548 17.8257 33.862 17.8257 34.175 18.1387L37.0075 20.9712C37.3205 21.2841 37.3205 21.7913 37.0075 22.1043Z" fill="#FFA000"/>
<g clip-path="url(#clip0)">
<path d="M25.2129 58.5151L23.5127 56.0734L32.2869 49.9636L33.9871 52.4053L25.2129 58.5151Z" fill="#95D528"/>
<path d="M24.1245 56.952L23.5127 56.0734L32.2869 49.9636L32.8987 50.8422L24.1245 56.952Z" fill="#89C627"/>
<path d="M22.1003 51.1288L24.5629 51.7387C26.0434 52.1054 27.5932 52.0782 29.0505 51.6739C28.0238 52.2408 26.9293 52.6808 25.7955 52.9817L22.065 53.9715L22.3897 55.1951L26.1202 54.2053C27.3882 53.8688 28.6088 53.3739 29.753 52.7322L30.3625 52.3904C30.7293 52.1848 31.2001 52.2775 31.4423 52.6212C31.7022 52.99 31.6121 53.4993 31.2424 53.7567L26.8917 56.7863L27.6151 57.8251L30.7994 55.6078C30.3658 56.35 30.0168 57.142 29.763 57.9679L28.9448 60.6305L30.1548 61.0024L30.9731 58.3398C31.4752 56.706 32.3961 55.2208 33.6364 54.0448L34.6879 53.0478C34.8749 52.8705 34.9043 52.5831 34.757 52.3715L32.5662 49.2254C32.4203 49.0158 32.1441 48.9428 31.9136 49.0528L29.9442 49.9934C28.3669 50.7467 26.5638 50.9301 24.8671 50.5099L22.4046 49.9L22.1003 51.1288Z" fill="#B9EA6A"/>
<path d="M22.1004 51.1288L24.563 51.7387C26.0435 52.1053 27.5933 52.0782 29.0507 51.6739C28.5415 51.955 28.0156 52.2048 27.4766 52.422C28.7285 52.4865 29.9879 52.24 31.1292 51.6949L33.0987 50.7544C33.3291 50.6443 33.6053 50.7173 33.7513 50.9269L32.5664 49.2253C32.4204 49.0157 32.1442 48.9427 31.9138 49.0528L29.9443 49.9933C28.367 50.7466 26.564 50.9301 24.8673 50.5098L22.4047 49.9L22.1004 51.1288Z" fill="#A1E42C"/>
<path d="M17.8949 53.1027C17.963 53.2039 18.0357 53.3001 18.1123 53.3914C18.4198 53.7572 18.3617 54.3024 17.9868 54.5989C17.9782 54.6057 17.9696 54.6125 17.9611 54.6194C16.6662 55.6639 16.3333 57.5261 17.1866 58.9541C17.3342 59.2011 17.5076 59.4216 17.7007 59.6147C17.9329 59.8467 18.0078 60.1931 17.8939 60.5009C17.5243 61.5005 17.6343 62.6587 18.2917 63.598C18.9491 64.5374 19.9997 65.038 21.0655 65.0332C21.3725 65.0318 21.6582 65.2019 21.8007 65.4739C21.8664 65.5995 21.9409 65.7223 22.0243 65.8415C23.0894 67.3634 25.1865 67.7337 26.7084 66.6687C26.8842 66.5457 27.0443 66.4088 27.1887 66.2607C27.3944 66.0496 27.6952 65.9603 27.9821 66.0279C28.8965 66.2435 29.8966 66.0776 30.7215 65.4832C32.1582 64.4478 32.5445 62.4435 31.5925 60.9502C31.1245 60.2161 30.4253 59.7286 29.6554 59.5153C29.2782 59.4107 29.0326 59.0567 29.0633 58.6665C29.1247 57.8864 28.9159 57.0803 28.4093 56.3984C27.389 55.0249 25.4711 54.6393 23.9986 55.5108C23.9763 55.5241 23.9542 55.5375 23.9323 55.5512C23.5643 55.7805 23.0856 55.669 22.8381 55.3132L22.8327 55.3055C22.7673 55.2121 22.6981 55.1231 22.6254 55.0385C22.3273 54.6919 22.3857 54.162 22.7471 53.8821C22.7665 53.8671 22.7858 53.8519 22.805 53.8363C24.1091 52.7815 24.4323 50.8986 23.5543 49.4694C22.5119 47.7722 20.2513 47.3487 18.6679 48.5334C17.2422 49.6004 16.9002 51.6258 17.8949 53.1027Z" fill="#118E5E"/>
<path d="M18.6683 48.5342C18.2911 48.8164 17.9906 49.1662 17.7697 49.5548C19.0742 49.3338 20.4535 49.8957 21.203 51.1159C22.0809 52.5451 21.7577 54.428 20.4536 55.4829C20.4345 55.4984 20.4152 55.5137 20.3958 55.5287C20.0343 55.8085 19.976 56.3384 20.274 56.685C20.3468 56.7696 20.416 56.8586 20.4814 56.952C20.4832 56.9546 20.4849 56.9572 20.4867 56.9597C20.7343 57.3156 21.213 57.427 21.5809 57.1977C21.6028 57.1841 21.625 57.1706 21.6473 57.1574C23.1198 56.2858 25.0376 56.6714 26.058 58.0449C26.5645 58.7268 26.7734 59.533 26.712 60.3131C26.6813 60.7033 26.9269 61.0573 27.304 61.1618C28.074 61.3752 28.7732 61.8626 29.2412 62.5967C29.9282 63.6744 29.918 65.0181 29.3192 66.0718C29.8098 65.9887 30.2899 65.7952 30.7218 65.4839C32.1586 64.4486 32.5449 62.4442 31.5929 60.9509C31.1249 60.2168 30.4257 59.7294 29.6558 59.516C29.2786 59.4115 29.033 59.0574 29.0637 58.6672C29.1251 57.8871 28.9163 57.081 28.4097 56.3991C27.3894 55.0256 25.4715 54.64 23.999 55.5116C23.9767 55.5248 23.9546 55.5382 23.9327 55.5519C23.5647 55.7812 23.086 55.6698 22.8384 55.3139L22.8331 55.3062C22.7678 55.2129 22.6985 55.1239 22.6258 55.0392C22.3278 54.6926 22.3861 54.1628 22.7475 53.8829C22.7669 53.8679 22.7862 53.8526 22.8054 53.8371C24.1095 52.7823 24.4327 50.8994 23.5548 49.4701C22.5123 47.773 20.2517 47.3494 18.6683 48.5342Z" fill="#017B4F"/>
<path d="M24.4709 62.9308C24.3396 62.7421 24.0802 62.6957 23.8915 62.827C23.7029 62.9584 23.6564 63.2178 23.7878 63.4064C23.9192 63.5951 24.1786 63.6415 24.3672 63.5101C24.5558 63.3788 24.6023 63.1194 24.4709 62.9308Z" fill="#017B4F"/>
<path d="M22.8806 62.5578C22.7492 62.3692 22.4898 62.3228 22.3012 62.4541C22.1125 62.5855 22.0661 62.8449 22.1975 63.0335C22.3288 63.2221 22.5882 63.2686 22.7769 63.1372C22.9655 63.0059 23.0119 62.7465 22.8806 62.5578Z" fill="#017B4F"/>
<path d="M25.0354 60.5503C24.904 60.3616 24.6446 60.3152 24.456 60.4466C24.2673 60.5779 24.2209 60.8373 24.3523 61.0259C24.4836 61.2146 24.743 61.261 24.9316 61.1297C25.1203 60.9983 25.1667 60.7389 25.0354 60.5503Z" fill="#017B4F"/>
<path d="M24.4077 59.6491C24.2763 59.4604 24.0169 59.414 23.8283 59.5454C23.6396 59.6767 23.5932 59.9361 23.7246 60.1248C23.8559 60.3134 24.1153 60.3598 24.304 60.2285C24.4926 60.0971 24.539 59.8377 24.4077 59.6491Z" fill="#017B4F"/>
<path d="M22.0944 59.044C21.9631 58.8553 21.7037 58.8089 21.515 58.9403C21.3264 59.0716 21.28 59.331 21.4113 59.5197C21.5427 59.7083 21.8021 59.7547 21.9907 59.6234C22.1794 59.492 22.2258 59.2326 22.0944 59.044Z" fill="#017B4F"/>
<path d="M19.6577 51.2157C19.5263 51.027 19.2669 50.9806 19.0783 51.112C18.8896 51.2433 18.8432 51.5027 18.9746 51.6913C19.1059 51.88 19.3653 51.9264 19.554 51.7951C19.7426 51.6637 19.789 51.4043 19.6577 51.2157Z" fill="#017B4F"/>
<path d="M28.663 64.1482C28.5317 63.9596 28.2723 63.9132 28.0837 64.0445C27.895 64.1759 27.8486 64.4353 27.9799 64.6239C28.1113 64.8125 28.3707 64.859 28.5593 64.7276C28.748 64.5963 28.7944 64.3369 28.663 64.1482Z" fill="#017B4F"/>
<path d="M29.9065 61.1754C29.7751 60.9868 29.5157 60.9403 29.3271 61.0717C29.1384 61.203 29.092 61.4624 29.2233 61.6511C29.3547 61.8397 29.6141 61.8861 29.8027 61.7548C29.9914 61.6234 30.0378 61.364 29.9065 61.1754Z" fill="#118E5E"/>
</g>
<path d="M38.677 50.7796L34.7796 54.677C34.3489 55.1077 33.6511 55.1077 33.2204 54.677L29.323 50.7796C28.8923 50.3489 28.8923 49.6511 29.323 49.2204L33.2204 45.323C33.6511 44.8923 34.3489 44.8923 34.7796 45.323L38.677 49.2204C39.1077 49.6511 39.1077 50.3489 38.677 50.7796Z" fill="#FFA000"/>
<path d="M33.0756 42.2817L27.0063 45.7858C26.745 45.9366 26.4153 45.7736 26.3633 45.4725C25.5746 40.8802 21.7551 36.4179 21.7551 36.4179L27.5891 33.0496C27.5891 33.0496 29.5431 38.589 33.1258 41.5682C33.3606 41.7637 33.3369 42.1308 33.0756 42.2817Z" fill="#E9DFCD"/>
<path d="M31.941 30.1593C33.029 32.0437 30.1998 34.8289 26.0949 37.1988C21.99 39.5688 18.1634 40.6264 17.0754 38.7419C15.9869 36.8567 18.0496 32.7438 22.1545 30.3739C26.2594 28.0039 30.8525 28.274 31.941 30.1593Z" fill="white"/>
<defs>
<clipPath id="clip0">
<rect width="20.8" height="20.8" fill="white" transform="translate(22.8774 70.9468) rotate(-124.851)"/>
</clipPath>
</defs>
</svg>
