<svg width="98" height="67" viewBox="0 0 98 67" fill="none" xmlns="http://www.w3.org/2000/svg">
<path d="M77.2773 33.0898C77.7836 33.2723 78.3282 33.3331 78.8643 33.267C79.4003 33.2009 79.9116 33.0098 80.3541 32.7102C80.7966 32.4106 81.157 32.0116 81.4042 31.5475C81.6514 31.0834 81.778 30.5682 81.7731 30.0463C83.1103 30.0463 84.3927 29.5333 85.3382 28.62C86.2838 27.7068 86.815 26.4682 86.815 25.1767C86.815 23.8852 86.2838 22.6466 85.3382 21.7334C84.3927 20.8201 83.1103 20.3071 81.7731 20.3071C80.9051 20.3124 80.0536 20.5362 79.3025 20.9564C79.0377 20.5589 78.7145 20.2007 78.3429 19.8932C78.7632 19.6722 79.1297 19.3669 79.4178 18.9977C79.7058 18.6285 79.9086 18.2041 80.0127 17.7529C80.1167 17.3017 80.1195 16.8343 80.021 16.3819C79.9224 15.9296 79.7247 15.5029 79.4412 15.1305C79.1577 14.7581 78.7949 14.4487 78.3772 14.2229C77.9596 13.9972 77.4967 13.8605 77.0198 13.8219C76.5429 13.7833 76.063 13.8438 75.6123 13.9993C75.1615 14.1547 74.7505 14.4016 74.4068 14.7233C73.9282 13.8718 73.1959 13.1787 72.3047 12.7338C71.4135 12.289 70.4045 12.1129 69.4085 12.2283C68.4125 12.3437 67.4753 12.7454 66.7184 13.3813C65.9615 14.0171 65.4197 14.8579 65.1633 15.7946C64.0593 15.3609 62.8315 15.3205 61.6995 15.6805C60.5675 16.0406 59.6048 16.7777 58.9836 17.7601C58.3624 18.7425 58.1231 19.9062 58.3084 21.0433C58.4938 22.1804 59.0917 23.2168 59.9953 23.9674C59.5347 24.2062 59.1384 24.5458 58.8379 24.959C58.5375 25.3722 58.3413 25.8476 58.2651 26.3471C58.1888 26.8466 58.2347 27.3564 58.3989 27.8358C58.5631 28.3152 58.8411 28.7508 59.2108 29.1078C59.5805 29.4648 60.0315 29.7334 60.5278 29.892C61.0241 30.0506 61.552 30.0948 62.0691 30.0212C62.5863 29.9476 63.0785 29.7581 63.5064 29.4679C63.9342 29.1777 64.2858 28.7949 64.5331 28.3501C65.0016 28.8803 65.5834 29.3064 66.2384 29.5992C66.8934 29.8919 67.6062 30.0445 68.3279 30.0463C68.3243 31.0535 68.6454 32.0369 69.2466 32.8599C69.8478 33.6829 70.6993 34.3048 71.6829 34.6394C72.6666 34.9739 73.7337 35.0044 74.7361 34.7268C75.7386 34.4491 76.6267 33.877 77.2773 33.0898Z" fill="#5BA006"/>
<path d="M70.8617 7.29383C72.7525 9.12002 73.8147 11.5969 73.8147 14.1795C73.8147 16.7621 72.7525 19.2389 70.8617 21.0651C69.9163 21.9782 68.6341 22.4912 67.2971 22.4912C65.9601 22.4912 64.6778 21.9782 63.7324 21.0651L56.6031 14.1795C55.6577 13.2664 55.1266 12.028 55.1266 10.7366C55.1266 9.44534 55.6577 8.20692 56.6031 7.29383C58.4939 5.46765 61.0584 4.44171 63.7324 4.44171C66.4064 4.44171 68.9709 5.46765 70.8617 7.29383Z" fill="#FFFBD7"/>
<path d="M50.6641 26.8161C50.0691 26.2414 49.6075 25.5511 49.3098 24.791C49.0121 24.0309 48.8852 23.2183 48.9375 22.4072C48.9898 21.596 49.2201 20.8049 49.6131 20.0863C50.0061 19.3677 50.5529 18.7381 51.2171 18.2391L56.6052 14.1909L63.7362 21.0781L59.5446 26.2821C59.0281 26.9236 58.3761 27.4516 57.6321 27.8312C56.888 28.2108 56.0689 28.4332 55.2291 28.4837C54.3893 28.5342 53.5479 28.4117 52.7609 28.1242C51.9739 27.8366 51.2591 27.3908 50.6641 26.8161Z" fill="#EDD592"/>
<path d="M72.546 14.5853C71.6005 15.4982 70.3183 16.011 68.9814 16.011C67.6444 16.011 66.3622 15.4982 65.4167 14.5853L58.2858 7.69801C57.9632 7.37793 57.6888 7.01566 57.4706 6.62183C57.1689 6.83356 56.88 7.06172 56.6051 7.30519C55.6599 8.21838 55.1289 9.45676 55.1289 10.748C55.1289 12.0393 55.6599 13.2776 56.6051 14.1908L63.7361 21.0781C64.6816 21.991 65.9638 22.5038 67.3007 22.5038C68.6377 22.5038 69.9199 21.991 70.8654 21.0781C71.9209 20.0541 72.7254 18.8146 73.2199 17.4509C73.7143 16.0871 73.886 14.6337 73.7225 13.1974C73.3755 13.6941 72.9817 14.1587 72.546 14.5853Z" fill="#EDD592"/>
<path d="M56.605 14.1909L54.7361 15.5965C54.8016 15.668 54.8537 15.7459 54.9243 15.8141L60.9746 21.6576C60.4421 22.2467 59.79 22.7239 59.0587 23.0596C58.3274 23.3954 57.5325 23.5825 56.7233 23.6095C55.914 23.6364 55.1077 23.5026 54.3542 23.2162C53.6007 22.9299 52.9161 22.4972 52.3428 21.9449C51.4466 21.0797 50.8637 19.9582 50.6807 18.7472C49.5719 19.8161 48.9479 21.2665 48.946 22.7796C48.9442 24.2927 49.5645 25.7446 50.6706 26.8161C51.2656 27.3908 51.9803 27.8366 52.7674 28.1242C53.5544 28.4117 54.3958 28.5342 55.2356 28.4837C56.0754 28.4332 56.8945 28.2108 57.6385 27.8312C58.3826 27.4516 59.0345 26.9236 59.5511 26.2821L63.7426 21.0781L56.605 14.1909Z" fill="#B8966A"/>
<path d="M27.1511 16.2492C27.1515 14.7503 27.6888 13.2978 28.6718 12.138C29.6549 10.9782 31.0231 10.1826 32.5443 9.88622C32.3149 9.32817 32.1958 8.73357 32.193 8.13316C32.193 6.84166 32.7242 5.60305 33.6698 4.68982C34.6153 3.7766 35.8978 3.26355 37.235 3.26355C38.5722 3.26355 39.8546 3.7766 40.8001 4.68982C41.7457 5.60305 42.2769 6.84166 42.2769 8.13316C42.2769 8.21432 42.2567 8.29548 42.2517 8.37015C42.8072 8.22001 43.3807 8.14034 43.9575 8.13316C45.7404 8.13316 47.4504 8.81722 48.7111 10.0349C49.9718 11.2525 50.6801 12.904 50.6801 14.626C50.6732 15.7059 50.3842 16.7667 49.8398 17.7101C50.6999 18.3685 51.378 19.2222 51.8138 20.1951C52.2496 21.168 52.4295 22.2299 52.3375 23.2862C52.2455 24.3425 51.8845 25.3605 51.2865 26.2494C50.6886 27.1383 49.8723 27.8706 48.9104 28.381C48.9657 28.6626 48.9955 28.9482 48.9994 29.2348C48.9994 30.5263 48.4682 31.7649 47.5227 32.6781C46.5771 33.5914 45.2947 34.1044 43.9575 34.1044C43.0896 34.0991 42.238 33.8753 41.487 33.4551C40.8177 34.4874 39.7715 35.2393 38.5555 35.562C37.3395 35.8847 36.0423 35.7546 34.9209 35.1975C33.7995 34.6405 32.9355 33.697 32.5 32.554C32.0646 31.4109 32.0894 30.1516 32.5695 29.0254C31.6183 28.152 30.9576 27.025 30.6715 25.7879C30.3854 24.5508 30.4868 23.2594 30.9628 22.0781C29.8234 21.552 28.8611 20.7258 28.1867 19.6945C27.5123 18.6632 27.1533 17.4689 27.1511 16.2492Z" fill="#A1D51C"/>
<path d="M50.6811 21.1188C49.8131 21.1135 48.9616 20.8897 48.2105 20.4695C47.5412 21.5018 46.495 22.2537 45.279 22.5764C44.063 22.8991 42.7659 22.769 41.6445 22.2119C40.523 21.6549 39.6591 20.7114 39.2236 19.5684C38.7881 18.4253 38.8129 17.166 39.2931 16.0398C38.3419 15.1664 37.6812 14.0394 37.3951 12.8023C37.109 11.5652 37.2104 10.2738 37.6864 9.0925C36.7342 8.65068 35.9032 7.99834 35.2608 7.18838C34.6184 6.37842 34.1827 5.43365 33.989 4.43066C33.1799 5.07432 32.6033 5.94935 32.342 6.92976C32.0808 7.91016 32.1484 8.94535 32.5352 9.88625C31.1549 10.1521 29.8962 10.8309 28.9376 11.8263C27.979 12.8216 27.369 14.0832 27.1942 15.4321C27.0194 16.781 27.2887 18.1488 27.9637 19.3417C28.6388 20.5345 29.6855 21.4919 30.9554 22.0781C30.4794 23.2594 30.378 24.5508 30.6641 25.7879C30.9502 27.0251 31.6109 28.152 32.5621 29.0254C32.0747 30.1538 32.0454 31.418 32.48 32.5663C32.9146 33.7145 33.7812 34.6625 34.9071 35.2212C36.033 35.78 37.3355 35.9085 38.5551 35.5812C39.7748 35.2539 40.8219 34.4948 41.488 33.4552C42.239 33.8754 43.0906 34.0992 43.9585 34.1045C45.2957 34.1045 46.5782 33.5914 47.5237 32.6782C48.4692 31.7649 49.0004 30.5263 49.0004 29.2348C48.9965 28.9483 48.9667 28.6626 48.9114 28.381C49.9542 27.8229 50.8238 27.006 51.4304 26.0147C52.037 25.0233 52.3585 23.8935 52.3617 22.742C52.3528 22.1212 52.248 21.5052 52.0508 20.9143C51.6063 21.0439 51.1453 21.1127 50.6811 21.1188Z" fill="#7AB92D"/>
<path d="M42.6913 28.8599H42.6241C42.4035 28.8516 42.1867 28.8013 41.9862 28.712C41.7857 28.6227 41.6054 28.4961 41.4556 28.3395C41.3057 28.1829 41.1893 27.9993 41.113 27.7992C41.0366 27.5991 41.0019 27.3865 41.0107 27.1734C41.2056 22.4918 39.9788 17.8572 37.4813 13.8404C37.3629 13.6576 37.2833 13.4539 37.2473 13.2411C37.2113 13.0283 37.2196 12.8107 37.2716 12.601C37.3237 12.3913 37.4185 12.1937 37.5504 12.0198C37.6824 11.8459 37.8489 11.6991 38.0403 11.588C38.2317 11.477 38.444 11.4038 38.665 11.3729C38.8859 11.342 39.1111 11.3539 39.3272 11.4079C39.5433 11.462 39.7461 11.5571 39.9238 11.6877C40.1015 11.8182 40.2504 11.9817 40.3619 12.1685C43.1999 16.7266 44.5944 21.9872 44.3736 27.3016C44.3562 27.7211 44.1713 28.1177 43.8576 28.4082C43.5439 28.6988 43.1259 28.8607 42.6913 28.8599Z" fill="#5BA006"/>
<path d="M41.7738 21.1188C41.5479 21.1193 41.3242 21.0751 41.1167 20.9889L33.2177 17.7425C33.0146 17.659 32.8306 17.5376 32.6761 17.3853C32.5216 17.2331 32.3997 17.053 32.3173 16.8552C32.2349 16.6574 32.1937 16.446 32.1959 16.2328C32.1981 16.0196 32.2438 15.809 32.3303 15.6129C32.4168 15.4168 32.5425 15.239 32.7001 15.0898C32.8578 14.9406 33.0443 14.8229 33.249 14.7433C33.4538 14.6637 33.6728 14.6239 33.8935 14.626C34.1142 14.6282 34.3323 14.6723 34.5353 14.7558L40.8982 17.3692L42.4108 13.9816C42.5877 13.5864 42.92 13.2752 43.3344 13.1166C43.5397 13.0381 43.7589 12.9994 43.9796 13.0027C44.2003 13.006 44.4182 13.0513 44.6208 13.1359C44.8234 13.2205 45.0068 13.3428 45.1604 13.4959C45.3141 13.649 45.435 13.8298 45.5163 14.028C45.5976 14.2262 45.6377 14.4379 45.6343 14.6511C45.6309 14.8643 45.584 15.0747 45.4964 15.2704L43.3116 20.14C43.1817 20.43 42.967 20.6771 42.6939 20.8509C42.4207 21.0248 42.101 21.1179 41.7738 21.1188Z" fill="#5BA006"/>
<path d="M42.7099 28.4233C42.4672 28.4241 42.2274 28.3731 42.0074 28.274L36.5336 25.8392C36.3269 25.7541 36.1399 25.6298 35.9838 25.4736C35.8276 25.3175 35.7055 25.1327 35.6246 24.9302C35.5437 24.7277 35.5057 24.5116 35.5128 24.2947C35.5199 24.0777 35.572 23.8644 35.666 23.6672C35.7599 23.47 35.8939 23.2931 36.0599 23.1468C36.226 23.0005 36.4207 22.8878 36.6326 22.8155C36.8445 22.7432 37.0692 22.7126 37.2936 22.7257C37.5179 22.7387 37.7372 22.7951 37.9386 22.8914L42.1402 24.7565L44.2662 21.8136C44.3904 21.634 44.5504 21.4802 44.7369 21.361C44.9234 21.2419 45.1326 21.1599 45.3523 21.1199C45.572 21.0798 45.7978 21.0825 46.0164 21.1278C46.235 21.1731 46.4421 21.2601 46.6255 21.3836C46.8089 21.5072 46.9649 21.6648 47.0844 21.8473C47.2039 22.0299 47.2845 22.2336 47.3215 22.4465C47.3584 22.6595 47.351 22.8775 47.2997 23.0877C47.2484 23.2978 47.1541 23.496 47.0225 23.6706L44.0931 27.7286C43.9378 27.9437 43.7309 28.1192 43.49 28.2402C43.2491 28.3612 42.9815 28.424 42.7099 28.4233Z" fill="#5BA006"/>
<path d="M1.94263 4.88669C1.94202 3.84705 2.28594 2.83451 2.92404 1.99724C3.56215 1.15997 4.46096 0.541915 5.48894 0.233521C6.51691 -0.0748729 7.6201 -0.0574195 8.63707 0.283329C9.65404 0.624079 10.5314 1.27023 11.1408 2.12724C12.0516 1.76205 13.0346 1.59524 14.0199 1.6387C15.0051 1.68215 15.9682 1.9348 16.8408 2.37867C17.7134 2.82253 18.474 3.4467 19.0685 4.20676C19.6629 4.96681 20.0766 5.84407 20.2801 6.7761C21.7273 6.34978 23.2828 6.42159 24.6813 6.97927C26.0798 7.53696 27.2346 8.54597 27.9489 9.83421C28.2406 9.78348 28.5364 9.75741 28.8329 9.7563C30.1701 9.7563 31.4525 10.2693 32.398 11.1826C33.3436 12.0958 33.8748 13.3344 33.8748 14.6259C33.8712 15.7086 33.4899 16.7585 32.7925 17.6061C33.7226 18.9835 34.0715 20.6526 33.7674 22.2706C33.4633 23.8886 32.5293 25.3328 31.1572 26.3065C31.8268 27.1459 32.1912 28.1751 32.1941 29.2347C32.1974 30.4088 31.7602 31.5443 30.9635 32.431C30.1667 33.3178 29.0643 33.8957 27.8603 34.0579C26.6563 34.2201 25.4323 33.9555 24.4147 33.3132C23.3971 32.6709 22.6549 31.6943 22.3254 30.5641C21.1536 30.9232 19.9006 30.9547 18.711 30.6552C17.5215 30.3556 16.4439 29.7371 15.6029 28.8711C14.6855 29.2323 13.6782 29.3239 12.7072 29.1343C11.7362 28.9448 10.8448 28.4825 10.1447 27.8055C9.44468 27.1285 8.96719 26.267 8.77215 25.3289C8.57711 24.3908 8.6732 23.418 9.04837 22.5325C8.17745 21.7421 7.54793 20.7358 7.22846 19.6235C6.90899 18.5113 6.91182 17.3356 7.23664 16.2248C7.15261 16.2296 7.06858 16.2491 6.98455 16.2491C6.00958 16.2529 5.05456 15.9824 4.23604 15.4708C3.41752 14.9592 2.77091 14.2285 2.37511 13.3679C1.97932 12.5074 1.85146 11.5541 2.00715 10.6245C2.16283 9.69497 2.59533 8.82927 3.25185 8.1331C2.41281 7.24575 1.94606 6.08838 1.94263 4.88669Z" fill="#C4F236"/>
<path d="M31.7537 25.8289C31.1259 25.9931 30.4707 26.0361 29.8257 25.9553C29.1807 25.8744 28.5585 25.6715 27.9949 25.358C27.4312 25.0444 26.9372 24.6266 26.5411 24.1283C26.145 23.63 25.8546 23.0612 25.6866 22.4543C24.5148 22.8133 23.2618 22.8449 22.0722 22.5453C20.8826 22.2457 19.8051 21.6272 18.964 20.7613C18.0467 21.1225 17.0393 21.2141 16.0683 21.0245C15.0973 20.8349 14.2059 20.3726 13.5059 19.6957C12.8058 19.0187 12.3283 18.1571 12.1333 17.2191C11.9383 16.281 12.0344 15.3082 12.4095 14.4227C11.5386 13.6322 10.9091 12.626 10.5896 11.5137C10.2701 10.4014 10.273 9.22575 10.5978 8.11491C10.5138 8.11654 10.4297 8.13602 10.3457 8.13602C9.3751 8.14035 8.42402 7.87274 7.6077 7.36561C6.79137 6.85848 6.14483 6.13359 5.74641 5.27876C5.34798 4.42394 5.21477 3.47587 5.36292 2.54941C5.51106 1.62295 5.9342 0.757867 6.58107 0.05896C5.64427 0.124693 4.74557 0.443866 3.98785 0.979944C3.23013 1.51602 2.64402 2.24734 2.29661 3.09016C1.94919 3.93299 1.85453 4.85327 2.02344 5.74565C2.19236 6.63802 2.61803 7.46642 3.25172 8.13602C2.5952 8.83219 2.16271 9.69789 2.00702 10.6275C1.85134 11.557 1.97919 12.5103 2.37499 13.3709C2.77078 14.2314 3.4174 14.9621 4.23591 15.4737C5.05443 15.9854 6.00945 16.2558 6.98442 16.252C7.06845 16.252 7.15249 16.2326 7.2298 16.2277C6.90497 17.3385 6.90214 18.5142 7.22161 19.6265C7.54108 20.7388 8.1706 21.745 9.04153 22.5354C8.66636 23.421 8.57027 24.3938 8.76531 25.3318C8.96035 26.2699 9.43783 27.1314 10.1379 27.8084C10.8379 28.4854 11.7293 28.9477 12.7003 29.1372C13.6713 29.3268 14.6787 29.2353 15.596 28.8741C16.4371 29.74 17.5146 30.3585 18.7042 30.6581C19.8938 30.9577 21.1468 30.9261 22.3186 30.5671C22.518 31.2557 22.8724 31.8932 23.3564 32.4342C23.8405 32.9752 24.4424 33.4062 25.1189 33.6965C25.7955 33.9868 26.5301 34.1291 27.2703 34.1134C28.0104 34.0977 28.7378 33.9242 29.4005 33.6055C30.0632 33.2867 30.6448 32.8306 31.1038 32.2695C31.5628 31.7085 31.8878 31.0565 32.0556 30.3601C32.2234 29.6637 32.2299 28.9401 32.0746 28.2409C31.9192 27.5418 31.6059 26.8845 31.1571 26.3159C31.3647 26.1638 31.5638 26.0013 31.7537 25.8289Z" fill="#A1D51C"/>
<path d="M26.1977 28.8599C25.8509 28.8599 25.5126 28.7564 25.2292 28.5634C24.9457 28.3705 24.731 28.0975 24.6145 27.7821C21.6956 19.8598 15.7089 13.3399 7.91398 9.5941C7.51505 9.40167 7.21161 9.06406 7.07041 8.65554C7.00049 8.45326 6.97251 8.23967 6.98806 8.02695C7.00362 7.81423 7.0624 7.60655 7.16105 7.41577C7.25971 7.22499 7.39631 7.05484 7.56304 6.91505C7.72978 6.77525 7.92339 6.66855 8.13283 6.60102C8.5558 6.46464 9.01754 6.49614 9.41647 6.68857C17.9876 10.8081 24.5702 17.978 27.7791 26.6897C27.8699 26.9346 27.8984 27.197 27.8622 27.4548C27.826 27.7126 27.7262 27.9582 27.5712 28.1709C27.4162 28.3837 27.2105 28.5573 26.9714 28.6772C26.7324 28.7971 26.467 28.8598 26.1977 28.8599Z" fill="#7AB92D"/>
<path d="M20.4296 19.4956H13.707C13.2613 19.4956 12.8338 19.3246 12.5186 19.0202C12.2034 18.7158 12.0264 18.3029 12.0264 17.8724C12.0264 17.4419 12.2034 17.0291 12.5186 16.7246C12.8338 16.4202 13.2613 16.2492 13.707 16.2492H19.2178L20.517 12.4899C20.6578 12.0809 20.9611 11.7427 21.3601 11.5497C21.7592 11.3567 22.2212 11.3247 22.6447 11.4608C23.0681 11.5968 23.4183 11.8897 23.6181 12.2751C23.8179 12.6605 23.851 13.1068 23.7102 13.5157L22.0295 18.3854C21.9178 18.7095 21.7029 18.9913 21.4157 19.1907C21.1284 19.39 20.7833 19.4967 20.4296 19.4956Z" fill="#7AB92D"/>
<path d="M10.346 14.626C9.96695 14.6267 9.59877 14.5036 9.30126 14.2768C9.00376 14.0499 8.79441 13.7325 8.7072 13.3762C8.61998 13.02 8.66004 12.6457 8.82086 12.3141C8.98168 11.9826 9.25382 11.7133 9.59308 11.55L12.0266 10.3765V6.50998C12.0266 6.07948 12.2037 5.66661 12.5189 5.3622C12.8341 5.05779 13.2616 4.88678 13.7073 4.88678C14.153 4.88678 14.5805 5.05779 14.8957 5.3622C15.2109 5.66661 15.3879 6.07948 15.3879 6.50998V11.3796C15.3881 11.6812 15.3012 11.9769 15.137 12.2336C14.9729 12.4902 14.7379 12.6975 14.4585 12.8324L11.0973 14.4556C10.8639 14.5679 10.6067 14.6262 10.346 14.626Z" fill="#7AB92D"/>
<path d="M25.4717 26.8585C25.3963 26.8584 25.3211 26.8535 25.2465 26.8439L18.5239 25.9739C18.0874 25.9108 17.6942 25.6844 17.4291 25.3436C17.164 25.0029 17.0483 24.5751 17.107 24.1526C17.1657 23.7302 17.3941 23.347 17.7428 23.0858C18.0916 22.8246 18.5327 22.7064 18.971 22.7567L24.1019 23.4206L25.4969 15.9538C25.5347 15.7427 25.6153 15.541 25.7343 15.3601C25.8532 15.1793 26.008 15.023 26.1897 14.9002C26.3715 14.7774 26.5766 14.6906 26.7933 14.6448C27.0099 14.5989 27.2338 14.595 27.4521 14.6331C27.6704 14.6712 27.8786 14.7507 28.0649 14.867C28.2513 14.9832 28.4119 15.1339 28.5376 15.3104C28.6633 15.4869 28.7516 15.6857 28.7974 15.8953C28.8432 16.1049 28.8455 16.3212 28.8044 16.5317L27.1237 25.5177C27.0551 25.893 26.852 26.2329 26.5499 26.478C26.2479 26.7231 25.8662 26.8578 25.4717 26.8585Z" fill="#7AB92D"/>
<path d="M6.98438 27.6116H84.2938V30.858C84.2938 37.746 81.4607 44.3519 76.4178 49.2224C71.3749 54.093 64.5353 56.8292 57.4036 56.8292H33.8746C26.7429 56.8292 19.9032 54.093 14.8603 49.2224C9.81745 44.3519 6.98438 37.746 6.98438 30.858V27.6116Z" fill="#84D2F4"/>
<path d="M81.2989 41.1004C79.8516 39.0753 77.9457 37.3952 75.7258 36.1878C73.5059 34.9803 71.0303 34.2771 68.487 34.1316C65.9437 33.9861 63.3995 34.4021 61.0475 35.348C58.6956 36.2939 56.5976 37.7449 54.9129 39.5908C54.4584 38.9048 53.8327 38.3401 53.0932 37.9487C52.3538 37.5572 51.5243 37.3517 50.681 37.3508C50.5785 37.3508 50.4827 37.3735 50.3819 37.38C50.0286 36.3822 49.3482 35.5229 48.4437 34.9323C47.5392 34.3416 46.4601 34.0519 45.3698 34.107C44.2794 34.162 43.2374 34.5589 42.4017 35.2374C41.5659 35.9159 40.982 36.8391 40.7384 37.867C40.2991 37.5941 39.8001 37.4238 39.2809 37.3696C38.7616 37.3154 38.2365 37.3788 37.747 37.5548C37.2576 37.7308 36.8173 38.0145 36.4612 38.3835C36.1051 38.7524 35.8428 39.1965 35.6953 39.6803C35.5478 40.1642 35.5191 40.6746 35.6115 41.1711C35.7038 41.6676 35.9146 42.1364 36.2273 42.5405C36.5399 42.9446 36.9457 43.2727 37.4125 43.4989C37.8793 43.7251 38.3943 43.8431 38.9165 43.8436C39.0258 43.8436 39.1283 43.8225 39.2359 43.8128C38.8207 44.8431 38.8099 45.9844 39.2056 47.0218C33.4982 46.7353 28.0339 44.6989 23.6066 41.2084C19.1792 37.7178 16.0193 32.955 14.5859 27.6116H6.98438V30.858C6.98438 37.746 9.81745 44.3519 14.8603 49.2224C19.9032 54.093 26.7429 56.8292 33.8746 56.8292H57.4036C62.8739 56.8263 68.2129 55.2112 72.7075 52.1996C77.202 49.188 80.6379 44.9234 82.5561 39.9755C82.1409 40.3537 81.7393 40.7465 81.2989 41.1004Z" fill="#57B7EB"/>
<path d="M59.0843 42.2204C59.0843 40.9289 58.5531 39.6903 57.6076 38.7771C56.662 37.8638 55.3796 37.3508 54.0424 37.3508C53.9399 37.3508 53.8441 37.3735 53.7433 37.38C53.39 36.3823 52.7096 35.5229 51.8051 34.9323C50.9006 34.3416 49.8215 34.0519 48.7312 34.107C47.6408 34.162 46.5988 34.5589 45.7631 35.2374C44.9273 35.9159 44.3434 36.8391 44.0998 37.867C43.6605 37.5941 43.1615 37.4238 42.6423 37.3696C42.123 37.3154 41.5979 37.3788 41.1084 37.5548C40.619 37.7308 40.1787 38.0145 39.8226 38.3835C39.4665 38.7524 39.2042 39.1965 39.0568 39.6804C38.9093 40.1642 38.8805 40.6747 38.9729 41.1711C39.0652 41.6676 39.276 42.1365 39.5887 42.5405C39.9013 42.9446 40.3071 43.2727 40.7739 43.4989C41.2407 43.7251 41.7557 43.8431 42.2779 43.8436C42.3872 43.8436 42.4897 43.8225 42.5973 43.8128C42.1547 44.9317 42.1728 46.1718 42.6477 47.2783C41.9094 47.4652 41.2248 47.8119 40.6458 48.2922C40.0668 48.7725 39.6087 49.3738 39.306 50.0506C39.0034 50.7273 38.8642 51.4617 38.899 52.1981C38.9339 52.9345 39.1418 53.6535 39.5071 54.3008C39.8724 54.948 40.3855 55.5064 41.0074 55.9338C41.6293 56.3611 42.3438 56.646 43.0967 56.7671C43.8496 56.8881 44.6211 56.842 45.3528 56.6323C46.0845 56.4226 46.7572 56.0547 47.3199 55.5566C47.9462 56.1098 48.7082 56.4997 49.5338 56.6896C50.3594 56.8795 51.2215 56.8632 52.0388 56.6421C52.8561 56.4211 53.6016 56.0026 54.2051 55.4262C54.8085 54.8497 55.2499 54.1343 55.4878 53.3475C56.3009 53.1171 57.0401 52.6908 57.6357 52.1086C58.2313 51.5264 58.6639 50.8074 58.8926 50.0193C59.1213 49.2313 59.1388 48.3999 58.9433 47.6035C58.7478 46.8071 58.3458 46.0718 57.7751 45.4668C58.6142 44.5795 59.0809 43.4221 59.0843 42.2204Z" fill="#C4F236"/>
<path d="M56.797 38.1477C56.3929 38.4076 55.9519 38.6093 55.4878 38.7467C55.2499 39.5335 54.8085 40.2489 54.205 40.8254C53.6016 41.4018 52.8561 41.8203 52.0388 42.0413C51.2215 42.2624 50.3594 42.2787 49.5338 42.0888C48.7082 41.8989 47.9462 41.509 47.3199 40.9558C46.7201 41.4844 45.9963 41.8642 45.2107 42.0625C44.4252 42.2609 43.6016 42.2718 42.8107 42.0943C42.0198 41.9168 41.2855 41.5563 40.671 41.0439C40.0564 40.5314 39.5801 39.8823 39.2831 39.1525C39.0453 39.5996 38.9198 40.0945 38.9167 40.5971C38.9167 41.4581 39.2708 42.2839 39.9012 42.8927C40.5315 43.5015 41.3865 43.8435 42.2779 43.8435C42.3872 43.8435 42.4897 43.8224 42.5973 43.8127C42.1547 44.9316 42.1728 46.1718 42.6477 47.2782C41.9094 47.4651 41.2248 47.8118 40.6458 48.2921C40.0668 48.7724 39.6087 49.3737 39.306 50.0505C39.0034 50.7272 38.8642 51.4616 38.899 52.198C38.9339 52.9344 39.1418 53.6534 39.5071 54.3007C39.8724 54.9479 40.3855 55.5064 41.0074 55.9337C41.6293 56.361 42.3438 56.6459 43.0967 56.767C43.8496 56.888 44.6211 56.8419 45.3528 56.6322C46.0845 56.4225 46.7572 56.0546 47.3199 55.5566C47.9462 56.1097 48.7082 56.4996 49.5338 56.6895C50.3594 56.8794 51.2215 56.8631 52.0388 56.6421C52.8561 56.421 53.6016 56.0025 54.205 55.4261C54.8085 54.8496 55.2499 54.1343 55.4878 53.3474C56.3009 53.117 57.0401 52.6907 57.6357 52.1085C58.2313 51.5263 58.6638 50.8074 58.8926 50.0193C59.1213 49.2312 59.1388 48.3998 58.9433 47.6035C58.7478 46.8071 58.3458 46.0718 57.7751 45.4667C58.2656 44.948 58.6331 44.3324 58.8521 43.6625C59.0711 42.9927 59.1363 42.2848 59.0432 41.5882C58.9501 40.8915 58.7009 40.2228 58.313 39.6287C57.9251 39.0345 57.4077 38.5291 56.797 38.1477Z" fill="#A1D51C"/>
<path d="M73.6123 64.9453C82.8943 64.9453 90.4187 57.678 90.4187 48.7133C90.4187 39.7486 82.8943 32.4813 73.6123 32.4813C64.3304 32.4813 56.8059 39.7486 56.8059 48.7133C56.8059 57.678 64.3304 64.9453 73.6123 64.9453Z" fill="#FF3E32"/>
<path d="M82.0167 51.9597C78.5628 51.9583 75.1932 50.9291 72.3664 49.0122C69.5396 47.0953 67.393 44.3837 66.2187 41.2466L70.2522 37.3509L72.5766 48.0478L78.6554 40.5973L82.0537 48.749L88.5073 41.2092C86.6365 37.7247 83.5228 35.0122 79.7418 33.5731C75.9608 32.134 71.7682 32.0656 67.939 33.3805C64.1098 34.6954 60.903 37.3048 58.9113 40.7262C56.9196 44.1477 56.2777 48.1498 57.1044 51.9929C57.931 55.836 60.1702 59.2601 63.408 61.6322C66.6459 64.0044 70.6635 65.1643 74.7181 64.8974C78.7727 64.6305 82.5902 62.9549 85.4648 60.1803C88.3395 57.4058 90.077 53.7199 90.3561 49.8041C87.8196 51.2155 84.944 51.9588 82.0167 51.9597Z" fill="#EB2323"/>
<path d="M92.7997 21.1188C89.9852 21.1194 87.2114 21.7688 84.7089 23.0129C82.2065 24.2571 80.0476 26.0602 78.4118 28.2723L75.2942 32.4813L80.3361 34.1045C82.4154 32.0962 84.9611 30.5963 87.7615 29.7295C90.5619 28.8628 93.536 28.6542 96.4366 29.1212L97.1425 29.2349L97.6467 26.8228C97.79 26.1305 97.7724 25.4162 97.5951 24.7313C97.4178 24.0464 97.0853 23.408 96.6216 22.8623C96.1579 22.3166 95.5745 21.8771 94.9136 21.5756C94.2527 21.2741 93.5307 21.1181 92.7997 21.1188Z" fill="#A1D51C"/>
<path d="M90.42 25.9884C87.481 26.0052 84.5526 25.6466 81.7109 24.9219C80.4587 25.8888 79.3488 27.0159 78.4118 28.2722L75.2942 32.4812L80.3361 34.1044C82.4154 32.0961 84.9611 30.5962 87.7615 29.7294C90.5619 28.8627 93.536 28.6542 96.4367 29.1212L97.1425 29.2348L97.6467 26.8227C97.7448 26.3088 97.7533 25.7827 97.6719 25.2661C95.2877 25.7531 92.8569 25.9952 90.42 25.9884Z" fill="#7AB92D"/>
<path d="M66.8523 28.4687L65.6893 29.8728C65.0337 30.6646 64.6073 31.6102 64.4535 32.613C64.2997 33.6159 64.4239 34.6402 64.8136 35.5816L66.8909 40.5973L71.9328 35.7277L74.2572 46.4246L80.336 38.9741L83.7343 47.1258L90.3022 39.4611C90.8641 38.8045 91.2673 38.0351 91.4825 37.209C91.6976 36.3829 91.7193 35.5208 91.5459 34.6856C91.2439 33.2262 90.3661 31.9375 89.098 31.092C87.8299 30.2465 86.271 29.9106 84.7511 30.1552L82.6503 30.4929C81.1632 30.733 79.6372 30.4167 78.3831 29.6082L74.7798 27.287C73.5448 26.491 72.0457 26.1708 70.5782 26.3895C69.1107 26.6083 67.7814 27.3501 66.8523 28.4687Z" fill="#A1D51C"/>
<path d="M87.0586 37.3509C78.7041 37.3509 71.9328 32.6274 71.9328 26.8001C71.9328 26.6507 71.9564 26.5047 71.9648 26.3553C70.9988 26.2754 70.0273 26.426 69.1358 26.794C68.2443 27.162 67.4601 27.736 66.8523 28.4655L65.6893 29.8696C65.0337 30.6614 64.6073 31.6069 64.4535 32.6098C64.2997 33.6127 64.4239 34.637 64.8136 35.5784L66.8909 40.5973L71.9328 35.7277L74.2572 46.4246L80.336 38.9741L83.7343 47.1258L90.3022 39.4611C90.9272 38.7167 91.3485 37.8326 91.5274 36.8899C90.0597 37.2005 88.5612 37.3551 87.0586 37.3509Z" fill="#7AB92D"/>
<path d="M16.2279 53.9546L17.9086 56.766L6.92391 64.395C6.5792 64.6349 6.1863 64.8023 5.77051 64.8866C5.35472 64.9708 4.92527 64.97 4.50982 64.8843C4.09436 64.7985 3.70212 64.6296 3.35836 64.3885C3.0146 64.1474 2.72694 63.8394 2.51391 63.4844C2.30134 63.1289 2.16828 62.7343 2.12329 62.3261C2.0783 61.9179 2.12239 61.5051 2.25271 61.1143C2.38303 60.7236 2.59669 60.3636 2.87991 60.0574C3.16314 59.7513 3.50964 59.506 3.89707 59.3371L16.2279 53.9546Z" fill="#A1D51C"/>
<path d="M16.228 53.9546L3.89717 59.329C3.65459 59.4374 3.42842 59.5772 3.22491 59.7446C3.35176 59.7554 3.4792 59.7581 3.60642 59.7527L9.79118 59.1553L6.924 61.1454C6.59308 61.3756 6.21737 61.5388 5.81947 61.6252C5.42156 61.7116 5.00968 61.7194 4.60857 61.6482C4.20746 61.5769 3.82541 61.4281 3.48539 61.2105C3.14537 60.993 2.8544 60.7114 2.62997 60.3825C2.21956 60.9521 2.03246 61.6442 2.10217 62.3348C2.17188 63.0255 2.49384 63.6697 3.01043 64.152C3.52701 64.6344 4.20448 64.9234 4.92155 64.9673C5.63861 65.0112 6.34846 64.8072 6.924 64.3918L17.9087 56.7627L16.228 53.9546Z" fill="#7AB92D"/>
<path d="M16.2279 56.4575L17.9086 53.6461L6.92391 46.0171C6.57889 45.7775 6.1857 45.6103 5.7697 45.5264C5.3537 45.4425 4.92411 45.4437 4.50863 45.53C4.09314 45.6162 3.70098 45.7856 3.35741 46.0272C3.01385 46.2688 2.72651 46.5772 2.51391 46.9326C2.30134 47.2881 2.16828 47.6827 2.12329 48.0909C2.0783 48.4991 2.12239 48.9119 2.25271 49.3026C2.38303 49.6934 2.59669 50.0534 2.87991 50.3595C3.16314 50.6656 3.50964 50.911 3.89707 51.0799L16.2279 56.4575Z" fill="#C4F236"/>
<path d="M12.1306 49.6353C11.5977 50.1047 10.9344 50.4134 10.2222 50.5232C9.50995 50.6331 8.78003 50.5394 8.12226 50.2537L2.21313 47.6777C2.03223 48.346 2.10167 49.0546 2.40918 49.6784C2.7167 50.3021 3.24251 50.8008 3.89377 51.0864L16.228 56.4576L17.9086 53.6462L12.1306 49.6353Z" fill="#A1D51C"/>
<path d="M17.0681 53.5828V56.8292L3.60619 58.1278C3.18346 58.1686 2.75656 58.1234 2.353 57.9952C1.94943 57.8669 1.57816 57.6585 1.26308 57.3832C0.94801 57.108 0.696126 56.772 0.523657 56.397C0.351189 56.022 0.26196 55.6163 0.261719 55.206C0.26196 54.7957 0.351189 54.3899 0.523657 54.0149C0.696126 53.64 0.94801 53.304 1.26308 53.0288C1.57816 52.7535 1.94943 52.5451 2.353 52.4168C2.75656 52.2886 3.18346 52.2434 3.60619 52.2842L17.0681 53.5828Z" fill="#C4F236"/>
<path d="M17.0682 53.5829L11.0179 52.9985C10.1959 53.8268 9.09682 54.3472 7.91547 54.4675L3.60631 54.8814C3.05695 54.9335 2.50327 54.8402 2.00467 54.6114C1.50606 54.3827 1.08136 54.0271 0.776112 53.5829C0.451932 54.0444 0.271289 54.5859 0.255523 55.1434C0.239756 55.7009 0.389524 56.2511 0.687136 56.7291C0.984747 57.207 1.41777 57.5927 1.93505 57.8405C2.45232 58.0884 3.03225 58.1881 3.60631 58.1279L17.0682 56.8293V53.5829Z" fill="#A1D51C"/>
<path d="M12.0264 55.2061C12.0263 56.4487 12.2921 57.678 12.8071 58.8167C13.3221 59.9554 14.0753 60.9791 15.0193 61.8235C15.9632 62.6678 17.0777 63.3146 18.2927 63.7234C19.5078 64.1321 20.7971 64.2939 22.08 64.1986L49.0206 62.1972C50.8441 62.0614 52.5474 61.266 53.79 59.9699C55.0326 58.6738 55.7229 56.9725 55.723 55.2061C55.7229 53.4396 55.0326 51.7383 53.79 50.4422C52.5474 49.1461 50.8441 48.3507 49.0206 48.2149L22.08 46.2135C20.7971 46.1182 19.5078 46.28 18.2927 46.6887C17.0777 47.0975 15.9632 47.7443 15.0193 48.5887C14.0753 49.433 13.3221 50.4567 12.8071 51.5954C12.2921 52.7342 12.0263 53.9634 12.0264 55.2061Z" fill="#FF8832"/>
<path d="M52.6222 58.0742L25.7202 55.6524C23.481 55.4506 21.3924 54.4753 19.8379 52.9057C18.2834 51.336 17.3674 49.2774 17.2582 47.1079C15.3085 48.0306 13.7527 49.5806 12.8584 51.4914C11.964 53.4022 11.787 55.5542 12.3578 57.5774C12.9286 59.6006 14.2115 61.3684 15.9859 62.5768C17.7602 63.7852 19.9151 64.3587 22.08 64.1986L49.0206 62.1972C50.3645 62.0967 51.6528 61.6368 52.7413 60.8691C53.8298 60.1013 54.6754 59.056 55.1835 57.8503C54.3505 58.0722 53.483 58.1481 52.6222 58.0742Z" fill="#F55800"/>
<path d="M22.1101 46.2134L25.4714 46.4569V51.9596C25.4714 52.3901 25.2943 52.803 24.9791 53.1074C24.664 53.4118 24.2365 53.5828 23.7907 53.5828C23.345 53.5828 22.9175 53.4118 22.6024 53.1074C22.2872 52.803 22.1101 52.3901 22.1101 51.9596V46.2134Z" fill="#D03200"/>
<path d="M33.8745 56.8293V63.3221L30.5132 63.5656V56.8293C30.5132 56.3988 30.6902 55.9859 31.0054 55.6815C31.3206 55.3771 31.7481 55.2061 32.1938 55.2061C32.6396 55.2061 33.067 55.3771 33.3822 55.6815C33.6974 55.9859 33.8745 56.3988 33.8745 56.8293Z" fill="#D03200"/>
<path d="M35.5552 47.2198L38.9165 47.4633V53.5827C38.9165 54.0132 38.7394 54.4261 38.4242 54.7305C38.109 55.0349 37.6816 55.2059 37.2358 55.2059C36.7901 55.2059 36.3626 55.0349 36.0474 54.7305C35.7322 54.4261 35.5552 54.0132 35.5552 53.5827V47.2198Z" fill="#D03200"/>
<path d="M42.2778 47.7068L45.6391 47.9666V51.9596C45.6391 52.3901 45.462 52.803 45.1469 53.1074C44.8317 53.4118 44.4042 53.5829 43.9585 53.5829C43.5127 53.5829 43.0853 53.4118 42.7701 53.1074C42.4549 52.803 42.2778 52.3901 42.2778 51.9596V47.7068Z" fill="#D03200"/>
<path d="M50.6809 56.8293V61.8774C50.1425 62.0523 49.5835 62.1614 49.017 62.202L47.3196 62.3319V56.8293C47.3196 56.3988 47.4966 55.9859 47.8118 55.6815C48.127 55.3771 48.5545 55.2061 49.0002 55.2061C49.446 55.2061 49.8734 55.3771 50.1886 55.6815C50.5038 55.9859 50.6809 56.3988 50.6809 56.8293Z" fill="#D03200"/>
<path d="M38.9165 47.4633V53.5827C38.9165 54.0132 38.7394 54.4261 38.4242 54.7305C38.109 55.0349 37.6816 55.2059 37.2358 55.2059C36.7901 55.2059 36.3626 55.0349 36.0474 54.7305C35.7322 54.4261 35.5552 54.0132 35.5552 53.5827V47.2198L38.9165 47.4633Z" fill="#D03200"/>
<path d="M25.4714 46.4569V51.9596C25.4714 52.3901 25.2943 52.803 24.9791 53.1074C24.664 53.4118 24.2365 53.5828 23.7907 53.5828C23.345 53.5828 22.9175 53.4118 22.6024 53.1074C22.2872 52.803 22.1101 52.3901 22.1101 51.9596V46.2134L25.4714 46.4569Z" fill="#D03200"/>
<path d="M50.6809 56.8293V61.8774C50.1425 62.0523 49.5835 62.1614 49.017 62.202L47.3196 62.3319V56.8293C47.3196 56.3988 47.4966 55.9859 47.8118 55.6815C48.127 55.3771 48.5545 55.2061 49.0002 55.2061C49.446 55.2061 49.8734 55.3771 50.1886 55.6815C50.5038 55.9859 50.6809 56.3988 50.6809 56.8293Z" fill="#D03200"/>
<path d="M33.8745 56.8293V63.3221L30.5132 63.5656V56.8293C30.5132 56.3988 30.6902 55.9859 31.0054 55.6815C31.3206 55.3771 31.7481 55.2061 32.1938 55.2061C32.6396 55.2061 33.067 55.3771 33.3822 55.6815C33.6974 55.9859 33.8745 56.3988 33.8745 56.8293Z" fill="#D03200"/>
<path d="M45.6391 47.9666V51.9596C45.6391 52.3901 45.462 52.803 45.1469 53.1074C44.8317 53.4118 44.4042 53.5829 43.9585 53.5829C43.5127 53.5829 43.0853 53.4118 42.7701 53.1074C42.4549 52.803 42.2778 52.3901 42.2778 51.9596V47.7068L45.6391 47.9666Z" fill="#D03200"/>
</svg>
