<svg width="68" height="86" viewBox="0 0 68 86" fill="none" xmlns="http://www.w3.org/2000/svg">
<g clip-path="url(#clip0)">
<path d="M19.8091 66.1677L22.4188 66.7164L30.4543 54.2628L24.8794 52.2315L19.8091 66.1677Z" fill="#7AB92D"/>
<path d="M22.7741 66.1677L20.1651 66.7164L12.1296 54.2628L17.7038 52.2315L22.7741 66.1677Z" fill="#A1D51C"/>
<path d="M24.6129 41.5124C24.408 38.6464 21.9192 36.4892 19.0532 36.694C16.1872 36.8989 14.0299 39.3877 14.2348 42.2537C14.242 42.5324 14.2717 42.8097 14.3238 43.0841C14.0494 43.0327 13.7722 43.003 13.4935 42.995C10.3357 42.9798 7.60005 45.1805 6.93839 48.2681C6.276 51.3549 7.86935 54.4836 10.7549 55.7643C13.6412 57.0456 17.0298 56.1277 18.8751 53.5657C21.0418 56.2645 24.7873 57.105 27.8995 55.5905C31.0116 54.0768 32.6614 50.6099 31.8745 47.2401C31.0876 43.8695 28.0739 41.4922 24.6129 41.5124V41.5124Z" fill="#A1D51C"/>
<path d="M24.613 41.5124C24.4291 40.4316 23.9101 39.4362 23.1304 38.666C23.0652 45.9892 17.1103 51.8905 9.78712 51.8905C8.90031 51.892 8.01641 51.803 7.14771 51.6234C7.87959 54.0384 9.91887 55.8287 12.4077 56.2406C14.8973 56.6532 17.4042 55.6158 18.8752 53.5657C21.0419 56.2645 24.7874 57.1049 27.8996 55.5905C31.0117 54.0768 32.6615 50.6099 31.8746 47.2401C31.0877 43.8695 28.074 41.4922 24.613 41.5124V41.5124Z" fill="#7AB92D"/>
<path d="M26.0955 22.2388H55.7472V78.5771H26.0955V22.2388Z" fill="#AAE1F9"/>
<path d="M49.8169 72.6468C39.9911 72.6468 32.0258 64.6815 32.0258 54.8557V22.2388H26.0955V78.5771H55.7472V72.6468H49.8169Z" fill="#57B7EB"/>
<path d="M67.6079 5.12969L64.6427 0L46.8516 10.2746C45.0187 11.3322 43.8886 13.2875 43.8865 15.4043V41.5124H49.8168V15.4043L67.6079 5.12969Z" fill="#7AB92D"/>
<path d="M40.7432 31.8018C36.0204 30.249 31.0652 29.5222 26.0955 29.6517V78.5771H55.7472V33.9808C50.6566 34.1458 45.5769 33.4082 40.7432 31.8018V31.8018Z" fill="#C4F236"/>
<path d="M49.8169 72.6468C39.9911 72.6468 32.0258 64.6815 32.0258 54.8557V29.9037C30.0567 29.6865 28.0754 29.6025 26.0955 29.6517V78.5771H55.7472V72.6468H49.8169Z" fill="#A1D51C"/>
<path d="M53.1824 13.462L67.6079 5.12969L64.6427 0L56.6369 4.62584C54.922 7.31882 53.7485 10.3202 53.1824 13.462V13.462Z" fill="#A1D51C"/>
<path d="M46.5254 83.8552C47.2566 82.2712 46.7361 80.3905 45.2948 79.4074L23.6047 64.4332C22.3183 63.5326 20.8002 63.0179 19.2315 62.9506C15.8971 62.8391 12.827 64.7553 11.4624 67.7987L11.1359 68.5551C9.77276 71.6159 10.4127 75.1993 12.7524 77.5983C13.839 78.7262 15.2297 79.5138 16.755 79.8671L42.4041 85.901C44.0916 86.3056 45.8276 85.4442 46.5254 83.8552Z" fill="#FFB800"/>
<path d="M21.1881 76.902C19.6679 76.5458 18.283 75.7582 17.2 74.6332C14.8784 72.2363 14.245 68.6695 15.5987 65.6189L15.9252 64.8632C16.1887 64.2862 16.5225 63.7433 16.9184 63.2474C14.502 63.8671 12.4996 65.5531 11.4775 67.8283L11.151 68.5841C9.79725 71.6347 10.4307 75.2015 12.7523 77.5984C13.8389 78.7262 15.2295 79.5139 16.7548 79.8671L42.404 85.901C44.0821 86.2898 45.7999 85.4312 46.4956 83.8552C46.6295 83.5533 46.7193 83.2334 46.7627 82.9061L21.1881 76.902Z" fill="#FF8A00"/>
<path d="M14.0125 69.4144L3.47076 56.6199L0.461426 63.3951L14.0125 69.4144Z" fill="#A1D51C"/>
<path d="M1.55816 60.9193L0.461426 63.3951L14.0125 69.4144L10.1576 64.73L1.55816 60.9193Z" fill="#7AB92D"/>
<path d="M12.53 70.8971H2.37419C1.55544 70.8971 0.891602 70.2332 0.891602 69.4145C0.891602 68.5957 1.55544 67.9319 2.37419 67.9319H12.53C13.3488 67.9319 14.0126 68.5957 14.0126 69.4145C14.0126 70.2332 13.3488 70.8971 12.53 70.8971Z" fill="#C4F236"/>
<path d="M28.4382 76.7832C28.4281 76.0897 27.9387 75.4954 27.2597 75.3535C26.5806 75.2109 25.8936 75.5591 25.6062 76.1903L23.3968 81.142C23.3889 81.2354 23.3889 81.3302 23.3968 81.4236L26.2737 82.091L28.3637 77.3913C28.4303 77.1959 28.4556 76.9888 28.4382 76.7832Z" fill="#EA8500"/>
<path d="M41.2325 80.8452C41.2224 80.1516 40.733 79.558 40.054 79.4154C39.375 79.2735 38.688 79.621 38.4006 80.2523L36.6219 84.2403C36.6081 84.3337 36.6081 84.4286 36.6219 84.5219L39.498 85.1894L41.1732 81.4533C41.2297 81.2556 41.2492 81.05 41.2325 80.8452Z" fill="#EA8500"/>
<path d="M31.6254 77.2429C31.54 77.4289 31.4951 77.6309 31.4922 77.8358C31.49 78.4272 31.8397 78.9629 32.3812 79.1996C32.5687 79.2793 32.7706 79.3198 32.9748 79.3184C33.5626 79.3227 34.0976 78.9796 34.3386 78.4439L36.5625 73.4177L34.1309 71.7274C34.1309 71.7274 34.0122 71.8613 33.968 71.9496L31.6254 77.2429Z" fill="#EA8500"/>
<path d="M21.3804 71.0606C21.3052 71.2546 21.2653 71.4602 21.2617 71.668C21.2632 72.2508 21.6056 72.7785 22.1369 73.0174C22.3273 73.1043 22.5351 73.1499 22.7443 73.1506C23.3271 73.1499 23.8548 72.8075 24.0937 72.2761L26.644 66.5383L24.2124 64.8487C24.1494 64.916 24.0951 64.9906 24.0495 65.0709L21.3804 71.0606Z" fill="#EA8500"/>
<path d="M16.266 75.2854C16.4253 74.9256 16.4354 74.5174 16.2935 74.1503C16.1517 73.7833 15.8693 73.4879 15.5095 73.3287C14.7646 72.995 13.8894 73.3258 13.5528 74.07L12.2476 77.0351C12.4112 77.2277 12.5596 77.421 12.7369 77.6135C13.2741 78.1681 13.888 78.643 14.5605 79.0216C14.6235 78.9492 14.6778 78.8695 14.7241 78.7848L16.266 75.2854Z" fill="#EA8500"/>
<path d="M64.6428 77.0945C64.6428 82.007 60.6598 85.99 55.7473 85.99C50.8341 85.99 46.8518 82.007 46.8518 77.0945C46.8518 72.182 50.8341 68.199 55.7473 68.199C60.6598 68.199 64.6428 72.182 64.6428 77.0945Z" fill="#FF4A2D"/>
<path d="M60.1951 81.5423C57.1734 81.543 54.3581 80.0104 52.7192 77.4724C51.0802 74.9343 50.8413 71.7382 52.085 68.9844C48.4821 70.6154 46.3878 74.429 46.9459 78.3447C47.5048 82.2604 50.5814 85.337 54.4964 85.8952C58.4121 86.4541 62.2264 84.3598 63.8567 80.7568C62.7056 81.2751 61.4576 81.543 60.1951 81.5423V81.5423Z" fill="#DD1F01"/>
</g>
<defs>
<clipPath id="clip0">
<rect width="68" height="86" fill="white"/>
</clipPath>
</defs>
</svg>
