<svg width="95" height="95" viewBox="0 0 95 95" fill="none" xmlns="http://www.w3.org/2000/svg">
<g clip-path="url(#clip0)">
<path d="M77.582 94.9999H64.4778C63.3957 94.9999 62.4983 94.1616 62.4251 93.0819L60.651 66.9356C60.6048 66.2536 61.1455 65.675 61.8291 65.675H80.2305C80.914 65.675 81.4547 66.2538 81.4085 66.9356L79.6345 93.0819C79.5614 94.1616 78.6643 94.9999 77.582 94.9999Z" fill="#DFEDE7" fill-opacity="0.24"/>
<path d="M80.2307 65.675H70.9022L68.9124 94.9999H77.5821C78.6642 94.9999 79.5615 94.1616 79.6348 93.0817L81.4088 66.9355C81.455 66.2536 80.9143 65.675 80.2307 65.675Z" fill="white" fill-opacity="0.24"/>
<path d="M61 74L62.3177 89.4592C62.3916 90.3265 63.2968 91 64.3889 91H77.6111C78.703 91 79.6084 90.3266 79.6823 89.4592L81 74H61Z" fill="#CDEAE0"/>
<path d="M38.6488 19.092V4.67188H26.21V19.092C26.21 22.1385 24.5232 24.9347 21.8283 26.3556L19.8174 27.4158C15.9864 29.4357 13.5887 33.4104 13.5887 37.7411V89.9144C13.5887 92.723 15.8656 95 18.6744 95H46.1844C48.9931 95 51.2701 92.7232 51.2701 89.9144V37.7411C51.2701 33.4102 48.8723 29.4355 45.0415 27.4158L43.0305 26.3556C40.3355 24.9347 38.6488 22.1385 38.6488 19.092Z" fill="#DFEDE7" fill-opacity="0.24"/>
<path d="M39.0801 12.6186H25.7783C24.9194 12.6186 24.2231 11.9223 24.2231 11.0634V1.55525C24.2231 0.696356 24.9194 0 25.7783 0H39.0801C39.939 0 40.6354 0.696356 40.6354 1.55525V11.0634C40.6354 11.9223 39.9392 12.6186 39.0801 12.6186Z" fill="#5FC2E1"/>
<path d="M39.0802 0H30.0009V12.6186H39.0802C39.9391 12.6186 40.6355 11.9223 40.6355 11.0634V1.55525C40.6355 0.696356 39.9393 0 39.0802 0Z" fill="#438BAA"/>
<path d="M21.8283 26.3556L19.8174 27.4158C15.9864 29.4357 13.5887 33.4105 13.5887 37.7411V89.9144C13.5887 92.723 15.8656 95.0001 18.6744 95.0001H46.1844C48.9931 95.0001 51.2701 92.7232 51.2701 89.9144V37.7411C51.2701 33.4105 48.8723 29.4357 45.0415 27.4158L43.0305 26.3556C40.4229 24.9807 38.7641 22.3176 38.659 19.3865H26.2C26.0948 22.3174 24.436 24.9807 21.8283 26.3556Z" fill="#CDEAE0"/>
<path d="M45.0414 27.4158L43.0305 26.3556C42.865 26.2682 42.7034 26.1756 42.5455 26.0782C42.4854 26.0411 42.4286 26.0001 42.3696 25.9617C42.2742 25.8993 42.1777 25.8381 42.0853 25.7721C42.012 25.7197 41.9426 25.6633 41.8714 25.6088C41.7977 25.5524 41.7226 25.4976 41.6511 25.439C41.5715 25.3737 41.496 25.3045 41.4192 25.2366C41.3608 25.1846 41.3005 25.1343 41.2437 25.0809C41.1607 25.0032 41.0821 24.9217 41.0027 24.8408C40.9565 24.7935 40.9086 24.7478 40.8635 24.6994C40.7793 24.6094 40.6995 24.5159 40.6195 24.4222C40.5837 24.3801 40.5462 24.3393 40.5113 24.2964C40.4275 24.194 40.348 24.0886 40.2692 23.9823C40.2423 23.9459 40.2141 23.9103 40.1877 23.8735C40.1055 23.7589 40.028 23.6412 39.9519 23.5225C39.9326 23.4922 39.9122 23.4627 39.8935 23.4325C39.8144 23.3056 39.7402 23.1763 39.6682 23.0453C39.6552 23.0217 39.6415 22.9985 39.6287 22.9746C39.5545 22.8362 39.4849 22.6953 39.4186 22.5528C39.4107 22.5354 39.4019 22.5183 39.394 22.5009C39.3259 22.3519 39.263 22.2005 39.2038 22.0472C39.1993 22.0357 39.1945 22.0242 39.1902 22.0127C39.1298 21.8541 39.0746 21.6934 39.024 21.5308C39.0219 21.5242 39.0197 21.5177 39.0177 21.511C38.9661 21.344 38.9203 21.1753 38.8793 21.0048C38.8787 21.0022 38.878 20.9996 38.8774 20.997C38.836 20.8235 38.8004 20.6484 38.7702 20.4716C38.7702 20.4714 38.77 20.471 38.77 20.4708C38.7093 20.1147 38.6722 19.7529 38.659 19.3867V19.3865H29.9979V19.9823C29.9979 23.0544 31.6639 25.8916 34.3584 27.367C34.4174 27.3993 34.4492 27.4158 34.4492 27.4158C38.2801 29.4355 40.6778 33.4103 40.6778 37.7411V94.9998H46.1844C48.993 94.9998 51.2701 92.723 51.2701 89.9142V37.7411C51.2701 33.4103 48.8722 29.4355 45.0414 27.4158Z" fill="#B6D1C6"/>
<path d="M32.4299 40.1468C35.9202 40.1468 38.7496 37.3173 38.7496 33.827C38.7496 30.3368 35.9202 27.5073 32.4299 27.5073C28.9396 27.5073 26.1102 30.3368 26.1102 33.827C26.1102 37.3173 28.9396 40.1468 32.4299 40.1468Z" fill="#65DBEF"/>
<path d="M43.1384 57.1952H21.7202C21.1252 57.1952 20.6428 56.7128 20.6428 56.1177V48.5814C20.6428 47.9863 21.1252 47.5039 21.7202 47.5039H43.1382C43.7333 47.5039 44.2157 47.9863 44.2157 48.5814V56.1177C44.2159 56.7128 43.7335 57.1952 43.1384 57.1952Z" fill="#65DBEF"/>
<path d="M44.216 79.925H20.6428C19.8506 79.925 19.2082 79.2826 19.2082 78.4903C19.2082 77.698 19.8504 77.0557 20.6428 77.0557H44.216C45.0083 77.0557 45.6506 77.698 45.6506 78.4903C45.6506 79.2826 45.0083 79.925 44.216 79.925Z" fill="white"/>
<path d="M44.216 86.2131H20.6428C19.8506 86.2131 19.2082 85.5707 19.2082 84.7784C19.2082 83.9861 19.8504 83.3438 20.6428 83.3438H44.216C45.0083 83.3438 45.6506 83.9861 45.6506 84.7784C45.6506 85.5707 45.0083 86.2131 44.216 86.2131Z" fill="white"/>
<path d="M38.6488 12.6187H29.9979V19.3865H38.6564C38.6529 19.2885 38.6488 19.1905 38.6488 19.092V12.6187Z" fill="#D7E0DC" fill-opacity="0.24"/>
<path d="M70.4326 74.0001L69 91H77.6493C78.7289 91 79.6241 90.3266 79.6972 89.4592L81 74H70.4326V74.0001Z" fill="#EAFFF6"/>
<path d="M79.0721 90.4353H62.9876C62.7163 90.4353 62.4597 90.3696 62.2332 90.2529L62.425 93.0818C62.4983 94.1615 63.3955 94.9998 64.4777 94.9998H77.582C78.6641 94.9998 79.5614 94.1615 79.6347 93.0818L79.8265 90.2529C79.6 90.3696 79.3433 90.4353 79.0721 90.4353Z" fill="#D7E0DC" fill-opacity="0.24"/>
<path d="M79.6348 93.0815L79.8266 90.2527C79.6001 90.3694 79.3434 90.4351 79.0722 90.4351H69.2221L68.9124 94.9995H77.5821C78.6643 94.9997 79.5615 94.1614 79.6348 93.0815Z" fill="white" fill-opacity="0.24"/>
<path d="M43.1384 57.1952C43.7335 57.1952 44.2159 56.7128 44.2159 56.1178V48.5816C44.2159 47.9866 43.7335 47.5042 43.1384 47.5042H40.6779V57.1954L43.1384 57.1952Z" fill="#4DCDDB"/>
</g>
<defs>
<clipPath id="clip0">
<rect width="95" height="95" fill="white"/>
</clipPath>
</defs>
</svg>
