<svg width="91" height="91" viewBox="0 0 91 91" fill="none" xmlns="http://www.w3.org/2000/svg">
<path d="M61.8653 28.7659L51.1844 34.1063L45.5054 35.8836L39.8158 34.1063L29.1349 28.7659C28.7134 28.5551 28.447 28.1243 28.447 27.6531V0.000488281H62.5528V27.6531C62.553 28.1245 62.2867 28.5551 61.8653 28.7659V28.7659Z" fill="#5E7C8C"/>
<path d="M39.8158 34.1061H51.1842V42.6325H39.8158V34.1061Z" fill="#D6B968"/>
<path d="M39.8163 34.1071H43.4762V42.633H39.8163V34.1071Z" fill="#B6A16F"/>
<path d="M43.4761 34.107H39.8162L29.1342 28.7652C28.7128 28.5544 28.4465 28.1236 28.4465 27.6524V0H32.1064V27.6524C32.1064 28.1236 32.3727 28.5544 32.7941 28.7652L43.4761 34.107Z" fill="#455C6B"/>
<path d="M45.5001 90.9999C59.6512 90.9999 71.123 79.5282 71.123 65.377C71.123 51.2259 59.6512 39.7542 45.5001 39.7542C31.349 39.7542 19.8772 51.2259 19.8772 65.377C19.8772 79.5282 31.349 90.9999 45.5001 90.9999Z" fill="#FFE092"/>
<path d="M30.05 65.3771C30.05 52.9896 38.8862 42.6271 50.5865 40.2615C48.9421 39.9289 47.2412 39.7544 45.5001 39.7544C31.3716 39.7544 19.8772 51.2488 19.8772 65.3773C19.8772 79.5057 31.3716 91 45.5001 91C47.241 91 48.9421 90.8253 50.5865 90.4929C38.8861 88.1271 30.05 77.7647 30.05 65.3771Z" fill="#E6C46E"/>
<path d="M45.5 85.2721C56.4877 85.2721 65.3951 76.3648 65.3951 65.3771C65.3951 54.3894 56.4877 45.4821 45.5 45.4821C34.5123 45.4821 25.605 54.3894 25.605 65.3771C25.605 76.3648 34.5123 85.2721 45.5 85.2721Z" fill="#D6B968"/>
<path d="M46.7422 54.7806L49.1821 59.7247C49.3838 60.1335 49.7738 60.4168 50.2249 60.4824L55.681 61.2752C56.8171 61.4403 57.2706 62.8363 56.4486 63.6377L52.5006 67.486C52.1741 67.8041 52.0252 68.2627 52.1023 68.7118L53.0343 74.1459C53.2284 75.2773 52.0408 76.14 51.0247 75.6059L46.1446 73.0404C45.7412 72.8283 45.2592 72.8283 44.8557 73.0404L39.9757 75.6059C38.9595 76.1402 37.7721 75.2773 37.966 74.1459L38.898 68.7118C38.9752 68.2625 38.8261 67.8041 38.4997 67.486L34.5517 63.6375C33.7297 62.8363 34.1833 61.4402 35.3194 61.2751L40.7755 60.4822C41.2265 60.4166 41.6165 60.1333 41.8182 59.7245L44.2583 54.7805C44.7663 53.7512 46.234 53.7512 46.7422 54.7806V54.7806Z" fill="#FFE092"/>
<path d="M39.8158 0.000488281H51.1844V34.1063H39.8158V0.000488281Z" fill="#B94A5D"/>
<path d="M39.8163 0H43.4762V34.107H39.8163V0Z" fill="#7C4750"/>
<path d="M37.8123 47.022C30.6418 50.0287 25.605 57.1148 25.605 65.3773C25.605 73.6398 30.6418 80.7257 37.8123 83.7327C33.0266 79.0748 30.0498 72.5672 30.0498 65.3773C30.0499 58.1872 33.0266 51.6797 37.8123 47.022V47.022Z" fill="#B6A16F"/>
</svg>
