<svg width="78" height="95" viewBox="0 0 78 95" fill="none" xmlns="http://www.w3.org/2000/svg">
<g clip-path="url(#clip0)">
<path d="M39 45.2911V82.4403L40.6141 85.6707V93.7466C40.6141 94.175 40.444 94.5859 40.1413 94.8888C39.8386 95.1917 39.4281 95.3618 39 95.3618H3.49158C3.06352 95.3618 2.65299 95.1917 2.3503 94.8888C2.04761 94.5859 1.87756 94.175 1.87756 93.7466V85.6707L3.49158 82.4403V45.2911C3.06352 45.2911 2.65299 45.1209 2.3503 44.818C2.04761 44.5151 1.87756 44.1043 1.87756 43.6759V38.1095C1.8777 37.8357 1.94739 37.5665 2.08009 37.327C2.21278 37.0876 2.40413 36.8858 2.63615 36.7407L14.7897 30.7544C13.7264 26.4924 13.5492 22.0572 14.2692 17.7239L14.7897 14.6025H27.7019L28.2224 17.7239C28.672 20.4281 28.773 23.1789 28.523 25.9088C28.3731 27.5426 28.0986 29.1625 27.7019 30.7544L39.8555 36.7407C40.0875 36.8858 40.2788 37.0876 40.4115 37.327C40.5442 37.5665 40.6139 37.8357 40.6141 38.1095V43.6759C40.6143 43.8881 40.5728 44.0982 40.4918 44.2943C40.4108 44.4904 40.2919 44.6686 40.142 44.8186C39.992 44.9687 39.814 45.0876 39.618 45.1687C39.4221 45.2498 39.2121 45.2914 39 45.2911V45.2911Z" fill="#DE5D00"/>
<path d="M16.4037 1.68115H26.0878C26.5159 1.68115 26.9264 1.85132 27.2291 2.15423C27.5318 2.45714 27.7018 2.86796 27.7018 3.29634V14.6026H14.7897V3.29634C14.7897 2.86796 14.9597 2.45714 15.2624 2.15423C15.5651 1.85132 15.9756 1.68115 16.4037 1.68115Z" fill="#374357"/>
<path d="M3.49158 45.2913H39V82.4405H3.49158V45.2913Z" fill="#374357"/>
<path d="M39 47.6514V82.4405H3.49158V75.0994C16.5248 69.5735 28.7873 60.7828 39 47.6514Z" fill="#313B4C"/>
<path d="M39 37.2153H14.7897C13.8983 37.2153 13.1757 37.9385 13.1757 38.8305C13.1757 39.7226 13.8983 40.4457 14.7897 40.4457H39C39.8914 40.4457 40.614 39.7226 40.614 38.8305C40.614 37.9385 39.8914 37.2153 39 37.2153Z" fill="#EB7206"/>
<path d="M39 87.2859H14.7897C13.8983 87.2859 13.1757 88.009 13.1757 88.9011C13.1757 89.7931 13.8983 90.5163 14.7897 90.5163H39C39.8914 90.5163 40.614 89.7931 40.614 88.9011C40.614 88.009 39.8914 87.2859 39 87.2859Z" fill="#EB7206"/>
<path d="M28.523 25.9088H13.9686C13.7186 23.1789 13.8196 20.4281 14.2692 17.7239L14.7897 14.6025H27.7019L28.2224 17.7239C28.672 20.4281 28.773 23.1789 28.523 25.9088V25.9088Z" fill="#374357"/>
<path d="M31.6058 56.6895C28.5828 54.5289 24.9607 53.3675 21.2458 53.3675C17.5309 53.3675 13.9089 54.5289 10.8858 56.6895L9.00952 54.061C12.5801 51.5091 16.8581 50.1372 21.2458 50.1372C25.6335 50.1372 29.9116 51.5091 33.4821 54.061L31.6058 56.6895Z" fill="#485870"/>
<path d="M21.2458 64.6734C24.8113 64.6734 27.7018 63.2271 27.7018 61.443C27.7018 59.6589 24.8113 58.2126 21.2458 58.2126C17.6802 58.2126 14.7897 59.6589 14.7897 61.443C14.7897 63.2271 17.6802 64.6734 21.2458 64.6734Z" fill="#485870"/>
<path d="M11.5616 67.9038H30.9299V71.1342H11.5616V67.9038Z" fill="#485870"/>
<path d="M14.7897 74.3645H27.7018V77.5949H14.7897V74.3645Z" fill="#485870"/>
<path d="M32.5439 38.8303H35.772V45.2911H32.5439V38.8303Z" fill="#EB7206"/>
<path d="M32.5439 82.4404H35.772V95.3619H32.5439V82.4404Z" fill="#EB7206"/>
<path d="M6.7196 38.8303H9.94764V45.2911H6.7196V38.8303Z" fill="#EB7206"/>
<path d="M6.7196 87.2859H9.94764V95.3618H6.7196V87.2859Z" fill="#EB7206"/>
<path d="M14.7897 11.3723H27.7018V14.6027H14.7897V11.3723Z" fill="#313B4C"/>
<path d="M76.1226 64.6733V92.1315C76.1226 92.9882 75.7825 93.8099 75.1771 94.4157C74.5717 95.0215 73.7506 95.3619 72.8945 95.3619H50.2982C49.6111 95.3619 48.9419 95.1427 48.3879 94.736C47.8338 94.3293 47.4238 93.7565 47.2175 93.1006C47.1201 92.7868 47.0704 92.4601 47.0702 92.1315V64.6733H76.1226Z" fill="#D6D6D4" fill-opacity="0.24"/>
<path d="M76.1225 75.2246V92.1316C76.1225 92.9883 75.7824 93.81 75.177 94.4158C74.5716 95.0216 73.7506 95.3619 72.8944 95.3619H50.2982C49.6111 95.362 48.9419 95.1427 48.3878 94.7361C47.8338 94.3294 47.4238 93.7565 47.2174 93.1007C57.6783 88.562 67.4633 82.6888 76.1225 75.2246Z" fill="#CFCFCD" fill-opacity="0.24"/>
<path d="M47.0702 71.134H76.1226V88.9011H47.0702V71.134Z" fill="#DE5D00"/>
<path d="M76.1225 75.2246V88.9012H55.9634C63.1741 85.1128 69.9362 80.5251 76.1225 75.2246V75.2246Z" fill="#CF5700"/>
<path d="M69.6664 79.2102V87.2861C69.6664 87.7145 69.4964 88.1253 69.1937 88.4282C68.891 88.7311 68.4805 88.9013 68.0524 88.9013H59.9823C59.6046 88.9013 59.2389 88.7688 58.9488 88.5268C58.6586 88.2848 58.4625 87.9486 58.3945 87.5768C58.3766 87.481 58.3678 87.3836 58.3683 87.2861V79.2102C58.3683 78.7818 58.5384 78.371 58.841 78.068C59.1437 77.7651 59.5543 77.595 59.9823 77.595H68.0524C68.4805 77.595 68.891 77.7651 69.1937 78.068C69.4964 78.371 69.6664 78.7818 69.6664 79.2102Z" fill="#EB7206"/>
<path d="M69.6664 80.3508V87.286C69.6664 87.7144 69.4964 88.1252 69.1937 88.4281C68.891 88.7311 68.4805 88.9012 68.0524 88.9012H59.9823C59.6046 88.9013 59.2389 88.7687 58.9488 88.5267C58.6586 88.2847 58.4625 87.9486 58.3945 87.5768C62.2941 85.3979 66.0583 82.9849 69.6664 80.3508V80.3508Z" fill="#E66B00"/>
</g>
<defs>
<clipPath id="clip0">
<rect width="78" height="95" fill="white"/>
</clipPath>
</defs>
</svg>
