<svg width="85" height="85" viewBox="0 0 85 85" fill="none" xmlns="http://www.w3.org/2000/svg">
<path d="M65.2024 84.612L58.8672 80.8797V61.1726C58.8672 60.4639 58.2927 59.8893 57.5839 59.8893C56.8752 59.8893 56.3006 60.4639 56.3006 61.1726V80.8797L49.9655 84.612C49.7827 84.7198 49.8591 85 50.0712 85H65.0965C65.3088 85 65.3852 84.7198 65.2024 84.612Z" fill="#D1DCED"/>
<path d="M30.9484 23.2145V1.18469C30.9484 0.53042 30.4179 0 29.7637 0H23.4088C22.7545 0 22.2241 0.53042 22.2241 1.18469V23.2145C22.2241 24.4495 21.8129 25.6492 21.0552 26.6246L18.2272 30.265C16.4452 32.5588 15.478 35.3809 15.478 38.2855V82.5733C15.478 83.9136 16.5644 85 17.9047 85H35.2678C36.608 85 37.6944 83.9136 37.6944 82.5733V38.2855C37.6944 35.3808 36.727 32.5588 34.9452 30.265L32.1173 26.6246C31.3596 25.6492 30.9484 24.4495 30.9484 23.2145Z" fill="#96223B"/>
<path d="M66.7188 36.8155H48.4492C48.4492 36.8155 44.1813 47.3588 46.1778 54.0975C47.8406 59.7097 52.7849 62.1136 55.5874 63.0484C56.8833 63.4807 58.2845 63.4807 59.5803 63.0484C62.3828 62.1136 67.3271 59.7097 68.9899 54.0975C70.9869 47.3588 66.7188 36.8155 66.7188 36.8155Z" fill="#E5EBF6"/>
<path d="M66.7186 36.8155H58.981C58.981 36.8155 62.3823 47.1607 61.2522 54.0975C60.6865 57.5706 59.4002 60.735 57.8755 63.3652C58.4521 63.3385 59.0258 63.2334 59.5803 63.0484C62.3828 62.1136 67.3271 59.7097 68.9899 54.0975C70.9867 47.3588 66.7186 36.8155 66.7186 36.8155Z" fill="#D1DCED"/>
<path d="M45.7304 48.0069C45.5545 50.1259 45.6318 52.2541 46.178 54.0975C47.8408 59.7097 52.7851 62.1136 55.5876 63.0484C56.8835 63.4807 58.2845 63.4807 59.5805 63.0484C62.383 62.1136 67.3272 59.7097 68.9901 54.0975C69.5363 52.2541 69.6136 50.1259 69.4376 48.0069H45.7304Z" fill="#96223B"/>
<path d="M69.0831 53.7628C69.0929 53.7255 69.1017 53.6875 69.111 53.6498C69.1299 53.5741 69.1489 53.4984 69.1665 53.4218C69.1768 53.3772 69.1861 53.3319 69.1959 53.2869C69.2111 53.2165 69.2262 53.1462 69.2403 53.0752C69.25 53.0269 69.2588 52.9782 69.2679 52.9296C69.2807 52.8612 69.2933 52.7926 69.3049 52.7236C69.3134 52.6734 69.3214 52.623 69.3295 52.5725C69.3403 52.5039 69.3509 52.4352 69.3607 52.3661C69.368 52.3152 69.375 52.2642 69.3816 52.2129C69.3908 52.1432 69.3996 52.0733 69.4077 52.0032C69.4137 51.9526 69.4195 51.9018 69.425 51.8508C69.4326 51.7789 69.4397 51.7066 69.4464 51.6342C69.451 51.5847 69.4557 51.5352 69.4598 51.4854C69.4661 51.4097 69.4716 51.3337 69.4769 51.2577C69.4802 51.2108 69.4837 51.164 69.4867 51.117C69.4919 51.0335 69.496 50.9497 69.5 50.8659C69.5018 50.8262 69.5041 50.7867 69.5058 50.7468C69.5101 50.6411 69.5133 50.5352 69.5158 50.4289C69.5163 50.4105 69.5169 50.3922 69.5174 50.3738C69.5201 50.2455 69.5216 50.1168 69.5217 49.9878C69.5217 49.9855 69.5217 49.9831 69.5217 49.9808C69.5219 49.8565 69.5209 49.732 69.5187 49.6071C69.5183 49.5786 69.5174 49.55 69.5168 49.5215C69.5148 49.4228 69.5124 49.3241 69.5091 49.225C69.508 49.1886 69.5063 49.1522 69.5048 49.1159C69.5013 49.0239 69.4975 48.9319 69.4929 48.8398C69.4909 48.8011 69.4887 48.7624 69.4865 48.7238C69.4816 48.6338 69.4764 48.5438 69.4704 48.4536C69.4678 48.4143 69.4651 48.3751 69.4623 48.3358C69.456 48.245 69.449 48.1542 69.4417 48.0633C69.4402 48.0446 69.4386 48.0258 69.4371 48.0069H61.3328C61.5321 50.1052 61.5575 52.2255 61.2525 54.0975C60.6867 57.5706 59.4004 60.735 57.8757 63.3652C57.8759 63.3652 57.8762 63.3652 57.8764 63.3652C58.0195 63.3585 58.1624 63.3469 58.305 63.3306C58.306 63.3305 58.3072 63.3305 58.3082 63.3303C58.4418 63.3149 58.5748 63.2944 58.7075 63.2704C58.7252 63.2672 58.743 63.2641 58.7606 63.2606C58.8874 63.2365 59.0139 63.2086 59.1394 63.1767C59.1587 63.1719 59.1778 63.1664 59.1969 63.1615C59.3252 63.1276 59.453 63.0907 59.5796 63.0484C59.5797 63.0484 59.5801 63.0483 59.5802 63.0483C59.843 62.9606 60.1246 62.86 60.4204 62.7451C60.519 62.7068 60.6193 62.6669 60.7209 62.6254C63.5674 61.4623 67.5349 59.0079 68.9898 54.0973C69.0229 53.9869 69.0537 53.8752 69.0831 53.7628Z" fill="#841935"/>
<path d="M34.9452 30.265L32.1173 26.6246C31.3596 25.6492 30.9484 24.4495 30.9484 23.2146V1.18469C30.9484 0.53042 30.418 0 29.7637 0H26.5862V28.5089C26.5862 29.3208 26.8184 30.1141 27.2478 30.8032C28.1557 32.2605 29.6767 35.1673 29.6767 38.2855V82.5733C29.6767 83.9136 28.5903 85 27.2501 85H35.2676C36.6079 85 37.6943 83.9136 37.6943 82.5733V38.2855C37.6945 35.3809 36.7271 32.5588 34.9452 30.265Z" fill="#841935"/>
<path d="M37.6944 64.159H25.917C24.7467 64.159 23.7981 63.2104 23.7981 62.0402V47.0266C23.7981 45.8563 24.7467 44.9077 25.917 44.9077H37.6944V64.159Z" fill="#366A42"/>
<path d="M37.6939 44.9072H29.677V64.1584H37.6939V44.9072Z" fill="#2F5132"/>
<path d="M29.7637 0H23.4088C22.7545 0 22.2241 0.53042 22.2241 1.18469V20.5801H30.9486C30.9486 20.5801 30.9486 5.56318 30.9486 1.18469C30.9484 0.53042 30.418 0 29.7637 0Z" fill="#5D6C77"/>
<path d="M30.9484 20.5801V5.31665C30.9484 3.60935 30.9484 2.14243 30.9484 1.18452C30.9484 1.06184 30.9298 0.943467 30.8951 0.832236C30.8729 0.76085 30.8438 0.692617 30.8091 0.627705C30.8078 0.625049 30.8068 0.622393 30.8053 0.619902C30.7515 0.520791 30.6838 0.430479 30.6051 0.351123C30.6038 0.349795 30.6026 0.348301 30.6013 0.346973C30.5028 0.248525 30.3864 0.16834 30.2584 0.109238C30.2123 0.0879883 30.1651 0.0683984 30.116 0.053125C30.0046 0.0185937 29.8864 0 29.7637 0H26.5862V20.5801H30.9484Z" fill="#37464A"/>
<path d="M31.1706 8.06967H22.002C21.7346 8.06967 21.5176 7.85285 21.5176 7.58523V4.28302C21.5176 4.01557 21.7344 3.79858 22.002 3.79858H31.1706C31.438 3.79858 31.655 4.0154 31.655 4.28302V7.58523C31.6548 7.85285 31.438 8.06967 31.1706 8.06967Z" fill="#5F7A89"/>
<path d="M31.1705 3.79877H23.6372V8.06969H31.1705C31.4379 8.06969 31.6549 7.85287 31.6549 7.58525V4.28303C31.6548 4.01558 31.4379 3.79877 31.1705 3.79877Z" fill="#505B5B"/>
</svg>
