<svg width="306" height="80" viewBox="0 0 306 80" fill="none" xmlns="http://www.w3.org/2000/svg">
<g clip-path="url(#clip0_6591_32400)">
<g opacity="0.8">
<circle cx="295.86" cy="-1.65093" r="2" transform="rotate(20 295.86 -1.65093)" fill="#E04271" style="fill:#E04271;fill:color(display-p3 0.8782 0.2569 0.4428);fill-opacity:1;"/>
<circle cx="260.318" cy="2.43952" r="2" transform="rotate(20 260.318 2.43952)" fill="#E04271" style="fill:#E04271;fill:color(display-p3 0.8782 0.2569 0.4428);fill-opacity:1;"/>
<circle cx="275.353" cy="7.91181" r="2" transform="rotate(20 275.353 7.91181)" fill="#E04271" style="fill:#E04271;fill:color(display-p3 0.8782 0.2569 0.4428);fill-opacity:1;"/>
<circle cx="290.388" cy="13.3842" r="2" transform="rotate(20 290.388 13.3842)" fill="#E04271" style="fill:#E04271;fill:color(display-p3 0.8782 0.2569 0.4428);fill-opacity:1;"/>
<circle cx="305.423" cy="18.8565" r="2" transform="rotate(20 305.423 18.8565)" fill="#E04271" style="fill:#E04271;fill:color(display-p3 0.8782 0.2569 0.4428);fill-opacity:1;"/>
<circle cx="209.74" cy="1.05757" r="2" transform="rotate(20 209.74 1.05757)" fill="#E04271" style="fill:#E04271;fill:color(display-p3 0.8782 0.2569 0.4428);fill-opacity:1;"/>
<circle cx="224.775" cy="6.52998" r="2" transform="rotate(20 224.775 6.52998)" fill="#E04271" style="fill:#E04271;fill:color(display-p3 0.8782 0.2569 0.4428);fill-opacity:1;"/>
<circle cx="239.81" cy="12.0023" r="2" transform="rotate(20 239.81 12.0023)" fill="#E04271" style="fill:#E04271;fill:color(display-p3 0.8782 0.2569 0.4428);fill-opacity:1;"/>
<circle cx="254.845" cy="17.4746" r="2" transform="rotate(20 254.845 17.4746)" fill="#E04271" style="fill:#E04271;fill:color(display-p3 0.8782 0.2569 0.4428);fill-opacity:1;"/>
<circle cx="269.88" cy="22.9468" r="2" transform="rotate(20 269.88 22.9468)" fill="#E04271" style="fill:#E04271;fill:color(display-p3 0.8782 0.2569 0.4428);fill-opacity:1;"/>
<circle cx="284.916" cy="28.4193" r="2" transform="rotate(20 284.916 28.4193)" fill="#E04271" style="fill:#E04271;fill:color(display-p3 0.8782 0.2569 0.4428);fill-opacity:1;"/>
<circle cx="299.951" cy="33.8916" r="2" transform="rotate(20 299.951 33.8916)" fill="#E04271" style="fill:#E04271;fill:color(display-p3 0.8782 0.2569 0.4428);fill-opacity:1;"/>
<circle cx="159.163" cy="-0.324392" r="2" transform="rotate(20 159.163 -0.324392)" fill="#E04271" style="fill:#E04271;fill:color(display-p3 0.8782 0.2569 0.4428);fill-opacity:1;"/>
<circle cx="174.198" cy="5.14802" r="2" transform="rotate(20 174.198 5.14802)" fill="#E04271" style="fill:#E04271;fill:color(display-p3 0.8782 0.2569 0.4428);fill-opacity:1;"/>
<circle cx="189.233" cy="10.6203" r="2" transform="rotate(20 189.233 10.6203)" fill="#E04271" style="fill:#E04271;fill:color(display-p3 0.8782 0.2569 0.4428);fill-opacity:1;"/>
<circle cx="204.268" cy="16.0926" r="2" transform="rotate(20 204.268 16.0926)" fill="#E04271" style="fill:#E04271;fill:color(display-p3 0.8782 0.2569 0.4428);fill-opacity:1;"/>
<circle cx="219.303" cy="21.565" r="2" transform="rotate(20 219.303 21.565)" fill="#E04271" style="fill:#E04271;fill:color(display-p3 0.8782 0.2569 0.4428);fill-opacity:1;"/>
<circle cx="234.338" cy="27.0373" r="2" transform="rotate(20 234.338 27.0373)" fill="#E04271" style="fill:#E04271;fill:color(display-p3 0.8782 0.2569 0.4428);fill-opacity:1;"/>
<circle cx="249.373" cy="32.5096" r="2" transform="rotate(20 249.373 32.5096)" fill="#E04271" style="fill:#E04271;fill:color(display-p3 0.8782 0.2569 0.4428);fill-opacity:1;"/>
<circle cx="264.408" cy="37.9819" r="2" transform="rotate(20 264.408 37.9819)" fill="#E04271" style="fill:#E04271;fill:color(display-p3 0.8782 0.2569 0.4428);fill-opacity:1;"/>
<circle cx="279.443" cy="43.4543" r="2" transform="rotate(20 279.443 43.4543)" fill="#E04271" style="fill:#E04271;fill:color(display-p3 0.8782 0.2569 0.4428);fill-opacity:1;"/>
<circle cx="294.479" cy="48.9266" r="2" transform="rotate(20 294.479 48.9266)" fill="#E04271" style="fill:#E04271;fill:color(display-p3 0.8782 0.2569 0.4428);fill-opacity:1;"/>
<circle cx="108.585" cy="-1.70611" r="2" transform="rotate(20 108.585 -1.70611)" fill="#E04271" style="fill:#E04271;fill:color(display-p3 0.8782 0.2569 0.4428);fill-opacity:1;"/>
<circle cx="123.62" cy="3.76618" r="2" transform="rotate(20 123.62 3.76618)" fill="#E04271" style="fill:#E04271;fill:color(display-p3 0.8782 0.2569 0.4428);fill-opacity:1;"/>
<circle cx="138.655" cy="9.23847" r="2" transform="rotate(20 138.655 9.23847)" fill="#E04271" style="fill:#E04271;fill:color(display-p3 0.8782 0.2569 0.4428);fill-opacity:1;"/>
<circle cx="153.69" cy="14.7108" r="2" transform="rotate(20 153.69 14.7108)" fill="#E04271" style="fill:#E04271;fill:color(display-p3 0.8782 0.2569 0.4428);fill-opacity:1;"/>
<circle cx="168.726" cy="20.1832" r="2" transform="rotate(20 168.726 20.1832)" fill="#E04271" style="fill:#E04271;fill:color(display-p3 0.8782 0.2569 0.4428);fill-opacity:1;"/>
<circle cx="183.761" cy="25.6555" r="2" transform="rotate(20 183.761 25.6555)" fill="#E04271" style="fill:#E04271;fill:color(display-p3 0.8782 0.2569 0.4428);fill-opacity:1;"/>
<circle cx="198.796" cy="31.1278" r="2" transform="rotate(20 198.796 31.1278)" fill="#E04271" style="fill:#E04271;fill:color(display-p3 0.8782 0.2569 0.4428);fill-opacity:1;"/>
<circle cx="213.831" cy="36.6002" r="2" transform="rotate(20 213.831 36.6002)" fill="#E04271" style="fill:#E04271;fill:color(display-p3 0.8782 0.2569 0.4428);fill-opacity:1;"/>
<circle cx="228.866" cy="42.0725" r="2" transform="rotate(20 228.866 42.0725)" fill="#E04271" style="fill:#E04271;fill:color(display-p3 0.8782 0.2569 0.4428);fill-opacity:1;"/>
<circle cx="243.901" cy="47.5448" r="2" transform="rotate(20 243.901 47.5448)" fill="#E04271" style="fill:#E04271;fill:color(display-p3 0.8782 0.2569 0.4428);fill-opacity:1;"/>
<circle cx="258.936" cy="53.017" r="2" transform="rotate(20 258.936 53.017)" fill="#E04271" style="fill:#E04271;fill:color(display-p3 0.8782 0.2569 0.4428);fill-opacity:1;"/>
<circle cx="273.971" cy="58.4895" r="2" transform="rotate(20 273.971 58.4895)" fill="#E04271" style="fill:#E04271;fill:color(display-p3 0.8782 0.2569 0.4428);fill-opacity:1;"/>
<circle cx="289.006" cy="63.9617" r="2" transform="rotate(20 289.006 63.9617)" fill="#E04271" style="fill:#E04271;fill:color(display-p3 0.8782 0.2569 0.4428);fill-opacity:1;"/>
<circle cx="304.042" cy="69.434" r="2" transform="rotate(20 304.042 69.434)" fill="#E04271" style="fill:#E04271;fill:color(display-p3 0.8782 0.2569 0.4428);fill-opacity:1;"/>
<circle cx="73.0425" cy="2.38423" r="2" transform="rotate(20 73.0425 2.38423)" fill="#E04271" style="fill:#E04271;fill:color(display-p3 0.8782 0.2569 0.4428);fill-opacity:1;"/>
<circle cx="88.0777" cy="7.85652" r="2" transform="rotate(20 88.0777 7.85652)" fill="#E04271" style="fill:#E04271;fill:color(display-p3 0.8782 0.2569 0.4428);fill-opacity:1;"/>
<circle cx="103.112" cy="13.3289" r="2" transform="rotate(20 103.112 13.3289)" fill="#E04271" style="fill:#E04271;fill:color(display-p3 0.8782 0.2569 0.4428);fill-opacity:1;"/>
<circle cx="118.147" cy="18.8012" r="2" transform="rotate(20 118.147 18.8012)" fill="#E04271" style="fill:#E04271;fill:color(display-p3 0.8782 0.2569 0.4428);fill-opacity:1;"/>
<circle cx="133.183" cy="24.2735" r="2" transform="rotate(20 133.183 24.2735)" fill="#E04271" style="fill:#E04271;fill:color(display-p3 0.8782 0.2569 0.4428);fill-opacity:1;"/>
<circle cx="148.218" cy="29.7458" r="2" transform="rotate(20 148.218 29.7458)" fill="#E04271" style="fill:#E04271;fill:color(display-p3 0.8782 0.2569 0.4428);fill-opacity:1;"/>
<circle cx="163.253" cy="35.2182" r="2" transform="rotate(20 163.253 35.2182)" fill="#E04271" style="fill:#E04271;fill:color(display-p3 0.8782 0.2569 0.4428);fill-opacity:1;"/>
<circle cx="178.288" cy="40.6905" r="2" transform="rotate(20 178.288 40.6905)" fill="#E04271" style="fill:#E04271;fill:color(display-p3 0.8782 0.2569 0.4428);fill-opacity:1;"/>
<circle cx="193.323" cy="46.1628" r="2" transform="rotate(20 193.323 46.1628)" fill="#E04271" style="fill:#E04271;fill:color(display-p3 0.8782 0.2569 0.4428);fill-opacity:1;"/>
<circle cx="208.358" cy="51.6352" r="2" transform="rotate(20 208.358 51.6352)" fill="#E04271" style="fill:#E04271;fill:color(display-p3 0.8782 0.2569 0.4428);fill-opacity:1;"/>
<circle cx="223.393" cy="57.1075" r="2" transform="rotate(20 223.393 57.1075)" fill="#E04271" style="fill:#E04271;fill:color(display-p3 0.8782 0.2569 0.4428);fill-opacity:1;"/>
<circle cx="238.428" cy="62.5798" r="2" transform="rotate(20 238.428 62.5798)" fill="#E04271" style="fill:#E04271;fill:color(display-p3 0.8782 0.2569 0.4428);fill-opacity:1;"/>
<circle cx="253.463" cy="68.0521" r="2" transform="rotate(20 253.463 68.0521)" fill="#E04271" style="fill:#E04271;fill:color(display-p3 0.8782 0.2569 0.4428);fill-opacity:1;"/>
<circle cx="268.499" cy="73.5245" r="2" transform="rotate(20 268.499 73.5245)" fill="#E04271" style="fill:#E04271;fill:color(display-p3 0.8782 0.2569 0.4428);fill-opacity:1;"/>
<circle cx="283.534" cy="78.9968" r="2" transform="rotate(20 283.534 78.9968)" fill="#E04271" style="fill:#E04271;fill:color(display-p3 0.8782 0.2569 0.4428);fill-opacity:1;"/>
<circle cx="22.4649" cy="1.00239" r="2" transform="rotate(20 22.4649 1.00239)" fill="#E04271" style="fill:#E04271;fill:color(display-p3 0.8782 0.2569 0.4428);fill-opacity:1;"/>
<circle cx="37.5" cy="6.4748" r="2" transform="rotate(20 37.5 6.4748)" fill="#E04271" style="fill:#E04271;fill:color(display-p3 0.8782 0.2569 0.4428);fill-opacity:1;"/>
<circle cx="52.5352" cy="11.9471" r="2" transform="rotate(20 52.5352 11.9471)" fill="#E04271" style="fill:#E04271;fill:color(display-p3 0.8782 0.2569 0.4428);fill-opacity:1;"/>
<circle cx="67.5703" cy="17.4194" r="2" transform="rotate(20 67.5703 17.4194)" fill="#E04271" style="fill:#E04271;fill:color(display-p3 0.8782 0.2569 0.4428);fill-opacity:1;"/>
<circle cx="82.6055" cy="22.8917" r="2" transform="rotate(20 82.6055 22.8917)" fill="#E04271" style="fill:#E04271;fill:color(display-p3 0.8782 0.2569 0.4428);fill-opacity:1;"/>
<circle cx="97.6402" cy="28.3641" r="2" transform="rotate(20 97.6402 28.3641)" fill="#E04271" style="fill:#E04271;fill:color(display-p3 0.8782 0.2569 0.4428);fill-opacity:1;"/>
<circle cx="112.675" cy="33.8364" r="2" transform="rotate(20 112.675 33.8364)" fill="#E04271" style="fill:#E04271;fill:color(display-p3 0.8782 0.2569 0.4428);fill-opacity:1;"/>
<circle cx="127.71" cy="39.3087" r="2" transform="rotate(20 127.71 39.3087)" fill="#E04271" style="fill:#E04271;fill:color(display-p3 0.8782 0.2569 0.4428);fill-opacity:1;"/>
<circle cx="142.746" cy="44.781" r="2" transform="rotate(20 142.746 44.781)" fill="#E04271" style="fill:#E04271;fill:color(display-p3 0.8782 0.2569 0.4428);fill-opacity:1;"/>
<circle cx="157.781" cy="50.2534" r="2" transform="rotate(20 157.781 50.2534)" fill="#E04271" style="fill:#E04271;fill:color(display-p3 0.8782 0.2569 0.4428);fill-opacity:1;"/>
<circle cx="172.816" cy="55.7257" r="2" transform="rotate(20 172.816 55.7257)" fill="#E04271" style="fill:#E04271;fill:color(display-p3 0.8782 0.2569 0.4428);fill-opacity:1;"/>
<circle cx="187.851" cy="61.1979" r="2" transform="rotate(20 187.851 61.1979)" fill="#E04271" style="fill:#E04271;fill:color(display-p3 0.8782 0.2569 0.4428);fill-opacity:1;"/>
<circle cx="202.886" cy="66.6704" r="2" transform="rotate(20 202.886 66.6704)" fill="#E04271" style="fill:#E04271;fill:color(display-p3 0.8782 0.2569 0.4428);fill-opacity:1;"/>
<circle cx="217.921" cy="72.1426" r="2" transform="rotate(20 217.921 72.1426)" fill="#E04271" style="fill:#E04271;fill:color(display-p3 0.8782 0.2569 0.4428);fill-opacity:1;"/>
<circle cx="232.956" cy="77.6149" r="2" transform="rotate(20 232.956 77.6149)" fill="#E04271" style="fill:#E04271;fill:color(display-p3 0.8782 0.2569 0.4428);fill-opacity:1;"/>
<circle cx="1.95755" cy="10.5651" r="2" transform="rotate(20 1.95755 10.5651)" fill="#E04271" style="fill:#E04271;fill:color(display-p3 0.8782 0.2569 0.4428);fill-opacity:1;"/>
<circle cx="16.9927" cy="16.0374" r="2" transform="rotate(20 16.9927 16.0374)" fill="#E04271" style="fill:#E04271;fill:color(display-p3 0.8782 0.2569 0.4428);fill-opacity:1;"/>
<circle cx="32.0279" cy="21.5098" r="2" transform="rotate(20 32.0279 21.5098)" fill="#E04271" style="fill:#E04271;fill:color(display-p3 0.8782 0.2569 0.4428);fill-opacity:1;"/>
<circle cx="47.063" cy="26.9821" r="2" transform="rotate(20 47.063 26.9821)" fill="#E04271" style="fill:#E04271;fill:color(display-p3 0.8782 0.2569 0.4428);fill-opacity:1;"/>
<circle cx="62.0982" cy="32.4544" r="2" transform="rotate(20 62.0982 32.4544)" fill="#E04271" style="fill:#E04271;fill:color(display-p3 0.8782 0.2569 0.4428);fill-opacity:1;"/>
<circle cx="77.1333" cy="37.9267" r="2" transform="rotate(20 77.1333 37.9267)" fill="#E04271" style="fill:#E04271;fill:color(display-p3 0.8782 0.2569 0.4428);fill-opacity:1;"/>
<circle cx="92.168" cy="43.3991" r="2" transform="rotate(20 92.168 43.3991)" fill="#E04271" style="fill:#E04271;fill:color(display-p3 0.8782 0.2569 0.4428);fill-opacity:1;"/>
<circle cx="107.203" cy="48.8714" r="2" transform="rotate(20 107.203 48.8714)" fill="#E04271" style="fill:#E04271;fill:color(display-p3 0.8782 0.2569 0.4428);fill-opacity:1;"/>
<circle cx="122.238" cy="54.3437" r="2" transform="rotate(20 122.238 54.3437)" fill="#E04271" style="fill:#E04271;fill:color(display-p3 0.8782 0.2569 0.4428);fill-opacity:1;"/>
<circle cx="137.273" cy="59.816" r="2" transform="rotate(20 137.273 59.816)" fill="#E04271" style="fill:#E04271;fill:color(display-p3 0.8782 0.2569 0.4428);fill-opacity:1;"/>
<circle cx="152.309" cy="65.2884" r="2" transform="rotate(20 152.309 65.2884)" fill="#E04271" style="fill:#E04271;fill:color(display-p3 0.8782 0.2569 0.4428);fill-opacity:1;"/>
<circle cx="167.344" cy="70.7607" r="2" transform="rotate(20 167.344 70.7607)" fill="#E04271" style="fill:#E04271;fill:color(display-p3 0.8782 0.2569 0.4428);fill-opacity:1;"/>
<circle cx="182.379" cy="76.233" r="2" transform="rotate(20 182.379 76.233)" fill="#E04271" style="fill:#E04271;fill:color(display-p3 0.8782 0.2569 0.4428);fill-opacity:1;"/>
<circle cx="197.414" cy="81.7054" r="2" transform="rotate(20 197.414 81.7054)" fill="#E04271" style="fill:#E04271;fill:color(display-p3 0.8782 0.2569 0.4428);fill-opacity:1;"/>
<circle cx="11.5205" cy="31.0725" r="2" transform="rotate(20 11.5205 31.0725)" fill="#E04271" style="fill:#E04271;fill:color(display-p3 0.8782 0.2569 0.4428);fill-opacity:1;"/>
<circle cx="26.5557" cy="36.5449" r="2" transform="rotate(20 26.5557 36.5449)" fill="#E04271" style="fill:#E04271;fill:color(display-p3 0.8782 0.2569 0.4428);fill-opacity:1;"/>
<circle cx="41.5909" cy="42.0172" r="2" transform="rotate(20 41.5909 42.0172)" fill="#E04271" style="fill:#E04271;fill:color(display-p3 0.8782 0.2569 0.4428);fill-opacity:1;"/>
<circle cx="56.626" cy="47.4895" r="2" transform="rotate(20 56.626 47.4895)" fill="#E04271" style="fill:#E04271;fill:color(display-p3 0.8782 0.2569 0.4428);fill-opacity:1;"/>
<circle cx="71.6612" cy="52.9617" r="2" transform="rotate(20 71.6612 52.9617)" fill="#E04271" style="fill:#E04271;fill:color(display-p3 0.8782 0.2569 0.4428);fill-opacity:1;"/>
<circle cx="86.6958" cy="58.4342" r="2" transform="rotate(20 86.6958 58.4342)" fill="#E04271" style="fill:#E04271;fill:color(display-p3 0.8782 0.2569 0.4428);fill-opacity:1;"/>
<circle cx="101.731" cy="63.9064" r="2" transform="rotate(20 101.731 63.9064)" fill="#E04271" style="fill:#E04271;fill:color(display-p3 0.8782 0.2569 0.4428);fill-opacity:1;"/>
<circle cx="116.766" cy="69.3787" r="2" transform="rotate(20 116.766 69.3787)" fill="#E04271" style="fill:#E04271;fill:color(display-p3 0.8782 0.2569 0.4428);fill-opacity:1;"/>
<circle cx="131.801" cy="74.851" r="2" transform="rotate(20 131.801 74.851)" fill="#E04271" style="fill:#E04271;fill:color(display-p3 0.8782 0.2569 0.4428);fill-opacity:1;"/>
<circle cx="146.836" cy="80.3234" r="2" transform="rotate(20 146.836 80.3234)" fill="#E04271" style="fill:#E04271;fill:color(display-p3 0.8782 0.2569 0.4428);fill-opacity:1;"/>
<circle cx="6.04788" cy="46.1076" r="2" transform="rotate(20 6.04788 46.1076)" fill="#E04271" style="fill:#E04271;fill:color(display-p3 0.8782 0.2569 0.4428);fill-opacity:1;"/>
<circle cx="21.083" cy="51.58" r="2" transform="rotate(20 21.083 51.58)" fill="#E04271" style="fill:#E04271;fill:color(display-p3 0.8782 0.2569 0.4428);fill-opacity:1;"/>
<circle cx="36.1182" cy="57.0523" r="2" transform="rotate(20 36.1182 57.0523)" fill="#E04271" style="fill:#E04271;fill:color(display-p3 0.8782 0.2569 0.4428);fill-opacity:1;"/>
<circle cx="51.1534" cy="62.5246" r="2" transform="rotate(20 51.1534 62.5246)" fill="#E04271" style="fill:#E04271;fill:color(display-p3 0.8782 0.2569 0.4428);fill-opacity:1;"/>
<circle cx="66.1885" cy="67.9969" r="2" transform="rotate(20 66.1885 67.9969)" fill="#E04271" style="fill:#E04271;fill:color(display-p3 0.8782 0.2569 0.4428);fill-opacity:1;"/>
<circle cx="81.2232" cy="73.4693" r="2" transform="rotate(20 81.2232 73.4693)" fill="#E04271" style="fill:#E04271;fill:color(display-p3 0.8782 0.2569 0.4428);fill-opacity:1;"/>
<circle cx="96.2583" cy="78.9416" r="2" transform="rotate(20 96.2583 78.9416)" fill="#E04271" style="fill:#E04271;fill:color(display-p3 0.8782 0.2569 0.4428);fill-opacity:1;"/>
<circle cx="0.575716" cy="61.1427" r="2" transform="rotate(20 0.575716 61.1427)" fill="#E04271" style="fill:#E04271;fill:color(display-p3 0.8782 0.2569 0.4428);fill-opacity:1;"/>
<circle cx="15.6109" cy="66.6151" r="2" transform="rotate(20 15.6109 66.6151)" fill="#E04271" style="fill:#E04271;fill:color(display-p3 0.8782 0.2569 0.4428);fill-opacity:1;"/>
<circle cx="30.646" cy="72.0873" r="2" transform="rotate(20 30.646 72.0873)" fill="#E04271" style="fill:#E04271;fill:color(display-p3 0.8782 0.2569 0.4428);fill-opacity:1;"/>
<circle cx="45.6812" cy="77.5596" r="2" transform="rotate(20 45.6812 77.5596)" fill="#E04271" style="fill:#E04271;fill:color(display-p3 0.8782 0.2569 0.4428);fill-opacity:1;"/>
<circle cx="10.1387" cy="81.6502" r="2" transform="rotate(20 10.1387 81.6502)" fill="#E04271" style="fill:#E04271;fill:color(display-p3 0.8782 0.2569 0.4428);fill-opacity:1;"/>
</g>
</g>
<defs>
<clipPath id="clip0_6591_32400">
<rect width="306" height="80" fill="white" style="fill:white;fill-opacity:1;"/>
</clipPath>
</defs>
</svg>
