<?xml version="1.0" encoding="UTF-8"?>
<svg xmlns="http://www.w3.org/2000/svg" version="1.1" viewBox="0 0 14 14">
  <defs>
    <style>
      .cls-1 {
        fill: #4ae7e7;
      }
    </style>
  </defs>
  <!-- Generator: Adobe Illustrator 28.6.0, SVG Export Plug-In . SVG Version: 1.2.0 Build 709)  -->
  <g>
    <g id="_Слой_1" data-name="Слой_1">
      <path class="cls-1" d="M6.1.7C6.5,0,7.5,0,7.9.7l1.4,2.7c.1.3.4.5.7.5l2.9.6c.8.2,1.1,1.1.6,1.6l-2.1,2.4c-.2.2-.3.5-.2.8l.4,3.2c0,.8-.7,1.4-1.4,1l-2.6-1.3c-.3-.1-.6-.1-.9,0l-2.6,1.3c-.7.4-1.5-.2-1.4-1l.4-3.2c0-.3,0-.6-.2-.8L.6,6.2c-.5-.6-.2-1.5.6-1.6l2.9-.6c.3,0,.6-.3.7-.5l1.4-2.7Z"/>
    </g>
  </g>
</svg>